# decimated by Tools/decimate_anatomy.py from 5312 triangles (BodyParts3D, CC BY 4.0)
v -0.00342861 -0.00102075 0.02633085
v -0.00284433 -0.00110441 0.02574425
v -0.00160664 -0.00406361 0.02828508
v -0.00235516 -0.00258374 0.02721132
v -0.00328715 -0.00395424 0.02137326
v -0.00355585 0.00652457 0.02475392
v -0.00398885 0.00661228 0.02595731
v -0.00389205 0.00857930 0.02688147
v -0.00485717 -0.00445881 0.03092667
v -0.00757315 -0.00724324 0.02096330
v -0.00568121 -0.00833635 0.02476114
v -0.00772142 -0.00446018 0.03090332
v -0.00895400 -0.00327897 0.03083737
v -0.00970756 -0.00673103 0.02076246
v -0.01052539 -0.00734486 0.02372965
v -0.00822648 0.00672693 0.02155933
v -0.00970128 0.00587679 0.02168263
v -0.01059477 0.00613985 0.02237084
v -0.01198338 -0.00181473 0.02872584
v -0.00920969 0.00755678 0.02730513
v -0.01089024 0.00773194 0.02629404
v -0.01223067 -0.00532785 0.02618402
v -0.01286764 0.00017616 0.02692177
v -0.01570521 0.00241500 0.02146145
v -0.00517968 0.00835306 0.02747816
v -0.00595253 -0.00445773 0.03113856
v -0.00678123 0.00842781 0.02734602
v -0.00586596 0.00887912 0.02693241
v -0.00911922 -0.00328603 0.03085460
v -0.00833093 0.00662606 0.02129192
v -0.00932820 0.00761722 0.02728689
v -0.01274115 0.00432473 0.02571531
v -0.00480733 0.00878168 0.02419461
v -0.00338948 0.00756031 0.02442416
v -0.00513125 0.00645225 0.02641738
v -0.00346405 0.00796801 0.02441454
v -0.00522017 0.00890248 0.02695347
v -0.00525195 -0.00785447 0.02679971
v -0.00950421 -0.00731538 0.02239722
v -0.01139133 -0.00582765 0.02640481
v -0.01026055 0.00618926 0.02229144
v -0.00901210 -0.00315585 0.03073598
v -0.01174676 -0.00018411 0.02773858
v -0.00969738 -0.00291232 0.03041706
v -0.01157139 0.00108189 0.02721222
v -0.01086997 0.00703377 0.02437338
v -0.01312726 -0.00610464 0.02377466
v -0.01343045 -0.00586338 0.02460841
v -0.01281914 -0.00499149 0.02653564
v -0.01167710 0.00598336 0.02234082
v -0.01203208 0.00606496 0.02300306
v -0.00964742 0.00285569 0.01840045
v -0.01488626 0.00342383 0.02222391
v -0.01727302 -0.00142977 0.02043522
v -0.01683834 0.00037577 0.02006467
v -0.00374626 -0.00019168 0.02611686
v -0.00237128 -0.00440848 0.03011986
v -0.00800099 -0.00404819 0.03100062
v -0.00870710 0.00647009 0.02108607
v -0.00216852 -0.00279536 0.02715857
v -0.00235176 -0.00455702 0.03013448
v -0.00291834 -0.00078964 0.02532136
v -0.00151363 -0.00443689 0.02827330
v -0.00435677 0.00228736 0.02087625
v -0.00418115 -0.00007315 0.02021402
v -0.00344111 -0.00717459 0.02590837
v -0.00269617 -0.00141664 0.02586407
v -0.00677162 -0.00030283 0.02595175
v -0.00480724 0.00282807 0.01990712
v -0.00347833 0.00336315 0.02447942
v -0.00389478 0.00694025 0.02299228
v -0.00415335 0.00552903 0.02550648
v -0.00370056 0.00519188 0.02405169
v -0.00382254 0.00797121 0.02364941
v -0.00407146 0.00768472 0.02278315
v -0.00330749 0.00779837 0.02605758
v -0.00410481 0.00794213 0.02711382
v -0.00392476 0.00743672 0.02668799
v -0.00457025 0.00840621 0.02734545
v -0.00374415 0.00833121 0.02413127
v -0.00356871 0.00843672 0.02664924
v -0.00419496 0.00891134 0.02646048
v -0.00418825 0.00864724 0.02694406
v -0.00440317 0.00887294 0.02680070
v -0.00438217 -0.00476972 0.03101910
v -0.00342856 -0.00474459 0.03056425
v -0.00526906 -0.00779634 0.02694488
v -0.00744558 -0.00220908 0.02806064
v -0.00495154 0.00802765 0.02735225
v -0.00480877 0.00755222 0.02706623
v -0.00667747 0.00839408 0.02736294
v -0.00898544 -0.00267400 0.01812806
v -0.00896512 -0.00786068 0.02422330
v -0.00909038 -0.00683636 0.02054956
v -0.01036500 -0.00747507 0.02461639
v -0.00819961 0.00678018 0.02162777
v -0.00967389 0.00581584 0.02153045
v -0.00617532 0.00698335 0.02157073
v -0.00871592 0.00645947 0.02109806
v -0.00982622 0.00566610 0.02123687
v -0.01011328 0.00663809 0.02309561
v -0.01051935 0.00545291 0.02106148
v -0.01029567 0.00552600 0.02108145
v -0.00995885 0.00572548 0.02161806
v -0.00873213 -0.00779240 0.02527157
v -0.01024648 -0.00739653 0.02533275
v -0.00989362 -0.00676828 0.02755118
v -0.00739961 -0.00816829 0.02558887
v -0.01042783 -0.00723432 0.02557784
v -0.01046063 -0.00680685 0.02667314
v -0.01135436 -0.00653019 0.02509412
v -0.01088020 -0.00667458 0.02587390
v -0.01149178 -0.00616881 0.02539266
v -0.00801093 -0.00457937 0.03068991
v -0.01161001 -0.00531754 0.02755676
v -0.01121013 -0.00591520 0.02706380
v -0.01195701 -0.00514735 0.02736342
v -0.00974338 0.00721288 0.02378397
v -0.01029062 0.00638270 0.02275922
v -0.01028656 0.00679713 0.02360470
v -0.01030562 0.00623655 0.02241260
v -0.01071483 0.00612606 0.02311329
v -0.01043391 0.00685734 0.02383832
v -0.01067144 0.00613627 0.02257905
v -0.01078120 0.00610202 0.02235709
v -0.01090659 0.00605736 0.02241442
v -0.01082890 0.00603125 0.02285018
v -0.01076361 0.00624384 0.02331055
v -0.01042880 -0.00205567 0.02946037
v -0.01093930 -0.00005727 0.02770367
v -0.01170963 -0.00287292 0.02858398
v -0.01170229 -0.00164111 0.02886324
v -0.01163441 -0.00075806 0.02821121
v -0.00590670 0.00454053 0.02591772
v -0.01093972 0.00224997 0.02700284
v -0.00743455 0.00849571 0.02711554
v -0.00808385 0.00804913 0.02735246
v -0.00640642 0.00796395 0.02725356
v -0.00648564 0.00794423 0.02724277
v -0.01033621 0.00390525 0.02688250
v -0.00922254 0.00829781 0.02556813
v -0.00501992 0.00902220 0.02623781
v -0.00940882 0.00787390 0.02471223
v -0.01093403 0.00737824 0.02484092
v -0.00951281 0.00821153 0.02550977
v -0.01187673 -0.00668253 0.02430259
v -0.01251862 -0.00640078 0.02350896
v -0.01222933 -0.00653233 0.02422695
v -0.01010540 0.00565421 0.02073087
v -0.01069716 0.00524351 0.02059327
v -0.01016287 0.00570766 0.02160135
v -0.01095906 0.00579935 0.02173772
v -0.01188368 -0.00626413 0.02491217
v -0.01212941 -0.00645670 0.02443048
v -0.01198623 -0.00622434 0.02488344
v -0.01194458 -0.00564306 0.02558550
v -0.01181778 -0.00548423 0.02639711
v -0.01197269 -0.00539010 0.02682308
v -0.01259560 -0.00517446 0.02627114
v -0.01248627 -0.00535395 0.02595650
v -0.01305902 -0.00538428 0.02560244
v -0.01277454 -0.00515094 0.02622693
v -0.01311904 -0.00508658 0.02605226
v -0.01146080 0.00603031 0.02294325
v -0.01075383 0.00615033 0.02319263
v -0.01141458 0.00616660 0.02321864
v -0.01199851 0.00604148 0.02293087
v -0.01142954 0.00634324 0.02354014
v -0.01095620 0.00771996 0.02529808
v -0.01251044 0.00582926 0.02260672
v -0.01263851 0.00609561 0.02333759
v -0.01245499 0.00637458 0.02435787
v -0.01191867 -0.00164483 0.02881949
v -0.01276211 0.00020041 0.02698403
v -0.01201583 0.00039205 0.02730702
v -0.01263467 0.00337730 0.02612695
v -0.01250403 0.00447212 0.02590095
v -0.00999169 -0.00221695 0.01823457
v -0.01165164 -0.00465530 0.01918896
v -0.01435291 -0.00266162 0.01856702
v -0.01505851 -0.00319276 0.01894587
v -0.00971837 -0.00584450 0.01976747
v -0.01495598 -0.00255429 0.01865137
v -0.01630284 -0.00244942 0.01932975
v -0.01527930 -0.00311069 0.01906547
v -0.01615290 -0.00233534 0.01917253
v -0.01677929 -0.00238083 0.01980185
v -0.00961967 0.00165122 0.01816805
v -0.01158559 -0.00153707 0.01828599
v -0.01631113 -0.00035780 0.01893671
v -0.01549986 0.00097166 0.01876903
v -0.01158089 0.00353935 0.01873041
v -0.01400695 0.00305072 0.01906023
v -0.01263437 0.00351996 0.01897275
v -0.01417100 0.00317226 0.01928929
v -0.01144476 0.00461357 0.01988439
v -0.01161998 0.00580334 0.02175280
v -0.01190674 0.00459708 0.02037562
v -0.01312465 0.00565664 0.02254454
v -0.01521787 0.00161392 0.01879448
v -0.01371585 0.00250910 0.01857639
v -0.01423934 0.00248558 0.01880754
v -0.01592930 -0.00338253 0.02361216
v -0.01494326 -0.00482434 0.02317633
v -0.01558734 -0.00357307 0.02000791
v -0.01630705 -0.00346852 0.02162296
v -0.01319144 0.00556132 0.02238665
v -0.01612445 0.00103434 0.01938139
v -0.01486895 0.00253688 0.01926016
v -0.01292647 0.00588054 0.02312256
v -0.01400689 -0.00559673 0.02418920
v -0.01412565 -0.00533080 0.02468928
v -0.01566922 -0.00419125 0.02266237
v -0.01213869 -0.00470902 0.02746179
v -0.01271717 -0.00492846 0.02669860
v -0.01483943 -0.00382493 0.02493294
v -0.01357930 -0.00466105 0.02593661
v -0.01438894 -0.00476741 0.02487541
v -0.01610042 -0.00381293 0.02288319
v -0.01459010 -0.00445015 0.02490688
v -0.01574109 -0.00229023 0.02382913
v -0.01675420 -0.00130324 0.01934227
v -0.01708592 -0.00221367 0.02017354
v -0.01699344 -0.00256962 0.02057813
v -0.01721181 -0.00176814 0.02011839
v -0.01698451 -0.00219682 0.01994516
v -0.01680868 -0.00137877 0.01940082
v -0.01720749 -0.00127184 0.01997708
v -0.01675920 -0.00007565 0.01955587
v -0.01715623 -0.00212486 0.02056756
v -0.01639853 -0.00302717 0.02277758
v -0.01710794 -0.00194479 0.02102369
v -0.01627613 0.00144860 0.01991961
v -0.01716235 -0.00089842 0.02033616
v -0.01694084 0.00013015 0.02011664
v -0.01711491 -0.00145437 0.02116059
v -0.01670431 -0.00127557 0.02184416
v -0.01716122 -0.00111240 0.02067964
v -0.01685646 -0.00013674 0.02111243
v -0.00224095 -0.00496178 0.02974155
v -0.00148612 -0.00447377 0.02855893
v -0.00248722 -0.00284892 0.02782047
v -0.00711360 -0.00282469 0.02875828
v -0.00222082 -0.00477998 0.02986702
v -0.00179373 -0.00438884 0.02942855
v -0.00209393 -0.00468385 0.02969483
v -0.00683954 -0.00028400 0.02583946
v -0.00506026 0.00404888 0.02588377
v -0.00379242 0.00157848 0.02552335
v -0.00363133 0.00377088 0.02527595
v -0.00475372 -0.00482866 0.03120022
v -0.00695847 0.00849807 0.02720155
v -0.01024454 0.00807945 0.02608740
v -0.00630233 -0.00456548 0.03113833
v -0.00831019 -0.00355736 0.03092347
v -0.00651538 -0.00436174 0.03110283
v -0.00848530 -0.00360710 0.03092280
v -0.00737244 -0.00420311 0.03104678
v -0.00767757 -0.00391297 0.03099615
v -0.00969474 -0.00385472 0.02996901
v -0.01047589 -0.00740796 0.02495794
v -0.00762331 0.00677898 0.02147360
v -0.00925570 0.00617646 0.02064078
v -0.00868321 0.00642837 0.02099260
v -0.00869810 0.00646927 0.02111716
v -0.00976744 0.00590288 0.02036120
v -0.00977601 0.00586331 0.02067261
v -0.00981423 0.00587383 0.02050165
v -0.01080563 0.00480598 0.01964077
v -0.01136261 0.00463358 0.01981748
v -0.00905042 0.00833807 0.02704144
v -0.00993971 0.00584393 0.02706689
v -0.00948610 0.00770123 0.02719688
v -0.01035328 0.00592660 0.02687114
v -0.00728616 0.00829158 0.02734316
v -0.00924213 0.00773905 0.02728947
v -0.01254187 0.00444022 0.02590549
v -0.01120268 0.00700024 0.02630478
v -0.01085272 0.00780513 0.02541847
v -0.01243317 0.00626242 0.02362563
v -0.01250035 0.00627966 0.02393344
v -0.01094191 0.00777503 0.02546021
v -0.01215983 0.00662131 0.02434118
v -0.01290063 0.00013789 0.02692578
v -0.01346963 0.00253741 0.02534031
v -0.01448047 0.00230101 0.02385515
v -0.01508315 0.00212960 0.02286357
vn 0.198329 0.662895 0.721967
vn 0.839841 0.224603 0.494187
vn 0.734393 0.601080 0.315229
vn 0.665613 0.646512 0.372802
vn 0.794672 -0.271155 -0.543114
vn 0.996500 -0.083565 0.002267
vn 0.594240 -0.301286 0.745725
vn 0.636032 0.771611 0.008913
vn 0.171396 0.838043 0.517984
vn 0.297156 -0.719122 -0.628142
vn 0.438399 -0.825529 -0.355399
vn -0.486505 -0.186452 0.853551
vn 0.143589 0.668602 0.729626
vn -0.382083 -0.828613 -0.409162
vn -0.354856 -0.903069 -0.241958
vn -0.497883 0.863201 -0.083644
vn -0.324332 0.788413 -0.522699
vn -0.125545 0.895436 -0.427121
vn -0.666166 -0.229825 0.709509
vn 0.201946 -0.218052 0.954815
vn -0.785979 0.484230 0.384392
vn -0.466708 -0.849258 0.246869
vn -0.759854 0.206313 0.616487
vn -0.857602 0.491404 0.151794
vn 0.009962 0.312989 0.949704
vn -0.040714 0.130051 0.990671
vn -0.049822 0.730186 0.681429
vn -0.185975 0.960743 0.205880
vn -0.040727 0.130024 0.990674
vn -0.092750 0.909805 -0.404540
vn -0.333658 0.046722 0.941536
vn -0.827299 0.320706 0.461220
vn -0.057090 0.929932 -0.363272
vn 0.967991 -0.060138 -0.243675
vn 0.229295 -0.441717 0.867358
vn 0.905376 0.414861 -0.090476
vn -0.069539 0.949134 0.307098
vn 0.207811 -0.918165 0.337325
vn -0.207533 -0.944094 -0.256159
vn -0.661636 -0.713464 0.230666
vn -0.071520 0.869935 -0.487953
vn 0.229005 0.844523 0.484085
vn -0.237797 0.475762 0.846819
vn -0.344975 0.452576 0.822294
vn -0.276674 0.360841 0.890643
vn -0.219864 0.771829 -0.596607
vn -0.541026 -0.840145 -0.038042
vn -0.410053 -0.853750 0.320886
vn -0.509112 -0.792769 0.335146
vn -0.147750 0.969406 -0.196017
vn -0.117267 0.943446 -0.310095
vn 0.121649 0.397272 -0.909602
vn -0.837037 0.420367 0.350228
vn -0.983888 -0.038787 0.174525
vn -0.907827 0.417303 0.041327
vn 0.045210 0.119427 0.991813
vn 0.353525 0.767041 0.535414
vn -0.040702 0.130080 0.990668
vn -0.524006 0.845015 0.106613
vn 0.718996 0.607442 0.337725
vn 0.390287 -0.551674 0.737110
vn 0.966951 0.125722 -0.221808
vn 0.960924 -0.122252 -0.248353
vn 0.961298 0.121711 -0.247168
vn 0.553198 -0.055693 -0.831186
vn 0.738337 -0.658224 -0.146971
vn 0.957566 0.230263 -0.173341
vn 0.034433 0.659974 0.750499
vn 0.451740 0.249636 -0.856512
vn 0.980895 0.080586 -0.177061
vn 0.964720 0.009649 -0.263100
vn 0.356303 -0.175250 0.917788
vn 0.965915 0.041767 -0.255466
vn 0.894258 0.278245 -0.350546
vn 0.463770 0.563617 -0.683559
vn 0.960833 -0.181663 0.209281
vn 0.469206 -0.259934 0.843967
vn 0.524636 -0.502276 0.687368
vn 0.272952 0.162549 0.948196
vn 0.545544 0.804620 -0.234452
vn 0.730935 0.665171 0.152584
vn 0.361514 0.931684 -0.035680
vn 0.339388 0.747725 0.570721
vn 0.205345 0.809941 0.549390
vn 0.045249 -0.804258 0.592555
vn 0.377739 -0.589618 0.713907
vn -0.008849 -0.804907 0.593334
vn 0.183705 0.727154 0.661437
vn 0.029169 -0.317982 0.947648
vn 0.099905 -0.506204 0.856608
vn -0.015120 -0.255343 0.966732
vn 0.294314 -0.221113 -0.929779
vn -0.150611 -0.979276 -0.135408
vn -0.130138 -0.794132 -0.593649
vn -0.352790 -0.935685 -0.005700
vn -0.212844 0.851450 -0.479303
vn -0.408536 0.868829 -0.279703
vn 0.200892 0.474466 -0.857044
vn -0.547224 0.804817 0.229816
vn -0.509118 0.856714 0.082700
vn -0.447464 0.763729 -0.465290
vn -0.229658 0.859864 -0.455951
vn -0.326653 0.931787 0.158337
vn -0.252838 0.881581 -0.398608
vn -0.268206 -0.959011 0.091446
vn -0.253297 -0.954698 0.156181
vn -0.234890 -0.788196 0.568835
vn -0.157708 -0.980140 0.120225
vn -0.416224 -0.848831 0.325951
vn -0.480294 -0.821799 0.306535
vn -0.614779 -0.677899 0.403112
vn -0.702788 -0.652489 0.283455
vn -0.681969 -0.639778 0.354405
vn -0.232322 -0.720719 0.653139
vn -0.535168 -0.563604 0.629243
vn -0.736870 -0.658763 0.151835
vn -0.551604 -0.702334 0.449956
vn -0.406230 0.802079 -0.437774
vn -0.290546 0.885782 -0.361902
vn -0.440766 0.791248 -0.423853
vn -0.223777 0.895503 -0.384705
vn -0.503248 0.785025 -0.361216
vn -0.356577 0.786643 -0.504029
vn -0.457283 0.889050 -0.021941
vn -0.265602 0.960554 -0.082415
vn -0.152821 0.983445 -0.097371
vn -0.289084 0.954006 -0.079391
vn -0.190096 0.788316 -0.585168
vn 0.275048 0.722917 0.633830
vn 0.269378 0.510882 0.816355
vn -0.596100 -0.193956 0.779131
vn -0.200018 0.599739 0.774794
vn -0.222380 0.591474 0.775052
vn 0.192061 -0.151543 0.969612
vn 0.075990 0.088425 0.993180
vn -0.113555 0.786565 0.606977
vn 0.068274 -0.333814 0.940163
vn -0.007720 -0.359488 0.933118
vn 0.082940 -0.376773 0.922585
vn 0.245127 -0.132697 0.960367
vn -0.174792 0.974857 -0.138210
vn -0.110422 0.992074 -0.059966
vn -0.256973 0.877129 -0.405722
vn -0.221222 0.773164 -0.594373
vn -0.275276 0.862758 -0.424113
vn -0.526333 -0.782526 0.332605
vn -0.431608 -0.865202 -0.255225
vn -0.405565 -0.878848 0.251285
vn -0.534880 0.844625 -0.022649
vn -0.523804 0.830012 -0.191599
vn -0.052396 0.878602 -0.474672
vn -0.051533 0.858102 -0.510887
vn -0.505819 -0.674982 0.537165
vn -0.479819 -0.725777 0.492972
vn -0.342077 -0.750194 0.565855
vn -0.381652 -0.802819 0.458064
vn -0.494059 -0.861722 0.115504
vn -0.476503 -0.849253 0.227409
vn -0.263130 -0.889730 0.373020
vn -0.212987 -0.861097 0.461680
vn -0.271516 -0.821903 0.500753
vn -0.298660 -0.884177 0.359211
vn -0.549168 -0.647828 0.527952
vn -0.003357 0.973651 -0.228017
vn -0.134934 0.855246 -0.500347
vn -0.049662 0.903863 -0.424929
vn -0.103426 0.966592 -0.234526
vn -0.072470 0.806659 -0.586558
vn -0.162970 0.808738 -0.565141
vn -0.210124 0.927359 -0.309602
vn -0.162054 0.867335 -0.470605
vn -0.778617 0.604147 0.169593
vn -0.784641 0.105246 0.610951
vn -0.345008 0.349558 0.871079
vn -0.446621 0.395540 0.802544
vn -0.548709 0.235691 0.802103
vn -0.412063 0.152580 0.898289
vn -0.068205 -0.017424 -0.997519
vn -0.080906 -0.452714 -0.887977
vn -0.089392 -0.284880 -0.954386
vn -0.291120 -0.724054 -0.625296
vn -0.179831 -0.680596 -0.710246
vn -0.146659 0.003793 -0.989180
vn -0.579664 -0.312354 -0.752611
vn -0.535914 -0.573761 -0.619350
vn -0.452795 -0.210242 -0.866473
vn -0.632885 -0.599515 -0.489937
vn 0.051268 0.049562 -0.997454
vn -0.083638 -0.000392 -0.996496
vn -0.494049 0.046214 -0.868205
vn -0.347029 0.142809 -0.926918
vn 0.135179 0.491189 -0.860500
vn -0.318702 0.633309 -0.705230
vn -0.267753 0.705405 -0.656287
vn -0.361990 0.787528 -0.498762
vn -0.397307 0.863856 -0.309679
vn -0.228231 0.816869 -0.529751
vn -0.243704 0.807553 -0.537091
vn -0.635991 0.764288 -0.106673
vn -0.175697 0.077742 -0.981370
vn -0.115137 0.198455 -0.973324
vn -0.400178 0.481491 -0.779759
vn -0.823506 -0.192657 0.533593
vn -0.557730 -0.818139 -0.139948
vn -0.446685 -0.816570 -0.365631
vn -0.617845 -0.766758 -0.174215
vn -0.598101 0.729333 -0.332188
vn -0.702533 0.350587 -0.619303
vn -0.648631 0.661899 -0.375723
vn -0.770356 0.636794 0.032330
vn -0.602709 -0.795753 0.059326
vn -0.673863 -0.653037 0.345617
vn -0.622506 -0.762862 -0.174722
vn -0.646670 -0.325768 0.689705
vn -0.667693 -0.415921 0.617410
vn -0.752121 -0.154791 0.640588
vn -0.692918 -0.369572 0.619097
vn -0.722192 -0.499190 0.478798
vn -0.777091 -0.607800 0.163426
vn -0.744190 -0.431737 0.509691
vn -0.813285 0.153716 0.561194
vn -0.628292 -0.046817 -0.776568
vn -0.879106 -0.298656 -0.371453
vn -0.820602 -0.568115 -0.062104
vn -0.914318 -0.199196 -0.352624
vn -0.792387 -0.362277 -0.490793
vn -0.780107 -0.129833 -0.612027
vn -0.916529 0.115626 -0.382892
vn -0.799798 0.237822 -0.551148
vn -0.970201 -0.236125 0.054361
vn -0.928295 -0.110438 0.355066
vn -0.948777 -0.202287 0.242697
vn -0.743744 0.594900 -0.304860
vn -0.971345 0.223973 0.079526
vn -0.965096 0.248656 -0.082218
vn -0.907351 0.076239 0.413403
vn -0.849076 0.184633 0.494955
vn -0.958791 0.206909 0.194702
vn -0.850814 0.254814 0.459549
vn 0.451021 -0.795876 0.403932
vn 0.755578 -0.638914 0.144538
vn 0.178361 0.782612 0.596410
vn 0.180587 0.812946 0.553632
vn 0.447300 -0.577038 0.683337
vn 0.819764 -0.450886 0.353114
vn 0.808891 -0.391977 0.438235
vn 0.233955 0.240401 0.942057
vn 0.156004 0.023982 0.987465
vn 0.472120 0.189069 0.861020
vn 0.732583 0.067439 0.677328
vn 0.187482 0.627276 0.755894
vn -0.095512 0.770875 0.629784
vn -0.357266 0.922546 0.145843
vn -0.040710 0.130059 0.990670
vn -0.040725 0.130024 0.990674
vn -0.040712 0.130060 0.990670
vn -0.040716 0.130049 0.990671
vn -0.040712 0.130061 0.990670
vn -0.040713 0.130056 0.990670
vn -0.573982 -0.307474 0.758950
vn -0.543840 -0.803367 0.242570
vn -0.098876 0.913078 -0.395617
vn 0.077814 0.612426 -0.786689
vn -0.041659 0.848868 -0.526961
vn -0.566915 0.813477 0.129855
vn -0.499067 0.819641 -0.281285
vn -0.527224 0.826990 0.195250
vn -0.606030 0.795212 -0.019127
vn -0.004788 0.589369 -0.807850
vn -0.411269 0.803381 -0.430624
vn -0.362694 0.489299 0.793120
vn -0.218969 0.019878 0.975529
vn -0.483457 0.150079 0.862407
vn -0.451208 0.088711 0.887999
vn -0.128019 0.363528 0.922745
vn -0.160884 0.373122 0.913727
vn 0.232779 -0.139252 0.962509
vn -0.511537 0.214757 0.831991
vn -0.544968 0.815414 -0.195218
vn -0.630510 0.770638 -0.092595
vn -0.568180 0.807164 -0.160180
vn -0.591844 0.793825 0.139865
vn -0.593700 0.787523 -0.165312
vn -0.788203 0.194260 0.583951
vn -0.810356 0.212001 0.546240
vn -0.833851 0.282005 0.474516
vn -0.835815 0.324176 0.443084
f 5//5 63//63 66//66
f 63//63 241//241 66//66
f 5//5 67//67 63//63
f 63//63 60//60 3//3
f 67//67 60//60 63//63
f 5//5 62//62 67//67
f 67//67 62//62 2//2
f 60//60 67//67 1//1
f 60//60 1//1 4//4
f 67//67 2//2 1//1
f 62//62 70//70 2//2
f 70//70 250//250 2//2
f 240//240 85//85 87//87
f 244//244 86//86 240//240
f 244//244 61//61 86//86
f 61//61 85//85 86//86
f 86//86 85//85 240//240
f 63//63 3//3 241//241
f 240//240 66//66 241//241
f 3//3 60//60 57//57
f 60//60 4//4 242//242
f 60//60 242//242 57//57
f 241//241 245//245 240//240
f 245//245 246//246 240//240
f 245//245 244//244 246//246
f 246//246 244//244 240//240
f 4//4 1//1 242//242
f 11//11 5//5 66//66
f 11//11 66//66 38//38
f 10//10 11//11 108//108
f 5//5 64//64 62//62
f 5//5 65//65 64//64
f 62//62 64//64 70//70
f 70//70 64//64 73//73
f 65//65 69//69 64//64
f 38//38 240//240 87//87
f 66//66 240//240 38//38
f 1//1 56//56 68//68
f 1//1 68//68 88//88
f 68//68 56//56 247//247
f 1//1 249//249 56//56
f 1//1 2//2 249//249
f 248//248 56//56 249//249
f 250//250 249//249 2//2
f 248//248 249//249 250//250
f 70//70 6//6 250//250
f 73//73 6//6 70//70
f 72//72 248//248 250//250
f 34//34 6//6 75//75
f 75//75 71//71 69//69
f 6//6 73//73 75//75
f 69//69 73//73 64//64
f 71//71 73//73 69//69
f 75//75 73//73 71//71
f 7//7 250//250 6//6
f 248//248 72//72 7//7
f 72//72 250//250 7//7
f 248//248 7//7 134//134
f 75//75 74//74 34//34
f 80//80 74//74 75//75
f 80//80 36//36 34//34
f 74//74 80//80 34//34
f 80//80 75//75 33//33
f 88//88 243//243 1//1
f 243//243 242//242 1//1
f 9//9 57//57 242//242
f 9//9 242//242 243//243
f 6//6 34//34 76//76
f 34//34 36//36 76//76
f 36//36 80//80 81//81
f 36//36 81//81 76//76
f 78//78 7//7 76//76
f 78//78 76//76 81//81
f 6//6 76//76 7//7
f 78//78 81//81 77//77
f 90//90 35//35 78//78
f 134//134 7//7 35//35
f 7//7 78//78 35//35
f 78//78 77//77 90//90
f 77//77 81//81 79//79
f 77//77 79//79 90//90
f 81//81 8//8 79//79
f 90//90 79//79 89//89
f 139//139 90//90 138//138
f 138//138 79//79 25//25
f 90//90 89//89 138//138
f 89//89 79//79 138//138
f 90//90 139//139 35//35
f 138//138 25//25 91//91
f 27//27 25//25 37//37
f 33//33 8//8 81//81
f 82//82 8//8 33//33
f 33//33 81//81 80//80
f 82//82 83//83 8//8
f 79//79 37//37 25//25
f 82//82 84//84 83//83
f 84//84 37//37 79//79
f 83//83 79//79 8//8
f 84//84 79//79 83//83
f 37//37 84//84 82//82
f 142//142 82//82 33//33
f 37//37 82//82 142//142
f 141//141 28//28 37//37
f 141//141 37//37 142//142
f 141//141 142//142 33//33
f 57//57 9//9 251//251
f 5//5 92//92 65//65
f 5//5 10//10 92//92
f 11//11 10//10 5//5
f 92//92 10//10 94//94
f 75//75 96//96 33//33
f 262//262 96//96 75//75
f 96//96 262//262 16//16
f 108//108 11//11 38//38
f 108//108 38//38 107//107
f 38//38 87//87 107//107
f 247//247 56//56 248//248
f 248//248 134//134 247//247
f 88//88 68//68 247//247
f 88//88 247//247 129//129
f 247//247 130//130 129//129
f 130//130 247//247 135//135
f 143//143 145//145 141//141
f 143//143 141//141 33//33
f 143//143 33//33 96//96
f 87//87 114//114 107//107
f 115//115 107//107 114//114
f 42//42 9//9 243//243
f 129//129 243//243 88//88
f 42//42 243//243 129//129
f 140//140 134//134 20//20
f 35//35 139//139 134//134
f 27//27 37//37 252//252
f 37//37 28//28 252//252
f 136//136 27//27 252//252
f 136//136 252//252 28//28
f 138//138 91//91 137//137
f 134//134 137//137 20//20
f 139//139 137//137 134//134
f 138//138 137//137 139//139
f 253//253 21//21 28//28
f 276//276 31//31 275//275
f 276//276 275//275 271//271
f 28//28 141//141 253//253
f 253//253 141//141 145//145
f 12//12 114//114 85//85
f 114//114 87//87 85//85
f 42//42 13//13 251//251
f 42//42 251//251 9//9
f 26//26 256//256 254//254
f 26//26 255//255 259//259
f 255//255 29//29 257//257
f 259//259 257//257 58//58
f 255//255 257//257 259//259
f 258//258 58//58 254//254
f 26//26 259//259 256//256
f 259//259 58//58 258//258
f 256//256 258//258 254//254
f 259//259 258//258 256//256
f 115//115 114//114 214//214
f 114//114 12//12 260//260
f 114//114 260//260 214//214
f 94//94 147//147 14//14
f 15//15 147//147 94//94
f 92//92 94//94 182//182
f 182//182 94//94 14//14
f 14//14 205//205 182//182
f 69//69 65//65 92//92
f 69//69 92//92 188//188
f 192//192 69//69 52//52
f 10//10 93//93 39//39
f 94//94 39//39 15//15
f 94//94 10//10 39//39
f 39//39 93//93 15//15
f 15//15 93//93 95//95
f 261//261 111//111 146//146
f 95//95 147//147 15//15
f 261//261 147//147 95//95
f 59//59 265//265 16//16
f 75//75 98//98 262//262
f 262//262 30//30 16//16
f 96//96 16//16 97//97
f 97//97 16//16 100//100
f 100//100 16//16 265//265
f 100//100 265//265 99//99
f 97//97 17//17 96//96
f 269//269 98//98 192//192
f 98//98 75//75 69//69
f 98//98 69//69 192//192
f 17//17 101//101 96//96
f 266//266 267//267 59//59
f 99//99 265//265 59//59
f 267//267 99//99 59//59
f 98//98 269//269 263//263
f 262//262 263//263 264//264
f 262//262 264//264 30//30
f 98//98 263//263 262//262
f 267//267 100//100 99//99
f 266//266 269//269 270//270
f 267//267 149//149 100//100
f 149//149 103//103 100//100
f 102//102 103//103 149//149
f 102//102 100//100 103//103
f 102//102 97//97 100//100
f 104//104 17//17 97//97
f 17//17 104//104 151//151
f 17//17 18//18 41//41
f 268//268 266//266 270//270
f 268//268 270//270 149//149
f 149//149 267//267 268//268
f 268//268 267//267 266//266
f 102//102 151//151 97//97
f 102//102 197//197 151//151
f 197//197 152//152 151//151
f 152//152 17//17 151//151
f 151//151 104//104 97//97
f 17//17 152//152 18//18
f 152//152 197//197 18//18
f 196//196 150//150 270//270
f 196//196 102//102 150//150
f 270//270 150//150 149//149
f 150//150 102//102 149//149
f 18//18 197//197 125//125
f 196//196 198//198 102//102
f 195//195 198//198 196//196
f 197//197 198//198 195//195
f 197//197 102//102 198//198
f 126//126 197//197 50//50
f 10//10 108//108 93//93
f 108//108 105//105 93//93
f 93//93 106//106 95//95
f 95//95 106//106 261//261
f 108//108 106//106 105//105
f 105//105 106//106 93//93
f 261//261 106//106 109//109
f 106//106 108//108 109//109
f 108//108 110//110 109//109
f 108//108 107//107 110//110
f 110//110 107//107 115//115
f 111//111 261//261 109//109
f 111//111 109//109 112//112
f 112//112 109//109 110//110
f 111//111 112//112 113//113
f 110//110 40//40 113//113
f 110//110 113//113 112//112
f 111//111 113//113 153//153
f 110//110 116//116 40//40
f 115//115 116//116 110//110
f 116//116 115//115 40//40
f 40//40 156//156 113//113
f 113//113 155//155 153//153
f 156//156 155//155 113//113
f 117//117 158//158 40//40
f 117//117 40//40 115//115
f 40//40 22//22 156//156
f 96//96 118//118 143//143
f 145//145 123//123 169//169
f 101//101 17//17 119//119
f 101//101 118//118 96//96
f 101//101 119//119 127//127
f 101//101 127//127 122//122
f 122//122 123//123 101//101
f 123//123 120//120 101//101
f 120//120 118//118 101//101
f 120//120 123//123 118//118
f 143//143 123//123 145//145
f 118//118 123//123 143//143
f 18//18 121//121 41//41
f 41//41 119//119 17//17
f 18//18 119//119 121//121
f 119//119 41//41 121//121
f 18//18 124//124 119//119
f 124//124 127//127 119//119
f 165//165 123//123 122//122
f 123//123 165//165 128//128
f 197//197 126//126 125//125
f 125//125 126//126 18//18
f 126//126 124//124 18//18
f 127//127 124//124 126//126
f 128//128 46//46 123//123
f 46//46 144//144 123//123
f 144//144 169//169 123//123
f 127//127 126//126 50//50
f 50//50 164//164 127//127
f 167//167 164//164 50//50
f 164//164 122//122 127//127
f 166//166 164//164 167//167
f 166//166 165//165 164//164
f 164//164 165//165 122//122
f 166//166 128//128 165//165
f 46//46 128//128 168//168
f 169//169 171//171 280//280
f 168//168 171//171 169//169
f 46//46 168//168 144//144
f 144//144 168//168 169//169
f 260//260 12//12 131//131
f 131//131 12//12 19//19
f 260//260 131//131 214//214
f 129//129 132//132 42//42
f 132//132 19//19 44//44
f 42//42 44//44 13//13
f 132//132 44//44 42//42
f 132//132 129//129 130//130
f 130//130 133//133 132//132
f 45//45 43//43 130//130
f 130//130 43//43 133//133
f 130//130 135//135 45//45
f 140//140 135//135 134//134
f 134//134 135//135 247//247
f 273//273 276//276 271//271
f 279//279 282//282 145//145
f 282//282 253//253 145//145
f 277//277 177//177 278//278
f 273//273 31//31 276//276
f 278//278 273//273 271//271
f 177//177 273//273 278//278
f 21//21 253//253 172//172
f 253//253 282//282 172//172
f 14//14 147//147 205//205
f 188//188 52//52 69//69
f 269//269 192//192 194//194
f 192//192 193//193 194//194
f 201//201 192//192 52//52
f 201//201 52//52 188//188
f 147//147 261//261 146//146
f 147//147 146//146 148//148
f 154//154 146//146 111//111
f 153//153 154//154 111//111
f 147//147 148//148 48//48
f 147//147 48//48 47//47
f 48//48 204//204 47//47
f 204//204 205//205 147//147
f 204//204 147//147 47//47
f 212//212 211//211 48//48
f 195//195 196//196 270//270
f 194//194 270//270 269//269
f 195//195 270//270 193//193
f 270//270 194//194 193//193
f 195//195 207//207 197//197
f 207//207 199//199 197//197
f 50//50 197//197 199//199
f 156//156 48//48 155//155
f 48//48 148//148 155//155
f 148//148 146//146 154//154
f 155//155 154//154 153//153
f 148//148 154//154 155//155
f 156//156 160//160 48//48
f 22//22 40//40 157//157
f 157//157 40//40 158//158
f 22//22 157//157 49//49
f 161//161 48//48 160//160
f 158//158 49//49 157//157
f 117//117 49//49 158//158
f 115//115 214//214 117//117
f 117//117 215//215 49//49
f 214//214 215//215 117//117
f 214//214 216//216 217//217
f 214//214 217//217 215//215
f 215//215 217//217 49//49
f 49//49 159//159 22//22
f 22//22 159//159 156//156
f 156//156 159//159 160//160
f 162//162 49//49 163//163
f 159//159 49//49 162//162
f 160//160 163//163 161//161
f 159//159 163//163 160//160
f 162//162 163//163 159//159
f 163//163 48//48 161//161
f 49//49 217//217 163//163
f 217//217 220//220 163//163
f 217//217 216//216 220//220
f 220//220 218//218 163//163
f 48//48 163//163 212//212
f 212//212 163//163 218//218
f 285//285 23//23 32//32
f 284//284 23//23 285//285
f 284//284 285//285 221//221
f 32//32 21//21 53//53
f 53//53 21//21 172//172
f 282//282 283//283 172//172
f 279//279 283//283 282//282
f 279//279 280//280 281//281
f 283//283 281//281 172//172
f 279//279 281//281 283//283
f 167//167 51//51 166//166
f 166//166 168//168 128//128
f 171//171 168//168 166//166
f 51//51 171//171 166//166
f 171//171 51//51 170//170
f 171//171 170//170 199//199
f 51//51 167//167 170//170
f 199//199 170//170 50//50
f 170//170 167//167 50//50
f 199//199 210//210 171//171
f 171//171 281//281 280//280
f 210//210 281//281 171//171
f 172//172 281//281 210//210
f 132//132 133//133 174//174
f 133//133 43//43 174//174
f 19//19 214//214 131//131
f 19//19 132//132 173//173
f 132//132 174//174 173//173
f 221//221 173//173 284//284
f 173//173 174//174 284//284
f 45//45 175//175 43//43
f 174//174 23//23 284//284
f 175//175 174//174 43//43
f 45//45 174//174 175//175
f 23//23 174//174 176//176
f 176//176 177//177 277//277
f 45//45 135//135 174//174
f 174//174 177//177 176//176
f 135//135 177//177 174//174
f 140//140 272//272 135//135
f 272//272 31//31 273//273
f 274//274 273//273 177//177
f 272//272 273//273 274//274
f 272//272 274//274 135//135
f 274//274 177//177 135//135
f 92//92 180//180 178//178
f 180//180 92//92 179//179
f 180//180 179//179 181//181
f 92//92 182//182 179//179
f 182//182 205//205 181//181
f 181//181 179//179 182//182
f 181//181 183//183 180//180
f 183//183 181//181 185//185
f 181//181 205//205 185//185
f 184//184 186//186 185//185
f 186//186 183//183 185//185
f 184//184 227//227 222//222
f 184//184 222//222 190//190
f 186//186 190//190 183//183
f 184//184 190//190 186//186
f 205//205 187//187 185//185
f 205//205 224//224 187//187
f 185//185 187//187 184//184
f 180//180 189//189 178//178
f 178//178 188//188 92//92
f 189//189 188//188 178//178
f 180//180 183//183 189//189
f 183//183 188//188 189//189
f 191//191 183//183 190//190
f 200//200 201//201 188//188
f 200//200 188//188 183//183
f 200//200 183//183 191//191
f 200//200 209//209 193//193
f 209//209 195//195 193//193
f 201//201 193//193 192//192
f 202//202 193//193 201//201
f 200//200 202//202 201//201
f 193//193 202//202 200//200
f 195//195 209//209 207//207
f 233//233 207//207 209//209
f 190//190 208//208 191//191
f 233//233 208//208 190//190
f 233//233 209//209 200//200
f 233//233 200//200 191//191
f 208//208 233//233 191//191
f 48//48 211//211 204//204
f 211//211 212//212 204//204
f 204//204 213//213 205//205
f 219//219 224//224 206//206
f 205//205 206//206 224//224
f 219//219 206//206 205//205
f 212//212 219//219 204//204
f 204//204 219//219 213//213
f 213//213 219//219 205//205
f 231//231 224//224 219//219
f 231//231 219//219 203//203
f 221//221 236//236 231//231
f 32//32 286//286 285//285
f 285//285 239//239 221//221
f 286//286 239//239 285//285
f 207//207 24//24 199//199
f 233//233 24//24 207//207
f 24//24 233//233 55//55
f 24//24 55//55 239//239
f 239//239 55//55 235//235
f 212//212 218//218 219//219
f 216//216 203//203 220//220
f 203//203 219//219 220//220
f 220//220 219//219 218//218
f 214//214 19//19 216//216
f 19//19 173//173 216//216
f 173//173 221//221 216//216
f 216//216 221//221 203//203
f 203//203 221//221 231//231
f 32//32 53//53 286//286
f 53//53 24//24 287//287
f 53//53 287//287 286//286
f 24//24 239//239 287//287
f 287//287 239//239 286//286
f 199//199 24//24 53//53
f 199//199 53//53 210//210
f 53//53 172//172 210//210
f 184//184 187//187 227//227
f 187//187 224//224 226//226
f 224//224 223//223 226//226
f 227//227 187//187 226//226
f 227//227 226//226 223//223
f 227//227 223//223 225//225
f 225//225 228//228 227//227
f 222//222 229//229 190//190
f 228//228 229//229 227//227
f 227//227 229//229 222//222
f 230//230 223//223 224//224
f 223//223 230//230 225//225
f 225//225 230//230 54//54
f 54//54 228//228 225//225
f 54//54 234//234 228//228
f 234//234 235//235 228//228
f 233//233 190//190 229//229
f 233//233 229//229 55//55
f 235//235 229//229 228//228
f 55//55 229//229 235//235
f 232//232 230//230 224//224
f 232//232 224//224 231//231
f 230//230 232//232 54//54
f 232//232 231//231 54//54
f 54//54 231//231 236//236
f 54//54 236//236 238//238
f 54//54 238//238 234//234
f 234//234 239//239 235//235
f 236//236 239//239 238//238
f 238//238 239//239 234//234
f 236//236 237//237 239//239
f 237//237 221//221 239//239
f 236//236 221//221 237//237
