# decimated by Tools/decimate_anatomy.py from 3360 triangles (BodyParts3D, CC BY 4.0)
v 0.03421262 0.00789870 0.17190283
v 0.03430925 0.00570525 0.17581718
v 0.03494399 -0.00007472 0.18230277
v 0.03261543 0.00516888 0.17001668
v 0.03138935 0.00508000 0.17000487
v 0.02964269 0.00317125 0.17216486
v 0.03248224 0.00935890 0.17260220
v 0.03084881 -0.00288230 0.18676339
v 0.03055065 -0.00257388 0.18722866
v 0.03073771 -0.00199434 0.18736148
v 0.03144129 0.00523189 0.16992764
v 0.02987607 0.00509138 0.17040954
v 0.02848985 0.00328898 0.17507010
v 0.03203457 0.00686880 0.17669367
v 0.02983089 0.00168518 0.17818058
v 0.02966848 -0.00143309 0.18304206
v 0.02965662 -0.00174238 0.18350315
v 0.02718448 0.00398235 0.17315890
v 0.02715104 0.00397114 0.17340199
v 0.03006098 0.00931776 0.17302945
v 0.02705108 0.00573659 0.17405206
v 0.03510723 -0.00139256 0.18554515
v 0.03562689 -0.00043164 0.18346745
v 0.03450388 0.00406227 0.17168675
v 0.03492122 0.00675086 0.17106007
v 0.03595885 0.00502023 0.17319945
v 0.03529058 -0.00033084 0.18259672
v 0.03462436 0.00055447 0.18174966
v 0.03351033 -0.00274596 0.18609498
v 0.03206853 0.00539048 0.16976320
v 0.03263030 0.00295294 0.17223844
v 0.03237289 0.00288092 0.17235133
v 0.03185761 0.00952502 0.17298426
v 0.03132413 -0.00055856 0.18149912
v 0.03270590 -0.00281508 0.18589671
v 0.03127217 -0.00259843 0.18725263
v 0.03202041 0.00066847 0.18694440
v 0.03226597 -0.00151451 0.18698981
v 0.02985529 0.00927339 0.17310163
v 0.02963811 0.00919083 0.17362431
v 0.03146801 -0.00063124 0.18152057
v 0.02707450 0.00591274 0.17385555
v 0.03524676 -0.00193175 0.18465345
v 0.03495514 -0.00008563 0.18232253
v 0.03400811 -0.00096146 0.18249460
v 0.02883510 0.00464730 0.17110404
v 0.02954373 0.00210590 0.17747405
v 0.03028407 0.00424443 0.17934272
v 0.02988476 0.00184287 0.18037746
v 0.02801378 0.00352848 0.17437033
v 0.03567316 0.00578508 0.17128301
v 0.03593082 0.00474642 0.17314296
v 0.03439096 -0.00005565 0.18197396
v 0.03433767 -0.00006959 0.18188128
v 0.03325027 -0.00064377 0.18727987
v 0.03210234 0.00537670 0.16976000
v 0.03193162 0.00298915 0.17204244
v 0.03473863 0.00737658 0.17136388
v 0.03508172 0.00763189 0.17323276
v 0.03094913 0.00023924 0.18007363
v 0.03060098 0.00054644 0.17988487
v 0.03322281 -0.00195898 0.18721819
v 0.03132513 -0.00288279 0.18590789
v 0.03194712 -0.00284344 0.18582346
v 0.03019884 -0.00259496 0.18487217
v 0.02894178 0.00298772 0.17595690
v 0.02985486 0.00926281 0.17335714
v 0.03007605 0.00058828 0.18011086
v 0.03604620 0.00510503 0.17279125
v 0.03553739 0.00609930 0.17119107
v 0.03537021 0.00436254 0.17249231
v 0.03595684 0.00609732 0.17197408
v 0.03533516 0.00704309 0.17318909
v 0.03395109 0.00372013 0.17865188
v 0.03522882 0.00372211 0.17537067
v 0.03417009 0.00188529 0.17826961
v 0.03556172 0.00446190 0.17351070
v 0.03500702 -0.00136747 0.18323842
v 0.03229726 -0.00251127 0.18464323
v 0.03479064 0.00059460 0.18189375
v 0.03528251 -0.00006421 0.18263467
v 0.03539508 -0.00018289 0.18277750
v 0.03508925 0.00016018 0.18248403
v 0.03469057 0.00097178 0.18356970
v 0.03424434 -0.00098431 0.18257246
v 0.03493212 0.00068023 0.18290264
v 0.03468384 -0.00213857 0.18455511
v 0.03168671 0.00487847 0.17025834
v 0.03291279 0.00316203 0.17194569
v 0.03466911 0.00797395 0.17302659
v 0.03366497 0.00566111 0.17697587
v 0.03123989 0.00600285 0.17875994
v 0.03149517 0.00495389 0.18056534
v 0.03306363 0.00484896 0.17928764
v 0.03395474 0.00208732 0.18275781
v 0.03288744 0.00338362 0.18217931
v 0.03189130 0.00440951 0.18129535
v 0.03125814 -0.00288642 0.18584836
v 0.03112553 -0.00271095 0.18713698
v 0.03108124 0.00270951 0.18335365
v 0.03185015 0.00466771 0.17060219
v 0.03015877 0.00498630 0.17019088
v 0.03000099 0.00477890 0.17037700
v 0.02942861 0.00502898 0.17069942
v 0.02912066 0.00494370 0.17083737
v 0.03084862 0.00347150 0.17155491
v 0.03231223 0.00885221 0.17399199
v 0.03062319 0.00832729 0.17468481
v 0.02927201 0.00244318 0.17694980
v 0.03082783 0.00752888 0.17559874
v 0.03048795 0.00581247 0.17805621
v 0.03106605 -0.00114243 0.18223328
v 0.03083009 -0.00273085 0.18517325
v 0.03057918 -0.00238469 0.18417140
v 0.02993952 -0.00210887 0.18362644
v 0.02978932 -0.00004151 0.18221106
v 0.02968460 -0.00199952 0.18384935
v 0.03103562 0.00439032 0.18112866
v 0.02994201 -0.00077662 0.18638719
v 0.03038552 -0.00050585 0.18656402
v 0.02960147 -0.00185838 0.18423033
v 0.02983864 -0.00092516 0.18571639
v 0.02802202 0.00364793 0.17289499
v 0.02798556 0.00370075 0.17508877
v 0.02710221 0.00516880 0.17251847
v 0.02951292 0.00323471 0.17216239
v 0.02986288 0.00768593 0.17282373
v 0.02840098 0.00690999 0.17278328
v 0.02868776 0.00340904 0.17593917
v 0.02743966 0.00384196 0.17400765
v 0.03595117 0.00523280 0.17222517
v 0.03596969 0.00473069 0.17304809
v 0.03438291 -0.00185526 0.18702483
v 0.03489728 -0.00215250 0.18505871
v 0.03504862 -0.00138790 0.18569062
v 0.03542179 -0.00033231 0.18266039
v 0.03505437 -0.00015596 0.18240435
v 0.03536908 0.00451087 0.17188608
v 0.03337088 0.00506917 0.17031310
v 0.03493092 0.00666342 0.17094873
v 0.03150162 0.00898219 0.17254839
v 0.03081350 0.00587892 0.17137840
v 0.03485649 0.00678097 0.17112418
v 0.03210253 0.00630237 0.17150872
v 0.03429099 0.00734998 0.17143004
v 0.03435583 0.00134697 0.17968921
v 0.03455952 0.00088829 0.18102621
v 0.03422924 -0.00078430 0.18242490
v 0.03415860 -0.00002093 0.18126817
v 0.03424147 0.00012229 0.18128906
v 0.03449401 0.00043850 0.18154345
v 0.03440364 0.00065008 0.18093744
v 0.03414519 -0.00201909 0.18702935
v 0.03432308 -0.00207376 0.18649384
v 0.03404874 -0.00247831 0.18585224
v 0.03456413 -0.00216557 0.18571500
v 0.03409064 -0.00235873 0.18612371
v 0.03484054 -0.00050868 0.18634210
v 0.03230187 0.00057960 0.18692631
v 0.03475234 -0.00103222 0.18677002
v 0.03498842 -0.00195924 0.18537787
v 0.03474028 -0.00077626 0.18672025
v 0.03217145 -0.00237808 0.18687879
v 0.03407531 -0.00196010 0.18725586
v 0.03242176 0.00537179 0.16986863
v 0.03425203 0.00597886 0.17061605
v 0.03353820 0.00606765 0.17035120
v 0.03291957 0.00519300 0.17006429
v 0.03198008 0.00553243 0.16989084
v 0.03029660 0.00515582 0.17030655
v 0.03144611 0.00522462 0.16994194
v 0.03326577 0.00329312 0.17242831
v 0.03223584 0.00003683 0.18067906
v 0.02926794 0.00295370 0.17569149
v 0.03068020 0.00914320 0.17282020
v 0.03282548 0.00932248 0.17309333
v 0.03207755 0.00793328 0.17519588
v 0.03289501 0.00930772 0.17283086
v 0.02981377 0.00167933 0.17810413
v 0.03016506 0.00118024 0.17898890
v 0.03097270 -0.00002612 0.18071909
v 0.03011442 0.00126884 0.17877267
v 0.03050076 0.00066662 0.17965595
v 0.03188931 -0.00258314 0.18653310
v 0.03136789 -0.00287151 0.18591888
v 0.03127835 -0.00282890 0.18624402
v 0.03112532 -0.00259217 0.18727075
v 0.03202476 -0.00231121 0.18696962
v 0.03111670 -0.00272550 0.18721132
v 0.03059732 -0.00282997 0.18646508
v 0.03334057 -0.00092698 0.18731846
v 0.03237978 0.00015918 0.18713164
v 0.03322470 -0.00137520 0.18725747
v 0.03260841 -0.00147905 0.18708447
v 0.03260955 -0.00064909 0.18713988
v 0.03195837 0.00052335 0.18708049
v 0.03152998 -0.00150797 0.18718955
v 0.03151922 0.00545501 0.17006200
v 0.02930312 0.00550764 0.17138918
v 0.02908140 0.00542787 0.17142835
v 0.02915618 0.00497356 0.17084898
v 0.03106229 0.00952923 0.17307506
v 0.03018787 0.00934540 0.17305760
v 0.02834906 0.00416954 0.17574281
v 0.03006771 0.00930275 0.17347860
v 0.03065828 0.00943991 0.17317398
v 0.02997260 0.00929486 0.17318185
v 0.03025845 0.00935548 0.17317484
v 0.03013579 0.00932212 0.17335685
v 0.02985972 0.00923863 0.17315465
v 0.02966353 0.00288578 0.17845365
v 0.02987042 0.00105261 0.18023857
v 0.03069081 -0.00045212 0.18161522
v 0.03009605 -0.00036462 0.18178836
v 0.02995538 0.00060281 0.18037529
v 0.03013045 -0.00253341 0.18474088
v 0.02995240 -0.00234355 0.18447073
v 0.03051701 -0.00257942 0.18714590
v 0.02984540 -0.00226453 0.18549703
v 0.02983223 -0.00181903 0.18332028
v 0.03012128 -0.00191111 0.18323986
v 0.02972038 -0.00210677 0.18461057
v 0.02711105 0.00431039 0.17385274
v 0.02902860 0.00348610 0.17661524
v 0.02765473 0.00659982 0.17296565
v 0.02786353 0.00577490 0.17232572
v 0.02726662 0.00532440 0.17243648
v 0.02832719 0.00780082 0.17333415
v 0.02709073 0.00528375 0.17259160
v 0.02702869 0.00557029 0.17391089
v 0.02703892 0.00529953 0.17361084
v 0.03049943 0.00664156 0.17640225
v 0.02885833 0.00812287 0.17439746
v 0.02972775 0.00490968 0.17664976
v 0.02846046 0.00796316 0.17335888
v 0.02874280 0.00807628 0.17440264
v 0.02743221 0.00649073 0.17378599
vn 0.419915 0.646642 -0.636809
vn 0.514445 0.677105 0.526189
vn 0.739584 0.557757 0.376727
vn 0.222494 -0.451370 -0.864154
vn 0.035553 -0.689848 -0.723081
vn -0.086778 -0.991974 -0.091960
vn -0.127891 0.449987 -0.883830
vn 0.337066 -0.923359 0.183834
vn -0.078483 -0.239426 0.967737
vn 0.177996 -0.033851 0.983449
vn -0.111348 -0.282225 -0.952864
vn -0.462256 0.321693 -0.826337
vn -0.135166 -0.936964 -0.322226
vn 0.207974 0.845623 0.491598
vn -0.801051 -0.597480 -0.036535
vn -0.963032 -0.118854 -0.241751
vn -0.170574 -0.786782 -0.593194
vn -0.653811 -0.531983 -0.538075
vn -0.425439 -0.904924 -0.010690
vn -0.190343 0.227021 -0.955108
vn -0.830953 -0.097255 0.547776
vn 0.874587 -0.321861 0.362634
vn 0.856210 0.483393 0.182306
vn 0.388494 -0.733363 -0.557899
vn -0.325703 -0.234890 -0.915830
vn 0.737095 0.545549 0.398833
vn 0.569833 -0.536216 -0.622706
vn 0.847446 -0.449061 -0.283160
vn 0.047373 -0.866322 0.497234
vn -0.158998 0.603505 -0.781346
vn 0.501656 -0.836177 -0.221695
vn -0.360366 -0.879047 -0.312110
vn 0.212711 0.975469 0.056695
vn -0.412685 -0.836813 -0.359772
vn -0.000728 -0.939845 0.341601
vn 0.319160 -0.030401 0.947213
vn -0.464287 0.579549 0.669747
vn -0.259702 -0.063995 0.963566
vn -0.206368 0.977651 0.040129
vn -0.721553 0.692358 -0.000926
vn 0.390047 -0.864067 -0.318201
vn -0.825798 0.533191 0.183752
vn 0.386575 -0.905644 -0.174269
vn 0.711645 0.096853 -0.695831
vn 0.101917 -0.824148 -0.557129
vn -0.450067 -0.591019 -0.669430
vn -0.885969 0.088295 0.455261
vn -0.929747 0.302977 0.209225
vn -0.970713 0.172680 0.167028
vn -0.251840 -0.965648 -0.064043
vn 0.616251 -0.389964 -0.684224
vn 0.760598 -0.592876 -0.264553
vn 0.330905 -0.548610 -0.767808
vn 0.847467 -0.449030 -0.283146
vn 0.325234 0.486485 0.810898
vn 0.179630 0.531626 -0.827712
vn -0.108797 -0.992955 0.046944
vn -0.127068 0.412443 -0.902078
vn 0.649767 0.598096 0.469131
vn -0.415872 -0.835927 -0.358158
vn -0.911694 -0.381511 0.152525
vn -0.259704 -0.063999 0.963565
vn 0.320536 -0.922626 0.214519
vn 0.046091 -0.936174 0.348502
vn -0.102577 -0.969518 -0.222516
vn -0.945991 0.041371 0.321542
vn -0.206353 0.977654 0.040139
vn -0.082827 -0.835158 -0.543738
vn 0.999968 0.003870 -0.007035
vn 0.584067 0.289192 -0.758442
vn 0.491232 -0.866565 -0.088068
vn 0.910190 0.385894 0.150467
vn 0.907349 0.227478 0.353512
vn 0.817465 0.461148 0.345100
vn 0.689315 -0.707054 -0.157857
vn 0.432901 -0.835429 -0.338608
vn 0.548293 -0.805174 -0.225986
vn 0.259425 -0.799415 -0.541880
vn 0.106224 -0.900223 -0.422273
vn 0.977125 0.141511 -0.158752
vn 0.777571 0.255704 -0.574455
vn 0.826287 0.551457 -0.114651
vn 0.910066 0.364068 -0.198076
vn 0.795687 0.576885 0.184624
vn 0.099107 -0.835965 -0.539760
vn 0.830524 0.524196 0.188274
vn 0.178796 -0.903105 -0.390428
vn 0.081319 -0.780918 -0.619317
vn 0.104178 -0.706202 -0.700304
vn 0.653856 0.700145 -0.286827
vn 0.626803 0.654836 0.422265
vn -0.297471 0.860386 0.413820
vn 0.052949 0.843085 0.535168
vn 0.654557 0.666229 0.357343
vn 0.701062 0.668001 0.249573
vn 0.525964 0.731496 0.433907
vn 0.219758 0.827435 0.516777
vn 0.113153 -0.980354 -0.161563
vn 0.336687 -0.924308 0.179713
vn -0.422566 0.725280 0.543514
vn 0.104928 -0.707006 -0.699380
vn -0.092030 -0.591718 -0.800875
vn -0.312486 -0.642491 -0.699684
vn -0.499466 0.368213 -0.784189
vn -0.586189 0.123475 -0.800710
vn -0.055625 -0.705005 -0.707018
vn 0.028550 0.829291 0.558087
vn -0.123648 0.816226 0.564345
vn -0.268824 -0.895257 -0.355315
vn -0.231725 0.702536 0.672864
vn -0.716057 0.612302 0.335185
vn 0.054176 -0.817314 -0.573641
vn -0.049436 -0.965861 -0.254302
vn 0.013288 -0.918824 -0.394445
vn -0.193905 -0.913946 -0.356516
vn -0.992566 0.117333 0.032354
vn -0.685552 -0.687186 -0.240403
vn -0.729800 0.563023 0.387811
vn -0.912757 0.313264 0.262185
vn -0.541977 0.527124 0.654524
vn -0.995729 0.059999 0.070169
vn -0.982142 0.175857 0.066863
vn -0.358828 -0.928039 -0.099928
vn -0.766686 0.048268 0.640205
vn -0.794366 -0.242330 -0.557008
vn -0.375985 -0.763245 -0.525444
vn -0.237503 0.254344 -0.937497
vn -0.217699 0.485848 -0.846498
vn -0.888824 0.038739 0.456608
vn -0.488708 -0.870990 0.050407
vn 0.593397 -0.382124 -0.708422
vn 0.969146 -0.239120 -0.059808
vn 0.550752 -0.791884 0.263803
vn 0.550753 -0.791883 0.263805
vn 0.893497 -0.288839 0.343852
vn 0.912319 0.340889 -0.226865
vn 0.684775 0.114125 -0.719763
vn 0.597968 -0.520619 -0.609418
vn 0.233384 -0.602873 -0.762939
vn -0.212743 0.881445 -0.421657
vn -0.231582 0.260406 -0.937315
vn -0.215840 0.891798 -0.397629
vn -0.227298 0.441965 -0.867757
vn -0.186385 0.626010 -0.757213
vn -0.271376 0.198838 -0.941710
vn 0.847459 -0.449039 -0.283157
vn 0.847453 -0.449050 -0.283158
vn 0.347355 -0.553491 -0.756963
vn 0.847460 -0.449038 -0.283155
vn 0.847462 -0.449035 -0.283153
vn 0.847459 -0.449043 -0.283150
vn 0.847461 -0.449037 -0.283152
vn 0.550761 -0.791878 0.263801
vn 0.550755 -0.791882 0.263803
vn 0.550759 -0.791878 0.263806
vn 0.550757 -0.791880 0.263806
vn 0.550759 -0.791879 0.263804
vn 0.582914 0.693886 0.422769
vn 0.282481 0.780630 0.557514
vn 0.894945 -0.288188 0.340619
vn 0.896161 -0.281985 0.342608
vn 0.522069 0.503832 0.688184
vn 0.246398 -0.923336 0.294515
vn 0.070622 -0.851162 0.520131
vn 0.507988 -0.292472 -0.810190
vn 0.358459 0.155109 -0.920569
vn -0.069997 0.749433 -0.658370
vn 0.468639 0.538551 -0.700243
vn -0.215034 0.880754 -0.421940
vn -0.337242 0.737877 -0.584641
vn 0.007194 -0.455143 -0.890389
vn 0.491701 -0.832059 -0.256725
vn 0.317869 -0.859716 -0.399809
vn -0.363926 -0.874855 -0.319665
vn -0.248892 0.266380 -0.931179
vn 0.260459 0.796743 0.545309
vn 0.397321 0.730946 0.554846
vn 0.479919 0.866092 -0.139868
vn -0.496303 -0.811288 -0.309024
vn -0.762100 -0.641916 -0.084545
vn -0.538369 -0.792541 -0.286424
vn -0.916952 -0.362278 0.167195
vn -0.577848 -0.776700 -0.250657
vn 0.068835 -0.891673 0.447416
vn 0.167606 -0.939420 0.298996
vn 0.317900 -0.926644 0.200675
vn 0.160250 -0.036750 0.986392
vn 0.366072 -0.029178 0.930129
vn -0.044096 -0.404320 0.913554
vn -0.171715 -0.979418 -0.106090
vn -0.259707 -0.063995 0.963565
vn -0.259700 -0.064002 0.963566
vn -0.259703 -0.063985 0.963566
vn -0.259711 -0.063989 0.963564
vn -0.259705 -0.063991 0.963565
vn 0.275362 -0.009223 0.961296
vn 0.322676 -0.018747 0.946324
vn -0.308348 0.784580 -0.537918
vn -0.289806 0.830841 -0.475096
vn -0.229532 0.631373 -0.740732
vn -0.407638 0.634203 -0.656976
vn -0.206333 0.977657 0.040160
vn -0.206347 0.977654 0.040160
vn -0.831621 -0.111014 0.544134
vn -0.206332 0.977656 0.040188
vn -0.206342 0.977656 0.040143
vn -0.206351 0.977654 0.040151
vn -0.206350 0.977655 0.040132
vn -0.206356 0.977654 0.040133
vn -0.668813 0.689030 -0.279156
vn -0.942573 0.182323 0.279846
vn -0.998325 -0.056829 -0.010851
vn -0.184365 -0.769512 -0.611442
vn -0.998684 0.043353 -0.027406
vn -0.975277 0.076765 0.207226
vn -0.591113 -0.806560 -0.006835
vn -0.713747 -0.699095 -0.042784
vn -0.693148 -0.035901 0.719900
vn -0.928054 -0.296608 0.225252
vn -0.554219 -0.546313 -0.627999
vn 0.046852 -0.834247 -0.549396
vn -0.807511 -0.586123 -0.066232
vn -0.834488 -0.121001 0.537576
vn -0.824625 -0.112161 0.554448
vn -0.399562 0.412636 -0.818585
vn -0.422497 0.532816 -0.733214
vn -0.497065 0.481034 -0.722172
vn -0.800083 0.572292 -0.179858
vn -0.758724 0.384749 -0.525649
vn -0.997816 -0.062233 0.022133
vn -0.996053 -0.084109 -0.028343
vn -0.463128 0.628860 0.624538
vn -0.359613 0.668440 0.651050
vn -0.827346 0.347081 0.441625
vn -0.755788 0.652368 0.056569
vn -0.768394 0.618722 0.163568
vn -0.799028 0.579207 0.161476
f 131//131 69//69 132//132
f 131//131 72//72 69//69
f 132//132 69//69 26//26
f 72//72 26//26 69//69
f 51//51 52//52 138//138
f 27//27 43//43 78//78
f 23//23 158//158 162//162
f 82//82 23//23 136//136
f 158//158 23//23 84//84
f 139//139 4//4 51//51
f 139//139 51//51 138//138
f 24//24 139//139 138//138
f 131//131 70//70 72//72
f 70//70 1//1 72//72
f 1//1 70//70 166//166
f 70//70 131//131 166//166
f 56//56 1//1 166//166
f 165//165 166//166 131//131
f 56//56 166//166 165//165
f 71//71 24//24 138//138
f 71//71 138//138 52//52
f 52//52 77//77 71//71
f 90//90 72//72 1//1
f 72//72 59//59 73//73
f 90//90 59//59 72//72
f 1//1 178//178 90//90
f 178//178 59//59 90//90
f 52//52 75//75 77//77
f 75//75 76//76 77//77
f 59//59 2//2 74//74
f 72//72 74//74 26//26
f 59//59 74//74 73//73
f 73//73 74//74 72//72
f 74//74 2//2 91//91
f 3//3 83//83 44//44
f 27//27 148//148 53//53
f 53//53 148//148 45//45
f 41//41 173//173 112//112
f 173//173 76//76 45//45
f 173//173 45//45 112//112
f 149//149 150//150 54//54
f 149//149 146//146 150//150
f 54//54 152//152 151//151
f 152//152 146//146 147//147
f 151//151 147//147 28//28
f 152//152 147//147 151//151
f 150//150 146//146 152//152
f 150//150 152//152 54//54
f 26//26 74//74 3//3
f 91//91 94//94 74//74
f 87//87 78//78 43//43
f 79//79 78//78 87//87
f 79//79 87//87 43//43
f 85//85 78//78 79//79
f 79//79 221//221 85//85
f 81//81 137//137 83//83
f 44//44 137//137 3//3
f 83//83 137//137 44//44
f 82//82 84//84 23//23
f 83//83 84//84 82//82
f 136//136 81//81 82//82
f 81//81 83//83 82//82
f 148//148 85//85 45//45
f 84//84 83//83 86//86
f 27//27 78//78 148//148
f 78//78 85//85 148//148
f 83//83 3//3 80//80
f 83//83 80//80 86//86
f 3//3 74//74 80//80
f 74//74 94//94 86//86
f 74//74 86//86 80//80
f 96//96 158//158 95//95
f 158//158 84//84 95//95
f 95//95 84//84 86//86
f 96//96 86//86 94//94
f 95//95 86//86 96//96
f 155//155 157//157 153//153
f 155//155 134//134 156//156
f 154//154 134//134 133//133
f 154//154 133//133 153//153
f 155//155 156//156 157//157
f 156//156 134//134 154//154
f 157//157 154//154 153//153
f 156//156 154//154 157//157
f 22//22 135//135 161//161
f 135//135 22//22 160//160
f 135//135 160//160 161//161
f 37//37 55//55 159//159
f 55//55 162//162 159//159
f 162//162 158//158 159//159
f 158//158 96//96 159//159
f 139//139 24//24 89//89
f 139//139 89//89 106//106
f 106//106 89//89 6//6
f 106//106 101//101 139//139
f 139//139 101//101 88//88
f 139//139 88//88 4//4
f 165//165 131//131 168//168
f 56//56 165//165 168//168
f 25//25 167//167 140//140
f 167//167 30//30 169//169
f 167//167 169//169 140//140
f 170//170 169//169 30//30
f 198//198 169//169 170//170
f 88//88 101//101 5//5
f 4//4 88//88 11//11
f 88//88 171//171 11//11
f 88//88 5//5 171//171
f 102//102 11//11 171//171
f 5//5 102//102 171//171
f 71//71 31//31 24//24
f 172//172 71//71 77//77
f 77//77 76//76 172//172
f 71//71 172//172 31//31
f 41//41 31//31 172//172
f 173//173 172//172 76//76
f 41//41 172//172 173//173
f 25//25 145//145 58//58
f 58//58 141//141 7//7
f 145//145 141//141 58//58
f 175//175 7//7 141//141
f 33//33 59//59 178//178
f 33//33 178//178 1//1
f 60//60 32//32 34//34
f 174//174 32//32 60//60
f 107//107 177//177 176//176
f 176//176 177//177 2//2
f 15//15 47//47 182//182
f 180//180 182//182 61//61
f 15//15 182//182 180//180
f 47//47 109//109 179//179
f 109//109 13//13 174//174
f 179//179 174//174 60//60
f 109//109 174//174 179//179
f 61//61 183//183 181//181
f 181//181 60//60 34//34
f 183//183 60//60 181//181
f 47//47 179//179 182//182
f 179//179 60//60 183//183
f 182//182 183//183 61//61
f 179//179 183//183 182//182
f 2//2 177//177 91//91
f 177//177 14//14 91//91
f 91//91 14//14 94//94
f 97//97 94//94 14//14
f 97//97 14//14 93//93
f 14//14 92//92 93//93
f 234//234 111//111 232//232
f 232//232 111//111 14//14
f 97//97 96//96 94//94
f 118//118 93//93 92//92
f 111//111 92//92 14//14
f 118//118 92//92 111//111
f 112//112 45//45 85//85
f 112//112 85//85 221//221
f 97//97 159//159 96//96
f 100//100 37//37 159//159
f 97//97 100//100 159//159
f 93//93 100//100 97//97
f 93//93 118//118 100//100
f 29//29 164//164 184//184
f 164//164 163//163 184//184
f 184//184 35//35 29//29
f 192//192 195//195 191//191
f 38//38 195//195 192//192
f 194//194 38//38 62//62
f 193//193 62//62 191//191
f 38//38 194//194 195//195
f 194//194 62//62 193//193
f 195//195 193//193 191//191
f 194//194 193//193 195//195
f 98//98 79//79 43//43
f 113//113 79//79 98//98
f 185//185 63//63 64//64
f 184//184 64//64 35//35
f 185//185 64//64 184//184
f 186//186 63//63 185//185
f 186//186 185//185 184//184
f 186//186 184//184 163//163
f 197//197 36//36 188//188
f 197//197 188//188 196//196
f 8//8 63//63 186//186
f 8//8 186//186 99//99
f 99//99 186//186 163//163
f 9//9 189//189 187//187
f 187//187 189//189 36//36
f 187//187 10//10 9//9
f 36//36 197//197 187//187
f 197//197 196//196 187//187
f 187//187 196//196 10//10
f 65//65 113//113 190//190
f 113//113 98//98 190//190
f 118//118 119//119 100//100
f 100//100 120//120 37//37
f 119//119 120//120 100//100
f 120//120 218//218 37//37
f 119//119 218//218 120//120
f 106//106 5//5 101//101
f 103//103 102//102 106//106
f 106//106 102//102 5//5
f 170//170 199//199 198//198
f 199//199 169//169 198//198
f 11//11 102//102 12//12
f 102//102 103//103 12//12
f 103//103 106//106 46//46
f 229//229 104//104 105//105
f 104//104 12//12 103//103
f 104//104 103//103 105//105
f 105//105 103//103 46//46
f 105//105 46//46 125//125
f 106//106 6//6 126//126
f 46//46 126//126 18//18
f 106//106 126//126 46//46
f 201//201 199//199 170//170
f 200//200 199//199 201//201
f 174//174 50//50 32//32
f 13//13 50//50 174//174
f 50//50 6//6 57//57
f 50//50 57//57 32//32
f 169//169 199//199 142//142
f 142//142 140//140 169//169
f 25//25 143//143 145//145
f 145//145 127//127 141//141
f 143//143 127//127 145//145
f 20//20 7//7 175//175
f 39//39 207//207 203//203
f 207//207 67//67 208//208
f 203//203 208//208 202//202
f 207//207 208//208 203//203
f 67//67 205//205 209//209
f 206//206 205//205 202//202
f 67//67 209//209 208//208
f 209//209 205//205 206//206
f 208//208 206//206 202//202
f 209//209 206//206 208//208
f 20//20 175//175 127//127
f 127//127 175//175 141//141
f 204//204 224//224 21//21
f 176//176 108//108 107//107
f 108//108 14//14 177//177
f 108//108 177//177 107//107
f 110//110 232//232 14//14
f 233//233 108//108 176//176
f 232//232 108//108 233//233
f 14//14 108//108 110//110
f 108//108 232//232 110//110
f 232//232 233//233 234//234
f 235//235 40//40 210//210
f 235//235 210//210 228//228
f 234//234 48//48 111//111
f 48//48 234//234 211//211
f 41//41 213//213 68//68
f 68//68 213//213 17//17
f 41//41 112//112 213//213
f 221//221 213//213 112//112
f 66//66 214//214 215//215
f 214//214 116//116 215//215
f 116//116 214//214 16//16
f 116//116 212//212 215//215
f 49//49 212//212 116//116
f 215//215 211//211 66//66
f 49//49 211//211 212//212
f 212//212 211//211 215//215
f 49//49 48//48 211//211
f 79//79 114//114 221//221
f 114//114 115//115 221//221
f 114//114 79//79 113//113
f 115//115 113//113 65//65
f 114//114 113//113 115//115
f 213//213 220//220 17//17
f 213//213 221//221 220//220
f 117//117 115//115 216//216
f 117//117 216//216 217//217
f 221//221 115//115 117//117
f 221//221 117//117 220//220
f 220//220 117//117 17//17
f 16//16 121//121 116//116
f 16//16 222//222 121//121
f 121//121 119//119 122//122
f 121//121 122//122 116//116
f 122//122 119//119 116//116
f 48//48 118//118 111//111
f 219//219 216//216 218//218
f 218//218 119//119 219//219
f 219//219 121//121 222//222
f 119//119 121//121 219//219
f 222//222 217//217 219//219
f 222//222 17//17 117//117
f 222//222 117//117 217//217
f 219//219 217//217 216//216
f 118//118 48//48 119//119
f 48//48 49//49 116//116
f 48//48 116//116 119//119
f 201//201 226//226 200//200
f 50//50 126//126 6//6
f 123//123 126//126 50//50
f 123//123 18//18 126//126
f 19//19 18//18 123//123
f 130//130 123//123 50//50
f 19//19 123//123 130//130
f 199//199 200//200 142//142
f 140//140 143//143 25//25
f 144//144 143//143 140//140
f 200//200 144//144 142//142
f 142//142 144//144 140//140
f 200//200 128//128 144//144
f 128//128 20//20 127//127
f 128//128 127//127 143//143
f 128//128 143//143 144//144
f 18//18 125//125 46//46
f 125//125 229//229 105//105
f 227//227 226//226 201//201
f 200//200 226//226 128//128
f 226//226 227//227 225//225
f 128//128 225//225 20//20
f 226//226 225//225 128//128
f 42//42 237//237 228//228
f 21//21 223//223 204//204
f 223//223 224//224 204//204
f 18//18 230//230 231//231
f 230//230 229//229 231//231
f 18//18 231//231 125//125
f 231//231 229//229 125//125
f 13//13 66//66 50//50
f 66//66 211//211 129//129
f 129//129 211//211 234//234
f 66//66 129//129 50//50
f 19//19 130//130 124//124
f 130//130 50//50 129//129
f 124//124 129//129 234//234
f 130//130 129//129 124//124
f 235//235 236//236 40//40
f 235//235 237//237 236//236
f 235//235 228//228 237//237
f 236//236 237//237 42//42
