# decimated by Tools/decimate_anatomy.py from 6848 triangles (BodyParts3D, CC BY 4.0)
v 0.00856600 0.00078651 0.03310111
v 0.00842303 0.00202442 0.03546836
v 0.00574083 0.01250544 0.03946736
v 0.00531497 0.00168861 0.04414589
v 0.00435962 0.00146081 0.04601057
v 0.00454825 0.00625975 0.03281777
v 0.00352753 0.00234294 0.04606566
v 0.00149246 0.00656107 0.03116074
v 0.00122233 0.00692061 0.03206647
v 0.00274891 -0.00269684 0.03969295
v 0.00067172 0.01100800 0.04211615
v 0.00081773 0.00941278 0.04294825
v 0.00084482 0.01152637 0.04243031
v -0.00007501 0.01130229 0.04244628
v 0.00010529 -0.00328684 0.02828753
v -0.00041805 -0.00345270 0.02967745
v -0.00072940 -0.00347079 0.02949130
v -0.00052293 -0.00335432 0.03142719
v -0.00302009 0.00632546 0.04364422
v -0.00385241 0.00518330 0.02788085
v -0.00448922 0.00403315 0.03452374
v -0.00495758 0.01254102 0.03758615
v -0.00592194 0.01335741 0.04017753
v -0.00559912 0.01059612 0.04144857
v -0.00404898 0.01426248 0.04172984
v -0.00586382 0.01230781 0.04192040
v -0.00454621 0.00644569 0.03011090
v 0.00522276 0.01380245 0.03962556
v 0.00007136 0.01430754 0.04147716
v -0.00005658 -0.00247359 0.03819267
v 0.00214124 0.01468190 0.03751590
v 0.00063358 0.01130359 0.04219905
v -0.00042446 -0.00317371 0.02843809
v -0.00173430 -0.00237327 0.03274294
v -0.00281628 0.00640414 0.04368956
v -0.00514785 0.00526690 0.02907790
v 0.00633332 -0.00108539 0.02787973
v 0.00630014 -0.00312591 0.03354324
v 0.00208292 0.00284029 0.04569362
v 0.00232210 0.00443237 0.02618396
v 0.00274517 -0.00274505 0.03285056
v 0.00204973 -0.00307826 0.03395794
v 0.00224541 -0.00294312 0.03286649
v 0.00106390 0.00655318 0.02937470
v 0.00210652 0.00714705 0.03256821
v 0.00148756 0.00713774 0.03250257
v 0.00007928 -0.00249655 0.03836042
v 0.00067608 -0.00256270 0.03783850
v -0.00020725 -0.00274226 0.03724467
v 0.00150357 0.01047171 0.04273647
v 0.00040954 0.01122679 0.04223098
v -0.00147786 -0.00348611 0.02951194
v -0.00081050 -0.00282560 0.03243751
v -0.00139538 0.00144381 0.04130125
v 0.00032316 0.00246020 0.04502717
v -0.00421354 0.00528730 0.02815026
v -0.00334576 -0.00278799 0.02943613
v -0.00151090 0.00648642 0.02911007
v -0.00420814 0.00512411 0.03576923
v -0.00442622 0.00524288 0.03632538
v -0.00220326 0.01250712 0.03646528
v -0.00499563 0.00568695 0.03092073
v -0.00522633 0.01382215 0.04007275
v -0.00293264 0.00497943 0.04318366
v -0.00569692 0.01137665 0.03831062
v 0.00008350 0.01444263 0.04130073
v -0.00522986 0.01096211 0.04241547
v -0.00610251 0.01251343 0.04133740
v -0.00601989 0.01283183 0.03959321
v 0.00243170 0.01463998 0.03760128
v 0.00399794 0.01393337 0.03782441
v 0.00366181 0.01333923 0.03664096
v 0.00120709 0.01093369 0.04244404
v 0.00119484 0.01146391 0.04267032
v -0.00118930 -0.00331395 0.02761758
v 0.00185654 -0.00305596 0.03331373
v 0.00144247 0.00209074 0.04576175
v -0.00200965 0.00700245 0.04350802
v -0.00207305 0.00763082 0.04335621
v -0.00606122 0.00074080 0.02771262
v 0.00861538 0.00160291 0.03436711
v 0.00863078 0.00195578 0.03335443
v 0.00752693 -0.00034383 0.02972357
v 0.00774133 0.00324513 0.03201673
v 0.00750257 0.00064665 0.02956407
v 0.00712415 0.00169657 0.02927949
v 0.00696704 -0.00254913 0.03246769
v 0.00651402 -0.00293726 0.02937717
v 0.00796342 0.00452836 0.03515327
v 0.00565251 -0.00036330 0.04185549
v 0.00584757 -0.00228810 0.03746760
v 0.00507196 0.00043797 0.04453913
v 0.00575479 0.00935380 0.03679118
v 0.00497382 0.00108582 0.04542082
v 0.00480314 0.00180285 0.04553703
v 0.00548457 -0.00266617 0.02727065
v 0.00417933 -0.00237557 0.02616348
v 0.00603686 0.00223176 0.02798932
v 0.00500815 -0.00035763 0.02659409
v 0.00620566 -0.00343020 0.02903134
v 0.00455536 -0.00348623 0.02737017
v 0.00533787 -0.00410786 0.02992227
v 0.00447049 -0.00406368 0.03151562
v 0.00447329 -0.00394933 0.03204474
v 0.00404297 -0.00351607 0.03312897
v 0.00514438 0.00600969 0.03052228
v 0.00547258 0.00577634 0.03144314
v 0.00457365 -0.00325620 0.03480803
v 0.00397061 -0.00321657 0.03439472
v 0.00514569 0.00609394 0.03335497
v 0.00586677 0.00785546 0.03572987
v 0.00327205 0.01233516 0.03565910
v 0.00396549 -0.00147983 0.04262567
v 0.00376993 0.00233211 0.04603568
v 0.00378399 0.01034423 0.04273156
v 0.00361334 0.00338831 0.04530897
v 0.00409059 -0.00354491 0.02723529
v 0.00380116 -0.00392946 0.02761466
v 0.00225573 -0.00149981 0.02533724
v 0.00314560 -0.00117262 0.02548232
v 0.00182993 -0.00307683 0.02638758
v 0.00063032 -0.00118949 0.02515399
v 0.00423511 0.00092452 0.02620279
v 0.00339782 0.00217706 0.02586645
v 0.00553163 0.00013358 0.02697678
v 0.00232991 0.00063150 0.02505041
v 0.00461012 0.00414729 0.02754784
v 0.00094827 -0.00413802 0.02970332
v 0.00238335 0.00579374 0.02745735
v 0.00313954 0.00672028 0.02885241
v 0.00086988 0.00664584 0.02866140
v 0.00242137 0.00684286 0.02869904
v 0.00276952 -0.00265519 0.03310726
v 0.00335694 -0.00304287 0.03410522
v 0.00168066 -0.00387778 0.03145581
v 0.00264153 -0.00306453 0.03427790
v 0.00370289 -0.00427326 0.03012878
v 0.00127191 -0.00427618 0.03095142
v 0.00257754 -0.00398573 0.03140910
v 0.00258289 -0.00392062 0.03147986
v 0.00192541 -0.00306044 0.03336076
v 0.00188130 -0.00307473 0.03323004
v 0.00079953 -0.00357763 0.03200027
v 0.00255127 0.00652107 0.03101304
v 0.00236025 0.00655899 0.03042598
v 0.00338273 0.00696529 0.02949079
v 0.00501070 0.00603507 0.03095407
v 0.00350001 0.00663533 0.03034222
v 0.00343314 0.00691461 0.02985926
v 0.00271776 0.00692982 0.02907591
v 0.00320077 0.00694794 0.02980858
v 0.00278464 0.00702938 0.02947122
v 0.00243624 0.00679025 0.03192720
v 0.00207225 0.00670987 0.03183360
v 0.00176731 0.00673440 0.03207690
v 0.00204848 0.00684316 0.03221866
v 0.00161674 0.00692868 0.03233064
v 0.00294852 0.00714256 0.03262437
v 0.00283655 0.00694664 0.03233878
v 0.00315768 0.00794546 0.03331900
v 0.00240673 0.00703105 0.03233876
v 0.00264399 0.00962325 0.03408290
v 0.00187076 0.00748812 0.03283890
v 0.00241920 0.00746896 0.03280022
v 0.00181636 0.00730045 0.03271791
v 0.00199196 0.00701541 0.03246968
v 0.00234362 0.00725083 0.03259112
v 0.00171305 0.00934749 0.03367766
v 0.00436419 -0.00249239 0.03971318
v 0.00240996 -0.00317430 0.03740280
v 0.00079202 -0.00252736 0.03845672
v 0.00114100 -0.00263150 0.03903306
v 0.00137422 -0.00281489 0.03750091
v -0.00008262 -0.00269061 0.03752029
v -0.00003199 -0.00256105 0.03807410
v -0.00070710 -0.00040959 0.04098594
v 0.00144972 0.01464774 0.03889477
v 0.00403570 0.00092563 0.04581365
v 0.00150206 -0.00006201 0.04442560
v 0.00037271 -0.00236268 0.03891857
v 0.00407253 0.00159548 0.04614720
v 0.00152457 0.00268726 0.04569212
v 0.00150497 0.00205621 0.04580665
v 0.00108993 0.00991858 0.04271655
v 0.00099344 0.01052295 0.04234945
v 0.00159531 0.01033582 0.04282538
v 0.00066705 0.01075328 0.04215245
v -0.00039708 0.01059174 0.04257689
v -0.00016773 0.01091585 0.04246003
v -0.00124373 -0.00328984 0.02759734
v 0.00032152 -0.00332599 0.02726646
v 0.00033210 -0.00243856 0.02620607
v 0.00106203 -0.00307145 0.02649691
v -0.00236309 -0.00162474 0.02637969
v 0.00161121 0.00191664 0.02499880
v 0.00143735 0.00075106 0.02485414
v 0.00136591 -0.00113315 0.02512842
v 0.00157861 -0.00010782 0.02494805
v -0.00003401 0.00065693 0.02481101
v 0.00047928 0.00451611 0.02592364
v 0.00181098 0.00567643 0.02700062
v -0.00037214 0.00249688 0.02495724
v -0.00166805 0.00370247 0.02566610
v 0.00072706 -0.00390354 0.02891757
v 0.00072515 -0.00379870 0.02820813
v -0.00034807 -0.00318716 0.02914953
v -0.00019226 -0.00370757 0.02993778
v -0.00139082 -0.00349231 0.02943411
v -0.00010260 -0.00377760 0.02997448
v -0.00063735 -0.00331164 0.03141402
v -0.00182004 -0.00288554 0.03149055
v -0.00188020 -0.00233308 0.03275184
v -0.00077075 -0.00277146 0.03255283
v -0.00026779 0.00881381 0.03298524
v 0.00103682 0.01048229 0.03425878
v 0.00099418 0.00772336 0.03255586
v 0.00019754 0.00682954 0.03019540
v -0.00173311 0.00094802 0.04024801
v -0.00035972 0.00923827 0.03335712
v -0.00147110 0.00107904 0.04107218
v -0.00147354 0.00151073 0.04116815
v -0.00090393 0.00023191 0.04180662
v -0.00136013 0.00141562 0.04153947
v -0.00131900 0.00121171 0.04169214
v -0.00118828 0.00090702 0.04177784
v -0.00148259 0.00167502 0.04201605
v -0.00155836 0.00178229 0.04142763
v -0.00154432 0.00178619 0.04235803
v -0.00188277 0.00207727 0.04102487
v -0.00152562 0.00267688 0.04343456
v -0.00228720 0.00409574 0.04355326
v -0.00197621 0.00234862 0.04173791
v -0.00306994 0.00603888 0.04351068
v -0.00205209 -0.00042869 0.02571734
v -0.00024010 0.00049058 0.02486396
v -0.00318241 0.00032677 0.02589028
v -0.00166690 -0.00313846 0.02765813
v -0.00328056 -0.00244382 0.02792278
v -0.00310467 -0.00253968 0.02788518
v 0.00007574 0.00544169 0.02714551
v -0.00372113 -0.00199089 0.03204149
v -0.00461150 -0.00186127 0.03028106
v -0.00391119 -0.00214913 0.03092720
v -0.00308761 -0.00004808 0.03570577
v -0.00467664 0.00420960 0.03385259
v -0.00464883 0.00466005 0.03401417
v -0.00401600 0.00415463 0.03589212
v -0.00192194 0.00201387 0.04079439
v -0.00241288 0.00199275 0.03943419
v -0.00276480 0.00282039 0.03973873
v -0.00386257 0.00347619 0.03698665
v -0.00283849 0.00359282 0.04100340
v -0.00390133 0.00369120 0.03697689
v -0.00432722 0.00366858 0.03514886
v -0.00413641 0.00375250 0.03563210
v -0.00413198 0.00205012 0.03508424
v -0.00420371 0.00266783 0.03533650
v -0.00417630 0.00298842 0.03559005
v -0.00417244 0.00327246 0.03557257
v -0.00411338 0.00437931 0.03690053
v -0.00394427 0.00442158 0.03532135
v -0.00221108 0.00355700 0.04327737
v -0.00423602 0.00498657 0.03714645
v -0.00477745 0.00552503 0.03418943
v -0.00472588 0.00562216 0.03451098
v -0.00460659 0.00500059 0.03424693
v -0.00497445 0.00608359 0.03518475
v -0.00491381 0.00562961 0.03217165
v -0.00510046 0.00739237 0.03597017
v -0.00438554 0.00513073 0.03675504
v -0.00500580 0.00716756 0.03641223
v -0.00493838 0.00646067 0.03597669
v -0.00320705 0.00670718 0.03048843
v -0.00322014 0.01107897 0.03511753
v -0.00370566 0.01024387 0.03431438
v -0.00486798 0.00896931 0.03444177
v -0.00578593 0.01322721 0.03956372
v -0.00315303 0.01465714 0.04021791
v -0.00513335 0.01377823 0.03974857
v -0.00377928 0.01322441 0.03807058
v -0.00533030 0.01388337 0.04045544
v -0.00061918 0.01080533 0.04262385
v -0.00385864 0.01157436 0.04307249
v -0.00511400 0.00746778 0.03626515
v -0.00336653 0.01466695 0.04040289
v -0.00542230 0.01380810 0.04067133
v -0.00489995 0.01292137 0.04256437
v -0.00584927 0.01349999 0.04078410
v -0.00565796 0.01086360 0.04159040
v -0.00497975 -0.00157764 0.02864602
v -0.00459746 -0.00191187 0.03015971
v -0.00455603 -0.00111785 0.03163030
v -0.00577609 -0.00007714 0.02910424
v -0.00428713 -0.00115243 0.03252557
v -0.00522651 -0.00066658 0.03012132
v -0.00438059 -0.00153266 0.02787969
v -0.00231182 0.00234367 0.02549014
v -0.00558690 0.00079876 0.02723482
v -0.00441295 0.00394038 0.02693393
v -0.00592649 0.00191286 0.02734835
v -0.00581277 0.00369165 0.02925336
v -0.00465492 0.00447467 0.02760517
v -0.00523020 0.00437935 0.02794290
v -0.00581074 0.00335411 0.02786391
v -0.00587610 0.01311560 0.03959304
v -0.00602660 0.01278330 0.03963337
v -0.00576554 0.01165816 0.03992576
v 0.00844925 0.00508993 0.03772156
v 0.00812608 0.00258492 0.03681986
v 0.00756837 0.00690935 0.03721833
v 0.00845641 0.00532834 0.03786365
v 0.00371313 0.01053039 0.04258891
v 0.00450061 0.00079292 0.04570060
v 0.00619907 0.00513646 0.03111104
v 0.00380572 0.00608369 0.02866948
v 0.00560160 0.00521890 0.03025779
v 0.00347476 0.00662004 0.02900712
v 0.00369339 0.01425668 0.03854060
v 0.00306202 0.01117409 0.04255027
v 0.00487284 0.01331320 0.04027620
v -0.00064835 -0.00178394 0.03795106
v 0.00226571 0.01432239 0.03721262
v -0.00089229 0.01407945 0.03791454
v 0.00062737 0.01087908 0.04210223
v 0.00115631 0.01102623 0.04243266
v 0.00096077 0.01289784 0.04223449
v 0.00115307 0.01326348 0.04179597
v -0.00026994 0.01237070 0.04236790
v 0.00206382 0.01095347 0.04274499
v 0.00161229 0.01094994 0.04279882
v 0.00154923 0.01099502 0.04273874
v 0.00061247 0.01234704 0.04246841
v 0.00026374 0.01170746 0.04248775
v 0.00089333 0.01164766 0.04253300
v 0.00036674 0.01164253 0.04244041
v 0.00004627 0.01222187 0.04242538
v 0.00129429 0.01143496 0.04267913
v 0.00008933 0.01192417 0.04245382
v 0.00302445 0.01123827 0.04251925
v 0.00098739 0.01269053 0.04237618
v -0.00493461 0.01385368 0.04165950
v -0.00095899 -0.00330831 0.02771674
v -0.00121890 -0.00334412 0.02892309
v -0.00016435 -0.00347494 0.02776872
v -0.00020897 -0.00325688 0.02810752
v 0.00028002 -0.00342608 0.02805573
v -0.00006795 -0.00334830 0.02800460
v -0.00030380 -0.00299797 0.02859435
v -0.00059676 -0.00350085 0.02969463
v -0.00056609 -0.00347054 0.02961729
v -0.00049876 -0.00308629 0.02867143
v -0.00037458 -0.00308003 0.02853812
v -0.00042745 -0.00316407 0.02845780
v -0.00041152 -0.00299171 0.02872813
v -0.00069304 -0.00345200 0.02948495
v 0.00016471 -0.00290526 0.03488824
v 0.00061538 -0.00302111 0.03622061
v 0.00353267 0.01071017 0.04258622
v -0.00386929 0.01180401 0.04296254
v -0.00523186 0.00960367 0.04150031
v -0.00389318 0.01097913 0.03505823
v -0.00476376 0.01299737 0.04258201
v -0.00408108 0.01354553 0.04222950
v -0.00569567 0.01289595 0.04179998
v -0.00603203 0.01247900 0.04154618
v -0.00366632 0.00762317 0.04336295
v -0.00522790 0.01239847 0.04239997
v -0.00611942 0.00088938 0.02830048
v -0.00609905 0.00132151 0.02783122
v -0.00467660 0.00626273 0.03047475
v -0.00542469 0.00491438 0.02925431
v -0.00602432 0.00205805 0.02739611
v -0.00611768 0.00307757 0.02859924
vn 0.953269 -0.301543 -0.018696
vn 0.984579 -0.107292 0.138178
vn 0.812522 0.425486 -0.398459
vn 0.886679 0.109727 0.449178
vn 0.574402 0.131991 0.807862
vn 0.320372 0.923488 -0.211024
vn -0.078956 0.178818 0.980709
vn 0.168142 0.978089 -0.122760
vn 0.527737 0.735442 -0.424993
vn -0.084721 -0.905067 0.416746
vn -0.519905 -0.226982 0.823516
vn 0.001180 0.179370 0.983781
vn -0.535742 -0.330017 0.777219
vn 0.184383 -0.003874 0.982847
vn -0.593298 -0.761233 0.261768
vn -0.209806 -0.975128 -0.071465
vn 0.372887 -0.848500 -0.375504
vn -0.353605 -0.885345 0.301874
vn -0.777939 -0.251051 0.576007
vn -0.183934 0.746148 -0.639868
vn -0.889523 0.188022 0.416409
vn -0.601842 0.577419 -0.551701
vn -0.709044 0.679290 -0.189266
vn -0.947775 -0.282802 0.147465
vn -0.095731 0.964823 0.244853
vn -0.593201 -0.019439 0.804820
vn -0.229680 0.779092 -0.583321
vn 0.216423 0.971014 0.101449
vn 0.320758 0.564556 0.760520
vn -0.763274 -0.592176 0.258342
vn -0.208878 0.824617 -0.525715
vn 0.046853 -0.508298 0.859906
vn 0.509035 -0.740194 0.439312
vn -0.226209 -0.973212 -0.041097
vn -0.079011 0.224502 0.971265
vn -0.950631 0.285151 -0.122432
vn 0.766859 -0.066443 -0.638367
vn 0.412506 -0.892525 0.182315
vn 0.042135 0.386704 0.921241
vn 0.326567 0.427048 -0.843199
vn -0.160758 -0.834038 0.527767
vn -0.058408 -0.998239 -0.010383
vn 0.388351 -0.918751 0.071275
vn -0.012107 0.994838 0.100750
vn -0.082422 0.636515 -0.766848
vn 0.384270 0.467536 -0.796082
vn -0.340000 -0.883607 0.321929
vn -0.079386 -0.967806 0.238852
vn -0.281441 -0.959083 0.030839
vn -0.511311 0.200940 0.835574
vn 0.361181 -0.160800 0.918527
vn -0.338524 -0.939698 0.048674
vn -0.281345 -0.861145 0.423408
vn -0.958900 -0.066726 0.275786
vn -0.598865 -0.290867 0.746162
vn -0.228494 0.800859 -0.553548
vn -0.416985 -0.907779 0.045406
vn -0.175632 0.846364 -0.502813
vn -0.893570 -0.448610 -0.016779
vn -0.735513 -0.665331 -0.127887
vn 0.015386 0.706052 -0.707993
vn -0.992897 0.017306 0.117710
vn -0.424440 0.870887 -0.247804
vn -0.900478 -0.390979 0.190458
vn -0.981328 0.017077 -0.191582
vn 0.097369 0.980033 0.173363
vn -0.842482 -0.265385 0.468822
vn -0.991104 -0.133032 0.004019
vn -0.931829 0.133694 -0.337374
vn 0.127913 0.991769 0.005774
vn 0.422037 0.880027 -0.217801
vn 0.624632 0.485965 -0.611288
vn -0.573696 0.149723 0.805268
vn -0.598444 -0.360509 0.715471
vn 0.198670 -0.979745 0.025102
vn -0.187104 -0.981841 0.031310
vn -0.502804 -0.096313 0.859018
vn -0.084653 0.367194 0.926284
vn 0.130657 0.176874 0.975523
vn -0.807943 -0.438572 -0.393552
vn 0.915893 -0.336368 0.219083
vn 0.951394 0.251049 -0.178393
vn 0.908109 -0.244848 -0.339687
vn 0.817733 0.475784 -0.323949
vn 0.886266 0.115212 -0.448620
vn 0.799947 0.406991 -0.440958
vn 0.864199 -0.492140 0.104681
vn 0.912580 -0.388893 -0.126334
vn 0.817916 0.468528 -0.333908
vn 0.885775 -0.380507 0.265738
vn 0.721380 -0.647043 0.246871
vn 0.803775 -0.480338 0.351027
vn 0.719579 0.385315 -0.577701
vn 0.906030 -0.118581 0.406262
vn 0.719664 0.291355 0.630235
vn 0.752953 -0.266095 -0.601876
vn 0.389474 -0.350644 -0.851680
vn 0.688866 0.232869 -0.686466
vn 0.627845 -0.012970 -0.778231
vn 0.689366 -0.662781 -0.292399
vn 0.540848 -0.590279 -0.599212
vn 0.248601 -0.967168 -0.052753
vn 0.136618 -0.970977 0.196314
vn -0.052760 -0.939091 0.339593
vn -0.436449 -0.885791 0.157756
vn 0.518703 0.854239 0.034974
vn 0.520121 0.853009 0.043006
vn 0.080722 -0.979796 0.182986
vn -0.128069 -0.991765 -0.000702
vn 0.628898 0.666028 -0.401115
vn 0.655229 0.452005 -0.605283
vn 0.460459 0.435076 -0.773748
vn 0.185591 -0.863242 0.469435
vn 0.303956 0.529798 0.791786
vn 0.505938 0.342635 0.791598
vn 0.194707 0.373656 0.906902
vn 0.170437 -0.768891 -0.616245
vn 0.048637 -0.959632 -0.277022
vn 0.172474 -0.310960 -0.934643
vn 0.337590 -0.137079 -0.931259
vn 0.053439 -0.615977 -0.785950
vn -0.135325 -0.467616 -0.873512
vn 0.524120 0.028064 -0.851182
vn 0.531160 0.262160 -0.805693
vn 0.696290 0.112773 -0.708846
vn 0.410472 0.019079 -0.911673
vn 0.647011 0.458727 -0.609054
vn -0.087651 -0.984055 -0.154765
vn 0.456698 0.601407 -0.655544
vn 0.396316 0.666400 -0.631541
vn -0.098532 0.944677 -0.312854
vn 0.015961 0.852783 -0.522021
vn -0.122317 -0.988371 -0.090335
vn -0.358474 -0.930802 -0.071440
vn 0.027607 -0.788561 0.614336
vn -0.038170 -0.992800 -0.113539
vn 0.034674 -0.999050 -0.026409
vn -0.147511 -0.970122 0.192622
vn -0.068779 -0.740308 0.668741
vn -0.134967 -0.789492 0.598737
vn 0.123483 -0.992180 -0.018190
vn -0.103681 -0.896758 0.430203
vn -0.101145 -0.880369 0.463380
vn 0.203725 0.978449 -0.033678
vn -0.090166 0.976383 0.196331
vn 0.585052 0.742571 -0.326041
vn 0.321465 0.915033 0.243669
vn 0.095600 0.919908 0.380302
vn 0.316843 0.922666 0.219770
vn -0.012639 0.973306 -0.229163
vn -0.155830 0.845609 0.510550
vn -0.152043 0.969289 0.193293
vn 0.265374 0.889910 -0.370995
vn -0.058088 0.968163 -0.243486
vn 0.101298 0.932549 -0.346542
vn -0.178407 0.868378 -0.462699
vn 0.269301 0.856140 -0.441023
vn 0.517549 0.570949 -0.637307
vn 0.425770 0.738162 -0.523295
vn 0.567295 0.392356 -0.724039
vn 0.056316 0.737618 -0.672865
vn -0.042646 0.511632 -0.858146
vn 0.196429 0.458212 -0.866866
vn 0.148461 0.505671 -0.849856
vn 0.102136 0.628473 -0.771096
vn -0.045105 0.729278 -0.682729
vn -0.235743 0.707567 -0.666163
vn 0.226061 0.464899 -0.856017
vn 0.379650 -0.883537 0.274277
vn 0.086957 -0.985935 0.142723
vn -0.219155 -0.963686 0.152576
vn -0.244947 -0.898848 0.363418
vn -0.100373 -0.985389 0.137603
vn -0.050784 -0.965200 0.256535
vn -0.198692 -0.940254 0.276485
vn -0.764786 -0.584096 0.271907
vn 0.083101 0.991219 0.102852
vn -0.198992 -0.540496 0.817476
vn -0.357119 -0.748793 0.558368
vn -0.486135 -0.769295 0.414557
vn -0.097153 -0.228348 0.968720
vn -0.111216 0.368443 0.922974
vn -0.416970 -0.413396 0.809469
vn -0.042205 0.333561 0.941783
vn -0.525102 0.264479 0.808900
vn -0.590585 0.388466 0.707321
vn 0.159017 0.585160 0.795174
vn 0.120654 0.263488 0.957088
vn 0.404050 -0.015025 0.914614
vn -0.293822 -0.937271 -0.187595
vn -0.108236 -0.907080 -0.406806
vn -0.227024 -0.599659 -0.767378
vn -0.165015 -0.777459 -0.606900
vn -0.391307 -0.547316 -0.739813
vn 0.291123 0.281125 -0.914449
vn 0.100920 0.016488 -0.994758
vn 0.063393 -0.240008 -0.968699
vn 0.096240 -0.125500 -0.987415
vn 0.021690 -0.022159 -0.999519
vn -0.079883 0.642608 -0.762020
vn -0.069377 0.790705 -0.608253
vn -0.089431 0.220105 -0.971368
vn -0.249287 0.550182 -0.796967
vn -0.559245 -0.822552 -0.103217
vn -0.182365 -0.945711 -0.269025
vn -0.485242 -0.831285 -0.271118
vn -0.652618 -0.747396 -0.124455
vn 0.381244 -0.922845 -0.054866
vn -0.409776 -0.911565 -0.033653
vn -0.284300 -0.946841 0.150549
vn -0.332672 -0.903476 0.270297
vn -0.638581 -0.690649 0.339438
vn -0.227872 -0.853129 0.469303
vn 0.151679 0.747231 -0.647023
vn -0.062560 0.621897 -0.780596
vn 0.217289 0.507743 -0.833656
vn 0.147684 0.900620 -0.408746
vn -0.815627 -0.489427 0.308567
vn 0.005918 0.694397 -0.719568
vn -0.920264 -0.245097 0.305026
vn -0.877315 -0.348576 0.329869
vn -0.643375 -0.623031 0.444860
vn -0.960262 -0.260690 0.099692
vn -0.955833 -0.279403 0.091199
vn -0.916385 -0.370491 0.151574
vn -0.914442 -0.404631 0.008391
vn -0.805800 -0.585664 0.087655
vn -0.835558 -0.488381 0.251648
vn -0.783850 -0.602935 0.148490
vn -0.652208 -0.472161 0.593034
vn -0.638371 -0.309189 0.704901
vn -0.849726 -0.484986 0.206769
vn -0.705816 -0.244594 0.664829
vn -0.304849 -0.333329 -0.892165
vn -0.302935 -0.134938 -0.943410
vn -0.402636 -0.139574 -0.904657
vn -0.336239 -0.757161 -0.560045
vn -0.506782 -0.645224 -0.571715
vn -0.451978 -0.815037 -0.362533
vn -0.163397 0.765348 -0.622531
vn -0.441860 -0.814757 0.375409
vn -0.803198 -0.530819 0.270379
vn -0.492174 -0.848704 0.193561
vn -0.702594 -0.582660 0.408496
vn -0.988867 -0.096567 0.113211
vn -0.894489 -0.039877 0.445308
vn -0.997133 -0.044350 0.061317
vn -0.842653 -0.467824 0.266602
vn -0.877682 -0.332447 0.345185
vn -0.831360 -0.514414 0.210282
vn -0.899476 -0.319297 0.298316
vn -0.904524 -0.352975 0.239259
vn -0.950190 -0.245583 0.191905
vn -0.941134 0.175285 0.289035
vn -0.929621 0.031870 0.367137
vn -0.878025 -0.309836 0.364792
vn -0.968016 -0.132780 0.212872
vn -0.973448 -0.005984 0.228832
vn -0.931423 0.028661 0.362807
vn -0.949389 -0.278023 0.146162
vn -0.951615 -0.102479 0.289701
vn -0.908158 -0.351518 0.227343
vn -0.935384 -0.249503 0.250609
vn -0.971433 -0.218586 0.092403
vn -0.858720 -0.458805 0.228251
vn -0.864851 -0.283284 0.414467
vn -0.955203 -0.291956 0.048478
vn -0.979182 -0.195194 0.055690
vn -0.996602 -0.007838 -0.081993
vn -0.936694 -0.322517 0.136333
vn -0.927294 -0.316336 0.200141
vn -0.946103 -0.254369 0.200464
vn -0.029603 0.800463 -0.598650
vn -0.099528 0.719387 -0.687442
vn -0.156732 0.738088 -0.656248
vn -0.928955 0.257340 -0.266116
vn -0.604308 0.661226 -0.444513
vn -0.187084 0.919836 -0.344821
vn -0.310020 0.830190 -0.463327
vn -0.258033 0.798082 -0.544504
vn -0.443798 0.887440 -0.124474
vn 0.177811 0.134673 0.974806
vn -0.063202 0.112455 0.991645
vn -0.942260 -0.315746 0.111578
vn -0.108241 0.987089 0.118064
vn -0.458105 0.848160 0.266014
vn -0.537201 0.296873 0.789482
vn -0.710100 0.669724 0.217319
vn -0.856310 -0.257096 0.447924
vn -0.720357 -0.668149 -0.186180
vn -0.699357 -0.710265 0.080141
vn -0.825397 -0.490210 0.280024
vn -0.921520 -0.353623 0.160475
vn -0.943246 -0.124592 0.307837
vn -0.878086 -0.402922 0.258106
vn -0.561182 -0.531357 -0.634614
vn -0.414354 0.102213 -0.904358
vn -0.526814 -0.258094 -0.809848
vn -0.463571 0.328186 -0.823041
vn -0.505472 0.116199 -0.854983
vn -0.911042 -0.011696 0.412148
vn -0.361434 0.572743 -0.735752
vn -0.573235 0.626872 -0.527668
vn -0.727051 0.414897 -0.547044
vn -0.834085 0.472310 -0.285001
vn -0.999016 -0.015618 -0.041505
vn -0.973241 -0.224896 -0.047156
vn 0.872903 0.113415 0.474529
vn 0.923116 -0.220418 0.315075
vn 0.789228 0.433129 -0.435336
vn 0.918296 0.307068 -0.249884
vn 0.824686 0.507309 0.250061
vn 0.015693 -0.826997 0.561987
vn 0.750417 0.548049 -0.369481
vn 0.644795 0.610583 -0.459813
vn 0.691418 0.555076 -0.462419
vn 0.537472 0.698301 -0.472757
vn 0.224572 0.968236 0.109942
vn 0.319987 0.566505 0.759395
vn 0.307563 0.557601 0.771029
vn -0.806462 -0.539932 0.241024
vn -0.113483 0.627361 -0.770416
vn -0.191765 0.741390 -0.643092
vn 0.077431 0.054349 0.995515
vn -0.556430 -0.320273 0.766688
vn 0.396051 0.612336 0.684243
vn 0.320246 0.565851 0.759773
vn 0.108897 0.369039 0.923012
vn 0.094846 0.167119 0.981364
vn -0.741725 -0.174290 0.647662
vn -0.653161 -0.136999 0.744723
vn 0.053304 0.247991 0.967295
vn 0.046519 -0.222963 0.973716
vn -0.125390 -0.650377 0.749191
vn -0.001086 -0.582195 0.813049
vn -0.109887 0.101829 0.988714
vn -0.030895 0.145946 0.988810
vn -0.145978 0.082953 0.985804
vn 0.071352 0.193808 0.978441
vn -0.036811 0.239484 0.970202
vn -0.324728 0.784953 0.527637
vn -0.003958 -0.992004 0.126145
vn 0.063569 -0.997302 -0.036718
vn -0.219659 -0.819160 0.529837
vn 0.003915 -0.999305 -0.037082
vn -0.258223 -0.827499 0.498564
vn -0.218127 -0.833470 0.507688
vn 0.509046 -0.740147 0.439380
vn 0.244186 -0.918893 -0.309853
vn 0.218466 -0.923461 -0.315423
vn 0.509020 -0.740158 0.439391
vn 0.509045 -0.740147 0.439380
vn 0.509020 -0.740166 0.439379
vn -0.308087 -0.881421 -0.358020
vn 0.266565 -0.871614 -0.411379
vn -0.204691 -0.978231 -0.034138
vn -0.059516 -0.995912 0.067947
vn 0.054912 0.219677 0.974026
vn 0.083449 0.371756 0.924572
vn -0.940723 -0.324301 0.099346
vn -0.530710 0.637683 -0.558307
vn 0.050867 0.431913 0.900479
vn 0.134469 0.738553 0.660650
vn -0.679363 0.497910 0.539028
vn -0.728510 0.438019 0.526700
vn -0.435014 0.044936 0.899302
vn -0.567034 0.026712 0.823261
vn -0.934855 -0.036895 0.353107
vn -0.995784 0.010516 -0.091125
vn -0.866622 0.439825 -0.235627
vn -0.915943 0.400626 0.023400
vn -0.896483 0.294425 -0.331109
vn -0.957997 0.281221 -0.056180
f 1//1 84//84 82//82
f 82//82 81//81 1//1
f 81//81 82//82 89//89
f 82//82 84//84 89//89
f 81//81 89//89 2//2
f 2//2 308//308 309//309
f 310//310 311//311 89//89
f 89//89 311//311 2//2
f 88//88 83//83 1//1
f 83//83 88//88 100//100
f 83//83 85//85 1//1
f 85//85 83//83 37//37
f 85//85 84//84 1//1
f 86//86 84//84 85//85
f 85//85 98//98 86//86
f 37//37 125//125 85//85
f 125//125 98//98 85//85
f 81//81 91//91 1//1
f 87//87 1//1 91//91
f 100//100 88//88 87//87
f 88//88 1//1 87//87
f 100//100 38//38 102//102
f 87//87 38//38 100//100
f 103//103 102//102 38//38
f 103//103 38//38 104//104
f 38//38 108//108 104//104
f 127//127 314//314 84//84
f 127//127 84//84 86//86
f 106//106 107//107 314//314
f 314//314 107//107 84//84
f 84//84 110//110 89//89
f 107//107 110//110 84//84
f 110//110 107//107 6//6
f 308//308 4//4 309//309
f 4//4 92//92 309//309
f 310//310 3//3 311//311
f 89//89 111//111 310//310
f 72//72 111//111 112//112
f 2//2 90//90 81//81
f 90//90 91//91 81//81
f 87//87 91//91 38//38
f 2//2 309//309 90//90
f 309//309 92//92 90//90
f 93//93 310//310 111//111
f 111//111 72//72 93//93
f 310//310 72//72 3//3
f 93//93 72//72 310//310
f 90//90 92//92 91//91
f 308//308 115//115 4//4
f 308//308 312//312 115//115
f 313//313 92//92 94//94
f 5//5 313//313 95//95
f 94//94 92//92 4//4
f 313//313 94//94 95//95
f 94//94 4//4 95//95
f 5//5 181//181 313//313
f 5//5 114//114 7//7
f 5//5 95//95 114//114
f 97//97 96//96 100//100
f 97//97 100//100 101//101
f 100//100 117//117 101//101
f 101//101 117//117 97//97
f 118//118 117//117 100//100
f 100//100 102//102 118//118
f 96//96 37//37 83//83
f 96//96 83//83 100//100
f 96//96 99//99 37//37
f 97//97 99//99 96//96
f 119//119 120//120 97//97
f 122//122 97//97 121//121
f 119//119 97//97 122//122
f 98//98 127//127 86//86
f 315//315 317//317 146//146
f 105//105 108//108 109//109
f 108//108 105//105 104//104
f 104//104 105//105 41//41
f 105//105 133//133 41//41
f 109//109 134//134 105//105
f 134//134 133//133 105//105
f 147//147 107//107 106//106
f 127//127 316//316 314//314
f 314//314 315//315 146//146
f 316//316 315//315 314//314
f 127//127 315//315 316//316
f 148//148 144//144 107//107
f 144//144 148//148 145//145
f 6//6 107//107 144//144
f 147//147 148//148 107//107
f 146//146 149//149 106//106
f 149//149 148//148 147//147
f 149//149 147//147 106//106
f 91//91 170//170 38//38
f 38//38 170//170 108//108
f 91//91 169//169 170//170
f 109//109 108//108 170//170
f 133//133 134//134 136//136
f 6//6 159//159 110//110
f 89//89 110//110 111//111
f 158//158 111//111 110//110
f 159//159 158//158 110//110
f 160//160 111//111 158//158
f 160//160 112//112 111//111
f 71//71 70//70 318//318
f 71//71 318//318 28//28
f 72//72 322//322 31//31
f 70//70 177//177 318//318
f 318//318 66//66 28//28
f 177//177 66//66 318//318
f 113//113 10//10 169//169
f 313//313 113//113 92//92
f 92//92 169//169 91//91
f 113//113 169//169 92//92
f 313//313 10//10 113//113
f 10//10 313//313 179//179
f 320//320 327//327 319//319
f 29//29 327//327 320//320
f 179//179 313//313 178//178
f 179//179 178//178 183//183
f 181//181 178//178 313//313
f 183//183 178//178 181//181
f 116//116 114//114 95//95
f 181//181 5//5 7//7
f 181//181 7//7 183//183
f 95//95 4//4 115//115
f 95//95 115//115 116//116
f 115//115 39//39 116//116
f 39//39 114//114 116//116
f 7//7 114//114 39//39
f 77//77 183//183 182//182
f 183//183 7//7 182//182
f 121//121 97//97 117//117
f 121//121 117//117 193//193
f 117//117 118//118 193//193
f 118//118 102//102 128//128
f 118//118 205//205 193//193
f 205//205 118//118 128//128
f 205//205 128//128 204//204
f 123//123 37//37 99//99
f 123//123 99//99 97//97
f 123//123 97//97 126//126
f 119//119 198//198 126//126
f 119//119 126//126 120//120
f 120//120 126//126 97//97
f 195//195 126//126 196//196
f 126//126 199//199 196//196
f 196//196 199//199 195//195
f 126//126 124//124 123//123
f 124//124 98//98 125//125
f 123//123 125//125 37//37
f 124//124 125//125 123//123
f 126//126 195//195 124//124
f 195//195 127//127 124//124
f 124//124 127//127 98//98
f 195//195 40//40 127//127
f 102//102 103//103 137//137
f 138//138 128//128 137//137
f 128//128 102//102 137//137
f 138//138 103//103 139//139
f 137//137 103//103 138//138
f 138//138 209//209 128//128
f 128//128 209//209 206//206
f 205//205 206//206 15//15
f 128//128 206//206 204//204
f 204//204 206//206 205//205
f 129//129 127//127 40//40
f 129//129 40//40 201//201
f 315//315 127//127 130//130
f 127//127 129//129 130//130
f 146//146 317//317 130//130
f 317//317 315//315 130//130
f 201//201 132//132 130//130
f 201//201 130//130 129//129
f 132//132 201//201 131//131
f 103//103 104//104 140//140
f 103//103 140//140 139//139
f 138//138 139//139 140//140
f 41//41 140//140 104//104
f 138//138 140//140 135//135
f 140//140 41//41 135//135
f 142//142 141//141 76//76
f 43//43 141//141 142//142
f 133//133 141//141 43//43
f 133//133 42//42 141//141
f 42//42 133//133 136//136
f 133//133 43//43 41//41
f 135//135 143//143 138//138
f 43//43 143//143 41//41
f 143//143 135//135 41//41
f 142//142 143//143 43//43
f 76//76 213//213 142//142
f 76//76 212//212 213//213
f 142//142 53//53 143//143
f 213//213 53//53 142//142
f 18//18 138//138 143//143
f 53//53 213//213 212//212
f 143//143 53//53 18//18
f 144//144 153//153 6//6
f 161//161 158//158 159//159
f 153//153 159//159 6//6
f 161//161 159//159 153//153
f 8//8 144//144 145//145
f 8//8 154//154 144//144
f 154//154 153//153 144//144
f 9//9 8//8 217//217
f 131//131 217//217 44//44
f 217//217 8//8 44//44
f 151//151 148//148 149//149
f 152//152 148//148 151//151
f 145//145 148//148 152//152
f 146//146 130//130 152//152
f 130//130 132//132 150//150
f 132//132 131//131 150//150
f 130//130 150//150 152//152
f 150//150 131//131 152//152
f 146//146 152//152 149//149
f 152//152 151//151 149//149
f 152//152 131//131 44//44
f 8//8 145//145 44//44
f 145//145 152//152 44//44
f 42//42 136//136 170//170
f 136//136 134//134 109//109
f 173//173 170//170 169//169
f 136//136 109//109 170//170
f 34//34 76//76 356//356
f 76//76 141//141 356//356
f 356//356 141//141 42//42
f 49//49 34//34 356//356
f 49//49 356//356 357//357
f 357//357 356//356 42//42
f 154//154 156//156 153//153
f 155//155 156//156 154//154
f 166//166 161//161 156//156
f 156//156 161//161 153//153
f 154//154 8//8 155//155
f 156//156 155//155 166//166
f 155//155 8//8 157//157
f 155//155 157//157 166//166
f 157//157 8//8 9//9
f 157//157 9//9 46//46
f 216//216 46//46 9//9
f 158//158 161//161 160//160
f 161//161 164//164 160//160
f 167//167 164//164 161//161
f 164//164 112//112 160//160
f 164//164 162//162 112//112
f 161//161 166//166 167//167
f 167//167 166//166 45//45
f 167//167 45//45 164//164
f 45//45 163//163 164//164
f 157//157 46//46 166//166
f 45//45 166//166 163//163
f 166//166 46//46 165//165
f 166//166 165//165 163//163
f 162//162 164//164 163//163
f 163//163 165//165 46//46
f 112//112 162//162 163//163
f 168//168 112//112 163//163
f 168//168 163//163 46//46
f 217//217 214//214 9//9
f 214//214 216//216 9//9
f 72//72 112//112 215//215
f 112//112 168//168 215//215
f 168//168 46//46 216//216
f 215//215 216//216 214//214
f 168//168 216//216 215//215
f 10//10 173//173 169//169
f 42//42 170//170 173//173
f 173//173 10//10 172//172
f 173//173 172//172 171//171
f 180//180 171//171 172//172
f 49//49 357//357 174//174
f 357//357 42//42 173//173
f 357//357 173//173 174//174
f 173//173 48//48 174//174
f 48//48 173//173 47//47
f 47//47 173//173 171//171
f 171//171 180//180 47//47
f 30//30 47//47 176//176
f 174//174 48//48 47//47
f 49//49 174//174 175//175
f 175//175 47//47 30//30
f 174//174 47//47 175//175
f 72//72 215//215 322//322
f 215//215 214//214 219//219
f 285//285 66//66 177//177
f 278//278 177//177 70//70
f 285//285 177//177 278//278
f 322//322 323//323 31//31
f 215//215 323//323 322//322
f 323//323 278//278 31//31
f 279//279 278//278 323//323
f 172//172 10//10 179//179
f 172//172 179//179 180//180
f 47//47 180//180 176//176
f 179//179 222//222 180//180
f 180//180 222//222 176//176
f 222//222 179//179 230//230
f 77//77 55//55 183//183
f 55//55 231//231 230//230
f 231//231 64//64 230//230
f 183//183 230//230 179//179
f 55//55 230//230 183//183
f 222//222 230//230 228//228
f 230//230 64//64 262//262
f 230//230 262//262 228//228
f 186//186 184//184 12//12
f 73//73 324//324 185//185
f 73//73 185//185 184//184
f 50//50 184//184 186//186
f 184//184 50//50 73//73
f 184//184 185//185 187//187
f 185//185 324//324 187//187
f 324//324 73//73 11//11
f 73//73 325//325 11//11
f 325//325 13//13 11//11
f 231//231 55//55 233//233
f 55//55 77//77 233//233
f 233//233 77//77 19//19
f 77//77 182//182 35//35
f 35//35 182//182 78//78
f 182//182 7//7 39//39
f 182//182 39//39 115//115
f 358//358 115//115 312//312
f 182//182 115//115 78//78
f 78//78 358//358 12//12
f 115//115 358//358 78//78
f 79//79 35//35 78//78
f 184//184 78//78 12//12
f 79//79 78//78 184//184
f 358//358 329//329 12//12
f 73//73 50//50 331//331
f 50//50 186//186 331//331
f 331//331 186//186 330//330
f 13//13 325//325 74//74
f 325//325 331//331 74//74
f 325//325 73//73 331//331
f 74//74 331//331 330//330
f 337//337 12//12 329//329
f 335//335 32//32 334//334
f 335//335 334//334 333//333
f 184//184 187//187 188//188
f 324//324 32//32 51//51
f 32//32 335//335 51//51
f 335//335 333//333 51//51
f 187//187 324//324 188//188
f 188//188 189//189 14//14
f 188//188 324//324 51//51
f 14//14 51//51 333//333
f 189//189 51//51 14//14
f 188//188 51//51 189//189
f 338//338 14//14 333//333
f 328//328 14//14 338//338
f 184//184 188//188 79//79
f 282//282 188//188 14//14
f 79//79 188//188 282//282
f 29//29 326//326 327//327
f 326//326 319//319 327//327
f 340//340 332//332 339//339
f 332//332 329//329 358//358
f 339//339 358//358 312//312
f 332//332 358//358 339//339
f 328//328 340//340 341//341
f 332//332 340//340 328//328
f 337//337 329//329 332//332
f 332//332 328//328 336//336
f 333//333 337//337 338//338
f 338//338 336//336 328//328
f 337//337 332//332 338//338
f 332//332 336//336 338//338
f 193//193 191//191 190//190
f 190//190 205//205 15//15
f 191//191 205//205 190//190
f 193//193 205//205 191//191
f 347//347 345//345 342//342
f 344//344 342//342 75//75
f 347//347 342//342 344//344
f 75//75 342//342 343//343
f 342//342 345//345 343//343
f 343//343 345//345 16//16
f 119//119 122//122 197//197
f 121//121 193//193 122//122
f 193//193 192//192 122//122
f 193//193 194//194 192//192
f 192//192 194//194 122//122
f 122//122 194//194 234//234
f 126//126 198//198 199//199
f 198//198 197//197 122//122
f 198//198 122//122 199//199
f 119//119 197//197 198//198
f 202//202 195//195 199//199
f 40//40 195//195 202//202
f 202//202 203//203 200//200
f 40//40 202//202 200//200
f 40//40 200//200 201//201
f 20//20 203//203 56//56
f 201//201 200//200 240//240
f 200//200 203//203 20//20
f 200//200 20//20 240//240
f 240//240 20//20 201//201
f 201//201 58//58 131//131
f 203//203 202//202 297//297
f 209//209 138//138 18//18
f 347//347 344//344 346//346
f 347//347 346//346 345//345
f 209//209 207//207 206//206
f 206//206 207//207 16//16
f 209//209 18//18 210//210
f 207//207 210//210 16//16
f 209//209 210//210 207//207
f 33//33 353//353 351//351
f 352//352 33//33 348//348
f 352//352 348//348 351//351
f 353//353 33//33 352//352
f 353//353 352//352 351//351
f 17//17 354//354 355//355
f 206//206 354//354 15//15
f 355//355 354//354 206//206
f 355//355 206//206 16//16
f 16//16 210//210 343//343
f 17//17 355//355 349//349
f 355//355 350//350 349//349
f 350//350 16//16 349//349
f 355//355 16//16 350//350
f 52//52 75//75 208//208
f 75//75 343//343 208//208
f 52//52 208//208 210//210
f 208//208 343//343 210//210
f 210//210 18//18 211//211
f 57//57 52//52 210//210
f 57//57 210//210 211//211
f 58//58 201//201 56//56
f 201//201 20//20 56//56
f 273//273 56//56 27//27
f 58//58 56//56 273//273
f 241//241 53//53 212//212
f 211//211 18//18 53//53
f 57//57 211//211 241//241
f 273//273 217//217 131//131
f 273//273 131//131 58//58
f 30//30 321//321 212//212
f 218//218 244//244 212//212
f 321//321 218//218 212//212
f 273//273 214//214 217//217
f 321//321 30//30 176//176
f 218//218 176//176 222//222
f 321//321 176//176 218//218
f 218//218 251//251 256//256
f 251//251 257//257 256//256
f 220//220 221//221 218//218
f 54//54 221//221 220//220
f 218//218 222//222 220//220
f 229//229 248//248 221//221
f 221//221 249//249 218//218
f 218//218 249//249 251//251
f 249//249 248//248 251//251
f 221//221 248//248 249//249
f 219//219 323//323 215//215
f 226//226 224//224 228//228
f 228//228 225//225 222//222
f 224//224 225//225 228//228
f 222//222 225//225 220//220
f 225//225 224//224 220//220
f 220//220 223//223 54//54
f 224//224 223//223 220//220
f 54//54 223//223 221//221
f 224//224 226//226 223//223
f 221//221 223//223 226//226
f 221//221 226//226 227//227
f 226//226 228//228 227//227
f 228//228 262//262 232//232
f 228//228 229//229 227//227
f 227//227 229//229 221//221
f 232//232 229//229 228//228
f 229//229 232//232 250//250
f 229//229 250//250 248//248
f 250//250 251//251 248//248
f 251//251 250//250 252//252
f 252//252 232//232 262//262
f 250//250 232//232 252//252
f 231//231 233//233 64//64
f 14//14 328//328 282//282
f 328//328 283//283 282//282
f 66//66 285//285 25//25
f 234//234 235//235 122//122
f 234//234 194//194 236//236
f 122//122 235//235 199//199
f 234//234 236//236 235//235
f 202//202 199//199 235//235
f 202//202 235//235 236//236
f 57//57 190//190 52//52
f 190//190 57//57 237//237
f 57//57 239//239 237//237
f 194//194 193//193 237//237
f 193//193 190//190 237//237
f 194//194 237//237 239//239
f 239//239 57//57 290//290
f 239//239 290//290 238//238
f 290//290 57//57 291//291
f 239//239 238//238 194//194
f 298//298 194//194 296//296
f 298//298 296//296 80//80
f 194//194 238//238 296//296
f 296//296 290//290 80//80
f 238//238 290//290 296//296
f 53//53 241//241 211//211
f 241//241 212//212 244//244
f 241//241 244//244 294//294
f 241//241 243//243 57//57
f 242//242 243//243 241//241
f 242//242 291//291 243//243
f 243//243 291//291 57//57
f 241//241 294//294 292//292
f 241//241 292//292 242//242
f 245//245 62//62 294//294
f 303//303 27//27 56//56
f 371//371 370//370 36//36
f 21//21 246//246 245//245
f 254//254 21//21 245//245
f 62//62 245//245 268//268
f 264//264 246//246 265//265
f 265//265 246//246 266//266
f 245//245 246//246 264//264
f 245//245 264//264 268//268
f 294//294 244//244 256//256
f 244//244 218//218 256//256
f 256//256 257//257 294//294
f 294//294 257//257 245//245
f 257//257 258//258 245//245
f 258//258 257//257 251//251
f 258//258 251//251 247//247
f 247//247 251//251 253//253
f 261//261 247//247 59//59
f 270//270 60//60 59//59
f 247//247 253//253 260//260
f 270//270 59//59 260//260
f 59//59 247//247 260//260
f 251//251 252//252 253//253
f 253//253 252//252 260//260
f 261//261 246//246 21//21
f 254//254 261//261 21//21
f 245//245 258//258 254//254
f 246//246 261//261 266//266
f 261//261 265//265 266//266
f 247//247 261//261 254//254
f 247//247 254//254 255//255
f 59//59 265//265 261//261
f 254//254 258//258 259//259
f 255//255 258//258 247//247
f 259//259 258//258 255//255
f 259//259 255//255 254//254
f 262//262 263//263 252//252
f 263//263 270//270 260//260
f 263//263 260//260 252//252
f 271//271 263//263 262//262
f 264//264 265//265 267//267
f 265//265 59//59 267//267
f 60//60 267//267 59//59
f 64//64 271//271 262//262
f 271//271 270//270 263//263
f 267//267 60//60 270//270
f 267//267 268//268 264//264
f 62//62 268//268 267//267
f 62//62 267//267 269//269
f 270//270 271//271 272//272
f 270//270 272//272 267//267
f 271//271 269//269 267//267
f 271//271 267//267 272//272
f 273//273 27//27 275//275
f 323//323 219//219 61//61
f 219//219 214//214 273//273
f 274//274 273//273 275//275
f 61//61 273//273 274//274
f 219//219 273//273 61//61
f 275//275 36//36 370//370
f 275//275 370//370 361//361
f 62//62 276//276 370//370
f 269//269 276//276 62//62
f 65//65 276//276 269//269
f 275//275 361//361 274//274
f 361//361 323//323 61//61
f 361//361 61//61 274//274
f 280//280 323//323 361//361
f 323//323 280//280 279//279
f 361//361 370//370 276//276
f 361//361 276//276 65//65
f 361//361 65//65 22//22
f 64//64 284//284 271//271
f 269//269 271//271 284//284
f 269//269 284//284 65//65
f 281//281 285//285 63//63
f 285//285 278//278 279//279
f 285//285 279//279 63//63
f 361//361 22//22 280//280
f 280//280 22//22 279//279
f 22//22 277//277 279//279
f 277//277 23//23 279//279
f 63//63 23//23 281//281
f 279//279 23//23 63//63
f 281//281 23//23 286//286
f 23//23 288//288 286//286
f 65//65 69//69 22//22
f 65//65 24//24 307//307
f 65//65 307//307 69//69
f 23//23 277//277 305//305
f 277//277 22//22 69//69
f 277//277 69//69 305//305
f 24//24 68//68 307//307
f 307//307 306//306 69//69
f 68//68 306//306 307//307
f 306//306 23//23 69//69
f 69//69 23//23 305//305
f 23//23 306//306 288//288
f 365//365 68//68 26//26
f 306//306 68//68 288//288
f 365//365 341//341 288//288
f 365//365 288//288 68//68
f 284//284 64//64 360//360
f 65//65 360//360 24//24
f 284//284 360//360 65//65
f 79//79 283//283 35//35
f 282//282 283//283 79//79
f 233//233 19//19 289//289
f 64//64 233//233 24//24
f 24//24 233//233 289//289
f 289//289 19//19 67//67
f 289//289 67//67 26//26
f 283//283 26//26 366//366
f 283//283 366//366 35//35
f 367//367 26//26 283//283
f 367//367 283//283 287//287
f 26//26 68//68 289//289
f 289//289 68//68 24//24
f 281//281 286//286 285//285
f 285//285 341//341 25//25
f 288//288 341//341 285//285
f 286//286 288//288 285//285
f 362//362 363//363 341//341
f 287//287 362//362 341//341
f 283//283 359//359 287//287
f 283//283 328//328 359//359
f 328//328 341//341 363//363
f 359//359 362//362 287//287
f 328//328 363//363 362//362
f 328//328 362//362 359//359
f 365//365 364//364 341//341
f 341//341 364//364 287//287
f 364//364 365//365 287//287
f 365//365 26//26 367//367
f 365//365 367//367 287//287
f 293//293 368//368 80//80
f 242//242 293//293 291//291
f 291//291 293//293 290//290
f 290//290 293//293 80//80
f 293//293 242//242 295//295
f 293//293 292//292 294//294
f 242//242 292//292 295//295
f 295//295 292//292 293//293
f 80//80 368//368 369//369
f 297//297 202//202 236//236
f 298//298 236//236 194//194
f 236//236 298//298 297//297
f 373//373 36//36 372//372
f 298//298 80//80 300//300
f 298//298 300//300 297//297
f 80//80 369//369 372//372
f 369//369 373//373 372//372
f 368//368 373//373 369//369
f 300//300 299//299 297//297
f 299//299 203//203 297//297
f 299//299 303//303 203//203
f 203//203 302//302 56//56
f 303//303 302//302 203//203
f 302//302 303//303 56//56
f 299//299 300//300 304//304
f 303//303 304//304 27//27
f 299//299 304//304 303//303
f 293//293 294//294 368//368
f 294//294 301//301 368//368
f 294//294 62//62 301//301
f 36//36 373//373 371//371
f 373//373 368//368 301//301
f 373//373 301//301 62//62
f 371//371 373//373 370//370
f 373//373 62//62 370//370
