# decimated by Tools/decimate_anatomy.py from 9056 triangles (BodyParts3D, CC BY 4.0)
v 0.04826625 -0.01153171 0.07639896
v 0.04789776 -0.01125890 0.07833968
v 0.04284839 -0.01462247 0.07755249
v 0.04220145 -0.01147642 0.06645225
v 0.04068707 -0.01450033 0.07715284
v 0.04194438 -0.01396770 0.07950899
v 0.04197218 -0.00191594 0.08100899
v 0.04288151 -0.00014347 0.07321580
v 0.04017081 -0.01223594 0.07631205
v 0.04046975 -0.01423460 0.07766337
v 0.04031787 -0.01170723 0.07932702
v 0.03699418 -0.00563732 0.07332325
v 0.03674233 -0.00383616 0.07439832
v 0.03666665 -0.00399389 0.07485113
v 0.03844916 -0.00676725 0.07747233
v 0.03908632 -0.00160726 0.07716613
v 0.03677419 -0.00405100 0.08007710
v 0.03652348 -0.00397161 0.07985755
v 0.03273263 -0.00733721 0.04891434
v 0.03643799 0.00087672 0.06533875
v 0.03338025 -0.00537108 0.06478307
v 0.02973626 -0.00911326 0.04345571
v 0.03049025 -0.00473020 0.04242074
v 0.02563651 -0.00471386 0.03922676
v 0.02899815 -0.00363025 0.04076326
v 0.02256151 -0.01050025 0.04394822
v 0.02423286 -0.01062982 0.04324134
v 0.02569739 0.00181417 0.05170468
v 0.02109559 -0.00371775 0.05124994
v 0.02311251 -0.00238970 0.05216467
v 0.01955869 -0.00693330 0.04333564
v 0.01669816 -0.00810170 0.04561537
v 0.01987049 -0.00006230 0.04361822
v 0.01968461 -0.00904148 0.04580716
v 0.01581501 -0.00494339 0.04670662
v 0.04342444 -0.01388584 0.07558157
v 0.04440284 0.00051278 0.07802726
v 0.04185226 -0.01149525 0.06646471
v 0.02970216 -0.00921210 0.04362144
v 0.02667427 -0.00787961 0.04065840
v 0.02604339 -0.01067345 0.04310031
v 0.02860999 0.00305942 0.05183988
v 0.02988720 0.00289709 0.05272816
v 0.04943014 -0.01006429 0.07322301
v 0.04788646 -0.01184731 0.07551028
v 0.04932814 -0.00995586 0.07579370
v 0.04910919 -0.00873376 0.07721556
v 0.04485917 -0.01390394 0.07805542
v 0.04590318 -0.01129736 0.07977398
v 0.04392357 -0.01241465 0.08026451
v 0.04884421 -0.00422923 0.07595137
v 0.04340341 -0.01391815 0.07561867
v 0.04264063 -0.01461836 0.07818123
v 0.04176181 -0.01439180 0.07881261
v 0.04108271 -0.01467164 0.07737727
v 0.04194649 -0.01312732 0.07998464
v 0.04130643 -0.01253752 0.07468469
v 0.03986274 -0.01343076 0.07707730
v 0.04020466 -0.01226925 0.07622144
v 0.04036466 -0.01041168 0.07905456
v 0.04037561 -0.01054449 0.07925000
v 0.04015774 -0.01009660 0.07842692
v 0.04110579 -0.00985561 0.08012484
v 0.03865802 -0.00664498 0.07651462
v 0.04220073 0.00069245 0.07566911
v 0.04473680 -0.00051737 0.07905530
v 0.04273830 -0.00013895 0.07910443
v 0.04103776 -0.00148269 0.08054625
v 0.04093892 -0.01050386 0.06355418
v 0.03937944 -0.00987429 0.06073484
v 0.04108981 0.00057085 0.07402846
v 0.03670407 -0.00413078 0.07381697
v 0.03668535 -0.00346436 0.07564292
v 0.03656800 -0.00571830 0.07686325
v 0.03943615 -0.00125365 0.07693855
v 0.04181903 -0.00848288 0.08067349
v 0.03790721 -0.00464128 0.08074181
v 0.03645203 -0.00440274 0.07972599
v 0.03695948 -0.00390979 0.08017079
v 0.03831373 0.00056591 0.06903307
v 0.03492069 -0.00379469 0.06790576
v 0.03622769 -0.00466899 0.07907229
v 0.03570841 -0.00385782 0.07731776
v 0.03936437 -0.00195059 0.07943377
v 0.03661308 -0.00289605 0.07881270
v 0.03611020 -0.00309541 0.07831319
v 0.03309733 -0.00750541 0.05000535
v 0.02764240 -0.00281041 0.03982480
v 0.02724667 -0.00023224 0.04081259
v 0.04069024 -0.00152070 0.06461621
v 0.03974707 0.00004218 0.06723173
v 0.02798690 0.00250925 0.05324619
v 0.02212845 0.00104430 0.04071524
v 0.02083970 -0.00112058 0.04068960
v 0.02080911 0.00101455 0.04124541
v 0.01855711 -0.00805761 0.04654341
v 0.01826086 -0.00894002 0.04425466
v 0.01990459 -0.00717078 0.04322536
v 0.01713944 -0.00869260 0.04499284
v 0.01682802 -0.00737229 0.04624362
v 0.01905537 -0.00796463 0.04682591
v 0.01980723 0.00090366 0.04576519
v 0.01653477 -0.00738551 0.04590954
v 0.01647238 -0.00731001 0.04578198
v 0.04278195 -0.01419511 0.07634977
v 0.03240595 -0.00781420 0.05792987
v 0.04207713 -0.01329015 0.07492771
v 0.04300958 -0.01318416 0.07259883
v 0.04467373 0.00056623 0.07703643
v 0.04037741 -0.01042937 0.07941219
v 0.03774354 -0.00655579 0.07939296
v 0.03016422 -0.00885215 0.04486747
v 0.02710928 -0.00428127 0.05604784
v 0.04967178 -0.00915198 0.07317715
v 0.04962304 -0.00848784 0.07283095
v 0.04726876 -0.00772535 0.07024997
v 0.04854086 -0.01105702 0.07543021
v 0.04956749 -0.00719555 0.07522402
v 0.04961267 -0.00711206 0.07444297
v 0.04995039 -0.00847443 0.07370141
v 0.04889947 -0.00449188 0.07512804
v 0.04913522 -0.01000236 0.07682153
v 0.04759787 -0.00997189 0.07886450
v 0.04855558 -0.01010956 0.07771640
v 0.04896495 -0.00975657 0.07729607
v 0.04843943 -0.00791533 0.07799663
v 0.04863393 -0.00421383 0.07458252
v 0.04525725 -0.00386768 0.07047438
v 0.04511844 -0.01334964 0.07543831
v 0.04351496 -0.01429604 0.07736049
v 0.04372940 -0.01391238 0.07607696
v 0.04485068 -0.01333232 0.07643709
v 0.04571395 -0.01320904 0.07720307
v 0.04506394 -0.01354555 0.07932935
v 0.04456326 -0.01371524 0.07951234
v 0.04389311 -0.01427042 0.07807512
v 0.04392037 -0.01422782 0.07778086
v 0.04507845 -0.01257162 0.07988845
v 0.04751516 -0.00454299 0.07811861
v 0.04698106 -0.00165783 0.07610741
v 0.04778324 -0.01208948 0.07401702
v 0.04497239 -0.01288889 0.07343137
v 0.04289448 -0.01420014 0.07644883
v 0.04244362 -0.01467130 0.07728222
v 0.04242357 -0.01443942 0.07671324
v 0.04122573 -0.01464546 0.07697583
v 0.04158838 -0.01475384 0.07765245
v 0.04103464 -0.01456714 0.07691062
v 0.04074789 -0.01396708 0.07623192
v 0.04059224 -0.01419989 0.07666149
v 0.04180309 -0.01402137 0.07599875
v 0.04177396 -0.01353611 0.07542623
v 0.04579178 -0.00035516 0.07585066
v 0.04495555 -0.00075080 0.07413327
v 0.04382560 -0.01423759 0.07877113
v 0.04399848 -0.01323281 0.08005777
v 0.04239885 -0.01469974 0.07787168
v 0.04270209 -0.01427261 0.07925756
v 0.04122864 -0.01461947 0.07794275
v 0.04139568 -0.01397262 0.07923557
v 0.04293584 -0.01335677 0.08016180
v 0.04728348 -0.00379437 0.07805482
v 0.04546241 -0.00073121 0.07841018
v 0.04626138 -0.00125360 0.07735557
v 0.04502990 -0.00006241 0.07806295
v 0.04336948 0.00054992 0.07750758
v 0.04275115 -0.01251261 0.08028137
v 0.04308046 -0.01172183 0.08037145
v 0.04155911 -0.00889001 0.08053058
v 0.04459177 -0.00598563 0.08050993
v 0.04523781 -0.01014319 0.08004647
v 0.04539589 -0.00529754 0.07984364
v 0.04310831 -0.00961550 0.08043546
v 0.04436296 -0.00600634 0.08059242
v 0.04489404 -0.00165993 0.07944409
v 0.04490793 -0.00106974 0.07916541
v 0.04437928 -0.00433896 0.08038534
v 0.04184215 -0.01323869 0.07503535
v 0.04080078 -0.01283450 0.07541083
v 0.04014451 -0.01382274 0.07666402
v 0.04067773 -0.01273991 0.07545987
v 0.04005127 -0.01387745 0.07709016
v 0.04009857 -0.01273079 0.07636878
v 0.04017021 -0.01108100 0.07479754
v 0.04042044 -0.01129308 0.07391847
v 0.04011333 -0.01069277 0.07305902
v 0.04017158 -0.01132116 0.07523706
v 0.03984311 -0.00897855 0.07613366
v 0.04459541 -0.00282389 0.07119237
v 0.04398808 -0.00114153 0.07287313
v 0.04554174 0.00003077 0.07614667
v 0.04271703 0.00022872 0.07432983
v 0.04083805 0.00037402 0.07184430
v 0.04174029 0.00053668 0.07353335
v 0.04160129 0.00059781 0.07462600
v 0.04163674 0.00058854 0.07382429
v 0.04115862 0.00056307 0.07361477
v 0.04122365 0.00053479 0.07312844
v 0.04063237 -0.01383601 0.07845104
v 0.03997473 -0.01372858 0.07714391
v 0.04005370 -0.01344546 0.07796496
v 0.03983560 -0.01253543 0.07812905
v 0.04023652 -0.01135523 0.07699466
v 0.04027415 -0.01074622 0.07756836
v 0.04005583 -0.01159975 0.07830727
v 0.04013340 -0.01005694 0.07836704
v 0.04036267 -0.01207440 0.07928509
v 0.04140730 -0.01033399 0.08018266
v 0.04031148 -0.01305506 0.07861348
v 0.04001786 -0.00944697 0.07689822
v 0.04251206 0.00033370 0.07718276
v 0.04222840 -0.00012829 0.07780480
v 0.04072344 0.00002159 0.07615591
v 0.04070772 -0.00125355 0.07856376
v 0.04323768 0.00063694 0.07649149
v 0.04461677 0.00061186 0.07638996
v 0.04097023 0.00021559 0.07581439
v 0.04168950 0.00057238 0.07560155
v 0.04256689 -0.00277201 0.08104944
v 0.04130092 -0.00222427 0.08113442
v 0.04155928 -0.00262349 0.08118502
v 0.04331312 -0.00488513 0.08084215
v 0.04140442 -0.00292664 0.08123209
v 0.04003313 -0.00275132 0.08107453
v 0.04288603 -0.00080672 0.08015507
v 0.04347933 -0.00085326 0.07990586
v 0.04473926 -0.00125292 0.07937444
v 0.04145022 -0.00089351 0.07871054
v 0.04214258 -0.00057273 0.07951930
v 0.04147492 -0.00133213 0.08050432
v 0.04192279 -0.00076536 0.07981433
v 0.04591780 -0.00793673 0.06849965
v 0.03689913 -0.00847474 0.05576728
v 0.03866936 -0.00743495 0.05661244
v 0.03991000 -0.01033553 0.07400262
v 0.03907791 -0.00756882 0.07574517
v 0.04011011 -0.00019587 0.06742517
v 0.04164616 -0.00003216 0.07165643
v 0.04002291 0.00035036 0.07226863
v 0.03849163 -0.00791394 0.07267582
v 0.03727727 -0.00650221 0.07226177
v 0.03760580 -0.00619205 0.07439850
v 0.03668948 -0.00434387 0.07438985
v 0.03686344 -0.00506526 0.07468148
v 0.03827947 -0.00640588 0.07674076
v 0.03709102 -0.00561944 0.07579625
v 0.03676570 -0.00481247 0.07483934
v 0.03708624 -0.00315608 0.07486292
v 0.03692070 -0.00344131 0.07484225
v 0.03961047 -0.00094919 0.07596517
v 0.03658947 -0.00389352 0.07524109
v 0.03659903 -0.00385460 0.07524780
v 0.03907550 -0.00782848 0.07775062
v 0.03882977 -0.00691980 0.07698562
v 0.03813144 -0.00696543 0.07868542
v 0.03918411 -0.00864410 0.07873449
v 0.03705579 -0.00560126 0.07617999
v 0.03675181 -0.00619323 0.07829395
v 0.03769342 -0.00653276 0.07913518
v 0.03789117 -0.00672031 0.07856729
v 0.03709410 -0.00631957 0.07763569
v 0.03662585 -0.00598589 0.07772510
v 0.03764204 -0.00263600 0.07641339
v 0.03823782 -0.00226888 0.07802016
v 0.03959418 -0.00715015 0.08048225
v 0.03992846 -0.00348866 0.08119349
v 0.04034414 -0.00459978 0.08124822
v 0.03910863 -0.00327661 0.08093863
v 0.03765429 -0.00372719 0.08056595
v 0.03888016 -0.00308140 0.08076251
v 0.03702274 -0.00481432 0.08025634
v 0.04097911 -0.00142103 0.08047099
v 0.03907972 -0.00227323 0.08013281
v 0.03932709 -0.00204263 0.07987777
v 0.03864955 -0.00290411 0.08052709
v 0.03687726 -0.00292262 0.07919008
v 0.03793758 -0.00299957 0.08015123
v 0.03837525 0.00041962 0.06643044
v 0.03989033 0.00029764 0.07221637
v 0.04002726 0.00038854 0.07069993
v 0.03771028 -0.00890673 0.06793356
v 0.03569862 -0.00550435 0.06935071
v 0.03707602 -0.00246720 0.07230054
v 0.03642286 -0.00360433 0.07219115
v 0.03676046 -0.00383513 0.07406439
v 0.03618368 -0.00509828 0.07108410
v 0.03654541 -0.00505195 0.07238303
v 0.03626198 -0.00397920 0.07146767
v 0.03639518 -0.00459308 0.07571263
v 0.03657221 -0.00428022 0.07516291
v 0.03662604 -0.00479061 0.07520945
v 0.03604897 -0.00434130 0.07603973
v 0.03595900 -0.00400957 0.07628995
v 0.03664347 -0.00353659 0.07557199
v 0.03607614 -0.00415649 0.07598867
v 0.03637401 -0.00418035 0.07558674
v 0.03611422 -0.00359099 0.07632181
v 0.03608278 -0.00404106 0.07596920
v 0.03629629 -0.00384424 0.07580225
v 0.03584841 -0.00513619 0.07784763
v 0.03588714 -0.00495212 0.07739296
v 0.03619282 -0.00368418 0.07908151
v 0.03576535 -0.00474232 0.07778348
v 0.03564222 -0.00378087 0.07779559
v 0.03569099 -0.00382834 0.07813823
v 0.03596180 -0.00317597 0.07783837
v 0.03597833 -0.00314557 0.07789136
v 0.03683455 -0.00279459 0.07896120
v 0.03789438 -0.00237741 0.07811931
v 0.03737352 -0.00279440 0.07613659
v 0.03649052 -0.00302733 0.07699851
v 0.03650859 -0.00275125 0.07792537
v 0.03600208 -0.00353511 0.07854409
v 0.03603116 -0.00309799 0.07804871
v 0.03635507 -0.00284384 0.07795886
v 0.03245420 -0.00313471 0.04659363
v 0.03482908 -0.00440331 0.05025018
v 0.03244493 -0.00530867 0.04741667
v 0.03166739 -0.00767144 0.04717609
v 0.03028430 -0.00863751 0.04680364
v 0.03491801 -0.00860349 0.05451978
v 0.03016136 -0.00753151 0.04293237
v 0.02955173 -0.00868694 0.04297234
v 0.03065334 -0.00822032 0.04549658
v 0.03033047 -0.00855103 0.04473460
v 0.02799522 -0.00838930 0.04905518
v 0.03114306 -0.00835921 0.04884313
v 0.02983166 -0.00840407 0.04962532
v 0.02777717 -0.00859415 0.04853179
v 0.02927570 -0.00860120 0.04773550
v 0.03221927 -0.00583514 0.06249047
v 0.02909462 -0.00491001 0.05834559
v 0.03471972 -0.00198953 0.06626351
v 0.02894780 -0.00434673 0.05817029
v 0.02917876 -0.00367964 0.05851516
v 0.02761552 -0.00665441 0.04010170
v 0.02946478 -0.00525033 0.04122824
v 0.02717453 -0.00786070 0.04077580
v 0.02683051 -0.00927631 0.04173021
v 0.03758107 -0.00021039 0.06107980
v 0.02743122 0.00131347 0.04262088
v 0.02709042 -0.00449673 0.05599507
v 0.02722629 -0.00418552 0.05610817
v 0.02916819 0.00206379 0.05570785
v 0.02728530 0.00084433 0.05398653
v 0.02761007 0.00168337 0.05387715
v 0.02266371 -0.00970903 0.04294730
v 0.02264167 -0.00384725 0.04014575
v 0.02563698 0.00241814 0.04257209
v 0.02705477 0.00095969 0.04185333
v 0.02960116 -0.00678904 0.05691765
v 0.02456296 -0.00632008 0.05185301
v 0.02558041 -0.00563550 0.05373059
v 0.02757473 0.00305031 0.05099509
v 0.02182924 -0.00331358 0.04039944
v 0.02611342 0.00027523 0.04023541
v 0.02190235 -0.00068464 0.03981528
v 0.02252369 0.00204650 0.04121965
v 0.02354813 0.00318211 0.04569720
v 0.02349250 0.00314187 0.04530183
v 0.02435555 0.00300353 0.04773342
v 0.02365375 0.00199206 0.04960775
v 0.02521424 -0.01020357 0.04520087
v 0.02087763 -0.00693464 0.04919117
v 0.02335491 -0.00529216 0.05198702
v 0.02301490 -0.00218961 0.05199288
v 0.02159063 -0.00059740 0.04001189
v 0.02060695 0.00039031 0.04084060
v 0.02055283 0.00014433 0.04081529
v 0.02074312 0.00071713 0.04102900
v 0.02045570 0.00081663 0.04143775
v 0.02080180 0.00166612 0.04248510
v 0.02161321 0.00229423 0.04744560
v 0.02161977 0.00220936 0.04457238
v 0.02032172 0.00035740 0.04162763
v 0.02046114 0.00104132 0.04174403
v 0.01816218 -0.00945771 0.04498013
v 0.02110106 -0.01029204 0.04383269
v 0.01935057 -0.00981023 0.04465896
v 0.01792961 -0.00838902 0.04423190
v 0.01940694 -0.00888637 0.04376950
v 0.01797931 -0.00860818 0.04587020
v 0.01792314 -0.00928451 0.04474042
v 0.01781940 -0.00867648 0.04443617
v 0.01751921 -0.00836873 0.04452252
v 0.01739712 -0.00730907 0.04446581
v 0.01770297 -0.00807688 0.04433398
v 0.01714337 -0.00800057 0.04464861
v 0.01734291 -0.00889080 0.04535159
v 0.01755375 -0.00900840 0.04537888
v 0.01702014 -0.00870136 0.04535496
v 0.01724440 -0.00877976 0.04549585
v 0.01676580 -0.00818627 0.04523109
v 0.01658381 -0.00767353 0.04529770
v 0.01672135 -0.00812982 0.04564371
v 0.01862977 -0.00451668 0.04421589
v 0.01868265 -0.00544060 0.04407487
v 0.01893479 -0.00760860 0.04712582
v 0.01780791 -0.00806037 0.04630791
v 0.01985617 -0.00280352 0.04294366
v 0.01983634 -0.00062339 0.04361024
v 0.01836412 -0.00119790 0.04891362
v 0.02051419 0.00148136 0.04281007
v 0.02067209 0.00161584 0.04458257
v 0.01826580 -0.00140538 0.04625499
v 0.02272870 -0.00261876 0.05198546
v 0.01653703 -0.00681523 0.04536976
v 0.01782423 -0.00375188 0.04529063
v 0.01710168 -0.00631324 0.04488483
v 0.01580121 -0.00537962 0.04636209
v 0.01651617 -0.00683313 0.04640389
v 0.01589160 -0.00581469 0.04670619
v 0.02080557 -0.00481326 0.05034662
v 0.01841679 -0.00701095 0.04734019
v 0.01667297 -0.00510534 0.04755095
v 0.01578917 -0.00505797 0.04662054
v 0.01585291 -0.00572086 0.04672174
v 0.01626481 -0.00523818 0.04724062
v 0.02054318 0.00133214 0.04768369
v 0.01911236 -0.00256954 0.04999555
v 0.01767204 -0.00126734 0.04817156
v 0.01792132 -0.00152477 0.04865958
v 0.01749235 -0.00167388 0.04736869
v 0.01719235 -0.00199675 0.04750619
v 0.01674280 -0.00266466 0.04770173
v 0.01717764 -0.00191700 0.04780847
v 0.01746141 -0.00244978 0.04870623
v 0.01661911 -0.00298101 0.04747681
v 0.04703585 -0.01241022 0.07744799
v 0.04188035 -0.01146382 0.06665286
v 0.03847695 -0.00994011 0.06487051
v 0.03665260 -0.00914709 0.05742363
v 0.04228882 -0.01196980 0.06814331
v 0.03963761 -0.01016503 0.07045155
v 0.04185718 -0.01218431 0.07251653
v 0.04466336 0.00055933 0.07726250
v 0.04384709 0.00058591 0.07825232
v 0.04257849 -0.00041681 0.07953912
v 0.03772563 -0.00657505 0.07930638
v 0.04030209 -0.01153002 0.07930685
v 0.04029079 -0.01105060 0.07916484
v 0.03709961 -0.00488485 0.08027832
v 0.03689784 -0.00506652 0.07998908
v 0.03633715 -0.00538557 0.07886492
v 0.03624451 0.00081775 0.06529436
v 0.03761509 -0.00110483 0.07148652
v 0.03741984 -0.00135718 0.07175827
v 0.03503840 -0.00111896 0.06625005
v 0.02889859 0.00218230 0.05520018
v 0.02957509 -0.00901592 0.04522329
v 0.02358747 -0.00798571 0.04184010
v 0.02633430 -0.00610798 0.03966732
v 0.02392563 -0.00279948 0.03955384
v 0.02720641 -0.00162514 0.04000597
v 0.02328874 -0.01054175 0.04405137
v 0.02530485 -0.01023828 0.04504849
v 0.03483984 0.00152742 0.06014594
v 0.03210835 0.00222051 0.05709086
v 0.02831672 0.00282535 0.05265088
v 0.02558785 0.00252092 0.04304230
v 0.02421431 -0.01056314 0.04319785
v 0.02207060 -0.01005416 0.04327413
v 0.01932680 -0.00942367 0.04406398
v 0.01964023 -0.00981523 0.04424791
v 0.02259404 -0.01032684 0.04329033
v 0.01577754 -0.00518049 0.04691912
v 0.01578799 -0.00540977 0.04647416
v 0.01579001 -0.00501126 0.04690353
v 0.01583770 -0.00494854 0.04704117
vn 0.605939 -0.791589 0.078896
vn 0.646527 -0.301526 0.700775
vn 0.288727 -0.957148 -0.022448
vn 0.348465 -0.873126 -0.340917
vn -0.596463 -0.793398 -0.121455
vn -0.208351 -0.618477 0.757678
vn 0.239446 0.404744 0.882524
vn 0.534217 0.766110 -0.357335
vn -0.971685 0.171430 -0.162605
vn -0.641261 -0.687075 0.341631
vn -0.528105 -0.205804 0.823863
vn -0.875832 -0.462160 0.139021
vn -0.909502 0.400993 0.109593
vn -0.985027 0.095143 -0.143768
vn -0.393520 -0.864107 -0.313785
vn -0.518268 0.830259 0.205105
vn -0.512405 0.029159 0.858249
vn -0.685072 0.422649 0.593333
vn 0.776333 -0.447313 -0.444093
vn 0.038020 0.992448 0.116626
vn -0.846913 -0.191071 0.496216
vn 0.447960 -0.796013 -0.407057
vn 0.879014 0.076330 -0.470647
vn -0.341508 -0.402476 -0.849344
vn 0.763754 0.185478 -0.618286
vn -0.093103 -0.913880 0.395165
vn -0.070009 -0.997535 -0.004802
vn -0.531563 0.490921 0.690245
vn -0.576739 -0.053352 0.815185
vn -0.568398 0.339906 0.749258
vn -0.640396 -0.106472 -0.760629
vn -0.943284 -0.331957 -0.004471
vn -0.963631 0.215672 -0.157801
vn -0.136144 -0.808570 0.572433
vn -0.711610 0.463833 -0.527703
vn -0.279077 -0.922794 -0.265646
vn 0.464748 0.751571 0.468135
vn -0.592242 -0.731291 0.338325
vn 0.295920 -0.926942 0.230672
vn -0.211650 -0.499430 -0.840103
vn 0.192265 -0.943009 0.271602
vn -0.033734 0.991167 0.128261
vn 0.502441 0.833323 -0.230490
vn 0.712932 -0.537843 -0.449948
vn 0.554835 -0.827971 0.081376
vn 0.892974 -0.444787 0.069005
vn 0.911612 0.058819 0.406822
vn 0.468094 -0.878745 -0.093246
vn 0.499509 -0.046513 0.865059
vn 0.192133 -0.089113 0.977315
vn 0.864007 0.338006 0.373153
vn 0.236964 -0.934559 -0.265420
vn 0.174908 -0.965829 0.191265
vn -0.206163 -0.864175 0.459019
vn -0.385271 -0.920413 -0.066382
vn -0.414558 -0.228130 0.880965
vn -0.643589 -0.704287 -0.299621
vn -0.989070 0.062303 -0.133638
vn -0.995326 0.075679 0.059994
vn -0.949357 -0.314006 0.011008
vn -0.973863 0.143040 0.176441
vn -0.838071 -0.512713 -0.186445
vn -0.455899 -0.322313 0.829621
vn -0.745533 -0.650531 0.144875
vn 0.078922 0.991681 -0.101689
vn 0.529229 0.526995 0.664976
vn -0.471272 0.858799 0.200913
vn -0.189462 0.588789 0.785768
vn 0.713739 -0.487434 -0.502976
vn 0.606228 -0.634409 -0.479597
vn -0.337545 0.935625 0.103291
vn -0.955277 0.241998 0.169952
vn -0.623948 0.758085 -0.189726
vn -0.611879 -0.707277 -0.354066
vn -0.564782 0.762860 0.314747
vn 0.020178 -0.136892 0.990380
vn -0.302346 -0.172577 0.937445
vn -0.816887 -0.255413 0.517164
vn -0.550270 0.353854 0.756300
vn 0.042100 0.997136 0.062824
vn -0.918814 0.123470 0.374882
vn -0.911630 -0.148826 0.383120
vn -0.980269 0.059429 -0.188522
vn -0.383911 0.915837 0.117703
vn -0.671652 0.551424 0.494788
vn -0.755105 0.531711 0.383536
vn 0.646122 -0.563590 -0.514678
vn 0.242100 0.024606 -0.969939
vn 0.753489 0.415517 -0.509509
vn 0.735429 0.574023 -0.360058
vn 0.522784 0.829347 -0.197181
vn -0.381507 0.849097 0.365358
vn -0.276416 0.507391 -0.816180
vn -0.855035 -0.125817 -0.503075
vn -0.397973 0.610154 -0.685077
vn -0.200608 -0.684856 0.700521
vn -0.429472 -0.470320 -0.770943
vn -0.406044 -0.307354 -0.860617
vn -0.660158 -0.546137 -0.515680
vn -0.442187 -0.504740 0.741423
vn -0.254728 -0.678929 0.688600
vn -0.781520 0.613099 -0.115480
vn -0.783454 -0.457781 0.420281
vn -0.895684 -0.427178 0.123572
vn -0.068112 -0.871626 -0.485415
vn -0.505430 -0.828298 0.241789
vn -0.403611 -0.851371 -0.335060
vn -0.588554 -0.796973 -0.135787
vn 0.258388 0.965025 0.044299
vn -0.878060 -0.478025 0.022444
vn -0.550231 -0.402286 0.731718
vn 0.748824 -0.657212 -0.085640
vn -0.623421 -0.140325 0.769192
vn 0.918551 -0.197551 -0.342399
vn 0.791137 0.196038 -0.579371
vn 0.723812 0.395610 -0.565322
vn 0.791039 -0.611347 0.022624
vn 0.966578 0.137991 0.216067
vn 0.969631 0.241046 0.041378
vn 0.999262 0.037120 0.009878
vn 0.951423 0.295506 -0.086430
vn 0.897784 -0.366820 0.243775
vn 0.586565 0.011238 0.809824
vn 0.756778 -0.073935 0.649477
vn 0.836344 -0.169087 0.521477
vn 0.703438 0.140748 0.696682
vn 0.727909 0.496114 -0.473307
vn 0.773814 0.461979 -0.433345
vn 0.392007 -0.919035 -0.041297
vn 0.377701 -0.869307 -0.318821
vn 0.417868 -0.904708 0.083009
vn 0.437058 -0.870917 -0.224685
vn 0.483779 -0.824424 -0.293738
vn 0.621267 -0.677872 0.393087
vn 0.288605 -0.767461 0.572460
vn 0.331442 -0.943209 0.022411
vn 0.367696 -0.915774 -0.161735
vn 0.490103 -0.328113 0.807553
vn 0.678609 0.183479 0.711214
vn 0.790163 0.612754 0.013225
vn 0.611630 -0.645153 -0.457916
vn 0.279942 -0.917616 -0.282158
vn 0.370577 -0.891201 -0.261598
vn 0.179692 -0.953621 -0.241492
vn 0.066758 -0.864795 -0.497668
vn -0.037841 -0.895757 -0.442931
vn -0.034577 -0.989289 0.141817
vn -0.622734 -0.734461 -0.269758
vn -0.381211 -0.653085 -0.654338
vn -0.353561 -0.799183 -0.486107
vn -0.139857 -0.772115 -0.619902
vn -0.500906 -0.661707 -0.557886
vn 0.626054 0.642935 -0.441238
vn 0.519325 0.695468 -0.496615
vn 0.282946 -0.932883 0.222871
vn 0.254897 -0.387091 0.886109
vn 0.028674 -0.980551 0.194160
vn 0.039125 -0.870667 0.490314
vn -0.320393 -0.876827 0.358502
vn -0.561871 -0.535756 0.630290
vn -0.066535 -0.419627 0.905255
vn 0.735540 0.351418 0.579212
vn 0.759723 0.480030 0.438624
vn 0.766641 0.581876 0.271444
vn 0.673468 0.669862 0.312613
vn -0.285520 0.936803 0.202185
vn -0.127202 -0.115080 0.985178
vn 0.020439 -0.060143 0.997981
vn -0.168108 -0.177111 0.969727
vn 0.480925 0.013990 0.876650
vn 0.195088 -0.059778 0.978962
vn 0.584736 0.133570 0.800152
vn 0.123607 -0.078126 0.989251
vn 0.139961 -0.091909 0.985882
vn 0.551009 0.218822 0.805299
vn 0.673181 0.319558 0.666866
vn 0.511959 0.171617 0.841692
vn -0.434734 -0.674218 -0.597023
vn -0.636979 -0.441549 -0.631896
vn -0.757981 -0.398408 -0.516464
vn -0.735830 -0.377502 -0.562180
vn -0.733987 -0.677953 -0.040531
vn -0.930231 -0.120584 -0.346598
vn -0.951471 -0.292864 -0.094519
vn -0.787818 -0.606083 -0.109571
vn -0.851479 -0.524385 0.001903
vn -0.999477 0.008433 0.031217
vn -0.915620 -0.364427 0.169801
vn 0.627660 0.679947 -0.379097
vn 0.449563 0.703235 -0.550775
vn 0.656193 0.753381 -0.042763
vn 0.229832 0.938919 -0.256142
vn 0.184093 0.967969 -0.170719
vn 0.341984 0.915761 -0.210782
vn 0.007830 0.998250 -0.058619
vn 0.011007 0.998455 -0.054459
vn -0.070917 0.996205 -0.050464
vn -0.034257 0.994400 -0.099980
vn -0.679153 -0.545671 0.490912
vn -0.870831 -0.464384 0.161251
vn -0.817048 -0.377166 0.436094
vn -0.991299 0.051349 0.121201
vn -0.994537 0.093181 -0.047041
vn -0.999678 -0.025356 -0.000910
vn -0.970859 0.239594 0.005190
vn -0.914871 -0.386998 -0.115079
vn -0.558974 -0.246251 0.791775
vn -0.346859 -0.148976 0.926010
vn -0.738384 -0.373960 0.561198
vn -0.931600 -0.359664 -0.052576
vn -0.379711 0.823543 0.421422
vn -0.397621 0.820981 0.409742
vn -0.539038 0.803050 0.254066
vn -0.445176 0.851193 0.278010
vn 0.012589 0.997514 0.069329
vn 0.203506 0.950989 -0.232820
vn -0.368994 0.895963 0.247171
vn -0.329533 0.917807 0.221446
vn 0.299445 0.100918 0.948761
vn -0.033857 0.210184 0.977075
vn 0.133078 0.155729 0.978795
vn 0.153882 -0.053960 0.986615
vn 0.039193 -0.064117 0.997172
vn -0.263995 0.466975 0.843944
vn 0.112768 0.715977 0.688956
vn 0.432317 0.322002 0.842269
vn 0.445596 0.298283 0.844080
vn -0.496813 0.846575 0.191016
vn -0.454103 0.881047 0.132464
vn -0.118090 0.719147 0.684749
vn -0.325913 0.861711 0.388890
vn 0.836577 -0.067363 -0.543692
vn 0.500434 -0.741461 -0.446991
vn 0.758550 -0.380094 -0.529274
vn -0.831542 -0.539829 0.130856
vn -0.861907 -0.469132 0.192434
vn 0.633493 0.726187 -0.267096
vn 0.360038 0.916297 -0.175419
vn -0.463362 0.874986 0.140338
vn -0.819803 -0.521915 0.235644
vn -0.817093 -0.526587 0.234661
vn -0.745825 -0.633500 0.205966
vn -0.982313 -0.162873 0.092379
vn -0.929791 -0.366022 -0.038950
vn -0.500811 -0.838116 -0.216217
vn -0.727088 -0.686035 -0.026457
vn -0.952293 -0.230891 -0.199569
vn -0.743982 0.643188 0.181107
vn -0.905602 0.424071 0.007006
vn -0.685023 0.694299 0.220664
vn -0.894827 0.341098 -0.287988
vn -0.875401 0.393157 -0.281248
vn -0.776844 -0.498994 -0.384082
vn -0.866558 -0.473188 -0.158654
vn -0.824955 -0.563389 -0.045188
vn -0.830188 -0.548593 -0.099166
vn -0.407066 -0.878376 -0.250506
vn -0.627768 -0.762135 0.158296
vn -0.500040 -0.864069 0.057832
vn -0.672451 -0.699912 -0.240690
vn -0.409401 -0.889051 -0.204888
vn -0.681854 -0.731030 -0.025902
vn -0.617000 0.776085 0.130395
vn -0.444421 0.888649 0.113102
vn -0.289537 -0.277642 0.916015
vn -0.125709 0.045404 0.991028
vn -0.006983 -0.117216 0.993082
vn -0.292559 0.229348 0.928336
vn -0.399020 0.282190 0.872440
vn -0.357634 0.531670 0.767740
vn -0.758279 -0.244569 0.604317
vn -0.407848 0.772219 0.487173
vn -0.458838 0.713179 0.529946
vn -0.385996 0.887312 0.252358
vn -0.397325 0.601370 0.693172
vn -0.516015 0.601102 0.610250
vn -0.476220 0.664387 0.576025
vn 0.245156 0.969384 -0.013884
vn -0.501143 0.801933 0.325206
vn 0.205995 0.976745 -0.059462
vn -0.691375 -0.668558 0.273918
vn -0.822286 -0.454712 0.342174
vn -0.888252 0.338272 0.310774
vn -0.915331 0.380646 0.131448
vn -0.993319 0.005093 0.115290
vn -0.922968 -0.240701 0.300322
vn -0.959040 -0.206533 0.193873
vn -0.955255 0.108889 0.275012
vn -0.800437 -0.505644 -0.321909
vn -0.955920 -0.049367 -0.289446
vn -0.920508 -0.131794 -0.367826
vn -0.917812 -0.267117 -0.293716
vn -0.919797 0.227628 -0.319624
vn -0.791349 0.501372 -0.349846
vn -0.863259 -0.021242 -0.504314
vn -0.861389 -0.077780 -0.501955
vn -0.677173 0.669473 -0.305358
vn -0.806583 0.248466 -0.536366
vn -0.807814 0.345226 -0.477761
vn -0.878328 -0.477039 -0.031212
vn -0.914601 -0.322877 -0.243424
vn -0.745102 0.467600 0.475577
vn -0.993131 -0.115774 -0.016923
vn -0.922545 0.385838 0.006270
vn -0.941987 -0.047641 0.332250
vn -0.853800 0.487740 -0.182031
vn -0.579083 0.776172 -0.249438
vn -0.410020 0.876341 0.252804
vn -0.263252 0.960802 -0.086936
vn -0.525425 0.841981 -0.122465
vn -0.542211 0.791764 -0.281278
vn -0.343788 0.937779 -0.048788
vn -0.837360 0.386702 0.386381
vn -0.731474 0.653417 0.194914
vn -0.571397 0.815717 -0.090065
vn 0.809460 0.398012 -0.431696
vn 0.853806 0.127223 -0.504807
vn 0.795713 -0.251539 -0.550971
vn 0.878041 -0.330672 -0.345976
vn 0.301375 -0.941298 0.152093
vn 0.226285 -0.942075 -0.247568
vn 0.861990 -0.249772 -0.441120
vn 0.561316 -0.449206 -0.695081
vn 0.776566 -0.602720 -0.183506
vn 0.873320 -0.401770 -0.275486
vn -0.412890 -0.875681 0.250408
vn 0.290575 -0.948123 -0.128950
vn 0.006367 -0.998864 -0.047217
vn -0.082553 -0.896568 0.435144
vn 0.059027 -0.992119 0.110526
vn -0.737976 -0.497777 0.455641
vn -0.754720 -0.484221 0.442638
vn -0.858864 0.178485 0.480100
vn -0.795008 -0.218061 0.566049
vn -0.803063 0.212939 0.556550
vn 0.390876 -0.193558 -0.899862
vn 0.655017 -0.185306 -0.732540
vn 0.414020 -0.566507 -0.712500
vn 0.156062 -0.744620 -0.648988
vn 0.595975 0.760229 -0.258582
vn 0.683677 0.643846 -0.343581
vn -0.655015 -0.407439 0.636355
vn -0.658354 0.296439 0.691877
vn -0.750570 0.372066 0.546087
vn -0.676376 0.330712 0.658137
vn -0.666400 0.512110 0.541898
vn -0.309307 -0.389869 -0.867370
vn -0.392853 -0.348056 -0.851189
vn 0.278246 0.774914 -0.567528
vn 0.488182 0.668757 -0.560751
vn -0.528921 -0.775636 0.344430
vn -0.329978 -0.854040 0.402157
vn -0.600084 -0.529766 0.599372
vn -0.316999 0.895653 0.311958
vn -0.710266 -0.129731 -0.691876
vn 0.148714 0.439995 -0.885601
vn -0.040048 0.332348 -0.942306
vn -0.073063 0.825276 -0.559983
vn 0.063809 0.997029 -0.043136
vn -0.237373 0.957870 -0.161679
vn -0.228020 0.953514 0.197026
vn -0.454553 0.742270 0.492358
vn -0.033665 -0.897608 0.439508
vn -0.233800 -0.790790 0.565676
vn -0.523910 -0.530147 0.666680
vn -0.543018 0.367659 0.754956
vn -0.447269 -0.156065 -0.880678
vn -0.421345 0.449464 -0.787687
vn -0.906692 -0.076025 -0.414886
vn -0.313468 0.586044 -0.747188
vn -0.676596 0.613210 -0.407666
vn -0.425152 0.892833 -0.148645
vn -0.439856 0.875897 0.198322
vn -0.448175 0.893061 -0.039772
vn -0.966981 0.126258 -0.221374
vn -0.786598 0.545356 -0.289571
vn -0.224871 -0.836979 0.498899
vn -0.184199 -0.982764 0.015657
vn -0.112084 -0.888694 0.444591
vn -0.417984 -0.144113 -0.896951
vn -0.347106 -0.287958 -0.892523
vn -0.133555 -0.708185 0.693280
vn -0.472692 -0.685657 -0.553568
vn -0.566318 -0.370864 -0.736032
vn -0.570060 -0.363317 -0.736907
vn -0.522743 0.074557 -0.849224
vn -0.487434 -0.051544 -0.871637
vn -0.675935 -0.138671 -0.723798
vn -0.598687 -0.800883 -0.012624
vn -0.190597 -0.744634 0.639682
vn -0.784512 -0.619366 0.030430
vn -0.381545 -0.575082 0.723674
vn -0.851569 -0.335652 -0.402702
vn -0.879112 -0.106123 -0.464650
vn -0.558606 -0.496279 0.664580
vn -0.736822 0.051917 -0.674090
vn -0.501290 0.144936 -0.853055
vn -0.388085 -0.697293 0.602637
vn -0.264825 -0.606318 0.749831
vn -0.830469 0.029088 -0.556305
vn -0.890360 0.212611 -0.402561
vn -0.493373 0.491851 0.717402
vn -0.809897 0.579587 -0.090254
vn -0.614317 0.789025 0.007286
vn -0.825559 0.392931 -0.405041
vn -0.539255 0.291538 0.790069
vn -0.726691 0.069215 -0.683469
vn -0.750850 0.309175 -0.583640
vn -0.626780 0.215605 -0.748773
vn -0.686156 0.250832 -0.682842
vn -0.460903 -0.495701 0.736104
vn -0.474775 -0.475219 0.740780
vn -0.520816 -0.472222 0.711166
vn -0.454950 -0.496527 0.739244
vn -0.507861 -0.392750 0.766697
vn -0.990757 0.101983 -0.089445
vn -0.952064 -0.305247 0.019980
vn -0.585652 -0.184463 0.789294
vn -0.570771 0.726655 0.382352
vn -0.579615 -0.041212 0.813848
vn -0.692130 0.697094 0.187127
vn -0.689497 0.396808 0.605919
vn -0.740840 0.442349 -0.505453
vn -0.782845 0.491426 -0.381648
vn -0.845527 0.254990 0.469109
vn -0.824105 0.565568 0.031348
vn -0.683850 0.067914 0.726455
vn -0.883995 0.439650 -0.158935
vn 0.645708 -0.759309 0.080690
vn -0.479733 -0.874723 0.068666
vn -0.491377 -0.862377 0.121882
vn 0.221556 -0.925994 -0.305691
vn -0.624308 -0.774093 -0.104973
vn -0.588326 -0.808108 -0.028893
vn -0.579084 -0.782037 -0.230392
vn 0.264064 0.960829 0.084124
vn -0.160188 0.942723 0.292597
vn -0.149396 0.820741 0.551420
vn -0.813848 -0.574956 -0.084122
vn -0.981276 0.033077 0.189743
vn -0.956586 0.068761 0.283224
vn -0.457014 -0.131891 0.879627
vn -0.548455 -0.464736 0.695138
vn -0.796487 -0.464401 0.387221
vn -0.612116 0.661541 0.433218
vn -0.630218 0.693338 0.349438
vn -0.695304 0.667782 0.265745
vn -0.765359 0.410994 0.495287
vn -0.216572 0.939124 0.266725
vn 0.271605 -0.953154 0.133150
vn -0.358524 -0.398755 -0.844070
vn 0.304669 -0.042046 -0.951530
vn 0.004835 0.041421 -0.999130
vn 0.618034 0.362197 -0.697745
vn -0.095786 -0.874265 0.475905
vn 0.229558 -0.943159 0.240320
vn 0.217891 0.975205 0.038719
vn -0.014904 0.985061 0.171560
vn -0.201858 0.939141 0.277971
vn 0.257569 0.947505 -0.189451
vn 0.132864 -0.892610 -0.430807
vn -0.319684 -0.425724 -0.846499
vn -0.347806 -0.527932 -0.774802
vn -0.336305 -0.836681 -0.432277
vn -0.190854 -0.637461 -0.746470
vn -0.950396 0.200166 0.238077
vn -0.972185 -0.219950 -0.080487
vn -0.974768 0.187666 0.120867
vn -0.757221 0.009976 0.653083
f 44//44 120//120 46//46
f 114//114 120//120 44//44
f 120//120 114//114 115//115
f 115//115 114//114 44//44
f 115//115 127//127 120//120
f 120//120 122//122 46//46
f 44//44 141//141 232//232
f 232//232 115//115 44//44
f 115//115 232//232 116//116
f 45//45 129//129 141//141
f 141//141 44//44 117//117
f 141//141 117//117 45//45
f 44//44 46//46 117//117
f 46//46 1//1 117//117
f 46//46 122//122 1//1
f 122//122 429//429 1//1
f 1//1 45//45 117//117
f 122//122 2//2 429//429
f 122//122 120//120 47//47
f 120//120 118//118 47//47
f 119//119 118//118 120//120
f 47//47 118//118 51//51
f 127//127 121//121 120//120
f 121//121 51//51 118//118
f 121//121 118//118 119//119
f 121//121 119//119 120//120
f 121//121 127//127 51//51
f 2//2 134//134 429//429
f 47//47 125//125 122//122
f 125//125 2//2 122//122
f 124//124 123//123 2//2
f 2//2 125//125 124//124
f 125//125 47//47 124//124
f 47//47 123//123 124//124
f 47//47 126//126 123//123
f 49//49 2//2 170//170
f 51//51 126//126 47//47
f 51//51 139//139 126//126
f 4//4 141//141 142//142
f 128//128 127//127 116//116
f 127//127 115//115 116//116
f 116//116 232//232 128//128
f 129//129 142//142 141//141
f 142//142 52//52 4//4
f 129//129 52//52 142//142
f 129//129 131//131 52//52
f 48//48 130//130 143//143
f 130//130 48//48 137//137
f 105//105 52//52 143//143
f 52//52 131//131 143//143
f 108//108 36//36 107//107
f 105//105 107//107 36//36
f 3//3 130//130 137//137
f 143//143 130//130 144//144
f 130//130 3//3 144//144
f 129//129 45//45 1//1
f 129//129 1//1 131//131
f 429//429 133//133 132//132
f 133//133 429//429 48//48
f 132//132 48//48 143//143
f 133//133 48//48 132//132
f 1//1 429//429 132//132
f 131//131 132//132 143//143
f 1//1 132//132 131//131
f 127//127 140//140 51//51
f 128//128 153//153 127//127
f 153//153 140//140 127//127
f 140//140 153//153 191//191
f 3//3 137//137 136//136
f 137//137 48//48 136//136
f 429//429 134//134 48//48
f 134//134 135//135 48//48
f 161//161 135//135 156//156
f 48//48 135//135 155//155
f 48//48 155//155 136//136
f 136//136 155//155 3//3
f 135//135 158//158 155//155
f 158//158 53//53 155//155
f 53//53 3//3 155//155
f 49//49 138//138 2//2
f 2//2 138//138 134//134
f 138//138 49//49 50//50
f 135//135 134//134 138//138
f 135//135 138//138 156//156
f 138//138 50//50 156//156
f 161//161 50//50 167//167
f 156//156 50//50 161//161
f 51//51 162//162 139//139
f 51//51 163//163 162//162
f 140//140 164//164 51//51
f 51//51 164//164 163//163
f 164//164 140//140 191//191
f 164//164 191//191 163//163
f 165//165 191//191 37//37
f 163//163 191//191 165//165
f 50//50 49//49 171//171
f 50//50 171//171 168//168
f 171//171 173//173 168//168
f 167//167 50//50 168//168
f 170//170 2//2 123//123
f 170//170 123//123 172//172
f 126//126 139//139 172//172
f 126//126 172//172 123//123
f 170//170 172//172 177//177
f 172//172 139//139 175//175
f 172//172 175//175 177//177
f 4//4 70//70 69//69
f 70//70 233//233 234//234
f 70//70 234//234 69//69
f 69//69 141//141 4//4
f 232//232 141//141 69//69
f 234//234 232//232 69//69
f 232//232 317//317 128//128
f 317//317 316//316 128//128
f 316//316 90//90 128//128
f 38//38 433//433 430//430
f 433//433 108//108 434//434
f 433//433 434//434 430//430
f 108//108 435//435 434//434
f 90//90 237//237 128//128
f 108//108 107//107 435//435
f 435//435 57//57 434//434
f 107//107 57//57 435//435
f 144//144 3//3 53//53
f 144//144 53//53 157//157
f 145//145 105//105 143//143
f 145//145 143//143 144//144
f 145//145 144//144 146//146
f 147//147 144//144 157//157
f 145//145 107//107 105//105
f 107//107 145//145 151//151
f 146//146 144//144 147//147
f 146//146 147//147 55//55
f 146//146 151//151 145//145
f 146//146 55//55 148//148
f 159//159 55//55 147//147
f 10//10 5//5 55//55
f 10//10 55//55 159//159
f 151//151 146//146 149//149
f 151//151 149//149 57//57
f 5//5 150//150 55//55
f 55//55 149//149 148//148
f 148//148 149//149 146//146
f 150//150 149//149 55//55
f 149//149 181//181 179//179
f 180//180 181//181 149//149
f 150//150 180//180 149//149
f 180//180 150//150 5//5
f 5//5 182//182 180//180
f 10//10 182//182 5//5
f 107//107 178//178 57//57
f 57//57 178//178 152//152
f 178//178 107//107 151//151
f 178//178 151//151 152//152
f 57//57 152//152 151//151
f 149//149 179//179 57//57
f 128//128 154//154 153//153
f 154//154 8//8 153//153
f 8//8 154//154 190//190
f 8//8 190//190 189//189
f 189//189 154//154 128//128
f 154//154 189//189 190//190
f 153//153 8//8 191//191
f 191//191 8//8 216//216
f 65//65 216//216 192//192
f 216//216 8//8 192//192
f 157//157 158//158 147//147
f 53//53 158//158 157//157
f 147//147 158//158 159//159
f 158//158 54//54 159//159
f 54//54 158//158 160//160
f 158//158 6//6 160//160
f 135//135 161//161 158//158
f 161//161 6//6 158//158
f 56//56 6//6 161//161
f 6//6 56//56 160//160
f 160//160 159//159 54//54
f 10//10 159//159 160//160
f 160//160 56//56 207//207
f 199//199 10//10 160//160
f 207//207 11//11 209//209
f 207//207 209//209 160//160
f 56//56 161//161 208//208
f 161//161 167//167 208//208
f 11//11 207//207 208//208
f 207//207 56//56 208//208
f 208//208 63//63 11//11
f 37//37 191//191 436//436
f 109//109 191//191 216//216
f 191//191 109//109 436//436
f 165//165 37//37 66//66
f 165//165 66//66 163//163
f 166//166 67//67 437//437
f 437//437 436//436 166//166
f 437//437 37//37 436//436
f 166//166 109//109 216//216
f 436//436 109//109 166//166
f 67//67 438//438 437//437
f 208//208 167//167 168//168
f 174//174 171//171 170//170
f 170//170 171//171 49//49
f 173//173 171//171 174//174
f 208//208 168//168 169//169
f 168//168 173//173 169//169
f 173//173 76//76 169//169
f 76//76 173//173 174//174
f 170//170 177//177 219//219
f 175//175 219//219 177//177
f 219//219 7//7 220//220
f 219//219 220//220 221//221
f 139//139 162//162 175//175
f 162//162 176//176 175//175
f 175//175 176//176 66//66
f 162//162 163//163 66//66
f 162//162 66//66 176//176
f 219//219 175//175 7//7
f 7//7 226//226 225//225
f 227//227 226//226 7//7
f 175//175 227//227 7//7
f 66//66 37//37 225//225
f 66//66 225//225 226//226
f 175//175 66//66 227//227
f 226//226 227//227 66//66
f 437//437 438//438 225//225
f 321//321 233//233 432//432
f 38//38 430//430 106//106
f 430//430 434//434 431//431
f 430//430 431//431 106//106
f 106//106 281//281 351//351
f 434//434 281//281 431//431
f 431//431 281//281 106//106
f 8//8 189//189 237//237
f 189//189 128//128 237//237
f 238//238 237//237 91//91
f 8//8 237//237 238//238
f 57//57 179//179 184//184
f 179//179 181//181 184//184
f 184//184 185//185 57//57
f 57//57 186//186 434//434
f 184//184 186//186 185//185
f 185//185 186//186 57//57
f 235//235 186//186 184//184
f 235//235 281//281 434//434
f 235//235 434//434 186//186
f 8//8 238//238 194//194
f 194//194 238//238 193//193
f 183//183 180//180 58//58
f 182//182 200//200 180//180
f 200//200 58//58 180//180
f 10//10 200//200 182//182
f 181//181 180//180 183//183
f 181//181 183//183 184//184
f 183//183 59//59 184//184
f 59//59 187//187 184//184
f 203//203 187//187 59//59
f 184//184 187//187 203//203
f 203//203 59//59 9//9
f 59//59 183//183 9//9
f 9//9 183//183 203//203
f 183//183 58//58 203//203
f 58//58 204//204 203//203
f 184//184 203//203 204//204
f 235//235 184//184 188//188
f 184//184 204//204 188//188
f 235//235 188//188 281//281
f 254//254 64//64 188//188
f 188//188 64//64 236//236
f 195//195 71//71 65//65
f 71//71 218//218 65//65
f 71//71 217//217 218//218
f 217//217 71//71 213//213
f 213//213 71//71 239//239
f 8//8 194//194 192//192
f 192//192 194//194 65//65
f 194//194 195//195 65//65
f 196//196 195//195 194//194
f 71//71 197//197 239//239
f 197//197 194//194 198//198
f 198//198 194//194 193//193
f 239//239 193//193 280//280
f 197//197 198//198 239//239
f 198//198 193//193 239//239
f 197//197 71//71 194//194
f 71//71 195//195 196//196
f 71//71 196//196 194//194
f 160//160 209//209 201//201
f 160//160 201//201 199//199
f 209//209 11//11 201//201
f 199//199 201//201 10//10
f 204//204 58//58 202//202
f 11//11 202//202 201//201
f 201//201 200//200 10//10
f 58//58 200//200 201//201
f 202//202 58//58 201//201
f 202//202 61//61 60//60
f 202//202 205//205 204//204
f 60//60 205//205 202//202
f 205//205 60//60 204//204
f 11//11 441//441 202//202
f 202//202 441//441 61//61
f 204//204 60//60 62//62
f 61//61 110//110 60//60
f 60//60 110//110 439//439
f 256//256 439//439 255//255
f 62//62 60//60 256//256
f 60//60 439//439 256//256
f 61//61 441//441 110//110
f 110//110 441//441 440//440
f 440//440 441//441 11//11
f 11//11 63//63 111//111
f 204//204 210//210 188//188
f 206//206 210//210 204//204
f 62//62 206//206 204//204
f 210//210 254//254 188//188
f 206//206 254//254 210//210
f 206//206 253//253 254//254
f 62//62 253//253 206//206
f 62//62 255//255 260//260
f 62//62 260//260 253//253
f 63//63 443//443 111//111
f 64//64 254//254 15//15
f 254//254 253//253 260//260
f 254//254 260//260 15//15
f 62//62 256//256 255//255
f 166//166 228//228 67//67
f 228//228 229//229 67//67
f 166//166 215//215 65//65
f 65//65 215//215 216//216
f 215//215 166//166 216//216
f 212//212 228//228 166//166
f 213//213 211//211 166//166
f 217//217 166//166 218//218
f 218//218 166//166 65//65
f 213//213 166//166 217//217
f 214//214 212//212 213//213
f 213//213 212//212 211//211
f 211//211 212//212 166//166
f 214//214 228//228 212//212
f 76//76 174//174 267//267
f 174//174 170//170 222//222
f 174//174 222//222 267//267
f 443//443 63//63 265//265
f 63//63 208//208 169//169
f 63//63 169//169 265//265
f 7//7 225//225 230//230
f 267//267 222//222 219//219
f 222//222 170//170 219//219
f 267//267 219//219 266//266
f 219//219 223//223 266//266
f 223//223 220//220 266//266
f 221//221 223//223 219//219
f 220//220 223//223 221//221
f 230//230 68//68 7//7
f 68//68 224//224 7//7
f 68//68 272//272 224//224
f 220//220 224//224 266//266
f 224//224 220//220 7//7
f 68//68 230//230 438//438
f 230//230 225//225 438//438
f 231//231 438//438 67//67
f 68//68 438//438 272//272
f 272//272 438//438 231//231
f 228//228 214//214 229//229
f 229//229 214//214 84//84
f 229//229 231//231 67//67
f 272//272 231//231 229//229
f 84//84 272//272 229//229
f 87//87 234//234 233//233
f 234//234 317//317 232//232
f 90//90 316//316 341//341
f 90//90 340//340 237//237
f 340//340 43//43 91//91
f 340//340 91//91 237//237
f 281//281 241//241 282//282
f 20//20 80//80 280//280
f 80//80 279//279 280//280
f 279//279 239//239 280//280
f 445//445 446//446 279//279
f 446//446 239//239 279//279
f 20//20 280//280 278//278
f 280//280 193//193 238//238
f 278//278 238//238 91//91
f 280//280 238//238 278//278
f 281//281 242//242 241//241
f 242//242 12//12 241//241
f 244//244 12//12 246//246
f 12//12 244//244 243//243
f 12//12 243//243 287//287
f 287//287 243//243 288//288
f 239//239 447//447 213//213
f 446//446 447//447 239//239
f 240//240 64//64 242//242
f 240//240 242//242 281//281
f 240//240 281//281 188//188
f 64//64 240//240 236//236
f 236//236 240//240 188//188
f 246//246 64//64 257//257
f 257//257 64//64 245//245
f 64//64 246//246 242//242
f 242//242 246//246 12//12
f 244//244 246//246 289//289
f 244//244 289//289 291//291
f 246//246 74//74 289//289
f 243//243 244//244 247//247
f 243//243 247//247 290//290
f 14//14 290//290 251//251
f 296//296 291//291 289//289
f 291//291 290//290 247//247
f 291//291 247//247 244//244
f 296//296 290//290 291//291
f 299//299 251//251 290//290
f 248//248 73//73 310//310
f 288//288 243//243 72//72
f 243//243 285//285 72//72
f 290//290 14//14 243//243
f 243//243 14//14 285//285
f 14//14 13//13 285//285
f 14//14 251//251 13//13
f 251//251 249//249 13//13
f 252//252 249//249 251//251
f 299//299 294//294 251//251
f 73//73 248//248 294//294
f 248//248 249//249 294//294
f 294//294 249//249 252//252
f 294//294 252//252 251//251
f 299//299 297//297 294//294
f 294//294 297//297 73//73
f 73//73 297//297 310//310
f 213//213 310//310 263//263
f 213//213 263//263 75//75
f 310//310 250//250 248//248
f 213//213 250//250 310//310
f 250//250 213//213 447//447
f 250//250 447//447 248//248
f 439//439 259//259 255//255
f 259//259 260//260 255//255
f 245//245 64//64 15//15
f 245//245 15//15 257//257
f 15//15 74//74 257//257
f 443//443 442//442 271//271
f 257//257 74//74 246//246
f 15//15 260//260 261//261
f 258//258 259//259 439//439
f 260//260 259//259 258//258
f 443//443 444//444 111//111
f 111//111 444//444 258//258
f 15//15 261//261 74//74
f 260//260 258//258 262//262
f 260//260 262//262 261//261
f 261//261 262//262 74//74
f 16//16 214//214 75//75
f 75//75 214//214 213//213
f 16//16 264//264 214//214
f 264//264 84//84 214//214
f 263//263 16//16 75//75
f 264//264 16//16 263//263
f 263//263 310//310 264//264
f 310//310 309//309 264//264
f 309//309 84//84 264//264
f 84//84 309//309 312//312
f 312//312 309//309 310//310
f 312//312 308//308 84//84
f 76//76 265//265 169//169
f 76//76 267//267 265//265
f 268//268 269//269 266//266
f 266//266 77//77 267//267
f 269//269 77//77 266//266
f 265//265 77//77 443//443
f 265//265 267//267 77//77
f 443//443 77//77 442//442
f 269//269 18//18 79//79
f 269//269 270//270 275//275
f 270//270 272//272 275//275
f 266//266 224//224 268//268
f 224//224 272//272 270//270
f 270//270 269//269 268//268
f 224//224 270//270 268//268
f 17//17 442//442 77//77
f 17//17 77//77 269//269
f 17//17 269//269 79//79
f 443//443 271//271 444//444
f 271//271 78//78 444//444
f 308//308 302//302 276//276
f 79//79 18//18 17//17
f 276//276 302//302 18//18
f 18//18 271//271 17//17
f 17//17 271//271 442//442
f 18//18 78//78 271//271
f 84//84 274//274 272//272
f 274//274 273//273 272//272
f 277//277 275//275 272//272
f 277//277 18//18 269//269
f 277//277 269//269 275//275
f 308//308 274//274 84//84
f 273//273 274//274 308//308
f 308//308 276//276 273//273
f 18//18 277//277 273//273
f 273//273 277//277 272//272
f 18//18 273//273 276//276
f 321//321 87//87 233//233
f 317//317 234//234 87//87
f 317//317 87//87 19//19
f 317//317 19//19 318//318
f 316//316 317//317 318//318
f 21//21 281//281 282//282
f 21//21 282//282 81//81
f 21//21 81//81 333//333
f 447//447 446//446 448//448
f 446//446 445//445 448//448
f 286//286 12//12 287//287
f 241//241 12//12 286//286
f 241//241 286//286 282//282
f 286//286 81//81 282//282
f 287//287 288//288 286//286
f 286//286 288//288 81//81
f 447//447 448//448 283//283
f 448//448 333//333 283//283
f 283//283 81//81 288//288
f 333//333 81//81 283//283
f 288//288 284//284 283//283
f 13//13 283//283 284//284
f 13//13 284//284 285//285
f 284//284 288//288 285//285
f 285//285 288//288 72//72
f 447//447 283//283 248//248
f 283//283 249//249 248//248
f 283//283 13//13 249//249
f 299//299 290//290 296//296
f 296//296 289//289 292//292
f 296//296 292//292 295//295
f 296//296 295//295 298//298
f 296//296 298//298 299//299
f 292//292 293//293 295//295
f 295//295 293//293 298//298
f 298//298 293//293 299//299
f 299//299 293//293 297//297
f 258//258 444//444 262//262
f 444//444 300//300 262//262
f 262//262 300//300 74//74
f 82//82 78//78 18//18
f 300//300 444//444 305//305
f 444//444 78//78 82//82
f 444//444 82//82 305//305
f 74//74 300//300 289//289
f 300//300 301//301 289//289
f 289//289 301//301 292//292
f 83//83 301//301 300//300
f 292//292 301//301 83//83
f 82//82 18//18 305//305
f 303//303 83//83 300//300
f 292//292 83//83 293//293
f 293//293 83//83 297//297
f 300//300 305//305 303//303
f 83//83 305//305 304//304
f 303//303 305//305 83//83
f 305//305 18//18 302//302
f 85//85 308//308 86//86
f 315//315 308//308 312//312
f 314//314 308//308 315//315
f 86//86 308//308 314//314
f 85//85 302//302 308//308
f 86//86 302//302 85//85
f 310//310 297//297 311//311
f 310//310 311//311 312//312
f 311//311 297//297 312//312
f 297//297 315//315 312//312
f 307//307 315//315 297//297
f 306//306 307//307 297//297
f 86//86 314//314 305//305
f 314//314 304//304 305//305
f 314//314 315//315 307//307
f 86//86 305//305 313//313
f 313//313 305//305 302//302
f 86//86 313//313 302//302
f 306//306 314//314 307//307
f 304//304 314//314 306//306
f 297//297 83//83 306//306
f 83//83 304//304 306//306
f 322//322 319//319 324//324
f 22//22 322//322 112//112
f 322//322 325//325 112//112
f 325//325 324//324 112//112
f 322//322 324//324 325//325
f 324//324 320//320 112//112
f 319//319 320//320 324//324
f 316//316 318//318 319//319
f 318//318 19//19 319//319
f 23//23 319//319 322//322
f 319//319 23//23 316//316
f 19//19 327//327 319//319
f 19//19 87//87 327//327
f 87//87 321//321 327//327
f 319//319 327//327 320//320
f 341//341 43//43 340//340
f 341//341 340//340 90//90
f 326//326 38//38 106//106
f 326//326 106//106 351//351
f 326//326 351//351 352//352
f 321//321 328//328 327//327
f 321//321 432//432 326//326
f 328//328 326//326 327//327
f 321//321 326//326 328//328
f 332//332 281//281 331//331
f 281//281 21//21 331//331
f 281//281 332//332 351//351
f 21//21 332//332 331//331
f 335//335 21//21 333//333
f 335//335 333//333 448//448
f 42//42 458//458 457//457
f 458//458 278//278 457//457
f 458//458 20//20 278//278
f 457//457 278//278 91//91
f 445//445 344//344 448//448
f 445//445 449//449 344//344
f 320//320 450//450 112//112
f 112//112 450//450 39//39
f 41//41 39//39 456//456
f 39//39 450//450 456//456
f 450//450 320//320 363//363
f 450//450 363//363 456//456
f 336//336 338//338 40//40
f 22//22 339//339 323//323
f 339//339 40//40 338//338
f 323//323 338//338 336//336
f 339//339 338//338 323//323
f 323//323 322//322 22//22
f 322//322 323//323 337//337
f 337//337 323//323 336//336
f 322//322 337//337 25//25
f 320//320 329//329 363//363
f 25//25 23//23 322//322
f 23//23 89//89 316//316
f 89//89 341//341 316//316
f 326//326 329//329 327//327
f 329//329 320//320 330//330
f 329//329 330//330 327//327
f 330//330 320//320 327//327
f 449//449 20//20 458//458
f 449//449 458//458 92//92
f 332//332 334//334 351//351
f 21//21 334//334 332//332
f 335//335 334//334 21//21
f 346//346 344//344 449//449
f 335//335 448//448 344//344
f 451//451 24//24 40//40
f 348//348 24//24 451//451
f 336//336 453//453 88//88
f 337//337 336//336 88//88
f 25//25 337//337 88//88
f 40//40 452//452 336//336
f 452//452 453//453 336//336
f 356//356 453//453 357//357
f 453//453 356//356 88//88
f 88//88 454//454 25//25
f 454//454 88//88 356//356
f 23//23 25//25 89//89
f 25//25 454//454 89//89
f 356//356 350//350 89//89
f 356//356 89//89 454//454
f 40//40 347//347 451//451
f 350//350 341//341 89//89
f 341//341 350//350 349//349
f 352//352 351//351 353//353
f 353//353 351//351 342//342
f 354//354 459//459 42//42
f 92//92 459//459 354//354
f 346//346 92//92 28//28
f 449//449 92//92 346//346
f 349//349 460//460 341//341
f 460//460 43//43 341//341
f 343//343 113//113 342//342
f 334//334 342//342 351//351
f 343//343 342//342 335//335
f 342//342 334//334 335//335
f 335//335 345//345 343//343
f 30//30 113//113 343//343
f 30//30 343//343 366//366
f 343//343 345//345 366//366
f 335//335 344//344 345//345
f 345//345 346//346 28//28
f 344//344 346//346 345//345
f 42//42 459//459 458//458
f 458//458 459//459 92//92
f 24//24 348//348 453//453
f 26//26 27//27 455//455
f 455//455 27//27 41//41
f 455//455 41//41 456//456
f 455//455 456//456 363//363
f 40//40 465//465 347//347
f 465//465 462//462 347//347
f 465//465 40//40 339//339
f 461//461 339//339 22//22
f 465//465 339//339 461//461
f 378//378 27//27 26//26
f 462//462 381//381 347//347
f 347//347 381//381 451//451
f 461//461 464//464 465//465
f 350//350 356//356 349//349
f 329//329 364//364 363//363
f 364//364 455//455 363//363
f 364//364 329//329 352//352
f 329//329 326//326 352//352
f 354//354 362//362 92//92
f 92//92 362//362 28//28
f 354//354 373//373 362//362
f 352//352 353//353 365//365
f 413//413 113//113 29//29
f 365//365 113//113 413//413
f 342//342 113//113 365//365
f 342//342 365//365 353//353
f 29//29 113//113 406//406
f 113//113 30//30 406//406
f 28//28 366//366 345//345
f 348//348 367//367 453//453
f 94//94 367//367 355//355
f 355//355 367//367 348//348
f 26//26 379//379 378//378
f 464//464 378//378 379//379
f 464//464 379//379 377//377
f 464//464 463//463 465//465
f 463//463 97//97 381//381
f 463//463 381//381 462//462
f 465//465 463//463 462//462
f 97//97 464//464 383//383
f 463//463 464//464 97//97
f 396//396 400//400 355//355
f 31//31 355//355 348//348
f 98//98 348//348 451//451
f 31//31 348//348 98//98
f 355//355 31//31 396//396
f 397//397 396//396 31//31
f 349//349 356//356 358//358
f 358//358 356//356 357//357
f 358//358 357//357 93//93
f 26//26 34//34 379//379
f 34//34 377//377 379//379
f 34//34 26//26 455//455
f 34//34 455//455 364//364
f 398//398 34//34 364//364
f 34//34 101//101 96//96
f 349//349 358//358 460//460
f 358//358 360//360 460//460
f 358//358 372//372 360//360
f 398//398 364//364 414//414
f 359//359 460//460 360//360
f 359//359 43//43 460//460
f 372//372 374//374 360//360
f 373//373 374//374 372//372
f 360//360 373//373 359//359
f 373//373 360//360 374//374
f 354//354 42//42 361//361
f 361//361 42//42 359//359
f 361//361 359//359 373//373
f 354//354 361//361 373//373
f 413//413 364//364 365//365
f 364//364 352//352 365//365
f 414//414 364//364 413//413
f 415//415 413//413 29//29
f 414//414 413//413 415//415
f 366//366 406//406 30//30
f 28//28 402//402 366//366
f 402//402 29//29 406//406
f 402//402 406//406 366//366
f 386//386 31//31 98//98
f 98//98 380//380 386//386
f 367//367 94//94 369//369
f 401//401 369//369 94//94
f 33//33 369//369 401//401
f 369//369 33//33 375//375
f 368//368 357//357 369//369
f 368//368 93//93 357//357
f 369//369 357//357 367//367
f 367//367 357//357 453//453
f 368//368 370//370 93//93
f 358//358 93//93 95//95
f 95//95 93//93 370//370
f 370//370 368//368 95//95
f 371//371 358//358 95//95
f 368//368 371//371 95//95
f 358//358 371//371 376//376
f 358//358 376//376 372//372
f 369//369 375//375 368//368
f 368//368 375//375 371//371
f 375//375 376//376 371//371
f 33//33 376//376 375//375
f 372//372 376//376 403//403
f 34//34 96//96 377//377
f 96//96 382//382 377//377
f 377//377 382//382 390//390
f 99//99 97//97 383//383
f 380//380 381//381 97//97
f 381//381 98//98 451//451
f 380//380 98//98 381//381
f 99//99 380//380 384//384
f 384//384 380//380 97//97
f 99//99 384//384 97//97
f 386//386 397//397 31//31
f 386//386 409//409 397//397
f 397//397 409//409 396//396
f 96//96 392//392 382//382
f 392//392 390//390 382//382
f 99//99 385//385 380//380
f 385//385 388//388 380//380
f 388//388 385//385 99//99
f 383//383 464//464 377//377
f 383//383 377//377 99//99
f 391//391 99//99 392//392
f 99//99 377//377 389//389
f 389//389 377//377 390//390
f 99//99 389//389 392//392
f 392//392 389//389 390//390
f 392//392 414//414 100//100
f 386//386 387//387 388//388
f 387//387 386//386 380//380
f 388//388 387//387 380//380
f 99//99 391//391 393//393
f 392//392 100//100 395//395
f 409//409 386//386 394//394
f 394//394 386//386 388//388
f 99//99 393//393 388//388
f 388//388 393//393 394//394
f 32//32 393//393 391//391
f 392//392 395//395 391//391
f 395//395 32//32 391//391
f 32//32 394//394 393//393
f 409//409 394//394 407//407
f 32//32 395//395 103//103
f 395//395 100//100 103//103
f 32//32 103//103 394//394
f 103//103 104//104 394//394
f 103//103 100//100 411//411
f 103//103 411//411 412//412
f 410//410 408//408 409//409
f 408//408 396//396 409//409
f 400//400 396//396 408//408
f 355//355 400//400 94//94
f 400//400 401//401 94//94
f 400//400 408//408 401//401
f 33//33 401//401 102//102
f 401//401 408//408 405//405
f 401//401 405//405 102//102
f 102//102 403//403 33//33
f 403//403 376//376 33//33
f 372//372 403//403 373//373
f 403//403 102//102 404//404
f 403//403 404//404 373//373
f 404//404 102//102 373//373
f 96//96 101//101 414//414
f 101//101 34//34 398//398
f 101//101 398//398 414//414
f 392//392 96//96 399//399
f 392//392 399//399 414//414
f 96//96 414//414 399//399
f 102//102 405//405 423//423
f 405//405 408//408 423//423
f 102//102 423//423 426//426
f 421//421 419//419 102//102
f 102//102 419//419 373//373
f 424//424 426//426 423//423
f 426//426 421//421 102//102
f 415//415 29//29 420//420
f 402//402 420//420 29//29
f 402//402 427//427 420//420
f 402//402 419//419 421//421
f 419//419 402//402 362//362
f 362//362 402//402 28//28
f 419//419 362//362 373//373
f 103//103 412//412 104//104
f 104//104 417//417 394//394
f 412//412 417//417 104//104
f 100//100 414//414 411//411
f 411//411 414//414 412//412
f 412//412 418//418 469//469
f 415//415 418//418 412//412
f 415//415 412//412 414//414
f 394//394 410//410 407//407
f 410//410 409//409 407//407
f 424//424 423//423 35//35
f 423//423 408//408 35//35
f 410//410 35//35 408//408
f 394//394 417//417 467//467
f 412//412 469//469 417//417
f 394//394 467//467 410//410
f 35//35 410//410 416//416
f 35//35 416//416 467//467
f 416//416 410//410 467//467
f 428//428 424//424 35//35
f 469//469 418//418 427//427
f 418//418 415//415 420//420
f 418//418 420//420 427//427
f 469//469 466//466 417//417
f 467//467 468//468 35//35
f 466//466 468//468 417//417
f 468//468 467//467 417//417
f 35//35 468//468 428//428
f 428//428 466//466 469//469
f 428//428 469//469 425//425
f 468//468 466//466 428//428
f 427//427 425//425 469//469
f 426//426 425//425 427//427
f 421//421 426//426 427//427
f 427//427 402//402 422//422
f 427//427 422//422 421//421
f 422//422 402//402 421//421
f 428//428 426//426 424//424
f 428//428 425//425 426//426
