# decimated by Tools/decimate_anatomy.py from 5152 triangles (BodyParts3D, CC BY 4.0)
v 0.01742069 -0.00466282 0.02649142
v 0.01699218 -0.00483943 0.02642001
v 0.01437494 0.00225963 0.03255874
v 0.01240131 -0.00230582 0.02267276
v 0.01299914 0.00407045 0.02456479
v 0.01209276 0.00465841 0.03034327
v 0.01091338 -0.00391710 0.02443323
v 0.00910677 -0.00311114 0.03044513
v 0.01108808 -0.00299511 0.03338444
v 0.01025070 0.00483148 0.02305066
v 0.00865668 0.00449480 0.02869396
v 0.00971076 0.00561183 0.02546811
v 0.00952172 0.00391014 0.03202342
v 0.00489778 -0.00532795 0.02133487
v -0.00077186 0.00667275 0.02532663
v -0.00287746 -0.00136171 0.02111993
v 0.00705696 0.00667897 0.02536583
v 0.01103440 -0.00273153 0.03357388
v 0.00797207 0.00452617 0.02747906
v 0.00885830 0.00447954 0.02907819
v 0.00434775 -0.00387680 0.02552016
v 0.00371855 0.00738241 0.02673926
v -0.00134414 -0.00219174 0.01915067
v -0.00429089 0.00240390 0.02100844
v 0.01894856 -0.00369836 0.02813510
v 0.01889485 -0.00450055 0.02888547
v 0.01489058 -0.00626806 0.02769295
v 0.01492755 -0.00088839 0.03329458
v 0.01343447 0.00302199 0.02313553
v 0.01252810 0.00372932 0.02292565
v 0.01166673 -0.00450463 0.02600089
v 0.01505469 0.00227868 0.02471263
v 0.01270801 0.00357907 0.02364857
v 0.01262676 -0.00565671 0.02721783
v 0.01359286 -0.00608738 0.02947105
v 0.01674637 0.00103812 0.03000204
v 0.01336208 0.00487273 0.02567168
v 0.01288128 -0.00017356 0.02144526
v 0.01244623 0.00375391 0.02234082
v 0.01265938 0.00445465 0.02483911
v 0.01169423 0.00505699 0.02523985
v 0.01287348 -0.00508400 0.03138485
v 0.00950740 -0.00411555 0.02371104
v 0.00747720 -0.00112640 0.02946539
v 0.00378727 -0.00473968 0.01977240
v 0.00539620 -0.00414896 0.01959177
v 0.00267972 -0.00234052 0.01815071
v 0.00039622 0.00734742 0.02432573
v -0.00285690 0.00407430 0.02347002
v 0.01489039 -0.00600546 0.02704755
v 0.00844450 -0.00027820 0.03135961
v 0.00940289 0.00116227 0.03366004
v 0.00675722 -0.00299695 0.02758271
v 0.00647590 -0.00322712 0.02717756
v 0.00920928 0.00535536 0.02597430
v 0.00774770 0.00407639 0.02832301
v 0.00391092 0.00717957 0.02677880
v 0.00315932 0.00739452 0.02669433
v 0.00146330 0.00723893 0.02652679
v -0.00026226 -0.00442440 0.02071411
v 0.01837574 -0.00430531 0.02721833
v 0.01882360 -0.00327327 0.02742278
v 0.01852027 -0.00507874 0.02817651
v 0.01827644 -0.00562588 0.02878752
v 0.01808054 -0.00577583 0.02907809
v 0.01898712 -0.00368480 0.02847373
v 0.01885114 -0.00216112 0.02785654
v 0.01862227 -0.00403933 0.02938125
v 0.01808563 -0.00537719 0.02965734
v 0.01893535 -0.00318237 0.02863204
v 0.01781033 -0.00223623 0.02565490
v 0.01762890 -0.00463587 0.02662872
v 0.01712603 -0.00567059 0.02818887
v 0.01708067 -0.00513464 0.02723302
v 0.01570625 -0.00458149 0.02601844
v 0.01502741 -0.00433160 0.02575457
v 0.01538422 -0.00584118 0.02708293
v 0.01682125 -0.00362070 0.02561237
v 0.01753449 -0.00313029 0.02586152
v 0.01647571 -0.00457007 0.02611530
v 0.01569282 -0.00414746 0.02581923
v 0.01688297 0.00135066 0.02663216
v 0.01728316 -0.00609195 0.02884508
v 0.01668373 -0.00575124 0.03007524
v 0.01571704 -0.00632135 0.02963399
v 0.01642028 -0.00566486 0.03025144
v 0.01613574 -0.00615990 0.02857410
v 0.01633682 -0.00627338 0.02891598
v 0.01641624 -0.00633563 0.02922357
v 0.01657061 -0.00620449 0.02885353
v 0.01590828 -0.00185152 0.03230410
v 0.01627842 -0.00221164 0.02425096
v 0.01404188 -0.00210611 0.02356513
v 0.01354912 0.00171372 0.02191846
v 0.01352522 0.00214514 0.02219207
v 0.01300066 0.00329859 0.02306714
v 0.01310838 0.00313398 0.02327495
v 0.01333766 -0.00024636 0.02196088
v 0.01413882 0.00053103 0.02234291
v 0.01263295 -0.00409884 0.02529005
v 0.01358011 -0.00283455 0.02402192
v 0.01376114 -0.00446732 0.02552334
v 0.01413789 0.00248003 0.02369759
v 0.01454570 0.00249472 0.02435895
v 0.01432618 0.00235886 0.02382268
v 0.01346979 0.00300357 0.02382265
v 0.01347908 0.00318451 0.02419159
v 0.01301674 0.00313573 0.02375031
v 0.01317112 0.00310810 0.02382906
v 0.01324180 0.00321505 0.02402025
v 0.01427483 0.00423162 0.02546102
v 0.01301107 0.00366177 0.02422343
v 0.01460432 -0.00612004 0.03015190
v 0.01612476 -0.00518808 0.03079216
v 0.01444636 0.00353796 0.03055041
v 0.01552156 0.00280583 0.02751490
v 0.01365397 -0.00273185 0.03341821
v 0.01249889 0.00095796 0.03456700
v 0.01210088 0.00364664 0.03258253
v 0.01176415 -0.00086334 0.02054196
v 0.01301058 0.00197010 0.02142754
v 0.01174521 0.00202823 0.02007970
v 0.01092593 0.00118598 0.01957645
v 0.01134544 0.00174503 0.01980998
v 0.01237333 -0.00140934 0.02188616
v 0.01171646 -0.00409298 0.02499729
v 0.01076246 -0.00365152 0.02379339
v 0.01194531 0.00410536 0.02178567
v 0.01396809 0.00247822 0.02305152
v 0.01245582 0.00378035 0.02271319
v 0.01171142 0.00261556 0.02041678
v 0.01160609 0.00435880 0.02159843
v 0.01042740 0.00484227 0.02102483
v 0.01409049 0.00452098 0.02574629
v 0.01297240 0.00493079 0.02555815
v 0.01186460 0.00489248 0.02833410
v 0.01224497 0.00483275 0.02505817
v 0.01232771 0.00391455 0.02338381
v 0.01186847 0.00433196 0.02335774
v 0.01116165 0.00470745 0.02188521
v 0.01105145 -0.00479764 0.02757359
v 0.00980257 0.00560224 0.02556315
v 0.00947064 -0.00331735 0.03053163
v 0.01151614 -0.00348355 0.03295060
v 0.01247074 -0.00370806 0.03293617
v 0.01298527 -0.00098106 0.03429725
v 0.01132295 0.00016557 0.03500500
v 0.01365287 -0.00000628 0.03406178
v 0.00996370 0.00406736 0.03176859
v 0.01026643 0.00222201 0.03415180
v 0.01191494 0.00355307 0.03277584
v 0.01056629 -0.00363781 0.02358391
v 0.01022432 0.00442876 0.02064507
v 0.01069749 -0.00460612 0.02780305
v 0.00827512 -0.00421297 0.02589227
v 0.00936843 0.00523419 0.02340079
v 0.00682683 0.00665660 0.02390998
v 0.00842650 -0.00310383 0.02962051
v 0.00621056 -0.00334258 0.02690993
v 0.00915673 0.00521690 0.02619366
v 0.00892863 0.00460229 0.02875275
v 0.00821577 0.00337424 0.02943335
v 0.00742106 -0.00046320 0.02890336
v 0.00536851 -0.00532585 0.02150500
v 0.00914059 -0.00406364 0.02243284
v 0.00622382 -0.00383311 0.01961879
v 0.00922899 -0.00400518 0.02240799
v 0.00505048 -0.00519465 0.02096746
v 0.00724179 -0.00048282 0.01835910
v 0.01043430 0.00151735 0.01934313
v 0.01080424 0.00258854 0.01981415
v 0.00632831 0.00230366 0.01882428
v 0.00308114 -0.00007572 0.01770863
v 0.00447387 -0.00187363 0.02624905
v 0.00548717 -0.00338018 0.02649878
v 0.00692505 0.00682007 0.02447167
v 0.01016919 0.00491685 0.02383091
v 0.00969357 0.00560656 0.02523750
v 0.00642218 0.00700612 0.02464101
v 0.00447395 -0.00275715 0.01836445
v 0.00389687 -0.00331416 0.01866227
v 0.00295648 -0.00123513 0.01792217
v 0.00564407 0.00238486 0.01879531
v 0.00260335 0.00299153 0.01866398
v 0.00397772 -0.00452014 0.02468640
v 0.00189994 -0.00230573 0.02507060
v 0.00578612 0.00329092 0.02700567
v 0.00848775 0.00560482 0.02309296
v 0.00429592 0.00679420 0.02227544
v 0.00867406 0.00500723 0.02078735
v 0.00124601 0.00670827 0.02168760
v 0.00387800 0.00723967 0.02355986
v 0.00161361 0.00686286 0.02683958
v 0.00357843 0.00779654 0.02574441
v 0.00202636 -0.00400548 0.01909450
v 0.00173181 -0.00224390 0.01816015
v -0.00079850 -0.00320869 0.01915809
v 0.00325126 -0.00485249 0.02302052
v 0.00020642 -0.00455521 0.02144528
v 0.00002185 0.00368690 0.01927770
v -0.00154024 0.00671748 0.02304987
v -0.00142737 0.00668616 0.02344283
v 0.00498353 0.00452772 0.02694496
v 0.00399515 0.00688780 0.02236345
v 0.00077047 0.00747291 0.02465238
v 0.00147559 0.00682467 0.02679747
v 0.00135517 0.00709623 0.02661919
v 0.00035333 0.00728514 0.02478557
v -0.00123132 0.00658593 0.02443208
v 0.00037265 0.00679408 0.02629124
v 0.00034522 0.00705918 0.02587412
v -0.00053667 0.00548663 0.02582382
v 0.00043111 0.00680618 0.02632760
v 0.00184635 -0.00029618 0.01802768
v -0.00007507 -0.00113617 0.01857510
v 0.00022770 -0.00181035 0.01852772
v -0.00401284 0.00124655 0.02141174
v -0.00015629 -0.00101326 0.02460293
v -0.00189373 -0.00167801 0.02303186
v -0.00160030 0.00660956 0.02334151
v -0.00260173 0.00580323 0.02143803
v -0.00278294 0.00562558 0.02133606
v -0.00347078 0.00545839 0.02190747
v -0.00318650 0.00386586 0.02039249
v -0.00254886 0.00633034 0.02246528
v -0.00349996 0.00508521 0.02203928
v -0.00372322 0.00429356 0.02205044
v -0.00148948 0.00525455 0.02514404
v -0.00232298 0.00402914 0.02412260
v -0.00325890 0.00539227 0.02250084
v -0.00176927 0.00610255 0.02385469
v -0.00186370 0.00583394 0.02401621
v -0.00203672 0.00548585 0.02424195
v 0.01532712 -0.00531610 0.02608988
v 0.01382741 -0.00460818 0.02566509
v 0.01553973 -0.00496352 0.02605587
v 0.01405576 -0.00555664 0.02669105
v 0.00653868 -0.00234483 0.02789473
v 0.00725712 -0.00240273 0.02873546
v 0.00827492 -0.00051150 0.03084153
v 0.01051019 -0.00166434 0.03350140
v 0.01055343 0.00009440 0.03462925
v 0.01005727 -0.00039351 0.03365679
v 0.01223831 0.00086355 0.03463232
v 0.01107909 0.00174743 0.03431848
v 0.00922767 0.00147778 0.03351006
v 0.00985250 0.00284633 0.03332778
v 0.00938413 0.00387975 0.03194225
v 0.00900074 -0.00293725 0.03057919
v 0.00607997 0.00626771 0.02645095
v 0.00841473 0.00379166 0.02926709
v 0.00632611 -0.00362440 0.02633589
v 0.00744493 -0.00370060 0.02666933
v 0.00343883 -0.00456084 0.02444871
v 0.00582654 0.00417348 0.02710702
v 0.00603511 0.00587905 0.02685782
v 0.00747030 0.00377260 0.02813627
v 0.00527290 0.00643444 0.02665852
v 0.00489386 0.00580347 0.02694186
v 0.00432159 0.00765396 0.02551747
v 0.00532542 0.00704586 0.02587302
v 0.00142530 -0.00484186 0.02077211
v 0.00325446 -0.00515422 0.02073215
v 0.00230662 0.00751057 0.02610766
v 0.00370984 0.00741094 0.02668907
v 0.00209982 0.00685664 0.02685502
v 0.00596126 0.00436107 0.02711196
v 0.00426496 0.00575192 0.02697274
v -0.00169784 -0.00352274 0.02068369
v 0.00124216 -0.00413327 0.01947765
v -0.00084628 0.00656992 0.02534693
v -0.00075118 0.00624372 0.02550061
v -0.00192599 0.00527785 0.02473831
v -0.00177665 -0.00342789 0.02057319
v -0.00247810 -0.00047888 0.01955431
v -0.00050243 -0.00417672 0.02139826
v -0.00187716 -0.00196342 0.02287905
v -0.00399421 0.00104742 0.02119676
v -0.00317163 -0.00009183 0.02048829
v -0.00429130 0.00258102 0.02100029
v -0.00393986 0.00295469 0.02080965
v -0.00084307 0.00345812 0.01908738
v -0.00352477 0.00518919 0.02154514
v -0.00410735 0.00295322 0.02136253
vn 0.339368 -0.543478 -0.767764
vn 0.375191 -0.846137 -0.378529
vn 0.605049 0.531539 0.592775
vn 0.453892 -0.674987 -0.581701
vn 0.540387 0.676173 -0.500771
vn 0.209940 0.938884 0.272806
vn 0.005547 -0.975309 -0.220775
vn -0.427712 -0.859029 0.281303
vn -0.094181 -0.581089 0.808372
vn 0.374040 0.927388 0.006779
vn -0.399763 0.888765 0.224248
vn 0.350706 0.927376 0.130300
vn -0.161037 0.909041 0.384333
vn -0.122186 -0.987726 0.097300
vn -0.638811 0.695412 0.329124
vn -0.818220 -0.384057 0.427804
vn 0.315515 0.768870 0.556138
vn -0.764037 -0.338755 0.549084
vn 0.350921 0.728548 0.588280
vn -0.734422 0.573321 0.363218
vn -0.454193 -0.494848 0.740833
vn 0.416446 0.760628 0.498014
vn -0.552486 -0.073794 -0.830249
vn -0.988617 -0.142401 -0.048573
vn 0.933483 -0.259962 -0.247040
vn 0.924912 -0.297822 0.236306
vn -0.007410 -0.979886 -0.199419
vn 0.662361 0.011037 0.749103
vn 0.615290 0.784263 -0.079687
vn 0.717617 0.696361 0.010330
vn -0.213749 -0.853103 -0.475949
vn 0.663074 0.533309 -0.525275
vn 0.732983 0.579296 -0.356585
vn -0.425776 -0.901858 -0.073261
vn -0.428935 -0.894677 0.124771
vn 0.821979 0.418682 0.386078
vn 0.360658 0.923013 0.134063
vn 0.666823 -0.258439 -0.698968
vn 0.622561 0.782144 -0.025848
vn 0.334705 0.735160 -0.589501
vn 0.243540 0.964202 -0.104895
vn -0.268639 -0.827602 0.492856
vn 0.254566 -0.967045 -0.004363
vn -0.913921 0.042304 0.403681
vn 0.051473 -0.765030 -0.641934
vn 0.212789 -0.689260 -0.692562
vn -0.009576 -0.361856 -0.932185
vn -0.158492 0.961452 -0.224700
vn -0.805233 -0.146122 0.574672
vn -0.057796 -0.808652 -0.585441
vn -0.876462 -0.113788 0.467831
vn -0.911035 -0.066105 0.406996
vn -0.718134 -0.398112 0.570781
vn -0.570654 -0.410218 0.711390
vn 0.305920 0.729983 0.611177
vn -0.644451 0.288465 0.708146
vn 0.075771 0.175648 0.981533
vn -0.093713 0.939539 0.329369
vn -0.250558 0.905260 0.343112
vn -0.448100 -0.893083 -0.040124
vn 0.763097 -0.353947 -0.540743
vn 0.876511 -0.137777 -0.461243
vn 0.737058 -0.587367 -0.334284
vn 0.586411 -0.734950 -0.340544
vn 0.404154 -0.846782 0.345860
vn 0.986536 -0.110196 -0.120848
vn 0.914272 0.399083 -0.069564
vn 0.781074 0.132334 0.610255
vn 0.560956 -0.357990 0.746440
vn 0.887697 0.234626 0.396161
vn 0.785184 0.132867 -0.604840
vn 0.572956 -0.503358 -0.646801
vn 0.311142 -0.825601 -0.470716
vn 0.350007 -0.845462 -0.403347
vn 0.259551 -0.440047 -0.859647
vn 0.205379 -0.610490 -0.764933
vn 0.371444 -0.859431 -0.351295
vn 0.199183 -0.322163 -0.925493
vn 0.405703 -0.435370 -0.803653
vn 0.267146 -0.352542 -0.896854
vn 0.359296 -0.553530 -0.751340
vn 0.830986 0.472719 -0.293254
vn 0.275241 -0.883791 -0.378359
vn 0.321386 -0.793604 0.516628
vn 0.027704 -0.945582 0.324203
vn 0.259448 -0.703291 0.661868
vn 0.263800 -0.875050 -0.405828
vn 0.093772 -0.950084 -0.297568
vn 0.238972 -0.937309 0.253661
vn 0.155213 -0.934642 -0.319926
vn 0.770318 0.127239 0.624836
vn 0.406970 -0.463627 -0.787036
vn 0.294981 -0.536605 -0.790595
vn 0.766230 0.321625 -0.556281
vn 0.746611 0.389817 -0.539087
vn 0.621583 0.775261 0.112272
vn 0.430404 0.893640 0.127122
vn 0.671782 -0.477317 -0.566461
vn 0.583179 -0.190939 -0.789585
vn -0.042557 -0.762982 -0.645017
vn 0.210817 -0.744466 -0.633503
vn 0.127314 -0.659331 -0.740995
vn 0.642932 0.759137 -0.101727
vn 0.553505 0.739264 -0.383564
vn 0.473747 0.838522 -0.269154
vn 0.544725 0.799346 -0.253615
vn 0.514817 0.546411 -0.660605
vn 0.732753 0.666136 -0.139052
vn 0.387174 0.892908 -0.229809
vn 0.485250 0.675926 -0.554668
vn 0.622607 0.549785 -0.556864
vn 0.534523 0.530262 -0.658109
vn 0.028777 -0.818438 0.573874
vn 0.230712 -0.614730 0.754240
vn 0.594237 0.773108 0.221780
vn 0.738669 0.668541 0.086147
vn 0.330038 -0.472196 0.817377
vn 0.388094 0.465300 0.795537
vn 0.322024 0.774573 0.544369
vn 0.456299 -0.487420 -0.744455
vn 0.702204 0.342610 -0.624122
vn 0.653293 -0.016378 -0.756928
vn 0.442701 -0.199451 -0.874205
vn 0.424823 0.186974 -0.885757
vn 0.712325 -0.463662 -0.526888
vn 0.228887 -0.822624 -0.520481
vn 0.321007 -0.847794 -0.422137
vn 0.705739 0.509602 -0.492178
vn 0.729108 0.527720 -0.435790
vn 0.642453 0.763824 -0.061862
vn 0.604525 0.459924 -0.650399
vn 0.611738 0.582928 -0.534763
vn 0.332992 0.829851 -0.447731
vn 0.661614 0.749835 -0.003783
vn 0.139783 0.987382 -0.074418
vn 0.198169 0.978194 0.062167
vn 0.398400 0.800993 -0.446864
vn 0.671650 0.740550 -0.021727
vn 0.616253 0.749706 -0.241191
vn 0.309510 0.947630 -0.078746
vn -0.189658 -0.952169 -0.239592
vn -0.022744 0.983339 0.180352
vn -0.506369 -0.831602 0.228099
vn -0.444330 -0.787903 0.426355
vn 0.054416 -0.575456 0.816020
vn 0.158114 -0.376605 0.912781
vn 0.202750 -0.279376 0.938532
vn 0.524392 0.067282 0.848814
vn -0.103627 0.930447 0.351468
vn -0.011149 0.737775 0.674954
vn 0.069143 0.697694 0.713052
vn 0.468946 -0.827884 -0.307729
vn 0.162079 0.487870 -0.857737
vn -0.383942 -0.886970 0.256657
vn -0.048794 -0.983112 0.176382
vn 0.460249 0.886442 -0.048913
vn 0.350453 0.885975 -0.303695
vn -0.324428 -0.903954 0.278593
vn -0.161291 -0.916451 0.366201
vn -0.366272 0.910460 0.192112
vn -0.260701 0.937551 0.230291
vn -0.914587 0.158916 0.371856
vn -0.798331 0.094995 0.594680
vn 0.145591 -0.983813 0.104475
vn 0.380745 -0.855667 -0.350525
vn 0.412438 -0.644634 -0.643694
vn 0.454069 -0.719410 -0.525615
vn 0.304487 -0.830118 -0.467109
vn 0.287669 -0.191239 -0.938442
vn 0.195819 0.212902 -0.957250
vn 0.253598 0.451386 -0.855534
vn 0.092887 0.468537 -0.878547
vn 0.034820 0.128146 -0.991144
vn -0.576617 -0.002463 0.817011
vn -0.486833 -0.324003 0.811181
vn 0.413138 0.895774 -0.164031
vn 0.271717 0.935974 -0.223882
vn 0.381434 0.881067 -0.279693
vn 0.277333 0.956749 -0.087849
vn 0.241926 -0.385921 -0.890246
vn 0.062387 -0.592166 -0.803398
vn 0.069235 -0.202928 -0.976743
vn 0.131706 0.573063 -0.808858
vn 0.049080 0.507507 -0.860249
vn -0.036172 -0.944614 0.326185
vn -0.436194 -0.354107 0.827251
vn -0.379348 -0.075542 0.922165
vn 0.329337 0.925701 -0.186052
vn 0.145969 0.786932 -0.599526
vn 0.064629 0.585576 -0.808037
vn 0.009567 0.762743 -0.646631
vn 0.105883 0.961807 -0.252420
vn -0.313768 -0.344251 0.884896
vn -0.043523 0.994707 0.093082
vn -0.078324 -0.559989 -0.824790
vn -0.176155 -0.295901 -0.938835
vn -0.338843 -0.623137 -0.704901
vn -0.140650 -0.974614 0.174201
vn -0.223398 -0.961476 0.160181
vn -0.106300 0.629413 -0.769766
vn -0.294831 0.952169 -0.080307
vn -0.440203 0.879246 0.182065
vn -0.242633 -0.205923 0.948011
vn 0.000570 0.961791 -0.273783
vn -0.054471 0.984760 -0.165167
vn -0.267233 -0.256886 0.928761
vn -0.363798 0.501922 0.784682
vn -0.402302 0.902338 0.154723
vn -0.665164 0.695920 0.270651
vn -0.579429 0.487052 0.653484
vn -0.363600 0.904107 0.224468
vn -0.287234 -0.202950 0.936113
vn -0.527190 0.214963 0.822108
vn -0.282798 0.059473 -0.957334
vn -0.339600 0.022276 -0.940306
vn -0.280915 -0.107478 -0.953696
vn -0.753778 -0.249040 0.608110
vn -0.377792 -0.196450 0.904810
vn -0.635241 -0.201950 0.745443
vn -0.790954 0.576151 0.206013
vn -0.165214 0.659498 -0.733326
vn -0.549324 0.616523 -0.564041
vn -0.761910 0.645870 -0.048422
vn -0.387758 0.474364 -0.790331
vn -0.431523 0.895485 -0.109063
vn -0.905662 0.239238 0.350060
vn -0.911859 0.120293 0.392483
vn -0.602145 -0.139727 0.786065
vn -0.666737 -0.186618 0.721551
vn -0.837615 0.234290 0.493467
vn -0.805413 0.520367 0.283775
vn -0.802345 0.525583 0.282850
vn -0.684208 0.597155 0.418647
vn 0.215343 -0.221591 -0.951065
vn 0.032379 -0.554251 -0.831720
vn 0.205561 -0.295679 -0.932909
vn -0.158905 -0.796542 -0.583327
vn -0.649069 -0.221905 0.727645
vn -0.789340 -0.251070 0.560274
vn -0.896688 0.037612 0.441062
vn -0.774430 -0.330806 0.539282
vn -0.762477 -0.331770 0.555480
vn -0.772825 -0.333938 0.539654
vn 0.061078 0.390677 0.918499
vn 0.175886 0.573453 0.800135
vn -0.880299 0.249137 0.403739
vn -0.674258 0.391265 0.626329
vn -0.845848 0.384812 0.369407
vn -0.756992 -0.332443 0.562534
vn 0.347957 0.743607 0.570941
vn -0.751186 0.534026 0.387990
vn -0.099054 -0.846518 0.523064
vn -0.241007 -0.922870 0.300378
vn -0.457526 -0.677694 0.575674
vn -0.468799 -0.005534 0.883288
vn -0.523041 0.152563 0.838542
vn -0.671308 0.107198 0.733385
vn 0.232117 0.278999 0.931816
vn 0.149548 0.222662 0.963357
vn 0.194058 0.980193 -0.039548
vn 0.367527 0.793228 0.485502
vn -0.289358 -0.885974 -0.362384
vn -0.107747 -0.924604 -0.365374
vn -0.180501 0.953928 0.239669
vn 0.179111 0.911701 0.369756
vn 0.009373 0.124103 0.992225
vn 0.096492 0.179474 0.979019
vn 0.018403 0.130559 0.991270
vn -0.578109 -0.726077 -0.372292
vn -0.204926 -0.846738 -0.490959
vn -0.627643 0.174452 0.758703
vn -0.631522 0.189450 0.751857
vn -0.801899 0.225178 0.553401
vn -0.776776 -0.375720 -0.505424
vn -0.810478 -0.383254 -0.442992
vn -0.562941 -0.648871 0.511921
vn -0.697548 -0.458793 0.550396
vn -0.843588 -0.363051 -0.395668
vn -0.816771 -0.365891 -0.446105
vn -0.556652 0.102969 -0.824340
vn -0.521678 0.063656 -0.850764
vn -0.342786 0.131922 -0.930104
vn -0.863203 0.349149 -0.364658
vn -0.900035 0.031436 0.434682
f 62//62 63//63 61//61
f 63//63 73//73 72//72
f 64//64 73//73 63//63
f 63//63 62//62 25//25
f 62//62 67//67 70//70
f 62//62 71//71 67//67
f 72//72 71//71 62//62
f 72//72 62//62 61//61
f 72//72 61//61 63//63
f 67//67 82//82 36//36
f 63//63 66//66 26//26
f 25//25 66//66 63//63
f 25//25 62//62 66//66
f 69//69 63//63 26//26
f 62//62 70//70 66//66
f 70//70 26//26 66//66
f 70//70 68//68 26//26
f 69//69 26//26 68//68
f 63//63 69//69 64//64
f 69//69 65//65 64//64
f 83//83 64//64 65//65
f 73//73 64//64 83//83
f 36//36 70//70 67//67
f 69//69 68//68 91//91
f 68//68 70//70 36//36
f 68//68 36//36 91//91
f 91//91 36//36 28//28
f 101//101 93//93 102//102
f 72//72 73//73 74//74
f 87//87 73//73 83//83
f 74//74 1//1 72//72
f 2//2 1//1 74//74
f 2//2 74//74 77//77
f 234//234 236//236 1//1
f 236//236 80//80 1//1
f 236//236 75//75 80//80
f 50//50 2//2 77//77
f 27//27 50//50 77//77
f 27//27 77//77 74//74
f 74//74 73//73 27//27
f 73//73 87//87 27//27
f 50//50 100//100 235//235
f 237//237 100//100 50//50
f 234//234 235//235 236//236
f 75//75 236//236 76//76
f 236//236 235//235 76//76
f 76//76 81//81 75//75
f 1//1 80//80 72//72
f 80//80 75//75 79//79
f 80//80 79//79 72//72
f 75//75 81//81 78//78
f 75//75 78//78 79//79
f 72//72 79//79 71//71
f 71//71 79//79 78//78
f 78//78 81//81 71//71
f 81//81 92//92 71//71
f 92//92 81//81 76//76
f 92//92 76//76 93//93
f 93//93 76//76 102//102
f 102//102 76//76 235//235
f 71//71 82//82 67//67
f 32//32 111//111 82//82
f 65//65 69//69 89//89
f 69//69 84//84 89//89
f 87//87 89//89 27//27
f 27//27 89//89 85//85
f 89//89 84//84 86//86
f 84//84 69//69 86//86
f 89//89 86//86 85//85
f 113//113 27//27 85//85
f 35//35 27//27 113//113
f 87//87 83//83 90//90
f 89//89 83//83 65//65
f 90//90 83//83 89//89
f 89//89 87//87 88//88
f 87//87 90//90 88//88
f 88//88 90//90 89//89
f 69//69 91//91 28//28
f 69//69 28//28 117//117
f 28//28 36//36 3//3
f 36//36 115//115 3//3
f 4//4 99//99 93//93
f 4//4 93//93 101//101
f 92//92 99//99 71//71
f 93//93 99//99 92//92
f 4//4 98//98 99//99
f 99//99 98//98 38//38
f 4//4 38//38 98//98
f 29//29 103//103 129//129
f 71//71 99//99 94//94
f 132//132 39//39 128//128
f 39//39 96//96 29//29
f 129//129 128//128 29//29
f 128//128 39//39 29//29
f 97//97 29//29 96//96
f 122//122 99//99 38//38
f 121//121 99//99 122//122
f 94//94 99//99 121//121
f 71//71 94//94 82//82
f 82//82 95//95 129//129
f 94//94 95//95 82//82
f 94//94 128//128 95//95
f 128//128 129//129 95//95
f 122//122 38//38 120//120
f 132//132 139//139 130//130
f 39//39 30//30 96//96
f 39//39 132//132 130//130
f 39//39 130//130 30//30
f 50//50 27//27 237//237
f 27//27 34//34 237//237
f 27//27 35//35 34//34
f 235//235 100//100 102//102
f 100//100 101//101 102//102
f 31//31 237//237 34//34
f 100//100 237//237 31//31
f 32//32 82//82 129//129
f 82//82 111//111 134//134
f 82//82 116//116 36//36
f 134//134 116//116 82//82
f 116//116 115//115 36//36
f 134//134 115//115 116//116
f 111//111 40//40 134//134
f 5//5 40//40 111//111
f 29//29 106//106 103//103
f 103//103 105//105 129//129
f 106//106 105//105 103//103
f 104//104 105//105 106//106
f 105//105 32//32 129//129
f 104//104 32//32 105//105
f 104//104 107//107 32//32
f 106//106 107//107 104//104
f 5//5 111//111 112//112
f 111//111 32//32 107//107
f 111//111 107//107 112//112
f 97//97 109//109 29//29
f 108//108 109//109 97//97
f 109//109 106//106 29//29
f 107//107 106//106 110//110
f 106//106 109//109 110//110
f 110//110 109//109 112//112
f 109//109 108//108 112//112
f 110//110 112//112 107//107
f 135//135 134//134 137//137
f 134//134 40//40 137//137
f 108//108 97//97 96//96
f 96//96 30//30 108//108
f 30//30 33//33 108//108
f 130//130 33//33 30//30
f 108//108 33//33 112//112
f 33//33 5//5 112//112
f 139//139 5//5 33//33
f 137//137 40//40 5//5
f 137//137 5//5 139//139
f 130//130 139//139 138//138
f 130//130 138//138 33//33
f 138//138 139//139 33//33
f 37//37 115//115 134//134
f 6//6 115//115 37//37
f 37//37 134//134 135//135
f 41//41 135//135 137//137
f 41//41 136//136 135//135
f 136//136 6//6 37//37
f 136//136 37//37 135//135
f 8//8 154//154 143//143
f 143//143 154//154 34//34
f 143//143 34//34 35//35
f 114//114 85//85 86//86
f 114//114 86//86 69//69
f 113//113 85//85 114//114
f 113//113 114//114 117//117
f 69//69 117//117 114//114
f 35//35 113//113 42//42
f 42//42 113//113 117//117
f 42//42 117//117 145//145
f 6//6 3//3 115//115
f 119//119 3//3 6//6
f 117//117 146//146 145//145
f 145//145 146//146 9//9
f 145//145 9//9 144//144
f 144//144 42//42 145//145
f 117//117 28//28 148//148
f 117//117 148//148 146//146
f 28//28 3//3 148//148
f 3//3 118//118 148//148
f 9//9 146//146 147//147
f 147//147 118//118 244//244
f 148//148 118//118 147//147
f 146//146 148//148 147//147
f 3//3 119//119 118//118
f 120//120 123//123 122//122
f 123//123 124//124 122//122
f 169//169 123//123 120//120
f 170//170 124//124 123//123
f 124//124 171//171 122//122
f 170//170 171//171 124//124
f 170//170 172//172 171//171
f 4//4 101//101 126//126
f 101//101 100//100 126//126
f 126//126 127//127 4//4
f 4//4 127//127 152//152
f 4//4 125//125 38//38
f 120//120 125//125 4//4
f 125//125 120//120 38//38
f 122//122 131//131 121//121
f 121//121 128//128 94//94
f 132//132 128//128 121//121
f 132//132 121//121 131//131
f 139//139 132//132 140//140
f 140//140 132//132 133//133
f 171//171 131//131 122//122
f 132//132 131//131 171//171
f 133//133 132//132 171//171
f 153//153 190//190 133//133
f 190//190 189//189 133//133
f 133//133 189//189 140//140
f 34//34 141//141 31//31
f 34//34 154//154 141//141
f 141//141 7//7 31//31
f 126//126 100//100 31//31
f 126//126 31//31 7//7
f 127//127 126//126 7//7
f 141//141 155//155 7//7
f 139//139 41//41 137//137
f 140//140 41//41 139//139
f 177//177 41//41 140//140
f 177//177 140//140 10//10
f 10//10 140//140 188//188
f 156//156 10//10 157//157
f 10//10 156//156 177//177
f 141//141 154//154 155//155
f 177//177 178//178 41//41
f 178//178 142//142 41//41
f 41//41 142//142 136//136
f 178//178 12//12 142//142
f 136//136 142//142 6//6
f 8//8 143//143 9//9
f 143//143 144//144 9//9
f 143//143 35//35 42//42
f 143//143 42//42 144//144
f 142//142 149//149 6//6
f 13//13 149//149 161//161
f 149//149 142//142 161//161
f 243//243 242//242 52//52
f 18//18 242//242 243//243
f 243//243 52//52 51//51
f 18//18 243//243 241//241
f 150//150 244//244 245//245
f 245//245 244//244 118//118
f 249//249 18//18 241//241
f 249//249 241//241 51//51
f 241//241 243//243 51//51
f 119//119 151//151 118//118
f 151//151 150//150 245//245
f 151//151 245//245 118//118
f 248//248 246//246 247//247
f 247//247 246//246 52//52
f 52//52 162//162 51//51
f 162//162 163//163 51//51
f 51//51 163//163 240//240
f 6//6 149//149 119//119
f 149//149 151//151 119//119
f 150//150 149//149 13//13
f 151//151 149//149 150//150
f 162//162 52//52 246//246
f 162//162 246//246 248//248
f 251//251 248//248 20//20
f 162//162 248//248 251//251
f 166//166 180//180 120//120
f 169//169 170//170 123//123
f 170//170 173//173 172//172
f 43//43 164//164 165//165
f 155//155 164//164 43//43
f 7//7 43//43 127//127
f 155//155 43//43 7//7
f 165//165 166//166 167//167
f 167//167 166//166 120//120
f 120//120 4//4 167//167
f 4//4 152//152 167//167
f 167//167 152//152 165//165
f 165//165 152//152 127//127
f 165//165 127//127 43//43
f 190//190 153//153 171//171
f 153//153 133//133 171//171
f 190//190 171//171 172//172
f 189//189 190//190 172//172
f 176//176 12//12 178//178
f 179//179 12//12 176//176
f 178//178 157//157 176//176
f 156//156 157//157 177//177
f 177//177 157//157 178//178
f 140//140 189//189 188//188
f 188//188 157//157 10//10
f 157//157 188//188 189//189
f 159//159 253//253 158//158
f 158//158 154//154 8//8
f 155//155 154//154 158//158
f 253//253 155//155 158//158
f 249//249 53//53 54//54
f 239//239 53//53 249//249
f 238//238 53//53 239//239
f 175//175 21//21 54//54
f 238//238 54//54 53//53
f 175//175 54//54 238//238
f 11//11 161//161 160//160
f 11//11 13//13 161//161
f 160//160 142//142 12//12
f 161//161 142//142 160//160
f 250//250 19//19 55//55
f 22//22 19//19 250//250
f 250//250 55//55 17//17
f 257//257 163//163 162//162
f 174//174 163//163 257//257
f 257//257 56//56 256//256
f 257//257 256//256 255//255
f 12//12 179//179 260//260
f 163//163 239//239 44//44
f 238//238 239//239 163//163
f 239//239 249//249 51//51
f 239//239 51//51 240//240
f 44//44 240//240 163//163
f 239//239 240//240 44//44
f 257//257 251//251 56//56
f 257//257 162//162 251//251
f 56//56 251//251 20//20
f 14//14 168//168 164//164
f 164//164 168//168 165//165
f 168//168 166//166 165//165
f 46//46 166//166 168//168
f 46//46 168//168 45//45
f 180//180 169//169 120//120
f 180//180 173//173 169//169
f 170//170 169//169 173//173
f 172//172 173//173 183//183
f 173//173 184//184 183//183
f 189//189 172//172 183//183
f 189//189 183//183 191//191
f 191//191 183//183 184//184
f 189//189 191//191 204//204
f 155//155 185//185 164//164
f 164//164 185//185 14//14
f 252//252 155//155 253//253
f 252//252 253//253 159//159
f 155//155 252//252 185//185
f 252//252 159//159 185//185
f 185//185 159//159 254//254
f 175//175 186//186 21//21
f 186//186 175//175 174//174
f 189//189 192//192 157//157
f 192//192 179//179 157//157
f 192//192 260//260 179//179
f 179//179 176//176 157//157
f 174//174 238//238 163//163
f 175//175 238//238 174//174
f 255//255 187//187 257//257
f 187//187 174//174 257//257
f 259//259 258//258 57//57
f 267//267 258//258 259//259
f 17//17 261//261 250//250
f 17//17 260//260 261//261
f 250//250 261//261 22//22
f 261//261 265//265 22//22
f 261//261 260//260 265//265
f 194//194 265//265 260//260
f 185//185 198//198 14//14
f 185//185 254//254 198//198
f 181//181 195//195 180//180
f 166//166 46//46 180//180
f 46//46 45//45 180//180
f 45//45 195//195 181//181
f 45//45 181//181 180//180
f 14//14 262//262 263//263
f 14//14 263//263 168//168
f 263//263 45//45 168//168
f 199//199 14//14 198//198
f 199//199 198//198 254//254
f 60//60 14//14 199//199
f 195//195 45//45 270//270
f 270//270 45//45 263//263
f 262//262 270//270 263//263
f 195//195 47//47 180//180
f 196//196 47//47 195//195
f 173//173 47//47 196//196
f 182//182 173//173 180//180
f 173//173 182//182 47//47
f 182//182 180//180 47//47
f 173//173 282//282 184//184
f 21//21 186//186 254//254
f 186//186 276//276 254//254
f 186//186 218//218 277//277
f 186//186 277//277 276//276
f 186//186 174//174 187//187
f 186//186 187//187 218//218
f 218//218 187//187 203//203
f 187//187 255//255 203//203
f 205//205 204//204 191//191
f 204//204 192//192 189//189
f 59//59 207//207 193//193
f 264//264 59//59 58//58
f 194//194 264//264 265//265
f 265//265 58//58 22//22
f 264//264 58//58 265//265
f 205//205 260//260 192//192
f 205//205 192//192 204//204
f 57//57 268//268 259//259
f 57//57 266//266 268//268
f 266//266 267//267 268//268
f 268//268 267//267 259//259
f 255//255 193//193 203//203
f 193//193 206//206 203//203
f 205//205 211//211 264//264
f 211//211 59//59 264//264
f 205//205 194//194 260//260
f 264//264 194//194 205//205
f 213//213 212//212 206//206
f 59//59 213//213 207//207
f 207//207 213//213 206//206
f 207//207 206//206 193//193
f 262//262 197//197 270//270
f 270//270 197//197 195//195
f 196//196 216//216 173//173
f 216//216 215//215 173//173
f 215//215 214//214 173//173
f 195//195 197//197 196//196
f 196//196 197//197 216//216
f 197//197 23//23 216//216
f 216//216 23//23 215//215
f 23//23 197//197 274//274
f 197//197 262//262 269//269
f 197//197 269//269 274//274
f 23//23 282//282 215//215
f 214//214 282//282 173//173
f 215//215 282//282 214//214
f 184//184 200//200 191//191
f 282//282 200//200 184//184
f 254//254 276//276 199//199
f 276//276 16//16 60//60
f 276//276 60//60 199//199
f 277//277 16//16 276//276
f 48//48 205//205 191//191
f 48//48 191//191 201//201
f 191//191 225//225 201//201
f 220//220 202//202 201//201
f 212//212 203//203 206//206
f 218//218 203//203 212//212
f 201//201 208//208 48//48
f 211//211 208//208 201//201
f 48//48 208//208 205//205
f 211//211 205//205 208//208
f 59//59 211//211 213//213
f 211//211 15//15 210//210
f 211//211 210//210 213//213
f 210//210 271//271 272//272
f 213//213 228//228 212//212
f 210//210 272//272 213//213
f 201//201 202//202 211//211
f 211//211 209//209 15//15
f 202//202 209//209 211//211
f 202//202 220//220 209//209
f 209//209 273//273 15//15
f 228//228 213//213 272//272
f 273//273 272//272 271//271
f 228//228 272//272 273//273
f 219//219 277//277 218//218
f 279//279 23//23 274//274
f 279//279 274//274 269//269
f 23//23 279//279 275//275
f 279//279 269//269 278//278
f 279//279 278//278 275//275
f 280//280 281//281 23//23
f 281//281 224//224 282//282
f 281//281 282//282 23//23
f 16//16 217//217 24//24
f 217//217 284//284 24//24
f 212//212 228//228 218//218
f 228//228 273//273 229//229
f 228//228 229//229 218//218
f 16//16 277//277 49//49
f 277//277 219//219 229//229
f 229//229 219//219 218//218
f 277//277 229//229 49//49
f 49//49 229//229 273//273
f 16//16 49//49 217//217
f 49//49 227//227 284//284
f 230//230 227//227 49//49
f 230//230 49//49 273//273
f 49//49 284//284 217//217
f 273//273 209//209 233//233
f 209//209 232//232 233//233
f 209//209 220//220 231//231
f 232//232 220//220 233//233
f 209//209 231//231 232//232
f 231//231 220//220 232//232
f 191//191 200//200 221//221
f 225//225 191//191 221//221
f 273//273 233//233 230//230
f 233//233 225//225 223//223
f 233//233 223//223 230//230
f 220//220 201//201 233//233
f 201//201 225//225 233//233
f 225//225 221//221 222//222
f 223//223 225//225 222//222
f 282//282 224//224 200//200
f 200//200 224//224 221//221
f 222//222 221//221 224//224
f 224//224 283//283 223//223
f 224//224 223//223 222//222
f 281//281 280//280 283//283
f 281//281 283//283 224//224
f 24//24 284//284 283//283
f 284//284 227//227 283//283
f 223//223 226//226 230//230
f 223//223 283//283 227//227
f 223//223 227//227 226//226
f 226//226 227//227 230//230
