# decimated by Tools/decimate_anatomy.py from 8576 triangles (BodyParts3D, CC BY 4.0)
v -0.00498987 0.00203090 0.04480786
v -0.00716174 0.00129991 0.04462294
v -0.00578698 0.01203042 0.04495025
v -0.00662322 0.01198186 0.05250150
v -0.00842954 0.01243309 0.05883243
v -0.01233194 0.01842824 0.08238978
v -0.01185888 0.00921533 0.09679791
v -0.01159401 0.01575494 0.08843358
v -0.01344163 0.01700663 0.09787602
v -0.00982188 0.00024449 0.04440938
v -0.01172733 0.00326887 0.04852282
v -0.01125247 0.00770675 0.06068190
v -0.01411228 0.01014954 0.08607008
v -0.01626074 0.01901102 0.09698939
v -0.01551261 0.00971442 0.10165166
v -0.00719829 0.00909154 0.04384648
v -0.01452572 0.00994866 0.06404117
v -0.01596167 0.01374665 0.06743141
v -0.01761713 0.01860921 0.09607676
v -0.01776741 0.01862578 0.09791783
v -0.01805126 0.01811821 0.09726432
v -0.01915272 0.01835040 0.09635778
v -0.01771907 0.01798324 0.10041196
v -0.01899598 0.01863102 0.09812711
v -0.01780645 0.01618029 0.10185570
v -0.01496573 0.00850068 0.04498336
v -0.01420284 0.00674201 0.04761659
v -0.02013053 0.00974780 0.09030177
v -0.02099966 0.00769519 0.09314765
v -0.02141917 0.00690484 0.09430540
v -0.02272500 0.01611335 0.09307145
v -0.02292244 0.01463107 0.09301558
v -0.02257177 0.01614027 0.09288895
v -0.02231716 0.01249186 0.10201235
v -0.00484301 0.00441555 0.04424915
v -0.00547472 0.00739470 0.05459271
v -0.00608877 0.00199295 0.04430213
v -0.00574841 0.00768567 0.04458577
v -0.00567227 0.01048765 0.04371403
v -0.00565186 0.01139526 0.04402317
v -0.00788466 0.01045945 0.04431141
v -0.00810202 0.01317050 0.05131136
v -0.00937778 0.00012555 0.04464195
v -0.01159009 0.00062029 0.04596945
v -0.00874467 0.00167389 0.04826777
v -0.01522300 0.01763483 0.10047826
v -0.01173140 0.00539112 0.04361361
v -0.01149814 0.01043024 0.04319327
v -0.01737481 0.01550447 0.07338509
v -0.01268331 0.00417069 0.04534560
v -0.01487627 0.00852332 0.04811889
v -0.01984148 0.00711716 0.09322073
v -0.02071772 0.01696015 0.08995057
v -0.02220093 0.01737423 0.09884067
v -0.02228246 0.01617160 0.09264147
v -0.00588776 0.00166462 0.04870121
v -0.00650360 0.01115323 0.05056981
v -0.01140118 0.01715918 0.07635858
v -0.01250484 0.01393708 0.09463141
v -0.01261835 0.01336006 0.09468393
v -0.01232465 0.01815806 0.09614143
v -0.00732055 0.00128649 0.04404987
v -0.01090774 0.00785722 0.06066235
v -0.01289143 0.00888717 0.06480468
v -0.01324146 0.01003732 0.07070604
v -0.01278699 0.01123669 0.07948213
v -0.01545939 0.01015121 0.08362236
v -0.01334372 0.00954546 0.09102582
v -0.01420224 0.01846299 0.09788576
v -0.01452403 0.01905531 0.09748512
v -0.01546293 0.01915756 0.09786365
v -0.01454787 0.01854567 0.09856290
v -0.01269980 0.00690016 0.05770350
v -0.01257818 0.01182066 0.04817851
v -0.01359673 0.00832355 0.09312235
v -0.01498202 0.01891856 0.09465848
v -0.01510061 0.00834120 0.04747110
v -0.02046085 0.00668145 0.09609917
v -0.02158862 0.01788625 0.09534519
v -0.02167666 0.01647599 0.10055247
v -0.01465564 0.01029183 0.10201522
v -0.02139820 0.01480385 0.08935015
v -0.02238902 0.01742409 0.09487429
v -0.00542145 0.00203390 0.04486339
v -0.00600555 0.01075022 0.04365255
v -0.00922552 0.00129136 0.04682679
v -0.01302079 0.01818687 0.09177186
v -0.01295647 0.01033812 0.10022640
v -0.01388927 0.00940689 0.10073646
v -0.01100524 0.00006970 0.04549719
v -0.01386266 0.01751319 0.07386402
v -0.01462583 0.01801011 0.09953180
v -0.01694904 0.01647765 0.10155618
v -0.01103354 0.01093052 0.04325715
v -0.01139254 0.01052364 0.04315743
v -0.01183711 0.01071342 0.04333446
v -0.01239082 0.01071685 0.04365583
v -0.01337699 0.01241182 0.05482539
v -0.01656051 0.01437265 0.06967979
v -0.02146090 0.00964342 0.09285603
v -0.02133165 0.00727902 0.09370905
v -0.02353567 0.00981107 0.09897776
v -0.02055474 0.00820765 0.09999255
v -0.00534453 0.01117342 0.04418537
v -0.00472244 0.00193732 0.04754369
v -0.00582099 0.00164673 0.04694451
v -0.00489463 0.00728356 0.04629211
v -0.00462372 0.00689260 0.04703900
v -0.00503050 0.00762643 0.04622908
v -0.00539166 0.01193519 0.04558880
v -0.00437514 0.00572272 0.04676217
v -0.00411507 0.00697957 0.04909613
v -0.00492958 0.00772182 0.04702974
v -0.00422862 0.00791445 0.04886476
v -0.00526772 0.01150236 0.04529942
v -0.00445769 0.00902030 0.04904974
v -0.00448733 0.00903486 0.04879329
v -0.00445272 0.00212320 0.04776329
v -0.00535565 0.00339917 0.05148055
v -0.00549211 0.00940843 0.05194837
v -0.00549631 0.00978700 0.05094882
v -0.00603528 0.01036633 0.05078223
v -0.00543297 0.00955229 0.05161029
v -0.00542188 0.00995157 0.05053170
v -0.00630839 0.01059164 0.05692684
v -0.00575396 0.00711749 0.04448085
v -0.00526937 0.00935162 0.04454160
v -0.00564601 0.01052269 0.04372775
v -0.00555581 0.01142041 0.04417319
v -0.00598437 0.01085094 0.04364157
v -0.00707666 0.00928836 0.04384229
v -0.00705907 0.01094988 0.04435573
v -0.00531860 0.00202662 0.04491335
v -0.00744602 0.00134267 0.04954144
v -0.00763497 0.01046594 0.04427483
v -0.00668938 0.01200045 0.04516686
v -0.00546651 0.01195195 0.04531679
v -0.00577118 0.01255247 0.04675605
v -0.00551094 0.01203093 0.04541931
v -0.00580204 0.01264321 0.04814291
v -0.00577871 0.01200567 0.04510844
v -0.00608727 0.00218473 0.04993379
v -0.00697575 0.00144863 0.04947450
v -0.00690207 0.01306294 0.04852752
v -0.00583452 0.01055475 0.05033999
v -0.00546645 0.01128975 0.04941032
v -0.00638610 0.01073245 0.05100176
v -0.00668495 0.01136378 0.05062840
v -0.00657832 0.01099111 0.05095758
v -0.00609082 0.01152946 0.05260325
v -0.00672973 0.01164863 0.05148343
v -0.00675814 0.01214509 0.05259349
v -0.00673214 0.01204847 0.05063075
v -0.00683527 0.01226421 0.05075901
v -0.00641034 0.01160687 0.05021168
v -0.00628533 0.01282116 0.04651787
v -0.00823719 0.01303340 0.04913087
v -0.00692406 0.00704551 0.05569527
v -0.00875624 0.00415266 0.05360860
v -0.00687625 0.01178601 0.05432535
v -0.00950345 0.01401075 0.05710170
v -0.00713386 0.01099070 0.05811698
v -0.00905184 0.00951549 0.06201233
v -0.00970796 0.01337235 0.06477204
v -0.00992843 0.01162283 0.06677199
v -0.01130058 0.01333751 0.07944790
v -0.01131618 0.01727591 0.08527698
v -0.01267162 0.01177256 0.08369372
v -0.01291681 0.01090086 0.09135426
v -0.01373399 0.00887109 0.09141102
v -0.01270753 0.01832257 0.09044066
v -0.01258296 0.01300432 0.09661837
v -0.01217318 0.01352881 0.08961634
v -0.01262339 0.01234500 0.09623511
v -0.01172155 0.01552981 0.09570027
v -0.01202869 0.01532305 0.09446957
v -0.01214152 0.01708267 0.09644624
v -0.01299408 0.01874837 0.09581470
v -0.01314684 0.01882154 0.09626539
v -0.01235977 0.01824411 0.09612060
v -0.01362694 0.01854394 0.09716731
v -0.01253634 0.00811536 0.09647024
v -0.01389140 0.01417785 0.10072813
v -0.01355302 0.01226418 0.10129130
v -0.01156114 0.00488689 0.04359014
v -0.01136895 0.00046252 0.04522818
v -0.01176037 0.00115842 0.04652372
v -0.01080936 0.00212270 0.04819308
v -0.01132811 0.00101227 0.04690220
v -0.01120870 0.00164744 0.04759150
v -0.01114643 0.00244418 0.04830784
v -0.01020961 0.01161291 0.04590066
v -0.00755751 0.01167243 0.04521956
v -0.00940923 0.00190277 0.05035194
v -0.00920492 0.00179288 0.04851088
v -0.01024614 0.00211233 0.04903927
v -0.00886318 0.00274022 0.05202735
v -0.01156090 0.00368172 0.05122634
v -0.01139855 0.00281116 0.04844889
v -0.01010686 0.00230358 0.04983034
v -0.01161846 0.00325729 0.04861843
v -0.01115545 0.00319551 0.05037725
v -0.01037150 0.01034961 0.06612680
v -0.01219953 0.00923532 0.06616676
v -0.01220272 0.00772882 0.06098642
v -0.01290601 0.00923453 0.06602283
v -0.01208106 0.01653823 0.06495048
v -0.01115058 0.01563568 0.06425463
v -0.01181210 0.01734267 0.07416235
v -0.01235830 0.01815792 0.07880266
v -0.01241837 0.01753352 0.07247186
v -0.00975046 0.00940618 0.06266362
v -0.01100652 0.01084037 0.06987122
v -0.01363244 0.01011864 0.07064313
v -0.01393012 0.01043792 0.07379326
v -0.01155124 0.01094520 0.07166519
v -0.01511133 0.01043611 0.08168742
v -0.01385307 0.01060382 0.08275207
v -0.01369037 0.01063752 0.08630578
v -0.01245895 0.01311411 0.08862082
v -0.01286576 0.01846200 0.09464831
v -0.01391493 0.01903360 0.09597915
v -0.01418145 0.01913818 0.09639872
v -0.01395578 0.01861542 0.09746368
v -0.01550755 0.01903864 0.09637355
v -0.01539308 0.00870349 0.10058512
v -0.01382196 0.01518921 0.09852370
v -0.01446542 0.01806808 0.09928513
v -0.01517515 0.01399043 0.10230144
v -0.01573803 0.01910631 0.09869666
v -0.01514810 0.01892727 0.09842788
v -0.01475159 0.01335159 0.10219857
v -0.01474981 0.01396333 0.10194737
v -0.01426267 0.01539772 0.10063066
v -0.01102808 0.00054896 0.04485101
v -0.00906022 0.00634415 0.04386277
v -0.00815213 0.00556245 0.04393943
v -0.01149149 0.00419023 0.04379733
v -0.01266985 0.00420164 0.04526835
v -0.00638588 0.00983037 0.04390151
v -0.01010534 0.01098261 0.04418315
v -0.01091479 0.01096698 0.04326305
v -0.01212254 0.00244362 0.04531556
v -0.01153072 0.00093528 0.04679243
v -0.01117198 0.00231446 0.04828154
v -0.01171034 0.00377208 0.05124477
v -0.01236319 0.00424393 0.04821674
v -0.01102463 0.01100863 0.04336517
v -0.00880292 0.01256318 0.04814285
v -0.01063131 0.01145725 0.04533981
v -0.01189293 0.01172711 0.04699165
v -0.01043766 0.00580457 0.05625899
v -0.01232941 0.00761909 0.06067704
v -0.01397727 0.00940311 0.06440969
v -0.01365794 0.00769291 0.05622846
v -0.00845334 0.01311926 0.05134817
v -0.01388630 0.00806470 0.05643016
v -0.01411535 0.00898652 0.05930789
v -0.01437854 0.00997969 0.05962240
v -0.01325873 0.00779759 0.05966765
v -0.01426266 0.00937991 0.06236523
v -0.01584347 0.01341278 0.06748317
v -0.01323543 0.00916552 0.06556864
v -0.01606947 0.01107157 0.07932885
v -0.01439076 0.00939781 0.08818560
v -0.01554248 0.01057462 0.08098955
v -0.01623951 0.00821148 0.09059880
v -0.01634163 0.00939875 0.08653328
v -0.01753698 0.00883387 0.08920511
v -0.01888906 0.00797366 0.10015437
v -0.01286589 0.00810379 0.09692983
v -0.01617150 0.00822244 0.10012129
v -0.01708668 0.00795869 0.09987487
v -0.01663393 0.01888749 0.09659437
v -0.01663714 0.01885730 0.09688065
v -0.01753982 0.01846373 0.09752096
v -0.01646815 0.01896907 0.09771310
v -0.01751591 0.01842915 0.09725655
v -0.01811311 0.01826502 0.09759632
v -0.01784923 0.01852759 0.09782392
v -0.01847697 0.01820766 0.09689274
v -0.01873197 0.01819305 0.09736642
v -0.01951577 0.01828543 0.09726226
v -0.01741885 0.01877921 0.09797813
v -0.01577939 0.01909215 0.09877502
v -0.01736222 0.01880018 0.09885905
v -0.01884381 0.01855805 0.09802246
v -0.01920749 0.01825838 0.09740181
v -0.01274248 0.00568117 0.04436169
v -0.01239263 0.00426003 0.04817495
v -0.01432930 0.00780057 0.04868948
v -0.01448191 0.00848116 0.04908658
v -0.01358230 0.00691239 0.05090050
v -0.01440699 0.00828841 0.04903317
v -0.01467658 0.00832749 0.04854365
v -0.01481453 0.00827635 0.04814500
v -0.01320847 0.01264529 0.05491796
v -0.01499006 0.00858403 0.04496350
v -0.01553098 0.01112566 0.07154539
v -0.01532363 0.01097164 0.07138995
v -0.01834501 0.01431894 0.07774664
v -0.01894122 0.01257173 0.08357023
v -0.01852805 0.00992987 0.08819355
v -0.01957950 0.01124329 0.08799278
v -0.02121060 0.01121547 0.09153048
v -0.01780130 0.00897199 0.08912328
v -0.01920594 0.00717373 0.09301328
v -0.02151732 0.01095964 0.09238218
v -0.02126688 0.01412718 0.08916473
v -0.02054191 0.01704611 0.08975513
v -0.02228449 0.00731567 0.09756046
v -0.01905141 0.00721148 0.09859663
v -0.02149285 0.00694384 0.09418898
v -0.02038401 0.00726194 0.09827630
v -0.02131990 0.01794418 0.09517032
v -0.01887793 0.01839744 0.09630859
v -0.01942097 0.01827624 0.09702590
v -0.01984257 0.01645640 0.10111383
v -0.02121456 0.01774507 0.09842365
v -0.02196387 0.01771590 0.09627236
v -0.02189608 0.01651340 0.10033340
v -0.02146337 0.01767766 0.09882894
v -0.02036775 0.01130148 0.10185104
v -0.01753961 0.01382901 0.10252494
v -0.02221079 0.01467803 0.10118990
v -0.01811864 0.01607145 0.10185595
v -0.02211202 0.01292893 0.09308597
v -0.02188601 0.01332277 0.09160520
v -0.02207972 0.01391184 0.09206195
v -0.02220784 0.01403981 0.09242169
v -0.02231110 0.01442334 0.09249788
v -0.02244785 0.01530784 0.09267429
v -0.02147767 0.01043056 0.09260874
v -0.02227650 0.00951185 0.09447759
v -0.02217685 0.01233426 0.09383832
v -0.02231975 0.01323297 0.09328550
v -0.02219955 0.01410329 0.09234822
v -0.02233216 0.01297388 0.09404205
v -0.02289641 0.01461960 0.09295569
v -0.02291851 0.01457834 0.09299208
v -0.02243469 0.01337027 0.09345079
v -0.02263588 0.01540487 0.09284969
v -0.02288550 0.01499848 0.09299973
v -0.02295483 0.01479983 0.09428225
v -0.02312197 0.01546472 0.09383149
v -0.02297718 0.01508180 0.09329095
v -0.02307309 0.01590085 0.09417516
v -0.01701243 0.01854633 0.08988693
v -0.02243595 0.01731646 0.09427988
v -0.02171855 0.01779622 0.09495275
v -0.02234932 0.00714600 0.09622275
v -0.02294869 0.01028853 0.09613453
v -0.02275802 0.01597455 0.09630082
v -0.02216052 0.01759606 0.09576883
v -0.02309681 0.01654542 0.09430637
v -0.02266265 0.01696811 0.09610115
v -0.02311345 0.01620193 0.09867899
v -0.02275765 0.01631512 0.09628560
v -0.02316481 0.01170507 0.09742259
v -0.02347087 0.01189812 0.09884836
v -0.02326304 0.01491107 0.09967262
v -0.00499391 0.00424217 0.04400286
v -0.00512834 0.00225471 0.04462807
v -0.00493552 0.00787371 0.04690473
v -0.00535774 0.00784055 0.04514519
v -0.00520202 0.00890340 0.04485678
v -0.00520539 0.00925352 0.04469456
v -0.00563555 0.00970164 0.05494918
v -0.00892721 0.00964286 0.06192107
v -0.00724062 0.00126605 0.04444819
v -0.00644474 0.00185776 0.04438678
v -0.00726752 0.00135438 0.04404691
v -0.00702195 0.00217360 0.04384234
v -0.00662359 0.00744940 0.04421047
v -0.00577028 0.01066894 0.04367453
v -0.00573239 0.01053855 0.04369788
v -0.00648844 0.00792766 0.04415637
v -0.00586858 0.00897645 0.04417011
v -0.00573900 0.01065397 0.04369656
v -0.00554056 0.01067610 0.04382380
v -0.00601400 0.01140919 0.04400695
v -0.00687265 0.01040542 0.04405642
v -0.00860405 0.01033104 0.04392684
v -0.00915001 0.01071440 0.04414815
v -0.00837900 0.01072821 0.04462783
v -0.00736595 0.00915750 0.04380772
v -0.00916495 0.00116028 0.04657414
v -0.00760845 0.00186948 0.04648305
v -0.00739681 0.00142536 0.04530539
v -0.00867312 0.00164400 0.04787145
v -0.00789424 0.00184711 0.04695561
v -0.00867381 0.00155713 0.04714401
v -0.00637190 0.01197401 0.04512983
v -0.00626270 0.01266477 0.04937162
v -0.00758789 0.01297857 0.05352990
v -0.00681728 0.01228135 0.05204089
v -0.00683286 0.01209768 0.05156429
v -0.01316165 0.01841961 0.09325665
v -0.01183046 0.01651081 0.08905512
v -0.01228465 0.01789794 0.09522913
v -0.01182542 0.00936888 0.09691510
v -0.01266383 0.00965278 0.09255009
v -0.01263258 0.01312264 0.09453718
v -0.01221303 0.01452629 0.09602843
v -0.01351035 0.01411299 0.09811077
v -0.01196174 0.01740826 0.09518909
v -0.01205064 0.01563312 0.09416802
v -0.01227253 0.00931740 0.09788025
v -0.01343392 0.01110150 0.10154127
v -0.01114568 0.00018921 0.04541644
v -0.00966028 0.00110380 0.04671540
v -0.01132944 0.00059659 0.04646120
v -0.01129384 0.00031441 0.04542780
v -0.01109396 0.00015781 0.04559507
v -0.01144908 0.00048867 0.04586763
v -0.01115126 0.00020616 0.04561216
v -0.01045968 0.00116036 0.04692427
v -0.00953797 0.00148148 0.04716615
v -0.00948794 0.00155440 0.04754497
v -0.01253639 0.01614722 0.06399250
v -0.01022771 0.01447911 0.05851275
v -0.01047394 0.01360106 0.05621947
v -0.01941706 0.01750220 0.08961956
v -0.01274156 0.01688603 0.06662634
v -0.01290959 0.01116128 0.07950481
v -0.01425214 0.01081460 0.07942169
v -0.01513322 0.01781085 0.10022186
v -0.01521387 0.01593434 0.10140596
v -0.01358908 0.00708608 0.04437393
v -0.01356292 0.00853534 0.04416628
v -0.01083674 0.01052360 0.04312714
v -0.01168580 0.01062058 0.04319402
v -0.00737032 0.00775615 0.04402980
v -0.01166921 0.00922818 0.04325245
v -0.01233896 0.01108267 0.04395705
v -0.01367053 0.01120925 0.05636912
v -0.01452416 0.01081134 0.04806660
v -0.01367475 0.01204029 0.05300592
v -0.01600505 0.01640028 0.07226759
v -0.01396111 0.01555282 0.06636785
v -0.01527262 0.01369222 0.06487773
v -0.01891239 0.01863899 0.09814193
v -0.01961459 0.01827483 0.09740343
v -0.01879644 0.01859488 0.09849687
v -0.01262398 0.00402053 0.04571041
v -0.01468668 0.00744314 0.04741687
v -0.01454076 0.01011329 0.04849817
v -0.01336065 0.01232274 0.05494053
v -0.01498803 0.00899980 0.04635169
v -0.01431250 0.01098227 0.04713080
v -0.01494342 0.00907605 0.04769598
v -0.01901699 0.01546417 0.07975690
v -0.01836840 0.00854953 0.09019526
v -0.01948967 0.00999925 0.08947269
v -0.01969279 0.00800413 0.09204319
v -0.02040323 0.00812844 0.09243848
v -0.01989593 0.00712654 0.09324482
v -0.02240808 0.00780485 0.09482965
v -0.02143851 0.00725443 0.09383247
v -0.02131541 0.00701205 0.09403785
v -0.02024033 0.00699215 0.09355057
v -0.02092234 0.00716184 0.09366416
v -0.02102004 0.01457089 0.08811321
v -0.02220029 0.01617778 0.09235857
v -0.01812909 0.01598449 0.07593292
v -0.02021012 0.01572327 0.08580439
v -0.02335231 0.00925279 0.09868140
v -0.02223524 0.01736403 0.09820326
v -0.02266875 0.01682413 0.09768666
v -0.02286327 0.01619679 0.09937758
v -0.02222859 0.01410853 0.09242818
v -0.02253350 0.01708201 0.09406161
v -0.02345043 0.01111727 0.10061843
v -0.02259399 0.00917171 0.10005224
v -0.02312302 0.01104312 0.10098691
v -0.02199757 0.01154602 0.10166439
v -0.02323103 0.01577453 0.09901237
v -0.02338247 0.01375316 0.10008381
vn 0.214868 -0.973613 -0.076877
vn 0.584831 -0.745299 0.320159
vn 0.551486 0.752347 -0.360328
vn 0.735906 0.672061 0.082315
vn 0.799006 0.597117 0.071003
vn 0.721935 0.691959 0.001237
vn 0.878137 -0.476802 -0.039194
vn 0.992025 -0.124501 0.019622
vn 0.789358 0.126579 0.600743
vn -0.114019 -0.345243 -0.931561
vn -0.756098 -0.424180 0.498384
vn 0.337099 -0.877250 0.341755
vn 0.581060 -0.802508 -0.135463
vn -0.265747 0.963936 0.014315
vn 0.215663 -0.662065 0.717746
vn -0.094969 -0.060440 -0.993644
vn -0.925469 -0.377114 -0.035948
vn -0.981606 -0.025957 -0.189145
vn -0.192020 0.981171 -0.020778
vn -0.137997 0.682843 -0.717413
vn -0.241754 0.964911 0.102483
vn -0.132241 0.988952 0.066985
vn -0.103503 0.754433 0.648166
vn -0.033091 0.797136 -0.602892
vn 0.650591 0.366434 0.665175
vn -0.849155 -0.334255 -0.408913
vn -0.815915 -0.536988 0.214305
vn -0.815670 -0.323775 -0.479429
vn -0.241894 -0.721648 -0.648623
vn -0.085925 -0.936954 -0.338725
vn -0.869883 0.251918 -0.424076
vn -0.906316 0.131562 -0.401601
vn -0.644211 0.096421 -0.758746
vn -0.263320 0.081666 0.961246
vn 0.973581 0.030785 -0.226257
vn 0.915907 -0.200136 0.347936
vn 0.076608 -0.996869 -0.019595
vn 0.612433 -0.082858 -0.786168
vn 0.017122 -0.289785 -0.956939
vn 0.605108 0.459450 -0.650192
vn 0.298269 0.585825 -0.753555
vn 0.156598 0.979900 -0.123585
vn 0.319998 -0.879208 0.352980
vn -0.712047 -0.663399 0.229979
vn -0.042923 -0.993889 -0.101695
vn 0.063196 0.533930 0.843164
vn -0.059166 -0.070242 -0.995774
vn 0.127541 -0.111432 -0.985554
vn -0.652759 0.711618 -0.259819
vn -0.778760 -0.448908 -0.438195
vn -0.990624 0.067788 0.118613
vn -0.503067 -0.657727 -0.560642
vn -0.916329 0.305210 -0.259206
vn -0.532327 0.806992 0.255720
vn -0.577199 0.085779 -0.812086
vn 0.295838 -0.953328 0.060382
vn 0.670624 0.466530 0.576726
vn 0.986296 0.155211 0.055936
vn 0.959378 -0.273787 -0.068070
vn 0.986580 -0.146364 -0.072375
vn 0.896690 0.279360 0.343374
vn 0.462859 -0.875654 -0.137811
vn 0.113350 -0.871163 0.477731
vn -0.384426 -0.898784 0.210721
vn 0.317628 -0.922908 0.217606
vn 0.787430 -0.606976 0.107397
vn -0.229612 -0.940892 -0.248999
vn 0.888979 -0.423485 -0.174288
vn 0.738247 0.450528 0.502011
vn 0.273108 0.935672 0.223449
vn -0.033161 0.998598 0.041271
vn 0.500633 0.787158 0.360207
vn -0.467193 -0.839292 0.278064
vn -0.267878 0.951125 -0.153633
vn 0.312565 -0.925869 -0.212295
vn -0.039901 0.996241 -0.076883
vn -0.899846 -0.433179 -0.051319
vn 0.107384 -0.994018 0.019910
vn -0.262531 0.963815 0.046240
vn -0.289798 0.629386 0.721035
vn -0.010210 -0.296505 0.954977
vn -0.920703 0.200832 -0.334623
vn -0.689926 0.723879 0.001300
vn -0.045106 -0.988809 -0.142202
vn -0.196829 0.195729 -0.960702
vn 0.222028 -0.855161 0.468406
vn 0.105405 0.990944 -0.083185
vn 0.782866 -0.453808 0.425652
vn 0.502572 -0.695737 0.513198
vn -0.581962 -0.793683 0.177165
vn -0.161347 0.981900 -0.099195
vn 0.602719 0.498768 0.622864
vn 0.017747 0.453895 0.890878
vn -0.243470 0.739258 -0.627869
vn -0.044075 0.276219 -0.960084
vn -0.301381 0.693591 -0.654294
vn -0.601235 0.325309 -0.729856
vn -0.979371 0.000987 -0.202067
vn -0.965509 -0.142132 -0.218153
vn -0.829349 -0.209752 -0.517865
vn -0.287607 -0.696573 -0.657319
vn -0.980819 -0.105869 -0.163664
vn -0.195628 -0.630571 0.751073
vn 0.975821 0.099501 -0.194608
vn 0.925946 -0.334628 -0.175063
vn 0.159976 -0.985754 -0.051937
vn 0.936516 0.272087 -0.221149
vn 0.930136 0.288391 -0.227327
vn 0.907245 0.379070 -0.182245
vn 0.927128 0.371542 0.048896
vn 0.980367 0.030342 -0.194831
vn 0.976756 -0.020220 0.213401
vn 0.934455 0.269951 -0.232208
vn 0.996795 0.071942 -0.034982
vn 0.973965 0.210381 -0.084446
vn 0.925409 0.345269 0.156230
vn 0.981968 0.113443 -0.151226
vn 0.913426 -0.359660 0.190522
vn 0.741895 -0.444955 0.501603
vn 0.999112 0.026231 0.032963
vn 0.613557 0.738462 0.279681
vn 0.702858 0.633141 0.324228
vn 0.950855 0.181091 0.251159
vn 0.804364 0.463882 0.371231
vn 0.908593 0.213946 0.358727
vn 0.261109 0.165790 -0.950966
vn 0.690819 -0.243875 -0.680657
vn 0.844932 -0.306228 -0.438538
vn 0.655788 0.605856 -0.450422
vn 0.042705 -0.143757 -0.988691
vn -0.193366 0.241249 -0.951004
vn -0.401268 0.432057 -0.807657
vn -0.023289 -0.991557 -0.127560
vn -0.108894 -0.990220 -0.087218
vn -0.335136 0.403382 -0.851450
vn -0.345963 0.844397 -0.409027
vn 0.803089 0.534580 -0.263197
vn 0.600181 0.785391 -0.151471
vn 0.562221 0.770763 -0.299719
vn 0.778398 0.620372 0.096101
vn 0.320616 0.849697 -0.418593
vn 0.473794 -0.791205 0.386671
vn 0.241753 -0.831918 0.499468
vn 0.162431 0.985874 -0.040850
vn 0.602729 0.523468 0.602244
vn 0.884735 0.396295 0.245344
vn 0.808987 0.550639 -0.205758
vn 0.959115 0.212410 0.187032
vn 0.880881 0.465382 0.086423
vn 0.871441 0.489302 0.034253
vn 0.830873 0.462755 -0.309042
vn 0.839739 0.542990 -0.000740
vn 0.819056 0.053882 0.571178
vn 0.946297 0.167409 0.276578
vn 0.758077 0.312119 0.572627
vn -0.035699 0.959987 -0.277760
vn -0.243558 0.944904 -0.218715
vn 0.498050 -0.671629 0.548508
vn 0.202951 -0.805033 0.557433
vn 0.734972 0.660124 0.155091
vn 0.713098 0.694788 0.093597
vn 0.926998 0.255869 0.274236
vn 0.793257 -0.369556 0.483912
vn 0.913313 0.399258 0.080334
vn 0.971588 -0.024125 0.235445
vn 0.975641 -0.204449 0.079536
vn 0.994551 0.082880 0.063239
vn 0.910896 -0.406384 0.071561
vn 0.984333 -0.176304 -0.002284
vn 0.547486 -0.792914 -0.267481
vn 0.284925 0.958252 -0.023883
vn 0.972462 0.031006 0.230990
vn 0.964451 -0.262535 0.030145
vn 0.964363 0.203700 0.168850
vn 0.934315 -0.058839 0.351559
vn 0.925729 -0.307906 -0.219589
vn 0.809719 0.088431 0.580117
vn 0.541306 0.830371 -0.132177
vn 0.473089 0.832166 0.289287
vn 0.690760 0.514702 0.507870
vn 0.581613 0.627490 0.517670
vn 0.358877 -0.931979 -0.051210
vn 0.956019 0.220392 0.193531
vn 0.924377 0.254710 0.283991
vn -0.080310 -0.093959 -0.992332
vn -0.789781 -0.345569 -0.506782
vn -0.931841 -0.332226 0.145938
vn -0.151993 -0.892917 0.423788
vn 0.078072 -0.856048 0.510967
vn 0.071089 -0.764213 0.641035
vn -0.609331 -0.505446 0.610934
vn -0.191310 0.758440 -0.623032
vn -0.230618 0.839803 -0.491473
vn -0.107511 -0.890953 0.441185
vn -0.240239 -0.967539 0.078446
vn -0.431955 -0.864077 0.258431
vn -0.067653 -0.814456 0.576268
vn -0.505948 -0.786428 0.354326
vn -0.578817 -0.561788 0.591071
vn -0.611079 -0.768384 0.190182
vn -0.695659 -0.690579 0.197887
vn -0.606536 -0.782501 0.140737
vn 0.810415 -0.509759 0.288743
vn 0.321886 -0.908548 0.266329
vn -0.072273 -0.949639 0.304899
vn -0.055734 -0.971927 0.228587
vn 0.720542 0.693391 -0.005334
vn 0.797871 0.602807 0.005081
vn 0.763612 0.642565 -0.063302
vn 0.620714 0.780364 -0.075808
vn 0.554887 0.828023 -0.080487
vn 0.480510 -0.778639 0.403525
vn 0.889823 -0.412334 0.195437
vn -0.311823 -0.941968 0.124349
vn -0.001719 -0.998718 0.050591
vn 0.581369 -0.801695 0.138911
vn -0.016978 -0.998426 -0.053451
vn 0.504113 -0.862839 -0.037126
vn 0.891405 -0.449866 -0.054934
vn 0.905056 -0.422853 -0.045478
vn 0.382468 0.918038 -0.104524
vn 0.212861 0.956092 -0.201443
vn 0.047481 0.998712 -0.017871
vn 0.555335 0.658830 0.507490
vn -0.105270 0.990121 -0.092626
vn 0.258270 -0.812318 0.522912
vn 0.946281 0.142293 0.290353
vn 0.891595 0.293525 0.344822
vn 0.350995 0.355004 0.866472
vn 0.134165 0.959824 0.246449
vn 0.431896 0.836253 0.337856
vn 0.298486 0.000378 0.954414
vn 0.717045 0.307860 0.625355
vn 0.722180 0.334919 0.605216
vn -0.477573 -0.328481 -0.814877
vn 0.113674 0.005851 -0.993501
vn 0.111440 0.105132 -0.988195
vn -0.630155 -0.281551 -0.723625
vn -0.752752 -0.312679 -0.579307
vn 0.072330 -0.136255 -0.988030
vn 0.252935 0.933312 -0.254858
vn 0.297442 0.709101 -0.639300
vn -0.942867 -0.320016 -0.092694
vn -0.657901 -0.536613 0.528406
vn -0.476623 -0.601601 0.641020
vn -0.556249 -0.769054 0.314868
vn -0.862660 -0.500184 0.075058
vn 0.060959 0.967219 -0.246520
vn -0.144959 0.943391 -0.298328
vn 0.013204 0.960074 -0.279436
vn -0.202305 0.956599 -0.209742
vn -0.172040 -0.905480 0.387955
vn -0.380408 -0.893223 0.239671
vn -0.554763 -0.819523 0.143600
vn -0.830123 -0.550252 0.090098
vn -0.185172 0.973542 -0.133895
vn -0.996221 -0.071436 0.049403
vn -0.972341 -0.233355 -0.009947
vn -0.984395 -0.104213 -0.141793
vn -0.743367 -0.661000 0.102395
vn -0.848378 -0.526178 0.058237
vn -0.926655 -0.357288 -0.116861
vn -0.387465 -0.911968 0.134854
vn -0.644109 -0.756396 -0.113973
vn 0.411584 -0.882834 -0.226283
vn -0.200829 -0.963326 -0.177963
vn 0.176382 -0.959247 -0.220758
vn -0.153144 -0.947535 -0.280577
vn -0.382814 -0.839820 -0.384910
vn -0.085885 -0.630627 0.771319
vn 0.207510 -0.958997 0.193040
vn 0.260968 -0.907444 0.329304
vn 0.169252 -0.931506 0.321947
vn -0.208597 0.970924 -0.117446
vn -0.368967 0.918201 0.144116
vn -0.337370 0.922125 -0.189385
vn -0.191295 0.830780 -0.522695
vn -0.427224 0.902081 0.061072
vn -0.155839 0.853389 -0.497435
vn -0.130084 0.728475 -0.672608
vn -0.007399 0.970169 0.242316
vn 0.092428 0.965196 -0.244648
vn -0.177217 0.983681 0.031075
vn -0.209198 0.976400 0.053669
vn 0.021058 0.825126 0.564556
vn -0.299709 0.919139 0.255651
vn 0.019657 0.844231 -0.535618
vn 0.068730 0.918225 -0.390049
vn -0.677426 -0.406078 -0.613347
vn -0.867598 -0.434329 0.242142
vn -0.785431 -0.472312 0.400025
vn -0.811101 -0.583612 0.038887
vn -0.888529 -0.455536 0.054798
vn -0.877670 -0.462634 0.125158
vn -0.838457 -0.401432 0.368569
vn -0.849381 -0.411452 0.330545
vn -0.268506 0.934757 -0.232667
vn -0.723944 0.397334 -0.563942
vn -0.791597 -0.600778 -0.111534
vn -0.783548 -0.621233 0.011024
vn -0.825919 -0.537685 -0.169570
vn -0.752517 -0.601420 -0.268350
vn -0.634803 -0.701317 -0.324315
vn -0.807180 -0.466672 -0.361494
vn -0.862873 -0.292960 -0.411856
vn -0.335213 -0.819746 -0.464381
vn 0.121316 -0.973055 -0.196075
vn -0.928420 -0.238920 -0.284525
vn -0.913224 -0.243215 -0.326907
vn -0.519324 0.836609 -0.174323
vn -0.506039 -0.802936 0.314989
vn 0.098137 -0.970865 0.218611
vn -0.489486 -0.860019 -0.144124
vn -0.142009 -0.924688 0.353249
vn -0.165780 0.985709 -0.029905
vn -0.148586 0.984358 0.094667
vn -0.108863 0.993671 0.027677
vn -0.207972 0.616834 0.759120
vn -0.313894 0.949017 0.028938
vn -0.319607 0.945540 0.061686
vn -0.603932 0.567045 0.560113
vn -0.288708 0.851610 0.437502
vn -0.100786 -0.367101 0.924705
vn -0.047118 0.090387 0.994792
vn -0.389535 0.336451 0.857358
vn -0.236386 0.372809 0.897293
vn -0.911833 -0.272258 -0.307304
vn -0.941457 -0.190312 -0.278280
vn -0.957407 -0.160256 -0.240185
vn -0.901621 -0.252787 -0.350967
vn -0.579151 0.055301 -0.813342
vn -0.616569 0.083882 -0.782819
vn -0.916443 -0.073881 -0.393285
vn -0.922916 0.001388 -0.385000
vn -0.930201 -0.131544 -0.342669
vn -0.871057 -0.389723 -0.298959
vn -0.964388 -0.017592 -0.263907
vn -0.986777 -0.107332 -0.121451
vn -0.761888 -0.242494 -0.600603
vn -0.952335 -0.304943 0.008208
vn -0.916891 -0.362960 -0.166045
vn -0.639414 0.103068 -0.761923
vn -0.651612 0.098809 -0.752089
vn -0.961150 -0.205381 0.184416
vn -0.990016 -0.022419 -0.139159
vn -0.921818 0.134993 -0.363357
vn -0.967823 -0.082005 0.237895
vn -0.124700 0.988348 -0.087282
vn -0.553936 0.785032 -0.277273
vn -0.374463 0.910288 -0.176504
vn -0.734424 -0.678409 -0.019545
vn -0.970328 -0.027338 -0.240242
vn -0.991513 -0.009381 -0.129669
vn -0.733203 0.678556 0.044433
vn -0.973314 0.226900 0.034284
vn -0.867984 0.495128 0.038118
vn -0.984609 0.150493 -0.088868
vn -0.997589 0.015708 0.067595
vn -0.970732 0.071595 -0.229247
vn -0.987781 0.049424 -0.147803
vn -0.734208 0.358458 0.576581
vn 0.183986 0.060108 -0.981089
vn 0.436990 -0.304060 -0.846515
vn 0.936728 -0.190654 -0.293584
vn 0.909539 0.165964 -0.381045
vn 0.929743 -0.199044 -0.309774
vn 0.960095 -0.014009 -0.279323
vn 0.973002 0.198896 0.117076
vn 0.880403 -0.247735 0.404375
vn 0.465404 -0.876201 0.125184
vn 0.651309 -0.667539 0.360815
vn 0.414407 -0.762597 -0.496702
vn 0.054355 -0.138374 -0.988887
vn 0.284860 -0.062235 -0.956547
vn 0.035427 -0.166123 -0.985468
vn -0.013978 -0.242332 -0.970093
vn 0.381250 -0.206290 -0.901162
vn 0.148039 -0.214032 -0.965544
vn 0.495507 0.281524 -0.821716
vn 0.701014 -0.180804 -0.689848
vn -0.215937 0.698583 -0.682168
vn -0.368277 0.150766 -0.917410
vn 0.318581 0.639876 -0.699332
vn 0.346721 0.901191 -0.260076
vn 0.138527 0.874886 -0.464095
vn 0.341799 0.444641 -0.827930
vn 0.376501 -0.827981 0.415565
vn 0.654981 -0.660626 0.366844
vn 0.454774 -0.819925 0.347713
vn 0.373863 -0.920984 0.109615
vn 0.436307 -0.852762 0.287112
vn 0.351961 -0.901491 0.251868
vn -0.036603 0.869359 -0.492824
vn 0.668962 0.715975 0.199673
vn 0.744982 0.637777 0.195556
vn 0.889469 0.428507 0.158827
vn 0.987447 0.157642 -0.009897
vn 0.076366 0.992151 -0.099015
vn 0.933802 0.351088 0.068928
vn 0.857837 0.511999 -0.044411
vn 0.977916 0.202499 0.051712
vn 0.961560 -0.163221 -0.220818
vn 0.997131 0.033687 -0.067787
vn 0.934889 -0.216678 0.281130
vn 0.880881 0.105019 0.461541
vn 0.993833 0.109843 0.015173
vn 0.982222 -0.179692 0.054325
vn 0.733885 -0.545439 0.404858
vn 0.736410 -0.096583 0.669606
vn 0.111619 -0.940240 0.321698
vn 0.130542 -0.857811 0.497111
vn -0.534291 -0.772444 0.343313
vn -0.655557 -0.752320 0.065264
vn -0.543412 -0.800147 0.253904
vn -0.591387 -0.758513 0.273716
vn -0.652542 -0.754391 0.071289
vn 0.114814 -0.740362 0.662331
vn -0.275700 -0.940351 0.199322
vn -0.146595 -0.955098 0.257483
vn -0.154469 0.926055 -0.344327
vn -0.292706 0.903060 -0.314335
vn -0.211242 0.947859 -0.238620
vn -0.380350 0.913543 -0.144129
vn -0.210772 0.965394 -0.153588
vn 0.255293 -0.966626 0.021424
vn 0.359959 -0.931424 0.053647
vn 0.173184 0.776747 0.605534
vn 0.125882 0.450598 0.883807
vn -0.613657 -0.290853 -0.734050
vn -0.417134 -0.041894 -0.907879
vn 0.316536 0.403811 -0.858337
vn -0.032852 0.265150 -0.963647
vn 0.139184 -0.097240 -0.985481
vn 0.147643 -0.089001 -0.985028
vn -0.242760 0.939472 -0.241786
vn -0.981103 0.056363 -0.185096
vn -0.619577 0.780230 -0.085823
vn -0.984043 0.105640 0.143176
vn -0.484028 0.856597 -0.178768
vn -0.662074 0.680096 -0.314846
vn -0.648545 0.698812 -0.301746
vn -0.318428 0.947392 -0.032423
vn -0.272915 0.961916 -0.015330
vn -0.174823 0.917609 0.356973
vn -0.905170 -0.420805 0.059914
vn -0.868130 -0.479393 0.128578
vn -0.979880 0.161313 0.117529
vn -0.985344 0.146550 0.087299
vn -0.958743 0.282179 -0.034444
vn -0.671248 0.699601 -0.244916
vn -0.981379 0.181052 0.064152
vn -0.944616 -0.250274 -0.212283
vn -0.510224 -0.665213 -0.545126
vn -0.471281 -0.681703 -0.559621
vn -0.494623 -0.665913 -0.558487
vn -0.390948 -0.704649 -0.592139
vn -0.379594 -0.692764 -0.613177
vn -0.906884 -0.205512 -0.367866
vn -0.834752 -0.237180 -0.496924
vn -0.283826 -0.748964 -0.598745
vn -0.289028 -0.729677 -0.619706
vn -0.282935 -0.737730 -0.612946
vn -0.937281 -0.204183 -0.282512
vn -0.908897 0.162469 -0.384071
vn -0.967320 0.143352 -0.209146
vn -0.947243 0.254119 -0.195333
vn -0.805842 -0.520147 0.282958
vn -0.788381 0.610182 0.078317
vn -0.788142 0.613873 0.044629
vn -0.778789 0.452785 0.434136
vn -0.798327 -0.002154 -0.602220
vn -0.777786 0.476148 -0.410282
vn -0.783986 -0.466619 0.409431
vn -0.750435 -0.538464 0.383280
vn -0.271859 -0.499601 0.822491
vn -0.219122 -0.488367 0.844679
vn -0.995114 0.076319 -0.062633
vn -0.998683 0.051047 -0.005190
f 133//133 1//1 106//106
f 362//362 35//35 363//363
f 373//373 362//362 363//363
f 367//367 38//38 374//374
f 374//374 127//127 367//367
f 377//377 127//127 374//374
f 365//365 362//362 126//126
f 365//365 126//126 38//38
f 38//38 366//366 365//365
f 38//38 367//367 366//366
f 367//367 104//104 117//117
f 377//377 380//380 127//127
f 377//377 128//128 380//380
f 127//127 104//104 367//367
f 380//380 104//104 127//127
f 40//40 3//3 129//129
f 380//380 40//40 129//129
f 380//380 129//129 104//104
f 105//105 35//35 111//111
f 105//105 111//111 118//118
f 105//105 106//106 1//1
f 118//118 106//106 105//105
f 56//56 106//106 118//118
f 111//111 112//112 118//118
f 108//108 112//112 111//111
f 364//364 112//112 113//113
f 111//111 107//107 108//108
f 108//108 113//113 112//112
f 113//113 108//108 107//107
f 35//35 365//365 111//111
f 365//365 107//107 111//111
f 35//35 362//362 365//365
f 365//365 109//109 107//107
f 113//113 109//109 365//365
f 113//113 107//107 109//109
f 365//365 366//366 364//364
f 365//365 364//364 113//113
f 366//366 367//367 364//364
f 116//116 115//115 110//110
f 117//117 115//115 116//116
f 104//104 115//115 117//117
f 104//104 110//110 115//115
f 110//110 146//146 116//116
f 138//138 140//140 110//110
f 110//110 140//140 146//146
f 146//146 140//140 394//394
f 104//104 137//137 110//110
f 104//104 129//129 139//139
f 129//129 3//3 139//139
f 104//104 139//139 137//137
f 110//110 139//139 138//138
f 110//110 137//137 139//139
f 138//138 139//139 141//141
f 139//139 3//3 141//141
f 112//112 364//364 114//114
f 364//364 367//367 114//114
f 114//114 117//117 116//116
f 114//114 367//367 117//117
f 124//124 116//116 146//146
f 394//394 155//155 146//146
f 146//146 145//145 124//124
f 57//57 145//145 146//146
f 158//158 119//119 36//36
f 119//119 158//158 159//159
f 119//119 159//159 197//197
f 118//118 112//112 119//119
f 114//114 116//116 123//123
f 119//119 120//120 36//36
f 123//123 120//120 119//119
f 114//114 123//123 112//112
f 112//112 123//123 119//119
f 116//116 124//124 123//123
f 124//124 121//121 123//123
f 123//123 121//121 122//122
f 124//124 122//122 121//121
f 145//145 122//122 124//124
f 147//147 122//122 149//149
f 123//123 151//151 150//150
f 122//122 147//147 123//123
f 147//147 151//151 123//123
f 36//36 120//120 368//368
f 368//368 120//120 123//123
f 123//123 150//150 368//368
f 368//368 150//150 125//125
f 368//368 125//125 36//36
f 160//160 125//125 150//150
f 2//2 389//389 370//370
f 370//370 43//43 62//62
f 389//389 43//43 370//370
f 37//37 1//1 133//133
f 37//37 133//133 84//84
f 106//106 84//84 133//133
f 363//363 372//372 373//373
f 37//37 84//84 45//45
f 370//370 62//62 2//2
f 389//389 2//2 371//371
f 389//389 371//371 388//388
f 387//387 43//43 389//389
f 185//185 362//362 373//373
f 10//10 373//373 372//372
f 185//185 373//373 10//10
f 374//374 38//38 126//126
f 240//240 378//378 377//377
f 85//85 130//130 376//376
f 130//130 375//375 376//376
f 376//376 375//375 39//39
f 378//378 240//240 39//39
f 240//240 85//85 376//376
f 240//240 376//376 39//39
f 40//40 380//380 379//379
f 379//379 380//380 128//128
f 141//141 85//85 381//381
f 85//85 240//240 382//382
f 382//382 132//132 85//85
f 85//85 132//132 381//381
f 131//131 240//240 16//16
f 141//141 381//381 393//393
f 381//381 136//136 393//393
f 131//131 132//132 382//382
f 131//131 382//382 240//240
f 135//135 132//132 131//131
f 16//16 135//135 131//131
f 135//135 193//193 132//132
f 386//386 383//383 41//41
f 143//143 106//106 56//56
f 106//106 134//134 84//84
f 143//143 134//134 106//106
f 84//84 134//134 45//45
f 389//389 392//392 86//86
f 389//389 388//388 391//391
f 389//389 391//391 392//392
f 86//86 392//392 390//390
f 392//392 391//391 390//390
f 132//132 193//193 381//381
f 381//381 193//193 136//136
f 135//135 16//16 192//192
f 135//135 192//192 193//193
f 192//192 249//249 193//193
f 141//141 393//393 156//156
f 393//393 136//136 156//156
f 136//136 157//157 156//156
f 136//136 193//193 157//157
f 157//157 193//193 249//249
f 197//197 194//194 119//119
f 119//119 194//194 143//143
f 118//118 119//119 142//142
f 119//119 143//143 142//142
f 118//118 143//143 56//56
f 142//142 143//143 118//118
f 143//143 194//194 134//134
f 134//134 195//195 45//45
f 194//194 195//195 134//134
f 156//156 138//138 141//141
f 140//140 138//138 156//156
f 144//144 140//140 156//156
f 157//157 144//144 156//156
f 249//249 74//74 157//157
f 144//144 256//256 42//42
f 157//157 256//256 144//144
f 57//57 122//122 145//145
f 155//155 57//57 146//146
f 148//148 57//57 155//155
f 148//148 149//149 57//57
f 57//57 149//149 122//122
f 154//154 155//155 394//394
f 149//149 151//151 147//147
f 150//150 151//151 4//4
f 151//151 396//396 152//152
f 151//151 152//152 4//4
f 394//394 395//395 396//396
f 396//396 395//395 152//152
f 394//394 140//140 144//144
f 148//148 151//151 149//149
f 155//155 153//153 148//148
f 153//153 154//154 148//148
f 154//154 153//153 155//155
f 154//154 397//397 148//148
f 148//148 397//397 151//151
f 397//397 396//396 151//151
f 154//154 396//396 397//397
f 150//150 4//4 160//160
f 160//160 395//395 125//125
f 152//152 395//395 4//4
f 4//4 395//395 160//160
f 125//125 395//395 162//162
f 395//395 394//394 161//161
f 161//161 5//5 162//162
f 161//161 162//162 395//395
f 256//256 157//157 74//74
f 144//144 161//161 394//394
f 42//42 161//161 144//144
f 42//42 207//207 161//161
f 207//207 208//208 161//161
f 159//159 158//158 212//212
f 158//158 36//36 163//163
f 158//158 163//163 212//212
f 36//36 125//125 163//163
f 125//125 162//162 369//369
f 125//125 369//369 163//163
f 63//63 159//159 212//212
f 5//5 164//164 162//162
f 164//164 165//165 162//162
f 212//212 163//163 369//369
f 203//203 369//369 162//162
f 369//369 203//203 212//212
f 161//161 208//208 5//5
f 213//213 203//203 162//162
f 212//212 203//203 213//213
f 162//162 165//165 213//213
f 216//216 166//166 66//66
f 425//425 215//215 216//216
f 213//213 166//166 216//216
f 213//213 165//165 58//58
f 165//165 164//164 58//58
f 168//168 66//66 166//166
f 213//213 58//58 166//166
f 58//58 167//167 166//166
f 58//58 6//6 167//167
f 6//6 171//171 167//167
f 166//166 167//167 168//168
f 168//168 167//167 8//8
f 399//399 8//8 167//167
f 399//399 167//167 171//171
f 169//169 403//403 402//402
f 182//182 402//402 7//7
f 170//170 402//402 182//182
f 402//402 403//403 401//401
f 68//68 402//402 170//170
f 400//400 399//399 171//171
f 8//8 399//399 400//400
f 78//78 182//182 271//271
f 78//78 271//271 312//312
f 401//401 184//184 409//409
f 174//174 184//184 401//401
f 59//59 175//175 404//404
f 403//403 174//174 401//401
f 403//403 59//59 60//60
f 59//59 404//404 172//172
f 59//59 172//172 174//174
f 59//59 174//174 60//60
f 60//60 174//174 403//403
f 175//175 407//407 406//406
f 176//176 175//175 59//59
f 407//407 175//175 176//176
f 407//407 176//176 59//59
f 8//8 406//406 407//407
f 405//405 172//172 404//404
f 8//8 407//407 173//173
f 407//407 59//59 403//403
f 407//407 403//403 169//169
f 407//407 169//169 173//173
f 406//406 61//61 175//175
f 8//8 400//400 406//406
f 400//400 171//171 221//221
f 406//406 400//400 61//61
f 61//61 400//400 180//180
f 221//221 178//178 400//400
f 178//178 180//180 400//400
f 222//222 178//178 221//221
f 408//408 182//182 7//7
f 88//88 89//89 408//408
f 88//88 408//408 7//7
f 89//89 182//182 408//408
f 312//312 271//271 273//273
f 271//271 272//272 273//273
f 271//271 226//226 272//272
f 182//182 226//226 271//271
f 182//182 89//89 226//226
f 405//405 183//183 172//172
f 405//405 404//404 175//175
f 405//405 175//175 9//9
f 175//175 177//177 9//9
f 61//61 177//177 175//175
f 9//9 177//177 61//61
f 180//180 9//9 61//61
f 180//180 178//178 179//179
f 9//9 180//180 69//69
f 180//180 181//181 69//69
f 180//180 179//179 181//181
f 179//179 178//178 222//222
f 179//179 222//222 223//223
f 15//15 89//89 409//409
f 232//232 81//81 409//409
f 89//89 15//15 226//226
f 15//15 409//409 81//81
f 229//229 324//324 232//232
f 324//324 81//81 232//232
f 172//172 183//183 174//174
f 183//183 184//184 174//174
f 409//409 184//184 232//232
f 232//232 233//233 229//229
f 184//184 233//233 232//232
f 183//183 405//405 227//227
f 227//227 228//228 183//183
f 9//9 227//227 405//405
f 228//228 227//227 9//9
f 92//92 229//229 234//234
f 228//228 234//234 183//183
f 92//92 234//234 228//228
f 10//10 372//372 410//410
f 389//389 86//86 387//387
f 387//387 411//411 43//43
f 10//10 410//410 186//186
f 10//10 186//186 235//235
f 186//186 410//410 187//187
f 186//186 187//187 243//243
f 416//416 413//413 90//90
f 44//44 413//413 416//416
f 416//416 90//90 414//414
f 44//44 416//416 415//415
f 244//244 44//44 415//415
f 415//415 416//416 414//414
f 412//412 414//414 90//90
f 415//415 414//414 412//412
f 244//244 415//415 412//412
f 10//10 238//238 185//185
f 47//47 236//236 185//185
f 185//185 237//237 362//362
f 236//236 237//237 185//185
f 236//236 377//377 374//374
f 237//237 374//374 126//126
f 236//236 374//374 237//237
f 237//237 126//126 362//362
f 433//433 236//236 47//47
f 384//384 383//383 242//242
f 377//377 433//433 240//240
f 433//433 16//16 240//240
f 383//383 386//386 431//431
f 383//383 431//431 242//242
f 86//86 411//411 387//387
f 411//411 189//189 43//43
f 188//188 190//190 86//86
f 411//411 417//417 189//189
f 411//411 86//86 190//190
f 411//411 190//190 417//417
f 417//417 190//190 189//189
f 244//244 187//187 44//44
f 244//244 412//412 189//189
f 244//244 189//189 245//245
f 11//11 187//187 244//244
f 244//244 245//245 11//11
f 419//419 45//45 195//195
f 419//419 195//195 196//196
f 196//196 188//188 418//418
f 419//419 418//418 45//45
f 196//196 418//418 419//419
f 196//196 245//245 188//188
f 191//191 245//245 196//196
f 245//245 189//189 190//190
f 245//245 190//190 188//188
f 191//191 196//196 201//201
f 191//191 201//201 199//199
f 11//11 245//245 191//191
f 201//201 11//11 199//199
f 11//11 191//191 199//199
f 192//192 385//385 250//250
f 385//385 41//41 383//383
f 250//250 383//383 384//384
f 385//385 383//383 250//250
f 241//241 384//384 242//242
f 250//250 384//384 241//241
f 250//250 241//241 248//248
f 241//241 242//242 248//248
f 74//74 249//249 251//251
f 249//249 192//192 250//250
f 249//249 250//250 251//251
f 196//196 195//195 194//194
f 197//197 198//198 194//194
f 194//194 200//200 196//196
f 200//200 201//201 196//196
f 201//201 202//202 198//198
f 198//198 200//200 194//194
f 201//201 200//200 202//202
f 202//202 200//200 198//198
f 198//198 197//197 246//246
f 246//246 197//197 159//159
f 252//252 246//246 159//159
f 73//73 246//246 252//252
f 297//297 422//422 74//74
f 74//74 422//422 256//256
f 422//422 42//42 256//256
f 63//63 252//252 159//159
f 12//12 252//252 63//63
f 73//73 252//252 205//205
f 205//205 253//253 73//73
f 297//297 420//420 422//422
f 420//420 421//421 422//422
f 422//422 421//421 42//42
f 63//63 212//212 12//12
f 12//12 205//205 252//252
f 253//253 205//205 64//64
f 64//64 254//254 253//253
f 253//253 254//254 73//73
f 12//12 212//212 204//204
f 73//73 254//254 260//260
f 12//12 204//204 205//205
f 204//204 206//206 205//205
f 205//205 206//206 64//64
f 204//204 214//214 206//206
f 214//214 263//263 206//206
f 206//206 263//263 64//64
f 64//64 263//263 254//254
f 212//212 213//213 204//204
f 213//213 65//65 204//204
f 214//214 204//204 65//65
f 5//5 208//208 164//164
f 208//208 207//207 209//209
f 164//164 209//209 58//58
f 208//208 209//209 164//164
f 6//6 58//58 210//210
f 210//210 58//58 211//211
f 211//211 209//209 207//207
f 58//58 209//209 211//211
f 65//65 213//213 215//215
f 213//213 216//216 215//215
f 65//65 215//215 214//214
f 215//215 299//299 214//214
f 348//348 171//171 91//91
f 91//91 171//171 424//424
f 426//426 215//215 425//425
f 215//215 426//426 217//217
f 426//426 425//425 217//217
f 425//425 66//66 218//218
f 66//66 168//168 218//218
f 13//13 218//218 168//168
f 13//13 168//168 219//219
f 67//67 217//217 425//425
f 67//67 425//425 218//218
f 67//67 218//218 13//13
f 8//8 173//173 168//168
f 168//168 220//220 219//219
f 173//173 220//220 168//168
f 173//173 169//169 68//68
f 169//169 402//402 68//68
f 219//219 68//68 13//13
f 173//173 68//68 220//220
f 220//220 68//68 219//219
f 13//13 265//265 67//67
f 265//265 68//68 170//170
f 13//13 68//68 265//265
f 75//75 182//182 267//267
f 75//75 170//170 182//182
f 267//267 170//170 75//75
f 171//171 348//348 87//87
f 348//348 76//76 87//87
f 222//222 221//221 76//76
f 76//76 398//398 87//87
f 221//221 398//398 76//76
f 221//221 171//171 398//398
f 398//398 171//171 87//87
f 270//270 312//312 273//273
f 273//273 272//272 226//226
f 224//224 181//181 179//179
f 69//69 181//181 224//224
f 228//228 9//9 69//69
f 72//72 69//69 70//70
f 228//228 69//69 72//72
f 179//179 223//223 70//70
f 179//179 70//70 224//224
f 224//224 70//70 69//69
f 223//223 222//222 76//76
f 225//225 70//70 223//223
f 284//284 230//230 71//71
f 71//71 70//70 225//225
f 71//71 225//225 14//14
f 76//76 225//225 223//223
f 274//274 14//14 225//225
f 276//276 71//71 14//14
f 270//270 273//273 226//226
f 15//15 270//270 226//226
f 184//184 183//183 234//234
f 184//184 234//234 233//233
f 233//233 234//234 229//229
f 230//230 92//92 228//228
f 231//231 228//228 72//72
f 230//230 228//228 231//231
f 427//427 46//46 92//92
f 427//427 92//92 230//230
f 71//71 230//230 231//231
f 71//71 72//72 70//70
f 231//231 72//72 71//71
f 230//230 285//285 427//427
f 427//427 23//23 46//46
f 285//285 23//23 427//427
f 23//23 285//285 286//286
f 284//284 23//23 286//286
f 284//284 286//286 230//230
f 286//286 285//285 230//230
f 25//25 324//324 23//23
f 324//324 93//93 23//23
f 324//324 229//229 428//428
f 23//23 428//428 46//46
f 93//93 428//428 23//23
f 324//324 428//428 93//93
f 10//10 235//235 238//238
f 235//235 186//186 238//238
f 186//186 243//243 239//239
f 186//186 239//239 238//238
f 238//238 239//239 185//185
f 429//429 430//430 47//47
f 26//26 429//429 50//50
f 429//429 239//239 50//50
f 429//429 47//47 185//185
f 289//289 185//185 239//239
f 429//429 185//185 289//289
f 429//429 289//289 239//239
f 26//26 298//298 429//429
f 298//298 430//430 429//429
f 298//298 97//97 430//430
f 430//430 97//97 47//47
f 242//242 431//431 95//95
f 94//94 242//242 432//432
f 242//242 95//95 432//432
f 16//16 433//433 48//48
f 377//377 236//236 433//433
f 433//433 47//47 434//434
f 433//433 434//434 48//48
f 435//435 250//250 248//248
f 248//248 242//242 94//94
f 96//96 97//97 435//435
f 96//96 435//435 94//94
f 435//435 248//248 94//94
f 243//243 445//445 239//239
f 239//239 445//445 50//50
f 187//187 445//445 243//243
f 187//187 11//11 290//290
f 445//445 187//187 290//290
f 97//97 450//450 435//435
f 450//450 251//251 435//435
f 450//450 74//74 251//251
f 435//435 251//251 250//250
f 198//198 246//246 201//201
f 201//201 290//290 11//11
f 247//247 290//290 201//201
f 246//246 247//247 201//201
f 445//445 290//290 27//27
f 27//27 290//290 291//291
f 290//290 247//247 294//294
f 290//290 294//294 291//291
f 450//450 437//437 74//74
f 74//74 437//437 297//297
f 246//246 255//255 247//247
f 255//255 51//51 292//292
f 255//255 292//292 293//293
f 293//293 292//292 294//294
f 255//255 293//293 247//247
f 247//247 293//293 294//294
f 448//448 51//51 257//257
f 73//73 255//255 246//246
f 51//51 255//255 257//257
f 255//255 73//73 257//257
f 258//258 259//259 257//257
f 257//257 259//259 436//436
f 257//257 436//436 448//448
f 259//259 18//18 98//98
f 262//262 18//18 259//259
f 436//436 259//259 448//448
f 259//259 98//98 448//448
f 424//424 441//441 440//440
f 440//440 441//441 49//49
f 73//73 260//260 257//257
f 254//254 17//17 261//261
f 254//254 261//261 260//260
f 260//260 261//261 257//257
f 17//17 262//262 259//259
f 261//261 259//259 258//258
f 261//261 258//258 257//257
f 259//259 261//261 17//17
f 214//214 300//300 263//263
f 300//300 254//254 263//263
f 17//17 254//254 300//300
f 17//17 300//300 262//262
f 299//299 262//262 300//300
f 214//214 299//299 300//300
f 299//299 215//215 264//264
f 301//301 299//299 264//264
f 348//348 91//91 423//423
f 439//439 91//91 424//424
f 67//67 266//266 217//217
f 264//264 266//266 67//67
f 217//217 264//264 215//215
f 266//266 264//264 217//217
f 67//67 302//302 264//264
f 303//303 302//302 269//269
f 269//269 302//302 67//67
f 170//170 267//267 265//265
f 265//265 267//267 67//67
f 269//269 306//306 303//303
f 267//267 268//268 67//67
f 268//268 269//269 67//67
f 269//269 268//268 267//267
f 306//306 304//304 303//303
f 267//267 182//182 307//307
f 269//269 307//307 306//306
f 269//269 267//267 307//307
f 306//306 307//307 30//30
f 304//304 306//306 453//453
f 304//304 453//453 454//454
f 455//455 453//453 52//52
f 454//454 453//453 455//455
f 52//52 457//457 455//455
f 455//455 457//457 454//454
f 454//454 456//456 304//304
f 456//456 28//28 304//304
f 457//457 456//456 454//454
f 30//30 307//307 78//78
f 307//307 182//182 78//78
f 315//315 76//76 348//348
f 76//76 315//315 19//19
f 19//19 225//225 76//76
f 274//274 225//225 19//19
f 274//274 275//275 14//14
f 19//19 275//275 274//274
f 19//19 278//278 275//275
f 278//278 14//14 275//275
f 278//278 276//276 14//14
f 71//71 276//276 277//277
f 276//276 284//284 277//277
f 277//277 284//284 71//71
f 278//278 19//19 21//21
f 21//21 279//279 278//278
f 278//278 279//279 276//276
f 20//20 284//284 280//280
f 284//284 276//276 279//279
f 284//284 279//279 280//280
f 280//280 24//24 20//20
f 287//287 24//24 280//280
f 279//279 287//287 280//280
f 21//21 19//19 281//281
f 279//279 21//21 282//282
f 279//279 282//282 287//287
f 287//287 443//443 24//24
f 288//288 443//443 287//287
f 288//288 287//287 282//282
f 315//315 22//22 316//316
f 316//316 19//19 315//315
f 22//22 317//317 281//281
f 19//19 316//316 281//281
f 316//316 22//22 281//281
f 317//317 283//283 281//281
f 283//283 443//443 288//288
f 283//283 288//288 282//282
f 281//281 282//282 21//21
f 283//283 282//282 281//281
f 315//315 283//283 317//317
f 317//317 22//22 315//315
f 79//79 283//283 315//315
f 444//444 23//23 284//284
f 442//442 284//284 20//20
f 444//444 284//284 442//442
f 442//442 322//322 444//444
f 444//444 322//322 23//23
f 443//443 319//319 442//442
f 319//319 54//54 322//322
f 319//319 322//322 442//442
f 25//25 23//23 326//326
f 23//23 80//80 318//318
f 23//23 318//318 326//326
f 298//298 450//450 97//97
f 50//50 445//445 77//77
f 445//445 446//446 77//77
f 450//450 298//298 449//449
f 298//298 26//26 449//449
f 451//451 26//26 51//51
f 449//449 26//26 451//451
f 449//449 451//451 450//450
f 445//445 27//27 446//446
f 27//27 291//291 446//446
f 291//291 295//295 446//446
f 291//291 294//294 295//295
f 295//295 292//292 77//77
f 294//294 292//292 295//295
f 296//296 77//77 446//446
f 295//295 77//77 296//296
f 295//295 296//296 446//446
f 51//51 448//448 447//447
f 448//448 98//98 438//438
f 448//448 438//438 447//447
f 447//447 438//438 437//437
f 451//451 447//447 450//450
f 450//450 447//447 437//437
f 51//51 447//447 451//451
f 440//440 439//439 424//424
f 49//49 439//439 440//440
f 18//18 262//262 99//99
f 262//262 452//452 99//99
f 262//262 299//299 452//452
f 99//99 452//452 465//465
f 423//423 91//91 439//439
f 423//423 439//439 310//310
f 310//310 439//439 49//49
f 302//302 301//301 264//264
f 28//28 305//305 304//304
f 304//304 463//463 302//302
f 304//304 302//302 303//303
f 305//305 463//463 304//304
f 452//452 299//299 301//301
f 452//452 301//301 302//302
f 452//452 302//302 463//463
f 463//463 53//53 466//466
f 466//466 53//53 465//465
f 466//466 465//465 452//452
f 463//463 466//466 452//452
f 456//456 29//29 28//28
f 457//457 29//29 456//456
f 29//29 457//457 101//101
f 457//457 462//462 101//101
f 457//457 52//52 461//461
f 457//457 461//461 462//462
f 101//101 462//462 460//460
f 462//462 461//461 460//460
f 313//313 30//30 78//78
f 313//313 78//78 351//351
f 305//305 28//28 459//459
f 305//305 459//459 100//100
f 459//459 30//30 313//313
f 458//458 313//313 351//351
f 459//459 313//313 458//458
f 463//463 305//305 309//309
f 305//305 308//308 309//309
f 308//308 329//329 328//328
f 335//335 308//308 333//333
f 335//335 327//327 308//308
f 463//463 82//82 53//53
f 349//349 423//423 310//310
f 348//348 423//423 349//349
f 350//350 348//348 349//349
f 53//53 82//82 349//349
f 82//82 464//464 349//349
f 464//464 472//472 349//349
f 311//311 467//467 351//351
f 333//333 308//308 305//305
f 352//352 335//335 333//333
f 352//352 338//338 335//335
f 350//350 315//315 348//348
f 311//311 351//351 314//314
f 351//351 78//78 312//312
f 351//351 312//312 314//314
f 103//103 314//314 270//270
f 103//103 311//311 314//314
f 314//314 312//312 270//270
f 320//320 443//443 283//283
f 320//320 283//283 79//79
f 350//350 79//79 315//315
f 443//443 320//320 319//319
f 320//320 54//54 319//319
f 15//15 81//81 270//270
f 81//81 323//323 270//270
f 81//81 324//324 323//323
f 324//324 34//34 323//323
f 270//270 323//323 103//103
f 34//34 476//476 323//323
f 476//476 103//103 323//323
f 54//54 321//321 322//322
f 322//322 80//80 23//23
f 321//321 80//80 322//322
f 321//321 54//54 470//470
f 321//321 325//325 80//80
f 325//325 34//34 324//324
f 325//325 324//324 326//326
f 326//326 324//324 25//25
f 325//325 326//326 80//80
f 80//80 326//326 318//318
f 308//308 330//330 329//329
f 329//329 337//337 82//82
f 337//337 329//329 330//330
f 308//308 327//327 330//330
f 337//337 330//330 471//471
f 339//339 330//330 327//327
f 82//82 328//328 329//329
f 82//82 463//463 309//309
f 328//328 309//309 308//308
f 82//82 309//309 328//328
f 82//82 337//337 464//464
f 464//464 471//471 31//31
f 337//337 471//471 464//464
f 331//331 55//55 471//471
f 332//332 55//55 331//331
f 332//332 33//33 55//55
f 342//342 33//33 332//332
f 471//471 330//330 331//331
f 330//330 339//339 331//331
f 340//340 32//32 339//339
f 331//331 339//339 332//332
f 32//32 343//343 339//339
f 343//343 342//342 339//339
f 343//343 33//33 342//342
f 339//339 342//342 332//332
f 305//305 100//100 333//333
f 100//100 459//459 458//458
f 100//100 458//458 333//333
f 351//351 102//102 352//352
f 333//333 334//334 352//352
f 352//352 458//458 351//351
f 334//334 458//458 352//352
f 333//333 458//458 334//334
f 341//341 335//335 338//338
f 327//327 335//335 336//336
f 335//335 341//341 336//336
f 338//338 352//352 353//353
f 336//336 339//339 327//327
f 341//341 339//339 336//336
f 338//338 340//340 341//341
f 340//340 339//339 341//341
f 340//340 338//338 345//345
f 338//338 344//344 345//345
f 472//472 464//464 31//31
f 355//355 349//349 472//472
f 345//345 472//472 31//31
f 355//355 472//472 345//345
f 338//338 353//353 344//344
f 356//356 468//468 354//354
f 468//468 54//54 354//354
f 355//355 83//83 349//349
f 354//354 83//83 356//356
f 346//346 31//31 32//32
f 345//345 31//31 346//346
f 32//32 340//340 346//346
f 340//340 345//345 346//346
f 345//345 347//347 355//355
f 355//355 356//356 83//83
f 347//347 345//345 344//344
f 358//358 344//344 353//353
f 347//347 344//344 355//355
f 344//344 358//358 355//355
f 358//358 353//353 357//357
f 356//356 355//355 358//358
f 54//54 320//320 354//354
f 354//354 320//320 83//83
f 83//83 350//350 349//349
f 79//79 350//350 320//320
f 350//350 83//83 320//320
f 102//102 351//351 467//467
f 467//467 311//311 474//474
f 102//102 467//467 473//473
f 467//467 474//474 473//473
f 103//103 476//476 475//475
f 476//476 34//34 475//475
f 353//353 352//352 357//357
f 358//358 357//357 356//356
f 356//356 469//469 468//468
f 357//357 469//469 356//356
f 468//468 357//357 470//470
f 468//468 470//470 54//54
f 357//357 468//468 469//469
f 352//352 359//359 357//357
f 352//352 102//102 360//360
f 357//357 360//360 477//477
f 352//352 360//360 359//359
f 359//359 360//360 357//357
f 477//477 361//361 357//357
f 357//357 325//325 470//470
f 361//361 325//325 357//357
f 361//361 34//34 325//325
f 470//470 325//325 321//321
f 477//477 360//360 478//478
f 360//360 102//102 478//478
