# decimated by Tools/decimate_anatomy.py from 5472 triangles (BodyParts3D, CC BY 4.0)
v 0.00636641 0.00882747 0.15348879
v 0.00586923 0.01012589 0.15351100
v 0.00499424 0.00393001 0.17594726
v 0.00281247 0.00471494 0.15266338
v 0.00144828 0.00496418 0.15377678
v 0.00513805 0.00921000 0.15280277
v 0.00442371 0.00866192 0.16491428
v 0.00526604 0.00235504 0.17532285
v 0.00413037 0.00299962 0.17915112
v 0.00274246 0.00359222 0.17940158
v 0.00022263 0.00443632 0.15174137
v -0.00029290 0.01250638 0.15142234
v 0.00024901 0.01347515 0.15231917
v -0.00162535 0.01202888 0.15633523
v 0.00083180 0.00018052 0.17664218
v -0.00420617 0.00572393 0.15640460
v -0.00521463 0.00654461 0.15615372
v -0.00438289 0.00632331 0.16225503
v -0.00345144 0.00000927 0.17917699
v -0.00361969 0.00031328 0.17951453
v -0.00314532 0.00312349 0.17906491
v 0.00657679 0.00764775 0.15429406
v 0.00556132 0.00841149 0.15732200
v 0.00449274 0.00410449 0.17320045
v 0.00481098 0.01189268 0.15330538
v 0.00496691 0.00145236 0.17536107
v 0.00424236 0.00709956 0.16959067
v 0.00408930 0.00315166 0.17914356
v 0.00029672 0.00057929 0.17875484
v 0.00023457 0.00188987 0.17945416
v -0.00218396 0.01179306 0.15143582
v -0.00322199 0.00730074 0.16971590
v -0.00201951 0.00017429 0.17546584
v -0.00365767 -0.00030720 0.17701985
v -0.00355376 -0.00030465 0.17754912
v -0.00406886 0.00010787 0.17729592
v -0.00374836 0.00023748 0.17899726
v -0.00336972 0.00179930 0.17977938
v -0.00330428 0.00188942 0.17983662
v 0.00212632 0.00525249 0.15461291
v 0.00152782 0.00608183 0.16059434
v 0.00380271 0.01007675 0.16238581
v 0.00478039 0.00905997 0.16204084
v 0.00375177 0.01135233 0.15805279
v -0.00059920 0.00140020 0.17476864
v 0.00363113 0.00095728 0.17955342
v 0.00078553 0.00550194 0.15107679
v -0.00027696 0.00580853 0.15125514
v -0.00135912 0.00443257 0.15201318
v -0.00302405 0.00418321 0.15269819
v -0.00003902 0.01265931 0.15149873
v 0.00072753 0.00023235 0.17644106
v 0.00084318 0.00219417 0.17939317
v 0.00057402 0.00489035 0.15480353
v -0.00387104 0.00451129 0.15443521
v -0.00201547 0.01118136 0.15184655
v -0.00182205 0.01195152 0.15133385
v -0.00238549 0.01262593 0.15191633
v -0.00303800 0.00512511 0.15598115
v -0.00381936 0.00570959 0.16715623
v -0.00405471 0.00147447 0.17539476
v -0.00406466 0.00149919 0.17539911
v -0.00400044 0.00366523 0.17650644
v -0.00351279 -0.00043262 0.17700641
v -0.00408358 0.01112818 0.15215286
v -0.00508484 0.00973634 0.15255011
v 0.00641535 0.00865079 0.15354243
v 0.00127992 0.00569002 0.15109681
v 0.00461095 0.00794333 0.16158831
v 0.00332190 0.00153079 0.17986357
v -0.00170922 0.00135941 0.17979456
v -0.00108971 0.01275591 0.15150344
v -0.00336438 -0.00015758 0.17628021
v -0.00400168 -0.00000723 0.17718865
v -0.00199277 0.00031792 0.17913032
v -0.00344198 0.00005467 0.17925790
v -0.00404808 0.00001566 0.17727271
v -0.00045400 0.00338432 0.17933188
v 0.00478837 0.00608953 0.15221033
v 0.00584811 0.00784892 0.15285636
v 0.00495559 0.00624101 0.15235002
v 0.00534066 0.01032312 0.15325445
v 0.00552476 0.00833825 0.15736376
v 0.00565201 0.00667200 0.15470307
v 0.00475383 0.00006042 0.17703229
v 0.00467381 -0.00000426 0.17739890
v 0.00501451 0.00125651 0.17558966
v 0.00528751 0.00147873 0.17630553
v 0.00213005 0.00450356 0.15212308
v 0.00112945 0.00423934 0.15278224
v 0.00248310 0.00471956 0.15303421
v 0.00302923 0.00613924 0.15681188
v 0.00217316 0.00529515 0.15473090
v 0.00511586 0.01167798 0.15440817
v 0.00467889 0.01200197 0.15472048
v 0.00303281 0.00705304 0.16006792
v 0.00479317 0.00749691 0.15707644
v 0.00452287 0.00792109 0.16102517
v 0.00478115 0.00829820 0.16209608
v 0.00474651 0.00812640 0.16149085
v 0.00474243 0.00817718 0.16246495
v 0.00371213 0.00234499 0.17425029
v 0.00503865 0.00154102 0.17537083
v 0.00341238 0.00280161 0.17361730
v 0.00418759 0.00597809 0.17260373
v 0.00439976 0.00735015 0.16741100
v 0.00419823 0.00559113 0.17240439
v 0.00454255 -0.00007439 0.17694976
v 0.00396668 0.00002369 0.17636354
v 0.00402230 0.00121218 0.17962110
v 0.00431628 0.00325598 0.17848288
v 0.00241779 0.00459535 0.15190779
v 0.00168527 0.00497680 0.15381019
v 0.00067829 0.00416579 0.15268998
v 0.00189336 0.00528586 0.15493584
v 0.00062419 0.00443654 0.15404511
v 0.00106751 0.00541508 0.15659726
v 0.00097305 0.00499338 0.15480395
v 0.00103630 0.00499714 0.15484268
v 0.00347602 0.01259051 0.15275864
v 0.00355867 0.01225060 0.15573535
v 0.00073169 0.00581820 0.15983419
v 0.00227021 0.00649059 0.16081507
v 0.00100038 0.00357729 0.17106564
v 0.00319681 0.00476094 0.17767943
v 0.00046699 0.00944271 0.16885148
v 0.00145640 0.01093537 0.16254225
v 0.00033103 0.00049696 0.17866016
v 0.00386887 -0.00001683 0.17800241
v 0.00280692 0.00200775 0.17983052
v 0.00033811 0.00049971 0.17870967
v 0.00073850 0.00059530 0.17889175
v -0.00059897 0.00503693 0.15141301
v -0.00112828 0.00511438 0.15145998
v -0.00069314 0.00535111 0.15131643
v -0.00168734 0.00519042 0.15157610
v -0.00163107 0.00631385 0.15178404
v -0.00185082 0.00566672 0.15159622
v -0.00196480 0.00470677 0.15180270
v -0.00296400 0.00475740 0.15189503
v -0.00123784 0.00407271 0.15283988
v -0.00086823 0.01206484 0.15142616
v -0.00014793 0.01254625 0.15143142
v -0.00023294 0.01299248 0.15162519
v 0.00193762 0.01351130 0.15293220
v 0.00101254 0.01310895 0.15210240
v -0.00006536 0.01309222 0.15177736
v 0.00019425 0.01346002 0.15226829
v -0.00050182 0.01363004 0.15272176
v -0.00155186 0.00544441 0.15724654
v 0.00140470 0.01244719 0.15688042
v -0.00039872 0.01084578 0.16390537
v -0.00157217 0.00401566 0.17878476
v -0.00052891 0.01008475 0.16613584
v 0.00194304 0.00888196 0.16971970
v -0.00041834 -0.00000384 0.17633537
v 0.00360508 0.00228157 0.17428452
v -0.00197795 0.00014864 0.17549170
v -0.00209315 0.00059414 0.17525138
v -0.00248866 -0.00038563 0.17778183
v -0.00284438 0.00520389 0.15177873
v -0.00267600 0.00596369 0.15182364
v -0.00372462 0.00579511 0.15189340
v -0.00425106 0.00432946 0.15371912
v -0.00504452 0.00486252 0.15354084
v -0.00446831 0.00459794 0.15304881
v -0.00492145 0.00510197 0.15461173
v -0.00545277 0.00595089 0.15430222
v -0.00512943 0.00551440 0.15475362
v -0.00523005 0.00649036 0.15601970
v -0.00297879 0.01125354 0.15168848
v -0.00146581 0.01266161 0.15149084
v -0.00271875 0.01287455 0.15250091
v -0.00434913 0.00561756 0.15599902
v -0.00439854 0.01131576 0.15316273
v 0.00110023 0.01351600 0.15405319
v -0.00168339 0.01329287 0.15323033
v -0.00003331 0.01350673 0.15352841
v -0.00112869 0.01346560 0.15290579
v -0.00125705 0.01341442 0.15249719
v -0.00239569 0.01298704 0.15307429
v -0.00188716 0.01318621 0.15253962
v -0.00327877 0.01249120 0.15297825
v -0.00441957 0.00611416 0.15767309
v -0.00509213 0.00652805 0.15669908
v -0.00313089 0.01094320 0.15706824
v 0.00024116 0.00567491 0.16270197
v 0.00044697 0.00375340 0.17066061
v -0.00184557 0.00566397 0.15943434
v -0.00359721 0.00592052 0.16384292
v -0.00355871 0.00584971 0.16551640
v -0.00248854 0.01091754 0.15884774
v -0.00075885 0.00830024 0.17106272
v -0.00226117 0.00995988 0.16450033
v -0.00124317 0.00382857 0.17135039
v -0.00357144 0.00469095 0.17017461
v -0.00551765 0.00813725 0.15547632
v -0.00286919 0.00840481 0.16755453
v -0.00236710 0.00016124 0.17553613
v -0.00331024 0.00004332 0.17588367
v -0.00101984 0.00147520 0.17471606
v -0.00325898 0.00005013 0.17584236
v -0.00332356 0.00008174 0.17584576
v -0.00365981 0.00156587 0.17497046
v -0.00255650 0.00220113 0.17429633
v -0.00348681 0.00160433 0.17481854
v -0.00402962 0.00195025 0.17512532
v -0.00248415 -0.00031949 0.17626428
v -0.00240919 -0.00037674 0.17732991
v -0.00356382 0.00003575 0.17631998
v -0.00378396 0.00338892 0.17404501
v -0.00361465 0.00414713 0.17684023
v -0.00419083 0.00304631 0.17633674
v -0.00397131 0.00388388 0.17556441
v -0.00407407 0.00345891 0.17600304
v -0.00364809 0.00411242 0.17689341
v -0.00323958 -0.00003116 0.17899596
v -0.00382736 0.00318995 0.17774394
v -0.00379544 0.00133616 0.17897646
v -0.00317802 0.00332476 0.17886458
v -0.00384733 0.00130054 0.17887427
v -0.00219069 0.00446941 0.17800449
v -0.00135047 0.00812693 0.17067175
v -0.00359291 0.00413286 0.17691972
v -0.00474926 0.00804119 0.15266644
v -0.00408255 0.00626615 0.15209947
v -0.00563422 0.00790144 0.15336895
v -0.00504896 0.00784168 0.15278697
v -0.00492140 0.01033212 0.15291566
v -0.00534405 0.00958851 0.15293713
v -0.00364398 0.01149230 0.15198695
v -0.00406202 0.01164973 0.15243249
v -0.00413468 0.01060596 0.15514910
v -0.00311659 0.00742521 0.16976260
v -0.00566210 0.00783985 0.15519269
v 0.00427092 0.00694953 0.15189392
v 0.00009088 0.00950701 0.15252005
v 0.00524984 0.00641113 0.15265514
v 0.00654425 0.00747775 0.15413320
v 0.00550956 0.01128704 0.15450798
v 0.00619256 0.00996776 0.15500174
v 0.00643085 0.00969169 0.15485654
v 0.00475712 0.01196765 0.15333128
v 0.00554221 0.01096382 0.15356536
v 0.00653552 0.00910270 0.15456256
v 0.00557068 0.00933818 0.15716266
v 0.00480676 0.00012243 0.17759667
v 0.00464695 0.00049017 0.17823216
v 0.00449038 -0.00018519 0.17732595
v 0.00514047 0.00341403 0.17605365
v 0.00527484 0.00230954 0.17552747
v 0.00515250 0.00289553 0.17607802
v 0.00181092 0.00607603 0.15125408
v 0.00083747 0.00794263 0.15230971
v 0.00467677 0.01118129 0.15306733
v 0.00263129 0.01344809 0.15363378
v 0.00347877 0.01301104 0.15355389
v 0.00125259 0.01299933 0.15205771
v 0.00446796 0.00762117 0.16327690
v 0.00424398 0.00574292 0.17032530
v 0.00382756 0.00478534 0.17148681
v 0.00057701 0.00387023 0.17054201
v 0.00451062 0.00452402 0.17351507
v 0.00352499 0.00797231 0.16982585
v 0.00362028 0.00431559 0.17787376
v 0.00527623 0.00161481 0.17633554
v 0.00412159 0.00258093 0.17930648
v 0.00318338 0.00099175 0.17956845
v 0.00260279 0.00378480 0.17929894
v 0.00341223 0.00326685 0.17965072
v 0.00337268 0.00333787 0.17964162
v 0.00112678 0.00477181 0.15404275
v 0.00128642 0.00469025 0.15366353
v 0.00156383 0.00528346 0.15433715
v -0.00162004 0.00133983 0.17977427
v 0.00151742 0.00299126 0.17928269
v -0.00211249 0.00271754 0.17976984
v 0.00071004 0.00389505 0.17903622
v 0.00075397 0.00311548 0.17919179
v -0.00181478 0.01235883 0.15148347
v -0.00139175 0.01237700 0.15132311
v -0.00375644 0.00560411 0.15195543
v -0.00528029 0.00661961 0.15281616
v -0.00470919 0.00542387 0.15238260
v -0.00453131 0.00509940 0.15245212
v -0.00510358 0.00505022 0.15329626
v -0.00561049 0.00745534 0.15354237
v -0.00551397 0.00644665 0.15402993
v -0.00530406 0.00653571 0.15285924
v -0.00453147 0.00643282 0.16133056
v -0.00383584 0.00547805 0.16921400
v -0.00548343 0.00764057 0.15627480
v -0.00374311 0.00464306 0.17306148
v -0.00357366 0.00459312 0.17206723
v -0.00339482 0.00411526 0.17202541
v -0.00325973 0.00664564 0.17153174
v -0.00347048 0.00573636 0.17300437
v -0.00559401 0.00788072 0.15563598
v -0.00378451 0.00747562 0.16619492
v -0.00460919 0.00733895 0.16169517
v -0.00379961 0.00648130 0.16674476
v -0.00320589 0.00727560 0.16969360
v -0.00339621 0.00305353 0.17329063
v -0.00379233 0.00274685 0.17438593
v -0.00368328 0.00233487 0.17442015
v -0.00362167 -0.00012927 0.17667452
v -0.00422704 0.00265556 0.17599544
v -0.00265510 0.00084178 0.17966474
v -0.00366964 0.00001965 0.17843494
v -0.00378948 0.00011035 0.17841836
v -0.00387623 0.00117834 0.17882880
v -0.00256589 0.00366203 0.17889678
v -0.00196010 0.00258080 0.17976861
v -0.00231349 0.00160323 0.17982990
v -0.00304610 0.00221955 0.17977822
v -0.00273172 0.00267163 0.17959193
vn 0.762776 0.013819 -0.646515
vn 0.515359 0.221989 -0.827724
vn 0.979511 0.197224 -0.040750
vn 0.447884 -0.880387 0.155947
vn 0.588662 -0.711347 0.384009
vn 0.198430 -0.006521 -0.980093
vn 0.837524 0.512669 0.189008
vn 0.915645 -0.275095 -0.293116
vn 0.938573 0.122777 0.322500
vn -0.122328 0.209830 0.970055
vn 0.007699 -0.792567 -0.609736
vn 0.119997 -0.267921 -0.955939
vn 0.068993 0.964303 -0.255654
vn -0.315810 0.918508 0.237923
vn 0.061008 -0.992097 0.109640
vn -0.336972 -0.906409 0.254702
vn -0.960472 -0.249185 0.124098
vn -0.456931 -0.889488 0.004950
vn 0.089218 -0.944748 0.315422
vn 0.057630 -0.368848 0.927701
vn -0.390594 0.565837 0.726130
vn 0.975503 -0.012855 0.219610
vn 0.963645 0.005347 0.267134
vn 0.975710 0.218725 0.012208
vn 0.475136 0.196634 -0.857660
vn 0.070341 -0.756570 -0.650119
vn 0.754881 0.609975 0.241009
vn 0.731353 0.614236 0.296373
vn 0.238427 -0.508309 0.827511
vn 0.276455 -0.432766 0.858071
vn -0.103955 -0.237503 -0.965808
vn -0.842456 -0.538765 -0.000948
vn -0.151176 -0.752494 -0.641014
vn -0.687411 -0.613939 -0.388001
vn -0.609302 -0.767014 0.201099
vn -0.989371 -0.105088 0.100503
vn -0.634924 -0.743917 0.208467
vn -0.864413 0.009306 0.502696
vn -0.024790 -0.109504 0.993677
vn 0.054372 -0.952250 0.300439
vn 0.320935 -0.944696 0.067452
vn 0.556237 0.796538 0.236912
vn 0.924261 0.333852 0.185162
vn 0.487341 0.831534 0.266551
vn 0.105541 -0.778817 -0.618308
vn 0.256769 -0.775050 0.577380
vn 0.022370 -0.351425 -0.935949
vn -0.150585 0.327062 -0.932928
vn -0.114772 -0.792430 -0.599068
vn -0.178771 -0.900985 -0.395307
vn 0.308358 0.296327 -0.903939
vn 0.051768 -0.857862 -0.511265
vn -0.031044 0.025761 0.999186
vn 0.126684 -0.841141 0.525768
vn -0.105581 -0.920028 0.377361
vn 0.032372 -0.388281 -0.920972
vn 0.132928 -0.369790 -0.919557
vn -0.465826 0.550406 -0.692864
vn -0.052603 -0.929529 0.364978
vn -0.414822 -0.898640 -0.142722
vn -0.716094 -0.441782 -0.540405
vn -0.952652 -0.230680 -0.198093
vn -0.911492 0.370594 0.178446
vn -0.049991 -0.998111 0.035725
vn -0.579018 0.209818 -0.787855
vn -0.430862 -0.049753 -0.901045
vn 0.943899 0.246097 -0.220206
vn 0.458152 -0.133431 -0.878802
vn 0.993712 0.093012 0.062339
vn -0.142198 -0.230175 0.962704
vn 0.112138 0.008414 0.993657
vn -0.042350 0.441939 -0.896045
vn -0.165734 -0.852153 -0.496354
vn -0.747459 -0.528526 -0.402449
vn 0.193533 -0.572830 0.796499
vn -0.614289 -0.762349 0.203649
vn -0.615296 -0.761991 0.201944
vn -0.045302 0.730831 0.681053
vn 0.485267 -0.469346 -0.737719
vn 0.519207 0.140486 -0.843023
vn 0.882495 -0.448976 -0.140080
vn 0.506100 0.223668 -0.832968
vn 0.903382 -0.354399 0.241459
vn 0.567653 -0.787893 0.238735
vn 0.857138 -0.484107 -0.175942
vn 0.887484 -0.451837 0.090641
vn 0.228470 -0.675056 -0.701499
vn 0.919971 -0.357908 -0.159860
vn 0.405746 -0.909238 -0.093037
vn 0.212713 -0.945590 0.246197
vn 0.175825 -0.918721 0.353607
vn 0.422624 -0.874619 0.237551
vn 0.233854 -0.933207 0.272831
vn 0.642361 0.766208 0.017244
vn 0.631643 0.709987 0.311360
vn 0.530913 -0.847049 -0.025283
vn 0.372735 -0.895424 0.243485
vn 0.558731 -0.829097 -0.020454
vn 0.986184 -0.054900 0.156291
vn 0.689433 -0.694183 0.206863
vn 0.981905 -0.185090 0.040052
vn 0.022562 -0.778032 -0.627820
vn 0.849589 -0.299908 -0.433882
vn 0.186110 -0.808546 -0.558227
vn 0.995534 0.089570 -0.029813
vn 0.998194 0.005910 0.059783
vn 0.988693 0.139616 0.054712
vn 0.462272 -0.753081 -0.468159
vn 0.047396 -0.783142 -0.620035
vn 0.347072 -0.767943 0.538336
vn 0.903622 0.279291 0.324753
vn 0.278032 -0.306866 -0.910237
vn 0.101703 -0.903345 0.416683
vn 0.057203 -0.951269 -0.303010
vn -0.071532 -0.987360 0.141434
vn 0.064734 -0.941265 0.331405
vn 0.125404 -0.983501 0.130381
vn 0.353438 -0.850864 0.388730
vn 0.204977 -0.910108 0.360122
vn 0.357455 0.135383 -0.924066
vn 0.305843 0.899523 0.311959
vn 0.171853 -0.974718 0.142802
vn 0.304864 -0.934761 -0.182426
vn 0.136484 -0.837683 -0.528828
vn 0.101332 0.874121 0.475021
vn -0.062882 0.915227 0.398002
vn 0.265989 0.930694 0.251113
vn 0.048188 -0.974088 0.220978
vn 0.000626 -0.888928 0.458047
vn -0.211149 -0.028181 0.977048
vn -0.196375 -0.417142 0.887372
vn -0.109744 -0.692043 0.713465
vn -0.071427 -0.500392 -0.862848
vn -0.151460 -0.385410 -0.910230
vn -0.183311 -0.064647 -0.980927
vn -0.198939 -0.130364 -0.971302
vn -0.094884 0.386012 -0.917601
vn -0.182888 0.113345 -0.976578
vn -0.117080 -0.650035 -0.750830
vn -0.272491 -0.491203 -0.827326
vn 0.017661 -0.999666 0.018865
vn 0.054438 -0.362453 -0.930411
vn 0.295750 0.094865 -0.950543
vn -0.031980 0.740570 -0.671218
vn 0.243395 0.870955 -0.426845
vn 0.184312 0.769457 -0.611526
vn 0.196729 0.754445 -0.626187
vn 0.013629 0.821354 -0.570256
vn -0.026015 0.999566 0.013787
vn -0.030044 -0.979888 0.197272
vn 0.024872 0.960929 0.275676
vn -0.103426 0.966618 0.234420
vn -0.016765 0.854416 0.519320
vn -0.116246 0.949992 0.289832
vn 0.288377 0.908231 0.303243
vn 0.168853 -0.956226 -0.238998
vn 0.085323 -0.749517 -0.656463
vn 0.204666 -0.734734 -0.646744
vn -0.153201 -0.393651 -0.906404
vn 0.152966 -0.965016 0.212943
vn -0.163596 -0.121445 -0.979024
vn -0.127442 0.316141 -0.940113
vn -0.220173 0.092944 -0.971023
vn -0.126028 -0.971964 0.198501
vn -0.798623 -0.601217 -0.027178
vn -0.436464 -0.808492 -0.394766
vn -0.587731 -0.720532 0.367975
vn -0.952532 -0.273515 0.133686
vn -0.746026 -0.548605 0.377462
vn -0.802500 -0.534625 0.264895
vn -0.039272 -0.256730 -0.965685
vn -0.246761 0.776310 -0.580045
vn -0.506913 0.797213 -0.327858
vn -0.494767 -0.768960 0.404852
vn -0.797903 0.564120 0.212413
vn 0.081230 0.936033 0.342408
vn -0.221501 0.911559 0.346407
vn -0.048985 0.988422 0.143606
vn -0.274484 0.961592 -0.000192
vn -0.230812 0.871528 -0.432626
vn -0.447402 0.842516 0.299996
vn -0.346425 0.938012 0.011151
vn -0.611737 0.746893 0.260631
vn -0.303951 -0.948154 0.092830
vn -0.586244 -0.808007 0.058671
vn -0.698054 0.674473 0.240430
vn -0.036340 -0.988698 -0.145450
vn -0.080283 -0.967772 -0.238689
vn -0.047055 -0.998193 0.037380
vn -0.157009 -0.987570 0.007365
vn -0.195789 -0.951701 -0.236500
vn -0.519914 0.836814 0.171559
vn -0.102239 0.889955 0.444439
vn -0.594962 0.769083 0.233520
vn -0.102926 -0.906494 -0.409481
vn -0.927899 -0.361204 -0.092387
vn -0.803489 0.564886 0.187908
vn -0.717336 0.663581 0.212341
vn -0.213988 -0.463270 -0.859994
vn -0.619966 -0.683752 -0.384871
vn -0.153331 -0.744665 -0.649587
vn -0.144895 -0.511643 -0.846893
vn -0.640566 -0.526425 -0.559064
vn -0.512775 -0.563970 -0.647302
vn -0.157425 -0.781847 -0.603268
vn -0.068158 -0.610184 -0.789323
vn -0.962763 -0.047587 -0.266125
vn 0.064037 -0.964417 -0.256514
vn 0.153531 -0.987299 -0.040842
vn -0.746567 -0.526014 -0.407366
vn -0.978316 -0.054537 -0.199808
vn -0.813022 0.547325 0.198568
vn -0.986782 0.136497 0.087350
vn -0.969803 0.243721 0.009085
vn -0.957926 0.284689 0.036457
vn -0.738120 0.599259 0.309947
vn 0.088381 -0.943459 0.319491
vn -0.896618 0.289251 0.335276
vn -0.903250 0.288521 0.317638
vn -0.787809 0.448058 0.422613
vn -0.917472 0.212928 0.336017
vn -0.431080 0.824396 0.366799
vn -0.536387 0.780843 0.320271
vn -0.465808 0.815269 0.344033
vn -0.060920 0.022371 -0.997892
vn -0.290379 0.188751 -0.938111
vn -0.952030 0.068332 -0.298278
vn -0.605130 0.016424 -0.795957
vn -0.854926 0.490170 -0.169808
vn -0.944926 0.304902 -0.118952
vn -0.443626 0.393266 -0.805319
vn -0.673180 0.559966 -0.482977
vn -0.803771 0.508178 0.309365
vn -0.629318 0.729767 0.267206
vn -0.979591 0.175018 0.098848
vn 0.035922 0.339244 -0.940012
vn 0.029257 -0.040867 -0.998736
vn 0.640408 -0.767387 -0.031529
vn 0.727924 -0.648422 0.222882
vn 0.813136 0.579407 0.055658
vn 0.769751 0.580864 0.264728
vn 0.900096 0.419858 -0.116389
vn 0.594256 0.714227 -0.369782
vn 0.880623 0.419645 -0.220001
vn 0.981963 0.126598 0.140433
vn 0.976428 -0.038718 0.212341
vn 0.360362 -0.797074 0.484574
vn 0.291955 -0.790369 0.538590
vn -0.002834 -0.989894 0.141778
vn 0.977905 0.167534 0.125035
vn 0.979405 0.174776 -0.101093
vn 0.993623 0.086336 0.072516
vn -0.034269 0.477975 -0.877704
vn -0.054535 0.317012 -0.946852
vn 0.381102 0.172267 -0.908342
vn 0.106103 0.988343 0.109183
vn 0.463134 0.885832 -0.028418
vn 0.394057 0.563047 -0.726427
vn 0.480483 -0.857100 -0.185786
vn 0.354943 -0.863544 -0.358200
vn 0.355513 -0.731413 -0.581933
vn 0.497704 -0.843967 -0.200027
vn 0.976725 0.132315 -0.168821
vn 0.600227 0.747367 0.284904
vn 0.723769 0.625707 0.290945
vn 0.950577 0.119765 0.286462
vn 0.938663 0.117645 0.324147
vn -0.047239 -0.774825 0.630409
vn -0.033315 0.858492 0.511743
vn 0.198624 0.232701 0.952050
vn 0.401369 0.752278 0.522475
vn 0.503667 -0.790478 0.348516
vn 0.507312 -0.783045 0.359826
vn 0.131401 -0.966763 0.219326
vn 0.229541 -0.513372 0.826898
vn -0.167401 0.219678 0.961103
vn 0.121335 0.150404 0.981150
vn 0.018118 0.175810 0.984257
vn 0.116128 0.210095 0.970760
vn -0.426448 0.441894 -0.789222
vn -0.182156 0.212465 -0.960041
vn -0.359699 -0.294067 -0.885517
vn -0.547128 0.085141 -0.832708
vn -0.457701 -0.018940 -0.888904
vn -0.518965 -0.550260 -0.654133
vn -0.920542 -0.253795 -0.296969
vn -0.983601 -0.139312 -0.114550
vn -0.984417 -0.158824 -0.075482
vn -0.905507 -0.220911 -0.362291
vn -0.883628 -0.464909 0.055319
vn -0.987842 0.118420 0.100717
vn -0.987553 -0.069102 0.141298
vn -0.992591 0.121325 -0.006600
vn -0.929389 -0.342313 -0.138049
vn -0.919369 -0.319215 -0.229918
vn -0.904826 0.406075 0.128039
vn -0.890527 0.433957 0.136542
vn -0.871660 0.460091 0.168893
vn -0.972123 0.159639 0.171731
vn -0.981279 0.091849 0.169278
vn -0.943303 0.286342 0.167893
vn -0.966959 0.234399 0.100233
vn -0.196725 -0.888515 -0.414536
vn -0.799806 -0.266197 -0.538005
vn -0.911950 -0.228172 -0.341005
vn -0.692231 -0.607035 -0.390287
vn -0.999937 -0.008553 -0.007218
vn 0.060922 -0.369998 0.927033
vn -0.609165 -0.767133 0.201059
vn -0.623208 -0.754682 0.205102
vn -0.980189 -0.071484 0.184713
vn -0.297310 0.692421 0.657389
vn 0.140674 0.120483 0.982698
vn 0.008214 -0.054184 0.998497
vn -0.131435 0.454449 0.881023
vn -0.135025 0.548985 0.824854
f 80//80 6//6 82//82
f 79//79 89//89 112//112
f 79//79 112//112 6//6
f 89//89 79//79 4//4
f 79//79 84//84 4//4
f 81//81 238//238 79//79
f 238//238 84//84 79//79
f 238//238 239//239 84//84
f 22//22 67//67 245//245
f 239//239 83//83 84//84
f 23//23 22//22 245//245
f 6//6 80//80 79//79
f 80//80 1//1 81//81
f 80//80 81//81 79//79
f 84//84 92//92 4//4
f 84//84 97//97 92//92
f 1//1 80//80 2//2
f 80//80 82//82 2//2
f 67//67 244//244 245//245
f 244//244 242//242 245//245
f 240//240 241//241 242//242
f 240//240 242//242 244//244
f 240//240 244//244 243//243
f 240//240 243//243 94//94
f 241//241 245//245 242//242
f 245//245 246//246 23//23
f 241//241 246//246 245//245
f 241//241 43//43 246//246
f 8//8 103//103 26//26
f 102//102 104//104 26//26
f 87//87 26//26 103//103
f 86//86 85//85 88//88
f 85//85 87//87 88//88
f 85//85 108//108 87//87
f 108//108 109//109 87//87
f 85//85 86//86 108//108
f 249//249 108//108 86//86
f 109//109 108//108 249//249
f 249//249 86//86 247//247
f 46//46 129//129 249//249
f 88//88 87//87 8//8
f 87//87 103//103 8//8
f 24//24 250//250 251//251
f 250//250 252//252 251//251
f 251//251 252//252 266//266
f 266//266 252//252 250//250
f 250//250 3//3 111//111
f 250//250 111//111 9//9
f 249//249 247//247 248//248
f 46//46 249//249 110//110
f 249//249 248//248 110//110
f 68//68 6//6 112//112
f 68//68 112//112 47//47
f 92//92 91//91 4//4
f 90//90 4//4 91//91
f 91//91 92//92 93//93
f 4//4 90//90 89//89
f 89//89 90//90 114//114
f 91//91 113//113 90//90
f 5//5 113//113 274//274
f 90//90 113//113 273//273
f 113//113 5//5 273//273
f 6//6 236//236 237//237
f 236//236 254//254 237//237
f 40//40 113//113 91//91
f 40//40 91//91 93//93
f 115//115 274//274 113//113
f 115//115 113//113 40//40
f 115//115 40//40 93//93
f 93//93 92//92 117//117
f 93//93 117//117 115//115
f 274//274 115//115 117//117
f 6//6 255//255 82//82
f 82//82 25//25 2//2
f 255//255 25//25 82//82
f 25//25 255//255 120//120
f 145//145 256//256 257//257
f 258//258 257//257 243//243
f 145//145 257//257 258//258
f 94//94 95//95 240//240
f 240//240 95//95 241//241
f 94//94 243//243 257//257
f 94//94 257//257 95//95
f 241//241 95//95 44//44
f 121//121 95//95 257//257
f 44//44 95//95 121//121
f 100//100 84//84 83//83
f 98//98 97//97 100//100
f 97//97 84//84 100//100
f 98//98 92//92 97//97
f 96//96 92//92 98//98
f 96//96 41//41 92//92
f 123//123 41//41 96//96
f 83//83 99//99 100//100
f 98//98 101//101 69//69
f 100//100 101//101 98//98
f 23//23 246//246 99//99
f 246//246 43//43 99//99
f 100//100 99//99 101//101
f 99//99 43//43 101//101
f 101//101 106//106 69//69
f 43//43 106//106 101//101
f 260//260 262//262 259//259
f 259//259 98//98 69//69
f 262//262 98//98 259//259
f 241//241 42//42 43//43
f 241//241 44//44 42//42
f 262//262 123//123 96//96
f 262//262 96//96 98//98
f 7//7 106//106 43//43
f 7//7 43//43 42//42
f 262//262 260//260 261//261
f 42//42 155//155 264//264
f 69//69 106//106 107//107
f 106//106 7//7 105//105
f 106//106 105//105 107//107
f 7//7 42//42 27//27
f 42//42 264//264 27//27
f 264//264 265//265 27//27
f 3//3 250//250 263//263
f 250//250 24//24 263//263
f 260//260 26//26 104//104
f 124//124 261//261 104//104
f 104//104 261//261 260//260
f 24//24 69//69 107//107
f 15//15 249//249 128//128
f 102//102 26//26 87//87
f 45//45 87//87 109//109
f 102//102 87//87 157//157
f 87//87 45//45 157//157
f 52//52 249//249 15//15
f 109//109 249//249 52//52
f 109//109 52//52 45//45
f 3//3 263//263 105//105
f 263//263 107//107 105//105
f 263//263 24//24 107//107
f 28//28 27//27 265//265
f 46//46 268//268 129//129
f 132//132 131//131 128//128
f 129//129 128//128 249//249
f 132//132 128//128 129//129
f 268//268 132//132 129//129
f 266//266 250//250 267//267
f 250//250 9//9 267//267
f 130//130 70//70 10//10
f 70//70 268//268 46//46
f 270//270 28//28 271//271
f 28//28 265//265 271//271
f 265//265 125//125 271//271
f 47//47 112//112 11//11
f 89//89 114//114 112//112
f 114//114 141//141 112//112
f 112//112 141//141 11//11
f 50//50 11//11 141//141
f 133//133 47//47 11//11
f 134//134 133//133 11//11
f 47//47 135//135 48//48
f 116//116 90//90 273//273
f 272//272 116//116 273//273
f 5//5 119//119 273//273
f 273//273 119//119 118//118
f 273//273 118//118 272//272
f 272//272 118//118 116//116
f 116//116 118//118 54//54
f 116//116 54//54 59//59
f 114//114 90//90 141//141
f 90//90 116//116 141//141
f 48//48 253//253 47//47
f 253//253 236//236 68//68
f 253//253 68//68 47//47
f 236//236 253//253 254//254
f 253//253 48//48 137//137
f 253//253 137//137 254//254
f 254//254 225//225 237//237
f 6//6 143//143 255//255
f 255//255 143//143 120//120
f 120//120 51//51 258//258
f 143//143 51//51 120//120
f 143//143 6//6 142//142
f 144//144 258//258 51//51
f 119//119 5//5 274//274
f 119//119 54//54 118//118
f 150//150 119//119 274//274
f 59//59 119//119 150//150
f 54//54 119//119 59//59
f 146//146 145//145 258//258
f 13//13 145//145 148//148
f 257//257 256//256 176//176
f 149//149 256//256 145//145
f 92//92 122//122 117//117
f 44//44 121//121 151//151
f 151//151 121//121 176//176
f 176//176 121//121 257//257
f 122//122 92//92 41//41
f 123//123 187//187 41//41
f 150//150 274//274 117//117
f 122//122 189//189 117//117
f 117//117 189//189 150//150
f 189//189 122//122 41//41
f 189//189 41//41 187//187
f 14//14 152//152 151//151
f 44//44 151//151 127//127
f 44//44 127//127 42//42
f 42//42 127//127 155//155
f 188//188 123//123 262//262
f 187//187 123//123 188//188
f 187//187 188//188 191//191
f 191//191 195//195 303//303
f 188//188 195//195 191//191
f 151//151 152//152 127//127
f 152//152 155//155 127//127
f 262//262 261//261 124//124
f 262//262 124//124 188//188
f 124//124 104//104 45//45
f 104//104 102//102 157//157
f 104//104 157//157 45//45
f 45//45 201//201 124//124
f 264//264 125//125 265//265
f 155//155 125//125 264//264
f 155//155 126//126 125//125
f 132//132 268//268 70//70
f 53//53 131//131 130//130
f 131//131 132//132 130//130
f 130//130 132//132 70//70
f 30//30 71//71 275//275
f 30//30 275//275 29//29
f 193//193 125//125 126//126
f 10//10 276//276 130//130
f 130//130 276//276 53//53
f 125//125 78//78 269//269
f 125//125 269//269 271//271
f 271//271 269//269 270//270
f 125//125 193//193 153//153
f 125//125 153//153 78//78
f 193//193 222//222 153//153
f 10//10 278//278 276//276
f 278//278 279//279 276//276
f 276//276 279//279 53//53
f 50//50 166//166 285//285
f 11//11 139//139 134//134
f 133//133 134//134 47//47
f 47//47 134//134 135//135
f 135//135 134//134 48//48
f 134//134 139//139 136//136
f 134//134 136//136 48//48
f 285//285 140//140 50//50
f 50//50 139//139 49//49
f 140//140 139//139 50//50
f 49//49 11//11 50//50
f 139//139 11//11 49//49
f 140//140 138//138 136//136
f 140//140 136//136 139//139
f 138//138 137//137 48//48
f 138//138 48//48 136//136
f 138//138 163//163 162//162
f 163//163 137//137 162//162
f 137//137 138//138 162//162
f 138//138 161//161 163//163
f 140//140 161//161 138//138
f 140//140 282//282 163//163
f 140//140 163//163 161//161
f 254//254 137//137 225//225
f 163//163 226//226 137//137
f 137//137 226//226 225//225
f 141//141 164//164 50//50
f 171//171 237//237 225//225
f 171//171 31//31 56//56
f 237//237 56//56 6//6
f 171//171 56//56 237//237
f 142//142 12//12 143//143
f 144//144 51//51 143//143
f 144//144 143//143 72//72
f 142//142 6//6 56//56
f 12//12 31//31 281//281
f 172//172 144//144 72//72
f 281//281 143//143 12//12
f 72//72 143//143 281//281
f 142//142 31//31 57//57
f 56//56 31//31 142//142
f 142//142 57//57 12//12
f 59//59 150//150 184//184
f 149//149 145//145 13//13
f 145//145 146//146 147//147
f 146//146 258//258 144//144
f 146//146 144//144 147//147
f 145//145 147//147 148//148
f 148//148 147//147 144//144
f 144//144 180//180 148//148
f 149//149 148//148 180//180
f 149//149 13//13 148//148
f 149//149 178//178 256//256
f 177//177 178//178 149//149
f 256//256 178//178 176//176
f 144//144 172//172 180//180
f 172//172 173//173 180//180
f 149//149 180//180 179//179
f 149//149 179//179 177//177
f 179//179 180//180 177//177
f 14//14 177//177 181//181
f 14//14 181//181 186//186
f 14//14 151//151 177//177
f 177//177 176//176 178//178
f 151//151 176//176 177//177
f 194//194 152//152 14//14
f 154//154 155//155 152//152
f 154//154 126//126 155//155
f 201//201 195//195 124//124
f 124//124 195//195 188//188
f 156//156 52//52 15//15
f 158//158 45//45 52//52
f 156//156 208//208 158//158
f 158//158 52//52 156//156
f 33//33 159//159 158//158
f 159//159 201//201 45//45
f 159//159 45//45 158//158
f 200//200 202//202 199//199
f 199//199 159//159 33//33
f 202//202 159//159 199//199
f 206//206 201//201 202//202
f 201//201 159//159 202//202
f 203//203 202//202 200//200
f 160//160 15//15 128//128
f 131//131 19//19 217//217
f 131//131 217//217 128//128
f 217//217 160//160 128//128
f 156//156 15//15 209//209
f 75//75 29//29 275//275
f 308//308 275//275 71//71
f 71//71 53//53 313//313
f 313//313 53//53 279//279
f 277//277 279//279 278//278
f 313//313 279//279 277//277
f 282//282 140//140 285//285
f 228//228 225//225 226//226
f 165//165 286//286 285//285
f 284//284 282//282 285//285
f 163//163 282//282 284//284
f 163//163 284//284 226//226
f 226//226 284//284 283//283
f 226//226 283//283 228//228
f 50//50 164//164 166//166
f 165//165 285//285 166//166
f 164//164 141//141 116//116
f 55//55 116//116 59//59
f 164//164 116//116 55//55
f 165//165 166//166 164//164
f 165//165 164//164 167//167
f 164//164 55//55 167//167
f 59//59 174//174 55//55
f 174//174 167//167 55//55
f 168//168 165//165 167//167
f 168//168 167//167 169//169
f 289//289 285//285 286//286
f 165//165 288//288 286//286
f 165//165 168//168 288//288
f 286//286 287//287 289//289
f 171//171 225//225 66//66
f 66//66 65//65 171//171
f 231//231 31//31 65//65
f 65//65 31//31 171//171
f 231//231 65//65 232//232
f 72//72 280//280 172//172
f 280//280 58//58 172//172
f 72//72 281//281 280//280
f 232//232 58//58 280//280
f 231//231 281//281 31//31
f 280//280 281//281 231//231
f 232//232 280//280 231//231
f 58//58 173//173 172//172
f 173//173 58//58 232//232
f 174//174 59//59 16//16
f 167//167 174//174 169//169
f 174//174 170//170 169//169
f 18//18 185//185 184//184
f 185//185 17//17 170//170
f 184//184 170//170 174//174
f 185//185 170//170 184//184
f 184//184 174//174 16//16
f 180//180 173//173 182//182
f 177//177 180//180 181//181
f 181//181 182//182 173//173
f 180//180 182//182 181//181
f 181//181 173//173 183//183
f 232//232 175//175 173//173
f 175//175 183//183 173//173
f 230//230 175//175 229//229
f 189//189 184//184 150//150
f 16//16 59//59 184//184
f 190//190 189//189 187//187
f 184//184 189//189 190//190
f 18//18 184//184 190//190
f 170//170 17//17 292//292
f 175//175 186//186 183//183
f 183//183 186//186 181//181
f 194//194 192//192 186//186
f 192//192 14//14 186//186
f 194//194 14//14 192//192
f 186//186 175//175 233//233
f 186//186 233//233 197//197
f 233//233 175//175 197//197
f 186//186 197//197 194//194
f 198//198 194//194 197//197
f 234//234 198//198 298//298
f 198//198 197//197 298//298
f 191//191 190//190 187//187
f 18//18 190//190 191//191
f 17//17 290//290 292//292
f 290//290 291//291 292//292
f 18//18 191//191 60//60
f 60//60 191//191 196//196
f 196//196 191//191 303//303
f 194//194 193//193 126//126
f 194//194 154//154 152//152
f 126//126 154//154 194//194
f 294//294 291//291 295//295
f 298//298 300//300 299//299
f 292//292 300//300 298//298
f 292//292 291//291 301//301
f 299//299 302//302 32//32
f 292//292 301//301 300//300
f 300//300 302//302 299//299
f 301//301 302//302 300//300
f 194//194 198//198 222//222
f 198//198 234//234 222//222
f 194//194 223//223 193//193
f 222//222 223//223 194//194
f 302//302 301//301 291//291
f 158//158 208//208 33//33
f 33//33 208//208 73//73
f 73//73 208//208 64//64
f 201//201 206//206 205//205
f 206//206 303//303 205//205
f 303//303 206//206 204//204
f 206//206 202//202 204//204
f 202//202 203//203 204//204
f 203//203 61//61 204//204
f 204//204 61//61 303//303
f 303//303 305//305 295//295
f 61//61 305//305 303//303
f 61//61 210//210 62//62
f 61//61 203//203 210//210
f 203//203 200//200 210//210
f 62//62 210//210 74//74
f 62//62 36//36 307//307
f 62//62 307//307 207//207
f 307//307 213//213 211//211
f 307//307 211//211 207//207
f 201//201 205//205 195//195
f 205//205 303//303 195//195
f 295//295 305//305 211//211
f 305//305 61//61 304//304
f 61//61 62//62 207//207
f 304//304 207//207 211//211
f 61//61 207//207 304//304
f 305//305 304//304 211//211
f 211//211 294//294 295//295
f 293//293 294//294 211//211
f 211//211 214//214 293//293
f 294//294 293//293 291//291
f 291//291 293//293 302//302
f 293//293 214//214 302//302
f 223//223 222//222 193//193
f 15//15 160//160 209//209
f 160//160 64//64 208//208
f 209//209 208//208 156//156
f 160//160 208//208 209//209
f 64//64 217//217 19//19
f 160//160 217//217 64//64
f 34//34 74//74 306//306
f 34//34 306//306 200//200
f 74//74 210//210 306//306
f 306//306 210//210 200//200
f 35//35 76//76 309//309
f 35//35 309//309 77//77
f 311//311 307//307 36//36
f 213//213 307//307 311//311
f 63//63 213//213 218//218
f 234//234 224//224 222//222
f 234//234 212//212 224//224
f 224//224 216//216 222//222
f 214//214 297//297 302//302
f 297//297 212//212 296//296
f 302//302 296//296 32//32
f 297//297 296//296 302//302
f 216//216 212//212 297//297
f 216//216 297//297 214//214
f 218//218 216//216 63//63
f 213//213 214//214 211//211
f 63//63 215//215 213//213
f 213//213 215//215 214//214
f 215//215 63//63 214//214
f 63//63 216//216 214//214
f 308//308 20//20 75//75
f 308//308 75//75 275//275
f 76//76 310//310 309//309
f 310//310 37//37 77//77
f 76//76 37//37 310//310
f 310//310 77//77 309//309
f 36//36 38//38 311//311
f 213//213 311//311 221//221
f 311//311 38//38 219//219
f 311//311 219//219 221//221
f 153//153 312//312 78//78
f 20//20 308//308 39//39
f 308//308 314//314 39//39
f 308//308 71//71 314//314
f 277//277 39//39 314//314
f 313//313 314//314 71//71
f 277//277 314//314 313//313
f 153//153 222//222 312//312
f 220//220 38//38 21//21
f 219//219 38//38 220//220
f 312//312 316//316 78//78
f 78//78 316//316 315//315
f 316//316 21//21 315//315
f 312//312 21//21 316//316
f 221//221 218//218 213//213
f 220//220 221//221 219//219
f 218//218 221//221 220//220
f 21//21 312//312 220//220
f 312//312 222//222 216//216
f 312//312 216//216 220//220
f 212//212 216//216 224//224
f 216//216 218//218 220//220
f 227//227 228//228 283//283
f 227//227 289//289 287//287
f 287//287 286//286 288//288
f 225//225 228//228 66//66
f 228//228 227//227 230//230
f 228//228 230//230 66//66
f 230//230 227//227 235//235
f 175//175 235//235 197//197
f 197//197 235//235 298//298
f 230//230 235//235 175//175
f 175//175 232//232 229//229
f 65//65 66//66 230//230
f 65//65 230//230 232//232
f 232//232 230//230 229//229
f 168//168 170//170 292//292
f 235//235 292//292 298//298
f 168//168 292//292 235//235
f 169//169 170//170 168//168
f 288//288 235//235 287//287
f 168//168 235//235 288//288
f 287//287 235//235 227//227
