# decimated by Tools/decimate_anatomy.py from 5088 triangles (BodyParts3D, CC BY 4.0)
v 0.05444327 -0.00850835 0.10751293
v 0.05256021 -0.01089344 0.10868751
v 0.05094062 -0.01277102 0.10783748
v 0.05058906 -0.00385488 0.10861306
v 0.05309567 -0.00809348 0.10176610
v 0.04997138 -0.00392669 0.10960451
v 0.05067386 -0.00700031 0.08710011
v 0.05049064 -0.00918437 0.08746708
v 0.04556995 -0.00594090 0.10981274
v 0.05065077 -0.00787306 0.08200636
v 0.04664022 -0.00347808 0.10113506
v 0.04544874 -0.00447934 0.10196722
v 0.04503618 -0.00431094 0.10639560
v 0.04560855 -0.00472214 0.10999296
v 0.04728455 -0.01243575 0.07932823
v 0.04634703 -0.01293573 0.07952467
v 0.04788403 -0.00315860 0.08183730
v 0.04412574 -0.00146606 0.08721904
v 0.04057214 -0.00254244 0.08796548
v 0.04053972 -0.00255465 0.08797368
v 0.05243857 -0.01297906 0.10786296
v 0.04918675 -0.00401018 0.11021663
v 0.04538276 -0.00475756 0.10988260
v 0.05037150 -0.01047528 0.09346899
v 0.04663359 -0.00331247 0.09986009
v 0.04553109 -0.00458717 0.10375545
v 0.04455784 -0.00452203 0.10688374
v 0.04896434 -0.00673208 0.07909986
v 0.04523633 -0.00235731 0.08070362
v 0.04189363 -0.00101712 0.08163486
v 0.05220362 -0.01374939 0.10691601
v 0.05391965 -0.00651762 0.10653683
v 0.05284914 -0.00555949 0.10699664
v 0.04883984 -0.00855535 0.10862624
v 0.04854008 -0.00320092 0.10691569
v 0.04946640 -0.00868192 0.07904314
v 0.05044911 -0.00723739 0.08084808
v 0.04428577 -0.01268647 0.08028988
v 0.04070208 -0.00846875 0.08113801
v 0.04063440 -0.01038156 0.08165455
v 0.04323230 -0.00190736 0.08110589
v 0.04160995 -0.01171683 0.08231391
v 0.04106488 -0.00146359 0.08534592
v 0.04045166 -0.00254603 0.08788951
v 0.03861768 -0.00778187 0.08170477
v 0.03849196 -0.00310989 0.08597868
v 0.03760523 -0.00583779 0.08206836
v 0.04052578 -0.00253301 0.08790870
v 0.05009721 -0.01367765 0.10596246
v 0.05105528 -0.01424557 0.10602774
v 0.04920613 -0.00404254 0.11024397
v 0.04611188 -0.00538094 0.11019035
v 0.04618794 -0.01024864 0.08851305
v 0.04661114 -0.00339779 0.10009467
v 0.04662916 -0.00346353 0.10109666
v 0.04524633 -0.00536761 0.10490108
v 0.04544222 -0.00438781 0.10140541
v 0.04482778 -0.00484713 0.09986174
v 0.04318694 -0.00439041 0.09500758
v 0.04249993 -0.01246712 0.08193839
v 0.04099588 -0.00127109 0.08179578
v 0.03815049 -0.00720255 0.08161818
v 0.03993192 -0.00873838 0.08146609
v 0.04045866 -0.00133140 0.08331076
v 0.05400661 -0.01079623 0.10716322
v 0.05466286 -0.00842762 0.10690387
v 0.05458327 -0.00801291 0.10707265
v 0.05439728 -0.00787595 0.10730721
v 0.05301342 -0.01276303 0.10766175
v 0.05403436 -0.00969328 0.10806696
v 0.05282258 -0.01237940 0.10810850
v 0.05363386 -0.00899060 0.10826554
v 0.05458450 -0.00929704 0.10721046
v 0.05176836 -0.01394842 0.10691925
v 0.05137088 -0.01415143 0.10684092
v 0.05100440 -0.01430490 0.10544891
v 0.05161434 -0.00532082 0.09973468
v 0.05323362 -0.00768220 0.10823453
v 0.05055865 -0.01010873 0.10864177
v 0.05164186 -0.00599772 0.10862754
v 0.05135798 -0.01366691 0.10472743
v 0.05070045 -0.01238718 0.10224376
v 0.05046898 -0.01157497 0.10084498
v 0.05227411 -0.00499644 0.10712706
v 0.04974997 -0.00367017 0.10119254
v 0.04823418 -0.00872700 0.10440045
v 0.04947501 -0.01084686 0.10109928
v 0.04910780 -0.01166206 0.10454059
v 0.04903457 -0.01165080 0.10490808
v 0.04826782 -0.00956004 0.10699334
v 0.04944560 -0.01106969 0.10757421
v 0.05059297 -0.00921083 0.10899207
v 0.05033159 -0.00405084 0.10936562
v 0.04880970 -0.00316259 0.10694464
v 0.04880303 -0.00321903 0.10616207
v 0.04988309 -0.00650282 0.10947088
v 0.04970809 -0.00437677 0.10997752
v 0.04891418 -0.00677107 0.10991232
v 0.04880821 -0.00635180 0.11012426
v 0.04825408 -0.00487766 0.11073205
v 0.04893557 -0.00329731 0.10773929
v 0.04981132 -0.00361910 0.10933468
v 0.04943204 -0.00378777 0.10986362
v 0.05173623 -0.00983925 0.09675106
v 0.05175977 -0.01082132 0.10004169
v 0.05045179 -0.01042529 0.09336155
v 0.05010763 -0.01000210 0.08770104
v 0.04761594 -0.00822838 0.10487364
v 0.04627978 -0.00657251 0.10331052
v 0.04617958 -0.00690623 0.10898919
v 0.04568255 -0.00614671 0.10984940
v 0.04562964 -0.00685812 0.10778524
v 0.04746996 -0.00854133 0.10726493
v 0.05017328 -0.00999713 0.08255864
v 0.04928690 -0.01095469 0.08837929
v 0.04785735 -0.01284697 0.08224534
v 0.04998469 -0.01024081 0.08063334
v 0.04933769 -0.01166993 0.08080066
v 0.05009790 -0.01017725 0.08148234
v 0.04926594 -0.01140932 0.08329824
v 0.04957379 -0.01118803 0.08198104
v 0.04924215 -0.01186712 0.08158409
v 0.05054546 -0.00693084 0.08443806
v 0.05055306 -0.00729473 0.08208536
v 0.05017373 -0.00555872 0.08348788
v 0.04998510 -0.00475009 0.08911600
v 0.04665640 -0.00308725 0.09589904
v 0.04511184 -0.00572537 0.10044144
v 0.04654699 -0.00720568 0.10565969
v 0.04565784 -0.00599162 0.10485787
v 0.04759149 -0.00354606 0.10325183
v 0.04544676 -0.00574291 0.10207579
v 0.04546762 -0.00571716 0.10375445
v 0.04538346 -0.00559412 0.10492727
v 0.04523296 -0.00460956 0.10500101
v 0.04521982 -0.00461664 0.10502149
v 0.04723893 -0.00810826 0.10650563
v 0.04465334 -0.00561895 0.10779022
v 0.04502584 -0.00583468 0.10583655
v 0.04499436 -0.00593386 0.10603450
v 0.04459559 -0.00552246 0.10768743
v 0.04463312 -0.00531551 0.10650788
v 0.04698550 -0.01291416 0.07993426
v 0.04680958 -0.01276239 0.07954717
v 0.04629512 -0.01307042 0.07978727
v 0.04612403 -0.01258356 0.07934913
v 0.04876328 -0.01017691 0.07845023
v 0.04871648 -0.01155876 0.07947918
v 0.04823634 -0.01087511 0.07847122
v 0.04850099 -0.01065146 0.07857666
v 0.04681952 -0.01236421 0.07907336
v 0.04733825 -0.01149287 0.07860283
v 0.04953175 -0.01016294 0.07936738
v 0.05017442 -0.00584844 0.08168565
v 0.04897088 -0.00716248 0.07896786
v 0.04851294 -0.00773487 0.07869776
v 0.04855136 -0.00504182 0.07972191
v 0.04761060 -0.01292809 0.08152552
v 0.04791453 -0.01281126 0.08222231
v 0.04895371 -0.01213684 0.08146756
v 0.04682789 -0.01301267 0.08018823
v 0.04641926 -0.01316593 0.08062904
v 0.04754860 -0.01296423 0.08102017
v 0.04853805 -0.00478521 0.07992979
v 0.04835425 -0.01009223 0.09446360
v 0.04542331 -0.00786972 0.09624277
v 0.04476497 -0.00595275 0.09859450
v 0.04485120 -0.00487896 0.09994298
v 0.04381803 -0.00516690 0.09708603
v 0.04454924 -0.00491290 0.09913989
v 0.04378292 -0.00497217 0.09717393
v 0.04437851 -0.01158455 0.08012348
v 0.04678649 -0.01138757 0.07888168
v 0.04726770 -0.00538546 0.07971434
v 0.04491876 -0.01264332 0.07994808
v 0.04536088 -0.01325124 0.08046077
v 0.04253966 -0.01249409 0.08180916
v 0.04839161 -0.00646288 0.07903155
v 0.04437227 -0.01293128 0.08171076
v 0.04400106 -0.00200321 0.08911969
v 0.04239056 -0.01234705 0.08179031
v 0.04094678 -0.01063183 0.08121884
v 0.04346845 -0.01183083 0.08032257
v 0.04145798 -0.01028278 0.08079792
v 0.04045898 -0.00953024 0.08129849
v 0.04438860 -0.01148189 0.08011124
v 0.04127641 -0.00728891 0.08109713
v 0.04186448 -0.00098503 0.08174426
v 0.04131879 -0.01135038 0.08205463
v 0.04023523 -0.00978409 0.08236146
v 0.04535853 -0.00940137 0.09031807
v 0.04157701 -0.01170402 0.08239546
v 0.04831632 -0.00307024 0.08877134
v 0.04660737 -0.00227528 0.08270760
v 0.04418118 -0.00138230 0.08687321
v 0.04428337 -0.00105249 0.08193147
v 0.04195057 -0.00092602 0.08215445
v 0.04286790 -0.00084154 0.08426318
v 0.04076461 -0.00617392 0.08987151
v 0.03914976 -0.00502982 0.08804609
v 0.04266203 -0.00530991 0.09452224
v 0.03953727 -0.00528492 0.08856064
v 0.04158814 -0.00576052 0.09197180
v 0.04047872 -0.00256023 0.08794480
v 0.04052566 -0.00254611 0.08794200
v 0.04046422 -0.00252846 0.08785361
v 0.04048616 -0.00253918 0.08789642
v 0.04047662 -0.00255582 0.08793208
v 0.04024048 -0.00953347 0.08168897
v 0.03858096 -0.00738875 0.08129711
v 0.03931207 -0.00800471 0.08135871
v 0.04004653 -0.00805025 0.08115938
v 0.03957266 -0.00896041 0.08232981
v 0.03787464 -0.00576617 0.08161387
v 0.03783147 -0.00489855 0.08179479
v 0.03970287 -0.00221528 0.08154169
v 0.03865643 -0.00673871 0.08119784
v 0.04001392 -0.00875512 0.08425874
v 0.03791456 -0.00701519 0.08381601
v 0.03949504 -0.00887964 0.08245758
v 0.03851679 -0.00769163 0.08172003
v 0.03779747 -0.00684324 0.08329153
v 0.03792428 -0.00685882 0.08186390
v 0.03762051 -0.00592471 0.08207941
v 0.04039808 -0.00610557 0.08926256
v 0.03755546 -0.00525099 0.08525185
v 0.03871197 -0.00531916 0.08717396
v 0.03861439 -0.00340479 0.08637300
v 0.03976237 -0.00191853 0.08451511
v 0.03948100 -0.00196221 0.08197716
v 0.03911447 -0.00501850 0.08800931
v 0.03745610 -0.00404044 0.08522600
v 0.03754442 -0.00358222 0.08477233
v 0.03718989 -0.00419874 0.08435404
v 0.03762940 -0.00639282 0.08382130
v 0.03717588 -0.00439650 0.08420485
v 0.03757937 -0.00330285 0.08434357
v 0.04046491 -0.00253286 0.08786530
v 0.04052469 -0.00254738 0.08794453
v 0.04043490 -0.00256655 0.08792995
v 0.04048994 -0.00253852 0.08789740
v 0.04047381 -0.00255522 0.08792858
v 0.05069307 -0.01286956 0.10303113
v 0.04969092 -0.01333550 0.10511150
v 0.04963155 -0.01265256 0.10394560
v 0.04948781 -0.01124944 0.10335993
v 0.04620176 -0.00458729 0.11006441
v 0.04601434 -0.00593033 0.11004428
v 0.04617077 -0.00485099 0.11023327
v 0.04310646 -0.01245585 0.08304545
v 0.04810093 -0.01002296 0.09241557
v 0.04568752 -0.00407962 0.10044150
v 0.04390612 -0.00250406 0.09077424
v 0.04543919 -0.00560998 0.10206623
v 0.04518869 -0.00449436 0.10044356
v 0.04563694 -0.00432637 0.10290679
v 0.04600840 -0.00405922 0.10451824
v 0.04540973 -0.00447902 0.10481926
v 0.04530760 -0.00515417 0.10397039
v 0.04529620 -0.00516678 0.10429635
v 0.04565313 -0.00432528 0.10324222
v 0.04548565 -0.00460881 0.10324548
v 0.04459860 -0.00454275 0.10677965
v 0.04520507 -0.00488257 0.10489670
v 0.04614152 -0.00396099 0.10432012
v 0.04517823 -0.00428809 0.10593238
v 0.04464946 -0.00519361 0.10596839
v 0.04457660 -0.00492007 0.10724331
v 0.04482322 -0.00480332 0.09978823
v 0.04316332 -0.00378229 0.09431262
v 0.04359641 -0.00489158 0.09661558
v 0.04057165 -0.00281476 0.08743737
v 0.04355923 -0.00489414 0.09656907
v 0.04080856 -0.00431193 0.09050041
v 0.04335200 -0.01270669 0.08186743
v 0.04179608 -0.01181364 0.08242823
v 0.04415590 -0.00119548 0.08148420
v 0.04720449 -0.00293616 0.08153984
v 0.04139694 -0.00128844 0.08157904
v 0.04012404 -0.00155424 0.08196649
v 0.03972992 -0.00881994 0.08187704
v 0.03806559 -0.00688798 0.08151812
v 0.03978876 -0.00165794 0.08215532
v 0.03861141 -0.00252336 0.08316606
vn 0.837850 0.065342 0.541977
vn 0.077260 -0.143306 0.986658
vn -0.363000 -0.477229 0.800302
vn 0.491079 0.871075 0.008338
vn 0.971965 0.066793 -0.225437
vn 0.535182 0.600574 0.594046
vn 0.987120 0.147033 -0.063052
vn 0.990365 -0.065708 -0.121900
vn -0.824443 -0.465315 0.322142
vn 0.992422 -0.114576 -0.044403
vn 0.118824 0.989313 0.084498
vn -0.775167 0.625082 0.091592
vn -0.275319 0.957870 0.081759
vn -0.308759 0.934529 0.176982
vn 0.482279 -0.761380 -0.433251
vn -0.167936 -0.706901 -0.687087
vn 0.676479 0.727807 -0.112577
vn 0.017123 0.985805 0.167021
vn 0.249945 -0.901321 -0.353763
vn -0.249955 0.901315 0.353771
vn 0.026618 -0.726498 0.686653
vn -0.118394 0.761357 0.637432
vn -0.942256 0.014600 0.334575
vn -0.011254 -0.986337 0.164353
vn -0.481683 0.848131 0.220579
vn -0.962631 0.018636 -0.270174
vn -0.979203 0.108642 0.171344
vn 0.642524 0.480368 -0.597000
vn -0.122726 0.272495 -0.954298
vn -0.116081 0.422458 -0.898918
vn 0.775597 -0.573449 -0.263827
vn 0.804463 0.590697 -0.062576
vn 0.651404 0.475135 0.591540
vn -0.352347 -0.586737 0.729103
vn -0.289540 0.952640 0.092970
vn 0.785734 0.219126 -0.578451
vn 0.946154 0.083629 -0.312727
vn -0.463518 -0.637904 -0.615004
vn -0.248201 0.014863 -0.968594
vn -0.831749 -0.531612 -0.159945
vn -0.183210 0.086611 -0.979251
vn -0.667483 -0.739778 -0.084820
vn -0.330821 0.902656 0.275261
vn 0.249827 -0.901362 -0.353743
vn -0.724924 -0.666439 -0.174196
vn -0.488904 0.800541 0.346564
vn -0.962185 -0.091517 -0.256562
vn -0.250220 0.901190 0.353902
vn -0.698114 -0.566833 0.437421
vn -0.352623 -0.915838 0.192087
vn 0.512169 0.088091 0.854355
vn -0.107619 -0.234713 0.966089
vn -0.443454 -0.781298 0.439229
vn -0.563633 0.800436 0.204009
vn -0.624438 0.780231 0.036271
vn -0.929410 -0.308314 -0.202829
vn -0.985593 0.161386 0.050605
vn -0.748083 0.603373 0.276248
vn -0.763116 0.533349 0.364957
vn -0.296724 -0.953873 0.045625
vn -0.328549 0.673766 -0.661887
vn -0.749938 -0.561216 -0.350185
vn -0.554047 -0.462740 -0.692029
vn -0.389081 0.917634 0.081013
vn 0.841398 -0.471696 -0.263727
vn 0.955071 0.158912 -0.250174
vn 0.930503 0.326323 0.166363
vn 0.630299 0.367288 0.683976
vn 0.804423 -0.489928 0.335969
vn 0.694118 -0.123879 0.709122
vn 0.320252 -0.343081 0.883026
vn 0.322531 0.065568 0.944285
vn 0.937410 -0.280902 -0.205808
vn 0.288895 -0.716901 0.634502
vn 0.430389 -0.864432 0.259852
vn 0.524360 -0.796627 -0.300718
vn 0.874604 0.468858 -0.123451
vn 0.613750 0.382677 0.690557
vn -0.273130 -0.471140 0.838705
vn 0.501871 0.163828 0.849285
vn 0.716830 -0.612777 -0.332655
vn -0.744252 -0.611346 -0.268969
vn -0.305883 -0.945557 -0.111164
vn 0.588096 0.808092 0.033620
vn 0.418399 0.907958 -0.023555
vn -0.804557 -0.589839 0.069130
vn -0.713562 -0.692498 0.106189
vn -0.904272 -0.303133 -0.300669
vn -0.949084 -0.309259 -0.059990
vn -0.803290 -0.552872 0.221492
vn -0.606119 -0.431777 0.667973
vn 0.112523 -0.198654 0.973589
vn 0.740898 0.340891 0.578674
vn 0.295005 0.955219 0.023003
vn 0.333676 0.941402 -0.049225
vn 0.356241 -0.143266 0.923346
vn 0.498116 -0.071232 0.864179
vn -0.055238 -0.448857 0.891895
vn 0.494538 -0.175499 0.851254
vn 0.491477 -0.129334 0.861234
vn -0.196680 0.943560 0.266481
vn -0.044835 0.972009 0.230628
vn -0.032606 0.935642 0.351440
vn 0.875937 -0.459107 -0.148172
vn 0.803344 -0.533948 -0.263699
vn 0.754245 -0.640549 -0.144259
vn 0.809264 -0.585830 -0.043531
vn -0.736997 -0.661901 -0.136830
vn -0.790961 -0.597439 0.132090
vn -0.687428 -0.699303 0.196005
vn -0.367330 -0.711011 0.599610
vn -0.725570 -0.687571 0.028202
vn -0.726076 -0.685863 -0.049040
vn 0.909651 -0.415371 -0.000972
vn 0.822099 -0.568824 -0.024351
vn 0.972104 -0.146725 -0.182989
vn 0.927578 -0.286194 -0.240191
vn 0.835095 -0.478842 -0.270789
vn 0.885567 -0.463133 0.035769
vn 0.780781 -0.620160 0.076042
vn 0.884173 -0.465908 0.034177
vn 0.824131 -0.560409 0.082151
vn 0.973467 0.225014 -0.041604
vn 0.973080 0.225949 -0.045410
vn 0.843578 0.533926 -0.057431
vn 0.796135 0.600649 -0.073414
vn 0.215870 0.974434 0.062280
vn -0.899601 -0.360951 0.245830
vn -0.714884 -0.683737 -0.146441
vn -0.749842 -0.643685 -0.152992
vn -0.081417 0.996500 0.018965
vn -0.811414 -0.580433 0.068591
vn -0.740544 -0.671997 -0.003888
vn -0.825713 -0.546958 -0.137969
vn -0.857796 0.493132 -0.144937
vn -0.746657 0.600102 -0.287019
vn -0.734212 -0.665970 -0.131972
vn -0.745656 -0.666201 0.013158
vn -0.768364 -0.524860 -0.366250
vn -0.716371 -0.695047 -0.061006
vn -0.963224 -0.122393 0.239204
vn -0.948042 -0.300759 -0.103734
vn 0.413014 -0.845552 -0.338322
vn 0.333605 -0.813018 -0.477189
vn 0.151827 -0.969195 -0.193934
vn -0.330319 -0.336491 -0.881852
vn 0.534307 -0.187450 -0.824244
vn 0.571991 -0.686199 -0.449396
vn 0.395830 -0.582332 -0.710076
vn 0.616163 -0.483710 -0.621584
vn 0.342847 -0.618319 -0.707204
vn -0.325710 -0.035626 -0.944798
vn 0.886392 -0.151523 -0.437435
vn 0.851161 0.436079 -0.292166
vn 0.423624 0.160199 -0.891560
vn -0.302025 0.152037 -0.941098
vn 0.679592 0.502812 -0.534167
vn -0.013306 -0.978415 0.206222
vn 0.664372 -0.743230 0.078858
vn 0.582051 -0.809368 -0.078361
vn 0.252630 -0.951626 -0.174887
vn 0.005038 -0.980135 0.198267
vn 0.481546 -0.840432 -0.248571
vn 0.658735 0.653070 -0.373588
vn -0.556596 -0.818837 0.140381
vn -0.671539 -0.721890 0.167063
vn -0.782261 -0.542857 0.305571
vn -0.947785 -0.009649 0.318765
vn -0.887688 -0.280160 0.365405
vn -0.895123 -0.271104 0.353918
vn -0.780818 -0.490293 0.387216
vn -0.409029 -0.089709 -0.908101
vn -0.443988 0.153005 -0.882873
vn -0.340033 0.110260 -0.933927
vn -0.443368 -0.168914 -0.880280
vn -0.213365 -0.968938 -0.125035
vn -0.577317 -0.768828 -0.274971
vn -0.109167 0.281774 -0.953250
vn -0.118067 -0.990187 0.074767
vn -0.336031 0.909487 0.244780
vn -0.582382 -0.652031 -0.485476
vn -0.586050 -0.495671 -0.640980
vn -0.285362 -0.084098 -0.954723
vn -0.365843 -0.076048 -0.927564
vn -0.655940 -0.271098 -0.704449
vn -0.283679 0.085197 -0.955127
vn -0.184331 0.066281 -0.980627
vn -0.068603 0.979328 -0.190293
vn -0.720198 -0.660230 -0.213098
vn -0.774140 -0.597168 0.209992
vn -0.516732 -0.764393 0.385605
vn -0.807310 -0.571017 0.148965
vn 0.471284 0.881974 0.003615
vn 0.584316 0.810179 -0.046752
vn 0.280371 0.954588 0.100763
vn 0.351808 0.935961 -0.014415
vn -0.160775 0.986969 0.006546
vn -0.016657 0.994435 0.104030
vn -0.621498 -0.741853 0.251780
vn -0.888704 0.046435 0.456125
vn -0.798060 -0.444112 0.407266
vn -0.794229 -0.447559 0.410964
vn -0.837848 -0.360761 0.409710
vn 0.249888 -0.901352 -0.353724
vn 0.249933 -0.901351 -0.353694
vn 0.249961 -0.901302 -0.353801
vn 0.249931 -0.901334 -0.353740
vn 0.249914 -0.901355 -0.353699
vn -0.796122 -0.365703 -0.482132
vn -0.429560 -0.106544 -0.896731
vn -0.282441 -0.238659 -0.929123
vn -0.051456 -0.009851 -0.998627
vn -0.771381 -0.553025 -0.314855
vn -0.805455 0.051584 -0.590407
vn -0.733982 0.346439 -0.584167
vn -0.229611 0.183815 -0.955767
vn -0.153277 0.057757 -0.986494
vn -0.607293 -0.675616 0.418017
vn -0.709695 -0.621950 0.330926
vn -0.719051 -0.679919 0.143793
vn -0.777116 -0.628651 -0.029825
vn -0.855177 -0.516901 -0.038550
vn -0.940791 -0.319616 -0.112954
vn -0.954059 -0.273728 -0.121837
vn -0.621930 -0.682700 0.383566
vn -0.839227 -0.362413 0.405406
vn -0.790638 -0.381192 0.479149
vn -0.647003 0.479012 0.593241
vn -0.514376 0.840479 0.170333
vn -0.704430 0.555342 -0.442010
vn -0.777953 0.337437 0.530024
vn -0.848900 0.181341 0.496472
vn -0.775621 0.533396 0.337491
vn -0.972694 0.193022 -0.128873
vn -0.963760 -0.265405 0.026948
vn -0.991425 -0.123675 -0.042191
vn -0.706877 0.707329 0.003255
vn -0.249939 0.901337 0.353725
vn -0.249933 0.901355 0.353685
vn -0.249981 0.901313 0.353757
vn -0.249905 0.901341 0.353741
vn -0.249853 0.901379 0.353681
vn -0.390175 -0.840390 -0.376176
vn -0.800543 -0.598899 0.021232
vn -0.805036 -0.423384 -0.415528
vn -0.831727 -0.237947 -0.501609
vn -0.215668 0.926429 0.308572
vn -0.116533 -0.517753 0.847556
vn -0.159978 0.545577 0.822650
vn -0.318033 -0.868056 0.381227
vn -0.273493 -0.961586 0.023532
vn -0.639549 0.766400 0.060063
vn -0.398494 0.880617 0.256353
vn -0.990164 0.032181 0.136161
vn -0.572963 0.780012 0.251583
vn -0.631977 0.773630 0.045847
vn -0.640181 0.758037 -0.124691
vn -0.582346 0.812894 -0.008706
vn -0.997580 -0.033484 -0.060926
vn -0.883021 0.461423 0.085803
vn -0.663329 0.748126 0.017366
vn -0.836703 0.543194 0.069771
vn -0.839688 0.434364 -0.325963
vn -0.927550 0.039687 -0.371587
vn -0.639475 0.768783 0.006637
vn -0.693590 0.659311 -0.290243
vn -0.950309 -0.065541 -0.304329
vn -0.980175 0.100473 0.170767
vn -0.878847 0.344420 0.330156
vn -0.510265 0.801023 0.313036
vn -0.761444 0.542039 0.355524
vn -0.638263 0.652646 0.408257
vn -0.787052 0.469002 0.400733
vn -0.727642 0.576756 0.371336
vn -0.223341 -0.965735 0.132195
vn -0.654561 -0.645185 0.394063
vn 0.398040 0.774990 -0.490871
vn 0.425963 0.750311 -0.505558
vn -0.214758 0.443711 -0.870057
vn -0.500948 0.796858 -0.337739
vn -0.582500 -0.695294 -0.421023
vn -0.688015 -0.352136 -0.634536
vn -0.415339 0.909555 -0.014233
vn -0.705189 0.692080 -0.154055
f 69//69 71//71 21//21
f 74//74 31//31 69//69
f 75//75 69//69 21//21
f 74//74 69//69 75//75
f 70//70 71//71 69//69
f 66//66 1//1 73//73
f 65//65 73//73 69//69
f 73//73 70//70 69//69
f 67//67 1//1 66//66
f 67//67 68//68 1//1
f 1//1 70//70 73//73
f 73//73 65//65 105//105
f 66//66 32//32 67//67
f 67//67 32//32 68//68
f 32//32 78//78 68//68
f 71//71 70//70 2//2
f 3//3 21//21 71//71
f 3//3 71//71 2//2
f 70//70 72//72 2//2
f 1//1 68//68 70//70
f 78//78 72//72 70//70
f 68//68 78//78 70//70
f 32//32 80//80 78//78
f 82//82 81//81 76//76
f 244//244 243//243 50//50
f 245//245 243//243 244//244
f 81//81 105//105 65//65
f 81//81 65//65 31//31
f 31//31 65//65 69//69
f 81//81 82//82 83//83
f 105//105 83//83 24//24
f 81//81 83//83 105//105
f 5//5 66//66 73//73
f 73//73 105//105 5//5
f 5//5 32//32 66//66
f 77//77 32//32 5//5
f 81//81 31//31 76//76
f 76//76 31//31 75//75
f 31//31 74//74 75//75
f 3//3 50//50 21//21
f 49//49 50//50 3//3
f 49//49 3//3 91//91
f 49//49 91//91 244//244
f 50//50 49//49 244//244
f 244//244 91//91 90//90
f 32//32 77//77 85//85
f 32//32 84//84 33//33
f 85//85 84//84 32//32
f 3//3 2//2 91//91
f 79//79 2//2 92//92
f 2//2 79//79 91//91
f 92//92 91//91 79//79
f 91//91 92//92 34//34
f 92//92 2//2 80//80
f 2//2 72//72 80//80
f 78//78 80//80 72//72
f 32//32 33//33 80//80
f 84//84 80//80 33//33
f 84//84 93//93 80//80
f 80//80 97//97 92//92
f 93//93 97//97 80//80
f 4//4 6//6 93//93
f 93//93 84//84 4//4
f 105//105 104//104 5//5
f 105//105 24//24 106//106
f 104//104 8//8 5//5
f 105//105 106//106 104//104
f 106//106 8//8 104//104
f 251//251 24//24 83//83
f 251//251 83//83 165//165
f 83//83 166//166 165//165
f 88//88 246//246 245//245
f 246//246 88//88 86//86
f 82//82 245//245 246//246
f 82//82 87//87 83//83
f 87//87 82//82 86//86
f 246//246 86//86 82//82
f 87//87 166//166 83//83
f 86//86 166//166 87//87
f 193//193 85//85 77//77
f 90//90 89//89 244//244
f 86//86 89//89 90//90
f 244//244 88//88 245//245
f 86//86 88//88 89//89
f 89//89 88//88 244//244
f 86//86 90//90 108//108
f 84//84 85//85 95//95
f 84//84 95//95 4//4
f 91//91 34//34 90//90
f 92//92 98//98 34//34
f 97//97 96//96 92//92
f 96//96 98//98 92//92
f 94//94 4//4 95//95
f 102//102 4//4 94//94
f 6//6 4//4 103//103
f 103//103 4//4 102//102
f 101//101 102//102 94//94
f 93//93 6//6 97//97
f 97//97 6//6 51//51
f 22//22 6//6 103//103
f 247//247 22//22 103//103
f 100//100 97//97 51//51
f 98//98 96//96 99//99
f 99//99 97//97 100//100
f 96//96 97//97 99//99
f 34//34 98//98 248//248
f 34//34 248//248 111//111
f 22//22 247//247 249//249
f 249//249 247//247 14//14
f 10//10 7//7 8//8
f 24//24 107//107 106//106
f 106//106 107//107 8//8
f 166//166 86//86 109//109
f 86//86 108//108 109//109
f 130//130 129//129 139//139
f 85//85 131//131 95//95
f 95//95 35//35 94//94
f 131//131 35//35 95//95
f 129//129 108//108 137//137
f 113//113 108//108 90//90
f 108//108 113//113 137//137
f 137//137 113//113 129//129
f 112//112 129//129 113//113
f 112//112 138//138 129//129
f 103//103 102//102 247//247
f 102//102 101//101 247//247
f 101//101 94//94 35//35
f 247//247 35//35 14//14
f 101//101 35//35 247//247
f 9//9 110//110 111//111
f 111//111 90//90 34//34
f 110//110 90//90 111//111
f 9//9 112//112 110//110
f 113//113 90//90 110//110
f 112//112 113//113 110//110
f 112//112 9//9 138//138
f 98//98 52//52 248//248
f 111//111 52//52 9//9
f 248//248 52//52 111//111
f 141//141 9//9 23//23
f 138//138 9//9 141//141
f 160//160 148//148 118//118
f 160//160 118//118 122//122
f 117//117 118//118 147//147
f 118//118 148//148 147//147
f 163//163 148//148 160//160
f 163//163 160//160 158//158
f 37//37 124//124 10//10
f 10//10 117//117 37//37
f 117//117 153//153 37//37
f 153//153 36//36 37//37
f 36//36 154//154 37//37
f 120//120 159//159 160//160
f 160//160 159//159 158//158
f 158//158 159//159 116//116
f 114//114 119//119 117//117
f 114//114 117//117 10//10
f 114//114 10//10 8//8
f 8//8 107//107 114//114
f 107//107 24//24 115//115
f 115//115 114//114 107//107
f 120//120 160//160 122//122
f 120//120 122//122 118//118
f 117//117 121//121 118//118
f 121//121 120//120 118//118
f 119//119 121//121 117//117
f 120//120 121//121 119//119
f 119//119 114//114 120//120
f 120//120 114//114 115//115
f 120//120 115//115 159//159
f 115//115 24//24 116//116
f 115//115 116//116 159//159
f 77//77 126//126 193//193
f 8//8 77//77 5//5
f 7//7 77//77 8//8
f 154//154 7//7 123//123
f 7//7 10//10 123//123
f 37//37 123//123 124//124
f 123//123 10//10 124//124
f 154//154 123//123 37//37
f 7//7 126//126 77//77
f 154//154 125//125 7//7
f 125//125 126//126 7//7
f 24//24 251//251 53//53
f 85//85 193//193 127//127
f 57//57 12//12 252//252
f 255//255 57//57 252//252
f 252//252 54//54 255//255
f 109//109 132//132 128//128
f 109//109 167//167 166//166
f 128//128 167//167 109//109
f 168//168 254//254 255//255
f 132//132 254//254 128//128
f 254//254 168//168 128//128
f 108//108 129//129 109//109
f 129//129 130//130 109//109
f 256//256 265//265 55//55
f 257//257 265//265 256//256
f 252//252 256//256 54//54
f 54//54 55//55 25//25
f 256//256 55//55 54//54
f 11//11 131//131 127//127
f 11//11 13//13 131//131
f 127//127 131//131 85//85
f 255//255 254//254 57//57
f 57//57 254//254 259//259
f 254//254 132//132 259//259
f 109//109 130//130 133//133
f 109//109 133//133 132//132
f 132//132 134//134 56//56
f 133//133 134//134 132//132
f 130//130 134//134 133//133
f 26//26 56//56 264//264
f 26//26 264//264 135//135
f 264//264 136//136 135//135
f 261//261 257//257 256//256
f 261//261 135//135 258//258
f 261//261 258//258 257//257
f 264//264 267//267 263//263
f 264//264 263//263 136//136
f 135//135 136//136 258//258
f 258//258 136//136 257//257
f 136//136 263//263 266//266
f 257//257 266//266 265//265
f 136//136 266//266 257//257
f 252//252 262//262 256//256
f 12//12 262//262 252//252
f 12//12 260//260 262//262
f 260//260 261//261 262//262
f 262//262 261//261 256//256
f 141//141 23//23 268//268
f 268//268 23//23 27//27
f 267//267 264//264 139//139
f 264//264 56//56 139//139
f 56//56 134//134 139//139
f 134//134 130//130 139//139
f 140//140 139//139 129//129
f 13//13 35//35 131//131
f 13//13 14//14 35//35
f 129//129 138//138 140//140
f 139//139 142//142 267//267
f 138//138 141//141 140//140
f 140//140 142//142 139//139
f 141//141 142//142 140//140
f 142//142 268//268 267//267
f 142//142 141//141 268//268
f 267//267 268//268 27//27
f 147//147 155//155 36//36
f 155//155 28//28 36//36
f 117//117 147//147 153//153
f 147//147 36//36 153//153
f 163//163 15//15 148//148
f 163//163 143//143 15//15
f 151//151 152//152 149//149
f 16//16 151//151 15//15
f 16//16 143//143 145//145
f 15//15 144//144 16//16
f 15//15 143//143 144//144
f 144//144 143//143 16//16
f 162//162 163//163 158//158
f 162//162 145//145 163//163
f 145//145 143//143 161//161
f 145//145 161//161 163//163
f 143//143 163//163 161//161
f 152//152 151//151 16//16
f 152//152 16//16 146//146
f 16//16 145//145 176//176
f 176//176 162//162 60//60
f 145//145 162//162 176//176
f 60//60 162//162 179//179
f 162//162 250//250 179//179
f 152//152 172//172 173//173
f 38//38 16//16 176//176
f 38//38 175//175 16//16
f 16//16 175//175 146//146
f 146//146 175//175 152//152
f 148//148 151//151 149//149
f 15//15 151//151 148//148
f 147//147 148//148 150//150
f 147//147 150//150 149//149
f 150//150 148//148 149//149
f 149//149 152//152 147//147
f 152//152 156//156 147//147
f 186//186 173//173 172//172
f 147//147 156//156 155//155
f 152//152 173//173 156//156
f 173//173 186//186 174//174
f 173//173 174//174 156//156
f 157//157 36//36 28//28
f 154//154 36//36 157//157
f 164//164 154//154 157//157
f 17//17 154//154 164//164
f 28//28 155//155 178//178
f 178//178 155//155 156//156
f 29//29 28//28 178//178
f 278//278 17//17 164//164
f 278//278 164//164 157//157
f 156//156 174//174 178//178
f 178//178 174//174 29//29
f 24//24 250//250 158//158
f 250//250 162//162 158//158
f 250//250 24//24 53//53
f 191//191 53//53 251//251
f 250//250 53//53 191//191
f 154//154 17//17 125//125
f 125//125 17//17 126//126
f 18//18 11//11 127//127
f 18//18 127//127 195//195
f 54//54 25//25 253//253
f 180//180 25//25 18//18
f 253//253 25//25 180//180
f 54//54 253//253 255//255
f 167//167 128//128 169//169
f 128//128 168//168 169//169
f 168//168 58//58 170//170
f 169//169 170//170 171//171
f 168//168 170//170 169//169
f 255//255 269//269 168//168
f 168//168 269//269 58//58
f 270//270 269//269 255//255
f 273//273 58//58 271//271
f 59//59 269//269 270//270
f 58//58 269//269 271//271
f 269//269 59//59 271//271
f 177//177 38//38 60//60
f 38//38 176//176 60//60
f 186//186 172//172 183//183
f 172//172 152//152 175//175
f 172//172 175//175 38//38
f 275//275 250//250 60//60
f 179//179 275//275 60//60
f 250//250 275//275 179//179
f 39//39 187//187 186//186
f 187//187 41//41 186//186
f 41//41 174//174 186//186
f 157//157 277//277 278//278
f 278//278 196//196 17//17
f 277//277 196//196 278//278
f 41//41 29//29 174//174
f 250//250 276//276 60//60
f 60//60 276//276 42//42
f 276//276 192//192 42//42
f 196//196 194//194 17//17
f 196//196 193//193 194//194
f 194//194 193//193 126//126
f 194//194 126//126 17//17
f 196//196 195//195 193//193
f 193//193 195//195 127//127
f 195//195 43//43 18//18
f 272//272 270//270 43//43
f 270//270 255//255 253//253
f 43//43 253//253 180//180
f 43//43 180//180 18//18
f 270//270 253//253 43//43
f 166//166 199//199 165//165
f 165//165 191//191 251//251
f 225//225 191//191 165//165
f 199//199 225//225 165//165
f 199//199 166//166 167//167
f 202//202 225//225 203//203
f 200//200 201//201 171//171
f 202//202 201//201 200//200
f 203//203 201//201 202//202
f 225//225 199//199 203//203
f 199//199 167//167 203//203
f 203//203 167//167 169//169
f 201//201 169//169 171//171
f 203//203 169//169 201//201
f 183//183 172//172 38//38
f 38//38 177//177 181//181
f 38//38 182//182 183//183
f 181//181 182//182 38//38
f 182//182 40//40 185//185
f 42//42 189//189 177//177
f 189//189 181//181 177//177
f 182//182 181//181 189//189
f 39//39 186//186 183//183
f 63//63 39//39 185//185
f 39//39 183//183 184//184
f 185//185 39//39 182//182
f 182//182 184//184 183//183
f 39//39 184//184 182//182
f 211//211 39//39 63//63
f 188//188 196//196 277//277
f 197//197 196//196 188//188
f 30//30 29//29 41//41
f 30//30 41//41 279//279
f 182//182 189//189 40//40
f 189//189 42//42 192//192
f 189//189 192//192 40//40
f 192//192 276//276 190//190
f 190//190 213//213 40//40
f 40//40 192//192 190//190
f 213//213 190//190 220//220
f 185//185 213//213 63//63
f 213//213 281//281 63//63
f 209//209 185//185 40//40
f 213//213 209//209 40//40
f 185//185 209//209 213//213
f 43//43 195//195 198//198
f 198//198 195//195 196//196
f 196//196 197//197 198//198
f 198//198 197//197 43//43
f 276//276 250//250 218//218
f 250//250 191//191 218//218
f 219//219 218//218 225//225
f 218//218 191//191 225//225
f 272//272 43//43 46//46
f 59//59 270//270 272//272
f 274//274 271//271 59//59
f 274//274 59//59 272//272
f 206//206 207//207 44//44
f 19//19 207//207 206//206
f 19//19 204//204 205//205
f 44//44 208//208 204//204
f 19//19 205//205 207//207
f 205//205 204//204 208//208
f 207//207 208//208 44//44
f 205//205 208//208 207//207
f 238//238 241//241 48//48
f 238//238 240//240 242//242
f 240//240 20//20 242//242
f 48//48 239//239 20//20
f 238//238 242//242 241//241
f 242//242 20//20 239//239
f 241//241 239//239 48//48
f 242//242 239//239 241//241
f 273//273 274//274 200//200
f 271//271 274//274 273//273
f 274//274 272//272 231//231
f 274//274 231//231 200//200
f 63//63 210//210 211//211
f 211//211 212//212 39//39
f 211//211 217//217 212//212
f 212//212 41//41 187//187
f 212//212 187//187 39//39
f 217//217 41//41 212//212
f 216//216 41//41 217//217
f 45//45 63//63 281//281
f 45//45 281//281 213//213
f 219//219 221//221 45//45
f 219//219 45//45 220//220
f 220//220 45//45 213//213
f 63//63 45//45 62//62
f 45//45 221//221 62//62
f 223//223 282//282 62//62
f 62//62 282//282 63//63
f 63//63 282//282 210//210
f 210//210 214//214 211//211
f 222//222 221//221 219//219
f 62//62 221//221 222//222
f 62//62 222//222 223//223
f 217//217 211//211 214//214
f 217//217 214//214 215//215
f 47//47 210//210 282//282
f 47//47 282//282 224//224
f 282//282 223//223 224//224
f 223//223 222//222 235//235
f 222//222 219//219 235//235
f 235//235 224//224 223//223
f 210//210 47//47 214//214
f 216//216 217//217 215//215
f 216//216 215//215 230//230
f 215//215 284//284 230//230
f 229//229 43//43 64//64
f 284//284 64//64 283//283
f 229//229 64//64 284//284
f 216//216 279//279 41//41
f 64//64 43//43 197//197
f 283//283 197//197 188//188
f 64//64 197//197 283//283
f 30//30 279//279 61//61
f 279//279 216//216 230//230
f 61//61 279//279 280//280
f 280//280 230//230 284//284
f 279//279 230//230 280//280
f 219//219 220//220 218//218
f 218//218 220//220 190//190
f 218//218 190//190 276//276
f 225//225 226//226 219//219
f 232//232 226//226 231//231
f 219//219 226//226 235//235
f 224//224 235//235 47//47
f 47//47 235//235 236//236
f 235//235 226//226 236//236
f 47//47 236//236 214//214
f 214//214 234//234 215//215
f 236//236 234//234 214//214
f 226//226 234//234 236//236
f 232//232 234//234 226//226
f 46//46 43//43 237//237
f 43//43 229//229 237//237
f 237//237 229//229 284//284
f 272//272 228//228 231//231
f 272//272 46//46 228//228
f 226//226 225//225 227//227
f 226//226 227//227 231//231
f 231//231 225//225 202//202
f 231//231 202//202 200//200
f 225//225 231//231 227//227
f 228//228 232//232 231//231
f 215//215 237//237 284//284
f 234//234 237//237 215//215
f 233//233 234//234 232//232
f 46//46 237//237 228//228
f 233//233 237//237 234//234
f 228//228 233//233 232//232
f 237//237 233//233 228//228
