# decimated by Tools/decimate_anatomy.py from 3008 triangles (BodyParts3D, CC BY 4.0)
v -0.04468854 -0.00255992 0.14885902
v -0.04575108 -0.00196316 0.14727844
v -0.04491886 -0.00442040 0.14941806
v -0.04596633 -0.00443198 0.14674182
v -0.04849515 -0.00799122 0.15943319
v -0.05119659 -0.00188025 0.14639375
v -0.04986599 -0.00967817 0.15676278
v -0.04876548 -0.00913808 0.15802873
v -0.04939122 -0.00825505 0.16011792
v -0.05029569 -0.00795063 0.16043739
v -0.05236576 -0.00744396 0.15491252
v -0.05257385 -0.00884968 0.15897223
v -0.04584032 -0.00406527 0.14646530
v -0.04626650 -0.00447935 0.14613219
v -0.04610447 -0.00485110 0.14991629
v -0.04544513 -0.00490801 0.14902873
v -0.04818563 -0.00441689 0.14574220
v -0.04832749 -0.00051269 0.14640425
v -0.04738241 -0.00406507 0.15185156
v -0.04609401 -0.00479208 0.14995998
v -0.05134970 -0.00305816 0.14830825
v -0.05141576 -0.00418110 0.15020128
v -0.05215634 -0.00439287 0.14646184
v -0.05240774 -0.00810763 0.15556189
v -0.05254723 -0.00797307 0.15968903
v -0.05268624 -0.00844732 0.15947756
v -0.04659181 -0.00090070 0.14771251
v -0.04629590 -0.00448853 0.14613649
v -0.04644725 -0.00451862 0.14612019
v -0.04583071 -0.00412314 0.14648490
v -0.04540543 -0.00443465 0.14725294
v -0.04875780 -0.00598456 0.15717233
v -0.04830596 -0.00720852 0.15880367
v -0.05050480 -0.00114066 0.14674105
v -0.05062540 -0.00127311 0.14661675
v -0.04811926 -0.00233005 0.14977972
v -0.04887942 -0.00899715 0.15643253
v -0.04971152 -0.00983688 0.15883888
v -0.05134108 -0.00746114 0.16025279
v -0.05169258 -0.00638081 0.15286426
v -0.05236132 -0.00687265 0.15868138
v -0.05254562 -0.00697013 0.15715099
v -0.05180847 -0.00876218 0.15983317
v -0.05283504 -0.00838758 0.15919466
v -0.04609705 -0.00119093 0.14754333
v -0.04629602 -0.00449238 0.14614505
v -0.04636505 -0.00449971 0.14612328
v -0.04644766 -0.00420709 0.14640240
v -0.04844524 -0.00046686 0.14640300
v -0.04923700 -0.00823272 0.15400131
v -0.05216824 -0.00428840 0.14649607
v -0.04416252 -0.00295116 0.14798962
v -0.04422340 -0.00301315 0.14850745
v -0.04452241 -0.00265045 0.14862063
v -0.04546447 -0.00425047 0.14686140
v -0.04617329 -0.00099774 0.14749898
v -0.04508430 -0.00221705 0.14876521
v -0.04491455 -0.00262823 0.14903604
v -0.04590979 -0.00407240 0.15009990
v -0.04615429 -0.00146860 0.14838963
v -0.04637788 -0.00452246 0.14616711
v -0.04635127 -0.00450446 0.14614154
v -0.04643890 -0.00453800 0.14616819
v -0.04640257 -0.00452433 0.14615767
v -0.04640828 -0.00451515 0.14613397
v -0.04817085 -0.00508516 0.14634891
v -0.04657001 -0.00532853 0.14920263
v -0.04712425 -0.00559461 0.14915718
v -0.04840647 -0.00645000 0.14994230
v -0.04898796 -0.00076399 0.14749315
v -0.04983423 -0.00111483 0.14750578
v -0.04963405 -0.00096673 0.14742604
v -0.04655640 -0.00416859 0.15081856
v -0.04775176 -0.00627385 0.15375729
v -0.04660006 -0.00531209 0.14938492
v -0.04792993 -0.00742272 0.15770667
v -0.04829505 -0.00245938 0.14997821
v -0.04795512 -0.00770304 0.15824555
v -0.04837420 -0.00635781 0.15676555
v -0.04808532 -0.00737017 0.15837757
v -0.04915286 -0.00585448 0.15777982
v -0.04894936 -0.00594791 0.15770879
v -0.05001226 -0.00128676 0.14757198
v -0.05064007 -0.00142990 0.14642373
v -0.05132597 -0.00371432 0.14931181
v -0.04878736 -0.00786577 0.15426068
v -0.04997779 -0.00809946 0.15376727
v -0.05129507 -0.00443719 0.15325309
v -0.05016674 -0.00925713 0.15594804
v -0.04928140 -0.00929489 0.15925381
v -0.04981615 -0.00932127 0.15968123
v -0.04901876 -0.00930488 0.15843518
v -0.04982244 -0.00980363 0.15914854
v -0.04981197 -0.00995039 0.15880141
v -0.04916978 -0.00537019 0.15674743
v -0.04890944 -0.00672797 0.15922004
v -0.04924386 -0.00728852 0.15996311
v -0.05014424 -0.00774858 0.16038070
v -0.04968928 -0.00711157 0.16014023
v -0.05154018 -0.00419767 0.14608111
v -0.04997150 -0.00596592 0.14925787
v -0.04975068 -0.00495063 0.14633870
v -0.05116802 -0.00559204 0.15002744
v -0.05009709 -0.00820464 0.15398208
v -0.05158967 -0.00680040 0.15316046
v -0.05076830 -0.00972500 0.15701373
v -0.05128999 -0.00970469 0.15705704
v -0.05175485 -0.00624012 0.15285584
v -0.05195861 -0.00763824 0.15457507
v -0.05163076 -0.00655397 0.15291422
v -0.05206898 -0.00663043 0.15394486
v -0.05181693 -0.00777745 0.15460516
v -0.05232842 -0.00834419 0.15572649
v -0.05238754 -0.00766804 0.15515862
v -0.05243176 -0.00833855 0.15590102
v -0.05091638 -0.00925716 0.15964833
v -0.05089670 -0.00945176 0.15930093
v -0.05148939 -0.00791845 0.16039444
v -0.05155630 -0.00541739 0.15577348
v -0.05120276 -0.00711540 0.16015373
v -0.05275974 -0.00750018 0.15908551
v -0.05281167 -0.00742418 0.15738880
v -0.05268934 -0.00736628 0.15896769
v -0.05161843 -0.00789666 0.16034686
v -0.05246297 -0.00907290 0.15859525
v -0.05250679 -0.00902426 0.15863653
v -0.05276948 -0.00738437 0.15633999
v -0.05207096 -0.00878027 0.15964952
v -0.05263035 -0.00853524 0.15946290
v -0.05285344 -0.00830134 0.15912955
v -0.04468760 -0.00402691 0.14766903
v -0.04416489 -0.00313078 0.14837883
v -0.04455817 -0.00274738 0.14882246
v -0.04442662 -0.00288069 0.14870039
v -0.04428035 -0.00331507 0.14863142
v -0.04519185 -0.00404183 0.14957901
v -0.04602566 -0.00170622 0.14720642
v -0.04641904 -0.00083740 0.14753345
v -0.04471692 -0.00409251 0.14768502
v -0.04515873 -0.00467669 0.14919261
v -0.04598937 -0.00455944 0.14992663
v -0.04809746 -0.00230724 0.14975167
v -0.04825208 -0.00241740 0.14622847
v -0.05126197 -0.00497305 0.14619763
v -0.05138955 -0.00408412 0.14602138
v -0.04640655 -0.00453239 0.14617351
v -0.04631386 -0.00449158 0.14613339
v -0.04635115 -0.00450524 0.14614335
v -0.04643329 -0.00452020 0.14613143
v -0.04640674 -0.00452506 0.14615698
v -0.04640424 -0.00451365 0.14613284
v -0.04900677 -0.00062199 0.14727150
v -0.04897400 -0.00186908 0.14616315
v -0.04833698 -0.00182131 0.14626765
v -0.04922285 -0.00302198 0.15086766
v -0.05119024 -0.00623104 0.15871845
v -0.05004639 -0.00640255 0.15937523
v -0.04828878 -0.00444311 0.15381046
v -0.04800782 -0.00281883 0.15044659
v -0.04619104 -0.00416371 0.15036473
v -0.04841337 -0.00627407 0.15679350
v -0.04754106 -0.00461615 0.15187711
v -0.04734703 -0.00520927 0.15136237
v -0.04714839 -0.00496554 0.15121815
v -0.04780638 -0.00419448 0.15265650
v -0.04905308 -0.00523869 0.14649684
v -0.05140811 -0.00206760 0.14638637
v -0.05155393 -0.00325024 0.14828169
v -0.05159289 -0.00624038 0.15221015
v -0.05092452 -0.00397826 0.15202498
v -0.05098488 -0.00395895 0.15166910
v -0.05141737 -0.00405819 0.14993816
v -0.04845803 -0.00646346 0.15004283
v -0.04920059 -0.00853656 0.15481077
v -0.05142771 -0.00480873 0.15051742
v -0.05179335 -0.00537052 0.15425714
v -0.05136405 -0.00449322 0.15299380
v -0.05090055 -0.00798517 0.16036562
v -0.04980841 -0.00916854 0.15978206
v -0.05142485 -0.00899419 0.15986048
v -0.05136504 -0.00523754 0.14670488
v -0.05123685 -0.00549791 0.14936976
v -0.05134730 -0.00536419 0.14764522
v -0.05152340 -0.00410919 0.14605145
v -0.05199538 -0.00461424 0.14715956
v -0.05173007 -0.00489000 0.14670865
v -0.05247615 -0.00742330 0.15529321
v -0.05279792 -0.00828905 0.15933996
vn 0.591807 0.382576 0.709507
vn 0.338189 0.277846 -0.899127
vn 0.561301 0.053628 0.825872
vn 0.376229 -0.780715 -0.498935
vn 0.770399 -0.281494 0.572055
vn -0.208795 0.319559 -0.924276
vn 0.099720 -0.925869 -0.364449
vn 0.808948 -0.587782 0.010747
vn 0.372584 -0.281713 0.884205
vn 0.416518 0.283919 0.863657
vn -0.778538 -0.414708 -0.471058
vn -0.865889 -0.499978 0.016093
vn 0.277309 0.273489 -0.921034
vn -0.219885 0.890734 0.397798
vn 0.629122 -0.772790 0.083671
vn 0.398660 -0.860968 0.315919
vn 0.040158 0.142596 -0.988966
vn 0.011491 0.365006 -0.930934
vn 0.581904 0.700448 0.413232
vn 0.613841 -0.167863 0.771376
vn -0.781922 0.515553 0.350432
vn -0.999781 0.020689 0.003274
vn -0.732900 -0.674092 -0.091966
vn -0.851181 -0.318456 -0.417224
vn -0.673592 0.195583 0.712756
vn -0.826981 -0.363002 0.429339
vn 0.023585 0.825063 0.564549
vn 0.219859 -0.890755 -0.397765
vn 0.219948 -0.890731 -0.397770
vn 0.390058 -0.093304 -0.916051
vn 0.339473 -0.898964 -0.276807
vn 0.781388 0.576925 0.237888
vn 0.784278 0.485427 0.386353
vn -0.597296 0.754006 0.273337
vn -0.572344 0.723695 -0.385601
vn -0.300806 0.710374 0.636305
vn 0.750702 -0.630778 -0.196380
vn 0.661170 -0.718213 0.216849
vn -0.048634 0.264003 0.963295
vn -0.947088 -0.215941 -0.237472
vn -0.680943 0.703540 0.203340
vn -0.861338 0.505822 0.047336
vn -0.400548 -0.429363 0.809450
vn -0.947617 -0.305418 -0.093501
vn 0.521262 0.516423 -0.679406
vn -0.220013 0.890728 0.397740
vn -0.219969 0.890816 0.397568
vn 0.265855 0.175929 -0.947824
vn -0.104295 0.984651 -0.139946
vn 0.647505 -0.728578 -0.223411
vn -0.592602 0.427489 -0.682698
vn 0.678932 0.726807 0.103940
vn 0.785457 0.580791 0.213869
vn 0.691122 0.716362 0.095785
vn 0.576152 -0.631759 -0.518584
vn 0.603381 0.782476 0.153827
vn 0.357329 0.664348 0.656474
vn 0.459687 0.333283 0.823171
vn 0.616513 0.019855 0.787094
vn 0.221942 0.749023 0.624265
vn 0.219854 -0.890636 -0.398036
vn 0.219850 -0.890635 -0.398039
vn 0.219909 -0.890669 -0.397930
vn 0.219921 -0.890633 -0.398005
vn 0.219915 -0.890710 -0.397837
vn 0.207256 -0.664193 -0.718257
vn 0.418865 -0.897577 -0.137507
vn 0.496704 -0.864457 -0.077454
vn 0.414264 -0.880640 -0.229908
vn -0.297968 0.785377 0.542584
vn -0.370642 0.724230 0.581477
vn -0.312783 0.774287 0.550133
vn 0.757447 -0.263904 0.597184
vn 0.875207 -0.483729 -0.004339
vn 0.554755 -0.831996 -0.005503
vn 0.983657 -0.176427 -0.035947
vn -0.093932 0.945788 0.310904
vn 0.922168 -0.328544 0.204118
vn 0.928198 0.306197 0.211406
vn 0.898082 0.371606 0.235284
vn 0.432399 0.804747 0.406710
vn 0.759581 0.603990 0.241317
vn -0.434916 0.668627 0.603147
vn -0.300648 0.621094 -0.723776
vn -0.458264 0.666908 0.587561
vn 0.809310 -0.566084 -0.156734
vn -0.284570 -0.859391 -0.424815
vn -0.412215 0.874801 0.254561
vn -0.076802 -0.884050 -0.461040
vn 0.692391 -0.581608 0.426998
vn 0.294077 -0.622281 0.725455
vn 0.769896 -0.587580 0.249018
vn 0.133786 -0.809158 0.572157
vn 0.085436 -0.996339 -0.003019
vn 0.468702 0.787094 0.401000
vn 0.492435 0.719832 0.489234
vn 0.622423 0.213704 0.752942
vn 0.199843 0.119757 0.972482
vn 0.171261 0.618766 0.766680
vn -0.445499 -0.278786 -0.850770
vn -0.334577 -0.868779 -0.365077
vn -0.345088 -0.738924 -0.578710
vn -0.718824 -0.616086 -0.322071
vn -0.344298 -0.781602 -0.520151
vn -0.443881 -0.739659 -0.505840
vn -0.029932 -0.972142 -0.232475
vn -0.386345 -0.880152 -0.275808
vn -0.865596 -0.310982 -0.392471
vn -0.486679 -0.678455 -0.550311
vn -0.729665 -0.497433 -0.469202
vn -0.973292 0.164986 -0.159631
vn -0.399892 -0.718559 -0.568998
vn -0.488253 -0.762162 -0.425109
vn -0.680569 -0.527992 -0.507987
vn -0.931077 -0.334459 -0.145713
vn -0.151107 -0.804435 0.574501
vn -0.320117 -0.892354 0.318165
vn -0.067292 -0.438094 0.896407
vn -0.467634 0.837144 0.283739
vn -0.305663 0.693514 0.652387
vn -0.797828 0.406423 0.445298
vn -0.972015 0.234764 0.008472
vn -0.629770 0.692626 0.351653
vn -0.488881 0.165717 0.856466
vn -0.474994 -0.877346 0.068152
vn -0.811446 -0.583578 -0.031495
vn -0.986668 0.099195 -0.129022
vn -0.459019 -0.662381 0.592075
vn -0.504511 -0.433995 0.746403
vn -0.994815 0.090195 0.046990
vn 0.730065 0.073411 -0.679423
vn 0.911388 -0.305632 -0.275610
vn 0.630862 0.137474 0.763619
vn 0.686472 0.093278 0.721149
vn 0.661623 0.132486 0.738039
vn 0.593659 0.079169 0.800813
vn 0.429380 0.237550 -0.871322
vn 0.153444 0.969225 0.192505
vn 0.724216 -0.681185 -0.107229
vn 0.602349 -0.791826 -0.100931
vn 0.719829 -0.275670 0.637065
vn 0.180222 0.733095 0.655814
vn 0.167167 0.205886 -0.964192
vn -0.179778 -0.227281 -0.957091
vn -0.046660 0.074666 -0.996116
vn -0.219953 0.890786 0.397644
vn -0.220007 0.890683 0.397846
vn -0.219947 0.890682 0.397880
vn -0.219909 0.890771 0.397702
vn -0.219956 0.890689 0.397860
vn -0.219914 0.890696 0.397868
vn -0.050357 0.909295 0.413094
vn -0.007111 0.108723 -0.994047
vn 0.331534 0.103391 -0.937761
vn -0.216065 0.921869 0.321674
vn -0.262302 0.899336 0.349845
vn -0.034429 0.909886 0.413427
vn 0.578020 0.705288 0.410441
vn 0.558525 0.722914 0.406750
vn 0.406218 0.590505 0.697346
vn 0.688606 0.608593 0.394253
vn 0.758454 -0.264988 0.595424
vn 0.757834 -0.264764 0.596312
vn 0.757622 -0.265564 0.596225
vn 0.966546 0.146373 0.210628
vn 0.108318 -0.933790 -0.341033
vn -0.983221 0.180389 0.027129
vn -0.998287 0.057637 -0.010059
vn -0.671120 -0.657722 -0.342052
vn -0.294362 0.912084 0.285401
vn -0.481457 0.872389 0.084477
vn -0.492012 0.867506 0.073198
vn 0.015417 -0.910194 -0.413896
vn 0.545635 -0.798020 -0.255827
vn -0.976430 0.215419 -0.013384
vn -0.943524 0.324282 -0.067847
vn -0.910006 0.413276 0.033048
vn 0.042970 -0.322026 0.945755
vn 0.174464 -0.463894 0.868542
vn -0.211676 -0.704047 0.677872
vn -0.685120 -0.718281 -0.121172
vn -0.753154 -0.657758 -0.010667
vn -0.749478 -0.661412 -0.028570
vn -0.420945 0.442491 -0.791838
vn -0.738578 -0.673792 -0.022508
vn -0.741178 -0.670426 -0.034423
vn -0.941103 -0.142725 -0.306520
vn -0.896094 0.110065 0.430001
f 54//54 1//1 53//53
f 54//54 53//53 52//52
f 131//131 30//30 132//132
f 52//52 57//57 54//54
f 52//52 56//56 57//57
f 54//54 57//57 1//1
f 136//136 1//1 58//58
f 58//58 57//57 160//160
f 1//1 57//57 58//58
f 63//63 29//29 64//64
f 63//63 64//64 61//61
f 65//65 29//29 28//28
f 62//62 28//28 61//61
f 29//29 65//65 64//64
f 65//65 28//28 62//62
f 64//64 62//62 61//61
f 65//65 62//62 64//64
f 131//131 55//55 30//30
f 131//131 132//132 139//139
f 139//139 132//132 140//140
f 31//31 139//139 140//140
f 4//4 139//139 31//31
f 4//4 55//55 139//139
f 139//139 55//55 131//131
f 149//149 151//151 47//47
f 150//150 146//146 46//46
f 149//149 146//146 150//150
f 47//47 148//148 147//147
f 147//147 46//46 14//14
f 148//148 46//46 147//147
f 149//149 150//150 151//151
f 150//150 46//46 148//148
f 151//151 148//148 47//47
f 150//150 148//148 151//151
f 4//4 30//30 55//55
f 30//30 66//66 102//102
f 4//4 66//66 30//30
f 137//137 45//45 2//2
f 45//45 137//137 18//18
f 56//56 60//60 57//57
f 138//138 60//60 56//56
f 18//18 137//137 154//154
f 137//137 2//2 154//154
f 2//2 13//13 143//143
f 2//2 143//143 154//154
f 138//138 27//27 60//60
f 56//56 49//49 138//138
f 3//3 135//135 136//136
f 135//135 134//134 136//136
f 136//136 134//134 133//133
f 136//136 133//133 1//1
f 15//15 75//75 16//16
f 3//3 136//136 20//20
f 136//136 141//141 20//20
f 160//160 141//141 59//59
f 59//59 141//141 136//136
f 75//75 67//67 16//16
f 15//15 74//74 75//75
f 60//60 27//27 142//142
f 60//60 142//142 57//57
f 57//57 142//142 160//160
f 58//58 59//59 136//136
f 160//160 59//59 58//58
f 142//142 27//27 152//152
f 142//142 152//152 70//70
f 141//141 160//160 73//73
f 143//143 17//17 145//145
f 145//145 17//17 144//144
f 145//145 144//144 100//100
f 17//17 143//143 48//48
f 48//48 143//143 13//13
f 31//31 66//66 4//4
f 31//31 166//166 66//66
f 166//166 102//102 66//66
f 152//152 27//27 138//138
f 152//152 138//138 49//49
f 34//34 152//152 49//49
f 72//72 70//70 34//34
f 34//34 70//70 152//152
f 143//143 153//153 154//154
f 153//153 18//18 154//154
f 31//31 140//140 67//67
f 31//31 67//67 68//68
f 68//68 67//67 75//75
f 69//69 31//31 68//68
f 34//34 71//71 72//72
f 71//71 36//36 142//142
f 71//71 142//142 72//72
f 142//142 70//70 72//72
f 85//85 36//36 83//83
f 36//36 71//71 83//83
f 160//160 142//142 19//19
f 142//142 36//36 159//159
f 159//159 158//158 19//19
f 142//142 159//159 19//19
f 163//163 164//164 162//162
f 20//20 164//164 163//163
f 162//162 141//141 73//73
f 20//20 141//141 164//164
f 164//164 141//141 162//162
f 75//75 74//74 69//69
f 75//75 69//69 68//68
f 74//74 86//86 69//69
f 79//79 74//74 165//165
f 159//159 36//36 158//158
f 158//158 36//36 77//77
f 8//8 76//76 78//78
f 86//86 74//74 76//76
f 86//86 76//76 37//37
f 37//37 76//76 8//8
f 79//79 165//165 161//161
f 77//77 95//95 158//158
f 158//158 161//161 19//19
f 95//95 161//161 158//158
f 161//161 95//95 32//32
f 74//74 79//79 76//76
f 76//76 33//33 80//80
f 82//82 33//33 76//76
f 32//32 76//76 79//79
f 32//32 79//79 161//161
f 76//76 32//32 82//82
f 82//82 81//81 33//33
f 82//82 32//32 95//95
f 5//5 8//8 78//78
f 80//80 78//78 76//76
f 78//78 80//80 33//33
f 78//78 33//33 5//5
f 81//81 96//96 33//33
f 157//157 96//96 81//81
f 95//95 81//81 82//82
f 5//5 33//33 97//97
f 77//77 157//157 95//95
f 95//95 157//157 81//81
f 96//96 97//97 33//33
f 97//97 96//96 99//99
f 96//96 157//157 99//99
f 184//184 18//18 153//153
f 145//145 153//153 143//143
f 153//153 145//145 184//184
f 6//6 35//35 84//84
f 6//6 84//84 49//49
f 35//35 34//34 84//84
f 84//84 34//34 49//49
f 168//168 21//21 34//34
f 167//167 34//34 35//35
f 168//168 34//34 167//167
f 34//34 83//83 71//71
f 34//34 21//21 85//85
f 34//34 85//85 83//83
f 184//184 51//51 18//18
f 51//51 184//184 100//100
f 31//31 69//69 166//166
f 69//69 101//101 166//166
f 166//166 101//101 102//102
f 69//69 173//173 101//101
f 102//102 101//101 103//103
f 171//171 77//77 172//172
f 167//167 103//103 168//168
f 168//168 175//175 21//21
f 173//173 7//7 87//87
f 173//173 87//87 101//101
f 175//175 168//168 169//169
f 168//168 103//103 169//169
f 171//171 155//155 77//77
f 170//170 155//155 171//171
f 172//172 88//88 171//171
f 88//88 170//170 171//171
f 175//175 22//22 21//21
f 175//175 177//177 22//22
f 50//50 173//173 86//86
f 173//173 69//69 86//86
f 7//7 89//89 87//87
f 87//87 169//169 101//101
f 104//104 169//169 87//87
f 157//157 77//77 155//155
f 156//156 155//155 170//170
f 156//156 170//170 88//88
f 157//157 155//155 156//156
f 94//94 37//37 8//8
f 94//94 8//8 38//38
f 38//38 8//8 92//92
f 50//50 86//86 174//174
f 86//86 37//37 174//174
f 50//50 174//174 7//7
f 174//174 94//94 7//7
f 37//37 94//94 174//174
f 94//94 38//38 93//93
f 8//8 5//5 92//92
f 38//38 92//92 90//90
f 5//5 90//90 92//92
f 97//97 98//98 5//5
f 5//5 10//10 9//9
f 98//98 10//10 5//5
f 179//179 5//5 9//9
f 91//91 5//5 179//179
f 90//90 5//5 91//91
f 9//9 178//178 179//179
f 178//178 118//118 179//179
f 179//179 180//180 91//91
f 118//118 180//180 179//179
f 93//93 38//38 90//90
f 91//91 93//93 90//90
f 93//93 91//91 116//116
f 91//91 180//180 116//116
f 116//116 94//94 93//93
f 117//117 94//94 180//180
f 180//180 94//94 116//116
f 156//156 120//120 157//157
f 41//41 123//123 156//156
f 123//123 120//120 156//156
f 121//121 120//120 123//123
f 88//88 41//41 119//119
f 88//88 119//119 156//156
f 41//41 156//156 119//119
f 157//157 120//120 99//99
f 98//98 97//97 99//99
f 98//98 99//99 120//120
f 178//178 10//10 98//98
f 39//39 98//98 120//120
f 39//39 120//120 124//124
f 178//178 98//98 124//124
f 98//98 39//39 124//124
f 184//184 145//145 100//100
f 51//51 100//100 144//144
f 23//23 181//181 186//186
f 181//181 183//183 186//186
f 183//183 182//182 186//186
f 182//182 185//185 186//186
f 186//186 185//185 23//23
f 104//104 107//107 113//113
f 113//113 112//112 104//104
f 103//103 101//101 169//169
f 175//175 40//40 108//108
f 169//169 40//40 175//175
f 110//110 40//40 169//169
f 109//109 105//105 104//104
f 109//109 104//104 112//112
f 104//104 105//105 169//169
f 169//169 105//105 110//110
f 105//105 109//109 110//110
f 110//110 11//11 108//108
f 110//110 108//108 40//40
f 107//107 106//106 94//94
f 94//94 106//106 7//7
f 89//89 7//7 106//106
f 89//89 106//106 107//107
f 89//89 107//107 104//104
f 87//87 89//89 104//104
f 94//94 125//125 107//107
f 112//112 113//113 109//109
f 113//113 24//24 109//109
f 109//109 24//24 114//114
f 110//110 114//114 11//11
f 109//109 114//114 110//110
f 187//187 24//24 115//115
f 187//187 115//115 127//127
f 24//24 187//187 108//108
f 187//187 111//111 108//108
f 127//127 111//111 187//187
f 108//108 111//111 175//175
f 111//111 127//127 176//176
f 175//175 176//176 177//177
f 111//111 176//176 175//175
f 107//107 125//125 113//113
f 126//126 12//12 115//115
f 113//113 115//115 24//24
f 126//126 115//115 113//113
f 125//125 126//126 113//113
f 94//94 117//117 125//125
f 117//117 180//180 125//125
f 176//176 127//127 42//42
f 177//177 42//42 41//41
f 176//176 42//42 177//177
f 180//180 118//118 43//43
f 118//118 124//124 43//43
f 121//121 188//188 25//25
f 41//41 42//42 123//123
f 42//42 127//127 122//122
f 122//122 121//121 123//123
f 42//42 122//122 123//123
f 44//44 127//127 115//115
f 44//44 115//115 12//12
f 44//44 122//122 127//127
f 130//130 122//122 44//44
f 121//121 122//122 130//130
f 180//180 128//128 125//125
f 125//125 128//128 126//126
f 128//128 12//12 126//126
f 130//130 188//188 121//121
f 25//25 129//129 124//124
f 124//124 128//128 43//43
f 129//129 128//128 124//124
f 129//129 12//12 128//128
f 43//43 128//128 180//180
f 12//12 26//26 44//44
f 130//130 44//44 188//188
f 44//44 26//26 188//188
f 188//188 26//26 25//25
f 120//120 121//121 124//124
f 121//121 25//25 124//124
f 124//124 118//118 178//178
