# decimated by Tools/decimate_anatomy.py from 7328 triangles (BodyParts3D, CC BY 4.0)
v 0.00736950 0.01228637 0.11190944
v 0.00660803 0.01126130 0.10896293
v 0.00585170 0.00968219 0.11315941
v 0.00556364 0.00853217 0.14622567
v 0.00607848 0.00796858 0.14698668
v 0.00528265 0.01154081 0.10827253
v 0.00385545 0.01821706 0.10891265
v 0.00307705 0.01004514 0.14281549
v 0.00475570 0.01257450 0.14578189
v 0.00441209 0.00993333 0.15213852
v 0.00150089 0.01891989 0.10937005
v 0.00008448 0.00710610 0.14756105
v 0.00078084 0.00780372 0.15157622
v -0.00197987 0.00603142 0.15068518
v -0.00227573 0.01263974 0.15057555
v -0.00358026 0.01041506 0.15204893
v -0.00449965 0.00803098 0.11040651
v -0.00524315 0.00831809 0.10993832
v -0.00253534 0.01879111 0.10960277
v -0.00384295 0.01844910 0.10988316
v -0.00335323 0.01121071 0.12195004
v -0.00323189 0.01609541 0.13468227
v -0.00504681 0.01059021 0.14063039
v -0.00519155 0.00982084 0.14370555
v -0.00418522 0.01115151 0.15123427
v -0.00593323 0.00919037 0.11328772
v -0.00547512 0.01825580 0.11127768
v 0.00556095 0.01019655 0.14562018
v 0.00383126 0.01208499 0.15078587
v -0.00227710 0.00864663 0.10911432
v -0.00448278 0.01143494 0.13161302
v -0.00390527 0.00763748 0.15183535
v 0.00637704 0.01149332 0.11439538
v 0.00570237 0.01152935 0.11577646
v 0.00564880 0.00688714 0.14942461
v 0.00556026 0.01596195 0.10819154
v 0.00615603 0.01687176 0.10853207
v 0.00525436 0.01990585 0.11242868
v 0.00529736 0.01651367 0.12071548
v 0.00342912 0.01689255 0.12994581
v 0.00477151 0.01186221 0.14144620
v 0.00591720 0.00945509 0.14609946
v 0.00538941 0.00731506 0.15096964
v 0.00398859 0.00731333 0.15166278
v 0.00316284 0.01087375 0.15242280
v 0.00117584 0.01568789 0.10946782
v 0.00399911 0.01454119 0.14032709
v 0.00261834 0.01909370 0.12041109
v 0.00072081 0.00840425 0.14656140
v 0.00113658 0.00692793 0.14833965
v 0.00285243 0.00731916 0.15166587
v 0.00325414 0.02025876 0.11204820
v 0.00162107 0.02000158 0.11557041
v -0.00208241 0.00557717 0.14950434
v -0.00190027 0.00611526 0.15076683
v 0.00218211 0.00948587 0.11363463
v -0.00410831 0.01143104 0.12901086
v -0.00420354 0.01149724 0.12862058
v -0.00384378 0.01099839 0.13326161
v -0.00505399 0.01461987 0.12631592
v -0.00442373 0.00594999 0.14697197
v -0.00525564 0.00705927 0.14676261
v -0.00288313 0.00580018 0.14733287
v -0.00453507 0.00569601 0.14759126
v -0.00251817 0.01305548 0.14810136
v -0.00269069 0.01177471 0.15148532
v -0.00350948 0.01167223 0.15134368
v -0.00460417 0.01083547 0.14868874
v -0.00332424 0.01216931 0.15079530
v -0.00686463 0.01364488 0.10884397
v -0.00367692 0.01806262 0.10945713
v -0.00739424 0.01323978 0.11320552
v -0.00751732 0.01329753 0.11086084
v -0.00742359 0.01548375 0.11145135
v -0.00508877 0.01516132 0.12389096
v -0.00423066 0.01809486 0.11561747
v -0.00382596 0.01734829 0.12236395
v 0.00125559 0.01071498 0.10830953
v 0.00269090 0.01861027 0.10913800
v -0.00360761 0.01122532 0.12345687
v -0.00398674 0.01139062 0.12929782
v -0.00516393 0.01246618 0.12619823
v 0.00776962 0.01370674 0.11092141
v 0.00659517 0.01786739 0.10962287
v 0.00602731 0.00958489 0.11030492
v 0.00543455 0.01028410 0.11411706
v 0.00635871 0.00998198 0.11244416
v 0.00759215 0.01734324 0.11164390
v 0.00670056 0.01263048 0.11463797
v 0.00742738 0.01496494 0.11386304
v 0.00673467 0.01424045 0.11559024
v 0.00755423 0.01564366 0.11338770
v 0.00632071 0.01914325 0.11238089
v 0.00630332 0.01682538 0.11609247
v 0.00609586 0.00801909 0.14700978
v 0.00570868 0.00751711 0.14694379
v 0.00582168 0.00764547 0.14946371
v 0.00557425 0.00768414 0.15057034
v 0.00571425 0.00762805 0.14997806
v 0.00540090 0.01280397 0.10822812
v 0.00562043 0.01475186 0.10824630
v 0.00373203 0.01642638 0.10881817
v 0.00536237 0.01677830 0.10830853
v 0.00501838 0.01812111 0.10885291
v 0.00485441 0.01738997 0.10849523
v 0.00598797 0.01896121 0.11033793
v 0.00513593 0.01983289 0.11121530
v 0.00492599 0.01106489 0.11603620
v 0.00260137 0.01056601 0.11718272
v 0.00447592 0.01137016 0.11782759
v 0.00368391 0.01137373 0.11895768
v 0.00554728 0.01259341 0.11930144
v 0.00507153 0.01272757 0.12120280
v 0.00403001 0.01205737 0.12169863
v 0.00521858 0.01483186 0.12273336
v 0.00558175 0.01405592 0.12104025
v 0.00459372 0.01804140 0.11928821
v 0.00487120 0.01393532 0.12976281
v 0.00503479 0.01626246 0.12249987
v 0.00466716 0.01513846 0.12979115
v 0.00439378 0.01258078 0.12799943
v 0.00484591 0.01363343 0.13661000
v 0.00401709 0.01563017 0.13313168
v 0.00495552 0.01308080 0.13572803
v 0.00494915 0.01176909 0.14227040
v 0.00490131 0.01214315 0.14169560
v 0.00477355 0.01236309 0.14024183
v 0.00468452 0.01320612 0.14169832
v 0.00402926 0.01454906 0.14008634
v 0.00461527 0.00955979 0.14530864
v 0.00386746 0.00818297 0.14645751
v 0.00491601 0.01106935 0.14319582
v 0.00498689 0.01185356 0.14255797
v 0.00506453 0.01155989 0.14346357
v 0.00492986 0.01038405 0.14441926
v 0.00504302 0.01195850 0.14456997
v 0.00488337 0.01249450 0.14340996
v 0.00535783 0.00791989 0.14662564
v 0.00422157 0.00705136 0.14744899
v 0.00439773 0.01364573 0.14247833
v 0.00485110 0.01250095 0.14410613
v 0.00562753 0.00794354 0.15045512
v 0.00528299 0.00672108 0.14836710
v 0.00420760 0.00653422 0.15037958
v 0.00457131 0.00656245 0.14994238
v 0.00409189 0.00665683 0.15062603
v 0.00611915 0.00858436 0.14714618
v 0.00455891 0.01031007 0.15062512
v 0.00451560 0.01220079 0.14820250
v 0.00443103 0.01019288 0.15167985
v 0.00438194 0.01241255 0.14819343
v 0.00424507 0.01236563 0.14883740
v 0.00533189 0.01147141 0.10826036
v 0.00191811 0.01903126 0.10951299
v 0.00109548 0.01652100 0.10950073
v 0.00154246 0.01862648 0.10934555
v 0.00079452 0.01954006 0.10967892
v 0.00397437 0.01851095 0.11950989
v 0.00459102 0.01211442 0.13973957
v 0.00474675 0.01143483 0.14199783
v 0.00184628 0.01653463 0.13765923
v 0.00456644 0.01277700 0.14573853
v 0.00253521 0.01343609 0.14959069
v 0.00198958 0.00971272 0.14275932
v 0.00374218 0.00932955 0.14507142
v 0.00456911 0.00662774 0.14838195
v 0.00393477 0.00667823 0.14820845
v 0.00338055 0.00660578 0.14995339
v 0.00010596 0.00669437 0.14839591
v 0.00104091 0.00844349 0.14650613
v 0.00135049 0.00792979 0.14695766
v 0.00026952 0.00903654 0.14485793
v -0.00042489 0.00844264 0.14614289
v -0.00089156 0.00812208 0.14625887
v 0.00139641 0.00685509 0.14984888
v 0.00015956 0.00672787 0.14953300
v 0.00025434 0.00727789 0.15072356
v 0.00099456 0.00743802 0.15094464
v 0.00336029 0.00854224 0.15247317
v 0.00331128 0.00882731 0.15253237
v 0.00210589 0.01002958 0.15257311
v 0.00235052 0.01068817 0.15244472
v 0.00289840 0.01195177 0.15183658
v -0.00115525 0.00921640 0.10857900
v 0.00061212 0.01264540 0.10900466
v -0.00142786 0.01030102 0.10851757
v -0.00042026 0.01946772 0.10977001
v 0.00052937 0.02002618 0.11081726
v 0.00356190 0.02015698 0.11165254
v 0.00081644 0.02013957 0.11351493
v -0.00018456 0.02005826 0.11436490
v 0.00261861 0.01112358 0.13770008
v 0.00128244 0.01794600 0.13100985
v 0.00311202 0.01943200 0.11754672
v -0.00034448 0.01901687 0.12369194
v 0.00031116 0.01886459 0.12544426
v -0.00102408 0.01819961 0.12925238
v -0.00149795 0.01700118 0.13626804
v 0.00015460 0.01665925 0.13849886
v -0.00028098 0.01630182 0.14036351
v 0.00013939 0.00947973 0.14185598
v -0.00242207 0.00866926 0.14410979
v -0.00280227 0.00786619 0.14538409
v -0.00124287 0.00653120 0.14723545
v -0.00194952 0.00636307 0.14700030
v -0.00053295 0.00690545 0.14739117
v -0.00254074 0.00588803 0.14730846
v -0.00195108 0.00617823 0.14724544
v -0.00243547 0.01315742 0.14789411
v 0.00010574 0.01252266 0.15109728
v -0.00225508 0.01271739 0.15045312
v -0.00047485 0.00839197 0.15211575
v 0.00256123 0.00898213 0.15246219
v -0.00323182 0.00678930 0.15169002
v -0.00134929 0.00982490 0.15240733
v 0.00158008 0.01111341 0.15227200
v -0.00191547 0.01149738 0.15181387
v -0.00276358 0.01067332 0.15205913
v -0.00547311 0.00836421 0.10995114
v -0.00248453 0.00904270 0.10871277
v -0.00524596 0.00940303 0.10894166
v -0.00467025 0.01093210 0.10840442
v -0.00523930 0.00828285 0.11083361
v 0.00017633 0.01561189 0.10946207
v -0.00404249 0.01480889 0.10911992
v -0.00281707 0.01815408 0.10954673
v 0.00130016 0.01899102 0.10938232
v -0.00063417 0.02014597 0.11213445
v -0.00393291 0.00909082 0.11367210
v -0.00139435 0.01985987 0.11388407
v -0.00221767 0.01911408 0.11874657
v -0.00245825 0.01944674 0.11376623
v 0.00358210 0.01207490 0.13267604
v 0.00431887 0.01258376 0.12482872
v -0.00363805 0.01121363 0.12179103
v -0.00427786 0.01150328 0.12341655
v -0.00375389 0.01132669 0.12324283
v -0.00524286 0.01205800 0.12141883
v -0.00473773 0.01183459 0.12677170
v -0.00470538 0.01182769 0.12677556
v -0.00454745 0.01154815 0.13116816
v -0.00507928 0.01355581 0.12904910
v -0.00280369 0.01666905 0.13317308
v -0.00341204 0.01680639 0.12894582
v -0.00270543 0.00986447 0.14048929
v 0.00107391 0.01031049 0.13952504
v -0.00404500 0.01004084 0.13993757
v -0.00273536 0.01528869 0.14064513
v -0.00488302 0.00621697 0.14692463
v -0.00530643 0.00726301 0.14670993
v -0.00447429 0.00900551 0.14342293
v -0.00474893 0.00912121 0.14358469
v -0.00451877 0.00789401 0.14534865
v -0.00280859 0.00610261 0.14697326
v -0.00467959 0.00857484 0.14435754
v -0.00514914 0.00795056 0.14558941
v -0.00478672 0.00791670 0.14535132
v -0.00518154 0.00942582 0.14419886
v -0.00371031 0.00545286 0.14778292
v -0.00396854 0.00554127 0.14762246
v -0.00438607 0.00545322 0.14816398
v -0.00469773 0.00601137 0.14717866
v -0.00472305 0.00582602 0.14842264
v -0.00494697 0.01161543 0.14225176
v -0.00303995 0.00531165 0.14881132
v -0.00267484 0.00541483 0.14923441
v -0.00405343 0.00549569 0.14917366
v -0.00453934 0.00572880 0.14972164
v -0.00365721 0.00812845 0.15208543
v -0.00347718 0.00581450 0.15073776
v -0.00415205 0.00662061 0.15135784
v -0.00436947 0.00642132 0.15081742
v -0.00251004 0.01251934 0.15071389
v -0.00287195 0.01129981 0.15173797
v -0.00482921 0.00604062 0.14938311
v -0.00452434 0.01055931 0.15065695
v -0.00521883 0.01045152 0.14575625
v -0.00371581 0.01259141 0.14654380
v -0.00329441 0.01232431 0.15035903
v -0.00325770 0.01257279 0.14846337
v -0.00357972 0.01238815 0.14804710
v -0.00447376 0.01106035 0.14875225
v -0.00426145 0.01046977 0.15168545
v -0.00385359 0.00990729 0.15197291
v -0.00671554 0.01103770 0.10961783
v -0.00685830 0.01120325 0.11007814
v -0.00607333 0.01488468 0.10861103
v -0.00504505 0.01169085 0.10844305
v -0.00618904 0.00999727 0.10949710
v -0.00702660 0.01303868 0.10920395
v -0.00691857 0.01249748 0.10929496
v -0.00633141 0.01553924 0.10887035
v -0.00659250 0.01504925 0.10888434
v -0.00679218 0.01379171 0.10872912
v -0.00746944 0.01408828 0.11070125
v -0.00432095 0.01565586 0.10919250
v -0.00599133 0.01602441 0.10889036
v -0.00600524 0.01621394 0.10902808
v -0.00544841 0.01669782 0.10909700
v -0.00607521 0.01591694 0.10893527
v -0.00549636 0.00873232 0.11268881
v -0.00517592 0.00859385 0.11267732
v -0.00440881 0.00920560 0.11382241
v -0.00541555 0.01023880 0.11475461
v -0.00604227 0.00888353 0.11256938
v -0.00599199 0.00907519 0.11302780
v -0.00651770 0.00961872 0.11208267
v -0.00673821 0.01074132 0.11316420
v -0.00682747 0.01155829 0.11344116
v -0.00581862 0.01222717 0.11906638
v -0.00627141 0.01322046 0.11789009
v -0.00751057 0.01554109 0.11307205
v -0.00568211 0.01792327 0.11117279
v -0.00595136 0.01751119 0.11076042
v -0.00615845 0.01761915 0.11205067
v -0.00546893 0.01702612 0.11608217
v -0.00643696 0.01745279 0.11236470
v -0.00743332 0.01579384 0.11304663
v -0.00621762 0.01546276 0.11633894
v -0.00682151 0.01501977 0.11516026
v 0.00428182 0.01370312 0.10840690
v 0.00596517 0.00912629 0.14624170
v 0.00563675 0.00898826 0.14609945
v 0.00546578 0.01050220 0.14519612
v 0.00520366 0.01063941 0.14467710
v 0.00545821 0.01103681 0.14678262
v 0.00529186 0.01083359 0.14468582
v 0.00594646 0.00765984 0.14870660
v 0.00600511 0.00928734 0.14624630
v 0.00492768 0.00680274 0.15078766
v 0.00268832 0.01210298 0.10854184
v -0.00175522 0.00936945 0.10847197
v 0.00302824 0.01111354 0.10819806
v 0.00374500 0.01831888 0.10895121
v 0.00385705 0.01836950 0.10899171
v 0.00447255 0.01812751 0.10885594
v 0.00212095 0.01877986 0.10922581
v 0.00292089 0.01857192 0.10911371
v 0.00352928 0.01841971 0.10902440
v 0.00505343 0.01328825 0.12405677
v 0.00468792 0.01300515 0.12478805
v 0.00516178 0.01309724 0.12259787
v 0.00478874 0.01340479 0.12949176
v 0.00460884 0.01273568 0.12896760
v 0.00493465 0.01295127 0.13627787
v 0.00483743 0.01269992 0.13981934
v 0.00445837 0.01235473 0.13626654
v 0.00478516 0.01289898 0.14061875
v 0.00436426 0.00969729 0.14477944
v 0.00390121 0.00928465 0.14522634
v 0.00422926 0.00941727 0.14511861
v 0.00460104 0.00841859 0.15210490
v 0.00426460 0.01028324 0.15220906
v 0.00280166 0.01244563 0.15149681
v 0.00355538 0.01251711 0.15072510
v 0.00244203 0.01289616 0.15073966
v 0.00301244 0.00959714 0.10894585
v 0.00518868 0.00926173 0.11073661
v -0.00018651 0.01995313 0.11080022
v -0.00319369 0.01896718 0.11023755
v -0.00469029 0.00803268 0.11050931
v -0.00579986 0.00848893 0.11069369
v -0.00641028 0.00994436 0.10976543
v -0.00298520 0.01859860 0.10958862
v -0.00555119 0.01075494 0.11603529
v -0.00653591 0.00968688 0.11281408
v -0.00606392 0.01052386 0.11409192
v -0.00616281 0.01088626 0.11448323
v -0.00253460 0.01144181 0.12978245
v -0.00473290 0.01184406 0.12693797
v -0.00402378 0.01110556 0.13282683
v -0.00412609 0.01051055 0.13700890
v -0.00431510 0.01140925 0.13097201
v -0.00526592 0.01206862 0.12139209
v -0.00488432 0.01229223 0.12889056
v -0.00479517 0.01220578 0.13134258
v -0.00505776 0.01181334 0.13569720
v -0.00506904 0.01289157 0.13104904
v -0.00523420 0.00969978 0.14467457
v -0.00512874 0.01030130 0.14230124
v -0.00483967 0.01234774 0.14100028
v -0.00508158 0.01063468 0.14232808
v -0.00497283 0.00656545 0.14651360
v -0.00518518 0.00859394 0.14502680
v -0.00454450 0.01002496 0.15147198
v -0.00655142 0.01023031 0.10982290
v -0.00730887 0.01319744 0.11006760
v -0.00736416 0.01560320 0.11045038
v -0.00415085 0.01830429 0.10996369
v -0.00651906 0.01689773 0.11037378
v -0.00676805 0.01574594 0.10947976
v -0.00534559 0.01683371 0.10914118
v -0.00663816 0.01488773 0.10893206
v -0.00581789 0.01647093 0.10915013
v -0.00642450 0.00946595 0.11233278
v -0.00608804 0.00894717 0.11267780
v -0.00566842 0.01013888 0.11443206
vn 0.962906 -0.197444 0.183923
vn 0.712990 -0.264303 -0.649453
vn 0.372270 -0.881004 0.291970
vn 0.136616 -0.639707 -0.756381
vn 0.674584 -0.367931 -0.639971
vn 0.343475 -0.005741 -0.939144
vn -0.223259 0.066695 -0.972475
vn 0.410201 -0.865628 -0.287095
vn 0.873128 0.479393 0.088486
vn 0.891688 0.228481 0.390755
vn -0.162581 0.096024 -0.982012
vn 0.239860 -0.724452 -0.646248
vn 0.021157 -0.653810 0.756363
vn 0.167844 -0.915381 0.365932
vn -0.090864 0.396394 0.913573
vn -0.256298 0.382708 0.887607
vn 0.121122 -0.989086 0.083893
vn -0.242122 -0.924488 -0.294447
vn -0.058507 0.284808 -0.956798
vn -0.402492 0.697072 -0.593372
vn 0.160200 -0.986413 -0.036409
vn -0.815642 0.566287 0.118521
vn -0.601275 -0.780719 -0.170135
vn -0.843722 -0.500094 -0.195036
vn -0.799122 0.578917 0.162047
vn -0.116330 -0.778635 0.616599
vn -0.465192 0.883841 0.049209
vn 0.611747 -0.666815 -0.425586
vn 0.666463 0.513305 0.540689
vn 0.124246 -0.943531 -0.307104
vn -0.453348 -0.885179 -0.104560
vn -0.760550 -0.151613 0.631330
vn 0.877027 -0.369882 0.306612
vn 0.762595 -0.586646 0.272571
vn 0.740073 -0.666926 0.086609
vn -0.179833 0.192680 -0.964642
vn 0.745157 0.147017 -0.650482
vn 0.540451 0.816025 0.204979
vn 0.904795 0.380791 0.190642
vn 0.662220 0.736164 0.139740
vn 0.900994 -0.389070 -0.191923
vn 0.555403 -0.260594 -0.789695
vn 0.835303 -0.151671 0.528455
vn 0.183882 -0.593524 0.783529
vn 0.184967 0.199107 0.962364
vn -0.179141 0.087630 -0.979913
vn 0.586896 0.787401 0.188553
vn 0.339475 0.928795 0.148649
vn 0.147801 -0.764459 -0.627501
vn 0.022728 -0.946198 -0.322790
vn -0.138135 -0.802115 0.580973
vn 0.039065 0.999224 0.004972
vn 0.113179 0.986672 0.116917
vn 0.361298 -0.923143 0.131420
vn 0.296517 -0.739442 0.604404
vn 0.079343 -0.967098 0.241714
vn -0.399546 -0.916316 -0.026976
vn -0.474286 -0.879850 -0.030276
vn -0.054095 -0.992497 -0.109647
vn -0.905499 0.416952 0.078882
vn -0.041418 -0.717070 -0.695770
vn -0.984929 -0.006551 0.172836
vn 0.116788 -0.793230 -0.597617
vn -0.449108 -0.830859 -0.328597
vn -0.219058 0.960557 0.171301
vn -0.162714 0.705101 0.690186
vn -0.342253 0.564719 0.750969
vn -0.946901 0.290438 0.137927
vn -0.543220 0.798396 0.259760
vn -0.684625 -0.217328 -0.695742
vn 0.055878 0.184730 -0.981199
vn -0.982904 -0.037434 0.180271
vn -0.988399 -0.150929 -0.016961
vn -0.997708 0.061103 -0.029069
vn -0.952026 0.251742 0.173988
vn -0.630931 0.755009 0.178574
vn -0.725236 0.676543 0.127759
vn -0.105786 0.196880 -0.974704
vn 0.016826 0.560977 -0.827660
vn 0.082280 -0.996382 0.021262
vn 0.042589 -0.998848 -0.022092
vn -0.861275 -0.504681 0.059183
vn 0.952441 -0.100435 -0.287696
vn 0.865634 0.245029 -0.436621
vn 0.729137 -0.633454 -0.259028
vn 0.539255 -0.690073 0.482704
vn 0.899166 -0.437320 -0.015858
vn 0.959793 0.278498 0.035159
vn 0.928780 -0.249108 0.274431
vn 0.927112 -0.142903 0.346471
vn 0.984752 0.044081 0.168287
vn 0.983463 0.082364 0.161296
vn 0.753591 0.628668 0.192037
vn 0.883659 0.352432 0.308121
vn 0.899865 -0.429679 -0.074957
vn 0.224406 -0.751822 -0.620004
vn 0.983352 -0.032517 0.178778
vn 0.958622 -0.188664 0.213190
vn 0.980742 -0.009945 0.195054
vn 0.455116 -0.054070 -0.888789
vn 0.504465 -0.029166 -0.862939
vn -0.253803 0.076046 -0.964262
vn -0.188206 0.142770 -0.971697
vn 0.200550 0.729109 -0.654355
vn -0.210751 0.180163 -0.960794
vn 0.602546 0.704530 -0.374934
vn 0.161007 0.862891 -0.479058
vn 0.419883 -0.836038 0.353185
vn 0.062516 -0.955682 0.287685
vn 0.423350 -0.870745 0.250155
vn 0.245798 -0.935987 0.252017
vn 0.928810 -0.338238 0.151352
vn 0.527262 -0.819315 0.225205
vn 0.142637 -0.972337 0.184975
vn 0.967202 0.199404 0.157350
vn 0.951797 -0.227100 0.206175
vn 0.675844 0.694186 0.247673
vn 0.999197 0.011858 0.038261
vn 0.875308 0.469619 0.115301
vn 0.909106 0.408641 0.080858
vn 0.625016 -0.780320 -0.021343
vn 0.976043 0.215316 0.031277
vn 0.817605 0.569726 0.083277
vn 0.999519 -0.030197 -0.007057
vn 0.938025 -0.306269 -0.162201
vn 0.996275 -0.085661 -0.009890
vn 0.917644 -0.379288 -0.118613
vn 0.901499 0.428206 0.062762
vn 0.724928 0.678576 0.118381
vn 0.475902 -0.295582 -0.828341
vn -0.035531 -0.697839 -0.715372
vn 0.966798 -0.154083 -0.203863
vn 0.983195 0.178436 -0.038569
vn 0.982428 -0.169881 -0.077297
vn 0.562876 -0.719981 -0.405952
vn 0.965758 0.254301 -0.051400
vn 0.950413 0.310771 0.011678
vn 0.007112 -0.576855 -0.816815
vn -0.074136 -0.746603 -0.661126
vn 0.859184 0.506451 0.072874
vn 0.917686 0.395667 0.036050
vn 0.925732 0.273417 0.261274
vn 0.454039 -0.879318 -0.143693
vn 0.035292 -0.997696 0.057940
vn 0.272640 -0.960455 0.056508
vn -0.124466 -0.899878 0.418004
vn 0.925390 0.311001 0.216639
vn 0.904747 0.359792 0.227996
vn 0.890997 0.378099 0.251328
vn 0.901571 0.385134 0.197085
vn 0.603226 0.777757 0.176669
vn 0.777261 0.582155 0.238663
vn 0.157274 -0.471601 -0.867673
vn 0.132382 0.763667 -0.631892
vn -0.043465 -0.024216 -0.998761
vn -0.241361 -0.006121 -0.970416
vn 0.059697 0.782623 -0.619626
vn 0.615691 0.772115 0.157364
vn 0.623141 -0.766714 -0.154416
vn 0.619795 -0.739021 -0.264010
vn 0.444307 0.876005 0.187634
vn 0.577868 0.794215 0.187860
vn 0.137615 0.950791 0.277593
vn 0.157370 -0.953099 -0.258529
vn 0.127649 -0.941531 -0.311811
vn 0.060156 -0.966334 -0.250160
vn -0.085363 -0.952821 -0.291281
vn -0.103385 -0.993234 -0.052887
vn 0.371597 -0.904659 -0.208584
vn -0.007231 -0.810900 -0.585140
vn -0.042787 -0.787945 -0.614257
vn 0.146833 -0.957856 -0.246884
vn 0.229949 -0.891153 -0.391114
vn 0.285551 -0.670221 -0.685029
vn -0.113341 -0.979466 0.166734
vn 0.323835 -0.920470 0.218784
vn 0.373326 -0.862831 0.340808
vn -0.115973 -0.893651 0.433517
vn 0.024454 -0.480007 0.876924
vn 0.178357 0.019961 0.983763
vn -0.018167 0.015616 0.999713
vn -0.059213 0.240442 0.968856
vn 0.172051 0.577137 0.798317
vn 0.109159 -0.510219 -0.853089
vn -0.012623 0.178776 -0.983809
vn 0.008911 0.181387 -0.983371
vn -0.181155 0.860259 -0.476590
vn 0.011643 0.955071 -0.296147
vn 0.067900 0.942126 -0.328311
vn 0.033602 0.990197 0.135575
vn -0.048902 0.994869 0.088567
vn 0.474330 -0.865610 -0.160408
vn 0.239386 0.957915 0.158406
vn 0.340441 0.918388 0.201653
vn -0.171169 0.978078 0.118593
vn 0.016989 0.992087 0.124399
vn -0.168225 0.975621 0.140942
vn -0.312582 0.935602 0.164140
vn 0.060908 0.981286 0.182670
vn -0.111656 0.950228 0.290861
vn 0.140462 -0.950879 -0.275861
vn 0.088673 -0.936755 -0.338566
vn 0.143518 -0.929796 -0.338942
vn 0.406435 -0.801733 -0.438218
vn 0.277116 -0.574849 -0.769906
vn 0.433353 -0.642773 -0.631702
vn 0.292827 -0.906863 -0.303071
vn 0.417841 -0.872083 -0.254715
vn -0.262822 0.911806 0.315490
vn -0.123621 0.552604 0.824225
vn -0.142860 0.957804 0.249403
vn 0.100784 -0.532571 0.840363
vn -0.043879 -0.285319 0.957428
vn 0.050509 -0.515996 0.855100
vn -0.079717 0.080147 0.993590
vn -0.073575 0.510881 0.856497
vn -0.069062 0.497800 0.864538
vn -0.133318 0.134007 0.981972
vn -0.168766 -0.858648 -0.483985
vn -0.029770 -0.747822 -0.663231
vn -0.310293 -0.428538 -0.848572
vn -0.064711 -0.016046 -0.997775
vn -0.489517 -0.871142 0.038538
vn 0.007309 0.135368 -0.990768
vn 0.089355 0.149344 -0.984740
vn 0.038595 0.051659 -0.997919
vn -0.044728 0.070672 -0.996496
vn -0.225867 0.974130 0.007380
vn -0.012557 -0.903876 0.427611
vn -0.295348 0.952211 0.077871
vn -0.456925 0.881785 0.116937
vn -0.392518 0.918420 0.049327
vn 0.202213 -0.977041 -0.067089
vn 0.206518 -0.978429 0.005171
vn -0.008729 -0.982053 0.188401
vn -0.437682 -0.899022 0.013892
vn -0.410820 -0.911715 0.001745
vn -0.687017 -0.711059 0.149678
vn -0.611062 -0.790709 0.037180
vn -0.503121 -0.864128 -0.012310
vn -0.935097 -0.353449 -0.025844
vn -0.998885 0.042230 0.021113
vn -0.552886 0.823241 0.128807
vn -0.744424 0.659825 0.102293
vn 0.034806 -0.951134 -0.306810
vn 0.131411 -0.976587 -0.170319
vn -0.049533 -0.984297 -0.169427
vn -0.651060 0.735061 0.189226
vn -0.780291 -0.579219 -0.235906
vn -0.996448 0.006612 0.083947
vn -0.074360 -0.943337 -0.323396
vn -0.691884 -0.647861 -0.318706
vn 0.122008 -0.734464 -0.667591
vn 0.160573 -0.591509 -0.790147
vn -0.057041 -0.860375 -0.506460
vn -0.669978 -0.535918 -0.513732
vn -0.093248 -0.672686 -0.734028
vn -0.829869 -0.405191 -0.383586
vn 0.106552 -0.960379 -0.257524
vn -0.027231 -0.851445 -0.523737
vn -0.413663 -0.909403 -0.043228
vn -0.427103 -0.807040 -0.407761
vn -0.820480 -0.571211 -0.023018
vn -0.995311 0.085486 -0.045265
vn 0.209477 -0.972117 -0.105395
vn 0.072937 -0.960833 0.267356
vn -0.176580 -0.972068 0.154606
vn -0.394421 -0.862397 0.317340
vn -0.162640 -0.167826 0.972308
vn -0.078331 -0.849263 0.522128
vn -0.338880 -0.594072 0.729547
vn -0.893310 -0.145719 0.425162
vn -0.039964 0.738231 0.673363
vn -0.197255 0.488065 0.850225
vn -0.989927 -0.033588 0.137540
vn -0.991204 0.121014 0.053582
vn -0.883448 0.451461 0.125313
vn -0.801289 0.583427 0.132473
vn -0.532460 0.836484 0.129541
vn -0.533351 0.841193 0.089050
vn -0.671897 0.719142 0.177172
vn -0.828104 0.552361 0.095613
vn -0.564864 0.232831 0.791655
vn -0.245020 0.023720 0.969228
vn -0.683440 -0.267635 -0.679177
vn -0.958240 -0.268006 -0.099746
vn 0.108654 0.126002 -0.986062
vn -0.156360 -0.003875 -0.987693
vn -0.534641 -0.228715 -0.813540
vn -0.648966 -0.250356 -0.718446
vn -0.655143 -0.249163 -0.713236
vn -0.344509 0.222841 -0.911952
vn -0.722821 0.256281 -0.641755
vn -0.392177 -0.125925 -0.911230
vn -0.954368 0.045611 -0.295131
vn 0.158263 0.067709 -0.985073
vn 0.109204 0.142092 -0.983811
vn -0.584941 0.500710 -0.638070
vn -0.149325 0.398126 -0.905095
vn -0.593850 0.443946 -0.671010
vn -0.333397 -0.919489 0.208297
vn 0.065126 -0.959264 0.274903
vn -0.167512 -0.782204 0.600080
vn -0.078657 -0.958077 0.275502
vn -0.410310 -0.900328 0.145107
vn -0.324056 -0.854361 0.406270
vn -0.961460 -0.274654 0.012635
vn -0.914438 -0.249302 0.318828
vn -0.920364 -0.328143 0.212726
vn -0.959540 -0.176763 0.219175
vn -0.955970 -0.189231 0.224306
vn -0.960638 0.132600 0.244113
vn -0.614761 0.705452 -0.352713
vn -0.498574 0.775676 -0.386976
vn -0.777685 0.568638 -0.268060
vn -0.786091 0.590672 0.182117
vn -0.736000 0.665148 0.126021
vn -0.827228 0.542086 0.147770
vn -0.925190 0.335073 0.178186
vn -0.912041 0.186133 0.365425
vn -0.316858 0.142401 -0.937722
vn 0.580054 -0.377006 -0.722083
vn 0.520476 -0.327556 -0.788551
vn 0.786999 -0.383083 -0.483612
vn 0.819814 -0.450782 -0.353129
vn 0.931670 0.351633 0.091350
vn 0.963401 0.228559 -0.140069
vn 0.983814 -0.157213 0.085987
vn 0.958940 0.279733 -0.046736
vn 0.289602 -0.734909 0.613220
vn -0.185266 0.191532 -0.963842
vn -0.030105 -0.117505 -0.992616
vn -0.327011 0.265062 -0.907086
vn 0.009196 0.480820 -0.876771
vn 0.061317 0.697643 -0.713816
vn 0.001895 0.457118 -0.889404
vn 0.073311 0.764338 -0.640635
vn 0.084389 0.738993 -0.668408
vn 0.026573 0.575491 -0.817376
vn 0.655058 -0.754165 0.046197
vn 0.690956 -0.721673 0.042041
vn 0.982331 -0.162656 0.092570
vn 0.971187 -0.235305 -0.037791
vn 0.969672 -0.244066 0.012998
vn 0.735813 -0.676953 -0.017729
vn 0.885556 -0.461354 -0.054247
vn 0.603406 -0.795839 -0.050419
vn 0.978735 0.199484 0.047794
vn 0.469057 -0.764053 -0.442955
vn 0.053767 -0.809689 -0.584390
vn 0.259883 -0.761457 -0.593838
vn 0.422772 -0.180030 0.888174
vn 0.576837 0.344446 0.740687
vn 0.088579 0.576284 0.812435
vn 0.545757 0.571173 0.613115
vn 0.032660 0.693174 0.720030
vn 0.188245 -0.808464 -0.557629
vn 0.124556 -0.991011 0.048806
vn -0.220401 0.932131 -0.287323
vn -0.334079 0.895186 -0.295013
vn -0.212046 -0.972562 -0.095707
vn -0.871608 -0.479826 -0.100332
vn -0.833638 -0.473930 -0.283616
vn -0.293202 0.745033 -0.599132
vn -0.567993 -0.787573 0.238980
vn -0.839908 -0.438039 0.320432
vn -0.813493 -0.362888 0.454468
vn -0.788569 -0.576383 0.214343
vn 0.092360 -0.990141 -0.105314
vn -0.739444 -0.672965 -0.018437
vn -0.306762 -0.942764 -0.130744
vn -0.320248 -0.937980 -0.132795
vn -0.434632 -0.898244 -0.065207
vn -0.997042 0.067841 0.036129
vn -0.892062 -0.450071 0.040762
vn -0.929581 -0.365293 -0.049388
vn -0.925825 -0.367341 -0.088934
vn -0.907401 -0.419962 -0.015964
vn -0.997821 0.060496 -0.026330
vn -0.990038 0.140071 0.014311
vn -0.956633 0.285686 0.056888
vn -0.990996 0.133506 -0.010195
vn -0.747536 -0.467020 -0.472315
vn -0.992770 -0.074616 -0.094024
vn -0.929279 -0.026046 0.368460
vn -0.865733 -0.222920 -0.448122
vn -0.867365 -0.093320 -0.488845
vn -0.910841 0.356645 -0.207784
vn -0.500975 0.733973 -0.458592
vn -0.668188 0.628282 -0.398480
vn -0.715458 0.434705 -0.546948
vn -0.372674 0.600692 -0.707307
vn -0.802781 0.090335 -0.589392
vn -0.563959 0.595249 -0.572389
vn -0.881140 -0.466751 -0.075729
vn -0.802693 -0.534677 0.264206
vn -0.582353 -0.636576 0.505605
f 357//357 153//153 2//2
f 85//85 3//3 358//358
f 2//2 83//83 85//85
f 83//83 87//87 85//85
f 357//357 2//2 85//85
f 30//30 357//357 358//358
f 357//357 85//85 358//358
f 2//2 37//37 83//83
f 153//153 6//6 2//2
f 37//37 101//101 36//36
f 36//36 101//101 100//100
f 100//100 2//2 6//6
f 101//101 2//2 100//100
f 37//37 2//2 101//101
f 87//87 3//3 85//85
f 33//33 86//86 3//3
f 3//3 86//86 109//109
f 3//3 1//1 33//33
f 3//3 87//87 1//1
f 87//87 83//83 1//1
f 1//1 83//83 88//88
f 88//88 92//92 1//1
f 33//33 1//1 90//90
f 33//33 90//90 89//89
f 90//90 1//1 92//92
f 83//83 84//84 88//88
f 93//93 88//88 106//106
f 88//88 84//84 106//106
f 38//38 106//106 107//107
f 93//93 106//106 38//38
f 34//34 86//86 33//33
f 89//89 34//34 33//33
f 90//90 94//94 89//89
f 91//91 89//89 94//94
f 92//92 94//94 90//90
f 88//88 94//94 92//92
f 94//94 88//88 93//93
f 94//94 93//93 38//38
f 91//91 94//94 115//115
f 91//91 116//116 89//89
f 115//115 116//116 91//91
f 96//96 322//322 5//5
f 4//4 323//323 96//96
f 323//323 322//322 96//96
f 323//323 42//42 322//322
f 322//322 42//42 5//5
f 323//323 130//130 42//42
f 4//4 130//130 323//323
f 134//134 136//136 132//132
f 132//132 136//136 327//327
f 326//326 327//327 136//136
f 328//328 35//35 95//95
f 95//95 35//35 143//143
f 4//4 96//96 138//138
f 96//96 143//143 166//166
f 96//96 166//166 167//167
f 96//96 167//167 139//139
f 330//330 144//144 35//35
f 144//144 145//145 35//35
f 95//95 329//329 147//147
f 96//96 5//5 95//95
f 96//96 95//95 143//143
f 95//95 147//147 328//328
f 328//328 147//147 97//97
f 139//139 131//131 96//96
f 138//138 131//131 4//4
f 96//96 131//131 138//138
f 147//147 326//326 149//149
f 147//147 149//149 148//148
f 329//329 326//326 147//147
f 329//329 327//327 326//326
f 142//142 99//99 147//147
f 142//142 98//98 35//35
f 98//98 43//43 35//35
f 97//97 35//35 328//328
f 142//142 35//35 99//99
f 99//99 97//97 147//147
f 35//35 97//97 99//99
f 10//10 43//43 142//142
f 43//43 98//98 142//142
f 35//35 43//43 330//330
f 330//330 43//43 352//352
f 333//333 321//321 36//36
f 331//331 321//321 333//333
f 37//37 36//36 103//103
f 84//84 83//83 37//37
f 102//102 105//105 103//103
f 321//321 103//103 36//36
f 102//102 103//103 321//321
f 102//102 7//7 105//105
f 331//331 102//102 321//321
f 104//104 107//107 106//106
f 37//37 106//106 84//84
f 106//106 37//37 104//104
f 105//105 104//104 103//103
f 104//104 37//37 103//103
f 105//105 336//336 104//104
f 105//105 334//334 336//336
f 104//104 336//336 335//335
f 104//104 335//335 154//154
f 339//339 334//334 79//79
f 336//336 334//334 339//339
f 338//338 79//79 337//337
f 154//154 337//337 11//11
f 338//338 337//337 154//154
f 336//336 339//339 335//335
f 339//339 79//79 338//338
f 335//335 338//338 154//154
f 339//339 338//338 335//335
f 154//154 107//107 104//104
f 107//107 189//189 52//52
f 52//52 38//38 107//107
f 188//188 189//189 107//107
f 86//86 108//108 109//109
f 86//86 34//34 108//108
f 109//109 108//108 110//110
f 108//108 34//34 110//110
f 110//110 111//111 109//109
f 358//358 3//3 56//56
f 3//3 109//109 56//56
f 53//53 194//194 38//38
f 38//38 39//39 115//115
f 38//38 115//115 94//94
f 39//39 38//38 117//117
f 194//194 117//117 38//38
f 117//117 194//194 158//158
f 113//113 111//111 110//110
f 113//113 110//110 34//34
f 342//342 113//113 112//112
f 113//113 34//34 112//112
f 89//89 116//116 34//34
f 34//34 116//116 112//112
f 112//112 116//116 342//342
f 116//116 115//115 342//342
f 113//113 342//342 340//340
f 113//113 340//340 111//111
f 115//115 39//39 117//117
f 111//111 340//340 341//341
f 111//111 341//341 114//114
f 341//341 234//234 114//114
f 340//340 121//121 341//341
f 341//341 121//121 234//234
f 342//342 118//118 344//344
f 118//118 343//343 344//344
f 21//21 234//234 233//233
f 233//233 347//347 192//192
f 342//342 115//115 118//118
f 115//115 120//120 118//118
f 115//115 117//117 119//119
f 115//115 119//119 120//120
f 40//40 120//120 119//119
f 158//158 40//40 119//119
f 158//158 119//119 117//117
f 344//344 343//343 126//126
f 343//343 118//118 124//124
f 343//343 124//124 126//126
f 340//340 345//345 121//121
f 345//345 347//347 121//121
f 347//347 233//233 121//121
f 234//234 121//121 233//233
f 123//123 120//120 40//40
f 118//118 122//122 124//124
f 118//118 120//120 122//122
f 345//345 346//346 347//347
f 126//126 124//124 122//122
f 347//347 159//159 192//192
f 40//40 129//129 123//123
f 123//123 129//129 120//120
f 129//129 40//40 161//161
f 129//129 161//161 47//47
f 135//135 160//160 132//132
f 125//125 346//346 126//126
f 160//160 127//127 41//41
f 127//127 346//346 125//125
f 127//127 125//125 41//41
f 348//348 128//128 126//126
f 160//160 41//41 125//125
f 126//126 133//133 125//125
f 134//134 125//125 133//133
f 126//126 128//128 133//133
f 120//120 128//128 122//122
f 122//122 348//348 126//126
f 128//128 348//348 122//122
f 346//346 127//127 347//347
f 347//347 127//127 159//159
f 160//160 159//159 127//127
f 160//160 8//8 192//192
f 160//160 192//192 159//159
f 128//128 120//120 129//129
f 351//351 4//4 131//131
f 351//351 131//131 350//350
f 165//165 350//350 170//170
f 350//350 131//131 170//170
f 132//132 160//160 134//134
f 160//160 125//125 134//134
f 134//134 133//133 136//136
f 133//133 128//128 137//137
f 133//133 137//137 136//136
f 327//327 325//325 132//132
f 325//325 135//135 132//132
f 349//349 135//135 351//351
f 351//351 135//135 28//28
f 327//327 324//324 325//325
f 324//324 28//28 135//135
f 324//324 135//135 325//325
f 326//326 136//136 9//9
f 165//165 8//8 350//350
f 160//160 135//135 8//8
f 8//8 135//135 349//349
f 350//350 349//349 351//351
f 8//8 349//349 350//350
f 128//128 140//140 137//137
f 141//141 9//9 136//136
f 141//141 136//136 137//137
f 140//140 141//141 137//137
f 9//9 141//141 140//140
f 128//128 129//129 47//47
f 128//128 47//47 140//140
f 162//162 9//9 140//140
f 162//162 140//140 47//47
f 162//162 47//47 161//161
f 144//144 166//166 143//143
f 145//145 143//143 35//35
f 144//144 143//143 145//145
f 144//144 167//167 166//166
f 144//144 168//168 167//167
f 167//167 50//50 171//171
f 50//50 167//167 175//175
f 175//175 167//167 168//168
f 175//175 168//168 144//144
f 167//167 171//171 139//139
f 171//171 49//49 170//170
f 170//170 131//131 139//139
f 171//171 170//170 139//139
f 326//326 9//9 149//149
f 9//9 162//162 149//149
f 162//162 161//161 151//151
f 162//162 151//151 149//149
f 179//179 330//330 352//352
f 179//179 44//44 330//330
f 51//51 44//44 179//179
f 146//146 175//175 144//144
f 51//51 175//175 146//146
f 51//51 146//146 330//330
f 330//330 146//146 144//144
f 51//51 330//330 44//44
f 179//179 13//13 51//51
f 175//175 51//51 178//178
f 51//51 13//13 178//178
f 148//148 150//150 147//147
f 150//150 10//10 142//142
f 150//150 142//142 147//147
f 150//150 29//29 10//10
f 148//148 29//29 150//150
f 148//148 149//149 151//151
f 148//148 152//152 29//29
f 151//151 152//152 148//148
f 29//29 152//152 163//163
f 152//152 151//151 163//163
f 163//163 151//151 161//161
f 43//43 353//353 352//352
f 179//179 180//180 213//213
f 179//179 352//352 180//180
f 352//352 353//353 45//45
f 352//352 45//45 180//180
f 213//213 180//180 181//181
f 45//45 181//181 180//180
f 181//181 45//45 182//182
f 182//182 45//45 216//216
f 353//353 355//355 183//183
f 355//355 354//354 183//183
f 183//183 45//45 353//353
f 163//163 356//356 29//29
f 6//6 153//153 332//332
f 153//153 357//357 184//184
f 153//153 184//184 332//332
f 332//332 78//78 333//333
f 186//186 78//78 332//332
f 17//17 30//30 358//358
f 46//46 102//102 331//331
f 46//46 155//155 156//156
f 46//46 156//156 102//102
f 102//102 11//11 7//7
f 156//156 11//11 102//102
f 157//157 107//107 154//154
f 227//227 154//154 11//11
f 157//157 154//154 227//227
f 187//187 188//188 157//157
f 188//188 52//52 189//189
f 157//157 188//188 107//107
f 21//21 235//235 234//234
f 234//234 235//235 114//114
f 235//235 111//111 114//114
f 109//109 111//111 235//235
f 193//193 158//158 48//48
f 48//48 158//158 194//194
f 233//233 192//192 246//246
f 40//40 193//193 161//161
f 158//158 193//193 40//40
f 48//48 53//53 193//193
f 193//193 199//199 161//161
f 8//8 164//164 246//246
f 170//170 172//172 165//165
f 170//170 49//49 172//172
f 165//165 172//172 164//164
f 165//165 164//164 8//8
f 49//49 173//173 172//172
f 172//172 173//173 202//202
f 49//49 174//174 173//173
f 50//50 12//12 171//171
f 171//171 12//12 49//49
f 12//12 174//174 49//49
f 176//176 50//50 175//175
f 169//169 50//50 176//176
f 50//50 169//169 12//12
f 54//54 169//169 176//176
f 12//12 206//206 174//174
f 174//174 204//204 205//205
f 206//206 204//204 174//174
f 169//169 206//206 12//12
f 204//204 206//206 169//169
f 169//169 54//54 265//265
f 176//176 175//175 178//178
f 178//178 13//13 177//177
f 179//179 213//213 13//13
f 212//212 13//13 213//213
f 178//178 177//177 176//176
f 15//15 29//29 356//356
f 211//211 356//356 163//163
f 15//15 356//356 211//211
f 65//65 211//211 163//163
f 354//354 210//210 183//183
f 183//183 216//216 45//45
f 210//210 216//216 183//183
f 210//210 15//15 216//216
f 212//212 213//213 269//269
f 357//357 219//219 220//220
f 184//184 220//220 332//332
f 357//357 220//220 184//184
f 222//222 332//332 220//220
f 221//221 220//220 219//219
f 222//222 220//220 221//221
f 222//222 186//186 332//332
f 225//225 186//186 222//222
f 186//186 331//331 78//78
f 186//186 185//185 331//331
f 78//78 331//331 333//333
f 46//46 331//331 224//224
f 331//331 185//185 224//224
f 225//225 185//185 186//186
f 224//224 185//185 225//225
f 225//225 226//226 224//224
f 224//224 226//226 46//46
f 46//46 226//226 155//155
f 226//226 19//19 227//227
f 155//155 227//227 156//156
f 156//156 227//227 11//11
f 226//226 227//227 155//155
f 227//227 19//19 157//157
f 187//187 157//157 19//19
f 187//187 359//359 188//188
f 187//187 364//364 360//360
f 364//364 20//20 360//360
f 228//228 52//52 188//188
f 187//187 360//360 359//359
f 359//359 228//228 188//188
f 228//228 359//359 360//360
f 228//228 360//360 27//27
f 228//228 190//190 52//52
f 52//52 190//190 38//38
f 228//228 191//191 190//190
f 191//191 53//53 38//38
f 191//191 38//38 190//190
f 230//230 231//231 228//228
f 228//228 195//195 191//191
f 195//195 196//196 191//191
f 195//195 193//193 196//196
f 196//196 53//53 191//191
f 228//228 231//231 195//195
f 195//195 197//197 193//193
f 197//197 195//195 231//231
f 244//244 243//243 231//231
f 8//8 246//246 192//192
f 231//231 198//198 197//197
f 197//197 198//198 193//193
f 231//231 243//243 198//198
f 243//243 248//248 198//198
f 48//48 194//194 53//53
f 53//53 196//196 193//193
f 198//198 200//200 199//199
f 198//198 199//199 193//193
f 245//245 246//246 164//164
f 22//22 248//248 243//243
f 248//248 200//200 198//198
f 201//201 245//245 164//164
f 200//200 163//163 161//161
f 200//200 161//161 199//199
f 254//254 174//174 205//205
f 208//208 207//207 205//205
f 63//63 205//205 207//207
f 254//254 205//205 63//63
f 173//173 174//174 202//202
f 174//174 203//203 202//202
f 164//164 172//172 201//201
f 172//172 202//202 201//201
f 245//245 202//202 251//251
f 201//201 202//202 245//245
f 200//200 209//209 163//163
f 65//65 163//163 209//209
f 200//200 248//248 209//209
f 259//259 207//207 265//265
f 266//266 265//265 54//54
f 270//270 54//54 14//14
f 207//207 208//208 265//265
f 208//208 205//205 204//204
f 265//265 204//204 169//169
f 208//208 204//204 265//265
f 55//55 13//13 212//212
f 212//212 214//214 55//55
f 270//270 55//55 214//214
f 14//14 55//55 270//270
f 177//177 13//13 55//55
f 54//54 55//55 14//14
f 177//177 55//55 176//176
f 176//176 55//55 54//54
f 212//212 269//269 214//214
f 217//217 216//216 273//273
f 211//211 69//69 15//15
f 65//65 69//69 211//211
f 279//279 69//69 65//65
f 69//69 273//273 15//15
f 15//15 273//273 216//216
f 273//273 66//66 217//217
f 69//69 66//66 273//273
f 215//215 213//213 181//181
f 269//269 213//213 215//215
f 215//215 181//181 182//182
f 215//215 182//182 216//216
f 284//284 269//269 218//218
f 269//269 215//215 218//218
f 215//215 216//216 217//217
f 215//215 217//217 218//218
f 217//217 16//16 218//218
f 294//294 288//288 222//222
f 222//222 221//221 289//289
f 221//221 219//219 363//363
f 221//221 363//363 289//289
f 386//386 289//289 363//363
f 289//289 294//294 222//222
f 17//17 302//302 361//361
f 17//17 358//358 302//302
f 30//30 17//17 361//361
f 18//18 30//30 361//361
f 18//18 361//361 223//223
f 219//219 362//362 363//363
f 363//363 307//307 386//386
f 18//18 223//223 305//305
f 223//223 361//361 305//305
f 302//302 301//301 361//361
f 361//361 301//301 305//305
f 222//222 287//287 225//225
f 225//225 287//287 297//297
f 225//225 297//297 296//296
f 225//225 296//296 226//226
f 297//297 299//299 71//71
f 226//226 71//71 19//19
f 297//297 71//71 226//226
f 296//296 297//297 226//226
f 20//20 364//364 392//392
f 358//358 56//56 302//302
f 56//56 229//229 302//302
f 56//56 109//109 229//229
f 303//303 302//302 229//229
f 303//303 304//304 302//302
f 302//302 397//397 26//26
f 304//304 397//397 302//302
f 229//229 109//109 304//304
f 229//229 304//304 303//303
f 26//26 306//306 302//302
f 306//306 301//301 302//302
f 306//306 305//305 301//301
f 360//360 313//313 27//27
f 27//27 313//313 315//315
f 304//304 109//109 235//235
f 304//304 235//235 365//365
f 304//304 365//365 397//397
f 27//27 231//231 232//232
f 232//232 231//231 230//230
f 228//228 232//232 230//230
f 27//27 232//232 228//228
f 238//238 235//235 236//236
f 235//235 21//21 236//236
f 60//60 374//374 242//242
f 75//75 374//374 60//60
f 237//237 236//236 21//21
f 239//239 236//236 237//237
f 370//370 239//239 240//240
f 238//238 236//236 239//239
f 370//370 375//375 239//239
f 375//375 238//238 239//239
f 375//375 378//378 82//82
f 238//238 82//82 374//374
f 375//375 82//82 238//238
f 75//75 77//77 316//316
f 76//76 77//77 231//231
f 77//77 76//76 316//316
f 237//237 21//21 57//57
f 239//239 237//237 240//240
f 237//237 57//57 58//58
f 237//237 58//58 240//240
f 81//81 80//80 369//369
f 80//80 21//21 233//233
f 80//80 233//233 369//369
f 378//378 375//375 376//376
f 375//375 370//370 241//241
f 375//375 241//241 376//376
f 231//231 77//77 244//244
f 244//244 22//22 243//243
f 81//81 369//369 59//59
f 31//31 370//370 58//58
f 370//370 240//240 58//58
f 373//373 58//58 57//57
f 31//31 58//58 373//373
f 371//371 373//373 59//59
f 371//371 31//31 373//373
f 59//59 373//373 57//57
f 233//233 246//246 369//369
f 246//246 245//245 247//247
f 369//369 372//372 59//59
f 247//247 372//372 369//369
f 246//246 247//247 369//369
f 31//31 371//371 372//372
f 371//371 59//59 372//372
f 31//31 372//372 23//23
f 372//372 247//247 23//23
f 241//241 377//377 376//376
f 376//376 377//377 378//378
f 374//374 381//381 242//242
f 381//381 60//60 242//242
f 75//75 60//60 77//77
f 77//77 60//60 244//244
f 60//60 22//22 244//244
f 381//381 22//22 60//60
f 23//23 247//247 252//252
f 247//247 245//245 251//251
f 247//247 251//251 252//252
f 252//252 24//24 23//23
f 379//379 382//382 380//380
f 380//380 381//381 374//374
f 379//379 381//381 382//382
f 382//382 381//381 380//380
f 277//277 22//22 381//381
f 22//22 277//277 248//248
f 203//203 174//174 253//253
f 203//203 253//253 202//202
f 253//253 174//174 254//254
f 253//253 254//254 257//257
f 254//254 61//61 257//257
f 257//257 61//61 249//249
f 257//257 249//249 383//383
f 256//256 257//257 383//383
f 383//383 250//250 384//384
f 383//383 249//249 250//250
f 250//250 249//249 62//62
f 249//249 275//275 62//62
f 263//263 275//275 249//249
f 252//252 251//251 255//255
f 251//251 202//202 255//255
f 202//202 253//253 255//255
f 252//252 256//256 258//258
f 252//252 258//258 24//24
f 253//253 257//257 255//255
f 257//257 256//256 252//252
f 257//257 252//252 255//255
f 250//250 277//277 384//384
f 384//384 379//379 380//380
f 277//277 379//379 384//384
f 379//379 264//264 381//381
f 277//277 264//264 379//379
f 248//248 277//277 68//68
f 261//261 259//259 265//265
f 265//265 266//266 270//270
f 270//270 266//266 54//54
f 259//259 261//261 260//260
f 261//261 61//61 260//260
f 265//265 267//267 261//261
f 265//265 270//270 268//268
f 265//265 268//268 267//267
f 61//61 261//261 64//64
f 64//64 261//261 249//249
f 268//268 272//272 275//275
f 261//261 275//275 263//263
f 261//261 263//263 249//249
f 275//275 261//261 268//268
f 267//267 268//268 261//261
f 61//61 254//254 260//260
f 254//254 63//63 260//260
f 63//63 207//207 259//259
f 63//63 259//259 260//260
f 262//262 249//249 61//61
f 262//262 61//61 64//64
f 249//249 262//262 64//64
f 68//68 277//277 250//250
f 68//68 250//250 62//62
f 68//68 62//62 275//275
f 264//264 277//277 381//381
f 281//281 209//209 248//248
f 281//281 65//65 209//209
f 32//32 272//272 269//269
f 272//272 271//271 269//269
f 269//269 270//270 214//214
f 271//271 270//270 269//269
f 272//272 268//268 271//271
f 271//271 268//268 270//270
f 32//32 269//269 385//385
f 269//269 284//284 283//283
f 269//269 283//283 385//385
f 272//272 32//32 385//385
f 272//272 385//385 275//275
f 67//67 69//69 25//25
f 69//69 279//279 281//281
f 69//69 281//281 25//25
f 281//281 282//282 25//25
f 68//68 278//278 248//248
f 282//282 278//278 68//68
f 282//282 281//281 278//278
f 278//278 281//281 248//248
f 68//68 275//275 276//276
f 385//385 276//276 275//275
f 276//276 25//25 282//282
f 276//276 282//282 68//68
f 276//276 385//385 25//25
f 385//385 283//283 25//25
f 67//67 25//25 283//283
f 65//65 280//280 279//279
f 65//65 281//281 280//280
f 280//280 281//281 279//279
f 283//283 16//16 67//67
f 16//16 274//274 67//67
f 217//217 274//274 16//16
f 67//67 66//66 69//69
f 217//217 66//66 67//67
f 217//217 67//67 274//274
f 16//16 284//284 218//218
f 284//284 16//16 283//283
f 288//288 287//287 222//222
f 294//294 287//287 288//288
f 294//294 289//289 70//70
f 289//289 386//386 285//285
f 70//70 291//291 290//290
f 291//291 285//285 290//290
f 289//289 285//285 291//291
f 289//289 291//291 70//70
f 386//386 387//387 393//393
f 286//286 387//387 386//386
f 73//73 387//387 286//286
f 286//286 386//386 307//307
f 286//286 307//307 73//73
f 307//307 72//72 73//73
f 387//387 295//295 393//393
f 287//287 294//294 297//297
f 294//294 70//70 293//293
f 294//294 293//293 292//292
f 294//294 292//292 297//297
f 388//388 391//391 393//393
f 388//388 393//393 295//295
f 295//295 387//387 73//73
f 393//393 391//391 390//390
f 391//391 388//388 390//390
f 20//20 392//392 394//394
f 394//394 392//392 393//393
f 20//20 394//394 389//389
f 293//293 298//298 292//292
f 298//298 300//300 292//292
f 298//298 299//299 297//297
f 298//298 297//297 300//300
f 300//300 297//297 292//292
f 393//393 390//390 394//394
f 390//390 389//389 394//394
f 20//20 389//389 360//360
f 389//389 390//390 314//314
f 314//314 360//360 389//389
f 396//396 366//366 362//362
f 366//366 395//395 362//362
f 366//366 396//396 397//397
f 366//366 397//397 367//367
f 366//366 307//307 395//395
f 395//395 363//363 362//362
f 307//307 363//363 395//395
f 366//366 308//308 307//307
f 307//307 309//309 72//72
f 308//308 309//309 307//307
f 366//366 367//367 308//308
f 308//308 367//367 309//309
f 317//317 313//313 390//390
f 317//317 390//390 388//388
f 388//388 295//295 74//74
f 295//295 73//73 74//74
f 73//73 318//318 74//74
f 318//318 317//317 388//388
f 318//318 388//388 74//74
f 73//73 312//312 318//318
f 73//73 72//72 312//312
f 360//360 314//314 313//313
f 314//314 390//390 313//313
f 315//315 317//317 27//27
f 313//313 317//317 315//315
f 397//397 368//368 367//367
f 367//367 368//368 309//309
f 397//397 365//365 368//368
f 368//368 238//238 309//309
f 235//235 238//238 365//365
f 365//365 238//238 368//368
f 238//238 374//374 310//310
f 238//238 310//310 309//309
f 72//72 75//75 319//319
f 319//319 75//75 316//316
f 312//312 72//72 320//320
f 316//316 318//318 312//312
f 316//316 320//320 319//319
f 319//319 320//320 72//72
f 316//316 312//312 320//320
f 231//231 27//27 76//76
f 76//76 317//317 318//318
f 76//76 318//318 316//316
f 27//27 317//317 76//76
f 374//374 75//75 310//310
f 309//309 311//311 72//72
f 311//311 75//75 72//72
f 310//310 311//311 309//309
f 75//75 311//311 310//310
