# decimated by Tools/decimate_anatomy.py from 3328 triangles (BodyParts3D, CC BY 4.0)
v -0.03996432 0.00434008 0.12836537
v -0.04384832 0.00567422 0.12714642
v -0.04045516 0.00141108 0.13251085
v -0.04404255 -0.00084639 0.14020997
v -0.04523767 -0.00100720 0.14590912
v -0.04421858 -0.00123503 0.12517761
v -0.04474989 -0.00171628 0.12563517
v -0.04589877 -0.00137392 0.12568377
v -0.04250476 -0.00192455 0.12651780
v -0.04804289 0.00078451 0.12680110
v -0.04782615 0.00005687 0.12898664
v -0.04945574 -0.00048267 0.13561860
v -0.04973464 -0.00087474 0.13770968
v -0.04987254 -0.00183518 0.13916454
v -0.05048987 -0.00113875 0.14123738
v -0.05130741 -0.00393937 0.14564846
v -0.05117761 -0.00482231 0.14322438
v -0.05077808 -0.00190826 0.14533914
v -0.03996930 0.00453923 0.12976880
v -0.04081736 0.00535912 0.12832259
v -0.04270676 -0.00085128 0.12555908
v -0.03908247 -0.00000504 0.12948271
v -0.04364627 0.00490488 0.12630938
v -0.04410771 0.00518959 0.12626138
v -0.04710953 0.00243014 0.12583634
v -0.04517977 -0.00248094 0.14143724
v -0.04706586 -0.00175718 0.14651272
v -0.04664150 0.00019388 0.12540357
v -0.04565978 -0.00110883 0.14613923
v -0.05085084 -0.00453322 0.14505287
v -0.05168601 -0.00391559 0.14546397
v -0.05139864 -0.00253121 0.14512622
v -0.03980472 0.00170928 0.13150131
v -0.03926753 -0.00013944 0.12846469
v -0.04443372 -0.00114084 0.14247240
v -0.04566606 -0.00161191 0.12604454
v -0.04575114 -0.00181259 0.13696949
v -0.04629575 -0.00281976 0.14029971
v -0.04970938 -0.00380999 0.14200511
v -0.05001271 -0.00038552 0.14171711
v -0.04752094 -0.00014796 0.14437844
v -0.05048719 -0.00207091 0.14055756
v -0.05159823 -0.00243080 0.14352320
v -0.03996767 0.00472750 0.12940368
v -0.03992608 0.00448546 0.12840404
v -0.04290303 0.00531231 0.12651840
v -0.04053175 0.00470738 0.12796679
v -0.04479090 -0.00288673 0.14270537
v -0.04483722 -0.00386186 0.14646733
v -0.04524048 -0.00334614 0.14688148
v -0.04701267 0.00252119 0.12579961
v -0.04589218 0.00034055 0.12514532
v -0.04735696 -0.00036723 0.12620588
v -0.04704460 0.00159732 0.12567519
v -0.05168175 -0.00417563 0.14417076
v -0.04846751 -0.00392159 0.14621328
v -0.05161446 -0.00387452 0.14550363
v -0.04087964 0.00206603 0.12796721
v -0.03891214 -0.00023294 0.12970684
v -0.03862325 0.00080957 0.12988867
v -0.03893471 -0.00026364 0.12962829
v -0.03879153 0.00110942 0.13051195
v -0.03998565 0.00222387 0.13140005
v -0.04052202 0.00173966 0.13243329
v -0.04061674 -0.00035933 0.12690030
v -0.03961130 -0.00118091 0.12867436
v -0.04078920 -0.00161423 0.12873615
v -0.04388902 0.00557318 0.12691922
v -0.04328676 0.00545329 0.12673492
v -0.03957810 -0.00054613 0.13024357
v -0.03936147 0.00011285 0.13054986
v -0.04386982 0.00560410 0.12808526
v -0.04284966 0.00578053 0.12726539
v -0.04551692 0.00484735 0.12766254
v -0.04272274 0.00565234 0.12896859
v -0.04260757 -0.00002645 0.13457568
v -0.04360217 -0.00022772 0.13817747
v -0.04338140 -0.00046517 0.13613756
v -0.04362958 0.00078781 0.13887249
v -0.04475622 -0.00014132 0.14245248
v -0.04196296 -0.00184639 0.12649350
v -0.04290135 -0.00144253 0.12983168
v -0.04588117 -0.00150529 0.12582590
v -0.04166132 0.00386550 0.12766289
v -0.04619241 0.00225644 0.12592973
v -0.04479414 -0.00177763 0.12731307
v -0.04578097 -0.00153359 0.12697234
v -0.04547733 -0.00097195 0.13229499
v -0.04439719 -0.00412320 0.14445385
v -0.04643228 -0.00359565 0.14271471
v -0.04663053 0.00267683 0.13756811
v -0.04766151 0.00051794 0.12588929
v -0.04662172 -0.00050404 0.13083621
v -0.04781669 0.00168836 0.12738720
v -0.04720301 -0.00133236 0.13654258
v -0.04938573 -0.00199013 0.13889672
v -0.04960942 -0.00257956 0.14011165
v -0.04893336 -0.00334361 0.14137489
v -0.05015818 -0.00247539 0.14054446
v -0.04962809 -0.00284648 0.14071847
v -0.05039880 -0.00224955 0.14049649
v -0.05043957 -0.00200853 0.14043384
v -0.04780742 0.00207429 0.13753592
v -0.04993698 -0.00017914 0.13939416
v -0.04988050 -0.00109617 0.13840402
v -0.05023417 -0.00102917 0.14011834
v -0.04914600 0.00084903 0.13984836
v -0.04992971 -0.00009715 0.13954486
v -0.05018280 -0.00056699 0.14173001
v -0.05027203 -0.00069833 0.14183694
v -0.05089834 -0.00129350 0.14371993
v -0.04866601 0.00061813 0.14173342
v -0.05088740 -0.00156102 0.14439542
v -0.05014899 -0.00337376 0.14152249
v -0.05071065 -0.00272497 0.14114514
v -0.05066792 -0.00424976 0.14235404
v -0.05068353 -0.00324020 0.14151662
v -0.04603278 -0.00422032 0.14452446
v -0.05067838 -0.00466567 0.14275831
v -0.05085463 -0.00276768 0.14132968
v -0.05120530 -0.00395682 0.14221658
v -0.05104555 -0.00403243 0.14214697
v -0.05091159 -0.00465147 0.14276433
v -0.04701417 -0.00449288 0.14521083
v -0.05145860 -0.00464471 0.14284402
v -0.05130519 -0.00185562 0.14448437
v -0.03849263 0.00260969 0.12978876
v -0.03876212 0.00099103 0.12903722
v -0.03889291 0.00320930 0.12945431
v -0.03989229 0.00453316 0.12885528
v -0.04061306 0.00467706 0.12796204
v -0.03887687 -0.00022540 0.12973246
v -0.03901182 0.00059870 0.13044277
v -0.03855179 0.00270419 0.12981583
v -0.04550494 0.00155641 0.14055541
v -0.04296185 0.00464037 0.13064577
v -0.04227703 0.00580147 0.12800592
v -0.04209093 0.00555390 0.12903047
v -0.04057765 0.00052258 0.13209071
v -0.04034822 -0.00126887 0.12701131
v -0.04378108 0.00481974 0.12626563
v -0.04283864 0.00518451 0.12656117
v -0.04395452 0.00489141 0.12625644
v -0.04472482 0.00525484 0.12738151
v -0.04436197 -0.00022975 0.14191347
v -0.04363289 0.00058882 0.13905205
v -0.04045495 -0.00130536 0.12694876
v -0.04322644 -0.00080020 0.12535717
v -0.04348459 -0.00093094 0.12530698
v -0.04470866 -0.00115885 0.13762754
v -0.04392561 -0.00354525 0.14468366
v -0.04487377 -0.00190019 0.14175695
v -0.04067812 0.00515036 0.12885331
v -0.04481803 -0.00374931 0.14668327
v -0.04454871 -0.00164790 0.14476394
v -0.04555638 -0.00421696 0.14575184
v -0.04393443 -0.00338978 0.14468428
v -0.04630410 -0.00213083 0.14662752
v -0.04603785 -0.00373805 0.14674705
v -0.04716062 -0.00060698 0.14529437
v -0.04627424 -0.00153930 0.14638357
v -0.04599805 -0.00198482 0.14650166
v -0.04526299 -0.00139657 0.14610404
v -0.04550669 -0.00220509 0.14648207
v -0.04572181 0.00020471 0.12508990
v -0.04236919 -0.00081911 0.12563300
v -0.04524653 -0.00068745 0.12485564
v -0.04524472 -0.00072873 0.12486343
v -0.04763260 0.00203511 0.12702829
v -0.04714268 0.00263425 0.12640220
v -0.04846030 -0.00089158 0.14517810
v -0.04764237 -0.00221763 0.14640587
v -0.04792188 0.00055104 0.12673325
v -0.04628469 0.00042939 0.12529542
v -0.04750850 0.00103756 0.12579310
v -0.04685426 0.00130500 0.12558009
v -0.04700592 0.00077537 0.12558761
v -0.04800146 0.00086983 0.12666044
v -0.04906398 0.00040786 0.13309852
v -0.04786349 0.00006319 0.12888280
v -0.04823949 0.00095134 0.12860584
v -0.04950508 -0.00042829 0.13543622
v -0.04915020 0.00019380 0.13361705
v -0.04843667 0.00067989 0.12984902
v -0.04869342 0.00052312 0.13116559
v -0.04850967 0.00054868 0.13034087
v -0.04918851 0.00031973 0.13363738
v -0.04973555 -0.00077224 0.13747132
v -0.04932625 -0.00185845 0.13862327
v -0.04951076 -0.00082977 0.13643602
v -0.04934178 -0.00000498 0.13450774
v -0.05007921 -0.00150209 0.13934260
v -0.05039386 -0.00237999 0.14057180
v -0.05077440 -0.00197564 0.14542297
v -0.05082456 -0.00264200 0.14125323
v -0.05051945 -0.00177189 0.14080039
v -0.05144112 -0.00246424 0.14251449
v -0.05158671 -0.00373775 0.14246768
v -0.05106508 -0.00263797 0.14174656
v -0.05116335 -0.00411166 0.14225876
v -0.05144196 -0.00448953 0.14267415
v -0.05155673 -0.00383562 0.14244842
v -0.05153728 -0.00462290 0.14288694
v -0.05157201 -0.00401297 0.14254287
v -0.05128023 -0.00480859 0.14316212
v -0.05141806 -0.00471838 0.14312793
v -0.05167558 -0.00272153 0.14322562
v -0.05173684 -0.00299157 0.14413748
v -0.05159520 -0.00384737 0.14252284
v -0.04702517 -0.00407500 0.14623028
v -0.05131018 -0.00332744 0.14553343
v -0.05136536 -0.00332052 0.14549297
v -0.05165379 -0.00458359 0.14323112
v -0.05169774 -0.00425072 0.14427964
v -0.05103848 -0.00471871 0.14457226
v -0.05164356 -0.00458509 0.14325655
v -0.05114101 -0.00450709 0.14501432
v -0.05122234 -0.00445547 0.14497325
v -0.05089416 -0.00202742 0.14533211
vn 0.558088 0.012373 -0.829689
vn -0.450556 0.797380 -0.401479
vn 0.889599 -0.159362 0.428040
vn 0.813632 -0.564010 -0.141054
vn 0.846440 0.472966 0.244628
vn 0.161160 -0.663828 -0.730315
vn -0.037050 -0.850008 -0.525466
vn -0.523734 -0.447914 -0.724621
vn -0.032131 -0.997184 0.067758
vn -0.894607 -0.438043 -0.088304
vn -0.440073 -0.880128 -0.178076
vn -0.236260 -0.950626 -0.201227
vn -0.984141 0.106265 -0.142034
vn -0.460457 -0.747961 -0.478051
vn -0.892965 0.418911 -0.164705
vn -0.224320 0.044255 0.973510
vn 0.045692 -0.997906 0.045778
vn -0.430321 0.611192 0.664280
vn 0.734543 0.449107 0.508674
vn 0.444307 0.680265 -0.582950
vn 0.231975 -0.341619 -0.910760
vn 0.804963 -0.586886 -0.087174
vn 0.188222 0.113380 -0.975560
vn 0.101664 0.068665 -0.992446
vn -0.645698 0.637550 -0.420242
vn 0.454023 -0.823104 -0.341120
vn -0.241440 0.077838 0.967289
vn -0.339326 0.083869 -0.936923
vn 0.142939 0.901417 0.408675
vn -0.014118 -0.953554 0.300891
vn -0.632268 -0.742889 0.219892
vn -0.620312 0.308846 0.720990
vn 0.749052 0.358754 0.556972
vn 0.737957 0.151078 -0.657719
vn 0.974224 0.149989 0.168496
vn -0.120393 -0.992628 -0.013981
vn 0.260454 -0.954528 -0.145050
vn 0.060561 -0.934273 -0.351378
vn 0.136908 -0.795538 -0.590234
vn -0.608433 0.778261 0.155302
vn -0.153172 0.905036 0.396797
vn -0.914372 0.039655 -0.402928
vn -0.852418 0.513257 -0.099757
vn 0.810123 0.578717 -0.093744
vn 0.812076 0.570840 -0.121138
vn 0.434051 0.748784 -0.500920
vn 0.430904 -0.311328 -0.846993
vn 0.830287 -0.348437 -0.434989
vn 0.149131 -0.931141 0.332771
vn 0.199849 0.364926 0.909335
vn 0.226227 0.289290 -0.930125
vn -0.339294 0.083885 -0.936933
vn -0.715642 -0.696847 -0.047544
vn -0.339324 0.083872 -0.936923
vn -0.940999 0.003682 0.338389
vn -0.086135 -0.735292 0.672255
vn -0.547232 0.251892 0.798177
vn 0.439707 0.218017 -0.871279
vn 0.915622 -0.386077 -0.112163
vn 0.971842 -0.141938 -0.188088
vn 0.920205 -0.288871 -0.264153
vn 0.857553 -0.046335 0.512304
vn 0.788966 0.306900 0.532302
vn 0.838328 0.024908 0.544596
vn 0.604092 0.307052 -0.735385
vn 0.888426 -0.362589 -0.281476
vn 0.320656 -0.936528 0.141756
vn -0.011333 0.870716 -0.491656
vn 0.008038 0.847023 -0.531496
vn 0.315870 -0.822691 0.472659
vn 0.663004 -0.434077 0.609921
vn -0.316175 0.943972 0.094610
vn 0.114002 0.954307 -0.276228
vn -0.621010 0.782646 0.042579
vn -0.174686 0.953105 0.247135
vn 0.535466 -0.827472 0.169016
vn 0.821400 -0.563029 0.091107
vn 0.502808 -0.850842 0.152486
vn 0.741216 0.488432 0.460470
vn 0.620168 0.686070 0.380394
vn 0.322833 -0.779598 -0.536661
vn 0.135896 -0.962491 0.234828
vn -0.498027 -0.861321 -0.100473
vn 0.463532 -0.047879 -0.884786
vn 0.339663 0.188429 -0.921479
vn -0.099446 -0.986307 0.131562
vn -0.315047 -0.943556 0.102218
vn -0.092160 -0.995417 -0.025512
vn 0.122807 -0.964593 -0.233405
vn 0.274393 -0.889420 -0.365570
vn -0.041125 0.946020 0.321488
vn -0.525946 -0.403499 -0.748712
vn -0.357570 -0.933190 -0.036064
vn -0.936256 0.324894 -0.133677
vn -0.202451 -0.936313 -0.286936
vn -0.123052 -0.913612 -0.387520
vn -0.192905 -0.872536 -0.448852
vn 0.070716 -0.917571 -0.391232
vn -0.374849 -0.775193 -0.508491
vn -0.138822 -0.834142 -0.533793
vn -0.830216 -0.280975 -0.481450
vn -0.946329 0.028828 -0.321918
vn -0.502455 0.854654 0.130786
vn -0.982591 0.114310 -0.146455
vn -0.985518 0.077977 -0.150578
vn -0.960941 0.138138 -0.239815
vn -0.647654 0.756902 0.087428
vn -0.801162 0.597245 -0.037933
vn -0.774629 0.631376 0.036253
vn -0.859626 0.508078 -0.053850
vn -0.514717 0.816571 0.261299
vn -0.375227 0.873901 0.309033
vn -0.363840 0.832237 0.418332
vn -0.091716 -0.768253 -0.633543
vn -0.403149 -0.625322 -0.668164
vn -0.038466 -0.678854 -0.733265
vn -0.203296 -0.591536 -0.780228
vn 0.177340 -0.918525 -0.353359
vn 0.187172 -0.915146 -0.357036
vn -0.554797 -0.403937 -0.727348
vn -0.542584 -0.388609 -0.744705
vn 0.006709 -0.685670 -0.727882
vn -0.037363 -0.745969 -0.664932
vn 0.072304 -0.992693 0.096603
vn -0.096698 -0.797019 -0.596164
vn -0.727847 0.624984 0.282196
vn 0.849530 0.099133 -0.518142
vn 0.648065 0.025743 -0.761150
vn 0.815829 0.568901 -0.103806
vn 0.813341 0.572283 -0.104728
vn 0.497360 0.634707 -0.591422
vn 0.867473 -0.447411 0.217518
vn 0.686192 -0.391467 0.613102
vn 0.788744 0.261251 0.556445
vn 0.697299 0.586106 0.412619
vn 0.238551 0.874820 0.421644
vn 0.186358 0.978804 0.084929
vn 0.230580 0.818253 0.526588
vn 0.524937 -0.726127 0.444050
vn 0.646255 0.023724 -0.762752
vn 0.374130 -0.156658 -0.914049
vn 0.411194 -0.397920 -0.820109
vn 0.097428 0.074646 -0.992439
vn -0.501011 0.788844 -0.355966
vn 0.782378 0.522569 0.338830
vn 0.873788 -0.413432 0.256065
vn 0.566655 -0.778184 -0.270798
vn 0.391835 -0.413370 -0.821943
vn 0.350036 -0.462223 -0.814755
vn 0.635720 -0.755304 -0.159298
vn 0.318844 -0.778373 -0.540808
vn 0.644445 -0.700147 -0.307384
vn 0.164568 0.913989 0.370867
vn 0.069470 -0.738648 0.670502
vn 0.866146 0.443069 0.231259
vn 0.184883 -0.968617 0.166129
vn 0.912338 0.354148 0.205471
vn 0.199846 0.364922 0.909337
vn -0.202590 0.005947 0.979246
vn -0.180041 0.706608 0.684318
vn 0.199854 0.364922 0.909335
vn 0.199850 0.364924 0.909335
vn 0.199852 0.364925 0.909334
vn 0.199853 0.364925 0.909334
vn 0.264329 0.400078 -0.877535
vn 0.351338 0.421389 -0.836058
vn -0.109599 -0.589686 -0.800162
vn -0.432731 -0.501373 -0.749246
vn -0.864664 0.487830 -0.119911
vn -0.803387 0.592985 -0.054202
vn -0.335761 0.846621 0.412914
vn -0.239899 0.084464 0.967116
vn -0.889225 -0.450513 -0.079474
vn -0.339329 0.083870 -0.936921
vn -0.339319 0.083876 -0.936925
vn -0.339325 0.083880 -0.936922
vn -0.339336 0.083870 -0.936919
vn -0.927550 0.337195 -0.161091
vn -0.957419 0.247941 -0.147897
vn -0.678869 -0.734176 0.011101
vn -0.912789 -0.385344 -0.135376
vn -0.917684 -0.324060 -0.229872
vn -0.976895 -0.068511 -0.202440
vn -0.876697 -0.420262 -0.234057
vn -0.961617 -0.184751 -0.202878
vn -0.892831 -0.382048 -0.238521
vn -0.866468 0.493825 -0.073287
vn -0.941964 -0.247032 -0.227332
vn -0.300111 -0.870269 -0.390595
vn -0.867591 -0.470063 -0.162254
vn -0.989482 0.075905 -0.123140
vn -0.969823 0.084040 -0.228866
vn -0.728145 -0.527921 -0.437155
vn -0.294684 0.180076 0.938474
vn -0.904354 0.126425 -0.407627
vn -0.937859 0.178347 -0.297678
vn -0.905513 0.293945 -0.306009
vn -0.913376 0.167979 -0.370847
vn -0.904500 0.157727 -0.396235
vn -0.534897 -0.370306 -0.759446
vn -0.595993 -0.354218 -0.720640
vn -0.597051 -0.357204 -0.718287
vn -0.524752 -0.847827 -0.076312
vn -0.984405 -0.149150 -0.093282
vn -0.497286 -0.859258 0.119924
vn -0.523502 -0.849646 -0.063615
vn -0.973599 0.151630 -0.170626
vn -0.994481 0.060117 0.085991
vn -0.996405 -0.045718 -0.071329
vn -0.014942 -0.878452 0.477598
vn -0.298521 0.189675 0.935365
vn -0.610375 0.305870 0.730674
vn -0.536440 -0.843704 -0.019883
vn -0.632414 -0.744590 0.213628
vn -0.562384 -0.807540 0.177771
vn -0.585459 -0.789371 0.184748
vn -0.604504 -0.758312 0.244003
vn -0.627926 -0.748186 0.214305
vn -0.613224 0.311852 0.725744
f 34//34 61//61 66//66
f 61//61 59//59 66//66
f 128//128 34//34 58//58
f 44//44 130//130 45//45
f 70//70 22//22 132//132
f 128//128 1//1 127//127
f 134//134 62//62 22//22
f 63//63 62//62 134//134
f 33//33 62//62 63//63
f 127//127 60//60 128//128
f 60//60 61//61 128//128
f 60//60 59//59 61//61
f 128//128 61//61 34//34
f 64//64 62//62 33//33
f 22//22 62//62 132//132
f 3//3 139//139 64//64
f 139//139 62//62 64//64
f 132//132 62//62 133//133
f 133//133 70//70 132//132
f 70//70 133//133 71//71
f 133//133 62//62 139//139
f 133//133 139//139 71//71
f 45//45 130//130 129//129
f 130//130 44//44 129//129
f 134//134 19//19 63//63
f 138//138 153//153 75//75
f 75//75 153//153 137//137
f 63//63 64//64 33//33
f 70//70 67//67 22//22
f 166//166 140//140 21//21
f 65//65 140//140 166//166
f 147//147 22//22 67//67
f 147//147 67//67 81//81
f 9//9 81//81 67//67
f 34//34 140//140 65//65
f 58//58 34//34 65//65
f 65//65 166//166 58//58
f 1//1 128//128 84//84
f 128//128 58//58 84//84
f 73//73 131//131 46//46
f 20//20 131//131 73//73
f 142//142 47//47 141//141
f 47//47 1//1 84//84
f 47//47 84//84 141//141
f 58//58 141//141 84//84
f 23//23 142//142 141//141
f 58//58 85//85 141//141
f 73//73 137//137 20//20
f 73//73 46//46 69//69
f 73//73 75//75 137//137
f 73//73 72//72 75//75
f 46//46 68//68 69//69
f 73//73 68//68 2//2
f 69//69 68//68 73//73
f 23//23 143//143 24//24
f 144//144 73//73 2//2
f 74//74 73//73 144//144
f 51//51 141//141 85//85
f 51//51 24//24 143//143
f 141//141 143//143 23//23
f 51//51 143//143 141//141
f 2//2 25//25 144//144
f 67//67 70//70 82//82
f 71//71 139//139 70//70
f 82//82 70//70 139//139
f 75//75 72//72 74//74
f 72//72 73//73 74//74
f 3//3 78//78 139//139
f 78//78 76//76 139//139
f 76//76 82//82 139//139
f 136//136 153//153 138//138
f 136//136 138//138 75//75
f 79//79 63//63 19//19
f 3//3 64//64 79//79
f 64//64 63//63 79//79
f 150//150 77//77 4//4
f 78//78 3//3 146//146
f 78//78 146//146 77//77
f 19//19 135//135 79//79
f 58//58 166//166 85//85
f 147//147 81//81 148//148
f 6//6 148//148 149//149
f 148//148 81//81 149//149
f 149//149 81//81 6//6
f 6//6 81//81 7//7
f 9//9 7//7 81//81
f 21//21 165//165 166//166
f 9//9 67//67 82//82
f 9//9 82//82 86//86
f 74//74 144//144 25//25
f 170//170 74//74 25//25
f 78//78 82//82 76//76
f 82//82 78//78 88//88
f 74//74 91//91 75//75
f 150//150 37//37 77//77
f 77//77 37//37 78//78
f 78//78 37//37 88//88
f 91//91 136//136 75//75
f 29//29 153//153 91//91
f 153//153 136//136 91//91
f 107//107 112//112 91//91
f 77//77 146//146 35//35
f 77//77 35//35 4//4
f 152//152 150//150 4//4
f 35//35 146//146 145//145
f 3//3 79//79 145//145
f 79//79 80//80 145//145
f 79//79 135//135 80//80
f 29//29 91//91 41//41
f 41//41 91//91 112//112
f 152//152 4//4 151//151
f 48//48 26//26 152//152
f 48//48 152//152 151//151
f 89//89 154//154 49//49
f 89//89 49//49 156//156
f 4//4 35//35 157//157
f 35//35 155//155 157//157
f 35//35 145//145 155//155
f 155//155 135//135 5//5
f 80//80 135//135 155//155
f 41//41 160//160 29//29
f 157//157 155//155 5//5
f 155//155 145//145 80//80
f 50//50 163//163 164//164
f 163//163 161//161 164//164
f 50//50 162//162 158//158
f 162//162 161//161 158//158
f 164//164 161//161 162//162
f 164//164 162//162 50//50
f 7//7 167//167 6//6
f 168//168 167//167 7//7
f 168//168 7//7 83//83
f 83//83 7//7 9//9
f 36//36 9//9 87//87
f 83//83 9//9 36//36
f 83//83 8//8 168//168
f 168//168 8//8 92//92
f 168//168 92//92 167//167
f 82//82 88//88 87//87
f 87//87 86//86 82//82
f 86//86 87//87 9//9
f 87//87 83//83 36//36
f 8//8 83//83 53//53
f 53//53 83//83 180//180
f 83//83 87//87 180//180
f 85//85 166//166 51//51
f 51//51 166//166 165//165
f 187//187 94//94 179//179
f 169//169 94//94 187//187
f 93//93 11//11 180//180
f 93//93 180//180 87//87
f 93//93 87//87 88//88
f 12//12 11//11 93//93
f 12//12 93//93 88//88
f 170//170 169//169 187//187
f 152//152 26//26 150//150
f 150//150 38//38 37//37
f 95//95 12//12 88//88
f 37//37 95//95 88//88
f 74//74 103//103 91//91
f 107//107 103//103 74//74
f 103//103 107//107 91//91
f 108//108 170//170 187//187
f 74//74 170//170 108//108
f 108//108 107//107 74//74
f 90//90 150//150 26//26
f 38//38 150//150 90//90
f 26//26 118//118 90//90
f 26//26 89//89 118//118
f 41//41 112//112 111//111
f 53//53 173//173 10//10
f 53//53 180//180 173//173
f 28//28 174//174 52//52
f 177//177 175//175 54//54
f 28//28 175//175 177//177
f 52//52 176//176 54//54
f 28//28 177//177 174//174
f 177//177 54//54 176//176
f 174//174 176//176 52//52
f 177//177 176//176 174//174
f 25//25 178//178 169//169
f 170//170 25//25 169//169
f 94//94 169//169 178//178
f 94//94 178//178 179//179
f 173//173 181//181 10//10
f 180//180 181//181 173//173
f 11//11 186//186 180//180
f 11//11 182//182 186//186
f 180//180 184//184 181//181
f 186//186 184//184 180//180
f 179//179 181//181 185//185
f 181//181 184//184 185//185
f 183//183 186//186 182//182
f 179//179 185//185 183//183
f 185//185 184//184 186//186
f 185//185 186//186 183//183
f 182//182 191//191 183//183
f 183//183 191//191 179//179
f 189//189 12//12 95//95
f 182//182 188//188 191//191
f 188//188 104//104 191//191
f 191//191 187//187 179//179
f 104//104 108//108 187//187
f 104//104 187//187 191//191
f 97//97 96//96 38//38
f 96//96 189//189 95//95
f 38//38 95//95 37//37
f 96//96 95//95 38//38
f 188//188 182//182 190//190
f 188//188 190//190 189//189
f 189//189 96//96 188//188
f 96//96 97//97 188//188
f 188//188 14//14 13//13
f 97//97 14//14 188//188
f 192//192 105//105 13//13
f 105//105 104//104 188//188
f 105//105 188//188 13//13
f 192//192 104//104 105//105
f 192//192 13//13 193//193
f 192//192 193//193 101//101
f 192//192 101//101 102//102
f 97//97 38//38 100//100
f 90//90 98//98 38//38
f 39//39 98//98 90//90
f 98//98 114//114 38//38
f 114//114 98//98 39//39
f 38//38 114//114 100//100
f 14//14 97//97 193//193
f 97//97 99//99 193//193
f 97//97 100//100 99//99
f 100//100 114//114 115//115
f 99//99 115//115 193//193
f 100//100 115//115 99//99
f 109//109 107//107 108//108
f 40//40 107//107 109//109
f 108//108 110//110 109//109
f 15//15 110//110 108//108
f 192//192 106//106 104//104
f 104//104 15//15 108//108
f 106//106 15//15 104//104
f 192//192 102//102 106//106
f 102//102 196//196 106//106
f 102//102 42//42 196//196
f 106//106 196//196 15//15
f 193//193 115//115 101//101
f 115//115 120//120 42//42
f 117//117 120//120 115//115
f 101//101 115//115 102//102
f 115//115 42//42 102//102
f 15//15 196//196 199//199
f 196//196 42//42 195//195
f 196//196 195//195 199//199
f 107//107 40//40 112//112
f 112//112 40//40 111//111
f 40//40 109//109 111//111
f 109//109 110//110 111//111
f 111//111 110//110 15//15
f 41//41 171//171 160//160
f 160//160 18//18 29//29
f 171//171 18//18 160//160
f 172//172 16//16 159//159
f 172//172 159//159 27//27
f 111//111 113//113 41//41
f 126//126 18//18 171//171
f 126//126 171//171 41//41
f 113//113 126//126 41//41
f 126//126 113//113 111//111
f 114//114 117//117 115//115
f 39//39 116//116 114//114
f 116//116 117//117 114//114
f 90//90 118//118 119//119
f 119//119 39//39 90//90
f 39//39 119//119 116//116
f 117//117 123//123 122//122
f 116//116 123//123 117//117
f 120//120 121//121 202//202
f 117//117 121//121 120//120
f 15//15 199//199 197//197
f 199//199 195//195 198//198
f 199//199 198//198 207//207
f 116//116 119//119 123//123
f 122//122 123//123 125//125
f 201//201 121//121 200//200
f 202//202 121//121 201//201
f 200//200 117//117 122//122
f 121//121 117//117 200//200
f 124//124 89//89 156//156
f 124//124 156//156 49//49
f 210//210 49//49 154//154
f 124//124 49//49 210//210
f 215//215 216//216 205//205
f 119//119 17//17 123//123
f 123//123 17//17 125//125
f 17//17 119//119 124//124
f 124//124 118//118 89//89
f 119//119 118//118 124//124
f 207//207 208//208 126//126
f 207//207 209//209 208//208
f 208//208 209//209 55//55
f 216//216 206//206 205//205
f 216//216 213//213 206//206
f 206//206 213//213 203//203
f 206//206 203//203 205//205
f 55//55 209//209 204//204
f 204//204 209//209 198//198
f 126//126 43//43 207//207
f 126//126 111//111 15//15
f 126//126 15//15 43//43
f 197//197 43//43 15//15
f 198//198 209//209 207//207
f 197//197 207//207 43//43
f 207//207 197//197 199//199
f 30//30 210//210 56//56
f 30//30 17//17 124//124
f 30//30 124//124 210//210
f 56//56 210//210 154//154
f 18//18 126//126 55//55
f 126//126 208//208 55//55
f 211//211 16//16 172//172
f 194//194 172//172 27//27
f 211//211 172//172 194//194
f 32//32 57//57 212//212
f 32//32 212//212 219//219
f 219//219 211//211 194//194
f 212//212 211//211 219//219
f 31//31 218//218 217//217
f 217//217 218//218 215//215
f 211//211 57//57 16//16
f 212//212 57//57 211//211
f 213//213 216//216 214//214
f 216//216 215//215 218//218
f 214//214 218//218 31//31
f 216//216 218//218 214//214
