# decimated by Tools/decimate_anatomy.py from 5024 triangles (BodyParts3D, CC BY 4.0)
v -0.02982356 0.00900423 0.09638501
v -0.03038252 0.00223819 0.09974435
v -0.03602125 0.00763754 0.11297349
v -0.03904992 0.00912106 0.10797981
v -0.03343338 0.00120688 0.09565350
v -0.03824753 0.00936728 0.09624997
v -0.03777325 0.00314986 0.12019797
v -0.03921697 0.00294739 0.12759887
v -0.03905385 0.00033547 0.12652612
v -0.04063324 0.00389051 0.09384034
v -0.04088319 0.00660368 0.09564616
v -0.04123415 0.00514725 0.10178555
v -0.04277727 0.00090895 0.12588988
v -0.04414764 0.00433657 0.11703597
v -0.04497059 0.00146251 0.12066757
v -0.04607977 0.00083179 0.12416269
v -0.02844735 0.00400202 0.09869557
v -0.03249833 0.00451726 0.10566079
v -0.03211969 0.00756282 0.10469613
v -0.03905690 0.00028659 0.12557671
v -0.04405156 0.00276908 0.11913754
v -0.04585025 0.00098184 0.12490382
v -0.04594097 0.00038930 0.12415350
v -0.02882396 0.00533856 0.10015329
v -0.03017891 0.00185948 0.09786848
v -0.03523908 0.00090519 0.09397160
v -0.03529285 0.00060869 0.09553963
v -0.03647825 0.00441095 0.11535288
v -0.03928856 0.00441371 0.12693812
v -0.03966280 0.00371289 0.12773073
v -0.03833992 0.00701955 0.09320360
v -0.03704453 0.00070680 0.09406612
v -0.03924430 0.00350254 0.10445429
v -0.04100929 0.00458928 0.10239924
v -0.04144515 0.00520330 0.10406549
v -0.03990917 0.00381946 0.10416867
v -0.03990973 0.00376253 0.10951623
v -0.04304763 0.00650852 0.11577437
v -0.04381882 0.00588306 0.11865900
v -0.04406622 0.00562178 0.12514347
v -0.04270667 0.00075731 0.12536624
v -0.04223951 0.00476332 0.12617171
v -0.04223564 0.00445181 0.12642908
v -0.04354209 0.00243718 0.12669189
v -0.04467766 0.00534362 0.12039721
v -0.04543869 0.00243671 0.12120074
v -0.04531059 0.00484128 0.12470372
v -0.04572772 0.00331418 0.12525137
v -0.04608509 0.00071123 0.12421015
v -0.02866507 0.00537293 0.09632669
v -0.03242280 0.00981124 0.09674082
v -0.04217699 0.00550092 0.10745845
v -0.04359578 0.00330195 0.11743039
v -0.04149593 0.00282123 0.11988067
v -0.02943311 0.00342538 0.09560341
v -0.02840549 0.00419591 0.09779356
v -0.02899945 0.00814673 0.09816159
v -0.02928951 0.00654781 0.09587048
v -0.02996215 0.00281385 0.09547722
v -0.03021034 0.00883369 0.09619739
v -0.02928390 0.00247666 0.09674430
v -0.03168650 0.00147049 0.09526199
v -0.02943009 0.00258052 0.09645175
v -0.02989433 0.00927210 0.09820264
v -0.03063801 0.00177909 0.09864530
v -0.03100602 0.00282468 0.10061794
v -0.03148908 0.00252238 0.10010772
v -0.03206177 0.00448108 0.10488336
v -0.02974488 0.00542986 0.10182172
v -0.03700150 0.00568510 0.11919538
v -0.02961995 0.00878118 0.09925418
v -0.03495239 0.00987066 0.09609058
v -0.03168309 0.00149269 0.09727730
v -0.03220332 0.00158529 0.09786539
v -0.03459667 0.00961309 0.10166310
v -0.03615262 0.00998798 0.09640095
v -0.03401174 0.00424565 0.10666252
v -0.03760624 0.00981817 0.09806789
v -0.03561792 0.00551754 0.11422333
v -0.03487074 0.00562260 0.11258110
v -0.03889312 0.00781667 0.11658210
v -0.03699877 0.00581985 0.11907395
v -0.03816736 0.00579281 0.12207386
v -0.03778992 0.00397076 0.12391704
v -0.03062582 0.00291346 0.09513971
v -0.03431408 0.00125288 0.09393437
v -0.03415244 0.00098146 0.09427924
v -0.03250269 0.00899042 0.09594791
v -0.03388481 0.00423314 0.09447689
v -0.03540157 0.00772148 0.09451302
v -0.03903759 0.00568824 0.09274892
v -0.03509716 0.00171946 0.09365289
v -0.03452524 0.00134805 0.09383559
v -0.03569683 0.00127649 0.09365774
v -0.03605682 0.00045320 0.09477248
v -0.03733176 0.00833835 0.09427516
v -0.03805122 0.00793352 0.09394750
v -0.03973497 0.00853591 0.10107937
v -0.03808836 0.00957754 0.09846673
v -0.03975250 0.00812148 0.09580056
v -0.03483579 0.00236760 0.10016782
v -0.03563610 0.00242053 0.10046708
v -0.04021639 0.00820706 0.10400115
v -0.03760798 0.00362951 0.12002241
v -0.03810698 0.00121907 0.12512259
v -0.03768849 0.00211210 0.12403864
v -0.03770742 0.00177581 0.12452160
v -0.03872110 0.00132136 0.12690011
v -0.03900042 0.00055778 0.12670319
v -0.03906295 0.00123106 0.12726687
v -0.03916780 0.00274842 0.12759526
v -0.03913548 0.00375818 0.12719542
v -0.03956495 0.00482864 0.12693378
v -0.03960466 0.00479894 0.12704700
v -0.03933158 0.00714396 0.11940684
v -0.04146646 0.00570029 0.12531535
v -0.04047221 0.00502630 0.12700664
v -0.04000747 0.00453514 0.12751526
v -0.04028710 0.00535911 0.12641737
v -0.03995527 0.00348975 0.12787200
v -0.03985021 0.00391315 0.12770759
v -0.04035596 0.00441094 0.12753107
v -0.04072960 0.00495965 0.12688338
v -0.04062022 0.00409223 0.12753940
v -0.03695643 0.00280786 0.09324388
v -0.03884618 0.00670196 0.09302990
v -0.03599771 0.00076792 0.09411722
v -0.03719087 0.00045685 0.09462476
v -0.03619993 0.00053400 0.09566913
v -0.03731581 0.00051685 0.09531853
v -0.03788717 0.00061583 0.09468713
v -0.03765529 0.00061809 0.09523733
v -0.03671987 0.00133951 0.09359057
v -0.03853594 0.00270457 0.09293632
v -0.03873608 0.00435868 0.09268725
v -0.03815159 0.00196868 0.09313453
v -0.03831217 0.00136261 0.09356647
v -0.03928896 0.00169084 0.09422984
v -0.04021384 0.00218225 0.09451097
v -0.03933128 0.00581076 0.09292557
v -0.04053665 0.00651801 0.09466597
v -0.04105606 0.00417197 0.09445531
v -0.03981845 0.00305152 0.09327994
v -0.04094392 0.00392906 0.09429169
v -0.04116504 0.00412896 0.09467430
v -0.04133304 0.00393429 0.09505497
v -0.04107444 0.00558220 0.09510476
v -0.03989653 0.00206608 0.09639941
v -0.04025273 0.00216865 0.09611477
v -0.03901452 0.00137608 0.09549459
v -0.04033668 0.00227471 0.09458660
v -0.04115644 0.00545288 0.09531323
v -0.04130982 0.00470463 0.09690439
v -0.04123005 0.00344242 0.09555666
v -0.04128394 0.00376707 0.09539383
v -0.04132184 0.00393244 0.09572200
v -0.04133392 0.00410301 0.09658086
v -0.04122752 0.00501228 0.10153832
v -0.04086809 0.00706063 0.10242018
v -0.04094341 0.00689833 0.10255851
v -0.04119651 0.00529039 0.10029859
v -0.04123590 0.00513995 0.10169921
v -0.03895709 0.00375696 0.10566909
v -0.04065398 0.00424328 0.10204634
v -0.04137955 0.00493044 0.10463066
v -0.03457069 0.00402872 0.10650123
v -0.04003912 0.00376444 0.10832977
v -0.03885020 0.00376611 0.11087783
v -0.04101254 0.00685354 0.10291916
v -0.04292557 0.00564900 0.11123480
v -0.04099115 0.00753813 0.10605655
v -0.04199678 0.00693082 0.11012081
v -0.04240957 0.00697318 0.11882484
v -0.04173707 0.00745377 0.11395103
v -0.04344359 0.00541862 0.11393609
v -0.04315638 0.00654874 0.11982350
v -0.04411636 0.00591793 0.12012823
v -0.04175572 0.00045302 0.12495562
v -0.04265903 0.00575506 0.12491452
v -0.04140223 0.00627075 0.12323872
v -0.04296606 0.00651733 0.12104359
v -0.04446159 0.00559682 0.12465962
v -0.04397326 0.00604375 0.12160335
v -0.04275548 0.00043450 0.12427120
v -0.04277038 0.00156725 0.12659759
v -0.04299788 0.00526450 0.12563427
v -0.04252776 0.00408201 0.12663193
v -0.04287937 0.00543015 0.12546060
v -0.04222808 0.00375692 0.12692306
v -0.04389835 0.00429546 0.12624289
v -0.04317555 0.00428512 0.12638588
v -0.04160727 0.00269856 0.12738745
v -0.04505063 0.00501056 0.12160016
v -0.04527239 0.00478293 0.12223155
v -0.04272211 0.00049761 0.12380926
v -0.04352114 0.00038400 0.12269982
v -0.04483692 0.00021034 0.12460291
v -0.04529287 0.00033891 0.12245504
v -0.04372109 0.00027671 0.12346438
v -0.04496600 0.00000002 0.12367234
v -0.04580259 0.00028030 0.12385655
v -0.04561470 0.00015466 0.12397446
v -0.04549964 0.00317818 0.12239616
v -0.04549293 0.00232261 0.12143548
v -0.04599094 0.00054490 0.12385642
v -0.04595383 0.00037627 0.12386288
v -0.04451999 0.00516157 0.12553199
v -0.04466304 0.00508545 0.12554620
v -0.04541637 0.00440083 0.12395271
v -0.04489203 0.00343019 0.12624605
v -0.04408029 0.00276380 0.12652228
v -0.04530738 0.00444917 0.12527643
v -0.04439632 0.00160784 0.12621367
v -0.04492507 0.00164275 0.12611267
v -0.04577247 0.00246513 0.12556976
v -0.04584983 0.00180815 0.12527054
v -0.02921146 0.00792234 0.09649402
v -0.02925679 0.00702876 0.09595112
v -0.02966953 0.00433549 0.10103389
v -0.02950273 0.00338469 0.09561319
v -0.03079956 0.00216478 0.09516993
v -0.03306814 0.00470378 0.10706987
v -0.03377226 0.00466268 0.10869253
v -0.03646906 0.00440687 0.11490420
v -0.04055474 0.00382357 0.11603529
v -0.03838235 0.00281565 0.12054992
v -0.04265514 0.00065290 0.12295488
v -0.04016033 0.00259987 0.12034803
v -0.03938610 0.00049292 0.12410324
v -0.04129887 0.00091722 0.12335619
v -0.03829967 0.00279708 0.12068288
v -0.04185593 0.00047693 0.12498700
v -0.04084197 0.00104797 0.12715444
v -0.03979614 0.00214668 0.12783375
v -0.04022380 0.00069069 0.12685504
v -0.03976030 0.00265144 0.12778108
v -0.04091800 0.00283720 0.12763909
v -0.04138529 0.00493538 0.10442028
v -0.04175386 0.00511304 0.10607456
v -0.04148910 0.00538943 0.10396738
v -0.04186973 0.00536519 0.10613387
v -0.04229574 0.00496639 0.10922694
v -0.04254965 0.00547120 0.10952846
v -0.04503317 0.00276488 0.11995801
v -0.04299114 0.00560837 0.11147734
v -0.04022684 0.00379327 0.10982457
v -0.04100974 0.00458462 0.10606620
v -0.04132183 0.00467225 0.10697751
v -0.04030780 0.00395346 0.10889471
v -0.04320554 0.00501343 0.11273007
v -0.04488662 0.00198195 0.12022416
v -0.04420077 0.00313473 0.11816434
v -0.04404508 0.00341883 0.11782450
v -0.04292103 0.00492489 0.11261975
v -0.04418521 0.00516203 0.11816121
v -0.04415916 0.00446339 0.11716347
v -0.04193959 0.00334682 0.11791352
v -0.03804700 0.00296631 0.12039831
v -0.04123790 0.00278483 0.12001123
v -0.04468707 0.00258330 0.11971209
v -0.04527461 0.00037866 0.12238584
v -0.04549488 0.00134959 0.12130858
v -0.04540785 0.00180953 0.12094666
v -0.04510720 0.00225144 0.12027275
v -0.04489552 0.00028121 0.12477918
v -0.04505313 0.00159623 0.12599102
v -0.04558655 0.00277355 0.12577111
vn 0.626506 0.464198 -0.626108
vn 0.616222 -0.712879 0.334774
vn 0.485913 0.837655 0.249444
vn -0.199266 0.976701 0.079676
vn 0.237216 -0.971141 0.024763
vn -0.498149 0.812537 -0.302706
vn 0.749781 -0.655414 -0.090888
vn 0.881837 0.148945 0.447413
vn 0.289492 -0.947675 -0.134556
vn -0.670575 0.086830 -0.736743
vn -0.931547 0.360674 -0.046212
vn -0.967985 0.181922 -0.172944
vn -0.155206 -0.794517 0.587072
vn -0.858843 -0.385653 -0.337137
vn 0.139316 -0.807944 -0.572553
vn -0.986247 0.133927 -0.096856
vn 0.848412 -0.474724 0.234167
vn 0.284156 -0.944833 0.162929
vn 0.577110 0.757208 0.305907
vn 0.280527 -0.955841 0.087596
vn 0.102104 -0.955991 -0.275056
vn -0.844688 -0.279020 0.456783
vn -0.492127 -0.665357 0.561348
vn 0.933743 0.064775 0.352035
vn 0.472708 -0.881117 0.013392
vn 0.143572 -0.817658 -0.557514
vn 0.103525 -0.957436 0.269441
vn 0.863605 -0.430251 0.262813
vn 0.828641 0.422264 0.367486
vn 0.559238 0.293250 0.775408
vn 0.327770 0.217763 -0.919318
vn -0.054353 -0.733818 -0.677168
vn -0.164528 -0.968902 0.184824
vn -0.847721 -0.526433 0.065099
vn -0.916944 -0.382712 -0.112894
vn -0.205316 -0.978696 0.000609
vn 0.045654 -0.998416 -0.032897
vn -0.754726 0.651013 -0.081059
vn -0.841932 0.512885 -0.167627
vn -0.122941 0.934475 0.334129
vn -0.074677 -0.945477 0.317012
vn -0.286204 0.719565 0.632703
vn -0.386409 0.548955 0.741172
vn -0.304545 -0.223083 0.926006
vn -0.923002 0.331346 -0.195648
vn -0.947851 0.164362 -0.273062
vn -0.768626 0.638639 0.036793
vn -0.984452 0.173403 -0.028029
vn -0.987094 -0.152473 0.048958
vn 0.937330 0.043040 -0.345774
vn 0.260518 0.842917 -0.470766
vn -0.909314 -0.380897 -0.167525
vn 0.120552 -0.992266 -0.029601
vn 0.057053 -0.961253 -0.269699
vn 0.848061 -0.183108 -0.497256
vn 0.996027 0.027884 -0.084572
vn 0.963509 0.261752 0.056008
vn 0.284524 0.112395 -0.952058
vn 0.481889 -0.260279 -0.836682
vn 0.114656 0.248318 -0.961869
vn 0.747618 -0.663866 -0.018677
vn 0.314825 -0.936952 -0.151680
vn 0.617458 -0.640222 -0.457013
vn 0.220256 0.975041 0.027956
vn 0.089716 -0.965808 0.243241
vn 0.222336 -0.874113 0.431849
vn 0.018261 -0.914627 0.403885
vn 0.775817 -0.397422 0.490065
vn 0.752353 0.323789 0.573695
vn 0.942539 0.178281 0.282552
vn 0.781768 0.438578 0.443270
vn 0.102881 0.871336 -0.479781
vn 0.092095 -0.993812 0.062105
vn 0.067271 -0.958854 0.275813
vn 0.202469 0.965281 0.165043
vn 0.007000 0.997108 -0.075668
vn 0.200716 -0.974442 0.100876
vn -0.082970 0.995427 0.047331
vn 0.910632 -0.340619 0.233938
vn 0.926666 -0.103888 0.361243
vn 0.117342 0.974443 0.191552
vn 0.892548 0.362380 0.268399
vn 0.548365 0.781009 0.298865
vn 0.899224 0.306782 0.311901
vn 0.222671 0.161691 -0.961392
vn 0.367384 -0.415601 -0.832048
vn 0.248860 -0.947095 -0.202679
vn 0.254965 0.299263 -0.919475
vn 0.258952 0.205494 -0.943777
vn 0.377487 0.153545 -0.913196
vn -0.306081 0.030705 -0.951510
vn 0.335770 0.121022 -0.934137
vn 0.185088 -0.260945 -0.947444
vn 0.149331 -0.293985 -0.944073
vn 0.176018 -0.980169 -0.091033
vn 0.109786 0.646552 -0.754929
vn -0.283900 0.790076 -0.543305
vn -0.709678 0.702618 -0.051821
vn -0.548241 0.836151 -0.016832
vn -0.743542 0.661367 -0.098687
vn 0.044176 -0.929809 0.365382
vn -0.025354 -0.942610 0.332932
vn -0.608427 0.792957 -0.032186
vn 0.963619 -0.242966 0.111385
vn 0.653807 -0.751749 -0.086079
vn 0.986514 -0.024664 0.161805
vn 0.970369 -0.093489 0.222807
vn 0.899913 -0.071330 0.430196
vn 0.867000 -0.312333 0.388277
vn 0.514662 -0.419555 0.747728
vn 0.791880 0.038697 0.609449
vn 0.886183 0.196684 0.419517
vn 0.697914 0.635109 0.330987
vn 0.398789 0.669871 0.626290
vn 0.234191 0.934868 0.266790
vn -0.146078 0.894462 0.422610
vn -0.213441 0.800904 0.559460
vn 0.345598 0.512507 0.786065
vn 0.236209 0.928633 0.286088
vn -0.062436 0.088264 0.994138
vn 0.198303 0.325401 0.924549
vn -0.370384 0.450532 0.812304
vn -0.423920 0.539742 0.727304
vn -0.363248 0.192302 0.911631
vn 0.126651 -0.182139 -0.975082
vn -0.514810 0.660069 -0.547065
vn 0.056772 -0.838971 -0.541207
vn -0.042480 -0.971760 -0.232116
vn 0.004858 -0.938441 0.345405
vn -0.261077 -0.891573 0.370049
vn -0.460965 -0.869816 -0.175875
vn -0.413702 -0.871705 0.262642
vn 0.005326 -0.590898 -0.806729
vn -0.043501 -0.225782 -0.973206
vn 0.083510 0.011059 -0.996446
vn 0.014514 -0.462483 -0.886510
vn -0.414227 -0.659492 -0.627285
vn -0.508468 -0.792990 -0.335598
vn -0.559649 -0.663189 -0.496965
vn -0.672672 0.261174 -0.692315
vn -0.665515 0.502609 -0.551792
vn -0.817665 0.134784 -0.559694
vn -0.591722 -0.356312 -0.723122
vn -0.791652 -0.346702 -0.503075
vn -0.927043 0.155784 -0.341061
vn -0.965836 -0.105915 -0.236521
vn -0.876864 0.255719 -0.407085
vn -0.220938 -0.939746 0.260890
vn -0.707803 -0.691872 0.142574
vn -0.531969 -0.845884 0.038591
vn -0.740196 -0.645904 -0.186862
vn -0.980646 0.157409 -0.116428
vn -0.985630 0.168005 -0.017567
vn -0.848609 -0.521048 0.091500
vn -0.981790 -0.189296 0.015960
vn -0.981279 -0.192147 0.013061
vn -0.995144 -0.092904 0.032518
vn -0.956461 -0.281548 0.076896
vn -0.868766 0.492185 -0.054761
vn -0.977322 0.204966 -0.053209
vn -0.978986 0.203599 -0.011608
vn -0.995285 0.096753 0.006844
vn 0.021834 -0.998975 0.039651
vn -0.677352 -0.727377 0.110078
vn -0.508960 -0.855216 -0.097800
vn 0.004969 -0.986328 0.164719
vn 0.024211 -0.999650 -0.010640
vn 0.101904 -0.994355 0.029572
vn -0.909782 0.386747 -0.150741
vn -0.909816 0.386112 -0.152159
vn -0.802490 0.588857 -0.096214
vn -0.820592 0.560692 -0.110690
vn -0.267717 0.956819 0.113248
vn -0.568058 0.822841 -0.015554
vn -0.903840 0.406028 -0.134964
vn -0.476219 0.878942 0.026006
vn -0.645872 0.762788 -0.031676
vn -0.045347 -0.995968 -0.077410
vn -0.053301 0.906602 0.418608
vn -0.052382 0.975691 0.212799
vn -0.134368 0.975636 0.173435
vn -0.513045 0.854660 0.079629
vn -0.545099 0.838181 0.017869
vn 0.074111 -0.990601 0.114968
vn -0.293435 -0.555247 0.778201
vn -0.066909 0.704757 0.706287
vn -0.101698 0.627371 0.772052
vn -0.050256 0.704002 0.708418
vn -0.325478 0.409065 0.852485
vn -0.266232 0.383111 0.884503
vn -0.142778 0.564705 0.812848
vn -0.311067 -0.172467 0.934608
vn -0.921496 0.335109 -0.196333
vn -0.973695 0.201593 -0.106197
vn 0.259105 -0.957850 -0.124049
vn 0.176775 -0.872517 -0.455484
vn 0.102884 -0.959427 0.262515
vn -0.361360 -0.878415 -0.312740
vn 0.220291 -0.972463 -0.076080
vn 0.063476 -0.996845 -0.047647
vn -0.486882 -0.848815 -0.206057
vn -0.306587 -0.949271 0.069916
vn -0.988751 0.118262 -0.091568
vn -0.983119 0.131745 -0.126967
vn -0.963436 -0.141998 -0.227215
vn -0.793193 -0.534696 -0.291455
vn -0.094467 0.633209 0.768194
vn -0.554887 0.551684 0.622692
vn -0.966335 0.256432 -0.020987
vn -0.419956 0.185624 0.888358
vn -0.354501 -0.063065 0.932927
vn -0.754151 0.364923 0.545974
vn -0.183998 -0.617536 0.764718
vn -0.385840 -0.233828 0.892442
vn -0.857008 0.009413 0.515218
vn -0.981425 0.028087 0.189778
vn 0.840221 0.482604 -0.247227
vn 0.701665 0.288969 -0.651278
vn 0.704394 -0.503241 0.500578
vn 0.426808 -0.057673 -0.902501
vn 0.459769 -0.357261 -0.813005
vn 0.683090 -0.647615 0.337615
vn 0.858208 -0.384077 0.340535
vn 0.141470 -0.989631 -0.024814
vn 0.155889 -0.987231 0.032751
vn 0.235992 -0.876137 -0.420347
vn 0.296675 -0.918507 -0.261397
vn 0.152269 -0.799000 -0.581733
vn 0.130579 -0.909300 -0.395123
vn 0.103783 -0.911605 -0.397749
vn 0.123339 -0.873816 -0.470353
vn -0.144053 -0.960914 0.236419
vn -0.283923 -0.522215 0.804163
vn 0.129128 -0.466234 0.875187
vn -0.009948 -0.899669 0.436460
vn -0.085039 -0.210927 0.973796
vn -0.296376 0.088319 0.950979
vn -0.755113 -0.654713 -0.034004
vn -0.901692 -0.399011 -0.166557
vn -0.932629 -0.334510 -0.135298
vn -0.910305 -0.379377 -0.165585
vn -0.954059 -0.169273 -0.247220
vn -0.920782 -0.347668 -0.176886
vn -0.968422 0.033577 -0.247045
vn -0.975128 0.019056 -0.220823
vn -0.725135 -0.612142 -0.315375
vn -0.633864 -0.773237 -0.017920
vn -0.449087 -0.888864 -0.090780
vn -0.531657 -0.844582 -0.063417
vn -0.538519 -0.831353 -0.137292
vn -0.828312 -0.306376 -0.469077
vn -0.886715 -0.186876 -0.422863
vn -0.726382 -0.581472 -0.366414
vn -0.593087 -0.749888 -0.293114
vn -0.888847 0.432320 -0.151821
vn -0.962505 0.206334 -0.176096
vn 0.071660 -0.967577 -0.242197
vn 0.487192 -0.775271 -0.401994
vn 0.115999 -0.666002 -0.736875
vn -0.797686 -0.351371 -0.490139
vn -0.006777 -0.836776 -0.547503
vn -0.888228 -0.291960 -0.354697
vn -0.952287 0.112311 -0.283788
vn -0.692886 -0.436213 -0.574132
vn -0.248077 -0.717428 0.650964
vn -0.495001 -0.536631 0.683375
vn -0.693129 0.124931 0.709904
f 218//218 50//50 58//58
f 50//50 55//55 58//58
f 50//50 218//218 1//1
f 218//218 60//60 1//1
f 60//60 51//51 1//1
f 88//88 51//51 60//60
f 61//61 17//17 2//2
f 61//61 2//2 25//25
f 2//2 65//65 25//25
f 50//50 217//217 56//56
f 61//61 56//56 17//17
f 24//24 17//17 56//56
f 57//57 56//56 217//217
f 24//24 56//56 57//57
f 71//71 75//75 19//19
f 217//217 64//64 57//57
f 71//71 57//57 64//64
f 51//51 64//64 217//217
f 51//51 72//72 64//64
f 64//64 75//75 71//71
f 76//76 75//75 64//64
f 72//72 76//76 64//64
f 219//219 66//66 2//2
f 219//219 17//17 24//24
f 219//219 24//24 68//68
f 57//57 71//71 24//24
f 71//71 69//69 24//24
f 63//63 59//59 220//220
f 63//63 220//220 55//55
f 61//61 55//55 56//56
f 56//56 55//55 50//50
f 63//63 55//55 61//61
f 59//59 63//63 221//221
f 63//63 61//61 62//62
f 63//63 62//62 221//221
f 220//220 58//58 55//55
f 85//85 58//58 220//220
f 220//220 59//59 85//85
f 88//88 60//60 85//85
f 85//85 60//60 58//58
f 58//58 60//60 218//218
f 88//88 72//72 51//51
f 65//65 62//62 25//25
f 62//62 61//61 25//25
f 65//65 73//73 62//62
f 74//74 73//73 65//65
f 74//74 65//65 67//67
f 2//2 66//66 65//65
f 65//65 66//66 67//67
f 66//66 219//219 68//68
f 68//68 69//69 71//71
f 24//24 69//69 68//68
f 80//80 68//68 71//71
f 18//18 68//68 222//222
f 68//68 80//80 222//222
f 80//80 28//28 223//223
f 222//222 223//223 18//18
f 80//80 223//223 222//222
f 79//79 28//28 80//80
f 18//18 224//224 77//77
f 19//19 70//70 80//80
f 19//19 80//80 71//71
f 3//3 19//19 75//75
f 92//92 59//59 221//221
f 85//85 59//59 92//92
f 221//221 62//62 86//86
f 86//86 62//62 87//87
f 73//73 74//74 62//62
f 74//74 5//5 62//62
f 75//75 76//76 78//78
f 76//76 6//6 78//78
f 74//74 67//67 101//101
f 74//74 101//101 27//27
f 18//18 102//102 68//68
f 68//68 102//102 66//66
f 66//66 101//101 67//67
f 102//102 101//101 66//66
f 4//4 75//75 78//78
f 18//18 77//77 102//102
f 77//77 166//166 102//102
f 75//75 4//4 81//81
f 81//81 3//3 75//75
f 81//81 83//83 3//3
f 3//3 70//70 19//19
f 82//82 70//70 3//3
f 70//70 104//104 79//79
f 80//80 70//70 79//79
f 28//28 79//79 7//7
f 79//79 104//104 7//7
f 3//3 83//83 82//82
f 70//70 106//106 104//104
f 104//104 107//107 7//7
f 106//106 107//107 104//104
f 106//106 70//70 82//82
f 82//82 84//84 106//106
f 83//83 84//84 82//82
f 81//81 115//115 83//83
f 115//115 119//119 83//83
f 92//92 135//135 31//31
f 91//91 31//31 135//135
f 5//5 87//87 62//62
f 87//87 94//94 86//86
f 86//86 92//92 221//221
f 93//93 92//92 86//86
f 94//94 93//93 86//86
f 95//95 26//26 87//87
f 127//127 26//26 95//95
f 95//95 87//87 5//5
f 94//94 87//87 26//26
f 94//94 26//26 127//127
f 27//27 5//5 74//74
f 127//127 32//32 94//94
f 128//128 127//127 95//95
f 127//127 128//128 32//32
f 5//5 27//27 95//95
f 95//95 130//130 128//128
f 95//95 27//27 130//130
f 92//92 89//89 85//85
f 88//88 89//89 92//92
f 89//89 88//88 85//85
f 88//88 92//92 90//90
f 31//31 90//90 92//92
f 88//88 90//90 31//31
f 96//96 72//72 88//88
f 31//31 96//96 88//88
f 91//91 140//140 31//31
f 140//140 126//126 31//31
f 141//141 6//6 126//126
f 72//72 96//96 76//76
f 96//96 31//31 126//126
f 76//76 97//97 6//6
f 97//97 126//126 6//6
f 96//96 97//97 76//76
f 126//126 97//97 96//96
f 78//78 99//99 4//4
f 6//6 99//99 78//78
f 6//6 98//98 99//99
f 159//159 100//100 11//11
f 102//102 27//27 101//101
f 27//27 102//102 129//129
f 98//98 103//103 99//99
f 99//99 103//103 4//4
f 98//98 6//6 100//100
f 100//100 159//159 98//98
f 148//148 102//102 166//166
f 166//166 33//33 148//148
f 53//53 37//37 168//168
f 53//53 168//168 225//225
f 168//168 166//166 77//77
f 225//225 77//77 224//224
f 168//168 77//77 225//225
f 53//53 225//225 257//257
f 225//225 224//224 257//257
f 4//4 103//103 174//174
f 4//4 173//173 81//81
f 105//105 7//7 107//107
f 229//229 258//258 20//20
f 231//231 258//258 229//229
f 231//231 229//229 230//230
f 173//173 180//180 81//81
f 9//9 7//7 105//105
f 109//109 9//9 105//105
f 112//112 106//106 84//84
f 107//107 106//106 112//112
f 8//8 107//107 112//112
f 112//112 84//84 29//29
f 81//81 180//180 115//115
f 180//180 119//119 115//115
f 116//116 119//119 180//180
f 116//116 180//180 179//179
f 117//117 119//119 116//116
f 117//117 116//116 42//42
f 179//179 42//42 116//116
f 110//110 109//109 105//105
f 9//9 109//109 110//110
f 235//235 178//178 20//20
f 232//232 178//178 235//235
f 235//235 20//20 234//234
f 235//235 234//234 233//233
f 105//105 107//107 108//108
f 107//107 8//8 111//111
f 107//107 111//111 108//108
f 110//110 105//105 108//108
f 110//110 108//108 111//111
f 236//236 9//9 110//110
f 236//236 110//110 111//111
f 111//111 120//120 236//236
f 111//111 8//8 30//30
f 111//111 30//30 120//120
f 83//83 113//113 84//84
f 84//84 113//113 29//29
f 114//114 113//113 119//119
f 119//119 113//113 83//83
f 117//117 114//114 119//119
f 114//114 112//112 113//113
f 112//112 29//29 113//113
f 112//112 30//30 8//8
f 112//112 118//118 30//30
f 112//112 114//114 118//118
f 118//118 114//114 117//117
f 123//123 122//122 117//117
f 30//30 118//118 121//121
f 30//30 121//121 120//120
f 121//121 118//118 120//120
f 120//120 118//118 122//122
f 118//118 117//117 122//122
f 42//42 122//122 123//123
f 43//43 122//122 42//42
f 42//42 123//123 117//117
f 234//234 237//237 233//233
f 234//234 236//236 237//237
f 124//124 237//237 122//122
f 120//120 237//237 236//236
f 122//122 237//237 120//120
f 189//189 122//122 43//43
f 188//188 43//43 42//42
f 124//124 122//122 189//189
f 124//124 189//189 237//237
f 92//92 125//125 135//135
f 93//93 94//94 92//92
f 136//136 134//134 94//94
f 94//94 125//125 92//92
f 135//135 125//125 94//94
f 134//134 135//135 94//94
f 10//10 91//91 135//135
f 32//32 133//133 94//94
f 133//133 136//136 94//94
f 32//32 136//136 133//133
f 129//129 130//130 27//27
f 32//32 137//137 136//136
f 128//128 131//131 32//32
f 32//32 131//131 137//137
f 130//130 131//131 128//128
f 132//132 131//131 130//130
f 137//137 131//131 138//138
f 131//131 139//139 138//138
f 138//138 139//139 137//137
f 131//131 151//151 139//139
f 150//150 151//151 131//131
f 149//149 151//151 150//150
f 130//130 149//149 132//132
f 132//132 150//150 131//131
f 149//149 150//150 132//132
f 136//136 137//137 134//134
f 143//143 135//135 134//134
f 137//137 143//143 134//134
f 10//10 135//135 143//143
f 143//143 137//137 139//139
f 143//143 139//139 151//151
f 151//151 146//146 143//143
f 141//141 140//140 10//10
f 10//10 140//140 91//91
f 141//141 126//126 140//140
f 11//11 141//141 147//147
f 10//10 142//142 141//141
f 142//142 147//147 141//141
f 147//147 142//142 145//145
f 147//147 145//145 152//152
f 145//145 146//146 152//152
f 10//10 143//143 142//142
f 143//143 144//144 142//142
f 146//146 145//145 142//142
f 143//143 146//146 144//144
f 144//144 146//146 142//142
f 146//146 151//151 154//154
f 154//154 151//151 149//149
f 6//6 141//141 100//100
f 100//100 141//141 11//11
f 129//129 102//102 130//130
f 130//130 148//148 149//149
f 130//130 102//102 148//148
f 11//11 152//152 146//146
f 147//147 152//152 11//11
f 153//153 11//11 146//146
f 148//148 164//164 149//149
f 164//164 154//154 149//149
f 146//146 157//157 153//153
f 154//154 155//155 146//146
f 156//156 154//154 157//157
f 156//156 157//157 146//146
f 155//155 156//156 146//146
f 154//154 156//156 155//155
f 36//36 164//164 33//33
f 164//164 34//34 154//154
f 33//33 164//164 148//148
f 11//11 161//161 159//159
f 161//161 160//160 159//159
f 162//162 160//160 161//161
f 154//154 34//34 158//158
f 154//154 158//158 157//157
f 158//158 34//34 162//162
f 34//34 12//12 162//162
f 157//157 162//162 153//153
f 153//153 161//161 11//11
f 162//162 161//161 153//153
f 158//158 162//162 157//157
f 159//159 160//160 169//169
f 162//162 12//12 160//160
f 160//160 12//12 169//169
f 164//164 238//238 34//34
f 34//34 35//35 12//12
f 238//238 35//35 34//34
f 12//12 35//35 240//240
f 240//240 241//241 52//52
f 35//35 241//241 240//240
f 35//35 238//238 239//239
f 238//238 165//165 239//239
f 52//52 243//243 170//170
f 35//35 239//239 241//241
f 241//241 243//243 52//52
f 239//239 243//243 241//241
f 12//12 170//170 169//169
f 37//37 167//167 168//168
f 167//167 36//36 168//168
f 36//36 33//33 163//163
f 168//168 163//163 166//166
f 166//166 163//163 33//33
f 36//36 163//163 168//168
f 36//36 246//246 164//164
f 246//246 249//249 164//164
f 164//164 247//247 238//238
f 238//238 247//247 165//165
f 249//249 247//247 164//164
f 165//165 248//248 250//250
f 247//247 248//248 165//165
f 247//247 249//249 248//248
f 248//248 249//249 250//250
f 170//170 243//243 245//245
f 239//239 165//165 242//242
f 239//239 242//242 243//243
f 243//243 242//242 245//245
f 245//245 242//242 244//244
f 249//249 246//246 254//254
f 249//249 254//254 250//250
f 254//254 253//253 250//250
f 171//171 98//98 159//159
f 103//103 98//98 171//171
f 103//103 171//171 172//172
f 171//171 159//159 172//172
f 103//103 172//172 38//38
f 172//172 159//159 169//169
f 38//38 169//169 170//170
f 172//172 169//169 38//38
f 250//250 253//253 14//14
f 254//254 246//246 253//253
f 246//246 252//252 253//253
f 253//253 244//244 14//14
f 246//246 251//251 252//252
f 252//252 260//260 253//253
f 251//251 260//260 252//252
f 174//174 173//173 4//4
f 38//38 174//174 103//103
f 177//177 173//173 38//38
f 173//173 174//174 38//38
f 175//175 38//38 170//170
f 255//255 38//38 175//175
f 175//175 170//170 245//245
f 256//256 255//255 175//175
f 244//244 256//256 245//245
f 245//245 256//256 175//175
f 38//38 39//39 177//177
f 255//255 39//39 38//38
f 21//21 53//53 257//257
f 21//21 257//257 54//54
f 54//54 257//257 224//224
f 176//176 173//173 177//177
f 39//39 255//255 45//45
f 45//45 177//177 39//39
f 178//178 229//229 20//20
f 230//230 229//229 178//178
f 231//231 226//226 258//258
f 232//232 184//184 178//178
f 184//184 230//230 178//178
f 231//231 230//230 227//227
f 231//231 227//227 226//226
f 227//227 196//196 226//226
f 196//196 227//227 195//195
f 227//227 230//230 195//195
f 195//195 230//230 184//184
f 173//173 181//181 180//180
f 181//181 40//40 180//180
f 40//40 179//179 180//180
f 179//179 188//188 42//42
f 188//188 179//179 186//186
f 188//188 189//189 43//43
f 186//186 189//189 188//188
f 187//187 189//189 186//186
f 40//40 186//186 179//179
f 187//187 186//186 40//40
f 173//173 182//182 181//181
f 181//181 182//182 40//40
f 177//177 183//183 176//176
f 182//182 183//183 177//177
f 176//176 182//182 173//173
f 183//183 182//182 176//176
f 47//47 208//208 182//182
f 208//208 40//40 182//182
f 208//208 207//207 40//40
f 47//47 182//182 177//177
f 233//233 237//237 192//192
f 233//233 192//192 44//44
f 233//233 41//41 235//235
f 13//13 41//41 233//233
f 235//235 184//184 232//232
f 41//41 184//184 235//235
f 44//44 185//185 233//233
f 13//13 233//233 185//185
f 189//189 190//190 237//237
f 190//190 210//210 237//237
f 189//189 187//187 190//190
f 187//187 191//191 190//190
f 187//187 40//40 207//207
f 207//207 208//208 190//190
f 187//187 207//207 191//191
f 191//191 207//207 190//190
f 210//210 190//190 208//208
f 47//47 212//212 208//208
f 212//212 210//210 208//208
f 244//244 45//45 256//256
f 45//45 255//255 256//256
f 263//263 45//45 244//244
f 46//46 45//45 263//263
f 258//258 228//228 259//259
f 228//228 15//15 259//259
f 260//260 264//264 253//253
f 253//253 264//264 244//244
f 251//251 264//264 260//260
f 258//258 226//226 228//228
f 226//226 196//196 228//228
f 228//228 196//196 15//15
f 261//261 15//15 196//196
f 251//251 261//261 262//262
f 251//251 262//262 264//264
f 264//264 263//263 244//244
f 262//262 263//263 264//264
f 262//262 16//16 204//204
f 262//262 204//204 263//263
f 263//263 204//204 46//46
f 193//193 194//194 47//47
f 45//45 47//47 177//177
f 193//193 47//47 45//45
f 45//45 46//46 193//193
f 46//46 194//194 193//193
f 41//41 197//197 184//184
f 13//13 197//197 41//41
f 261//261 196//196 198//198
f 196//196 200//200 198//198
f 184//184 199//199 195//195
f 199//199 200//200 196//196
f 199//199 196//196 195//195
f 184//184 200//200 199//199
f 184//184 197//197 200//200
f 200//200 197//197 202//202
f 202//202 197//197 265//265
f 197//197 13//13 265//265
f 202//202 265//265 23//23
f 262//262 261//261 198//198
f 262//262 198//198 206//206
f 16//16 262//262 49//49
f 205//205 262//262 206//206
f 262//262 205//205 49//49
f 202//202 198//198 200//200
f 198//198 202//202 201//201
f 198//198 201//201 206//206
f 201//201 202//202 206//206
f 202//202 23//23 206//206
f 23//23 22//22 49//49
f 23//23 49//49 206//206
f 206//206 49//49 205//205
f 47//47 48//48 212//212
f 16//16 48//48 204//204
f 49//49 216//216 16//16
f 16//16 216//216 48//48
f 216//216 22//22 215//215
f 216//216 215//215 48//48
f 49//49 22//22 216//216
f 46//46 204//204 194//194
f 204//204 203//203 194//194
f 204//204 48//48 203//203
f 203//203 48//48 194//194
f 194//194 209//209 47//47
f 194//194 48//48 209//209
f 209//209 48//48 47//47
f 13//13 185//185 213//213
f 213//213 185//185 44//44
f 213//213 44//44 214//214
f 192//192 210//210 44//44
f 237//237 210//210 192//192
f 210//210 211//211 44//44
f 48//48 215//215 267//267
f 48//48 267//267 212//212
f 267//267 210//210 212//212
f 13//13 213//213 265//265
f 265//265 266//266 23//23
f 213//213 214//214 265//265
f 214//214 266//266 265//265
f 214//214 211//211 210//210
f 211//211 214//214 44//44
f 210//210 267//267 214//214
f 215//215 266//266 267//267
f 267//267 266//266 214//214
