# decimated by Tools/decimate_anatomy.py from 6944 triangles (BodyParts3D, CC BY 4.0)
v 0.02602995 -0.00383604 0.03670095
v 0.02218572 -0.00019638 0.03526647
v 0.01987999 -0.00820804 0.03542668
v 0.01903042 -0.00841871 0.03664755
v 0.01887965 -0.00923793 0.03811871
v 0.01683865 -0.00852419 0.04075724
v 0.01739115 0.00711236 0.04154726
v 0.01764158 0.00727951 0.04157551
v 0.01564917 -0.00145160 0.04490572
v 0.01731338 0.00365146 0.04494305
v 0.01531032 -0.00958861 0.02986830
v 0.01452674 -0.00796438 0.03109325
v 0.01536753 -0.00647862 0.04189857
v 0.01540466 -0.00530201 0.04242544
v 0.01513803 -0.00692086 0.04173550
v 0.01308868 -0.00783512 0.04030538
v 0.01436549 -0.00371601 0.04175756
v 0.01464634 -0.00296741 0.04353301
v 0.01448232 -0.00994963 0.03008022
v 0.01365389 -0.01137064 0.03135302
v 0.01337541 -0.01177142 0.03218969
v 0.00991238 -0.00380530 0.03563469
v 0.01026928 -0.00305419 0.03682003
v 0.01029929 -0.00306583 0.03584946
v 0.00973035 -0.00372288 0.03649015
v 0.02321990 -0.00038156 0.03752116
v 0.01899949 -0.00902942 0.03707557
v 0.01902001 -0.00908650 0.03717660
v 0.01958832 0.00795044 0.04118866
v 0.01936873 0.00703538 0.04308129
v 0.01960320 0.00386259 0.04521021
v 0.01834095 0.00129659 0.04741986
v 0.01401264 -0.00718175 0.03137550
v 0.01531385 -0.00582951 0.04220473
v 0.01330563 -0.00673070 0.04050375
v 0.01249648 -0.00650067 0.03267309
v 0.01315103 -0.00707080 0.03246443
v 0.01150271 -0.00332698 0.03897860
v 0.00994319 -0.00463684 0.03585345
v 0.00978781 -0.00371641 0.03660056
v 0.02524575 -0.00522601 0.03489478
v 0.02667706 -0.00574252 0.03857747
v 0.02398155 -0.00160029 0.03613219
v 0.02009804 -0.00679578 0.03137879
v 0.02264431 -0.00364380 0.03155106
v 0.02045270 -0.00853695 0.03746689
v 0.02288921 -0.00740833 0.03624019
v 0.01989686 -0.00823353 0.03668449
v 0.01603570 0.00410032 0.04340846
v 0.01807287 0.00739714 0.04214739
v 0.01534099 -0.00906048 0.02998798
v 0.01476472 -0.00952683 0.02993826
v 0.01488573 -0.00850553 0.03047419
v 0.01571829 -0.01095312 0.03723861
v 0.01337321 -0.00627877 0.04053512
v 0.01484140 -0.00507084 0.04164199
v 0.01475379 -0.00471531 0.04133810
v 0.01461361 -0.00408370 0.04140888
v 0.01429690 -0.00666228 0.04148369
v 0.01373529 -0.00512852 0.04075526
v 0.01550848 -0.00480243 0.04268167
v 0.01476670 -0.00414535 0.04234277
v 0.01246027 -0.01014605 0.03337793
v 0.01233408 -0.01096311 0.03319559
v 0.01231665 -0.01094580 0.03331380
v 0.01359249 -0.00831103 0.03297070
v 0.01316390 -0.00704512 0.03428420
v 0.01262002 -0.00910192 0.03612116
v 0.01218735 -0.01040559 0.03430212
v 0.01231891 -0.01053545 0.03699399
v 0.01252616 -0.01065395 0.03766543
v 0.01282057 -0.00735553 0.03890610
v 0.01514940 0.00300220 0.03596648
v 0.01164527 -0.00199320 0.03533636
v 0.01772895 -0.00848146 0.04075329
v 0.01914775 -0.00899883 0.03756180
v 0.01925300 -0.00879356 0.03702346
v 0.01910166 -0.00899720 0.03713062
v 0.01901588 -0.00878033 0.03587524
v 0.01925235 -0.00868562 0.03695454
v 0.01683806 0.00256344 0.03340700
v 0.01817277 0.00245317 0.04670748
v 0.01906975 0.00786651 0.04030994
v 0.01700503 0.00128863 0.04702220
v 0.01631247 -0.00032155 0.04610398
v 0.01346049 -0.00737576 0.03241997
v 0.01516069 -0.00578285 0.04208028
v 0.01440357 -0.00669353 0.04156546
v 0.01370655 -0.00102290 0.04365289
v 0.01359146 -0.00696693 0.03172405
v 0.01471435 0.00013947 0.04507527
v 0.01123767 -0.00567887 0.03412135
v 0.01092088 -0.00514461 0.03432983
v 0.00983274 -0.00390129 0.03564974
v 0.02557765 -0.00361164 0.03512395
v 0.02633234 -0.00688422 0.03848601
v 0.02478196 -0.00799380 0.03821923
v 0.02507313 -0.00778342 0.04016661
v 0.02641111 -0.00644827 0.03879637
v 0.02581662 -0.00589199 0.03999054
v 0.02610417 -0.00601026 0.03949722
v 0.02433724 -0.00165246 0.03367324
v 0.02478584 -0.00264591 0.03386327
v 0.02638918 -0.00503659 0.03672206
v 0.02409108 -0.00354466 0.03264676
v 0.02399035 -0.00399728 0.03267549
v 0.02415653 -0.00322511 0.03257886
v 0.02306582 -0.00284483 0.03189483
v 0.02353559 -0.00171654 0.03250001
v 0.02225945 -0.00097023 0.03278029
v 0.02367974 -0.00127254 0.03348516
v 0.02114612 0.00150791 0.03605994
v 0.02441724 -0.00274888 0.03868962
v 0.02290615 -0.00017122 0.03805670
v 0.02232610 0.00095382 0.03801976
v 0.02543101 -0.00649404 0.04053842
v 0.02230893 -0.00683925 0.04120718
v 0.02064766 -0.00552658 0.03105943
v 0.02126426 -0.00470191 0.03098436
v 0.02028463 -0.00418789 0.03058448
v 0.02322622 -0.00142981 0.03261385
v 0.02013239 -0.00813785 0.03573254
v 0.01993121 -0.00895116 0.03803490
v 0.01966729 -0.00901732 0.03963323
v 0.02098399 -0.00861082 0.03808079
v 0.01942196 -0.00871901 0.03707495
v 0.02169291 -0.00536532 0.04117057
v 0.02184857 -0.00796989 0.04097719
v 0.01930543 -0.00357610 0.04218749
v 0.02119851 0.00565818 0.04002534
v 0.02139154 -0.00036033 0.04170231
v 0.02105804 0.00343754 0.04333620
v 0.01954029 0.00004949 0.04501511
v 0.02040595 0.00724254 0.04203712
v 0.02041885 0.00724467 0.04074564
v 0.02036602 0.00701277 0.04227807
v 0.01909917 0.00156095 0.04695476
v 0.02019958 0.00359042 0.04466086
v 0.01930773 0.00294705 0.04606420
v 0.01841016 0.00135405 0.04736415
v 0.01859702 0.00103463 0.04719728
v 0.01729088 -0.00939450 0.03082801
v 0.01973397 -0.00499362 0.03072957
v 0.01837857 -0.00727359 0.03071662
v 0.01992257 -0.00639693 0.03115541
v 0.01910301 -0.00431804 0.03022038
v 0.01897694 -0.00451600 0.03022885
v 0.01864516 -0.00360632 0.03010182
v 0.01957215 -0.00865216 0.03394085
v 0.01787742 -0.00958650 0.03211067
v 0.01815479 0.00018424 0.03162845
v 0.02090826 0.00050318 0.03434308
v 0.01988312 0.00768124 0.04129548
v 0.01725287 0.00216091 0.03291678
v 0.01913835 -0.00912775 0.03963085
v 0.01846674 -0.00923357 0.03967912
v 0.01808973 -0.00935112 0.03907768
v 0.01634179 0.00329678 0.04373061
v 0.01611273 0.00320889 0.04364530
v 0.01637723 0.00373176 0.04362490
v 0.01600342 0.00337416 0.04356162
v 0.01556430 0.00348042 0.04344022
v 0.01878460 -0.00243875 0.04321207
v 0.01863505 0.00053937 0.04651186
v 0.01797124 0.00023992 0.04660613
v 0.01755766 0.00082748 0.04733456
v 0.01793766 0.00055952 0.04704884
v 0.01712786 -0.00086254 0.04529713
v 0.01589480 -0.00094329 0.04546899
v 0.01691362 0.00405937 0.04408196
v 0.01656461 0.00397974 0.04369598
v 0.01819473 0.00735288 0.04250587
v 0.01818211 0.00548252 0.04416590
v 0.01663666 0.00464523 0.04363306
v 0.01521869 -0.01067208 0.03036865
v 0.01881777 -0.00926366 0.03710410
v 0.01532843 -0.01126263 0.03189279
v 0.01428558 -0.01178894 0.03172611
v 0.01436826 -0.01185483 0.03212288
v 0.01521936 -0.01026980 0.03013901
v 0.01524145 -0.00944899 0.02989925
v 0.01525813 -0.00935007 0.02992527
v 0.01473513 -0.00995102 0.02998116
v 0.01498639 -0.00947795 0.02994127
v 0.01449965 -0.00859444 0.03084643
v 0.01426139 -0.00897622 0.03086785
v 0.01398520 -0.00950792 0.03074266
v 0.01781185 -0.00641585 0.03026284
v 0.01678963 -0.00591741 0.03040965
v 0.01544783 -0.00752445 0.03049616
v 0.01530992 -0.00755148 0.03058514
v 0.01615178 -0.00694059 0.03039985
v 0.01436487 -0.00814465 0.03135127
v 0.01403054 -0.00841268 0.03185623
v 0.01890128 -0.00923311 0.03802857
v 0.01834272 -0.00953494 0.03635610
v 0.01437224 -0.01171476 0.03527836
v 0.01355647 -0.00761621 0.03441037
v 0.01357672 -0.00753196 0.03452037
v 0.01342831 -0.00827360 0.03440123
v 0.01738004 -0.00949966 0.03963906
v 0.01487320 -0.00986777 0.04038382
v 0.01537188 -0.01044729 0.03952539
v 0.01560386 -0.00993562 0.03998642
v 0.01469568 -0.01070255 0.03929923
v 0.01396807 -0.01044341 0.03944839
v 0.01365219 -0.00747154 0.03601993
v 0.01330345 -0.00602565 0.03874312
v 0.01413891 -0.00985071 0.04031680
v 0.01750042 -0.00412211 0.04240349
v 0.01485843 -0.00552112 0.04190652
v 0.01578911 -0.00832075 0.04095951
v 0.01465256 -0.00824142 0.04097417
v 0.01373845 -0.00613218 0.04092691
v 0.01508021 -0.00714270 0.04165728
v 0.01360966 -0.00814233 0.04063135
v 0.01439931 -0.00805621 0.04095047
v 0.01432781 -0.00687125 0.04148192
v 0.01334853 -0.00524951 0.04037809
v 0.01346475 -0.00741595 0.04072105
v 0.01312369 -0.00983227 0.03978557
v 0.01356298 -0.00767646 0.04073644
v 0.01487317 -0.00483563 0.04178566
v 0.01478611 -0.00443939 0.04130053
v 0.01434722 -0.00560663 0.04122598
v 0.01469612 -0.00447810 0.04114534
v 0.01432644 -0.00504233 0.04106009
v 0.01405600 -0.00377470 0.04124625
v 0.01392255 -0.00354950 0.04145963
v 0.01410241 -0.00445015 0.04088184
v 0.01407964 -0.00399931 0.04112698
v 0.01348855 -0.00558172 0.04041743
v 0.01364822 -0.00449036 0.04061162
v 0.01318975 -0.00563593 0.03855120
v 0.01292366 -0.00497737 0.03946693
v 0.01807782 -0.00367388 0.04245591
v 0.01866606 -0.00301318 0.04266004
v 0.01494488 -0.00483250 0.04227472
v 0.01462353 -0.00393397 0.04215486
v 0.01457569 -0.00342717 0.04277428
v 0.01405582 -0.00041399 0.04428120
v 0.01577744 0.00404557 0.04323012
v 0.01550567 0.00385768 0.04309393
v 0.01512344 0.00305384 0.04348597
v 0.01564354 0.00274458 0.04408821
v 0.01666596 0.00333455 0.04411401
v 0.01541174 0.00305234 0.04367509
v 0.01448658 0.00165600 0.04434239
v 0.01538389 0.00287310 0.04384720
v 0.01740472 0.00311906 0.04609795
v 0.01436754 0.00139936 0.04449104
v 0.01400581 0.00120967 0.04384888
v 0.01367606 -0.01071021 0.03089308
v 0.01390275 -0.01199448 0.03234384
v 0.01381376 -0.01208289 0.03282651
v 0.01339572 -0.01121353 0.03147055
v 0.01385415 -0.00971944 0.03071188
v 0.01426874 -0.00659655 0.03121023
v 0.01450319 -0.00583893 0.03129965
v 0.01410820 -0.00708403 0.03130118
v 0.01307799 -0.01195216 0.03382536
v 0.01337954 -0.01189288 0.03249880
v 0.01275836 -0.01142270 0.03256643
v 0.01271219 -0.01171904 0.03343552
v 0.01269027 -0.01161211 0.03305400
v 0.01219222 -0.01043334 0.03422274
v 0.01242992 -0.01132309 0.03493314
v 0.01349592 -0.00751658 0.03299512
v 0.01355799 -0.00756049 0.03438567
v 0.01353186 -0.00966033 0.03156617
v 0.01362695 -0.00958149 0.03144074
v 0.01321575 -0.00909201 0.03357940
v 0.01303321 -0.00891092 0.03431689
v 0.01253054 -0.00973151 0.03420745
v 0.01288988 -0.00932686 0.03390911
v 0.01366827 -0.01115399 0.03784189
v 0.01309638 -0.01162555 0.03559109
v 0.01247113 -0.01141880 0.03454409
v 0.01254330 -0.00924672 0.03601378
v 0.01245480 -0.01100371 0.03601979
v 0.01251735 -0.00925892 0.03616511
v 0.01275811 -0.00478974 0.03917323
v 0.01305733 -0.00649446 0.03560994
v 0.01358446 -0.00681425 0.03567337
v 0.01196561 -0.00181442 0.03518760
v 0.01555061 0.00167119 0.03387886
v 0.01251509 -0.00962541 0.03913457
v 0.01224829 -0.01001262 0.03787284
v 0.01270919 -0.01111612 0.03677600
v 0.01261797 -0.01020248 0.03872274
v 0.01247194 -0.01033864 0.03819820
v 0.01241207 -0.00971004 0.03881240
v 0.01235815 -0.00987706 0.03845181
v 0.01294861 -0.00717373 0.03873267
v 0.01271775 -0.00761804 0.03886944
v 0.01168498 -0.00520637 0.03702608
v 0.01319770 -0.00455283 0.04010507
v 0.01283942 -0.00474447 0.03938379
v 0.01255239 -0.00269078 0.04114275
v 0.01152421 -0.00341603 0.03895468
v 0.01039845 -0.00455485 0.03489888
v 0.01291515 -0.00620210 0.03227668
v 0.01282666 -0.00574071 0.03234396
v 0.01071234 -0.00443938 0.03727591
v 0.01044020 -0.00435272 0.03706964
v 0.01074760 -0.00519795 0.03614906
v 0.01069137 -0.00283835 0.03560703
v 0.02588173 -0.00703252 0.04001558
v 0.02523293 -0.00720153 0.04037558
v 0.02327180 -0.00842804 0.04035381
v 0.02144233 0.00064515 0.03588604
v 0.01860564 0.00206046 0.03335240
v 0.01902451 -0.00880918 0.03683197
v 0.01911566 -0.00902834 0.03760456
v 0.01906650 -0.00885516 0.03692630
v 0.01907673 -0.00895138 0.03705220
v 0.01918590 -0.00883576 0.03701276
v 0.01899556 -0.00869702 0.03674573
v 0.01890804 -0.00890086 0.03652850
v 0.01884749 -0.00883482 0.03632658
v 0.01906341 -0.00851987 0.03676370
v 0.01918472 -0.00866940 0.03689544
v 0.01907390 -0.00868766 0.03680818
v 0.01906529 -0.00858752 0.03677970
v 0.01896500 -0.00871210 0.03669481
v 0.02491466 -0.00793373 0.03974062
v 0.01961861 0.00553371 0.04399623
v 0.01827463 0.00752189 0.04165225
v 0.01885571 0.00788442 0.04071016
v 0.01848700 0.00396935 0.04519842
v 0.01833677 0.00564214 0.04405515
v 0.01771797 0.00142603 0.04741756
v 0.01780268 0.00309463 0.04620331
v 0.02201442 -0.00045561 0.03302383
v 0.01795836 0.00260842 0.03350704
v 0.01910059 0.00125358 0.03268916
v 0.01823022 0.00119328 0.03213098
v 0.01818287 0.00290125 0.03393387
v 0.01761276 0.00670163 0.04247431
v 0.01493549 0.00301484 0.04316166
v 0.01596230 0.00479550 0.04255494
v 0.01581668 0.00422382 0.03745100
v 0.01767777 0.00716532 0.04085336
v 0.01528590 0.00310604 0.03594591
v 0.01584827 0.00077162 0.04636705
v 0.01745977 0.00113777 0.04734154
v 0.01585908 0.00094997 0.04639214
v 0.01746685 0.00080254 0.04731111
v 0.01740298 0.00113129 0.04731287
v 0.01564379 -0.00071885 0.04538002
v 0.01742723 0.00398322 0.04466849
v 0.01779571 0.00368443 0.04555603
v 0.01782464 0.00410137 0.04491614
v 0.01387288 -0.00758988 0.03186655
v 0.01447948 0.00215546 0.04141957
v 0.01163943 -0.00252561 0.03860346
v 0.01496363 0.00277716 0.03616048
v 0.01432347 0.00170401 0.03868812
v 0.01486111 -0.00434444 0.04264692
v 0.01507458 -0.00511250 0.04229935
v 0.01458520 -0.00296584 0.04346970
v 0.01512649 -0.00472651 0.04270202
v 0.01475033 -0.00378950 0.04297838
v 0.01494529 -0.00482827 0.04231756
v 0.01276237 -0.00759920 0.03910412
v 0.01541701 -0.00262723 0.04409206
v 0.01471999 -0.00122611 0.04437499
v 0.01470208 -0.00288010 0.04360299
v 0.01386963 -0.00185649 0.04300281
v 0.01480610 0.00120842 0.04515050
v 0.01311489 -0.00038765 0.04294924
v 0.01356043 -0.01063369 0.03094150
v 0.01394079 -0.00975772 0.03060006
v 0.01379461 -0.01025144 0.03068323
v 0.01301077 -0.01047996 0.03178282
v 0.01100852 -0.00562636 0.03574886
v 0.01320375 -0.00712090 0.03251818
v 0.01292548 -0.00688705 0.03250647
v 0.01400675 -0.00719634 0.03140062
v 0.01096719 -0.00560804 0.03570414
v 0.00984562 -0.00453385 0.03592704
v 0.01150818 -0.00278235 0.03876890
v 0.01323208 -0.00060645 0.04308680
v 0.01182609 -0.00278860 0.03954184
v 0.00992729 -0.00452054 0.03574640
v 0.00978739 -0.00392861 0.03587054
v 0.00981373 -0.00341300 0.03610543
v 0.01040135 -0.00294578 0.03646614
v 0.00977751 -0.00403617 0.03631912
v 0.01012139 -0.00396297 0.03689503
v 0.01003660 -0.00452657 0.03624334
v 0.01003195 -0.00329926 0.03666513
v 0.00975389 -0.00360447 0.03634524
vn 0.816766 0.567223 0.105601
vn 0.589225 0.805324 -0.065331
vn 0.473290 -0.872771 0.119447
vn 0.227931 -0.953275 -0.198278
vn 0.254275 -0.958285 -0.130515
vn 0.141384 -0.801036 0.581681
vn -0.854438 0.519140 0.020701
vn -0.367192 0.923253 0.113016
vn 0.244804 -0.613169 0.751063
vn -0.620288 0.701881 0.350151
vn 0.396276 -0.242608 -0.885498
vn -0.740660 -0.200717 -0.641198
vn 0.228024 -0.401946 0.886817
vn 0.249519 -0.427032 0.869128
vn 0.054089 -0.378531 0.924007
vn -0.712497 -0.158685 0.683497
vn -0.649013 -0.564384 0.510149
vn -0.525789 -0.352372 0.774196
vn -0.586940 -0.081807 -0.805487
vn -0.246606 -0.662554 -0.707253
vn -0.464044 -0.763286 -0.449508
vn -0.563758 0.401058 -0.722032
vn -0.728782 0.615963 0.299110
vn -0.646703 0.527782 -0.550656
vn -0.995849 -0.052784 -0.074152
vn 0.801733 0.564172 -0.197319
vn 0.505786 -0.665104 -0.549379
vn 0.762531 -0.631311 -0.141395
vn -0.070068 0.934242 0.349688
vn -0.031476 0.696122 0.717233
vn 0.105395 0.592809 0.798417
vn 0.103421 0.512885 0.852205
vn -0.742821 -0.268888 -0.613120
vn -0.752016 -0.202560 0.627249
vn -0.920976 0.128075 0.367967
vn -0.678953 -0.512633 -0.525576
vn -0.619783 -0.782242 -0.062980
vn -0.775188 -0.196263 0.600469
vn -0.701693 -0.711858 0.029757
vn -0.786742 0.385858 0.481820
vn 0.548350 -0.607182 -0.575016
vn 0.875956 0.382003 0.294574
vn 0.725072 0.679715 -0.110714
vn 0.677465 -0.610858 -0.409750
vn 0.549044 -0.263214 -0.793265
vn 0.185776 -0.891394 -0.413406
vn 0.299984 -0.783291 -0.544485
vn 0.239640 -0.923012 -0.301034
vn -0.405299 0.231978 0.884262
vn -0.399993 0.900713 0.169475
vn 0.066036 0.043469 -0.996870
vn -0.524787 0.363411 -0.769760
vn -0.577395 0.411400 -0.705242
vn 0.401251 -0.903635 0.149806
vn -0.960550 0.185100 0.207561
vn -0.902957 0.183491 0.388587
vn -0.794395 0.263742 0.547153
vn -0.752072 -0.594111 0.285341
vn -0.661919 0.130715 0.738090
vn -0.607501 0.132760 0.783146
vn 0.304432 -0.526761 0.793627
vn -0.933614 -0.342591 0.104859
vn -0.854933 0.417508 -0.307859
vn -0.948547 -0.091465 -0.303138
vn -0.962396 -0.271641 -0.002105
vn -0.978305 0.104694 -0.178768
vn -0.858527 -0.509781 0.055268
vn -0.831045 0.511091 -0.219432
vn -0.998254 0.057891 0.011747
vn -0.992567 -0.110074 0.051906
vn -0.399276 -0.828510 0.392620
vn -0.940123 0.340405 0.017109
vn -0.718988 0.546255 -0.429723
vn -0.597143 0.494800 -0.631342
vn 0.019165 -0.350639 0.936315
vn 0.738189 -0.672558 0.052371
vn 0.505840 -0.665068 -0.549373
vn 0.505836 -0.665075 -0.549367
vn 0.698362 -0.697931 0.158690
vn 0.626812 -0.162738 -0.761986
vn -0.467185 0.742274 -0.480382
vn 0.196597 0.570376 0.797509
vn -0.481847 0.768659 -0.420698
vn -0.557126 0.477468 0.679437
vn -0.540322 -0.419633 0.729356
vn -0.813103 -0.462631 -0.353322
vn -0.694153 0.014682 0.719678
vn -0.562935 -0.067034 0.823778
vn -0.804329 -0.366704 0.467529
vn -0.690476 -0.432705 -0.579664
vn -0.646679 -0.339069 0.683256
vn -0.653603 -0.752808 -0.078002
vn -0.841462 -0.231217 -0.488345
vn -0.869523 -0.183829 -0.458406
vn 0.912231 0.308433 -0.269636
vn 0.725706 -0.621889 -0.294287
vn 0.355078 -0.853796 -0.380727
vn 0.559081 -0.737553 0.378740
vn 0.923056 -0.298174 0.243023
vn 0.669732 0.413911 0.616552
vn 0.849746 0.060002 0.523766
vn 0.717622 0.689159 -0.100396
vn 0.866304 0.214410 -0.451160
vn 0.923826 -0.133274 -0.358864
vn 0.709769 -0.235817 -0.663791
vn 0.538609 -0.518287 -0.664288
vn 0.797989 0.057096 -0.599961
vn 0.521085 0.170773 -0.836246
vn 0.429589 0.431436 -0.793295
vn 0.261599 0.446381 -0.855751
vn 0.470178 0.822421 -0.320245
vn 0.652227 0.559322 -0.511624
vn 0.645564 0.338389 0.684645
vn 0.790030 0.508210 0.342891
vn 0.936337 0.181117 0.300782
vn 0.298335 0.344943 0.889950
vn 0.164402 -0.107562 0.980511
vn 0.387878 -0.366923 -0.845528
vn 0.410974 -0.203805 -0.888574
vn 0.310973 -0.063322 -0.948307
vn 0.530142 0.814791 -0.234660
vn 0.525787 -0.763575 -0.374834
vn 0.268697 -0.952828 -0.141138
vn 0.220211 -0.973467 -0.062208
vn 0.199626 -0.977088 -0.073814
vn 0.295960 -0.846168 -0.443179
vn 0.357988 0.267644 0.894545
vn 0.090705 -0.299519 0.949769
vn 0.385501 -0.253659 0.887156
vn 0.963509 0.264257 -0.042649
vn 0.896970 -0.030743 0.441021
vn 0.949720 0.069138 0.305370
vn 0.599630 -0.556843 0.574778
vn 0.907271 0.317064 0.276279
vn 0.463568 0.667357 -0.582872
vn 0.413501 0.597317 0.687190
vn 0.860049 -0.109590 0.498302
vn 0.765951 0.312533 0.561820
vn 0.646275 0.388547 0.656779
vn 0.369045 0.201307 0.907349
vn 0.541303 -0.554573 0.632013
vn 0.576091 -0.503113 -0.644202
vn 0.277492 -0.282785 -0.918167
vn 0.387589 -0.243160 -0.889184
vn 0.565106 -0.488128 -0.665121
vn 0.208466 -0.171889 -0.962806
vn 0.270317 -0.178612 -0.946058
vn -0.322625 0.358707 -0.875923
vn 0.723808 -0.656105 -0.213607
vn 0.563715 -0.815992 -0.127990
vn -0.287668 0.333425 -0.897817
vn 0.591238 0.769078 -0.242810
vn 0.571818 0.649542 -0.501119
vn -0.485801 0.324365 -0.811656
vn 0.202817 -0.979190 0.007282
vn 0.148259 -0.752960 0.641148
vn 0.344347 -0.923562 0.168695
vn -0.658062 0.256160 0.708051
vn -0.410203 0.570191 0.711769
vn -0.440884 0.168336 0.881637
vn -0.238910 0.230004 0.943409
vn -0.363596 0.455458 0.812623
vn 0.253190 -0.634096 0.730628
vn 0.438761 -0.732590 0.520386
vn 0.360846 -0.794654 0.488175
vn 0.074107 -0.647574 0.758391
vn 0.123701 -0.762722 0.634786
vn 0.234143 -0.729755 0.642366
vn 0.096225 -0.773871 0.625991
vn -0.634497 0.390978 0.666745
vn -0.714173 0.266027 0.647446
vn -0.356348 0.752860 0.553370
vn -0.459064 0.552244 0.695907
vn -0.590763 0.527790 0.610276
vn 0.326061 -0.719975 -0.612634
vn 0.670711 -0.724801 -0.157509
vn 0.541764 -0.826680 -0.151959
vn 0.137943 -0.862064 -0.487666
vn 0.477895 -0.878398 0.005671
vn 0.090206 -0.423821 -0.901243
vn -0.287570 0.162478 -0.943877
vn -0.115686 0.138044 -0.983647
vn -0.214323 -0.489039 -0.845521
vn 0.010106 -0.101321 -0.994802
vn -0.740537 0.362059 -0.566143
vn -0.760467 0.478185 -0.439350
vn -0.771494 0.460096 -0.439442
vn 0.179777 -0.091925 -0.979403
vn -0.217042 0.123071 -0.968373
vn -0.415446 0.217772 -0.883165
vn -0.576888 0.204688 -0.790761
vn -0.373836 0.257624 -0.890998
vn -0.820287 -0.068822 -0.567796
vn -0.910259 0.165583 -0.379487
vn 0.464011 -0.881095 0.091467
vn 0.519462 -0.854486 -0.003715
vn 0.293342 -0.949303 0.113021
vn -0.979463 0.175963 -0.098431
vn -0.920905 -0.358127 0.153880
vn -0.894605 0.429400 -0.123679
vn 0.343417 -0.818614 0.460366
vn 0.143580 -0.560623 0.815528
vn 0.348852 -0.874035 0.338178
vn 0.246805 -0.730621 0.636616
vn 0.009589 -0.932896 0.360017
vn -0.370749 -0.801928 0.468462
vn -0.926673 0.329671 -0.180537
vn -0.994521 0.082912 -0.063662
vn -0.318508 -0.600635 0.733342
vn 0.234533 -0.406396 0.883084
vn -0.843122 -0.081657 0.531485
vn 0.141534 -0.378753 0.914611
vn -0.084134 -0.332170 0.939460
vn -0.661568 0.102861 0.742797
vn -0.205872 -0.463667 0.861760
vn -0.388765 -0.315076 0.865788
vn -0.168925 -0.472163 0.865174
vn -0.422986 -0.302427 0.854178
vn -0.890605 -0.250825 0.379355
vn -0.672957 -0.071176 0.736249
vn -0.598193 -0.355420 0.718221
vn -0.581897 -0.213014 0.784870
vn -0.986932 0.000713 0.161135
vn -0.926338 -0.293328 0.236341
vn -0.655349 0.186882 0.731842
vn -0.537898 -0.030652 0.842452
vn -0.486985 0.211108 0.847513
vn -0.461122 -0.561458 0.687118
vn -0.550391 -0.723757 0.416228
vn -0.394303 -0.477580 0.785138
vn -0.399582 -0.456382 0.795016
vn -0.709592 0.089607 0.698892
vn -0.335229 -0.304309 0.891637
vn -0.896603 -0.432836 0.093568
vn -0.828694 -0.519710 0.207768
vn 0.261504 -0.469923 0.843083
vn 0.240392 -0.604912 0.759140
vn -0.974387 -0.204079 0.094459
vn -0.862076 -0.463304 0.205363
vn -0.863116 -0.412473 0.291371
vn -0.564166 -0.382735 0.731595
vn -0.635118 0.554410 0.537825
vn -0.690633 0.558591 0.459350
vn -0.687892 0.569191 0.450362
vn -0.375433 0.677209 0.632801
vn -0.617551 0.675028 0.403693
vn -0.217598 0.587136 0.779693
vn -0.579779 0.586801 0.565261
vn -0.367987 0.640302 0.674239
vn -0.551235 0.589761 0.590189
vn -0.622908 0.674951 0.395508
vn -0.890363 0.445991 0.091353
vn -0.392141 -0.495045 -0.775342
vn -0.103403 -0.947060 -0.303949
vn 0.358637 -0.932782 0.036024
vn -0.692407 -0.473415 -0.544474
vn -0.770901 0.424802 -0.474610
vn -0.449578 0.183894 -0.874107
vn -0.402645 0.272630 -0.873814
vn -0.594779 -0.036258 -0.803071
vn -0.194940 -0.972471 0.127668
vn -0.396010 -0.898492 -0.189442
vn -0.812665 -0.336684 -0.475626
vn -0.510636 -0.855864 -0.082144
vn -0.788118 -0.586206 -0.187704
vn -0.935927 0.297189 -0.188995
vn -0.941878 -0.331322 0.055609
vn -0.917195 -0.392603 -0.067948
vn -0.995108 -0.091960 0.036104
vn -0.767733 0.574276 -0.284242
vn -0.861898 0.412923 -0.294325
vn -0.862109 0.427374 -0.272250
vn -0.822839 0.537032 -0.185832
vn -0.818853 0.535616 -0.206389
vn -0.786952 0.525251 -0.323755
vn -0.093510 -0.955939 0.278273
vn -0.228303 -0.951032 0.208366
vn -0.687400 -0.721318 0.084747
vn -0.854324 0.503764 -0.127876
vn -0.781951 -0.595148 0.185340
vn -0.969761 0.235870 -0.062684
vn -0.545765 -0.770817 0.328606
vn -0.458822 -0.834892 0.304037
vn -0.873371 -0.467246 0.137493
vn -0.528233 0.350924 -0.773189
vn -0.675634 0.509626 -0.532729
vn -0.906210 -0.004077 0.422808
vn -0.992164 0.124755 -0.006896
vn -0.511104 -0.800436 0.313169
vn -0.425995 -0.791309 0.438586
vn -0.859469 -0.450580 0.241435
vn -0.969090 -0.012572 0.246389
vn -0.877847 -0.374867 0.298094
vn -0.865995 0.423805 -0.265409
vn -0.977824 0.209302 -0.007226
vn -0.430172 -0.811490 0.395520
vn -0.785548 -0.462195 0.411450
vn -0.696503 -0.455315 0.554592
vn -0.634337 -0.489184 0.598595
vn -0.735212 -0.409258 0.540343
vn -0.760361 -0.120923 -0.638145
vn -0.753794 -0.230112 -0.615503
vn -0.503787 0.408972 -0.760881
vn -0.497800 -0.754373 0.427920
vn -0.666352 -0.485482 0.565935
vn -0.436421 -0.776692 0.454187
vn -0.557741 0.415026 -0.718803
vn 0.832166 -0.300829 0.465833
vn 0.302723 -0.316433 0.899015
vn 0.143181 -0.920432 0.363737
vn 0.666939 0.607617 -0.431271
vn 0.651131 0.623854 -0.432243
vn 0.505829 -0.665076 -0.549373
vn 0.646478 -0.761830 -0.041005
vn 0.505827 -0.665077 -0.549374
vn 0.505830 -0.665077 -0.549371
vn 0.505856 -0.665062 -0.549365
vn 0.626851 -0.162708 -0.761960
vn 0.800204 -0.523669 -0.292310
vn 0.752748 -0.656421 0.049807
vn 0.626818 -0.162787 -0.761971
vn 0.626798 -0.162820 -0.761981
vn 0.626822 -0.162760 -0.761973
vn 0.626818 -0.162802 -0.761968
vn 0.969802 -0.094558 -0.224819
vn 0.221898 -0.968629 0.111886
vn 0.517750 0.531620 0.670310
vn -0.341484 0.930907 0.129614
vn -0.273540 0.945473 0.176795
vn 0.077612 0.631686 0.771330
vn -0.032390 0.592998 0.804552
vn -0.059145 0.522865 0.850361
vn -0.010627 0.684500 0.728935
vn 0.435755 0.650972 -0.621573
vn 0.222841 0.723240 -0.653656
vn 0.400266 0.548130 -0.734399
vn 0.320380 0.515918 -0.794471
vn 0.418554 0.699613 -0.579098
vn -0.665735 0.589910 0.456949
vn -0.868364 0.492915 0.054576
vn -0.839234 0.538226 0.077450
vn -0.508796 0.767277 -0.390401
vn -0.524794 0.763716 -0.375938
vn -0.499004 0.752051 -0.430598
vn -0.565986 -0.399807 0.720981
vn -0.421889 0.132284 0.896945
vn -0.640127 -0.024930 0.767865
vn -0.460888 -0.133003 0.877435
vn -0.494322 -0.353818 0.794014
vn -0.559092 -0.407052 0.722305
vn -0.583493 0.535841 0.610254
vn -0.254879 0.688681 0.678789
vn -0.702535 0.533302 0.471204
vn -0.848490 -0.200110 -0.489919
vn -0.880460 0.473765 -0.018369
vn -0.815079 0.564238 0.131463
vn -0.824314 0.553547 0.118710
vn -0.860176 0.509966 -0.005666
vn -0.788643 -0.420061 0.448989
vn -0.739037 -0.356628 0.571525
vn -0.860022 -0.406105 0.308934
vn -0.771480 -0.413932 0.483197
vn -0.893484 -0.358107 0.271009
vn -0.936416 -0.127225 0.327014
vn -0.953499 0.151126 0.260770
vn -0.513860 -0.412256 0.752325
vn -0.526893 -0.388195 0.756101
vn -0.428100 -0.378667 0.820574
vn -0.638322 -0.541334 0.547268
vn -0.709517 0.315051 0.630339
vn -0.887151 0.451298 0.096405
vn -0.793207 -0.173820 -0.583617
vn -0.740879 0.141243 -0.656619
vn -0.766781 0.084943 -0.636264
vn -0.879873 0.126387 -0.458094
vn -0.385064 -0.898075 0.212573
vn -0.523760 -0.842857 0.123562
vn -0.655895 -0.584313 -0.477892
vn -0.751113 -0.413249 -0.514835
vn -0.649864 -0.760015 -0.007401
vn -0.960780 -0.181219 -0.209910
vn -0.901656 0.261857 0.344161
vn -0.755052 -0.271704 0.596719
vn -0.932957 0.026764 0.358991
vn -0.860430 -0.219186 -0.460020
vn -0.982508 -0.091185 -0.162368
vn -0.636146 0.770625 0.038142
vn -0.722501 0.577743 -0.379744
vn -0.846165 -0.249163 0.471086
vn -0.773686 -0.311112 0.551923
vn -0.670690 -0.615602 0.413775
vn -0.798923 0.413673 0.436574
vn -0.751393 0.635143 0.178892
f 1//1 42//42 104//104
f 42//42 96//96 104//104
f 95//95 1//1 104//104
f 104//104 41//41 95//95
f 96//96 41//41 104//104
f 41//41 96//96 97//97
f 102//102 43//43 95//95
f 95//95 43//43 1//1
f 113//113 1//1 26//26
f 42//42 99//99 96//96
f 308//308 96//96 99//99
f 96//96 98//98 326//326
f 96//96 308//308 98//98
f 309//309 100//100 116//116
f 326//326 97//97 96//96
f 98//98 310//310 326//326
f 308//308 309//309 98//98
f 125//125 97//97 326//326
f 98//98 309//309 310//310
f 42//42 308//308 99//99
f 113//113 42//42 1//1
f 42//42 101//101 308//308
f 308//308 100//100 309//309
f 42//42 100//100 101//101
f 101//101 100//100 308//308
f 42//42 113//113 100//100
f 100//100 113//113 116//116
f 45//45 41//41 47//47
f 41//41 97//97 47//47
f 103//103 102//102 95//95
f 95//95 41//41 107//107
f 107//107 102//102 103//103
f 107//107 103//103 95//95
f 45//45 106//106 41//41
f 45//45 107//107 105//105
f 107//107 41//41 105//105
f 105//105 106//106 45//45
f 41//41 106//106 105//105
f 102//102 107//107 109//109
f 108//108 107//107 45//45
f 45//45 109//109 108//108
f 108//108 109//109 107//107
f 110//110 45//45 336//336
f 45//45 337//337 336//336
f 110//110 336//336 334//334
f 111//111 102//102 109//109
f 102//102 111//111 152//152
f 109//109 121//121 111//111
f 111//111 121//121 152//152
f 334//334 121//121 110//110
f 110//110 109//109 45//45
f 121//121 109//109 110//110
f 47//47 97//97 46//46
f 43//43 2//2 311//311
f 2//2 43//43 102//102
f 125//125 46//46 97//97
f 124//124 125//125 326//326
f 309//309 128//128 310//310
f 26//26 114//114 113//113
f 26//26 115//115 114//114
f 1//1 43//43 26//26
f 43//43 112//112 26//26
f 115//115 131//131 114//114
f 131//131 113//113 114//114
f 112//112 43//43 311//311
f 116//116 113//113 127//127
f 309//309 116//116 117//117
f 116//116 127//127 117//117
f 128//128 309//309 117//117
f 128//128 117//117 127//127
f 119//119 45//45 118//118
f 145//145 118//118 44//44
f 118//118 45//45 44//44
f 119//119 120//120 45//45
f 120//120 148//148 45//45
f 118//118 120//120 119//119
f 45//45 151//151 337//337
f 148//148 151//151 45//45
f 146//146 148//148 120//120
f 122//122 45//45 47//47
f 319//319 196//196 320//320
f 176//176 196//196 319//319
f 123//123 48//48 46//46
f 123//123 126//126 48//48
f 4//4 3//3 122//122
f 4//4 122//122 48//48
f 122//122 47//47 48//48
f 28//28 76//76 314//314
f 28//28 314//314 195//195
f 195//195 76//76 5//5
f 314//314 76//76 195//195
f 3//3 79//79 149//149
f 77//77 78//78 317//317
f 78//78 27//27 316//316
f 77//77 315//315 313//313
f 315//315 27//27 313//313
f 78//78 316//316 317//317
f 316//316 27//27 315//315
f 317//317 315//315 77//77
f 316//316 315//315 317//317
f 318//318 323//323 80//80
f 324//324 321//321 80//80
f 318//318 321//321 324//324
f 318//318 324//324 323//323
f 324//324 80//80 322//322
f 323//323 322//322 80//80
f 324//324 322//322 323//323
f 126//126 4//4 48//48
f 46//46 48//48 47//47
f 3//3 320//320 79//79
f 320//320 196//196 79//79
f 319//319 28//28 176//176
f 320//320 325//325 319//319
f 319//319 325//325 28//28
f 2//2 102//102 152//152
f 121//121 312//312 152//152
f 310//310 128//128 75//75
f 124//124 123//123 125//125
f 46//46 125//125 123//123
f 123//123 5//5 126//126
f 156//156 157//157 155//155
f 157//157 5//5 123//123
f 155//155 123//123 124//124
f 157//157 123//123 155//155
f 75//75 6//6 310//310
f 6//6 156//156 326//326
f 6//6 326//326 310//310
f 128//128 129//129 75//75
f 26//26 112//112 130//130
f 127//127 129//129 128//128
f 6//6 75//75 212//212
f 212//212 75//75 129//129
f 129//129 127//127 113//113
f 131//131 129//129 113//113
f 131//131 115//115 130//130
f 131//131 130//130 132//132
f 2//2 152//152 311//311
f 152//152 112//112 311//311
f 152//152 312//312 112//112
f 112//112 312//312 153//153
f 112//112 153//153 135//135
f 135//135 130//130 112//112
f 335//335 81//81 338//338
f 131//131 133//133 129//129
f 129//129 133//133 163//163
f 132//132 137//137 131//131
f 131//131 137//137 133//133
f 132//132 130//130 134//134
f 130//130 135//135 134//134
f 153//153 134//134 135//135
f 153//153 327//327 136//136
f 172//172 30//30 29//29
f 31//31 30//30 331//331
f 8//8 50//50 328//328
f 8//8 328//328 329//329
f 50//50 7//7 172//172
f 50//50 172//172 328//328
f 329//329 172//172 29//29
f 328//328 172//172 329//329
f 30//30 172//172 331//331
f 331//331 172//172 173//173
f 133//133 137//137 141//141
f 141//141 164//164 133//133
f 137//137 140//140 141//141
f 164//164 141//141 165//165
f 165//165 168//168 133//133
f 164//164 165//165 133//133
f 165//165 141//141 167//167
f 141//141 140//140 166//166
f 141//141 166//166 167//167
f 153//153 136//136 134//134
f 136//136 138//138 134//134
f 136//136 327//327 138//138
f 134//134 138//138 132//132
f 132//132 138//138 137//137
f 138//138 327//327 139//139
f 138//138 139//139 137//137
f 137//137 139//139 140//140
f 31//31 333//333 82//82
f 31//31 82//82 332//332
f 82//82 333//333 332//332
f 333//333 352//352 332//332
f 31//31 330//330 333//333
f 330//330 352//352 333//333
f 330//330 173//173 352//352
f 330//330 31//31 331//331
f 330//330 331//331 173//173
f 32//32 31//31 332//332
f 45//45 149//149 44//44
f 44//44 149//149 145//145
f 149//149 142//142 145//145
f 142//142 51//51 188//188
f 189//189 188//188 51//51
f 51//51 142//142 11//11
f 147//147 146//146 145//145
f 142//142 147//147 144//144
f 144//144 145//145 142//142
f 145//145 144//144 147//147
f 120//120 118//118 143//143
f 120//120 143//143 146//146
f 118//118 145//145 143//143
f 146//146 143//143 145//145
f 142//142 188//188 147//147
f 189//189 148//148 146//146
f 188//188 189//189 147//147
f 189//189 146//146 147//147
f 3//3 149//149 122//122
f 150//150 142//142 149//149
f 122//122 149//149 45//45
f 150//150 149//149 196//196
f 151//151 148//148 285//285
f 338//338 334//334 336//336
f 338//338 336//336 335//335
f 81//81 335//335 154//154
f 337//337 335//335 336//336
f 335//335 337//337 154//154
f 81//81 154//154 286//286
f 337//337 151//151 154//154
f 176//176 28//28 195//195
f 196//196 176//176 195//195
f 196//196 195//195 54//54
f 149//149 79//79 196//196
f 151//151 285//285 154//154
f 154//154 285//285 286//286
f 157//157 156//156 201//201
f 157//157 201//201 54//54
f 202//202 201//201 6//6
f 6//6 201//201 156//156
f 15//15 212//212 13//13
f 212//212 210//210 13//13
f 212//212 129//129 210//210
f 14//14 13//13 210//210
f 236//236 210//210 129//129
f 81//81 344//344 83//83
f 9//9 61//61 237//237
f 61//61 14//14 210//210
f 61//61 210//210 236//236
f 237//237 236//236 129//129
f 61//61 236//236 237//237
f 129//129 163//163 237//237
f 237//237 168//168 9//9
f 133//133 168//168 163//163
f 163//163 168//168 237//237
f 10//10 170//170 246//246
f 246//246 159//159 245//245
f 171//171 159//159 170//170
f 170//170 158//158 246//246
f 159//159 158//158 170//170
f 158//158 159//159 246//246
f 160//160 159//159 171//171
f 49//49 159//159 160//160
f 161//161 159//159 49//49
f 162//162 161//161 49//49
f 162//162 159//159 161//161
f 245//245 159//159 249//249
f 247//247 159//159 162//162
f 159//159 247//247 249//249
f 172//172 174//174 173//173
f 170//170 174//174 171//171
f 171//171 174//174 160//160
f 174//174 49//49 160//160
f 242//242 174//174 341//341
f 49//49 174//174 242//242
f 242//242 341//341 243//243
f 344//344 73//73 342//342
f 83//83 344//344 343//343
f 344//344 342//342 343//343
f 339//339 172//172 7//7
f 174//174 172//172 339//339
f 341//341 339//339 7//7
f 174//174 339//339 341//341
f 168//168 165//165 167//167
f 9//9 168//168 169//169
f 169//169 167//167 166//166
f 168//168 167//167 169//169
f 366//366 85//85 350//350
f 85//85 345//345 350//350
f 10//10 250//250 352//352
f 10//10 251//251 250//250
f 347//347 370//370 91//91
f 250//250 251//251 370//370
f 352//352 250//250 332//332
f 250//250 370//370 84//84
f 250//250 84//84 332//332
f 370//370 347//347 84//84
f 10//10 246//246 251//251
f 246//246 248//248 251//251
f 246//246 245//245 248//248
f 170//170 10//10 351//351
f 353//353 10//10 352//352
f 351//351 10//10 353//353
f 170//170 351//351 173//173
f 351//351 353//353 173//173
f 353//353 352//352 173//173
f 173//173 174//174 170//170
f 348//348 32//32 332//332
f 348//348 332//332 346//346
f 332//332 84//84 346//346
f 84//84 347//347 349//349
f 347//347 91//91 349//349
f 349//349 91//91 348//348
f 349//349 348//348 346//346
f 84//84 349//349 346//346
f 196//196 177//177 150//150
f 177//177 175//175 142//142
f 177//177 142//142 150//150
f 178//178 175//175 177//177
f 178//178 177//177 179//179
f 179//179 177//177 196//196
f 20//20 175//175 178//178
f 253//253 19//19 183//183
f 20//20 183//183 175//175
f 253//253 183//183 20//20
f 178//178 179//179 254//254
f 179//179 196//196 255//255
f 21//21 20//20 178//178
f 21//21 178//178 254//254
f 254//254 179//179 255//255
f 142//142 175//175 11//11
f 11//11 175//175 180//180
f 182//182 11//11 181//181
f 51//51 11//11 182//182
f 175//175 183//183 180//180
f 183//183 19//19 52//52
f 180//180 183//183 11//11
f 52//52 184//184 183//183
f 53//53 51//51 52//52
f 52//52 51//51 182//182
f 184//184 182//182 183//183
f 183//183 181//181 11//11
f 182//182 181//181 183//183
f 52//52 182//182 184//184
f 191//191 51//51 53//53
f 190//190 51//51 191//191
f 185//185 12//12 191//191
f 185//185 191//191 53//53
f 53//53 52//52 257//257
f 257//257 52//52 373//373
f 12//12 185//185 193//193
f 372//372 374//374 19//19
f 373//373 52//52 19//19
f 374//374 373//373 19//19
f 185//185 53//53 187//187
f 187//187 53//53 257//257
f 185//185 187//187 186//186
f 193//193 185//185 194//194
f 12//12 260//260 191//191
f 191//191 260//260 190//190
f 187//187 271//271 194//194
f 186//186 194//194 185//185
f 187//187 194//194 186//186
f 33//33 12//12 193//193
f 379//379 193//193 194//194
f 33//33 193//193 379//379
f 354//354 194//194 86//86
f 379//379 194//194 354//354
f 148//148 189//189 259//259
f 192//192 189//189 51//51
f 190//190 192//192 51//51
f 190//190 258//258 192//192
f 258//258 303//303 259//259
f 192//192 259//259 189//189
f 259//259 192//192 258//258
f 260//260 303//303 258//258
f 260//260 258//258 190//190
f 255//255 196//196 197//197
f 197//197 196//196 54//54
f 194//194 268//268 86//86
f 66//66 268//268 194//194
f 200//200 66//66 272//272
f 268//268 66//66 269//269
f 66//66 200//200 198//198
f 66//66 198//198 269//269
f 148//148 259//259 303//303
f 148//148 303//303 285//285
f 255//255 197//197 261//261
f 261//261 197//197 277//277
f 197//197 276//276 277//277
f 198//198 199//199 269//269
f 284//284 199//199 207//207
f 199//199 200//200 207//207
f 199//199 198//198 200//200
f 200//200 279//279 68//68
f 199//199 284//284 283//283
f 199//199 283//283 67//67
f 73//73 344//344 286//286
f 344//344 81//81 286//286
f 388//388 285//285 74//74
f 286//286 285//285 388//388
f 5//5 157//157 195//195
f 157//157 54//54 195//195
f 201//201 203//203 54//54
f 276//276 197//197 205//205
f 205//205 54//54 203//203
f 197//197 54//54 205//205
f 201//201 202//202 204//204
f 204//204 205//205 203//203
f 202//202 205//205 204//204
f 201//201 204//204 203//203
f 202//202 209//209 205//205
f 209//209 206//206 205//205
f 209//209 71//71 206//206
f 290//290 71//71 209//209
f 206//206 71//71 205//205
f 205//205 289//289 276//276
f 71//71 289//289 205//205
f 221//221 16//16 287//287
f 290//290 209//209 221//221
f 207//207 208//208 284//284
f 208//208 234//234 284//284
f 72//72 208//208 294//294
f 72//72 55//55 208//208
f 72//72 35//35 55//55
f 55//55 219//219 208//208
f 284//284 234//234 282//282
f 234//234 235//235 282//282
f 208//208 219//219 234//234
f 219//219 235//235 234//234
f 213//213 202//202 6//6
f 209//209 202//202 213//213
f 6//6 212//212 213//213
f 209//209 216//216 221//221
f 216//216 209//209 213//213
f 213//213 217//217 216//216
f 16//16 221//221 220//220
f 212//212 15//15 215//215
f 34//34 360//360 87//87
f 34//34 87//87 88//88
f 87//87 211//211 225//225
f 87//87 225//225 59//59
f 87//87 59//59 88//88
f 88//88 218//218 15//15
f 360//360 364//364 211//211
f 360//360 211//211 87//87
f 211//211 56//56 225//225
f 211//211 364//364 56//56
f 364//364 238//238 56//56
f 212//212 217//217 213//213
f 215//215 217//217 212//212
f 216//216 217//217 215//215
f 216//216 215//215 218//218
f 215//215 15//15 218//218
f 225//225 214//214 59//59
f 214//214 225//225 60//60
f 221//221 216//216 222//222
f 216//216 218//218 222//222
f 220//220 218//218 88//88
f 221//221 222//222 220//220
f 222//222 218//218 220//220
f 35//35 16//16 220//220
f 35//35 220//220 214//214
f 35//35 214//214 55//55
f 219//219 55//55 232//232
f 60//60 55//55 214//214
f 59//59 220//220 88//88
f 214//214 220//220 59//59
f 232//232 55//55 60//60
f 219//219 232//232 60//60
f 72//72 365//365 35//35
f 56//56 223//223 224//224
f 56//56 238//238 223//223
f 223//223 238//238 224//224
f 224//224 238//238 62//62
f 226//226 57//57 224//224
f 57//57 56//56 224//224
f 226//226 225//225 57//57
f 225//225 56//56 57//57
f 62//62 58//58 224//224
f 17//17 58//58 239//239
f 239//239 58//58 62//62
f 239//239 363//363 240//240
f 225//225 226//226 227//227
f 226//226 228//228 231//231
f 231//231 230//230 226//226
f 58//58 228//228 224//224
f 228//228 226//226 224//224
f 229//229 228//228 17//17
f 17//17 228//228 58//58
f 17//17 239//239 240//240
f 226//226 60//60 227//227
f 60//60 225//225 227//227
f 219//219 60//60 233//233
f 233//233 60//60 226//226
f 233//233 226//226 230//230
f 228//228 233//233 231//231
f 231//231 233//233 230//230
f 299//299 219//219 233//233
f 299//299 233//233 228//228
f 282//282 235//235 298//298
f 235//235 219//219 298//298
f 298//298 219//219 297//297
f 18//18 366//366 368//368
f 34//34 362//362 360//360
f 362//362 359//359 360//360
f 362//362 361//361 363//363
f 360//360 359//359 364//364
f 362//362 363//363 359//359
f 364//364 359//359 238//238
f 238//238 363//363 62//62
f 359//359 363//363 238//238
f 363//363 361//361 240//240
f 62//62 363//363 239//239
f 18//18 368//368 367//367
f 367//367 368//368 366//366
f 361//361 89//89 240//240
f 240//240 369//369 17//17
f 89//89 369//369 240//240
f 17//17 299//299 229//229
f 229//229 299//299 228//228
f 18//18 367//367 241//241
f 367//367 350//350 241//241
f 367//367 366//366 350//350
f 241//241 350//350 345//345
f 17//17 369//369 299//299
f 299//299 369//369 89//89
f 38//38 91//91 383//383
f 371//371 252//252 358//358
f 252//252 355//355 358//358
f 49//49 242//242 162//162
f 162//162 243//243 244//244
f 243//243 162//162 242//242
f 340//340 243//243 341//341
f 244//244 243//243 340//340
f 252//252 244//244 340//340
f 251//251 248//248 252//252
f 248//248 244//244 252//252
f 252//252 340//340 355//355
f 355//355 341//341 358//358
f 340//340 341//341 355//355
f 358//358 7//7 357//357
f 341//341 7//7 358//358
f 91//91 370//370 383//383
f 370//370 371//371 383//383
f 251//251 252//252 370//370
f 370//370 252//252 371//371
f 248//248 245//245 249//249
f 244//244 247//247 162//162
f 248//248 249//249 244//244
f 249//249 247//247 244//244
f 256//256 372//372 253//253
f 253//253 372//372 19//19
f 256//256 253//253 20//20
f 372//372 375//375 374//374
f 374//374 375//375 373//373
f 375//375 257//257 373//373
f 263//263 372//372 256//256
f 21//21 256//256 20//20
f 256//256 21//21 263//263
f 265//265 263//263 21//21
f 372//372 263//263 375//375
f 375//375 263//263 64//64
f 63//63 375//375 64//64
f 271//271 187//187 270//270
f 257//257 375//375 63//63
f 187//187 257//257 270//270
f 257//257 63//63 270//270
f 272//272 66//66 194//194
f 270//270 272//272 271//271
f 271//271 272//272 194//194
f 21//21 254//254 262//262
f 254//254 255//255 262//262
f 255//255 261//261 264//264
f 255//255 264//264 262//262
f 264//264 265//265 262//262
f 262//262 265//265 21//21
f 263//263 265//265 64//64
f 261//261 278//278 264//264
f 278//278 265//265 264//264
f 276//276 289//289 277//277
f 277//277 278//278 261//261
f 289//289 278//278 277//277
f 265//265 278//278 64//64
f 278//278 65//65 64//64
f 65//65 278//278 267//267
f 63//63 64//64 266//266
f 64//64 65//65 266//266
f 69//69 274//274 266//266
f 281//281 279//279 69//69
f 266//266 274//274 63//63
f 69//69 279//279 274//274
f 379//379 354//354 86//86
f 86//86 377//377 37//37
f 377//377 67//67 283//283
f 269//269 199//199 268//268
f 199//199 67//67 268//268
f 272//272 273//273 200//200
f 67//67 377//377 268//268
f 268//268 377//377 86//86
f 270//270 63//63 274//274
f 273//273 275//275 274//274
f 270//270 274//274 272//272
f 272//272 275//275 273//273
f 274//274 275//275 272//272
f 279//279 273//273 274//274
f 273//273 279//279 200//200
f 303//303 74//74 285//285
f 260//260 12//12 302//302
f 260//260 302//302 303//303
f 86//86 378//378 379//379
f 379//379 36//36 90//90
f 378//378 36//36 379//379
f 379//379 90//90 33//33
f 22//22 303//303 301//301
f 303//303 302//302 301//301
f 301//301 302//302 12//12
f 278//278 289//289 267//267
f 290//290 291//291 71//71
f 291//291 70//70 71//71
f 70//70 288//288 281//281
f 69//69 266//266 65//65
f 69//69 65//65 267//267
f 69//69 267//267 70//70
f 281//281 69//69 70//70
f 71//71 70//70 289//289
f 289//289 280//280 267//267
f 70//70 280//280 289//289
f 280//280 70//70 267//267
f 208//208 207//207 294//294
f 207//207 200//200 68//68
f 68//68 279//279 281//281
f 207//207 68//68 294//294
f 296//296 283//283 282//282
f 37//37 377//377 376//376
f 377//377 283//283 376//376
f 284//284 282//282 283//283
f 286//286 388//388 73//73
f 73//73 388//388 23//23
f 287//287 35//35 365//365
f 287//287 365//365 292//292
f 70//70 291//291 288//288
f 293//293 292//292 288//288
f 291//291 293//293 288//288
f 281//281 288//288 295//295
f 281//281 295//295 72//72
f 290//290 293//293 291//291
f 290//290 221//221 292//292
f 221//221 287//287 292//292
f 290//290 292//292 293//293
f 288//288 292//292 295//295
f 295//295 365//365 72//72
f 292//292 365//365 295//295
f 281//281 294//294 68//68
f 72//72 294//294 281//281
f 282//282 304//304 296//296
f 282//282 298//298 304//304
f 298//298 305//305 304//304
f 298//298 300//300 305//305
f 357//357 23//23 356//356
f 23//23 392//392 356//356
f 392//392 38//38 382//382
f 356//356 392//392 382//382
f 305//305 306//306 304//304
f 306//306 376//376 283//283
f 306//306 283//283 296//296
f 306//306 296//296 304//304
f 298//298 297//297 300//300
f 297//297 219//219 299//299
f 300//300 299//299 89//89
f 297//297 299//299 300//300
f 38//38 384//384 382//382
f 358//358 357//357 356//356
f 358//358 356//356 371//371
f 382//382 384//384 371//371
f 382//382 371//371 356//356
f 384//384 38//38 383//383
f 384//384 383//383 371//371
f 380//380 37//37 376//376
f 94//94 93//93 385//385
f 93//93 381//381 385//385
f 380//380 39//39 92//92
f 380//380 92//92 37//37
f 305//305 391//391 306//306
f 391//391 39//39 380//380
f 306//306 380//380 376//376
f 391//391 380//380 306//306
f 24//24 74//74 307//307
f 24//24 307//307 22//22
f 74//74 303//303 307//307
f 307//307 303//303 22//22
f 94//94 385//385 386//386
f 385//385 381//381 386//386
f 386//386 381//381 25//25
f 94//94 386//386 25//25
f 74//74 387//387 388//388
f 305//305 300//300 390//390
f 390//390 300//300 389//389
f 392//392 40//40 38//38
f 305//305 390//390 391//391
f 390//390 389//389 391//391
f 391//391 389//389 39//39
f 40//40 392//392 393//393
f 392//392 23//23 388//388
f 393//393 388//388 387//387
f 392//392 388//388 393//393
