# decimated by Tools/decimate_anatomy.py from 1792 triangles (BodyParts3D, CC BY 4.0)
v -0.02103269 -0.00673613 0.17071979
v -0.02213166 -0.00674708 0.17298338
v -0.02503195 -0.00558539 0.16697623
v -0.02600487 -0.00533859 0.16744716
v -0.02640501 -0.01324300 0.17686157
v -0.02312348 -0.01403017 0.17984483
v -0.02755395 -0.00686779 0.16874269
v -0.02687512 -0.00773097 0.17243361
v -0.02673068 -0.00825554 0.17367402
v -0.02632259 -0.01239556 0.17587599
v -0.02694014 -0.01290892 0.17882334
v -0.02073141 -0.00673461 0.17010710
v -0.02070043 -0.00657808 0.16973866
v -0.02125576 -0.00364160 0.17120016
v -0.02211944 -0.00891887 0.17376161
v -0.02239870 -0.01267084 0.17761600
v -0.02666028 -0.00556870 0.16764385
v -0.02292035 -0.01030281 0.17676151
v -0.02563175 -0.01470914 0.17908943
v -0.02371611 -0.01419330 0.17965497
v -0.02384317 -0.01061105 0.17841418
v -0.02856082 -0.00565642 0.16933502
v -0.02678458 -0.00215147 0.16937906
v -0.02668943 -0.01183361 0.17811374
v -0.02112246 -0.00353394 0.17107321
v -0.02472120 -0.00827485 0.17062148
v -0.02172062 -0.00715363 0.17059543
v -0.02746680 -0.00375886 0.17014953
v -0.02654234 -0.01019989 0.17485277
v -0.02672104 -0.00889377 0.17441264
v -0.02499266 -0.01336101 0.17665479
v -0.02407876 -0.01242901 0.18004492
v -0.02566264 -0.00585308 0.16738506
v -0.02206449 -0.00686041 0.17265903
v -0.02244051 -0.01334189 0.17881285
v -0.02259895 -0.01369908 0.17879802
v -0.02623835 -0.00540373 0.16752793
v -0.02080435 -0.00379215 0.16923505
v -0.02445685 -0.00571240 0.17330189
v -0.02671165 -0.01337343 0.17896746
v -0.02514382 -0.01462377 0.17927212
v -0.02321365 -0.01272882 0.18005529
v -0.02687649 -0.00209246 0.16950803
v -0.02841667 -0.00520714 0.16938117
v -0.02621475 -0.00194008 0.16956128
v -0.02530782 -0.00179475 0.16993001
v -0.02585024 -0.00867802 0.17602421
v -0.02406476 -0.00511069 0.16730839
v -0.02357817 -0.01302344 0.17647871
v -0.02625033 -0.00584470 0.16761039
v -0.02254543 -0.00220841 0.17009431
v -0.02533685 -0.00719066 0.16846832
v -0.02170048 -0.00719093 0.17141804
v -0.02517728 -0.00722384 0.16845547
v -0.02396564 -0.01207288 0.17513281
v -0.02479662 -0.01199125 0.17503409
v -0.02245017 -0.01259417 0.17743662
v -0.02277015 -0.01097184 0.17723079
v -0.02289832 -0.01040902 0.17677212
v -0.02279531 -0.01091049 0.17723129
v -0.02382963 -0.01039460 0.17816342
v -0.02378274 -0.01042382 0.17811083
v -0.02366841 -0.01380673 0.17763190
v -0.02373293 -0.01057502 0.17822849
v -0.02314721 -0.01276265 0.18002032
v -0.02274315 -0.01196762 0.17901918
v -0.02586381 -0.00771572 0.16974634
v -0.02660147 -0.00199384 0.16952664
v -0.02464129 -0.00527311 0.17295808
v -0.02643950 -0.00243781 0.17019755
v -0.02509272 -0.00819073 0.17063880
v -0.02709634 -0.00709365 0.17195973
v -0.02678727 -0.00676583 0.17262684
v -0.02711416 -0.00641164 0.17197879
v -0.02519366 -0.01138506 0.17441924
v -0.02639754 -0.01257114 0.17609292
v -0.02664753 -0.01208270 0.17595322
v -0.02669062 -0.01239832 0.17626450
v -0.02658299 -0.00745293 0.17364713
v -0.02417238 -0.01327228 0.17637441
v -0.02670254 -0.01003891 0.17565176
v -0.02688777 -0.01222773 0.17807133
v -0.02061790 -0.00639008 0.17013652
v -0.02043059 -0.00634717 0.16936391
v -0.02196241 -0.00587852 0.16838008
v -0.02050625 -0.00591255 0.16917565
v -0.02077287 -0.00480019 0.16896532
v -0.02135715 -0.00554384 0.16869037
v -0.02232979 -0.00477173 0.16811515
v -0.02143210 -0.00491640 0.16861284
v -0.02053485 -0.00442700 0.17110716
v -0.02034092 -0.00443419 0.16924013
v -0.02049932 -0.00446055 0.17101362
v -0.02095071 -0.00364360 0.17059658
v -0.02032358 -0.00414874 0.16959555
v -0.02397553 -0.00538152 0.17300052
v -0.02118599 -0.00672330 0.17097890
v -0.02288882 -0.01057428 0.17651863
v -0.02238367 -0.00840019 0.17368722
v -0.02435647 -0.00571299 0.17331721
v -0.02260047 -0.00772779 0.17441970
v -0.02260555 -0.00752511 0.17419411
v -0.02302710 -0.01388367 0.17971921
v -0.02590653 -0.00561654 0.16745005
v -0.02684550 -0.00545706 0.16776226
v -0.02603944 -0.00582310 0.16750520
v -0.02800673 -0.00568461 0.16877932
v -0.02717920 -0.00589158 0.16803408
v -0.02379676 -0.00215934 0.17057372
v -0.02444856 -0.00198404 0.17035320
v -0.02436670 -0.00173084 0.16993364
v -0.02271617 -0.00222879 0.16967475
v -0.02569441 -0.00198223 0.16958305
v -0.02420857 -0.00281221 0.16936334
v -0.02649982 -0.01035255 0.17481013
v -0.02669948 -0.00827870 0.17357642
v -0.02645536 -0.00873509 0.17311179
v -0.02220543 -0.00799359 0.17256902
v -0.02287042 -0.01088243 0.17616320
v -0.02228814 -0.01298575 0.17868483
v -0.02284329 -0.01101970 0.17660385
v -0.02215676 -0.00666334 0.17302436
v -0.02411244 -0.00919169 0.17694835
v -0.02466197 -0.00651117 0.17409638
v -0.02438616 -0.01233136 0.18003020
v -0.02605967 -0.01428665 0.17891818
v -0.02297419 -0.01404089 0.17927139
v -0.02426591 -0.01436828 0.17928450
v -0.02446961 -0.01318432 0.18022739
v -0.02512997 -0.01387774 0.17967516
v -0.02323601 -0.01369316 0.17995840
v -0.02298100 -0.01274795 0.17976585
v -0.02296781 -0.01314042 0.17972042
v -0.02309864 -0.01195860 0.17942771
v -0.02269857 -0.01202678 0.17903014
v -0.02778819 -0.00629722 0.16872158
v -0.02783968 -0.00608115 0.16871731
v -0.02750970 -0.00589040 0.16835202
v -0.02720817 -0.00273809 0.16943471
v -0.02745366 -0.00599136 0.17123201
v -0.02508903 -0.00487796 0.16729949
v -0.02661453 -0.00299890 0.16888211
v -0.02686535 -0.00387026 0.16856234
v -0.02632483 -0.00205084 0.16988730
v -0.02733773 -0.00343640 0.17014061
v -0.02607495 -0.00184820 0.16986160
v -0.02411302 -0.00175166 0.16977842
v -0.02515686 -0.00182626 0.16975214
v -0.02679952 -0.00790036 0.17240093
v -0.02629588 -0.00900662 0.17276599
v -0.02643925 -0.00865324 0.17261586
v -0.02748583 -0.00697526 0.16958424
v -0.02707500 -0.00733092 0.17102095
v -0.02755393 -0.00678256 0.17042731
v -0.02744277 -0.00610595 0.17123526
v -0.02682381 -0.00719293 0.17265624
v -0.02659532 -0.00781666 0.17405967
v -0.02604798 -0.00843378 0.17554230
v -0.02667143 -0.00984615 0.17561374
v -0.02669700 -0.01003968 0.17575298
v -0.02645954 -0.01355324 0.17723666
v -0.02663821 -0.01286843 0.17673028
v -0.02649215 -0.01364964 0.17857112
v -0.02687251 -0.01289708 0.17771673
v -0.02672501 -0.01068270 0.17650191
v -0.02634519 -0.01008353 0.17667275
v -0.02652527 -0.01302713 0.17916662
v -0.02597864 -0.01436080 0.17905509
v -0.02683189 -0.01300838 0.17905144
v -0.02525978 -0.01263315 0.17972822
v -0.02580750 -0.00865226 0.17606033
v -0.02379643 -0.01292001 0.18016732
v -0.02446615 -0.01306753 0.18029583
v -0.02492150 -0.01300244 0.18008097
vn 0.872584 -0.187083 0.451217
vn 0.978631 -0.146766 0.144020
vn 0.188167 -0.667298 -0.720629
vn -0.331034 -0.126830 -0.935056
vn -0.117947 -0.868393 -0.481645
vn 0.858209 -0.141556 0.493395
vn -0.132473 -0.844896 -0.518269
vn -0.979875 0.095084 0.175511
vn -0.904673 -0.412128 -0.108246
vn -0.231730 -0.726450 -0.646971
vn -0.978089 -0.198772 -0.061902
vn 0.896217 -0.321393 0.305780
vn 0.300680 -0.779435 -0.549612
vn 0.233822 0.562549 0.793010
vn 0.651582 -0.607517 -0.454274
vn 0.995040 0.067380 -0.073175
vn -0.252454 -0.067437 -0.965256
vn 0.748931 0.408142 0.522037
vn -0.365538 -0.378484 0.850371
vn 0.258823 -0.963321 0.070877
vn -0.060420 0.693126 0.718280
vn -0.836257 -0.463453 0.293063
vn -0.452094 0.402411 -0.796038
vn -0.829621 0.442995 0.339830
vn 0.664908 0.743781 0.068464
vn 0.249486 -0.781357 -0.572048
vn 0.321746 -0.889589 -0.324207
vn -0.804344 0.265549 0.531521
vn -0.975214 -0.121689 -0.184794
vn -0.968179 -0.190335 -0.162489
vn -0.124991 -0.803647 -0.581832
vn 0.176533 0.564979 0.806000
vn -0.335634 -0.088396 -0.937836
vn 0.892044 -0.223940 0.392567
vn 0.879850 -0.328944 0.343017
vn 0.910504 -0.413432 -0.007553
vn -0.266371 -0.063368 -0.961785
vn 0.139429 0.588609 -0.796304
vn 0.138754 0.717865 0.682215
vn -0.852268 -0.518397 -0.070023
vn 0.027794 -0.908605 -0.416730
vn 0.209687 0.486386 0.848210
vn -0.767133 0.484861 0.420020
vn -0.844231 0.320575 0.429540
vn -0.063763 0.971979 -0.226254
vn -0.063763 0.971981 -0.226248
vn -0.804049 0.439566 0.400359
vn 0.168908 0.662785 -0.729511
vn 0.561443 -0.647133 -0.515752
vn -0.209787 -0.624526 -0.752301
vn 0.660374 0.749579 0.045151
vn -0.174544 -0.797743 -0.577183
vn 0.494878 -0.703379 -0.510249
vn 0.226781 -0.786154 -0.574920
vn 0.419157 -0.686173 -0.594536
vn -0.068730 -0.774749 -0.628522
vn 0.620713 -0.608058 -0.494955
vn 0.870038 0.450749 0.199648
vn 0.993806 -0.072308 0.084392
vn 0.775747 0.469620 0.421513
vn 0.384115 0.685011 0.619044
vn 0.750669 0.414354 0.514594
vn 0.228649 -0.881546 -0.413032
vn 0.669874 0.654367 0.350818
vn 0.505546 0.386299 0.771489
vn 0.617812 0.657303 0.431580
vn -0.185907 -0.900176 -0.393855
vn 0.165654 0.634943 -0.754590
vn -0.369944 0.521157 0.769114
vn -0.332707 0.565004 0.755034
vn -0.290487 -0.807520 -0.513350
vn -0.952925 -0.131344 0.273281
vn -0.517944 0.561414 0.645406
vn -0.832766 0.210447 0.512067
vn -0.476313 -0.622326 -0.621157
vn -0.186773 -0.716642 -0.671968
vn -0.792321 -0.295014 -0.534036
vn -0.843546 -0.389543 -0.369712
vn -0.671007 0.552158 0.494844
vn 0.154356 -0.803081 -0.575530
vn -0.989231 -0.061284 -0.132911
vn -0.997856 0.011394 -0.064444
vn 0.883334 -0.246226 0.398865
vn 0.986298 -0.092926 0.136313
vn 0.477904 -0.051270 -0.876914
vn 0.477905 -0.051270 -0.876914
vn 0.477906 -0.051269 -0.876914
vn 0.477905 -0.051270 -0.876914
vn 0.477904 -0.051268 -0.876915
vn 0.477904 -0.051269 -0.876914
vn 0.896406 -0.296085 0.329833
vn 0.995725 -0.026319 0.088542
vn 0.933026 -0.177322 0.313081
vn 0.663079 0.747030 0.047674
vn 0.665744 0.745047 0.041115
vn 0.211635 0.525448 0.824084
vn 0.478272 -0.850705 -0.218074
vn 0.993439 -0.078082 0.083555
vn 0.988680 -0.092819 0.117887
vn 0.162000 0.629104 0.760252
vn 0.508094 0.608536 0.609528
vn 0.376155 0.675099 0.634625
vn 0.857136 -0.157535 0.490408
vn -0.280150 -0.079578 -0.956652
vn -0.394585 0.408030 -0.823295
vn -0.271858 -0.081114 -0.958913
vn -0.682705 -0.176714 -0.709003
vn -0.682704 -0.176716 -0.709005
vn 0.132598 0.642953 0.754340
vn -0.159236 0.644182 0.748113
vn 0.108646 0.846234 0.521617
vn 0.060825 0.344467 -0.936826
vn 0.056776 0.349241 -0.935311
vn 0.141302 0.584807 -0.798771
vn -0.381378 -0.747036 -0.544508
vn -0.941592 -0.282973 -0.182569
vn -0.933927 -0.299297 -0.195453
vn 0.953489 -0.116049 0.278193
vn 0.994206 -0.010499 0.106980
vn 0.976972 0.123629 0.173903
vn 0.978748 0.195919 -0.060562
vn 0.368605 0.503653 0.781322
vn -0.135391 0.705989 0.695161
vn -0.328577 0.722131 0.608740
vn -0.255769 0.636795 0.727375
vn -0.811078 -0.582088 -0.057670
vn 0.460457 -0.840578 -0.285320
vn 0.255365 -0.950755 -0.175651
vn -0.434604 -0.270295 0.859104
vn -0.446131 -0.276062 0.851326
vn 0.215185 -0.106332 0.970767
vn 0.843945 0.120032 0.522829
vn 0.835375 -0.056361 0.546784
vn 0.402185 0.630983 0.663407
vn 0.810702 0.463370 0.357842
vn -0.682704 -0.176718 -0.709003
vn -0.682707 -0.176717 -0.709001
vn -0.682706 -0.176717 -0.709002
vn -0.615972 0.355254 -0.703117
vn -0.854838 0.087491 0.511466
vn -0.355935 0.415882 -0.836871
vn -0.358600 0.415473 -0.835935
vn -0.535869 0.378910 -0.754501
vn -0.465184 0.637534 0.614129
vn -0.557049 0.460025 0.691428
vn -0.152069 0.560150 0.814314
vn -0.063762 0.971979 -0.226254
vn -0.063763 0.971980 -0.226252
vn -0.925881 -0.377811 -0.001518
vn -0.946751 -0.282589 -0.154294
vn -0.908697 -0.417312 -0.010956
vn -0.783289 -0.616780 0.077718
vn -0.914568 -0.385402 0.122601
vn -0.844379 -0.455291 0.282374
vn -0.944277 -0.238119 0.227247
vn -0.953947 0.015359 0.299581
vn -0.912299 0.272058 0.306096
vn -0.788631 0.394153 0.471915
vn -0.810344 0.406270 0.422241
vn -0.964968 0.186152 0.184893
vn -0.848178 -0.513601 -0.129645
vn -0.856450 -0.421840 -0.297565
vn -0.835783 -0.545186 -0.065102
vn -0.980048 -0.153171 -0.126669
vn -0.839008 0.429002 0.334698
vn -0.826705 0.443305 0.346468
vn -0.463361 -0.252174 0.849532
vn -0.456584 -0.281281 0.844045
vn -0.446167 0.560296 0.697856
vn -0.435226 0.556467 0.707759
vn -0.337968 0.667153 0.663841
vn 0.175402 0.049641 0.983245
vn -0.082851 0.234658 0.968541
vn -0.419758 0.395722 0.816828
f 83//83 12//12 84//84
f 114//114 38//38 48//48
f 114//114 48//48 68//68
f 89//89 90//90 85//85
f 89//89 87//87 90//90
f 88//88 87//87 86//86
f 88//88 86//86 85//85
f 90//90 87//87 88//88
f 90//90 88//88 85//85
f 84//84 92//92 93//93
f 92//92 91//91 93//93
f 27//27 54//54 13//13
f 26//26 54//54 27//27
f 25//25 95//95 94//94
f 93//93 83//83 84//84
f 25//25 94//94 51//51
f 94//94 95//95 51//51
f 109//109 14//14 111//111
f 83//83 1//1 12//12
f 34//34 1//1 83//83
f 83//83 93//93 34//34
f 53//53 26//26 27//27
f 27//27 13//13 97//97
f 53//53 97//97 15//15
f 27//27 97//97 53//53
f 93//93 91//91 34//34
f 34//34 91//91 2//2
f 1//1 34//34 118//118
f 55//55 15//15 57//57
f 49//49 57//57 63//63
f 55//55 49//49 63//63
f 55//55 57//57 49//49
f 36//36 16//16 120//120
f 120//120 58//58 135//135
f 54//54 3//3 13//13
f 33//33 104//104 4//4
f 142//142 23//23 141//141
f 142//142 141//141 105//105
f 17//17 37//37 104//104
f 17//17 104//104 106//106
f 37//37 4//4 104//104
f 106//106 104//104 33//33
f 7//7 50//50 52//52
f 50//50 3//3 54//54
f 50//50 54//54 52//52
f 105//105 143//143 142//142
f 142//142 143//143 23//23
f 114//114 68//68 113//113
f 38//38 114//114 112//112
f 114//114 113//113 112//112
f 71//71 115//115 7//7
f 67//67 71//71 7//7
f 100//100 96//96 109//109
f 109//109 96//96 14//14
f 100//100 122//122 96//96
f 96//96 122//122 14//14
f 26//26 53//53 55//55
f 53//53 15//15 55//55
f 115//115 71//71 75//75
f 71//71 26//26 75//75
f 116//116 117//117 29//29
f 117//117 150//150 115//115
f 117//117 115//115 29//29
f 75//75 26//26 56//56
f 26//26 55//55 56//56
f 115//115 75//75 77//77
f 75//75 10//10 77//77
f 119//119 118//118 99//99
f 119//119 99//99 98//98
f 2//2 99//99 34//34
f 2//2 59//59 98//98
f 34//34 99//99 118//118
f 2//2 98//98 99//99
f 101//101 18//18 122//122
f 101//101 122//122 102//102
f 62//62 18//18 101//101
f 55//55 76//76 10//10
f 56//56 10//10 75//75
f 55//55 10//10 56//56
f 31//31 76//76 55//55
f 80//80 31//31 55//55
f 5//5 76//76 31//31
f 31//31 63//63 5//5
f 80//80 63//63 31//31
f 16//16 119//119 121//121
f 16//16 121//121 120//120
f 59//59 60//60 98//98
f 60//60 58//58 98//98
f 58//58 120//120 121//121
f 98//98 121//121 119//119
f 58//58 121//121 98//98
f 61//61 64//64 62//62
f 62//62 60//60 18//18
f 64//64 66//66 135//135
f 64//64 58//58 62//62
f 62//62 58//58 60//60
f 64//64 135//135 58//58
f 65//65 134//134 61//61
f 66//66 64//64 61//61
f 134//134 66//66 61//61
f 125//125 32//32 21//21
f 21//21 171//171 125//125
f 63//63 80//80 55//55
f 103//103 6//6 36//36
f 35//35 36//36 120//120
f 103//103 36//36 35//35
f 103//103 35//35 120//120
f 20//20 41//41 128//128
f 20//20 128//128 127//127
f 41//41 5//5 63//63
f 41//41 63//63 128//128
f 127//127 63//63 57//57
f 128//128 63//63 127//127
f 130//130 19//19 129//129
f 172//172 131//131 42//42
f 173//173 131//131 172//172
f 132//132 120//120 135//135
f 65//65 132//132 135//135
f 134//134 135//135 66//66
f 65//65 135//135 134//134
f 65//65 133//133 132//132
f 65//65 6//6 103//103
f 65//65 103//103 133//133
f 133//133 120//120 132//132
f 103//103 120//120 133//133
f 42//42 21//21 32//32
f 173//173 172//172 32//32
f 32//32 172//172 42//42
f 173//173 32//32 125//125
f 107//107 137//137 136//136
f 107//107 108//108 138//138
f 138//138 108//108 136//136
f 107//107 138//138 137//137
f 138//138 136//136 137//137
f 105//105 139//139 143//143
f 143//143 139//139 23//23
f 43//43 44//44 145//145
f 44//44 28//28 145//145
f 69//69 70//70 145//145
f 43//43 145//145 70//70
f 70//70 144//144 43//43
f 43//43 144//144 146//146
f 146//146 70//70 111//111
f 144//144 70//70 146//146
f 111//111 110//110 109//109
f 111//111 70//70 110//110
f 70//70 69//69 110//110
f 69//69 39//39 100//100
f 110//110 100//100 109//109
f 69//69 100//100 110//110
f 45//45 46//46 148//148
f 45//45 148//148 147//147
f 148//148 46//46 147//147
f 54//54 26//26 52//52
f 26//26 71//71 67//67
f 52//52 67//67 7//7
f 26//26 67//67 52//52
f 153//153 154//154 152//152
f 154//154 22//22 152//152
f 22//22 154//154 140//140
f 154//154 153//153 155//155
f 154//154 155//155 140//140
f 28//28 44//44 140//140
f 28//28 140//140 74//74
f 153//153 150//150 151//151
f 153//153 151//151 149//149
f 8//8 72//72 149//149
f 149//149 155//155 153//153
f 72//72 155//155 149//149
f 73//73 39//39 69//69
f 73//73 69//69 145//145
f 74//74 73//73 28//28
f 28//28 73//73 145//145
f 140//140 155//155 74//74
f 72//72 8//8 156//156
f 74//74 156//156 73//73
f 72//72 156//156 155//155
f 155//155 156//156 74//74
f 8//8 149//149 9//9
f 151//151 150//150 117//117
f 151//151 117//117 149//149
f 149//149 117//117 116//116
f 149//149 116//116 9//9
f 81//81 30//30 29//29
f 30//30 9//9 116//116
f 30//30 116//116 29//29
f 156//156 8//8 157//157
f 156//156 157//157 73//73
f 73//73 157//157 79//79
f 8//8 160//160 157//157
f 160//160 159//159 157//157
f 159//159 47//47 158//158
f 158//158 157//157 159//159
f 157//157 158//158 171//171
f 158//158 47//47 171//171
f 73//73 124//124 39//39
f 171//171 124//124 73//73
f 157//157 171//171 79//79
f 79//79 171//171 73//73
f 10//10 76//76 77//77
f 76//76 5//5 78//78
f 76//76 78//78 77//77
f 78//78 5//5 162//162
f 162//162 5//5 161//161
f 29//29 115//115 77//77
f 164//164 77//77 78//78
f 77//77 164//164 29//29
f 164//164 78//78 162//162
f 164//164 162//162 161//161
f 11//11 164//164 40//40
f 164//164 163//163 40//40
f 40//40 163//163 126//126
f 163//163 161//161 126//126
f 164//164 161//161 163//163
f 164//164 11//11 82//82
f 164//164 82//82 81//81
f 164//164 81//81 29//29
f 160//160 165//165 159//159
f 165//165 166//166 159//159
f 166//166 24//24 47//47
f 165//165 24//24 166//166
f 166//166 47//47 159//159
f 39//39 101//101 100//100
f 39//39 61//61 101//101
f 61//61 62//62 101//101
f 100//100 102//102 122//122
f 101//101 102//102 100//100
f 171//171 21//21 123//123
f 124//124 123//123 39//39
f 171//171 123//123 124//124
f 129//129 167//167 130//130
f 167//167 168//168 130//130
f 130//130 168//168 19//19
f 170//170 173//173 125//125
f 170//170 125//125 171//171
f 169//169 171//171 47//47
f 170//170 171//171 169//169
f 169//169 174//174 170//170
f 174//174 173//173 170//170
