# decimated by Tools/decimate_anatomy.py from 10080 triangles (BodyParts3D, CC BY 4.0)
v -0.00965666 -0.01924277 -0.18247069
v -0.01530359 -0.02821924 -0.19584434
v -0.01900637 -0.03769777 -0.20841514
v -0.01190734 -0.01428117 -0.11833880
v -0.01587382 -0.00483038 -0.04531621
v -0.01174742 -0.02830197 -0.14969993
v -0.01000298 -0.03289840 -0.16340259
v -0.01456614 -0.03543571 -0.17892295
v -0.01335916 -0.03935953 -0.18203358
v -0.01733517 -0.04897340 -0.19524869
v -0.01832786 -0.04511676 -0.20292488
v -0.01777427 0.00442897 0.01835662
v -0.01682211 0.00409136 0.01898779
v -0.02152836 0.00024390 0.00924768
v -0.00620452 -0.03814784 -0.17732240
v -0.00731885 -0.04184775 -0.18293291
v -0.00571631 -0.03924759 -0.17931462
v -0.00893423 -0.04124420 -0.18519976
v -0.00148818 -0.03636351 -0.20484954
v 0.00255149 -0.03609625 -0.19948337
v 0.00245503 -0.03456938 -0.19971135
v -0.00723974 -0.04748305 -0.20545377
v -0.01691694 -0.00324597 0.01476434
v -0.01964751 -0.00083965 0.01234084
v -0.01409777 0.00062049 0.01478417
v -0.00961530 -0.01510189 -0.05400253
v -0.00726007 -0.01988655 -0.08236911
v -0.00402767 -0.02529648 -0.10828284
v -0.00369517 -0.02397067 -0.10290199
v -0.00388613 -0.04580403 -0.19116105
v -0.00217062 -0.04957067 -0.20212466
v -0.00154080 -0.04355967 -0.20273495
v -0.01229810 -0.00699033 0.01585644
v -0.01063543 -0.00917198 0.00188701
v -0.02220287 -0.04488075 -0.20309374
v -0.01378191 -0.04397038 -0.18901909
v -0.01576863 0.00615912 0.01120180
v -0.02147794 -0.00016971 0.00927570
v 0.00042220 -0.03281464 -0.18123478
v -0.01136416 -0.00885133 0.01485921
v -0.02144813 -0.04715561 -0.19844291
v -0.02084270 -0.04899557 -0.19971229
v -0.01814759 -0.04625683 -0.20223312
v -0.00387034 -0.04983092 -0.19591713
v -0.00763473 -0.04394931 -0.18984737
v -0.01003948 -0.04941228 -0.20439085
v -0.00703997 -0.04807581 -0.20534110
v -0.00187521 -0.04982715 -0.20141171
v -0.00060629 -0.04984654 -0.19745989
v -0.00174150 -0.04997816 -0.20115021
v -0.01202044 -0.02410152 -0.20646451
v -0.01935601 -0.03764297 -0.20982994
v -0.01841848 -0.03992419 -0.20969493
v -0.00770933 -0.04342844 -0.20848321
v -0.00302772 -0.03860162 -0.20958336
v -0.00618586 -0.02582140 -0.20654277
v -0.01938882 -0.03770306 -0.20998751
v -0.01926775 -0.03950636 -0.20958681
v -0.01213598 -0.02401805 -0.17082220
v -0.01332622 -0.02272740 -0.19453526
v -0.00983352 -0.01824186 -0.16613355
v -0.01570445 -0.03402690 -0.20069718
v -0.02161354 -0.04719319 -0.20156455
v -0.01506071 -0.01143356 -0.08972555
v -0.01274026 -0.02245224 -0.14703732
v -0.00890397 -0.03834446 -0.17874577
v -0.02171225 -0.04653981 -0.19843743
v -0.00143079 -0.03180191 -0.19751474
v -0.01881948 0.00355337 0.01763976
v -0.01027306 -0.00784075 -0.04599968
v -0.01442595 -0.02162170 -0.11488661
v -0.01865763 -0.01400051 -0.07111254
v -0.00924969 -0.03413384 -0.16671132
v -0.00443205 -0.02923015 -0.14610483
v -0.01702072 0.00029822 0.01504642
v -0.01751294 -0.01580465 -0.05788471
v -0.00835552 -0.01753154 -0.06838957
v -0.00816909 -0.01831171 -0.07240026
v -0.00767443 -0.01720401 -0.06869624
v -0.00033830 -0.02665892 -0.13616097
v -0.00482473 -0.04275620 -0.18581729
v 0.00046167 -0.04160521 -0.19659968
v -0.00430537 -0.04895819 -0.20417521
v -0.00201594 -0.04807220 -0.20230224
v -0.01366386 -0.00292290 0.01499030
v -0.00922193 -0.00296174 -0.00896811
v -0.01300506 -0.00867659 -0.00318875
v -0.00836782 -0.01376495 -0.12346360
v -0.01126607 -0.01497100 -0.12868531
v -0.02109130 -0.04137718 -0.20620814
v -0.02090607 -0.04281333 -0.20574089
v -0.01615768 0.00660566 0.01442742
v -0.01785676 0.00618514 0.01126520
v -0.01352270 -0.01017354 -0.08843940
v -0.00854019 -0.01363733 -0.12074509
v -0.01454590 -0.03873904 -0.18259362
v -0.01936910 0.00518583 0.01370663
v -0.00482063 -0.04301719 -0.20687747
v -0.01757700 -0.00526654 0.01417957
v -0.01404638 0.00371607 0.01465835
v -0.01235405 0.00333912 0.01132009
v -0.01639249 -0.04998990 -0.19567484
v -0.01765267 -0.04970256 -0.19591923
v -0.00422010 -0.04747065 -0.19300307
v -0.00768657 -0.04391170 -0.18987153
v -0.00446505 -0.04980712 -0.19612767
v -0.01243506 -0.04996798 -0.20253304
v -0.01006083 -0.04742449 -0.20492525
v -0.00371284 -0.04786096 -0.19350471
v -0.00356695 -0.04787948 -0.19354537
v -0.00337520 -0.04904330 -0.19489080
v -0.00202652 -0.04999552 -0.19612475
v -0.00137693 -0.04999541 -0.20028219
v -0.01975276 -0.04880981 -0.20082936
v -0.02042690 -0.04868337 -0.19817904
v -0.02094365 -0.04774042 -0.19818743
v -0.01448817 -0.04951736 -0.20127077
v -0.01522808 -0.04984912 -0.19540685
v -0.01490147 -0.04984912 -0.19535065
v -0.01483705 -0.04984912 -0.19535793
v -0.01476775 -0.04977032 -0.19534031
v -0.01349454 -0.04996556 -0.20177828
v -0.00716638 -0.04818440 -0.20536247
v -0.00429930 -0.04903806 -0.20417007
v -0.00943300 -0.04686885 -0.19370417
v -0.00578852 -0.04985793 -0.19644003
v -0.00093389 -0.04986352 -0.19609918
v -0.00214992 -0.04982186 -0.20216095
v -0.00221597 -0.04976339 -0.20219921
v -0.00204793 -0.04972441 -0.20183735
v -0.01651578 -0.02840208 -0.20332613
v -0.01662844 -0.02888588 -0.20314074
v -0.00997230 -0.02173407 -0.19652332
v -0.01023798 -0.02166713 -0.19602488
v -0.01055406 -0.02400997 -0.20905010
v -0.01677045 -0.03193226 -0.20531844
v -0.01675699 -0.03218521 -0.20537283
v -0.01779167 -0.02964386 -0.20969748
v -0.01092785 -0.02035014 -0.18630622
v -0.01250181 -0.02359712 -0.20220914
v -0.01911373 -0.03731702 -0.20927909
v -0.01874994 -0.03958664 -0.20998664
v -0.01821016 -0.04003946 -0.20965527
v -0.01661975 -0.04127200 -0.20810588
v -0.01727581 -0.04033075 -0.20987825
v -0.00689634 -0.04236342 -0.20922145
v -0.00743731 -0.04237657 -0.20964700
v -0.00320557 -0.03418074 -0.20988348
v -0.01484927 -0.02500722 -0.20282011
v -0.01428278 -0.02396291 -0.19775821
v -0.01711900 -0.02828334 -0.20948844
v -0.01313160 -0.02331503 -0.19873610
v -0.01941551 -0.03802390 -0.20964625
v -0.01936425 -0.03929118 -0.20969544
v -0.00834794 -0.02383388 -0.20678286
v -0.00911262 -0.02286439 -0.20289329
v -0.01689560 -0.03221820 -0.20572916
v -0.01590251 -0.04155465 -0.20812443
v -0.01471840 -0.04290647 -0.20595653
v -0.00530745 -0.02702972 -0.20821217
v -0.01008579 -0.04268300 -0.20963255
v -0.00690621 -0.04234179 -0.20928273
v -0.00592915 -0.04235069 -0.20843199
v -0.01048857 -0.04267045 -0.20942675
v -0.00294984 -0.03849877 -0.20974113
v -0.01313795 -0.02257402 -0.19444256
v -0.02243162 -0.04313985 -0.20316335
v -0.01752862 -0.04012200 -0.19816559
v -0.02224146 -0.04493011 -0.20294558
v -0.02102870 -0.04071992 -0.20529719
v -0.01776634 -0.03694806 -0.20518076
v -0.01601593 -0.03581746 -0.20076085
v -0.01776568 -0.03875669 -0.20244596
v -0.01843376 -0.03852924 -0.20504102
v -0.00866669 -0.02278260 -0.20209930
v -0.00292692 -0.03068195 -0.20149408
v -0.01947974 -0.03947994 -0.20915577
v -0.02083947 -0.04248775 -0.20607574
v -0.01837764 0.00598964 0.01122344
v -0.01946249 0.00525013 0.01326907
v -0.02032647 -0.00202882 -0.00341754
v -0.01924276 0.00004330 -0.00663621
v -0.01351557 -0.01283995 -0.10361474
v -0.01671222 -0.00991873 -0.07489091
v -0.01712089 -0.01092589 -0.07633279
v -0.01459584 -0.01617259 -0.11065286
v -0.01551284 -0.01243645 -0.09132229
v -0.01821533 -0.00428509 -0.03604819
v -0.01556572 -0.01726494 -0.10505866
v -0.01363901 -0.01077937 -0.09232380
v -0.01429054 -0.01140795 -0.09321921
v -0.01442921 -0.00940685 -0.08162695
v -0.01821924 -0.00689856 -0.05166180
v -0.01720903 -0.00869999 -0.06646312
v -0.01542964 -0.00934448 -0.07729265
v -0.01574043 -0.01011334 -0.08016238
v -0.00492230 -0.01642513 -0.15361905
v -0.01488527 -0.02061638 -0.11363049
v -0.01159074 -0.02849859 -0.14977764
v -0.01019233 -0.02756166 -0.14166824
v -0.01437149 -0.03471435 -0.17695877
v -0.01477430 -0.03563984 -0.18129846
v -0.01493053 -0.03573200 -0.18679673
v -0.01818981 -0.04258930 -0.19411673
v -0.01719015 -0.04701447 -0.19369178
v -0.01526261 -0.04455638 -0.19044669
v -0.01796098 -0.04465592 -0.20325923
v -0.00119874 -0.03445928 -0.20298554
v -0.01876334 0.00393401 0.01774457
v -0.01827848 0.00291451 0.01788810
v -0.01634945 0.00417176 0.01887490
v -0.01801673 0.00212662 0.01724630
v -0.01813974 0.00119621 0.01577348
v -0.01638145 0.00284507 0.01831757
v -0.01584394 0.00127907 0.01601028
v -0.01415707 0.00349914 0.01532131
v -0.01405219 0.00376412 0.01461499
v -0.01402651 0.00359569 0.01469839
v -0.01638780 0.00514323 0.00846780
v -0.01531909 -0.00427012 -0.04108308
v -0.02051228 -0.00878292 -0.03307450
v -0.01712497 -0.01392571 -0.03450267
v -0.00942949 -0.01031056 -0.05955720
v -0.01696557 -0.01844175 -0.07953888
v -0.01587734 -0.01922227 -0.10286137
v -0.01921547 -0.01349797 -0.05332798
v -0.01094937 -0.02546168 -0.12446611
v -0.00573035 -0.03517473 -0.17018962
v -0.00979466 -0.03364930 -0.16550932
v -0.00689607 -0.03802290 -0.17717134
v -0.00914975 -0.03902442 -0.18108418
v -0.00852894 -0.03829522 -0.17832741
v -0.00762053 -0.04031622 -0.18103529
v -0.00813502 -0.04082940 -0.18298154
v -0.00859312 -0.03435969 -0.16777390
v -0.00457637 -0.03848638 -0.17991854
v -0.00440779 -0.03559190 -0.17249590
v -0.00673147 -0.04020720 -0.18057515
v -0.00849212 -0.04059964 -0.18373643
v -0.00768625 -0.04206494 -0.18547948
v -0.00407765 -0.01997960 -0.17421559
v -0.01501007 -0.04973182 -0.19529494
v -0.01078367 -0.04676802 -0.19341157
v -0.00858571 -0.04183768 -0.18620743
v 0.00189170 -0.03376006 -0.19027658
v 0.00096046 -0.03122615 -0.18374397
v -0.00993946 -0.04496312 -0.20635734
v 0.00021642 -0.03949316 -0.19523620
v 0.00123227 -0.03821290 -0.19583907
v 0.00246538 -0.03460257 -0.19915238
v 0.00213188 -0.03521959 -0.20085838
v 0.00112974 -0.03903844 -0.19760032
v 0.00150684 -0.03390145 -0.19986440
v 0.00212484 -0.03435987 -0.20012472
v 0.00050517 -0.03224504 -0.19453450
v -0.00948730 -0.04498474 -0.20624518
v -0.00228429 -0.03798803 -0.20612546
v -0.01447445 0.00137107 0.01538334
v -0.01544627 -0.00007002 0.01494003
v -0.01259975 0.00119492 0.01405933
v -0.01009321 0.00168856 0.01438166
v -0.01254498 0.00336361 0.01169271
v -0.01797387 -0.00555058 0.01368588
v -0.01005544 0.00052016 -0.00115598
v -0.01378922 -0.00263965 -0.02839251
v -0.01567569 0.00425915 0.00580263
v -0.01176326 -0.00690260 -0.04832675
v -0.01001421 0.00245308 0.00808518
v -0.00995705 -0.00323698 -0.01814621
v -0.01127235 -0.01511850 -0.04174170
v -0.01057498 -0.01212158 -0.03210146
v -0.00978096 -0.01490884 -0.05162881
v -0.00896140 -0.01292515 -0.05950026
v -0.01001053 -0.00887007 -0.04149715
v -0.01065829 -0.01600819 -0.05366476
v -0.00952543 -0.01560388 -0.05624517
v -0.00915147 -0.01689210 -0.06307966
v -0.01434862 -0.01590787 -0.04819023
v -0.01203491 -0.02251742 -0.09849896
v -0.00899096 -0.01628406 -0.06085997
v -0.00766136 -0.01880348 -0.07606207
v -0.00890851 -0.01669160 -0.06299774
v -0.00765539 -0.01908360 -0.07727986
v -0.00870007 -0.01719562 -0.06581899
v -0.00823164 -0.01799401 -0.07078616
v -0.00869936 -0.01846505 -0.07232292
v -0.00878661 -0.01613847 -0.06066649
v -0.00799758 -0.01731833 -0.06836643
v -0.00732139 -0.01856381 -0.07597318
v -0.00648205 -0.01996362 -0.08395565
v -0.00587210 -0.02266408 -0.09613969
v -0.00387528 -0.01851922 -0.09853422
v -0.00214456 -0.02468020 -0.10921074
v -0.00460640 -0.02204005 -0.09502023
v -0.00229788 -0.02332257 -0.10545201
v -0.00156883 -0.02293288 -0.11103921
v -0.00002273 -0.02505126 -0.12316193
v 0.00016772 -0.02528875 -0.12398941
v -0.00024165 -0.02182819 -0.13009439
v -0.00030332 -0.02257865 -0.12402438
v -0.00126181 -0.02699188 -0.12549104
v -0.00047998 -0.02671456 -0.13239527
v 0.00132237 -0.02454165 -0.13734961
v 0.00054608 -0.02705844 -0.14791697
v -0.00381642 -0.02774672 -0.13512269
v -0.00327327 -0.04372457 -0.18965712
v -0.00502102 -0.04474739 -0.18972198
v -0.00378699 -0.04399223 -0.18917928
v -0.00400187 -0.04522369 -0.19047766
v -0.00393380 -0.04468672 -0.18989015
v -0.00239126 -0.04404102 -0.19159500
v -0.00076699 -0.04373847 -0.19346473
v -0.00181107 -0.04406160 -0.19258290
v -0.00136094 -0.04483233 -0.19297985
v 0.00013527 -0.04517128 -0.19388391
v 0.00034972 -0.04430961 -0.19479114
v 0.00035350 -0.04040837 -0.19571108
v 0.00059133 -0.03989156 -0.19677845
v 0.00020472 -0.04164606 -0.19516272
v -0.00223388 -0.04944206 -0.20222968
v -0.00131896 -0.04333210 -0.20256309
v -0.00510245 -0.04449508 -0.20602644
v -0.01413711 -0.00813085 0.01516532
v -0.01332694 -0.00841624 0.01542803
v -0.01199273 -0.00670781 0.01597803
v -0.00841500 -0.00705390 0.01488632
v -0.00888462 -0.00268941 0.01576903
v -0.00870247 -0.00582997 0.01581524
v -0.00791471 0.00109605 0.01499262
v -0.01496355 -0.00970035 0.01277715
v -0.01264790 -0.00926483 0.01439158
v -0.01147506 -0.01087018 0.01137882
v -0.01360360 -0.00964009 0.00623540
v -0.01043792 -0.01028526 0.01246296
v -0.01033635 -0.00944370 0.00363272
v -0.00675739 0.00079364 0.00745323
v -0.00616570 -0.00025130 0.01465854
v -0.00914871 -0.00669217 -0.00784357
v -0.01065548 -0.01021045 0.00604663
v -0.00988281 -0.00935396 0.00385624
v -0.00560888 -0.00257799 0.00448966
v -0.00761635 -0.00325846 -0.00207161
v -0.00783614 -0.00436720 -0.00323257
v -0.01174096 -0.01328575 -0.03254013
v -0.01003276 -0.00839966 -0.00615387
v -0.00974030 -0.00822226 -0.00722217
v -0.00385059 -0.04563932 -0.19103089
v -0.00260150 -0.04546739 -0.19173659
v -0.00025153 -0.04678608 -0.19414289
v 0.00013577 -0.04702619 -0.19481536
v -0.00052514 -0.04949776 -0.19712128
v -0.00046943 -0.04940741 -0.19601388
v -0.00751123 -0.00915531 0.00788894
v -0.00612400 -0.00751512 0.00665784
v -0.00962399 -0.01805010 -0.16710831
v -0.01234125 -0.02134236 -0.18655375
v -0.00963159 -0.01781295 -0.16443136
v -0.00870612 -0.01640725 -0.15689023
v -0.00684099 -0.01651770 -0.16377607
v -0.00739439 -0.02066906 -0.18877334
v -0.00665766 -0.02143229 -0.19137983
v -0.01963505 -0.03884606 -0.20890228
v -0.02080211 -0.04217371 -0.20624147
v -0.02040727 -0.04087291 -0.20729468
v -0.02090190 -0.04121595 -0.20646176
v -0.01937410 -0.03959848 -0.20932533
v -0.01764040 0.00645144 0.01447274
v -0.01587763 -0.00606319 -0.05526341
v -0.01123897 -0.01110399 -0.09054831
v -0.01153770 -0.01422550 -0.11921774
v -0.00754247 -0.01589587 -0.15723097
v -0.01262831 -0.01091964 -0.09535199
v -0.01243147 -0.01308282 -0.10944418
v -0.01366107 -0.02259824 -0.12716398
v -0.01204567 -0.02731536 -0.14974152
v -0.01310143 -0.02949264 -0.16372566
v -0.01023150 -0.03269473 -0.16297835
v -0.01322055 -0.03655163 -0.17744794
v -0.00732084 -0.03647383 -0.17297950
v -0.00595717 -0.03793680 -0.17721247
v -0.01556088 -0.04090199 -0.18725890
v -0.01442405 -0.03573369 -0.17884752
v -0.01540879 -0.04092553 -0.18706164
v -0.01434562 -0.04188104 -0.18724435
v -0.01428386 -0.03853512 -0.18195463
v -0.00937190 -0.04544701 -0.19235384
v -0.01853186 0.00553069 0.01720762
v -0.01685273 0.00425445 0.01855901
v -0.01781930 0.00557419 0.01749301
v -0.01674176 0.00405810 0.01899615
v -0.01665712 0.00371970 0.01900256
v -0.01568721 0.00357416 0.01864161
v -0.01590660 0.00475976 0.01811078
v -0.01609447 0.00296366 0.01844226
v -0.01499017 0.00271857 0.01698938
v -0.01595036 0.00126251 0.01600088
v -0.01795919 0.00023720 0.01466548
v -0.01280762 0.00354176 0.01113582
v -0.02063638 0.00020143 0.01088349
v -0.01875718 -0.00532797 -0.00048299
v -0.01954888 -0.00732105 -0.01338003
v -0.01700779 0.00138346 -0.00773132
v -0.01597551 0.00099086 -0.00850083
v -0.01836513 0.00578818 0.01043715
v -0.01747404 0.00251059 -0.00328490
v -0.01721159 0.00268328 -0.00237866
v 0.00009592 -0.03300356 -0.18048073
v -0.01546932 -0.00012979 0.01492100
v -0.01554946 -0.00019243 0.01491141
v -0.01399929 0.00236377 0.01496093
v -0.01301774 0.00284144 0.01382409
v -0.01292841 0.00149839 0.01409427
v -0.00828899 0.00140169 0.01486906
v -0.01252641 0.00255492 0.01360270
v -0.01485954 0.00543904 0.01128918
v -0.00541943 -0.01934009 -0.08497277
v -0.00461980 -0.02013543 -0.09038030
v 0.00070797 -0.02425868 -0.14945893
v 0.00053113 -0.02280877 -0.15363511
v 0.00084337 -0.03098680 -0.18311918
v 0.00079181 -0.02703523 -0.14953981
v 0.00128478 -0.02457273 -0.13749734
v 0.00051860 -0.02565343 -0.13725202
v -0.00699714 -0.00927807 0.00930437
v -0.00593888 -0.00406674 0.01370571
v -0.00463503 -0.00296326 0.01020253
v -0.00624987 0.00062939 0.01342892
v -0.00596330 0.00058549 0.01265651
v -0.00556574 -0.00052750 0.00720892
v -0.01001377 -0.00836667 -0.00828168
v -0.00798550 -0.00648698 -0.00134883
v -0.02112315 -0.04798873 -0.19875898
v -0.02087306 -0.04891467 -0.19946679
v -0.01969841 -0.04991426 -0.19815716
v -0.02140836 -0.04737011 -0.20152377
v -0.01982251 -0.04871350 -0.20088738
v -0.02103308 -0.04725561 -0.20158957
v -0.01725136 -0.04934666 -0.19545014
v -0.01516009 -0.04979248 -0.19536796
v -0.01612115 -0.04986045 -0.19555603
v -0.02102411 -0.04809180 -0.20103391
v -0.01989347 -0.04995878 -0.19955707
v -0.02061563 -0.04886813 -0.20030752
v -0.01743911 -0.04985412 -0.20043471
v -0.01715771 -0.04722479 -0.20191943
v -0.01793152 -0.04909667 -0.19590244
v -0.00479683 -0.04612864 -0.19151484
v -0.00494973 -0.04496812 -0.19006211
v -0.00383215 -0.04885716 -0.19463661
v -0.00645633 -0.04372135 -0.18876182
v -0.00937814 -0.04569496 -0.19264366
v -0.01091880 -0.04987056 -0.19610529
v -0.01089342 -0.04787888 -0.19435288
v -0.01224330 -0.04889816 -0.20295279
v -0.01436303 -0.04905330 -0.20145524
v -0.01313039 -0.04923247 -0.20220816
v -0.00969356 -0.04808640 -0.20481812
v -0.00648740 -0.04992458 -0.20501219
v -0.00375906 -0.04887337 -0.19464479
v -0.00385970 -0.04673602 -0.19220841
v -0.00359450 -0.04900155 -0.19481286
v -0.00377243 -0.04676253 -0.19224699
v -0.00361005 -0.04788680 -0.19354789
v -0.00340706 -0.04985592 -0.19580641
v -0.00349080 -0.04904254 -0.19487378
v -0.00342539 -0.04904019 -0.19488026
v -0.00282378 -0.05003911 -0.19608503
v -0.00098397 -0.04987010 -0.19608630
v -0.00114544 -0.04988006 -0.19608467
v -0.00201020 -0.04979239 -0.20172603
v -0.00176978 -0.04987541 -0.20116948
v -0.00123477 -0.05004129 -0.19996078
v -0.00153853 -0.04998684 -0.20063306
v -0.00145395 -0.04997571 -0.20045425
v -0.00160299 -0.04991932 -0.20079401
v -0.00404126 -0.04975865 -0.20401615
v -0.00281136 -0.04995540 -0.20280841
v -0.00356106 -0.04933725 -0.20348789
v -0.00145961 -0.04514331 -0.20204826
v -0.00063673 -0.04984370 -0.19678426
v -0.00054524 -0.04983603 -0.19699925
v -0.00069899 -0.04998950 -0.19687102
v -0.01946617 -0.04992337 -0.20001709
v -0.02022501 -0.04869769 -0.20079354
v -0.02010096 -0.04978023 -0.19950713
v -0.02089488 -0.04894959 -0.19958955
v -0.01995032 -0.04995112 -0.19913374
v -0.02054041 -0.04931371 -0.19944900
v -0.01925478 -0.04935665 -0.19733255
v -0.02032655 -0.04849842 -0.19797482
v -0.01912159 -0.04989709 -0.19748557
v -0.01964074 -0.04924542 -0.19766880
v -0.01581585 -0.04976366 -0.20079353
v -0.01487670 -0.04947256 -0.20116322
v -0.01420351 -0.04924848 -0.20143570
v -0.01438675 -0.04948721 -0.20129511
v -0.01437919 -0.04996225 -0.20118915
v -0.01428939 -0.04947299 -0.20134961
v -0.01498740 -0.04977032 -0.19532297
v -0.01505550 -0.04983737 -0.19537017
v -0.01502868 -0.04999024 -0.19545053
v -0.01409539 -0.04924848 -0.20151524
v -0.01413985 -0.04955295 -0.20138328
v -0.01407625 -0.04946701 -0.20146980
v -0.01396580 -0.04996225 -0.20141962
v -0.01488398 -0.04977032 -0.19530856
v -0.01484935 -0.04983816 -0.19535017
v -0.01487254 -0.04983274 -0.19534398
v -0.01487890 -0.04970262 -0.19526722
v -0.01479523 -0.04983816 -0.19536474
v -0.01481747 -0.04983195 -0.19535417
v -0.01471062 -0.04994705 -0.19544925
v -0.01428351 -0.04992587 -0.19556932
v -0.01428884 -0.04998922 -0.19560240
v -0.01463150 -0.04983217 -0.19541110
v -0.01386137 -0.04924848 -0.20168245
v -0.01405999 -0.04921076 -0.20152648
v -0.01376183 -0.04946937 -0.20170452
v -0.00757688 -0.04959279 -0.20510741
v -0.00754179 -0.04803141 -0.20527039
v -0.00867429 -0.04985707 -0.20455459
v -0.00792296 -0.04900193 -0.20500054
v -0.00747402 -0.04943383 -0.20515367
v -0.00716246 -0.04988766 -0.20511323
v -0.00723515 -0.04876419 -0.20527165
v -0.00468192 -0.04975968 -0.20429182
v -0.00439450 -0.04948283 -0.20420193
v -0.00438564 -0.04995072 -0.20419361
v -0.00831851 -0.04902558 -0.19563879
v -0.00915303 -0.04782521 -0.19454370
v -0.00905340 -0.04984412 -0.19628485
v -0.00839279 -0.04657252 -0.19352809
v -0.00682769 -0.04975519 -0.19636659
v -0.00763285 -0.04783141 -0.19462673
v -0.00865444 -0.04736320 -0.19419672
v -0.00839316 -0.04782524 -0.19461262
v -0.00758877 -0.04984412 -0.19641753
v -0.00827134 -0.04780044 -0.19461149
v -0.00082524 -0.04983695 -0.19608498
v -0.00092333 -0.04999021 -0.19627936
v -0.00087953 -0.04985163 -0.19610367
v -0.00054087 -0.04980196 -0.19709524
v -0.00057930 -0.04983705 -0.19728851
v -0.00068505 -0.04998942 -0.19775493
v -0.00225929 -0.04991264 -0.20225655
v -0.00219549 -0.04979828 -0.20219060
v -0.00205935 -0.04991264 -0.20202835
v -0.00201152 -0.04981214 -0.20180490
v -0.00208359 -0.04998272 -0.20212125
v -0.00215487 -0.04976339 -0.20215263
v -0.00213472 -0.04980491 -0.20213892
v -0.01456112 -0.02453374 -0.19840252
v -0.01538906 -0.02698763 -0.19911569
v -0.01603534 -0.02874259 -0.19982760
v -0.01663852 -0.02891193 -0.20315646
v -0.01730341 -0.02912278 -0.20688316
v -0.01730461 -0.02913284 -0.20687166
v -0.01729807 -0.02911098 -0.20687160
v -0.00983489 -0.02043126 -0.18934305
v -0.01012774 -0.02312579 -0.20427597
v -0.00972434 -0.02125735 -0.19401293
v -0.00992919 -0.02029576 -0.18856435
v -0.01012554 -0.02162748 -0.19585361
v -0.01039617 -0.02395453 -0.20881408
v -0.01055852 -0.02306779 -0.20374089
v -0.01028012 -0.02299053 -0.20344055
v -0.01044336 -0.02304576 -0.20367245
v -0.01735583 -0.03040111 -0.20771922
v -0.01616359 -0.03360945 -0.20311165
v -0.01676488 -0.03220327 -0.20541929
v -0.01779267 -0.02965460 -0.20970780
v -0.01736241 -0.03071961 -0.20789669
v -0.01736817 -0.03070919 -0.20792362
v -0.01736374 -0.03069831 -0.20789438
v -0.01011705 -0.02052607 -0.18948939
v -0.01074745 -0.02320808 -0.20419218
v -0.01164479 -0.02396245 -0.20655723
v -0.01294300 -0.02308852 -0.19825487
v -0.01236870 -0.02356132 -0.20231856
v -0.01144213 -0.02436489 -0.20952636
v -0.01186715 -0.02403950 -0.20646943
v -0.01915635 -0.03710991 -0.20965591
v -0.01908490 -0.03750646 -0.20899539
v -0.01913609 -0.03728409 -0.20938837
v -0.01915381 -0.03709164 -0.20966871
v -0.01947206 -0.03907234 -0.20943035
v -0.01936068 -0.03943281 -0.20952891
v -0.01937789 -0.03951948 -0.20934401
v -0.01956418 -0.03881418 -0.20929473
v -0.01957996 -0.03873744 -0.20917473
v -0.01934530 -0.03773435 -0.20969711
v -0.01921810 -0.03797516 -0.20876716
v -0.01927141 -0.03719549 -0.20998966
v -0.01928737 -0.03729202 -0.20994664
v -0.01841707 -0.03997129 -0.20961654
v -0.01858207 -0.03967681 -0.20998749
v -0.01848925 -0.03983817 -0.20976479
v -0.01819036 -0.04002601 -0.20972037
v -0.01747392 -0.04060642 -0.20887972
v -0.01559925 -0.04208152 -0.20698872
v -0.01752649 -0.04052472 -0.20911317
v -0.01644678 -0.04141527 -0.20784043
v -0.01748033 -0.04061346 -0.20892082
v -0.01531421 -0.04225782 -0.20682895
v -0.00769439 -0.02434642 -0.20558021
v -0.00659606 -0.02547265 -0.20974173
v -0.00669427 -0.02533191 -0.20842470
v -0.01171556 -0.04218351 -0.20997512
v -0.01141161 -0.04249788 -0.20926050
v -0.00811310 -0.04251211 -0.20992327
v -0.00762229 -0.04356180 -0.20822024
v -0.00639733 -0.04235866 -0.20882365
v -0.00696362 -0.04237024 -0.20926654
v -0.00582096 -0.04204973 -0.20887546
v -0.00489157 -0.04052817 -0.20999366
v -0.00376652 -0.03927257 -0.20998864
v -0.00396155 -0.03955544 -0.20983929
v -0.00263184 -0.03669288 -0.20917036
v -0.00251592 -0.03607254 -0.20896763
v -0.00258753 -0.03694399 -0.20995693
v -0.00213509 -0.03785429 -0.20820551
v -0.00446265 -0.03061417 -0.20812624
v -0.01673644 -0.02763975 -0.20649071
v -0.01508192 -0.02525561 -0.20181440
v -0.01624573 -0.02713070 -0.20911874
v -0.01575009 -0.02633777 -0.20608342
v -0.01635500 -0.02714044 -0.20641693
v -0.01208686 -0.02430871 -0.20747550
v -0.01515407 -0.02576725 -0.20649071
v -0.01365297 -0.02419015 -0.20209365
v -0.01941016 -0.03835225 -0.20992182
v -0.01942821 -0.03817408 -0.20983539
v -0.01944364 -0.03821561 -0.20998394
v -0.01939636 -0.03787030 -0.20975010
v -0.01945047 -0.03802095 -0.20992182
v -0.01940511 -0.03786945 -0.20982353
v -0.01912375 -0.03935026 -0.20998037
v -0.01929415 -0.03941350 -0.20965813
v -0.00988083 -0.02388761 -0.20842578
v -0.00907600 -0.02362272 -0.20649400
v -0.01601402 -0.03480211 -0.20166571
v -0.01864451 -0.03451633 -0.20969553
v -0.01710359 -0.03410159 -0.20535032
v -0.01837281 -0.03992234 -0.20973952
v -0.01838494 -0.03982108 -0.20998649
v -0.01839068 -0.03989829 -0.20979301
v -0.01426567 -0.04185996 -0.20908362
v -0.01505613 -0.04195980 -0.20796515
v -0.00579089 -0.02628025 -0.20846108
v -0.00571067 -0.02642068 -0.20806653
v -0.01027274 -0.04281401 -0.20916867
v -0.00908904 -0.04251089 -0.20996970
v -0.00957357 -0.04262447 -0.20969611
v -0.00607955 -0.04192385 -0.20964940
v -0.00639261 -0.04220294 -0.20920478
v -0.00544780 -0.02772299 -0.20721222
v -0.00477653 -0.02804323 -0.20912489
v -0.00504111 -0.02837148 -0.20806197
v -0.00396379 -0.03084990 -0.20986019
v -0.01065849 -0.04257650 -0.20982017
v -0.01062385 -0.04260212 -0.20961125
v -0.01099558 -0.04241781 -0.20997126
v -0.01031903 -0.04273341 -0.20942675
v -0.01030362 -0.04268611 -0.20959253
v -0.01048541 -0.04256122 -0.20996309
v -0.01020620 -0.04258162 -0.20997632
v -0.00322339 -0.03870883 -0.20996203
v -0.00296170 -0.03852423 -0.20978174
v -0.00304315 -0.03858261 -0.20981044
v -0.00286994 -0.03820838 -0.20991740
v -0.00291984 -0.03840096 -0.20981887
v -0.00286462 -0.03826742 -0.20998684
vn -0.178176 0.975198 -0.131312
vn -0.989833 -0.006008 0.142106
vn -0.895021 0.366134 0.254722
vn -0.904853 0.418143 -0.079985
vn 0.345458 0.933044 -0.100434
vn -0.984491 -0.170975 0.039293
vn 0.013696 -0.941253 0.337426
vn -0.960260 -0.170983 0.220602
vn -0.925089 -0.319083 0.205903
vn -0.297777 -0.562591 0.771246
vn -0.047247 -0.492174 -0.869214
vn -0.497129 0.260846 0.827540
vn 0.009652 0.265666 0.964017
vn -0.953002 0.296079 -0.064213
vn 0.021389 -0.923391 0.383265
vn -0.177062 -0.898405 0.401892
vn 0.699007 -0.569567 0.432416
vn 0.017510 -0.857635 0.513961
vn 0.895670 0.206346 -0.393949
vn 0.944766 -0.325176 0.040971
vn 0.759985 0.641219 -0.106116
vn 0.105056 -0.458906 -0.882252
vn -0.223709 -0.023217 0.974379
vn -0.844988 -0.153973 0.512141
vn 0.367558 -0.489670 0.790648
vn 0.991524 0.040258 0.123529
vn 0.088708 -0.985622 0.143804
vn -0.121559 -0.985665 0.116998
vn 0.343386 -0.908523 0.238058
vn 0.093344 -0.741689 0.664218
vn 0.774384 -0.047266 -0.630948
vn 0.804493 -0.147408 -0.575380
vn -0.178245 -0.172661 0.968719
vn 0.012628 -0.994493 -0.104037
vn -0.534417 -0.528951 -0.659249
vn 0.026002 -0.809740 0.586212
vn 0.514227 0.857654 0.000813
vn -0.822580 -0.555017 0.123762
vn 0.870742 -0.479867 0.107406
vn 0.227754 -0.684457 0.692565
vn -0.690717 -0.388723 0.609757
vn -0.888725 -0.453465 -0.067362
vn -0.193020 -0.487822 -0.851336
vn -0.306504 -0.775751 0.551603
vn -0.357670 -0.769309 0.529373
vn -0.183079 -0.257942 -0.948656
vn 0.377770 -0.050801 -0.924505
vn 0.870325 -0.249184 -0.424785
vn 0.957108 -0.255530 -0.136560
vn 0.914097 0.260161 -0.311035
vn -0.374940 0.914787 -0.150285
vn -0.949574 0.239024 0.202922
vn -0.369094 -0.868913 -0.329787
vn -0.281470 -0.668448 -0.688441
vn 0.909759 -0.322872 -0.260946
vn 0.868844 0.483180 -0.107924
vn -0.969868 0.212462 0.119226
vn -0.683310 -0.556893 -0.472183
vn -0.970539 0.240167 0.019330
vn -0.924271 0.376901 0.060563
vn -0.921207 0.388210 -0.025878
vn -0.992669 0.056654 0.106762
vn -0.106902 -0.695095 -0.710926
vn -0.747539 0.647344 -0.148764
vn -0.983664 0.169189 -0.061478
vn -0.279363 -0.911433 0.302069
vn -0.905611 -0.014840 0.423849
vn 0.730083 0.627283 -0.271100
vn -0.957360 0.090106 0.274488
vn 0.861466 0.502025 -0.076461
vn -0.780911 -0.624574 0.009239
vn -0.998118 -0.007178 -0.060909
vn -0.108646 -0.939470 0.324949
vn 0.335776 -0.923384 0.186053
vn -0.127496 -0.246488 0.960723
vn -0.690107 -0.720335 0.069790
vn 0.514257 -0.837739 0.183664
vn 0.368578 -0.912108 0.179471
vn 0.481834 -0.856896 0.183209
vn 0.464866 -0.883876 0.051595
vn 0.247212 -0.858958 0.448416
vn 0.976447 -0.098427 -0.192001
vn 0.483123 -0.213155 -0.849210
vn 0.746982 -0.152990 -0.647002
vn -0.001722 0.157470 0.987522
vn 0.981978 0.170500 -0.081537
vn -0.233946 -0.965380 0.115376
vn 0.624312 0.781168 -0.003502
vn -0.495613 0.863950 -0.089207
vn -0.837967 -0.096822 -0.537064
vn -0.061224 -0.731155 -0.679458
vn 0.520481 0.842191 0.140760
vn 0.100312 0.969560 -0.223364
vn 0.276886 0.957224 -0.084001
vn -0.250627 0.962878 -0.100262
vn -0.796772 -0.462098 0.389384
vn -0.565080 0.766362 0.305572
vn 0.593336 -0.505690 -0.626283
vn -0.553412 -0.337089 0.761647
vn 0.829212 0.356626 0.430378
vn 0.352472 0.930959 0.095280
vn -0.139262 -0.495176 0.857559
vn -0.665480 -0.324889 0.672000
vn -0.077250 -0.762454 0.642415
vn -0.162802 -0.809025 0.564777
vn -0.213311 -0.763466 0.609605
vn -0.568605 -0.191548 -0.799998
vn -0.456499 -0.374942 -0.806862
vn 0.087507 -0.747039 0.658996
vn 0.089794 -0.747200 0.658506
vn 0.092094 -0.746419 0.659073
vn 0.070317 -0.760614 0.645385
vn 0.899594 -0.130514 -0.416769
vn -0.202450 -0.607325 -0.768225
vn -0.677224 -0.349222 0.647620
vn -0.693667 -0.389048 0.606191
vn -0.285728 -0.271676 -0.918995
vn -0.151996 -0.474402 0.867087
vn 0.078560 -0.491777 0.867170
vn 0.242585 -0.463484 0.852253
vn 0.265437 -0.412514 0.871421
vn -0.627769 -0.227512 -0.744409
vn -0.082706 -0.144645 -0.986021
vn 0.628129 0.049641 -0.776524
vn 0.056417 -0.649281 0.758453
vn 0.005222 -0.664163 0.747570
vn 0.222778 -0.817055 0.531781
vn 0.592890 0.151316 -0.790939
vn 0.591778 0.151883 -0.791663
vn 0.913072 0.264020 -0.310795
vn -0.947313 0.279376 0.156674
vn 0.949604 -0.271503 -0.156648
vn -0.006371 0.983841 -0.178930
vn -0.080069 0.981220 -0.175488
vn -0.084269 0.981101 -0.174180
vn -0.978829 -0.086618 0.185448
vn 0.976611 0.078845 -0.200035
vn 0.979591 0.092190 -0.178613
vn -0.457813 0.881959 -0.112052
vn -0.373919 0.914721 -0.153202
vn 0.915977 -0.291350 -0.275866
vn -0.425187 -0.805221 -0.413322
vn -0.481180 -0.858327 -0.178157
vn -0.353593 -0.877726 -0.323370
vn -0.337388 -0.877325 -0.341278
vn 0.421644 -0.745373 -0.516368
vn 0.441978 -0.717517 -0.538354
vn 0.939755 0.341244 -0.020330
vn -0.786257 0.617221 -0.028946
vn -0.743277 0.665968 -0.063459
vn -0.792161 0.609583 -0.029826
vn -0.464430 0.871915 -0.155140
vn -0.948335 0.277927 0.153025
vn -0.695476 -0.542367 -0.471329
vn 0.196888 0.958825 -0.204671
vn 0.307753 0.937489 -0.162488
vn -0.935340 0.166118 0.312321
vn -0.352446 -0.870911 -0.342486
vn -0.306292 -0.747436 -0.589512
vn 0.837690 0.544510 0.042232
vn 0.079588 -0.965546 -0.247762
vn 0.293538 -0.890206 -0.348382
vn 0.623856 -0.541353 -0.563684
vn -0.413108 -0.910042 -0.034149
vn 0.970339 -0.142366 0.195382
vn -0.440915 0.889071 -0.123073
vn -0.821242 0.495007 0.283778
vn -0.754853 0.607506 0.247250
vn -0.963645 -0.188614 -0.189242
vn -0.779810 0.611368 0.134634
vn -0.888934 0.380409 0.255117
vn -0.931832 0.343871 0.115938
vn -0.796266 0.555705 0.239064
vn -0.736651 0.629517 0.247091
vn 0.667209 0.727170 -0.161418
vn 0.833580 0.522628 -0.178898
vn -0.860428 -0.103164 -0.499019
vn -0.818917 -0.187658 -0.542364
vn -0.647396 0.743640 -0.166968
vn -0.899650 0.428876 -0.081822
vn -0.999489 -0.014627 -0.028435
vn -0.908659 0.406343 -0.096036
vn -0.793040 0.591921 -0.143937
vn -0.862325 0.492371 -0.118184
vn -0.934824 0.335591 -0.116116
vn -0.888085 0.441718 -0.127238
vn -0.811021 0.566264 -0.146938
vn -0.756412 0.640824 -0.131093
vn -0.979994 0.173034 -0.098345
vn -0.479575 0.864890 -0.148232
vn -0.618043 0.772127 -0.147792
vn -0.506271 0.851246 -0.138093
vn -0.832201 0.543603 -0.109253
vn -0.874530 0.470413 -0.117934
vn -0.569314 0.809723 -0.142236
vn -0.634257 0.759129 -0.146426
vn 0.690375 0.723281 -0.015702
vn -0.990041 -0.127428 -0.059848
vn -0.380080 -0.895994 0.229637
vn -0.268772 -0.952430 0.143659
vn -0.983222 0.179668 0.031530
vn -0.991687 0.121859 0.041308
vn -0.977451 0.194450 0.082332
vn -0.898207 0.388709 0.205255
vn -0.543498 -0.529042 0.651709
vn -0.509750 -0.632708 0.582954
vn -0.116938 -0.695319 -0.709124
vn 0.603953 0.661440 -0.444676
vn -0.750276 0.484731 0.449580
vn -0.604268 -0.513784 0.609004
vn 0.252060 0.149887 0.956033
vn -0.126445 -0.782188 0.610077
vn -0.651114 -0.609377 0.452450
vn -0.043540 -0.781889 0.621895
vn 0.304310 -0.646759 0.699355
vn 0.857514 0.400452 0.322967
vn 0.719769 0.678582 0.146493
vn 0.772672 0.166845 0.612487
vn 0.420139 0.862458 -0.282222
vn -0.030481 0.982406 -0.184252
vn -0.999853 0.008396 -0.014935
vn -0.540269 -0.830604 0.134931
vn 0.721261 0.691362 -0.042433
vn -0.645383 -0.761977 0.053589
vn -0.979153 -0.194713 -0.057843
vn -0.829982 -0.556635 0.035884
vn -0.423729 -0.902391 0.078390
vn -0.088756 -0.966759 0.239792
vn -0.120854 -0.937305 0.326885
vn -0.095125 -0.932408 0.348665
vn -0.308705 -0.852913 0.420999
vn -0.136324 -0.932691 0.333919
vn -0.441160 -0.624697 0.644307
vn -0.770778 -0.613153 0.173047
vn 0.076730 -0.941469 0.328250
vn 0.517757 -0.798861 0.306185
vn 0.636526 -0.734882 0.234056
vn -0.114925 -0.781867 0.612762
vn -0.620053 -0.726711 0.295677
vn -0.581712 -0.775576 0.245138
vn 0.789589 0.599552 -0.130715
vn 0.026276 -0.721242 0.692184
vn 0.153369 -0.682994 0.714141
vn -0.151548 -0.883114 0.444008
vn 0.890686 0.453051 -0.037715
vn 0.853724 0.504422 -0.129283
vn -0.339462 -0.585346 -0.736298
vn 0.811692 -0.505102 0.293305
vn 0.896804 -0.399214 0.190710
vn 0.900232 0.435409 -0.001125
vn 0.785457 -0.008685 -0.618856
vn 0.888656 -0.457813 0.026425
vn 0.415331 0.842167 -0.343881
vn 0.585334 0.781240 -0.216903
vn 0.751147 0.637914 -0.169836
vn -0.165136 -0.669408 -0.724309
vn 0.984031 -0.033464 -0.174820
vn 0.559113 -0.402891 0.724618
vn 0.133804 -0.574664 0.807377
vn -0.034389 0.183610 0.982397
vn -0.095651 0.645589 0.757671
vn 0.624115 0.749981 0.219109
vn -0.845616 -0.523963 0.101965
vn 0.485109 0.856445 -0.176554
vn 0.304561 0.940117 -0.153047
vn 0.368662 0.910772 -0.185965
vn 0.543633 0.825731 -0.150438
vn 0.365049 0.926383 -0.092484
vn 0.891351 0.441739 -0.101783
vn 0.276799 -0.949654 0.146761
vn 0.971677 -0.234938 0.025434
vn 0.971736 -0.223049 0.077320
vn 0.993407 0.065439 0.094125
vn 0.999248 -0.033219 0.020010
vn 0.300616 -0.947599 0.108104
vn 0.651788 -0.739831 0.166800
vn 0.321305 -0.933435 0.159568
vn -0.102546 -0.987358 0.120868
vn -0.151264 -0.979890 0.130137
vn 0.499121 -0.846674 0.184451
vn 0.463545 -0.865855 0.188207
vn 0.559732 -0.808350 0.182402
vn 0.351642 -0.919115 0.177697
vn 0.574540 -0.797835 0.182654
vn 0.566149 -0.803485 0.184086
vn 0.144389 -0.978991 0.143973
vn 0.463960 -0.866629 0.183561
vn 0.485736 -0.854921 0.182129
vn 0.530913 -0.825879 0.189881
vn 0.150165 -0.965663 0.212005
vn -0.034136 -0.976751 0.211639
vn 0.815960 0.577440 0.027781
vn 0.650272 -0.738798 0.176984
vn 0.610747 -0.750837 0.251460
vn 0.982858 -0.087122 0.162482
vn 0.980109 0.164620 0.110843
vn 0.980052 0.171633 0.100196
vn 0.925013 -0.364638 0.106721
vn 0.777098 0.629250 0.012774
vn 0.960115 0.265919 0.086405
vn 0.095427 -0.990743 0.096546
vn 0.564842 -0.824937 0.020809
vn 0.972009 0.232418 0.034354
vn 0.420450 -0.898492 0.126227
vn 0.133925 -0.986600 0.093188
vn 0.720278 -0.537454 0.438569
vn -0.128055 -0.863352 0.488084
vn 0.649967 -0.568389 0.504457
vn 0.115250 -0.742392 0.659978
vn 0.325704 -0.783887 0.528619
vn 0.888813 -0.232008 0.395200
vn 0.686591 0.130889 0.715165
vn 0.749649 -0.151446 0.644275
vn 0.604700 0.141755 0.783737
vn 0.758204 -0.033674 0.651147
vn 0.993669 -0.005491 0.112215
vn 0.971861 0.002760 0.235539
vn 0.966634 -0.252303 -0.044291
vn 0.862133 0.089537 0.498708
vn 0.667935 -0.126123 -0.733455
vn 0.886489 -0.263165 -0.380632
vn 0.595576 -0.264001 -0.758678
vn -0.513873 -0.390666 0.763750
vn -0.140235 -0.537399 0.831587
vn -0.135629 0.184108 0.973503
vn 0.636272 -0.606543 0.476722
vn 0.018217 0.115880 0.993096
vn 0.373283 -0.168820 0.912228
vn 0.175722 0.263783 0.948441
vn -0.612575 -0.790087 0.022666
vn -0.045830 -0.863464 0.502324
vn -0.010926 -0.998228 0.058486
vn -0.210331 -0.968724 -0.131661
vn 0.597127 -0.680736 0.424309
vn 0.106205 -0.966532 -0.233530
vn 0.572951 0.801347 -0.171959
vn 0.853779 0.146208 0.499685
vn 0.986050 -0.136586 -0.095124
vn 0.121986 -0.979158 -0.162384
vn 0.195500 -0.975688 -0.099054
vn 0.946949 0.192648 -0.257246
vn 0.964847 -0.075703 -0.251673
vn 0.951000 0.078366 -0.299094
vn 0.233529 -0.958528 0.163367
vn 0.044523 -0.996101 -0.076164
vn 0.756767 -0.649404 -0.074687
vn 0.418915 -0.582167 0.696844
vn 0.589254 -0.397746 0.703262
vn 0.585811 -0.429269 0.687426
vn 0.987469 -0.142315 -0.068194
vn 0.964582 -0.112867 -0.238416
vn 0.819956 -0.423696 0.384908
vn 0.575442 -0.801718 -0.161603
vn 0.921568 -0.344346 -0.179273
vn -0.538810 0.839617 -0.068755
vn -0.556387 0.828335 -0.065534
vn -0.532175 0.841983 -0.088622
vn -0.470042 0.878157 -0.088887
vn 0.374926 0.919098 -0.121198
vn 0.196057 0.966106 -0.167929
vn 0.770716 0.613267 -0.172917
vn -0.941550 0.155462 -0.298856
vn -0.777401 -0.217323 -0.590270
vn -0.821769 -0.182457 -0.539820
vn -0.746006 -0.284953 -0.601894
vn -0.589091 -0.477229 -0.652092
vn -0.024935 0.971431 0.236007
vn -0.409154 0.903203 -0.129677
vn 0.611880 0.789795 -0.042743
vn -0.295788 0.951634 -0.083084
vn -0.346186 0.935317 -0.073058
vn -0.301007 0.942045 -0.148142
vn -0.370939 0.916911 -0.147238
vn -0.905389 -0.424522 0.007190
vn -0.970045 -0.215595 0.111948
vn -0.997139 -0.040188 0.064017
vn -0.250660 -0.931915 0.262115
vn -0.146090 -0.912611 0.381836
vn 0.522170 -0.739992 0.423971
vn 0.568311 -0.691108 0.446533
vn -0.916321 -0.089765 0.390253
vn -0.816164 -0.492352 0.302433
vn -0.562563 -0.696102 0.446055
vn -0.617258 -0.570386 0.541897
vn -0.567223 -0.675666 0.470886
vn 0.148664 -0.810202 0.566985
vn -0.249234 0.832122 0.495434
vn -0.022793 0.538427 0.842364
vn 0.102936 0.884231 0.455566
vn 0.209106 0.131335 0.969033
vn 0.219852 0.073407 0.972768
vn 0.741913 0.081225 0.665558
vn 0.523280 0.744800 0.414066
vn 0.158437 -0.513870 0.843111
vn 0.737278 -0.398634 0.545446
vn -0.047862 -0.784963 0.617692
vn -0.407942 -0.140567 0.902122
vn 0.397905 0.901543 -0.169974
vn -0.696966 -0.557799 0.450665
vn -0.681444 -0.730633 0.042541
vn -0.699560 -0.702228 0.132259
vn 0.231964 0.960189 -0.155661
vn 0.277592 0.943415 -0.181414
vn -0.211968 0.951879 -0.221350
vn 0.137414 0.964930 -0.223669
vn 0.033323 0.969696 -0.242030
vn 0.745169 -0.633852 0.207254
vn 0.291792 -0.032676 0.955923
vn -0.021675 -0.041957 0.998884
vn 0.815828 0.018757 0.577991
vn 0.721488 0.194697 0.664490
vn 0.687420 0.233532 0.687689
vn 0.217945 0.836693 0.502438
vn -0.116822 0.321773 0.939582
vn 0.600109 0.682715 -0.416856
vn 0.986022 0.116300 0.119311
vn 0.938189 -0.289854 0.189174
vn 0.999621 0.023964 -0.013583
vn 0.850005 0.522715 -0.065275
vn 0.945348 0.316289 -0.079233
vn 0.811626 -0.578241 0.083071
vn 0.998766 0.040068 -0.029345
vn 0.808396 -0.585950 0.056203
vn 0.774956 -0.580294 0.250402
vn 0.809829 -0.396871 0.432055
vn 0.994052 -0.093865 0.055232
vn 0.611908 0.705836 0.356881
vn 0.671446 0.740983 0.010210
vn 0.919322 0.387710 -0.067291
vn 0.431864 -0.891416 0.137368
vn 0.903874 -0.378379 -0.199600
vn -0.821522 -0.462592 0.333332
vn -0.930762 -0.361082 0.057463
vn -0.798621 -0.475684 0.368686
vn -0.157530 -0.552014 -0.818819
vn -0.056154 -0.470717 -0.880495
vn -0.049638 -0.480301 -0.875698
vn -0.144033 -0.493863 0.857527
vn -0.114859 -0.570345 0.813335
vn -0.140636 -0.502447 0.853093
vn -0.653277 -0.661805 -0.367754
vn -0.631852 -0.677475 -0.376552
vn -0.645121 -0.669078 -0.368989
vn -0.169859 -0.470708 -0.865784
vn -0.273164 -0.543836 -0.793488
vn -0.665730 -0.404854 0.626815
vn -0.109594 -0.777835 0.618839
vn 0.061864 -0.756759 0.650760
vn -0.152800 -0.776844 0.610872
vn -0.259337 -0.858612 0.442188
vn -0.125574 -0.742996 0.657410
vn 0.123272 -0.656417 0.744259
vn 0.117349 -0.651460 0.749553
vn -0.488811 -0.362572 -0.793477
vn -0.302968 -0.529068 -0.792652
vn -0.527469 -0.333916 -0.781202
vn -0.147813 -0.375691 -0.914881
vn 0.377242 -0.050895 -0.924715
vn 0.089554 -0.746526 0.659302
vn 0.088951 -0.746732 0.659151
vn 0.091940 -0.746386 0.659132
vn 0.069968 -0.748205 0.659768
vn 0.084286 -0.747915 0.658421
vn 0.092029 -0.746348 0.659163
vn 0.091400 -0.746490 0.659089
vn 0.091066 -0.746660 0.658943
vn 0.070826 -0.748880 0.658910
vn 0.040854 -0.523003 0.851351
vn 0.177992 -0.704053 0.687479
vn 0.896663 -0.138680 -0.420431
vn 0.900033 -0.137698 -0.413497
vn 0.900306 -0.134909 -0.413822
vn 0.898966 -0.135029 -0.416686
vn 0.898266 -0.139443 -0.416741
vn 0.896562 -0.147524 -0.417628
vn 0.701362 0.087577 -0.707405
vn 0.704763 0.079882 -0.704932
vn 0.700026 0.055115 -0.711988
vn 0.971275 -0.053832 -0.231792
vn 0.744165 -0.628144 0.227274
vn 0.812123 -0.548218 0.199785
vn 0.826422 -0.503214 0.252592
vn -0.216062 -0.614451 -0.758794
vn -0.211223 -0.610915 -0.762999
vn -0.695888 -0.607863 -0.382417
vn -0.438698 -0.661745 -0.607978
vn -0.719115 -0.692743 -0.054605
vn -0.615978 -0.635004 -0.466199
vn -0.670268 -0.354012 0.652240
vn -0.696741 -0.376390 0.610641
vn -0.672505 -0.352819 0.650581
vn -0.674128 -0.357736 0.646202
vn -0.270722 -0.291663 -0.917411
vn -0.275641 -0.289968 -0.916483
vn -0.311389 -0.279186 -0.908346
vn -0.369010 -0.256479 -0.893337
vn -0.398027 -0.219118 -0.890821
vn -0.414186 -0.204428 -0.886938
vn -0.141555 -0.469700 0.871403
vn -0.146599 -0.475579 0.867371
vn -0.144362 -0.480135 0.865234
vn -0.485013 -0.283548 -0.827262
vn -0.532778 -0.272737 -0.801101
vn -0.658761 -0.216143 -0.720635
vn -0.652681 -0.219043 -0.725277
vn 0.092628 -0.478491 0.873193
vn 0.116902 -0.487945 0.865011
vn 0.094071 -0.485187 0.869335
vn 0.126237 -0.651017 0.748492
vn 0.279466 -0.446519 0.850012
vn 0.257914 -0.454330 0.852681
vn 0.255916 -0.458845 0.850863
vn 0.277459 -0.424746 0.861747
vn 0.261141 -0.462406 0.847340
vn 0.262413 -0.448719 0.854278
vn -0.589886 -0.443130 -0.675033
vn -0.626109 -0.350562 -0.696487
vn -0.627937 -0.221523 -0.746071
vn -0.424019 -0.085278 -0.901630
vn -0.428412 -0.081953 -0.899860
vn -0.436445 -0.083705 -0.895829
vn -0.425014 -0.084526 -0.901232
vn -0.081976 -0.144485 -0.986106
vn -0.082792 -0.144395 -0.986050
vn -0.082459 -0.144480 -0.986066
vn 0.301982 -0.003982 -0.953305
vn 0.311744 -0.004987 -0.950153
vn 0.321555 -0.010750 -0.946830
vn 0.059972 -0.649679 0.757840
vn 0.057716 -0.649931 0.757798
vn 0.056064 -0.650476 0.757455
vn 0.118700 -0.611237 0.782496
vn 0.012644 -0.667796 0.744237
vn 0.040937 -0.653758 0.755596
vn 0.053696 -0.651111 0.757080
vn 0.091076 -0.642192 0.761114
vn 0.086793 -0.644537 0.759631
vn 0.121638 -0.632498 0.764951
vn 0.684361 -0.600905 0.412994
vn 0.116066 -0.793695 0.597141
vn 0.122492 -0.808483 0.575631
vn 0.977067 -0.073238 -0.199939
vn 0.961845 -0.232555 -0.144125
vn 0.963864 -0.223054 -0.145648
vn 0.583885 0.135790 -0.800400
vn 0.592486 0.151522 -0.791203
vn 0.914124 0.258811 -0.312081
vn 0.913892 0.260498 -0.311354
vn 0.755839 0.154152 -0.636353
vn 0.752586 0.153675 -0.640311
vn 0.755051 0.154221 -0.637270
vn -0.930445 0.356110 0.086361
vn -0.961266 0.258099 0.096706
vn -0.946072 0.289587 0.145213
vn -0.946272 0.282844 0.156745
vn -0.946437 0.284965 0.151831
vn -0.947905 0.279230 0.153320
vn 0.948180 -0.278236 -0.153425
vn 0.108515 0.979082 -0.172111
vn 0.002304 0.984779 -0.173797
vn 0.108296 0.979370 -0.170608
vn -0.042607 0.983572 -0.175415
vn -0.078927 0.981268 -0.175736
vn -0.031173 0.983577 -0.177774
vn -0.084010 0.981080 -0.174428
vn -0.083714 0.981112 -0.174388
vn -0.083305 0.981132 -0.174474
vn -0.979239 -0.083693 0.184623
vn -0.982916 -0.017044 0.183264
vn -0.977302 -0.126943 0.169607
vn -0.979428 -0.082111 0.184332
vn -0.979092 -0.081352 0.186443
vn -0.979188 -0.084706 0.184432
vn 0.978894 0.079643 -0.188213
vn -0.380994 0.912738 -0.147490
vn -0.380142 0.912743 -0.149643
vn -0.373259 0.915507 -0.150084
vn -0.360752 0.921179 -0.145903
vn -0.364890 0.918805 -0.150511
vn -0.375042 0.914858 -0.149593
vn -0.374772 0.914854 -0.150293
vn -0.920104 0.267651 0.285957
vn -0.904128 0.336458 0.263342
vn -0.903868 0.332684 0.268967
vn 0.899721 -0.331477 -0.283946
vn -0.944901 -0.184881 -0.270150
vn -0.957544 -0.216327 -0.190559
vn -0.887709 -0.121033 -0.444211
vn -0.978018 0.091689 -0.187279
vn -0.939270 0.331416 0.089078
vn -0.948913 0.244437 0.199538
vn -0.793016 0.577608 0.193636
vn -0.934499 0.261896 0.241087
vn -0.919338 0.312340 0.239294
vn -0.090360 -0.781994 -0.616701
vn -0.477379 -0.794023 -0.376348
vn -0.435108 -0.791036 -0.430051
vn -0.354671 -0.874522 -0.330787
vn -0.071424 -0.811041 -0.580613
vn -0.063511 -0.810395 -0.582431
vn -0.351351 -0.874874 -0.333389
vn -0.054632 -0.812887 -0.579854
vn -0.489721 -0.853573 -0.177724
vn -0.326130 -0.877922 -0.350560
vn 0.645074 0.758338 -0.093827
vn 0.714669 0.699443 -0.005336
vn 0.695516 0.718429 -0.010864
vn -0.210114 -0.924714 -0.317420
vn -0.300742 -0.822914 -0.482044
vn -0.044746 -0.821251 -0.568810
vn 0.445833 -0.559513 -0.698697
vn 0.507517 -0.603462 -0.615029
vn 0.421518 -0.711062 -0.562773
vn 0.746800 -0.631017 -0.210018
vn 0.716108 -0.640728 -0.276869
vn 0.720094 -0.639118 -0.270171
vn 0.742722 -0.641619 -0.191545
vn 0.945144 -0.117015 -0.304975
vn 0.955796 0.286716 0.065183
vn 0.965793 -0.226278 0.126653
vn 0.900837 -0.204091 -0.383197
vn 0.926424 0.339003 -0.163758
vn -0.791848 0.609818 -0.033147
vn -0.761593 0.646359 -0.046860
vn -0.792081 0.609682 -0.029930
vn -0.791752 0.610088 -0.030343
vn -0.786314 0.616774 -0.036047
vn -0.464818 0.871828 -0.154468
vn -0.463662 0.872416 -0.154623
vn -0.464340 0.872048 -0.154662
vn -0.964036 -0.188533 0.187322
vn -0.972045 -0.160033 0.171810
vn -0.981370 -0.132641 0.138991
vn -0.971290 0.206482 0.118160
vn -0.969804 0.210918 0.122448
vn -0.970132 0.209951 0.121512
vn -0.690176 -0.548070 -0.472521
vn -0.690852 -0.547946 -0.471676
vn 0.176036 0.962726 -0.205354
vn 0.184334 0.961579 -0.203437
vn -0.964640 0.188429 0.184295
vn -0.933002 0.175633 0.314102
vn -0.934284 0.172191 0.312191
vn -0.196069 -0.917180 -0.346896
vn -0.315817 -0.877980 -0.359736
vn -0.304510 -0.886463 -0.348507
vn -0.369148 -0.865663 -0.338167
vn -0.362410 -0.866787 -0.342548
vn 0.828216 0.559563 0.030779
vn 0.833593 0.550940 0.039850
vn -0.121346 -0.826363 -0.549908
vn 0.093848 -0.967362 -0.235380
vn 0.086398 -0.967323 -0.238372
vn 0.296167 -0.888917 -0.349443
vn 0.295246 -0.889636 -0.348393
vn 0.934216 0.191719 0.300808
vn 0.935762 0.195683 0.293357
vn 0.935437 0.193351 0.295928
vn 0.935657 0.191749 0.296273
vn -0.406940 -0.912375 -0.044409
vn -0.410823 -0.910834 -0.040078
vn -0.413650 -0.909619 -0.038567
vn -0.083159 -0.956227 -0.280560
vn -0.083174 -0.956058 -0.281132
vn -0.083567 -0.956004 -0.281198
vn -0.082700 -0.956056 -0.281278
vn 0.623504 -0.775996 -0.095252
vn 0.600147 -0.795368 -0.084926
vn 0.618091 -0.779901 -0.098577
vn 0.969357 -0.152709 0.192422
vn 0.969139 -0.146158 0.198514
vn 0.968306 -0.141494 0.205821
f 61//61 60//60 59//59
f 357//357 355//355 356//356
f 355//355 1//1 139//139
f 356//356 166//166 60//60
f 139//139 166//166 356//356
f 355//355 139//139 356//356
f 371//371 1//1 355//355
f 359//359 360//360 1//1
f 361//361 360//360 359//359
f 362//362 177//177 90//90
f 170//170 592//592 362//362
f 174//174 171//171 592//592
f 592//592 171//171 3//3
f 4//4 370//370 89//89
f 370//370 371//371 358//358
f 89//89 358//358 357//357
f 370//370 358//358 89//89
f 4//4 61//61 59//59
f 65//65 4//4 59//59
f 197//197 359//359 88//88
f 197//197 241//241 359//359
f 359//359 241//241 361//361
f 376//376 65//65 59//59
f 371//371 355//355 358//358
f 358//358 355//355 357//357
f 169//169 67//67 167//167
f 35//35 63//63 169//169
f 170//170 167//167 168//168
f 167//167 67//67 204//204
f 167//167 204//204 168//168
f 203//203 641//641 172//172
f 172//172 204//204 203//203
f 203//203 59//59 62//62
f 203//203 62//62 641//641
f 176//176 56//56 175//175
f 176//176 175//175 361//361
f 361//361 175//175 360//360
f 167//167 170//170 169//169
f 169//169 170//170 362//362
f 170//170 174//174 592//592
f 168//168 173//173 170//170
f 170//170 173//173 174//174
f 90//90 363//363 178//178
f 365//365 363//363 90//90
f 90//90 177//177 365//365
f 365//365 364//364 363//363
f 177//177 364//364 365//365
f 177//177 588//588 364//364
f 588//588 366//366 364//364
f 364//364 366//366 178//178
f 364//364 178//178 363//363
f 63//63 35//35 91//91
f 91//91 35//35 366//366
f 366//366 595//595 91//91
f 91//91 207//207 63//63
f 63//63 437//437 435//435
f 91//91 595//595 207//207
f 207//207 159//159 247//247
f 171//171 174//174 173//173
f 204//204 172//172 168//168
f 172//172 173//173 168//168
f 171//171 173//173 172//172
f 180//180 97//97 179//179
f 181//181 14//14 180//180
f 406//406 402//402 405//405
f 406//406 405//405 404//404
f 406//406 404//404 93//93
f 181//181 401//401 14//14
f 180//180 179//179 182//182
f 180//180 182//182 181//181
f 182//182 179//179 188//188
f 179//179 220//220 188//188
f 220//220 5//5 188//188
f 221//221 181//181 182//182
f 221//221 182//182 188//188
f 221//221 193//193 72//72
f 188//188 193//193 221//221
f 220//220 267//267 5//5
f 221//221 72//72 226//226
f 5//5 368//368 193//193
f 5//5 193//193 188//188
f 72//72 193//193 194//194
f 194//194 193//193 195//195
f 193//193 368//368 192//192
f 193//193 192//192 195//195
f 94//94 5//5 369//369
f 94//94 368//368 5//5
f 72//72 194//194 184//184
f 194//194 195//195 196//196
f 184//184 196//196 64//64
f 194//194 196//196 184//184
f 195//195 192//192 190//190
f 191//191 190//190 373//373
f 195//195 190//190 191//191
f 64//64 191//191 183//183
f 183//183 373//373 4//4
f 191//191 373//373 183//183
f 195//195 191//191 196//196
f 196//196 191//191 64//64
f 72//72 184//184 185//185
f 184//184 64//64 187//187
f 184//184 187//187 185//185
f 183//183 4//4 65//65
f 64//64 183//183 187//187
f 183//183 65//65 186//186
f 187//187 186//186 185//185
f 183//183 186//186 187//187
f 185//185 186//186 189//189
f 186//186 65//65 189//189
f 185//185 189//189 72//72
f 72//72 225//225 224//224
f 198//198 374//374 71//71
f 198//198 71//71 225//225
f 225//225 71//71 224//224
f 88//88 369//369 292//292
f 4//4 373//373 370//370
f 190//190 192//192 372//372
f 373//373 372//372 95//95
f 190//190 372//372 373//373
f 373//373 95//95 370//370
f 369//369 88//88 94//94
f 65//65 374//374 198//198
f 189//189 225//225 72//72
f 65//65 198//198 189//189
f 198//198 225//225 189//189
f 371//371 370//370 95//95
f 224//224 71//71 227//227
f 71//71 374//374 200//200
f 71//71 200//200 227//227
f 199//199 200//200 374//374
f 374//374 65//65 6//6
f 65//65 375//375 6//6
f 228//228 377//377 7//7
f 200//200 377//377 228//228
f 65//65 376//376 375//375
f 6//6 375//375 376//376
f 377//377 200//200 199//199
f 382//382 201//201 8//8
f 377//377 199//199 378//378
f 377//377 378//378 66//66
f 9//9 6//6 376//376
f 382//382 376//376 201//201
f 9//9 376//376 382//382
f 197//197 419//419 241//241
f 59//59 201//201 376//376
f 59//59 203//203 201//201
f 203//203 202//202 201//201
f 201//201 202//202 8//8
f 7//7 377//377 229//229
f 377//377 66//66 229//229
f 202//202 381//381 8//8
f 203//203 381//381 202//202
f 9//9 382//382 385//385
f 96//96 8//8 381//381
f 96//96 381//381 383//383
f 382//382 8//8 96//96
f 382//382 96//96 385//385
f 9//9 385//385 384//384
f 384//384 385//385 383//383
f 385//385 96//96 383//383
f 9//9 206//206 36//36
f 206//206 205//205 36//36
f 9//9 384//384 206//206
f 383//383 381//381 384//384
f 206//206 384//384 205//205
f 384//384 381//381 205//205
f 67//67 41//41 205//205
f 204//204 67//67 381//381
f 203//203 204//204 381//381
f 381//381 67//67 205//205
f 10//10 242//242 205//205
f 205//205 242//242 36//36
f 255//255 68//68 361//361
f 208//208 176//176 68//68
f 68//68 176//176 361//361
f 176//176 19//19 56//56
f 97//97 209//209 12//12
f 209//209 180//180 69//69
f 209//209 97//97 180//180
f 69//69 180//180 14//14
f 209//209 210//210 12//12
f 209//209 69//69 210//210
f 212//212 210//210 213//213
f 210//210 69//69 399//399
f 210//210 399//399 213//213
f 212//212 214//214 210//210
f 210//210 394//394 12//12
f 214//214 394//394 210//210
f 214//214 212//212 396//396
f 215//215 214//214 396//396
f 389//389 367//367 387//387
f 389//389 387//387 388//388
f 367//367 389//389 393//393
f 389//389 388//388 393//393
f 393//393 92//92 367//367
f 13//13 391//391 390//390
f 390//390 391//391 211//211
f 390//390 211//211 13//13
f 392//392 12//12 394//394
f 214//214 215//215 394//394
f 394//394 215//215 395//395
f 394//394 395//395 392//392
f 92//92 393//393 216//216
f 393//393 388//388 392//392
f 393//393 392//392 216//216
f 263//263 24//24 38//38
f 396//396 397//397 75//75
f 396//396 75//75 215//215
f 215//215 25//25 258//258
f 259//259 25//25 215//215
f 23//23 397//397 99//99
f 75//75 397//397 23//23
f 404//404 367//367 93//93
f 92//92 93//93 367//367
f 37//37 219//219 93//93
f 37//37 93//93 92//92
f 216//216 100//100 217//217
f 92//92 217//217 37//37
f 216//216 217//217 92//92
f 262//262 37//37 217//217
f 215//215 258//258 395//395
f 395//395 410//410 216//216
f 100//100 216//216 218//218
f 216//216 392//392 395//395
f 218//218 216//216 410//410
f 410//410 395//395 258//258
f 217//217 100//100 262//262
f 101//101 398//398 415//415
f 415//415 398//398 219//219
f 398//398 266//266 219//219
f 263//263 38//38 400//400
f 400//400 38//38 401//401
f 219//219 266//266 93//93
f 266//266 403//403 93//93
f 93//93 403//403 406//406
f 406//406 403//403 402//402
f 266//266 264//264 403//403
f 264//264 266//266 398//398
f 220//220 402//402 265//265
f 402//402 403//403 265//265
f 403//403 264//264 265//265
f 220//220 265//265 267//267
f 264//264 267//267 265//265
f 401//401 87//87 400//400
f 222//222 87//87 401//401
f 87//87 222//222 344//344
f 181//181 222//222 401//401
f 221//221 222//222 181//181
f 224//224 76//76 72//72
f 72//72 222//222 226//226
f 222//222 221//221 226//226
f 76//76 222//222 72//72
f 224//224 278//278 76//76
f 76//76 278//278 222//222
f 70//70 267//267 86//86
f 278//278 270//270 222//222
f 70//70 223//223 267//267
f 223//223 5//5 267//267
f 369//369 5//5 223//223
f 292//292 369//369 223//223
f 223//223 273//273 292//292
f 273//273 26//26 292//292
f 224//224 279//279 278//278
f 286//286 279//279 27//27
f 278//278 279//279 286//286
f 224//224 227//227 279//279
f 28//28 279//279 227//227
f 28//28 227//227 200//200
f 299//299 197//197 292//292
f 292//292 197//197 88//88
f 74//74 305//305 200//200
f 197//197 299//299 419//419
f 300//300 299//299 292//292
f 74//74 200//200 228//228
f 228//228 237//237 74//74
f 39//39 420//420 418//418
f 420//420 419//419 418//418
f 420//420 241//241 419//419
f 236//236 380//380 17//17
f 236//236 379//379 380//380
f 380//380 379//379 15//15
f 15//15 73//73 230//230
f 73//73 7//7 229//229
f 73//73 229//229 230//230
f 229//229 66//66 232//232
f 229//229 232//232 230//230
f 236//236 237//237 235//235
f 235//235 228//228 7//7
f 237//237 228//228 235//235
f 246//246 420//420 39//39
f 74//74 407//407 39//39
f 237//237 407//407 74//74
f 378//378 18//18 231//231
f 378//378 36//36 18//18
f 231//231 66//66 378//378
f 17//17 15//15 230//230
f 17//17 230//230 232//232
f 231//231 233//233 17//17
f 231//231 232//232 66//66
f 17//17 232//232 231//231
f 231//231 16//16 233//233
f 16//16 231//231 234//234
f 234//234 231//231 239//239
f 15//15 17//17 380//380
f 16//16 17//17 238//238
f 17//17 233//233 238//238
f 233//233 16//16 238//238
f 17//17 16//16 81//81
f 386//386 244//244 18//18
f 386//386 18//18 36//36
f 240//240 18//18 244//244
f 105//105 244//244 386//386
f 450//450 240//240 244//244
f 450//450 244//244 105//105
f 450//450 105//105 45//45
f 450//450 16//16 240//240
f 81//81 450//450 307//307
f 18//18 239//239 231//231
f 240//240 239//239 18//18
f 234//234 239//239 16//16
f 16//16 239//239 240//240
f 81//81 16//16 450//450
f 420//420 246//246 241//241
f 246//246 361//361 241//241
f 407//407 237//237 248//248
f 237//237 236//236 248//248
f 407//407 249//249 39//39
f 36//36 242//242 386//386
f 386//386 243//243 451//451
f 242//242 243//243 386//386
f 20//20 39//39 249//249
f 248//248 249//249 407//407
f 246//246 245//245 361//361
f 245//245 255//255 361//361
f 250//250 255//255 245//245
f 39//39 245//245 246//246
f 245//245 39//39 20//20
f 245//245 20//20 250//250
f 17//17 248//248 236//236
f 252//252 20//20 249//249
f 253//253 68//68 255//255
f 21//21 255//255 250//250
f 176//176 208//208 19//19
f 68//68 253//253 208//208
f 208//208 251//251 19//19
f 19//19 251//251 321//321
f 251//251 21//21 250//250
f 20//20 251//251 250//250
f 252//252 321//321 20//20
f 251//251 20//20 321//321
f 21//21 251//251 254//254
f 251//251 208//208 253//253
f 251//251 253//253 254//254
f 255//255 254//254 253//253
f 21//21 254//254 255//255
f 322//322 22//22 98//98
f 322//322 83//83 22//22
f 621//621 19//19 257//257
f 321//321 32//32 322//322
f 321//321 322//322 98//98
f 19//19 321//321 257//257
f 257//257 321//321 621//621
f 321//321 98//98 621//621
f 621//621 98//98 163//163
f 263//263 99//99 24//24
f 263//263 330//330 99//99
f 23//23 409//409 75//75
f 409//409 408//408 259//259
f 409//409 259//259 75//75
f 259//259 215//215 75//75
f 408//408 25//25 259//259
f 23//23 85//85 409//409
f 408//408 260//260 258//258
f 85//85 260//260 408//408
f 409//409 85//85 408//408
f 85//85 23//23 325//325
f 410//410 412//412 218//218
f 100//100 218//218 411//411
f 218//218 412//412 411//411
f 412//412 410//410 260//260
f 260//260 410//410 258//258
f 260//260 261//261 414//414
f 260//260 414//414 412//412
f 261//261 413//413 101//101
f 413//413 261//261 260//260
f 413//413 260//260 325//325
f 268//268 101//101 413//413
f 325//325 260//260 85//85
f 398//398 101//101 268//268
f 413//413 336//336 268//268
f 400//400 330//330 263//263
f 268//268 264//264 398//398
f 269//269 267//267 264//264
f 269//269 264//264 86//86
f 346//346 430//430 271//271
f 346//346 271//271 338//338
f 269//269 86//86 267//267
f 338//338 271//271 86//86
f 86//86 271//271 274//274
f 87//87 344//344 430//430
f 270//270 344//344 222//222
f 430//430 344//344 271//271
f 344//344 270//270 271//271
f 272//272 271//271 270//270
f 271//271 272//272 274//274
f 275//275 272//272 270//270
f 275//275 270//270 278//278
f 86//86 274//274 70//70
f 274//274 223//223 70//70
f 223//223 274//274 273//273
f 273//273 274//274 272//272
f 273//273 272//272 26//26
f 275//275 278//278 277//277
f 275//275 277//277 276//276
f 272//272 276//276 26//26
f 275//275 276//276 272//272
f 278//278 286//286 277//277
f 286//286 27//27 283//283
f 286//286 283//283 78//78
f 286//286 78//78 277//277
f 277//277 78//78 284//284
f 78//78 283//283 285//285
f 283//283 27//27 281//281
f 285//285 281//281 77//77
f 283//283 281//281 285//285
f 277//277 282//282 276//276
f 282//282 77//77 280//280
f 276//276 280//280 26//26
f 282//282 280//280 276//276
f 78//78 285//285 284//284
f 285//285 77//77 282//282
f 284//284 282//282 277//277
f 285//285 282//282 284//284
f 27//27 290//290 281//281
f 281//281 289//289 77//77
f 290//290 289//289 281//281
f 289//289 417//417 79//79
f 290//290 417//417 289//289
f 77//77 288//288 280//280
f 288//288 79//79 287//287
f 280//280 287//287 26//26
f 288//288 287//287 280//280
f 289//289 79//79 288//288
f 289//289 288//288 77//77
f 26//26 416//416 292//292
f 27//27 279//279 290//290
f 279//279 291//291 290//290
f 417//417 292//292 416//416
f 295//295 292//292 417//417
f 291//291 29//29 294//294
f 291//291 294//294 290//290
f 290//290 294//294 417//417
f 295//295 417//417 294//294
f 295//295 298//298 296//296
f 292//292 295//295 296//296
f 28//28 291//291 279//279
f 28//28 29//29 291//291
f 29//29 293//293 294//294
f 294//294 293//293 295//295
f 200//200 301//301 28//28
f 293//293 29//29 28//28
f 293//293 28//28 301//301
f 295//295 293//293 298//298
f 296//296 300//300 292//292
f 301//301 200//200 305//305
f 296//296 298//298 297//297
f 293//293 301//301 298//298
f 296//296 297//297 300//300
f 301//301 302//302 298//298
f 302//302 80//80 423//423
f 303//303 423//423 422//422
f 302//302 423//423 298//298
f 298//298 423//423 303//303
f 302//302 301//301 305//305
f 302//302 305//305 80//80
f 80//80 305//305 304//304
f 304//304 74//74 39//39
f 305//305 74//74 304//304
f 298//298 303//303 300//300
f 298//298 300//300 297//297
f 300//300 303//303 299//299
f 299//299 303//303 419//419
f 419//419 303//303 418//418
f 303//303 422//422 418//418
f 418//418 422//422 39//39
f 80//80 421//421 423//423
f 421//421 422//422 423//423
f 81//81 306//306 17//17
f 81//81 308//308 306//306
f 448//448 310//310 307//307
f 307//307 310//310 81//81
f 448//448 309//309 310//310
f 310//310 309//309 347//347
f 309//309 30//30 347//347
f 306//306 311//311 17//17
f 310//310 308//308 81//81
f 308//308 348//348 306//306
f 348//348 311//311 306//306
f 348//348 308//308 310//310
f 348//348 310//310 347//347
f 313//313 311//311 348//348
f 311//311 248//248 17//17
f 311//311 319//319 248//248
f 313//313 312//312 311//311
f 311//311 312//312 319//319
f 347//347 352//352 348//348
f 317//317 248//248 319//319
f 315//315 319//319 312//312
f 313//313 348//348 314//314
f 313//313 314//314 312//312
f 348//348 315//315 314//314
f 315//315 312//312 314//314
f 315//315 316//316 319//319
f 316//316 82//82 319//319
f 348//348 352//352 349//349
f 315//315 348//348 349//349
f 352//352 315//315 349//349
f 316//316 350//350 82//82
f 315//315 350//350 316//316
f 82//82 321//321 318//318
f 321//321 252//252 318//318
f 249//249 248//248 252//252
f 248//248 318//318 252//252
f 248//248 317//317 318//318
f 318//318 319//319 82//82
f 317//317 319//319 318//318
f 320//320 124//124 83//83
f 84//84 83//83 322//322
f 84//84 322//322 32//32
f 320//320 83//83 84//84
f 23//23 99//99 323//323
f 23//23 323//323 324//324
f 324//324 33//33 23//23
f 99//99 330//330 323//323
f 330//330 324//324 323//323
f 40//40 328//328 324//324
f 40//40 326//326 328//328
f 33//33 324//324 328//328
f 33//33 328//328 325//325
f 330//330 332//332 324//324
f 324//324 331//331 40//40
f 332//332 331//331 324//324
f 331//331 332//332 40//40
f 332//332 334//334 40//40
f 325//325 23//23 33//33
f 424//424 425//425 334//334
f 425//425 326//326 334//334
f 334//334 326//326 40//40
f 328//328 327//327 325//325
f 328//328 337//337 329//329
f 328//328 329//329 327//327
f 325//325 329//329 413//413
f 327//327 329//329 325//325
f 326//326 425//425 328//328
f 425//425 337//337 328//328
f 426//426 337//337 425//425
f 330//330 400//400 87//87
f 330//330 87//87 333//333
f 332//332 330//330 333//333
f 424//424 334//334 332//332
f 337//337 427//427 329//329
f 329//329 428//428 413//413
f 427//427 428//428 329//329
f 337//337 428//428 427//427
f 413//413 428//428 336//336
f 428//428 337//337 429//429
f 428//428 429//429 336//336
f 426//426 429//429 337//337
f 34//34 333//333 87//87
f 333//333 34//34 335//335
f 332//332 333//333 339//339
f 333//333 335//335 339//339
f 341//341 354//354 431//431
f 34//34 340//340 335//335
f 34//34 346//346 340//340
f 429//429 341//341 336//336
f 341//341 264//264 336//336
f 336//336 264//264 268//268
f 342//342 86//86 341//341
f 86//86 264//264 341//341
f 426//426 341//341 429//429
f 34//34 345//345 346//346
f 346//346 345//345 430//430
f 346//346 431//431 353//353
f 338//338 86//86 342//342
f 338//338 342//342 343//343
f 341//341 343//343 342//342
f 338//338 343//343 341//341
f 353//353 431//431 354//354
f 87//87 430//430 345//345
f 87//87 345//345 34//34
f 346//346 338//338 431//431
f 431//431 338//338 341//341
f 352//352 350//350 315//315
f 351//351 32//32 321//321
f 351//351 82//82 352//352
f 321//321 82//82 351//351
f 542//542 351//351 352//352
f 352//352 82//82 350//350
f 353//353 354//354 424//424
f 354//354 341//341 426//426
f 354//354 426//426 424//424
f 425//425 424//424 426//426
f 346//346 353//353 340//340
f 340//340 353//353 335//335
f 424//424 332//332 353//353
f 335//335 353//353 339//339
f 353//353 332//332 339//339
f 41//41 67//67 432//432
f 67//67 169//169 433//433
f 67//67 433//433 432//432
f 63//63 207//207 437//437
f 207//207 11//11 437//437
f 242//242 10//10 438//438
f 242//242 438//438 440//440
f 63//63 435//435 441//441
f 63//63 441//441 443//443
f 207//207 247//247 445//445
f 247//247 455//455 445//445
f 10//10 205//205 446//446
f 205//205 41//41 446//446
f 448//448 307//307 447//447
f 307//307 450//450 447//447
f 450//450 45//45 44//44
f 386//386 451//451 105//105
f 242//242 509//509 453//453
f 455//455 247//247 456//456
f 247//247 108//108 454//454
f 247//247 454//454 456//456
f 108//108 247//247 457//457
f 256//256 22//22 457//457
f 247//247 256//256 457//457
f 30//30 309//309 460//460
f 309//309 448//448 460//460
f 109//109 448//448 459//459
f 109//109 459//459 461//461
f 460//460 448//448 109//109
f 539//539 352//352 469//469
f 352//352 347//347 469//469
f 347//347 30//30 469//469
f 469//469 30//30 467//467
f 31//31 320//320 84//84
f 124//124 320//320 478//478
f 320//320 31//31 478//478
f 352//352 539//539 480//480
f 433//433 434//434 432//432
f 434//434 41//41 432//432
f 11//11 436//436 437//437
f 437//437 436//436 435//435
f 438//438 102//102 440//440
f 102//102 439//439 440//440
f 242//242 439//439 509//509
f 440//440 439//439 242//242
f 441//441 442//442 443//443
f 442//442 42//42 443//443
f 63//63 42//42 169//169
f 443//443 42//42 63//63
f 455//455 444//444 445//445
f 444//444 43//43 445//445
f 207//207 43//43 11//11
f 445//445 43//43 207//207
f 41//41 103//103 446//446
f 446//446 103//103 10//10
f 450//450 449//449 104//104
f 44//44 449//449 450//450
f 447//447 104//104 448//448
f 450//450 104//104 447//447
f 451//451 106//106 105//105
f 106//106 45//45 105//105
f 509//509 452//452 453//453
f 452//452 451//451 453//453
f 242//242 453//453 243//243
f 453//453 451//451 243//243
f 108//108 107//107 454//454
f 107//107 455//455 456//456
f 107//107 456//456 454//454
f 457//457 46//46 108//108
f 22//22 46//46 457//457
f 124//124 458//458 83//83
f 458//458 47//47 83//83
f 83//83 47//47 22//22
f 459//459 464//464 461//461
f 464//464 111//111 465//465
f 461//461 465//465 109//109
f 464//464 465//465 461//461
f 466//466 111//111 110//110
f 109//109 463//463 460//460
f 463//463 110//110 462//462
f 460//460 462//462 30//30
f 463//463 462//462 460//460
f 111//111 466//466 465//465
f 466//466 110//110 463//463
f 465//465 463//463 109//109
f 466//466 463//463 465//465
f 467//467 112//112 469//469
f 112//112 468//468 469//469
f 469//469 468//468 539//539
f 32//32 472//472 84//84
f 472//472 113//113 474//474
f 472//472 474//474 84//84
f 113//113 473//473 475//475
f 473//473 48//48 475//475
f 471//471 48//48 470//470
f 84//84 470//470 31//31
f 471//471 470//470 84//84
f 113//113 475//475 474//474
f 475//475 48//48 471//471
f 474//474 471//471 84//84
f 475//475 471//471 474//474
f 31//31 477//477 478//478
f 477//477 476//476 478//478
f 478//478 476//476 124//124
f 542//542 479//479 351//351
f 351//351 479//479 32//32
f 539//539 482//482 480//480
f 482//482 481//481 480//480
f 352//352 481//481 542//542
f 480//480 481//481 352//352
f 435//435 114//114 484//484
f 484//484 114//114 483//483
f 484//484 483//483 435//435
f 169//169 488//488 486//486
f 169//169 485//485 488//488
f 485//485 487//487 488//488
f 488//488 487//487 486//486
f 41//41 115//115 490//490
f 41//41 490//490 116//116
f 115//115 491//491 492//492
f 116//116 492//492 489//489
f 492//492 491//491 489//489
f 115//115 492//492 490//490
f 490//490 492//492 116//116
f 455//455 117//117 494//494
f 455//455 494//494 493//493
f 494//494 117//117 493//493
f 455//455 495//495 496//496
f 495//495 498//498 496//496
f 495//495 497//497 498//498
f 498//498 497//497 496//496
f 499//499 118//118 500//500
f 500//500 118//118 501//501
f 500//500 501//501 499//499
f 455//455 502//502 503//503
f 502//502 504//504 503//503
f 502//502 505//505 504//504
f 504//504 505//505 503//503
f 506//506 119//119 508//508
f 506//506 508//508 507//507
f 508//508 119//119 507//507
f 509//509 120//120 511//511
f 509//509 511//511 510//510
f 511//511 120//120 510//510
f 121//121 512//512 515//515
f 512//512 514//514 515//515
f 121//121 515//515 513//513
f 515//515 514//514 513//513
f 455//455 516//516 517//517
f 516//516 518//518 517//517
f 518//518 516//516 122//122
f 518//518 122//122 517//517
f 22//22 522//522 520//520
f 22//22 519//519 522//522
f 522//522 519//519 521//521
f 522//522 521//521 520//520
f 123//123 524//524 525//525
f 123//123 525//525 523//523
f 525//525 524//524 523//523
f 124//124 528//528 527//527
f 124//124 527//527 526//526
f 527//527 528//528 526//526
f 125//125 531//531 530//530
f 125//125 530//530 529//529
f 530//530 531//531 529//529
f 451//451 534//534 532//532
f 451//451 533//533 534//534
f 534//534 533//533 126//126
f 534//534 126//126 532//532
f 535//535 536//536 538//538
f 535//535 537//537 536//536
f 536//536 537//537 538//538
f 539//539 127//127 541//541
f 127//127 540//540 541//541
f 541//541 540//540 539//539
f 542//542 543//543 49//49
f 542//542 544//544 543//543
f 543//543 544//544 49//49
f 31//31 128//128 546//546
f 31//31 546//546 129//129
f 129//129 546//546 545//545
f 546//546 128//128 545//545
f 130//130 50//50 548//548
f 130//130 548//548 547//547
f 548//548 50//50 547//547
f 31//31 551//551 550//550
f 31//31 549//549 551//551
f 551//551 549//549 550//550
f 2//2 59//59 553//553
f 59//59 60//60 552//552
f 59//59 552//552 553//553
f 553//553 552//552 131//131
f 1//1 360//360 559//559
f 559//559 561//561 133//133
f 360//360 561//561 559//559
f 133//133 175//175 560//560
f 175//175 156//156 560//560
f 360//360 175//175 561//561
f 561//561 175//175 133//133
f 59//59 2//2 62//62
f 136//136 2//2 568//568
f 62//62 2//2 136//136
f 139//139 1//1 575//575
f 139//139 575//575 576//576
f 139//139 576//576 577//577
f 172//172 641//641 582//582
f 172//172 582//582 584//584
f 171//171 172//172 584//584
f 177//177 362//362 586//586
f 177//177 586//586 588//588
f 362//362 592//592 590//590
f 592//592 153//153 590//590
f 153//153 592//592 591//591
f 592//592 3//3 594//594
f 53//53 595//595 597//597
f 595//595 366//366 597//597
f 159//159 207//207 600//600
f 600//600 602//602 144//144
f 207//207 602//602 600//600
f 207//207 595//595 599//599
f 599//599 53//53 143//143
f 595//595 53//53 599//599
f 144//144 603//603 601//601
f 603//603 143//143 598//598
f 603//603 598//598 601//601
f 207//207 599//599 602//602
f 599//599 143//143 603//603
f 602//602 603//603 144//144
f 599//599 603//603 602//602
f 156//156 175//175 605//605
f 175//175 56//56 605//605
f 605//605 56//56 607//607
f 651//651 256//256 609//609
f 256//256 247//247 609//609
f 247//247 159//159 609//609
f 98//98 22//22 611//611
f 98//98 611//611 613//613
f 621//621 163//163 614//614
f 621//621 614//614 617//617
f 619//619 621//621 618//618
f 621//621 55//55 618//618
f 552//552 556//556 131//131
f 556//556 557//557 131//131
f 558//558 556//556 132//132
f 131//131 555//555 553//553
f 555//555 132//132 554//554
f 553//553 554//554 2//2
f 555//555 554//554 553//553
f 556//556 558//558 557//557
f 558//558 132//132 555//555
f 557//557 555//555 131//131
f 558//558 555//555 557//557
f 156//156 564//564 560//560
f 564//564 135//135 566//566
f 560//560 566//566 133//133
f 564//564 566//566 560//560
f 135//135 565//565 567//567
f 567//567 565//565 134//134
f 133//133 563//563 559//559
f 563//563 134//134 562//562
f 559//559 562//562 1//1
f 563//563 562//562 559//559
f 135//135 567//567 566//566
f 567//567 134//134 563//563
f 566//566 563//563 133//133
f 567//567 563//563 566//566
f 2//2 571//571 568//568
f 571//571 138//138 573//573
f 568//568 573//573 136//136
f 571//571 573//573 568//568
f 138//138 572//572 574//574
f 574//574 572//572 137//137
f 136//136 570//570 62//62
f 570//570 137//137 569//569
f 62//62 569//569 641//641
f 570//570 569//569 62//62
f 138//138 574//574 573//573
f 574//574 137//137 570//570
f 573//573 570//570 136//136
f 574//574 570//570 573//573
f 576//576 580//580 577//577
f 581//581 51//51 140//140
f 580//580 51//51 581//581
f 139//139 579//579 166//166
f 579//579 140//140 578//578
f 166//166 578//578 60//60
f 579//579 578//578 166//166
f 580//580 581//581 577//577
f 581//581 140//140 579//579
f 577//577 579//579 139//139
f 581//581 579//579 577//577
f 585//585 582//582 141//141
f 584//584 141//141 583//583
f 171//171 583//583 3//3
f 584//584 583//583 171//171
f 582//582 585//585 584//584
f 585//585 141//141 584//584
f 588//588 586//586 587//587
f 588//588 587//587 366//366
f 153//153 589//589 590//590
f 590//590 589//589 362//362
f 3//3 593//593 594//594
f 593//593 52//52 594//594
f 591//591 52//52 153//153
f 592//592 52//52 591//591
f 594//594 52//52 592//592
f 366//366 142//142 597//597
f 142//142 596//596 597//597
f 596//596 53//53 597//597
f 598//598 145//145 601//601
f 145//145 604//604 144//144
f 600//600 604//604 159//159
f 144//144 604//604 600//600
f 145//145 144//144 601//601
f 56//56 606//606 607//607
f 606//606 156//156 605//605
f 606//606 605//605 607//607
f 159//159 608//608 609//609
f 608//608 651//651 609//609
f 651//651 610//610 256//256
f 610//610 54//54 256//256
f 256//256 54//54 22//22
f 611//611 147//147 613//613
f 613//613 147//147 146//146
f 613//613 146//146 612//612
f 98//98 612//612 163//163
f 613//613 612//612 98//98
f 614//614 615//615 617//617
f 615//615 616//616 617//617
f 616//616 55//55 617//617
f 617//617 55//55 621//621
f 55//55 620//620 618//618
f 620//620 619//619 618//618
f 619//619 148//148 622//622
f 619//619 622//622 621//621
f 148//148 56//56 622//622
f 621//621 622//622 19//19
f 622//622 56//56 19//19
f 60//60 149//149 624//624
f 60//60 624//624 150//150
f 626//626 625//625 151//151
f 149//149 625//625 626//626
f 150//150 627//627 623//623
f 627//627 151//151 623//623
f 149//149 626//626 624//624
f 626//626 151//151 627//627
f 624//624 627//627 150//150
f 626//626 627//627 624//624
f 152//152 628//628 630//630
f 628//628 629//629 630//630
f 152//152 630//630 629//629
f 153//153 633//633 632//632
f 153//153 632//632 631//631
f 632//632 633//633 631//631
f 634//634 636//636 153//153
f 634//634 57//57 636//636
f 153//153 636//636 635//635
f 636//636 57//57 635//635
f 366//366 154//154 638//638
f 366//366 638//638 58//58
f 638//638 154//154 637//637
f 638//638 637//637 58//58
f 156//156 155//155 640//640
f 156//156 640//640 639//639
f 640//640 155//155 639//639
f 641//641 157//157 643//643
f 157//157 642//642 643//643
f 643//643 642//642 641//641
f 53//53 646//646 644//644
f 53//53 645//645 646//646
f 646//646 645//645 644//644
f 159//159 158//158 648//648
f 159//159 648//648 647//647
f 648//648 158//158 647//647
f 56//56 160//160 650//650
f 56//56 650//650 649//649
f 160//160 649//649 650//650
f 651//651 161//161 653//653
f 161//161 652//652 653//653
f 653//653 652//652 651//651
f 163//163 162//162 655//655
f 163//163 655//655 654//654
f 655//655 162//162 654//654
f 656//656 659//659 658//658
f 656//656 658//658 657//657
f 658//658 659//659 657//657
f 164//164 662//662 661//661
f 164//164 661//661 660//660
f 661//661 662//662 660//660
f 663//663 665//665 664//664
f 664//664 665//665 666//666
f 664//664 666//666 663//663
f 55//55 669//669 668//668
f 55//55 667//667 669//669
f 669//669 667//667 668//668
f 165//165 672//672 671//671
f 165//165 671//671 670//670
f 671//671 672//672 670//670
