# decimated by Tools/decimate_anatomy.py from 5760 triangles (BodyParts3D, CC BY 4.0)
v 0.01371237 0.00315435 0.03576547
v 0.01682470 0.00741965 0.03871682
v 0.01514631 0.00568540 0.03549191
v 0.01358472 0.00550500 0.03536412
v 0.01432861 0.01168024 0.04264940
v 0.01348100 0.01104980 0.04454325
v 0.01285180 0.01227995 0.04440567
v 0.01124591 -0.00135805 0.03714862
v 0.01248517 0.00070037 0.03643643
v 0.01216503 0.00221173 0.03615371
v 0.01177224 0.00114471 0.03714594
v 0.00980484 -0.00008831 0.04500774
v 0.01326122 0.00847833 0.04408171
v 0.01060345 0.00545584 0.04453109
v 0.01250325 0.00782238 0.04482964
v 0.01182249 0.00883178 0.04481037
v 0.01047079 0.01343160 0.04333837
v 0.01072125 0.00283558 0.03608973
v 0.00826031 -0.00221006 0.03767590
v 0.00768812 0.00849650 0.03785028
v 0.00812203 0.00695746 0.03804984
v 0.00851700 -0.00211332 0.04137464
v 0.00774385 0.00257983 0.03918426
v 0.00823799 0.00712773 0.03915806
v 0.00814406 0.00740954 0.03898311
v 0.00818780 0.00742510 0.04085868
v 0.00749159 0.00603621 0.04299553
v 0.00721806 0.00633513 0.04206657
v 0.00722269 0.00813632 0.04175961
v 0.00667008 -0.00042851 0.03845087
v 0.00638029 0.00140690 0.04343848
v 0.00594646 0.00101792 0.04245231
v 0.00668873 0.00331677 0.04261722
v 0.00753496 0.00397055 0.04092897
v 0.01502201 0.00407751 0.03544279
v 0.01422501 0.00270112 0.03596225
v 0.01381983 0.00859379 0.04408058
v 0.01173188 0.00027662 0.03659452
v 0.01182489 0.00114125 0.03708872
v 0.01220531 0.00066611 0.03647760
v 0.01107270 0.00037889 0.03677058
v 0.01191124 0.00172922 0.03668012
v 0.01051368 0.00101699 0.03699002
v 0.01071705 0.00192751 0.03722447
v 0.01111557 -0.00302845 0.04018403
v 0.01197140 0.00904383 0.04335031
v 0.01215133 0.00842373 0.04377937
v 0.01228978 0.00961562 0.04362171
v 0.01219598 0.00834380 0.04461006
v 0.01074096 0.00058644 0.03669950
v 0.00911505 0.00459886 0.03622098
v 0.00853788 0.00738618 0.04005363
v 0.00901819 0.00042308 0.04493402
v 0.00722236 0.00623411 0.04212063
v 0.00822351 0.01318300 0.04304232
v 0.00640239 -0.00028752 0.03948975
v 0.00588251 0.00052360 0.04311868
v 0.00660442 0.00944585 0.04283653
v 0.01491133 0.00516101 0.03520494
v 0.01530159 0.00852080 0.04310217
v 0.01391853 0.00597034 0.04417766
v 0.01285984 0.00721226 0.04467325
v 0.01358259 0.00723371 0.04432899
v 0.01342515 0.01039706 0.04420597
v 0.01348746 0.01128156 0.04451881
v 0.01437975 0.00287528 0.03593750
v 0.01090065 0.00102877 0.03720607
v 0.01152825 0.00116576 0.03720517
v 0.01085720 0.01330626 0.04217139
v 0.00799639 0.00803637 0.04000898
v 0.01095688 -0.00290519 0.04169589
v 0.00827869 -0.00224746 0.03771009
v 0.00656167 -0.00040661 0.03884166
v 0.00677283 -0.00084710 0.04341352
v 0.00620915 0.00081574 0.04336531
v 0.00712163 0.00452901 0.04169291
v 0.00719009 0.00578223 0.04197343
v 0.00677018 0.00336839 0.04231386
v 0.00716169 0.00923457 0.04119008
v 0.00691846 0.01034926 0.03966957
v 0.00786861 0.01170359 0.04375752
v 0.01503325 0.00404379 0.03544577
v 0.01269746 0.00061587 0.03655636
v 0.01441758 0.00542385 0.03528611
v 0.01236997 0.00118168 0.03636662
v 0.01218983 0.00136707 0.03646201
v 0.01056485 -0.00123396 0.03696227
v 0.01068284 0.00229556 0.03630133
v 0.01093996 0.00132823 0.03731792
v 0.01081580 0.00214841 0.03676610
v 0.01095229 -0.00298310 0.04154101
v 0.01166480 -0.00269412 0.04153086
v 0.01253588 0.00803446 0.04460695
v 0.01200361 0.00870164 0.04346691
v 0.01216447 0.00832585 0.04421141
v 0.01180704 0.00866299 0.04388083
v 0.01042464 0.00151115 0.03685478
v 0.01049769 0.00211463 0.03633480
v 0.01023355 0.00155390 0.03653241
v 0.00799769 0.00133757 0.03713087
v 0.00829160 0.00780799 0.04071344
v 0.00822463 0.00707934 0.03912229
v 0.00795814 0.00788439 0.04118548
v 0.01579050 0.00835487 0.04276689
v 0.01705529 0.00802996 0.04021637
v 0.01616162 0.00916701 0.04206592
v 0.01535887 0.00369748 0.03635715
v 0.01479286 0.00400364 0.03539970
v 0.01432302 0.00366952 0.03555106
v 0.01403724 0.00517020 0.03531617
v 0.01424547 0.00212020 0.04436738
v 0.01411263 0.00203336 0.04462671
v 0.01671452 0.00715182 0.04141639
v 0.01565813 0.01012542 0.04063166
v 0.01500777 0.01107801 0.04161215
v 0.01270095 0.00776426 0.04479608
v 0.01332950 0.00658247 0.04440225
v 0.01268090 0.00558362 0.04453851
v 0.01430102 0.01095909 0.04378955
v 0.01368562 0.01087630 0.04432855
v 0.01314583 0.01205730 0.04445844
v 0.01178556 -0.00026320 0.03671669
v 0.01102048 -0.00218042 0.03828680
v 0.01101136 0.00063342 0.03693826
v 0.01458635 0.00633750 0.03577379
v 0.01492444 0.01041570 0.04047240
v 0.01059334 -0.00315501 0.04039446
v 0.01324564 0.00032532 0.04412621
v 0.01376112 0.00079130 0.03833192
v 0.01235833 0.01304604 0.04362130
v 0.01273460 0.00815223 0.04445480
v 0.01218288 0.00680982 0.04465871
v 0.01250285 0.00736826 0.04480330
v 0.01266583 0.00748498 0.04480482
v 0.01241496 0.00794673 0.04479478
v 0.01020783 0.00851260 0.04460212
v 0.01181259 0.00870911 0.04392652
v 0.01332933 0.01074063 0.04431208
v 0.01213058 0.01261196 0.04413825
v 0.01028374 0.00195825 0.03632934
v 0.01006121 -0.00209959 0.03717237
v 0.01062383 -0.00291046 0.03940048
v 0.00798777 0.00126929 0.03710308
v 0.00999418 0.00092366 0.03655960
v 0.00954652 0.00461646 0.03605268
v 0.01069507 0.00292992 0.03608531
v 0.01397629 0.00638184 0.03578068
v 0.00809577 0.00947504 0.03753915
v 0.00763162 0.00201757 0.03892095
v 0.00823191 0.00712179 0.03913809
v 0.00810119 0.00674709 0.03962408
v 0.00811684 0.00675373 0.03979324
v 0.01072450 0.00994426 0.03770063
v 0.01010963 0.01020009 0.03775207
v 0.00953075 0.00977146 0.03759503
v 0.00996084 0.01029980 0.03780657
v 0.01090913 -0.00298654 0.04145693
v 0.00783960 -0.00050139 0.04449327
v 0.00774251 -0.00112840 0.04392827
v 0.00920427 0.00519357 0.04419975
v 0.00999990 0.00624469 0.04442919
v 0.00883212 0.00562806 0.04408879
v 0.00882943 0.00530998 0.04410163
v 0.00781862 0.00649428 0.04078146
v 0.00739376 0.00558386 0.04110050
v 0.00770096 0.00846811 0.04090467
v 0.00757856 0.00733303 0.04138684
v 0.00742270 0.00725814 0.04150725
v 0.00743604 0.00735844 0.04151198
v 0.00738394 0.00552690 0.04111459
v 0.00729791 0.00706666 0.04179021
v 0.00758453 0.00858599 0.04107606
v 0.01066815 0.01322952 0.04192646
v 0.01020482 0.01236216 0.04055661
v 0.00846780 0.01315340 0.04164000
v 0.00954151 0.01334178 0.04165151
v 0.00817600 0.01208671 0.03982996
v 0.00829751 0.01246604 0.04042202
v 0.01018786 0.01250543 0.04436803
v 0.00820763 0.01312783 0.04314367
v 0.00926043 -0.00262085 0.03957581
v 0.00690628 -0.00115232 0.03846432
v 0.00675929 -0.00089599 0.03842748
v 0.00896190 -0.00219302 0.03738818
v 0.00994314 0.00073177 0.03660532
v 0.00772463 0.00028618 0.03707452
v 0.00728763 -0.00084547 0.03713067
v 0.00718279 -0.00083031 0.03718565
v 0.00922832 0.00460587 0.03616851
v 0.00710038 -0.00070287 0.03722037
v 0.00673391 -0.00068529 0.03814840
v 0.00672493 -0.00054519 0.03787074
v 0.00669812 -0.00063386 0.03847051
v 0.00641974 -0.00091023 0.04012832
v 0.00772174 -0.00207051 0.04069171
v 0.00647789 -0.00061925 0.03926831
v 0.00618443 -0.00049540 0.04034643
v 0.00628407 -0.00072415 0.04026272
v 0.00768823 0.00841460 0.03788593
v 0.00607545 -0.00050207 0.04160358
v 0.00732468 -0.00036049 0.04419536
v 0.00621848 -0.00054761 0.04210798
v 0.00653930 -0.00053575 0.04336309
v 0.00653132 -0.00042431 0.04344173
v 0.00879247 0.00537345 0.04407498
v 0.00652603 0.00058538 0.04357255
v 0.00613035 -0.00035715 0.04033452
v 0.00599781 -0.00007641 0.04168905
v 0.00589688 0.00041288 0.04303916
v 0.00622986 0.00018382 0.04325367
v 0.00601759 0.00130516 0.04248862
v 0.00588978 0.00096358 0.04267946
v 0.00672570 0.00336469 0.04254032
v 0.00729007 0.00901440 0.04105567
v 0.00706003 0.00916257 0.04023337
v 0.00829305 0.00637082 0.04378648
v 0.00811823 0.00579654 0.04353725
v 0.00716644 0.00836318 0.04179822
v 0.00663394 0.01064849 0.04171432
v 0.00693708 0.00979105 0.04127865
v 0.00703394 0.00922723 0.04037326
v 0.00673835 0.01029689 0.04133409
v 0.00652730 0.01018882 0.04238019
v 0.00648505 0.01010378 0.04257395
v 0.00729118 0.01082105 0.03901852
v 0.00770426 0.01017878 0.03820115
v 0.00705601 0.01008545 0.03905164
v 0.00799816 0.00781832 0.04374681
v 0.00661290 0.00996617 0.04299483
v 0.01039760 0.00963480 0.04465882
v 0.00737178 0.01177214 0.04355990
v 0.00652460 0.01175290 0.04262488
v 0.00676451 0.01159031 0.04302579
v 0.00787806 0.01257846 0.04345372
v 0.01633015 0.00752525 0.03744154
v 0.01458225 0.00340625 0.03564424
v 0.01444733 0.00308824 0.03581536
v 0.01184965 -0.00052963 0.03686826
v 0.01234642 0.00020275 0.03665620
v 0.01395196 0.00298339 0.03581100
v 0.01283917 0.00106684 0.03635164
v 0.01319939 0.00149674 0.03624884
v 0.01499197 0.00479827 0.03525674
v 0.01568251 0.00830478 0.04285134
v 0.01453886 0.00411991 0.04419446
v 0.01354548 0.00222704 0.04493676
v 0.01408881 0.00227900 0.04469358
v 0.01402686 0.00943383 0.04394467
v 0.01251700 0.00796620 0.04467075
v 0.01340402 0.00837555 0.04414721
v 0.01197114 0.01027600 0.04483034
v 0.01107444 0.01222518 0.04473063
v 0.01091526 0.01215925 0.04478329
v 0.01156411 0.00072038 0.03688518
v 0.01219783 0.00153825 0.03639056
v 0.01242280 0.00065041 0.03644937
v 0.01053186 0.00071415 0.03667535
v 0.01278768 0.00199975 0.03610126
v 0.01229634 0.00227145 0.03610750
v 0.01117786 0.00236396 0.03631159
v 0.01192591 0.00121685 0.03691968
v 0.01055186 0.00100034 0.03702231
v 0.01073067 0.00073831 0.03686778
v 0.01100116 0.00054591 0.03686951
v 0.01066999 0.00109787 0.03723265
v 0.01068572 0.00093877 0.03706200
v 0.01059532 0.00197376 0.03684571
v 0.01081140 0.00233915 0.03644666
v 0.01066134 0.00225474 0.03634810
v 0.01138713 0.00208242 0.03674531
v 0.01127432 0.00150492 0.03721441
v 0.01160599 -0.00287432 0.04080452
v 0.01106575 -0.00283127 0.04173731
v 0.00802158 -0.00119790 0.04394122
v 0.01200228 0.00979328 0.04446655
v 0.01190211 0.00892030 0.04356637
v 0.01313722 0.00920481 0.04367374
v 0.01364970 0.00920853 0.04382150
v 0.01207923 0.00793629 0.04484426
v 0.01197639 0.00882591 0.04484585
v 0.01239987 0.00779536 0.04484008
v 0.01204711 0.00862300 0.04452477
v 0.01205075 0.00874991 0.04459965
v 0.01188498 0.00867636 0.04479655
v 0.01211923 0.00836251 0.04419650
v 0.01190752 0.00855283 0.04409596
v 0.01148717 0.00988931 0.04492220
v 0.01236844 0.00754121 0.04484423
v 0.01289299 0.01052732 0.04437486
v 0.01188628 0.00999592 0.04478001
v 0.01199518 0.01020207 0.04468804
v 0.01183967 0.00887022 0.04477147
v 0.01184340 0.00999955 0.04484775
v 0.01160097 0.01012361 0.04496310
v 0.01254383 0.01076403 0.04483339
v 0.01044239 0.00149655 0.03689802
v 0.01023841 0.00071237 0.03663228
v 0.01053846 0.00252983 0.03616786
v 0.01041252 0.00114700 0.03673770
v 0.01034020 0.00095060 0.03658904
v 0.01036662 0.00173658 0.03653511
v 0.01072224 0.00260487 0.03619618
v 0.01040284 0.00216662 0.03626236
v 0.00837596 0.00316642 0.03736582
v 0.00826057 0.00627526 0.03797811
v 0.00811456 0.00743271 0.03794275
v 0.00822189 0.00697344 0.03889723
v 0.00859642 0.00721840 0.03985772
v 0.00803963 0.00689711 0.04044981
v 0.00795936 0.00644264 0.03961405
v 0.00841359 0.00762542 0.03974594
v 0.00810257 0.00742099 0.03880178
v 0.00838915 0.00763625 0.03970900
v 0.00842096 0.00762738 0.03977572
v 0.00831459 0.00777377 0.04070205
v 0.00807404 0.00770944 0.04104702
v 0.00768613 0.00834070 0.04134869
v 0.00733561 0.00632638 0.04245147
v 0.00661548 0.00998418 0.04226543
v 0.00828585 0.01321865 0.04278561
v 0.00841721 0.01317594 0.04169677
v 0.00681768 -0.00068557 0.03744708
v 0.00786896 -0.00195269 0.03759721
v 0.00682293 -0.00108054 0.03765105
v 0.00746363 0.00162601 0.03884282
v 0.00683367 -0.00082005 0.03749745
v 0.00703895 0.00015566 0.03785383
v 0.00673260 -0.00058877 0.03776892
v 0.00674491 -0.00035262 0.03817595
v 0.00606937 0.00041828 0.04138589
v 0.00756004 0.00195241 0.03904503
v 0.00839275 0.00831327 0.03732496
v 0.00769977 0.00883984 0.03791753
v 0.00601322 -0.00019736 0.04223150
v 0.00585882 0.00081452 0.04304797
v 0.00671174 0.00276251 0.04308245
v 0.00599751 0.00084518 0.04324122
v 0.00729537 0.00475718 0.04294601
v 0.00732208 0.00447688 0.04310233
v 0.00713474 0.00521335 0.04257743
v 0.00719120 0.00488149 0.04277843
v 0.00669439 0.00330989 0.04266649
v 0.00625393 0.00204443 0.04288027
v 0.00649040 0.01006516 0.04260229
v 0.00715645 0.00820176 0.04189441
v 0.00667735 0.01055435 0.04298111
v 0.00651202 0.01163947 0.04257184
v 0.00652755 0.01117123 0.04188912
v 0.00651913 0.01161678 0.04237432
v 0.00710846 0.01205252 0.04081490
v 0.00758196 0.01268946 0.04284899
v 0.00749847 0.01243707 0.04111170
vn -0.120882 -0.165326 -0.978803
vn 0.951327 0.084116 -0.296482
vn 0.335423 0.488413 -0.805571
vn -0.171262 0.185957 -0.967517
vn 0.781835 0.564194 0.265366
vn 0.403424 -0.527552 0.747621
vn 0.090861 0.657153 0.748261
vn 0.619320 -0.650748 -0.439284
vn -0.249332 -0.260097 -0.932836
vn -0.766979 -0.245808 -0.592723
vn -0.083404 0.551108 -0.830256
vn 0.080741 -0.326458 0.941757
vn -0.244044 0.612516 0.751842
vn -0.094436 -0.006150 0.995512
vn -0.208281 0.889774 0.406105
vn 0.856229 0.016736 0.516325
vn 0.013190 0.983357 0.181202
vn -0.095400 -0.315861 -0.943997
vn -0.325949 -0.549877 -0.769020
vn -0.717435 0.086557 -0.691227
vn -0.998085 0.005553 -0.061608
vn -0.326482 -0.918405 0.223476
vn -0.929503 0.242007 -0.278312
vn -0.909775 -0.230366 0.345314
vn -0.963838 -0.036722 0.263947
vn -0.777926 0.326445 -0.536904
vn -0.829294 -0.072722 0.554060
vn -0.912629 0.001580 -0.408786
vn -0.754790 -0.031977 -0.655187
vn -0.982403 -0.133744 -0.130375
vn -0.602093 0.203847 0.771965
vn -0.928538 0.261360 -0.263643
vn -0.954359 0.264128 -0.139411
vn -0.937938 0.154933 -0.310269
vn 0.881515 -0.141482 -0.450460
vn 0.195303 -0.395639 -0.897400
vn -0.337848 0.541571 0.769779
vn -0.113360 0.514049 -0.850237
vn -0.795642 -0.233097 -0.559124
vn -0.219439 -0.058692 -0.973859
vn -0.082422 -0.119633 -0.989391
vn -0.601954 -0.310203 -0.735816
vn 0.850901 0.007900 -0.525267
vn 0.820972 -0.326596 -0.468339
vn 0.645642 -0.688630 -0.330053
vn 0.954472 -0.249555 0.163417
vn -0.168872 0.855397 0.489672
vn 0.064914 -0.566163 0.821733
vn 0.682493 0.724839 -0.093872
vn 0.070626 -0.235521 -0.969300
vn -0.943576 -0.013137 -0.330894
vn -0.887840 -0.459460 -0.025244
vn -0.273450 0.110967 0.955464
vn -0.943876 -0.022971 0.329501
vn -0.108482 0.990552 -0.083892
vn -0.874980 0.396542 -0.277784
vn -0.808871 0.211736 0.548540
vn -0.866987 -0.172791 0.467415
vn 0.669003 -0.036755 -0.742351
vn 0.534743 0.002767 0.845010
vn 0.398487 0.121251 0.909124
vn 0.265084 -0.137081 0.954431
vn 0.507315 0.030912 0.861206
vn -0.169491 -0.332507 0.927746
vn 0.457829 0.224711 0.860173
vn 0.700735 -0.619982 -0.352977
vn -0.142056 0.550430 -0.822707
vn -0.131888 0.571356 -0.810035
vn 0.302649 0.844883 -0.441108
vn -0.713595 -0.673683 0.192180
vn -0.292282 -0.906462 0.304793
vn -0.356988 -0.932487 -0.055029
vn -0.951235 -0.158483 -0.264642
vn -0.532420 -0.807280 0.254612
vn -0.612396 -0.087796 0.785661
vn -0.928666 0.057409 -0.366449
vn -0.953033 0.107230 -0.283249
vn -0.903434 0.220862 -0.367459
vn -0.873348 -0.481550 0.073302
vn -0.979365 -0.039239 -0.198256
vn -0.320188 0.082910 0.943719
vn 0.885629 -0.229605 -0.403662
vn 0.313680 -0.464986 -0.827885
vn 0.018647 0.465422 -0.884892
vn -0.663610 -0.273611 -0.696247
vn -0.781126 -0.188524 -0.595232
vn -0.216088 -0.076990 -0.973334
vn 0.624384 -0.707686 -0.330643
vn -0.167753 -0.242386 -0.955567
vn -0.012388 -0.757350 -0.652892
vn -0.517462 -0.801960 0.298485
vn 0.591727 -0.704149 0.392471
vn -0.101605 0.855563 0.507630
vn -0.313535 0.423711 0.849803
vn 0.637973 0.768719 -0.045409
vn 0.998956 0.034301 -0.030179
vn 0.840509 -0.297651 -0.452713
vn 0.766007 -0.551389 -0.330460
vn 0.707835 -0.508313 -0.490498
vn -0.887069 0.316605 -0.335962
vn -0.773550 -0.632862 -0.033244
vn -0.855951 0.507013 0.101414
vn -0.757327 -0.136669 -0.638574
vn 0.783302 0.192259 0.591163
vn 0.984286 0.159767 0.075201
vn 0.856790 0.268854 0.440033
vn 0.877623 -0.466826 -0.108860
vn 0.033358 -0.309350 -0.950363
vn -0.172962 -0.195679 -0.965295
vn -0.161807 -0.174624 -0.971249
vn 0.896507 -0.211600 0.389230
vn 0.426481 -0.391430 0.815412
vn 0.922813 -0.352861 0.154612
vn 0.736399 0.605148 -0.302510
vn 0.414616 0.792468 -0.447312
vn 0.515117 0.036365 0.856348
vn 0.290440 -0.037298 0.956166
vn 0.107768 0.060665 0.992323
vn 0.816338 0.385765 0.429858
vn 0.519685 -0.031260 0.853786
vn 0.650787 0.626346 0.429146
vn 0.245510 -0.442570 -0.862471
vn 0.662907 -0.658448 -0.356371
vn -0.161282 0.509154 -0.845429
vn 0.180502 0.596586 -0.781988
vn 0.306603 0.770374 -0.559033
vn -0.264127 -0.963254 -0.048779
vn 0.811445 -0.543331 0.215286
vn 0.867704 -0.496353 -0.026904
vn 0.275552 0.930083 0.242933
vn -0.109464 0.828563 0.549091
vn -0.050566 -0.088044 0.994832
vn 0.129889 -0.297589 0.945817
vn 0.346300 -0.081547 0.934573
vn 0.615821 0.523517 0.588809
vn -0.256828 -0.032378 0.965915
vn 0.981638 -0.079777 -0.173267
vn 0.254737 -0.629172 0.734337
vn 0.145434 0.751972 0.642952
vn -0.145927 -0.175466 -0.973610
vn 0.106718 -0.554114 -0.825572
vn 0.087373 -0.941158 -0.326477
vn -0.232150 -0.120373 -0.965203
vn -0.253520 -0.122132 -0.959589
vn -0.202050 0.073747 -0.976595
vn -0.115325 -0.137248 -0.983800
vn -0.007934 0.456069 -0.889909
vn -0.187749 0.545822 -0.816596
vn -0.891496 0.339551 -0.299900
vn -0.958803 -0.209002 0.192393
vn -0.879644 0.473164 -0.048406
vn -0.772204 0.634092 -0.040352
vn 0.275183 0.725588 -0.630711
vn 0.032383 0.348684 -0.936681
vn -0.131228 0.337632 -0.932086
vn 0.034216 0.738623 -0.673250
vn -0.378654 -0.908105 0.178789
vn -0.402813 -0.014417 0.915169
vn -0.331859 -0.861615 0.384044
vn -0.128711 0.081531 0.988325
vn -0.221029 -0.051239 0.973920
vn -0.354089 -0.006224 0.935191
vn -0.317793 0.143936 0.937171
vn -0.860921 0.330087 -0.387114
vn -0.791662 0.151943 -0.591763
vn -0.754532 -0.656242 -0.005334
vn -0.657178 0.122491 -0.743715
vn -0.854896 0.161729 -0.492947
vn -0.714686 0.077530 -0.695135
vn -0.961142 0.069745 -0.267100
vn -0.885566 -0.060930 -0.460500
vn -0.832374 -0.541225 -0.119282
vn 0.242993 0.791427 -0.560890
vn 0.262233 0.766172 -0.586698
vn -0.147274 0.869950 -0.470636
vn 0.063773 0.871785 -0.485720
vn -0.088309 0.733627 -0.673789
vn -0.420410 0.806211 -0.416268
vn -0.108198 0.854908 0.507372
vn -0.222378 0.483095 0.846857
vn -0.430094 -0.901325 0.051308
vn -0.622621 -0.780302 -0.058929
vn -0.912376 -0.364088 -0.187110
vn -0.095541 -0.525890 -0.845169
vn -0.103144 -0.180366 -0.978177
vn -0.234658 0.045555 -0.971010
vn -0.142922 -0.211991 -0.966764
vn -0.419837 -0.084542 -0.903653
vn -0.290387 -0.026847 -0.956533
vn -0.528322 0.169840 -0.831884
vn -0.920140 -0.367837 -0.134304
vn -0.946519 0.264635 -0.184579
vn -0.966838 -0.172279 -0.188530
vn -0.698202 -0.714752 -0.040540
vn -0.529689 -0.847395 0.036749
vn -0.925950 -0.309549 -0.216326
vn -0.909446 -0.388444 -0.148390
vn -0.943355 -0.321111 -0.083479
vn -0.944267 -0.314882 -0.095966
vn -0.713870 -0.696689 0.070807
vn -0.524341 0.035624 0.850763
vn -0.796693 -0.570989 0.198121
vn -0.790347 -0.432038 0.434390
vn -0.682893 -0.141965 0.716591
vn -0.498379 0.125942 0.857763
vn -0.493877 0.096520 0.864158
vn -0.976447 -0.157129 -0.147860
vn -0.992619 -0.090871 -0.080307
vn -0.923700 -0.326147 0.201014
vn -0.580712 -0.178156 0.794376
vn -0.901499 0.296786 -0.314987
vn -0.975568 0.214370 -0.048099
vn -0.951566 0.125978 -0.280448
vn -0.826053 -0.555444 0.095488
vn -0.925716 -0.374002 -0.056316
vn -0.627933 -0.117042 0.769417
vn -0.655082 0.064373 0.752811
vn -0.730582 -0.053950 -0.680690
vn -0.913684 -0.338349 -0.225169
vn -0.886519 -0.415957 0.202643
vn -0.890491 -0.420702 0.173308
vn -0.936652 -0.342500 0.073327
vn -0.927803 -0.200917 -0.314347
vn -0.982622 -0.089117 -0.162823
vn -0.714061 0.483513 -0.506292
vn -0.565318 0.433431 -0.701821
vn -0.888120 0.076140 -0.453262
vn -0.522893 -0.052200 0.850799
vn -0.685100 -0.108118 0.720381
vn -0.289690 0.036205 0.956436
vn -0.422618 0.008870 0.906265
vn -0.775292 0.380776 0.503916
vn -0.719459 0.246966 0.649143
vn -0.301189 0.626591 0.718797
vn 0.469868 0.624001 -0.624378
vn -0.018300 -0.343057 -0.939136
vn 0.103474 -0.451995 -0.885999
vn 0.234019 -0.435809 -0.869083
vn 0.293383 -0.454610 -0.840985
vn 0.042179 -0.321360 -0.946017
vn 0.215917 -0.402703 -0.889500
vn 0.224080 -0.401835 -0.887872
vn 0.458913 -0.116965 -0.880748
vn 0.702670 0.013612 0.711386
vn 0.427814 0.152682 0.890878
vn 0.019568 0.085079 0.996182
vn 0.397568 0.107560 0.911247
vn 0.439698 -0.053518 0.896550
vn 0.131464 0.715174 0.686472
vn -0.107249 0.671660 0.733055
vn 0.452900 -0.713613 0.534451
vn -0.151707 0.552628 0.819504
vn -0.213532 0.054398 0.975420
vn -0.131272 0.538221 -0.832518
vn -0.766010 -0.244257 -0.594616
vn -0.021959 -0.234216 -0.971937
vn 0.476407 0.664586 -0.575641
vn -0.076080 -0.227395 -0.970826
vn -0.233782 -0.375481 -0.896861
vn -0.198731 -0.780610 -0.592582
vn -0.817493 -0.188868 -0.544090
vn 0.476389 0.664582 -0.575660
vn 0.476394 0.664579 -0.575659
vn 0.476399 0.664575 -0.575660
vn 0.476384 0.664571 -0.575677
vn 0.476357 0.664580 -0.575688
vn 0.788520 -0.518168 -0.331267
vn 0.634901 -0.709223 -0.306437
vn 0.624212 -0.712377 -0.320746
vn -0.298390 -0.633303 -0.714066
vn -0.251709 -0.486131 -0.836851
vn 0.851261 -0.524563 -0.013694
vn 0.203428 -0.716332 0.667447
vn 0.047214 -0.752720 0.656646
vn 0.986373 -0.123353 -0.108866
vn 0.963598 -0.233720 0.129819
vn -0.275737 -0.075961 0.958227
vn -0.234188 -0.019415 0.971998
vn 0.703329 0.228006 0.673306
vn 0.138855 0.004675 0.990302
vn 0.121945 0.032344 0.992010
vn 0.931975 0.026376 -0.361562
vn 0.660154 0.079278 0.746935
vn 0.703432 0.232777 0.671564
vn 0.681142 0.727013 -0.086588
vn 0.688513 0.720004 -0.086855
vn -0.087482 -0.062011 0.994234
vn -0.132707 -0.111702 0.984841
vn 0.446981 -0.730160 0.516792
vn 0.786741 -0.044185 0.615700
vn 0.647006 -0.032055 0.761810
vn 0.675304 -0.001584 0.737538
vn 0.842103 -0.058262 0.536160
vn -0.231338 0.026243 0.972519
vn 0.098909 0.059240 0.993332
vn 0.872852 -0.106564 -0.476208
vn 0.080585 -0.204032 -0.975642
vn 0.285451 -0.364594 -0.886335
vn 0.914750 0.055284 -0.400221
vn 0.882389 0.030485 -0.469532
vn 0.821887 -0.425669 -0.378560
vn 0.037209 -0.632418 -0.773733
vn 0.593769 -0.524849 -0.609895
vn -0.947719 0.108190 -0.300205
vn -0.954697 0.003631 -0.297558
vn -0.935140 -0.338984 -0.102969
vn -0.963911 -0.230571 0.133091
vn -0.795624 0.561918 -0.226340
vn -0.809154 0.519939 -0.273738
vn -0.961416 0.241424 -0.131886
vn -0.854835 -0.371233 0.362552
vn -0.836670 -0.527688 0.146723
vn -0.677603 -0.715423 0.170365
vn -0.853694 -0.520691 -0.009384
vn -0.881469 0.097916 -0.461980
vn -0.706196 0.140626 -0.693910
vn -0.856130 -0.508739 0.090696
vn -0.940049 -0.087430 0.329643
vn -0.825183 -0.199012 -0.528647
vn -0.302871 0.952998 -0.008055
vn -0.423029 0.841876 -0.335099
vn 0.093527 -0.235358 -0.967398
vn -0.625752 -0.769288 -0.128963
vn -0.768476 -0.620673 -0.155592
vn -0.884347 0.401832 -0.237614
vn -0.788290 0.206303 -0.579688
vn -0.828899 0.420182 -0.369289
vn -0.963904 0.188597 -0.187935
vn -0.883525 0.402195 -0.240047
vn -0.882557 0.342600 -0.322053
vn -0.877939 0.347642 -0.329192
vn -0.367549 0.204533 -0.907234
vn -0.513788 0.313591 -0.798550
vn -0.874033 -0.452915 0.175880
vn -0.992700 0.119972 -0.012368
vn -0.822963 0.294194 0.485985
vn -0.786411 0.205326 0.582580
vn -0.792317 0.204010 0.574991
vn -0.776016 0.246836 0.580406
vn -0.870827 0.214538 0.442305
vn -0.781483 0.201838 0.590378
vn -0.898342 0.251021 0.360514
vn -0.748904 0.313012 0.584095
vn -0.877260 -0.084742 -0.472476
vn -0.849401 -0.085604 -0.520760
vn -0.921386 0.034618 0.387103
vn -0.967636 0.244398 -0.062857
vn -0.985880 -0.093303 -0.139048
vn -0.937749 0.255142 -0.235648
vn -0.810852 0.495362 -0.311666
vn -0.626440 0.775529 -0.078280
vn -0.477956 0.814932 -0.327787
f 235//235 2//2 35//35
f 235//235 114//114 2//2
f 2//2 105//105 107//107
f 105//105 106//106 113//113
f 2//2 114//114 105//105
f 115//115 105//105 114//114
f 108//108 243//243 35//35
f 82//82 2//2 107//107
f 82//82 107//107 66//66
f 8//8 66//66 123//123
f 66//66 107//107 123//123
f 8//8 122//122 238//238
f 238//238 239//239 83//83
f 122//122 239//239 238//238
f 122//122 9//9 241//241
f 83//83 242//242 36//36
f 242//242 240//240 36//36
f 122//122 241//241 239//239
f 239//239 242//242 83//83
f 241//241 242//242 239//239
f 242//242 241//241 240//240
f 241//241 9//9 240//240
f 36//36 240//240 237//237
f 237//237 240//240 236//236
f 236//236 240//240 35//35
f 1//1 109//109 240//240
f 109//109 108//108 240//240
f 240//240 108//108 35//35
f 9//9 258//258 240//240
f 258//258 1//1 240//240
f 35//35 243//243 235//235
f 59//59 3//3 235//235
f 59//59 235//235 243//243
f 125//125 3//3 147//147
f 235//235 125//125 153//153
f 84//84 4//4 147//147
f 84//84 147//147 3//3
f 110//110 4//4 59//59
f 110//110 59//59 243//243
f 125//125 235//235 3//3
f 115//115 114//114 235//235
f 153//153 126//126 235//235
f 235//235 126//126 115//115
f 107//107 105//105 113//113
f 104//104 244//244 113//113
f 107//107 113//113 129//129
f 113//113 128//128 129//129
f 112//112 128//128 111//111
f 111//111 128//128 113//113
f 12//12 112//112 246//246
f 112//112 247//247 246//246
f 128//128 112//112 12//12
f 14//14 246//246 118//118
f 113//113 244//244 111//111
f 111//111 244//244 112//112
f 247//247 245//245 246//246
f 245//245 244//244 61//61
f 245//245 61//61 246//246
f 61//61 118//118 246//246
f 61//61 244//244 63//63
f 118//118 61//61 117//117
f 118//118 117//117 63//63
f 117//117 61//61 63//63
f 115//115 5//5 105//105
f 104//104 113//113 119//119
f 119//119 106//106 105//105
f 113//113 106//106 119//119
f 119//119 105//105 5//5
f 248//248 60//60 120//120
f 60//60 244//244 104//104
f 60//60 104//104 120//120
f 120//120 104//104 119//119
f 120//120 119//119 121//121
f 37//37 248//248 278//278
f 48//48 278//278 64//64
f 64//64 138//138 48//48
f 119//119 5//5 121//121
f 115//115 130//130 5//5
f 121//121 5//5 130//130
f 63//63 60//60 116//116
f 244//244 60//60 63//63
f 60//60 248//248 116//116
f 278//278 250//250 37//37
f 278//278 13//13 250//250
f 118//118 63//63 62//62
f 134//134 63//63 116//116
f 63//63 134//134 62//62
f 250//250 15//15 37//37
f 118//118 62//62 132//132
f 132//132 62//62 133//133
f 132//132 133//133 288//288
f 133//133 62//62 134//134
f 93//93 249//249 131//131
f 249//249 15//15 250//250
f 249//249 250//250 131//131
f 131//131 250//250 13//13
f 116//116 281//281 134//134
f 134//134 281//281 288//288
f 64//64 278//278 120//120
f 278//278 248//248 120//120
f 64//64 120//120 138//138
f 6//6 120//120 65//65
f 138//138 120//120 6//6
f 6//6 65//65 7//7
f 65//65 120//120 121//121
f 65//65 121//121 7//7
f 295//295 252//252 253//253
f 8//8 141//141 122//122
f 122//122 256//256 9//9
f 123//123 107//107 129//129
f 256//256 40//40 9//9
f 85//85 86//86 255//255
f 85//85 255//255 10//10
f 11//11 38//38 254//254
f 39//39 261//261 86//86
f 86//86 261//261 255//255
f 261//261 39//39 255//255
f 255//255 39//39 10//10
f 256//256 87//87 40//40
f 122//122 141//141 256//256
f 141//141 87//87 256//256
f 40//40 87//87 41//41
f 87//87 141//141 41//41
f 1//1 4//4 110//110
f 109//109 243//243 108//108
f 1//1 243//243 109//109
f 110//110 243//243 1//1
f 1//1 258//258 259//259
f 259//259 9//9 42//42
f 258//258 9//9 259//259
f 18//18 146//146 259//259
f 146//146 1//1 259//259
f 145//145 4//4 1//1
f 146//146 145//145 1//1
f 302//302 18//18 259//259
f 259//259 90//90 260//260
f 259//259 260//260 302//302
f 260//260 90//90 302//302
f 44//44 267//267 268//268
f 267//267 269//269 268//268
f 269//269 98//98 88//88
f 267//267 98//98 269//269
f 269//269 88//88 268//268
f 142//142 45//45 127//127
f 141//141 123//123 142//142
f 141//141 8//8 123//123
f 142//142 123//123 45//45
f 184//184 141//141 142//142
f 72//72 142//142 127//127
f 142//142 72//72 184//184
f 67//67 68//68 254//254
f 68//68 11//11 254//254
f 67//67 254//254 124//124
f 124//124 254//254 38//38
f 89//89 90//90 271//271
f 89//89 271//271 42//42
f 265//265 266//266 262//262
f 265//265 264//264 263//263
f 263//263 264//264 257//257
f 263//263 257//257 262//262
f 265//265 263//263 266//266
f 266//266 263//263 262//262
f 299//299 296//296 43//43
f 44//44 43//43 296//296
f 267//267 296//296 97//97
f 44//44 296//296 267//267
f 90//90 270//270 271//271
f 270//270 42//42 271//271
f 270//270 259//259 42//42
f 90//90 259//259 270//270
f 155//155 4//4 145//145
f 155//155 153//153 125//125
f 92//92 45//45 272//272
f 127//127 91//91 157//157
f 92//92 273//273 71//71
f 92//92 272//272 128//128
f 272//272 129//129 128//128
f 129//129 45//45 123//123
f 272//272 45//45 129//129
f 127//127 157//157 181//181
f 115//115 126//126 153//153
f 69//69 115//115 153//153
f 92//92 128//128 273//273
f 12//12 246//246 160//160
f 246//246 14//14 160//160
f 132//132 14//14 118//118
f 46//46 276//276 96//96
f 13//13 278//278 94//94
f 278//278 48//48 277//277
f 94//94 278//278 277//277
f 115//115 69//69 130//130
f 176//176 69//69 173//173
f 132//132 136//136 14//14
f 47//47 93//93 131//131
f 47//47 131//131 13//13
f 288//288 133//133 134//134
f 93//93 135//135 249//249
f 249//249 135//135 15//15
f 281//281 116//116 280//280
f 281//281 280//280 288//288
f 288//288 136//136 132//132
f 49//49 95//95 285//285
f 49//49 285//285 286//286
f 286//286 285//285 95//95
f 137//137 275//275 282//282
f 96//96 137//137 282//282
f 284//284 16//16 279//279
f 284//284 279//279 283//283
f 283//283 292//292 284//284
f 284//284 292//292 16//16
f 138//138 6//6 251//251
f 96//96 276//276 137//137
f 276//276 46//46 275//275
f 276//276 275//275 137//137
f 48//48 289//289 251//251
f 283//283 291//291 292//292
f 292//292 291//291 290//290
f 292//292 290//290 16//16
f 16//16 290//290 293//293
f 290//290 291//291 293//293
f 48//48 138//138 289//289
f 138//138 251//251 289//289
f 295//295 253//253 294//294
f 280//280 287//287 288//288
f 288//288 287//287 136//136
f 287//287 280//280 295//295
f 287//287 295//295 294//294
f 69//69 17//17 130//130
f 121//121 139//139 7//7
f 130//130 139//139 121//121
f 139//139 252//252 7//7
f 130//130 252//252 139//139
f 17//17 180//180 130//130
f 180//180 234//234 130//130
f 130//130 179//179 252//252
f 234//234 179//179 130//130
f 185//185 297//297 141//141
f 141//141 297//297 41//41
f 41//41 297//297 50//50
f 185//185 144//144 297//297
f 297//297 140//140 50//50
f 144//144 140//140 297//297
f 18//18 140//140 146//146
f 140//140 145//145 146//146
f 90//90 303//303 302//302
f 302//302 303//303 298//298
f 302//302 298//298 18//18
f 145//145 140//140 144//144
f 72//72 19//19 184//184
f 127//127 181//181 72//72
f 19//19 187//187 184//184
f 141//141 184//184 185//185
f 187//187 185//185 184//184
f 72//72 181//181 182//182
f 182//182 181//181 195//195
f 97//97 296//296 299//299
f 97//97 299//299 300//300
f 300//300 299//299 43//43
f 99//99 98//98 301//301
f 98//98 267//267 301//301
f 99//99 301//301 97//97
f 301//301 267//267 97//97
f 189//189 145//145 143//143
f 145//145 144//144 143//143
f 100//100 304//304 51//51
f 51//51 304//304 305//305
f 34//34 305//305 304//304
f 34//34 304//304 23//23
f 155//155 147//147 4//4
f 125//125 147//147 155//155
f 332//332 189//189 20//20
f 145//145 189//189 332//332
f 51//51 305//305 306//306
f 305//305 21//21 306//306
f 145//145 332//332 155//155
f 148//148 155//155 332//332
f 156//156 155//155 148//148
f 153//153 155//155 154//154
f 155//155 156//156 154//154
f 51//51 306//306 199//199
f 195//195 181//181 22//22
f 149//149 23//23 304//304
f 34//34 170//170 305//305
f 211//211 34//34 32//32
f 34//34 76//76 170//170
f 150//150 24//24 25//25
f 52//52 101//101 314//314
f 52//52 314//314 311//311
f 101//101 313//313 314//314
f 315//315 308//308 26//26
f 308//308 102//102 152//152
f 102//102 151//151 152//152
f 309//309 308//308 152//152
f 102//102 21//21 310//310
f 24//24 150//150 307//307
f 150//150 25//25 312//312
f 150//150 312//312 307//307
f 21//21 307//307 312//312
f 21//21 305//305 310//310
f 305//305 170//170 310//310
f 310//310 151//151 102//102
f 25//25 311//311 313//313
f 25//25 313//313 312//312
f 310//310 170//170 164//164
f 310//310 164//164 151//151
f 164//164 152//152 151//151
f 164//164 26//26 309//309
f 164//164 309//309 152//152
f 313//313 311//311 314//314
f 313//313 70//70 312//312
f 164//164 170//170 165//165
f 70//70 215//215 312//312
f 215//215 199//199 306//306
f 312//312 306//306 21//21
f 215//215 306//306 312//312
f 148//148 177//177 156//156
f 158//158 12//12 53//53
f 157//157 91//91 71//71
f 181//181 157//157 22//22
f 157//157 71//71 22//22
f 71//71 273//273 274//274
f 12//12 273//273 128//128
f 274//274 273//273 12//12
f 158//158 159//159 12//12
f 159//159 274//274 12//12
f 74//74 195//195 22//22
f 159//159 22//22 71//71
f 74//74 22//22 159//159
f 158//158 201//201 159//159
f 274//274 159//159 71//71
f 159//159 201//201 74//74
f 158//158 53//53 163//163
f 158//158 163//163 201//201
f 201//201 163//163 205//205
f 201//201 203//203 74//74
f 204//204 203//203 201//201
f 204//204 201//201 206//206
f 205//205 206//206 201//201
f 53//53 12//12 163//163
f 12//12 160//160 163//163
f 206//206 205//205 31//31
f 162//162 205//205 163//163
f 162//162 163//163 160//160
f 161//161 160//160 14//14
f 162//162 160//160 136//136
f 136//136 161//161 14//14
f 160//160 161//161 136//136
f 170//170 77//77 28//28
f 309//309 26//26 308//308
f 316//316 26//26 169//169
f 103//103 315//315 316//316
f 315//315 26//26 316//316
f 217//217 31//31 205//205
f 28//28 168//168 170//170
f 168//168 165//165 170//170
f 168//168 164//164 165//165
f 26//26 168//168 167//167
f 26//26 164//164 168//168
f 317//317 166//166 101//101
f 166//166 70//70 313//313
f 166//166 313//313 101//101
f 168//168 169//169 167//167
f 169//169 103//103 316//316
f 167//167 169//169 26//26
f 166//166 317//317 172//172
f 172//172 317//317 79//79
f 170//170 76//76 77//77
f 77//77 33//33 28//28
f 213//213 33//33 77//77
f 213//213 77//77 76//76
f 29//29 103//103 169//169
f 103//103 29//29 218//218
f 342//342 318//318 54//54
f 340//340 318//318 342//342
f 318//318 340//340 27//27
f 229//229 27//27 217//217
f 217//217 205//205 216//216
f 229//229 217//217 216//216
f 166//166 214//214 70//70
f 70//70 214//214 215//215
f 154//154 156//156 153//153
f 153//153 174//174 69//69
f 174//174 176//176 173//173
f 174//174 173//173 69//69
f 156//156 174//174 153//153
f 176//176 174//174 156//156
f 177//177 176//176 156//156
f 321//321 176//176 175//175
f 320//320 176//176 321//321
f 177//177 178//178 176//176
f 178//178 175//175 176//176
f 136//136 287//287 230//230
f 81//81 253//253 252//252
f 294//294 253//253 81//81
f 287//287 294//294 230//230
f 234//234 81//81 252//252
f 136//136 230//230 81//81
f 230//230 294//294 81//81
f 162//162 136//136 231//231
f 231//231 136//136 81//81
f 176//176 320//320 69//69
f 69//69 55//55 17//17
f 320//320 55//55 69//69
f 179//179 234//234 252//252
f 180//180 232//232 234//234
f 234//234 231//231 81//81
f 233//233 231//231 234//234
f 352//352 320//320 321//321
f 187//187 19//19 188//188
f 190//190 188//188 322//322
f 326//326 323//323 324//324
f 323//323 182//182 324//324
f 323//323 19//19 72//72
f 323//323 72//72 182//182
f 182//182 328//328 324//324
f 326//326 324//324 328//328
f 30//30 192//192 328//328
f 191//191 328//328 182//182
f 191//191 182//182 183//183
f 30//30 328//328 193//193
f 193//193 191//191 183//183
f 328//328 191//191 193//193
f 182//182 196//196 183//183
f 196//196 193//193 183//183
f 196//196 207//207 73//73
f 182//182 207//207 196//196
f 193//193 73//73 30//30
f 196//196 73//73 193//193
f 56//56 331//331 325//325
f 144//144 185//185 186//186
f 186//186 185//185 187//187
f 143//143 187//187 188//188
f 186//186 187//187 143//143
f 144//144 186//186 143//143
f 188//188 190//190 143//143
f 143//143 322//322 189//189
f 190//190 322//322 143//143
f 100//100 149//149 304//304
f 100//100 326//326 327//327
f 100//100 327//327 149//149
f 326//326 328//328 327//327
f 149//149 325//325 23//23
f 328//328 325//325 327//327
f 327//327 325//325 149//149
f 192//192 329//329 328//328
f 329//329 325//325 328//328
f 329//329 56//56 325//325
f 325//325 331//331 23//23
f 195//195 194//194 182//182
f 194//194 195//195 200//200
f 207//207 182//182 197//197
f 182//182 194//194 197//197
f 194//194 198//198 197//197
f 207//207 208//208 32//32
f 194//194 200//200 198//198
f 198//198 208//208 197//197
f 197//197 208//208 207//207
f 200//200 208//208 198//198
f 23//23 331//331 34//34
f 331//331 56//56 330//330
f 34//34 330//330 32//32
f 331//331 330//330 34//34
f 333//333 332//332 20//20
f 148//148 332//332 226//226
f 177//177 148//148 226//226
f 225//225 226//226 332//332
f 225//225 332//332 333//333
f 225//225 333//333 20//20
f 199//199 80//80 20//20
f 215//215 80//80 199//199
f 227//227 225//225 20//20
f 177//177 226//226 225//225
f 227//227 80//80 225//225
f 227//227 20//20 80//80
f 80//80 215//215 348//348
f 74//74 202//202 200//200
f 200//200 195//195 74//74
f 334//334 200//200 202//202
f 202//202 74//74 334//334
f 209//209 334//334 203//203
f 334//334 74//74 203//203
f 206//206 31//31 75//75
f 206//206 75//75 204//204
f 210//210 203//203 75//75
f 203//203 204//204 75//75
f 57//57 210//210 337//337
f 210//210 75//75 337//337
f 200//200 334//334 208//208
f 334//334 209//209 208//208
f 210//210 57//57 209//209
f 210//210 209//209 203//203
f 31//31 217//217 339//339
f 217//217 27//27 339//339
f 31//31 339//339 336//336
f 211//211 33//33 78//78
f 212//212 33//33 211//211
f 31//31 336//336 337//337
f 336//336 342//342 343//343
f 336//336 343//343 57//57
f 32//32 208//208 212//212
f 208//208 209//209 335//335
f 208//208 335//335 212//212
f 212//212 335//335 33//33
f 75//75 31//31 337//337
f 337//337 336//336 57//57
f 211//211 32//32 212//212
f 213//213 78//78 33//33
f 211//211 78//78 34//34
f 34//34 78//78 76//76
f 78//78 213//213 76//76
f 340//340 341//341 27//27
f 340//340 342//342 336//336
f 338//338 336//336 339//339
f 338//338 339//339 27//27
f 340//340 336//336 341//341
f 341//341 338//338 27//27
f 336//336 338//338 341//341
f 29//29 169//169 345//345
f 169//169 168//168 171//171
f 171//171 168//168 28//28
f 169//169 171//171 345//345
f 27//27 229//229 318//318
f 229//229 58//58 318//318
f 318//318 58//58 54//54
f 215//215 214//214 221//221
f 79//79 214//214 172//172
f 172//172 214//214 166//166
f 220//220 317//317 219//219
f 79//79 317//317 220//220
f 218//218 319//319 103//103
f 79//79 220//220 214//214
f 220//220 219//219 222//222
f 214//214 222//222 221//221
f 222//222 214//214 220//220
f 215//215 222//222 348//348
f 221//221 222//222 215//215
f 222//222 219//219 348//348
f 103//103 319//319 219//219
f 28//28 345//345 171//171
f 345//345 28//28 344//344
f 29//29 344//344 224//224
f 345//345 344//344 29//29
f 218//218 223//223 319//319
f 29//29 224//224 218//218
f 223//223 218//218 224//224
f 219//219 319//319 348//348
f 319//319 223//223 348//348
f 223//223 224//224 348//348
f 224//224 344//344 349//349
f 349//349 344//344 347//347
f 224//224 349//349 348//348
f 177//177 225//225 178//178
f 225//225 321//321 178//178
f 225//225 350//350 352//352
f 178//178 321//321 175//175
f 225//225 352//352 321//321
f 347//347 350//350 349//349
f 349//349 80//80 348//348
f 350//350 225//225 349//349
f 225//225 80//80 349//349
f 228//228 216//216 205//205
f 229//229 216//216 228//228
f 205//205 162//162 228//228
f 231//231 229//229 228//228
f 231//231 228//228 162//162
f 232//232 233//233 234//234
f 233//233 229//229 231//231
f 229//229 346//346 58//58
f 233//233 346//346 229//229
f 346//346 232//232 58//58
f 233//233 232//232 346//346
f 350//350 351//351 352//352
f 320//320 351//351 55//55
f 352//352 351//351 320//320
