# decimated by Tools/decimate_anatomy.py from 3840 triangles (BodyParts3D, CC BY 4.0)
v 0.05638421 -0.01289239 0.12710258
v 0.05608559 -0.01314688 0.13019766
v 0.05546293 -0.01415487 0.12568751
v 0.05468579 -0.01454570 0.12497543
v 0.05368580 -0.01159094 0.12986013
v 0.05430130 -0.00849613 0.13125731
v 0.05461852 -0.00906899 0.13177629
v 0.05164409 -0.00775620 0.12807570
v 0.05230869 -0.01396773 0.11752056
v 0.05166291 -0.01506876 0.10867073
v 0.05340701 -0.00757468 0.10814672
v 0.05122561 -0.00463363 0.11129365
v 0.05121211 -0.00801452 0.12465439
v 0.05094671 -0.01321781 0.10781704
v 0.04858175 -0.00611903 0.11593509
v 0.04912393 -0.01318504 0.10776909
v 0.04741738 -0.00880817 0.11437609
v 0.04619727 -0.00792332 0.11024661
v 0.05537497 -0.01058985 0.13127723
v 0.05595167 -0.00984362 0.13132158
v 0.05514269 -0.01451183 0.12509337
v 0.05480579 -0.01452861 0.12528878
v 0.05535785 -0.01387388 0.12749371
v 0.05419780 -0.01116730 0.13046911
v 0.05463831 -0.00998927 0.13163582
v 0.05428039 -0.01040725 0.13149045
v 0.05349792 -0.00906366 0.13153292
v 0.05115426 -0.00804884 0.12464321
v 0.05109226 -0.00860566 0.12765539
v 0.05011718 -0.01521680 0.11004058
v 0.05219728 -0.00625783 0.10856407
v 0.05128305 -0.00544103 0.10941220
v 0.05140341 -0.01504267 0.11298927
v 0.04977270 -0.01364600 0.10758829
v 0.05034192 -0.01292924 0.11438816
v 0.04879836 -0.00771698 0.11881757
v 0.04620661 -0.00573778 0.11445564
v 0.05641644 -0.01295733 0.12729909
v 0.05489712 -0.00875208 0.12852038
v 0.05428915 -0.00826887 0.13055967
v 0.05679053 -0.01164509 0.12991345
v 0.05339494 -0.01421583 0.11111624
v 0.05363040 -0.01366556 0.11045411
v 0.05196301 -0.01557125 0.11178187
v 0.05416859 -0.01227373 0.10903001
v 0.05139678 -0.01515859 0.10869143
v 0.05357635 -0.00697072 0.11000827
v 0.05047847 -0.01299248 0.11778270
v 0.04902725 -0.01028065 0.11774331
v 0.05009445 -0.00762408 0.12045467
v 0.04919346 -0.00891756 0.12007291
v 0.04643750 -0.00854248 0.11292357
v 0.04839055 -0.00601035 0.11585050
v 0.04654554 -0.00440385 0.11279900
v 0.04941190 -0.01037885 0.12023718
v 0.04620258 -0.00729803 0.11471271
v 0.04563030 -0.00527465 0.11295990
v 0.05678353 -0.01226773 0.12968583
v 0.05421930 -0.01175992 0.13034330
v 0.05673124 -0.01175284 0.13035914
v 0.05405109 -0.01353180 0.12031131
v 0.05470144 -0.01190034 0.13059059
v 0.05552043 -0.01041397 0.13142677
v 0.05360279 -0.01327134 0.11780019
v 0.05238106 -0.00836354 0.12961154
v 0.05225024 -0.01499280 0.11333486
v 0.05182038 -0.01558209 0.11197868
v 0.05126460 -0.00797529 0.12545726
v 0.05278157 -0.00879456 0.13038056
v 0.05129111 -0.00817656 0.12783252
v 0.05078119 -0.00608934 0.10915527
v 0.04790593 -0.00366074 0.11169782
v 0.05017687 -0.01530221 0.10998951
v 0.04754599 -0.01083763 0.10858168
v 0.04759396 -0.00387445 0.11164125
v 0.05587503 -0.01286826 0.13041849
v 0.05601458 -0.01203581 0.13078363
v 0.05627150 -0.01046954 0.13066965
v 0.05594955 -0.01357389 0.12817151
v 0.05514149 -0.01433237 0.12626252
v 0.05610829 -0.01330617 0.12691536
v 0.05462835 -0.00865496 0.13141641
v 0.05545289 -0.00936333 0.12847372
v 0.05480717 -0.01277527 0.12195447
v 0.05439608 -0.00975183 0.11887517
v 0.05479517 -0.01446027 0.12457423
v 0.05356998 -0.01397494 0.12279352
v 0.05543310 -0.00912487 0.12923025
v 0.05463740 -0.00842707 0.13088286
v 0.05312543 -0.00802061 0.12415567
v 0.05220131 -0.00784960 0.12545250
v 0.05393104 -0.00815600 0.13010388
v 0.05459321 -0.01056090 0.10912716
v 0.05416475 -0.01205451 0.10883701
v 0.05436032 -0.00868917 0.10943972
v 0.05444310 -0.00986525 0.11859845
v 0.05302026 -0.00801062 0.12200474
v 0.05447737 -0.00964645 0.11255062
v 0.05245384 -0.01383237 0.11801180
v 0.05143728 -0.01272106 0.12158053
v 0.05281329 -0.01362791 0.12180257
v 0.05080584 -0.00790798 0.12262031
v 0.05073676 -0.00886415 0.12590167
v 0.05138890 -0.01258348 0.12172542
v 0.05137864 -0.01261653 0.12166426
v 0.05283679 -0.01367228 0.10868745
v 0.05210745 -0.01551436 0.10959054
v 0.05358970 -0.00779086 0.10822975
v 0.05174881 -0.01564699 0.11099582
v 0.05136990 -0.01553860 0.10929262
v 0.05162565 -0.01541352 0.10917644
v 0.05411569 -0.00794656 0.11065428
v 0.05222602 -0.01501094 0.11329907
v 0.05109786 -0.01433058 0.11461394
v 0.05171905 -0.01406898 0.11711675
v 0.05104661 -0.01428150 0.11518007
v 0.05067947 -0.01362137 0.11525333
v 0.04946486 -0.01047934 0.12031263
v 0.05063910 -0.00916437 0.12480513
v 0.05217252 -0.00795123 0.12208747
v 0.05131533 -0.01321687 0.10791640
v 0.05061718 -0.01356666 0.10778134
v 0.05114768 -0.00460784 0.11186919
v 0.05214128 -0.00628087 0.11346719
v 0.05197056 -0.00657403 0.11429296
v 0.04968803 -0.01158201 0.11478125
v 0.04767945 -0.00756988 0.11578736
v 0.05165266 -0.00771507 0.12095027
v 0.04908123 -0.00817851 0.11976207
v 0.04815105 -0.01203540 0.10844070
v 0.04856324 -0.01250886 0.10810673
v 0.04755655 -0.01044857 0.10832038
v 0.04755460 -0.01068723 0.10841094
v 0.05025947 -0.01283278 0.11429964
v 0.05067827 -0.01362098 0.11421753
v 0.04811391 -0.00368414 0.11169756
v 0.04744612 -0.00795573 0.11538644
v 0.04673080 -0.00853732 0.11355529
v 0.04634255 -0.00823190 0.11373541
v 0.04611709 -0.00792579 0.11411996
v 0.04560597 -0.00645507 0.11418211
v 0.04921990 -0.00411401 0.11256260
v 0.04782066 -0.00409228 0.11283154
v 0.04614681 -0.00474045 0.11268384
v 0.04666712 -0.00451186 0.11327737
v 0.04780907 -0.00745996 0.11703392
v 0.04897015 -0.00879594 0.11929307
v 0.04640663 -0.00763088 0.11474642
v 0.04549013 -0.00700808 0.11399988
v 0.04644738 -0.00861826 0.11060582
v 0.04639405 -0.00855223 0.11071601
v 0.04517531 -0.00711980 0.11253850
v 0.04573514 -0.00782884 0.11248551
v 0.04580036 -0.00765114 0.11377215
v 0.04516369 -0.00699299 0.11291861
v 0.04562225 -0.00573022 0.11346450
v 0.04602552 -0.00493305 0.11309967
v 0.04670291 -0.00443014 0.11308374
v 0.04518983 -0.00685814 0.11308491
v 0.04520606 -0.00658284 0.11318169
v 0.04519423 -0.00664710 0.11313177
v 0.04560146 -0.00539711 0.11230511
v 0.04599238 -0.00488598 0.11266006
v 0.04572011 -0.00520941 0.11257980
v 0.05617587 -0.01305290 0.13017206
v 0.05600366 -0.01043196 0.13153836
v 0.05632829 -0.01320261 0.12931075
v 0.05401700 -0.01175840 0.13005578
v 0.05611552 -0.01052495 0.13138647
v 0.05548441 -0.01111714 0.13123842
v 0.05471262 -0.01071117 0.13147369
v 0.05465595 -0.00903255 0.13172719
v 0.05488179 -0.01327820 0.12286299
v 0.05375009 -0.01398729 0.12288685
v 0.05395037 -0.01404651 0.12285148
v 0.05366291 -0.01398731 0.12285041
v 0.05497805 -0.01271044 0.12240946
v 0.05508724 -0.01443343 0.12483366
v 0.05481474 -0.01454859 0.12504578
v 0.05376545 -0.01170660 0.12976274
v 0.05250483 -0.01335507 0.12266925
v 0.05410116 -0.01157697 0.13028157
v 0.05494558 -0.01155203 0.13081373
v 0.05521109 -0.01098034 0.13109560
v 0.05455171 -0.01132578 0.13061383
v 0.05368768 -0.01140074 0.13020682
v 0.05405054 -0.01118386 0.13062362
v 0.05466526 -0.01079955 0.13120124
v 0.05503508 -0.01065018 0.13123140
v 0.05437745 -0.01102301 0.13076200
v 0.05378229 -0.01032195 0.13108629
v 0.05366592 -0.01085499 0.13051447
v 0.05456369 -0.00981453 0.13165758
v 0.05430903 -0.00913432 0.13170871
v 0.05378373 -0.00856705 0.13119148
v 0.05315169 -0.01405890 0.11460286
v 0.05193268 -0.01526219 0.11278502
v 0.05094415 -0.00847757 0.12733498
v 0.05116077 -0.00810343 0.12534915
v 0.05151079 -0.00859530 0.12831235
v 0.05237098 -0.00862018 0.12967731
v 0.05182607 -0.00796420 0.12860887
v 0.05108969 -0.00840814 0.12758847
v 0.05186885 -0.00823944 0.12876396
v 0.05164380 -0.00844464 0.12847424
v 0.05037389 -0.01505256 0.10858527
v 0.05182578 -0.01388773 0.10821500
v 0.05054688 -0.01531111 0.10932596
v 0.05310960 -0.00848654 0.10803660
v 0.05192421 -0.00823723 0.10831876
v 0.04821222 -0.00753793 0.10923792
v 0.04652771 -0.00513203 0.11141905
v 0.05134574 -0.00490592 0.11065991
v 0.04994527 -0.00454007 0.11071892
v 0.05136194 -0.01556480 0.10942465
v 0.05038181 -0.01534576 0.10983792
v 0.05068656 -0.01404012 0.11350270
v 0.04985387 -0.01487984 0.10921119
v 0.05089863 -0.01398560 0.11405763
v 0.05105747 -0.01431473 0.11407364
v 0.04874953 -0.00777385 0.11880854
v 0.05085191 -0.00830417 0.12414901
v 0.05023339 -0.01477694 0.10836659
v 0.04950715 -0.01293508 0.10756351
v 0.04804699 -0.01126155 0.10803980
v 0.04858858 -0.00728089 0.11784382
v 0.04911463 -0.01229526 0.10764142
v 0.04728776 -0.01036876 0.10869208
v 0.04694023 -0.00939807 0.10876963
v 0.04648080 -0.00761493 0.10989856
v 0.04714243 -0.00907374 0.10872154
v 0.04773311 -0.00372731 0.11176581
v 0.04648643 -0.00444748 0.11277795
v 0.04724519 -0.00400805 0.11212827
v 0.04727029 -0.00659070 0.11588357
v 0.04941147 -0.01077201 0.11933645
v 0.04589871 -0.00685070 0.11462067
v 0.04681291 -0.00613608 0.11523381
v 0.04766325 -0.00636989 0.11591975
v 0.04595244 -0.00620135 0.11442133
v 0.04699213 -0.00654495 0.11565077
v 0.04589892 -0.00709786 0.11096678
v 0.04519246 -0.00669299 0.11202106
v 0.04581011 -0.00637997 0.11127177
v 0.04527339 -0.00670830 0.11187398
vn 0.967429 -0.076693 -0.241244
vn 0.469025 -0.842168 0.266022
vn 0.661237 -0.733096 0.159170
vn -0.038242 -0.974910 -0.219292
vn -0.660018 -0.693642 0.288507
vn -0.097445 0.812762 0.574389
vn -0.075243 0.616917 0.783423
vn -0.053505 0.988188 0.143601
vn 0.478408 -0.862234 0.166367
vn 0.376877 -0.433416 -0.818605
vn 0.522293 0.694339 -0.495080
vn 0.515323 0.830349 -0.212042
vn -0.074995 0.997025 0.017774
vn 0.058237 0.063280 -0.996295
vn 0.124682 0.940723 0.315428
vn -0.753272 -0.526519 -0.394157
vn -0.725087 -0.518432 0.453297
vn -0.907261 -0.398457 -0.134569
vn -0.521821 -0.169847 0.835976
vn 0.792241 0.591296 0.150743
vn -0.093913 -0.984165 -0.150332
vn 0.052163 -0.995121 0.083739
vn -0.583297 -0.764892 0.273321
vn 0.347672 -0.907937 0.234040
vn -0.102337 -0.165870 0.980823
vn -0.219115 -0.166361 0.961412
vn -0.418378 0.663272 0.620508
vn -0.864520 0.384687 0.323452
vn -0.832607 0.167980 0.527777
vn -0.782577 -0.563528 0.264593
vn -0.164754 0.273711 -0.947596
vn 0.198253 0.889975 -0.410659
vn -0.558855 -0.767229 0.314707
vn -0.203844 -0.109196 -0.972895
vn -0.892823 -0.448603 0.040272
vn -0.275396 0.909998 0.309935
vn -0.617040 0.586330 0.524861
vn 0.856047 -0.516775 -0.011238
vn 0.501511 0.863562 -0.052406
vn 0.365452 0.930800 -0.007492
vn 0.942914 0.306778 -0.129617
vn 0.954476 -0.297239 -0.024997
vn 0.942572 -0.334001 -0.001589
vn 0.736662 -0.675550 0.031018
vn 0.958745 -0.281995 0.035863
vn 0.241414 -0.814465 -0.527604
vn 0.705440 0.707120 0.048332
vn -0.761042 -0.624347 0.176088
vn -0.897575 -0.440182 0.024459
vn -0.195022 0.938657 0.284411
vn -0.954044 0.066798 0.292127
vn -0.750044 -0.655102 0.090971
vn -0.224881 0.788342 0.572665
vn -0.415541 0.877796 0.238328
vn -0.939871 -0.216223 0.264367
vn -0.678363 -0.352048 0.644891
vn -0.905132 0.416099 0.087162
vn 0.870096 -0.368136 0.327732
vn -0.527209 -0.766446 0.366896
vn 0.990005 -0.087619 0.110516
vn 0.979080 -0.163733 -0.120806
vn -0.521834 -0.169804 0.835976
vn 0.347651 -0.907935 0.234080
vn 0.340950 -0.938705 -0.050855
vn -0.832616 0.167970 0.527766
vn 0.981728 -0.190197 -0.005927
vn -0.099711 -0.920029 0.378952
vn -0.790940 0.610860 0.035556
vn -0.832612 0.167977 0.527769
vn -0.832608 0.167982 0.527775
vn -0.306769 0.494185 -0.813433
vn -0.038964 0.998869 -0.027235
vn -0.283311 -0.952776 -0.109332
vn -0.826202 -0.531688 0.186276
vn -0.412969 0.537712 -0.735066
vn 0.243480 -0.423539 0.872544
vn 0.428616 -0.389615 0.815161
vn 0.886420 0.456209 -0.078312
vn 0.630199 -0.775298 0.041985
vn 0.639634 -0.765728 0.067293
vn 0.736659 -0.676261 0.002192
vn 0.403077 0.739160 0.539603
vn 0.887249 0.447014 -0.113879
vn 0.920192 -0.230814 -0.316182
vn 0.930866 0.314009 -0.186777
vn 0.148315 -0.936805 -0.316858
vn -0.487615 -0.857317 0.165042
vn 0.711927 0.696566 -0.089197
vn 0.638533 0.760530 0.117767
vn 0.339042 0.940531 -0.021244
vn 0.087576 0.995929 -0.021349
vn 0.234734 0.971545 0.031637
vn 0.986779 -0.154542 -0.048831
vn 0.566131 -0.254113 -0.784170
vn 0.967534 0.244604 -0.063610
vn 0.999837 0.002262 0.017934
vn 0.544511 0.836375 0.063123
vn 0.992463 0.122361 0.006742
vn 0.221558 -0.975076 0.011780
vn -0.745473 -0.618253 0.249063
vn -0.472470 -0.865287 0.167481
vn 0.098686 0.993222 0.061412
vn -0.877431 -0.364903 0.311387
vn -0.830098 -0.461842 0.312474
vn -0.796413 -0.494436 0.348223
vn 0.555841 -0.478553 -0.679726
vn 0.695054 -0.706754 -0.131903
vn 0.765948 0.165125 -0.621335
vn 0.168586 -0.981412 -0.091703
vn 0.334364 -0.910307 -0.244013
vn 0.122097 -0.967003 -0.223602
vn 0.881166 0.467787 0.068715
vn -0.129356 -0.958119 0.255491
vn -0.900748 -0.434321 0.004203
vn -0.015838 -0.987549 0.156510
vn -0.532135 -0.820234 0.209876
vn -0.885506 -0.463927 0.025494
vn -0.845482 -0.443599 0.297288
vn -0.870344 -0.383139 0.309365
vn 0.055246 0.988298 0.142177
vn 0.338244 -0.111262 -0.934458
vn 0.201093 -0.431087 -0.879617
vn 0.572282 0.774779 0.268721
vn 0.763478 0.603388 0.230268
vn 0.344364 0.896585 0.278475
vn -0.667814 -0.498265 0.552952
vn -0.551467 -0.417153 0.722405
vn -0.035359 0.951971 0.304138
vn -0.933051 0.033778 0.358154
vn -0.864103 -0.459092 0.206303
vn -0.807330 -0.501965 -0.310240
vn -0.707090 -0.245790 -0.663031
vn -0.766733 -0.318145 -0.557588
vn -0.774333 -0.604151 0.188176
vn -0.838439 -0.498557 0.220137
vn 0.233700 0.971171 -0.047023
vn -0.624658 -0.536074 0.567827
vn -0.688590 -0.598051 0.410097
vn -0.712138 -0.676704 0.186899
vn -0.588012 -0.677510 0.441840
vn -0.772942 0.436118 0.460827
vn 0.273062 0.818447 0.505552
vn 0.184660 0.833653 0.520502
vn -0.650248 0.673332 -0.351855
vn -0.300602 0.765128 0.569401
vn -0.880038 0.035934 0.473541
vn -0.914309 -0.005568 0.404979
vn -0.602029 -0.503316 0.619866
vn -0.852309 -0.329546 0.406164
vn -0.825488 -0.538939 0.167671
vn -0.782558 -0.621594 -0.034987
vn -0.892554 -0.429666 -0.136873
vn -0.754309 -0.653240 0.065542
vn -0.772484 -0.602243 0.201424
vn -0.836320 -0.519924 0.173919
vn -0.815287 0.424539 0.393794
vn -0.596727 0.627563 0.500081
vn -0.286197 0.904269 0.316843
vn -0.954152 -0.085447 0.286866
vn -0.924095 0.229120 0.305864
vn -0.971343 0.237183 -0.015401
vn -0.769556 0.479664 -0.421553
vn -0.637470 0.720943 -0.271795
vn -0.761394 0.642476 -0.086620
vn 0.786693 -0.324784 0.525005
vn 0.733463 -0.273566 0.622249
vn 0.806376 -0.590013 0.040525
vn -0.541541 -0.762837 0.353288
vn 0.936551 0.269296 0.224391
vn -0.521836 -0.169818 0.835972
vn 0.347640 -0.907935 0.234095
vn 0.607651 0.638842 0.471849
vn 0.906000 -0.322665 -0.273956
vn 0.036121 -0.967548 -0.250092
vn 0.003159 -0.995228 -0.097522
vn -0.026734 -0.971659 -0.234869
vn 0.927798 -0.233616 -0.290886
vn 0.900942 -0.330852 -0.280786
vn 0.098266 -0.990501 -0.096190
vn -0.632235 -0.721285 0.282890
vn -0.610249 -0.749844 0.255599
vn -0.521828 -0.169824 0.835976
vn -0.521831 -0.169814 0.835976
vn -0.521826 -0.169832 0.835975
vn -0.521825 -0.169825 0.835977
vn -0.939423 -0.195972 0.281210
vn 0.347637 -0.907936 0.234098
vn 0.347629 -0.907934 0.234114
vn 0.347626 -0.907933 0.234123
vn 0.347645 -0.907936 0.234085
vn -0.824749 -0.463738 0.323631
vn -0.937768 -0.202148 0.282360
vn -0.204187 -0.160969 0.965607
vn -0.213739 -0.152547 0.964907
vn -0.298510 0.844001 0.445594
vn 0.547536 -0.827409 0.124898
vn -0.125953 -0.895820 0.426195
vn -0.848064 0.527524 0.050046
vn -0.720989 0.690858 0.053758
vn -0.832610 0.167980 0.527773
vn -0.832614 0.167974 0.527768
vn -0.832611 0.167983 0.527770
vn -0.832607 0.167979 0.527776
vn -0.832612 0.167979 0.527770
vn -0.832610 0.167981 0.527772
vn 0.125566 -0.439271 -0.889536
vn 0.356781 -0.233734 -0.904475
vn -0.283788 -0.946191 -0.155523
vn 0.172908 -0.017823 -0.984777
vn 0.003725 0.112556 -0.993638
vn -0.317619 0.503990 -0.803189
vn -0.419308 0.505328 -0.754205
vn 0.223462 0.901209 -0.371331
vn 0.199149 0.890727 -0.408589
vn -0.271258 -0.952493 -0.138478
vn -0.278384 -0.949842 -0.142487
vn -0.805712 -0.517205 0.288664
vn -0.867640 -0.477566 0.138319
vn -0.861454 -0.494681 0.114836
vn -0.841242 -0.532824 0.091711
vn -0.907685 0.130636 0.398801
vn -0.872868 0.412929 0.259983
vn -0.612687 -0.703077 -0.360967
vn 0.134831 0.079751 -0.987654
vn -0.280394 0.079072 -0.956623
vn -0.454264 0.758325 0.467534
vn -0.123189 0.189649 -0.974093
vn -0.913588 -0.405512 -0.030264
vn -0.600694 0.217104 -0.769436
vn -0.416655 0.465552 -0.780808
vn -0.224379 0.310900 -0.923577
vn -0.247922 0.593186 -0.765941
vn -0.651072 0.759016 0.000305
vn -0.605164 0.770897 -0.198733
vn -0.910897 -0.410698 0.039917
vn -0.901421 -0.415675 0.121059
vn -0.699588 -0.091636 0.708646
vn -0.251087 0.781910 0.570589
vn -0.252080 0.787408 0.562533
vn -0.687322 0.288971 0.666396
vn -0.689561 0.289230 0.663967
vn -0.803587 0.171584 -0.569918
vn -0.973710 -0.019526 -0.226952
vn -0.709355 0.368122 -0.601084
vn -0.753577 0.235962 -0.613550
f 3//3 38//38 81//81
f 3//3 81//81 80//80
f 81//81 79//79 80//80
f 85//85 1//1 177//177
f 85//85 41//41 1//1
f 38//38 58//58 167//167
f 1//1 41//41 60//60
f 167//167 81//81 38//38
f 79//79 81//81 167//167
f 80//80 79//79 2//2
f 79//79 167//167 2//2
f 180//180 23//23 168//168
f 5//5 180//180 168//168
f 85//85 83//83 41//41
f 83//83 78//78 41//41
f 167//167 165//165 2//2
f 58//58 165//165 167//167
f 2//2 165//165 77//77
f 165//165 58//58 166//166
f 165//165 166//166 77//77
f 78//78 20//20 41//41
f 60//60 41//41 169//169
f 41//41 20//20 169//169
f 2//2 77//77 76//76
f 77//77 166//166 76//76
f 23//23 59//59 168//168
f 168//168 59//59 5//5
f 170//170 183//183 62//62
f 170//170 19//19 184//184
f 62//62 185//185 182//182
f 185//185 19//19 182//182
f 170//170 184//184 183//183
f 184//184 19//19 185//185
f 183//183 185//185 62//62
f 184//184 185//185 183//183
f 87//87 176//176 4//4
f 176//176 174//174 86//86
f 174//174 21//21 86//86
f 86//86 179//179 4//4
f 176//176 86//86 4//4
f 178//178 177//177 1//1
f 173//173 177//177 178//178
f 178//178 61//61 173//173
f 173//173 84//84 177//177
f 61//61 84//84 173//173
f 84//84 61//61 85//85
f 84//84 85//85 177//177
f 179//179 86//86 21//21
f 22//22 179//179 21//21
f 22//22 4//4 179//179
f 23//23 180//180 181//181
f 180//180 5//5 100//100
f 180//180 100//100 181//181
f 104//104 191//191 103//103
f 20//20 78//78 88//88
f 78//78 83//83 88//88
f 186//186 192//192 100//100
f 192//192 191//191 104//104
f 104//104 105//105 100//100
f 192//192 104//104 100//100
f 24//24 63//63 190//190
f 24//24 190//190 187//187
f 188//188 63//63 171//171
f 188//188 171//171 187//187
f 63//63 189//189 190//190
f 189//189 63//63 188//188
f 190//190 188//188 187//187
f 189//189 188//188 190//190
f 192//192 186//186 191//191
f 88//88 89//89 20//20
f 39//39 89//89 88//88
f 89//89 172//172 20//20
f 82//82 172//172 89//89
f 82//82 89//89 6//6
f 89//89 40//40 6//6
f 6//6 7//7 82//82
f 92//92 6//6 40//40
f 7//7 20//20 172//172
f 172//172 82//82 7//7
f 26//26 193//193 194//194
f 26//26 25//25 193//193
f 194//194 193//193 25//25
f 7//7 6//6 27//27
f 6//6 195//195 27//27
f 97//97 85//85 96//96
f 96//96 85//85 61//61
f 99//99 64//64 175//175
f 175//175 64//64 21//21
f 175//175 21//21 174//174
f 175//175 176//176 87//87
f 174//174 176//176 175//175
f 101//101 175//175 87//87
f 99//99 115//115 9//9
f 100//100 101//101 181//181
f 101//101 87//87 181//181
f 181//181 87//87 23//23
f 101//101 99//99 175//175
f 100//100 48//48 101//101
f 48//48 116//116 101//101
f 83//83 85//85 88//88
f 85//85 97//97 88//88
f 97//97 39//39 88//88
f 91//91 13//13 8//8
f 97//97 13//13 91//91
f 103//103 119//119 104//104
f 90//90 39//39 97//97
f 92//92 39//39 90//90
f 92//92 40//40 39//39
f 40//40 89//89 39//39
f 97//97 91//91 90//90
f 91//91 8//8 92//92
f 91//91 92//92 90//90
f 68//68 28//28 199//199
f 68//68 199//199 198//198
f 8//8 27//27 195//195
f 69//69 65//65 201//201
f 65//65 202//202 204//204
f 204//204 202//202 70//70
f 69//69 205//205 200//200
f 205//205 70//70 203//203
f 200//200 203//203 29//29
f 205//205 203//203 200//200
f 65//65 204//204 201//201
f 204//204 70//70 205//205
f 201//201 205//205 69//69
f 204//204 205//205 201//201
f 8//8 195//195 92//92
f 195//195 6//6 92//92
f 93//93 108//108 95//95
f 94//94 209//209 108//108
f 209//209 11//11 108//108
f 94//94 108//108 93//93
f 107//107 66//66 44//44
f 94//94 45//45 43//43
f 94//94 43//43 107//107
f 107//107 43//43 42//42
f 93//93 43//43 45//45
f 93//93 45//45 94//94
f 67//67 66//66 113//113
f 67//67 197//197 33//33
f 113//113 197//197 67//67
f 197//197 113//113 33//33
f 93//93 96//96 43//43
f 96//96 61//61 42//42
f 96//96 42//42 43//43
f 99//99 9//9 196//196
f 99//99 196//196 64//64
f 9//9 66//66 107//107
f 64//64 196//196 42//42
f 196//196 107//107 42//42
f 9//9 107//107 196//196
f 93//93 98//98 96//96
f 95//95 98//98 93//93
f 95//95 112//112 96//96
f 95//95 96//96 98//98
f 33//33 113//113 116//116
f 113//113 66//66 9//9
f 113//113 9//9 115//115
f 113//113 115//115 116//116
f 47//47 97//97 112//112
f 97//97 96//96 112//112
f 125//125 97//97 47//47
f 115//115 99//99 101//101
f 115//115 101//101 116//116
f 13//13 102//102 50//50
f 51//51 103//103 222//222
f 13//13 97//97 102//102
f 97//97 120//120 102//102
f 118//118 100//100 105//105
f 118//118 105//105 119//119
f 105//105 104//104 119//119
f 103//103 198//198 222//222
f 222//222 199//199 28//28
f 198//198 199//199 222//222
f 110//110 46//46 111//111
f 107//107 46//46 10//10
f 46//46 107//107 111//111
f 207//207 10//10 206//206
f 10//10 207//207 107//107
f 106//106 207//207 94//94
f 106//106 94//94 107//107
f 207//207 106//106 107//107
f 207//207 14//14 121//121
f 206//206 122//122 207//207
f 207//207 122//122 14//14
f 94//94 207//207 209//209
f 209//209 121//121 14//14
f 207//207 121//121 209//209
f 209//209 14//14 210//210
f 11//11 12//12 47//47
f 31//31 11//11 209//209
f 31//31 209//209 210//210
f 107//107 44//44 109//109
f 107//107 109//109 111//111
f 111//111 109//109 110//110
f 73//73 216//216 215//215
f 73//73 208//208 216//216
f 216//216 208//208 215//215
f 11//11 47//47 108//108
f 47//47 112//112 95//95
f 47//47 95//95 108//108
f 47//47 12//12 123//123
f 30//30 33//33 217//217
f 33//33 220//220 217//217
f 217//217 220//220 219//219
f 219//219 135//135 217//217
f 125//125 47//47 124//124
f 124//124 47//47 123//123
f 33//33 114//114 220//220
f 116//116 114//114 33//33
f 220//220 114//114 116//116
f 220//220 117//117 219//219
f 220//220 116//116 117//117
f 219//219 117//117 135//135
f 135//135 117//117 35//35
f 117//117 116//116 48//48
f 35//35 117//117 49//49
f 117//117 48//48 49//49
f 125//125 15//15 97//97
f 48//48 100//100 118//118
f 236//236 118//118 55//55
f 48//48 118//118 236//236
f 49//49 48//48 236//236
f 147//147 146//146 55//55
f 221//221 146//146 147//147
f 147//147 55//55 51//51
f 129//129 221//221 147//147
f 129//129 147//147 51//51
f 15//15 128//128 97//97
f 50//50 128//128 15//15
f 15//15 226//226 50//50
f 51//51 55//55 118//118
f 51//51 118//118 119//119
f 51//51 119//119 103//103
f 51//51 222//222 129//129
f 222//222 28//28 221//221
f 222//222 221//221 129//129
f 36//36 50//50 226//226
f 36//36 13//13 50//50
f 50//50 102//102 120//120
f 120//120 97//97 128//128
f 50//50 120//120 128//128
f 30//30 218//218 223//223
f 218//218 16//16 223//223
f 14//14 34//34 224//224
f 34//34 225//225 227//227
f 34//34 227//227 224//224
f 135//135 218//218 217//217
f 217//217 218//218 30//30
f 218//218 131//131 16//16
f 130//130 131//131 218//218
f 135//135 130//130 218//218
f 123//123 12//12 136//136
f 17//17 35//35 126//126
f 17//17 126//126 137//137
f 137//137 126//126 127//127
f 125//125 124//124 123//123
f 143//143 15//15 125//125
f 142//142 125//125 123//123
f 125//125 142//142 143//143
f 55//55 235//235 236//236
f 35//35 49//49 235//235
f 49//49 236//236 235//235
f 36//36 226//226 239//239
f 31//31 210//210 227//227
f 210//210 14//14 224//224
f 210//210 224//224 227//227
f 131//131 133//133 16//16
f 74//74 133//133 130//130
f 130//130 133//133 131//131
f 74//74 132//132 133//133
f 133//133 132//132 16//16
f 135//135 150//150 74//74
f 74//74 150//150 228//228
f 231//231 31//31 227//227
f 227//227 225//225 229//229
f 227//227 229//229 231//231
f 228//228 150//150 18//18
f 231//231 229//229 230//230
f 150//150 135//135 134//134
f 135//135 74//74 130//130
f 134//134 135//135 35//35
f 150//150 134//134 151//151
f 134//134 52//52 151//151
f 150//150 151//151 18//18
f 71//71 232//232 31//31
f 75//75 232//232 71//71
f 75//75 71//71 212//212
f 32//32 72//72 214//214
f 32//32 214//214 213//213
f 72//72 136//136 214//214
f 213//213 136//136 12//12
f 214//214 136//136 213//213
f 72//72 143//143 136//136
f 136//136 142//142 123//123
f 143//143 142//142 136//136
f 144//144 75//75 212//212
f 140//140 138//138 137//137
f 137//137 138//138 17//17
f 139//139 138//138 140//140
f 138//138 52//52 134//134
f 17//17 134//134 35//35
f 138//138 134//134 17//17
f 139//139 52//52 138//138
f 140//140 137//137 148//148
f 148//148 56//56 140//140
f 149//149 139//139 140//140
f 149//149 140//140 56//56
f 141//141 149//149 237//237
f 145//145 53//53 15//15
f 145//145 15//15 143//143
f 163//163 144//144 212//212
f 144//144 233//233 234//234
f 157//157 145//145 158//158
f 158//158 143//143 72//72
f 54//54 232//232 234//234
f 232//232 75//75 234//234
f 234//234 75//75 144//144
f 54//54 234//234 233//233
f 72//72 54//54 158//158
f 54//54 157//157 158//158
f 143//143 158//158 145//145
f 149//149 56//56 237//237
f 148//148 137//137 56//56
f 237//237 137//137 127//127
f 56//56 137//137 237//237
f 37//37 238//238 145//145
f 145//145 239//239 53//53
f 238//238 239//239 145//145
f 238//238 36//36 239//239
f 53//53 226//226 15//15
f 239//239 226//226 53//53
f 241//241 240//240 237//237
f 37//37 240//240 241//241
f 37//37 141//141 240//240
f 240//240 141//141 237//237
f 229//229 242//242 230//230
f 151//151 243//243 18//18
f 152//152 243//243 151//151
f 229//229 245//245 242//242
f 230//230 244//244 212//212
f 245//245 244//244 242//242
f 242//242 244//244 230//230
f 31//31 231//231 71//71
f 231//231 230//230 211//211
f 71//71 230//230 212//212
f 231//231 211//211 71//71
f 211//211 230//230 71//71
f 245//245 243//243 244//244
f 243//243 162//162 244//244
f 244//244 162//162 212//212
f 161//161 57//57 243//243
f 152//152 151//151 153//153
f 151//151 52//52 153//153
f 52//52 139//139 153//153
f 141//141 160//160 149//149
f 152//152 153//153 155//155
f 153//153 139//139 154//154
f 153//153 154//154 155//155
f 139//139 149//149 154//154
f 149//149 155//155 154//154
f 155//155 149//149 159//159
f 159//159 149//149 160//160
f 163//163 212//212 162//162
f 54//54 233//233 157//157
f 233//233 57//57 157//157
f 233//233 144//144 163//163
f 233//233 163//163 57//57
f 243//243 57//57 162//162
f 57//57 164//164 162//162
f 57//57 163//163 164//164
f 164//164 163//163 162//162
f 141//141 37//37 145//145
f 141//141 145//145 157//157
f 156//156 157//157 57//57
f 141//141 157//157 156//156
f 243//243 152//152 161//161
f 155//155 159//159 160//160
f 155//155 160//160 161//161
f 152//152 155//155 161//161
f 141//141 156//156 160//160
f 156//156 57//57 160//160
f 160//160 57//57 161//161
