# decimated by Tools/decimate_anatomy.py from 2784 triangles (BodyParts3D, CC BY 4.0)
v 0.00462137 -0.00187788 0.18106014
v 0.00282772 -0.00092992 0.17806363
v 0.00322390 -0.00047117 0.17842706
v 0.00458587 -0.00183505 0.18151874
v 0.00512427 -0.00019164 0.17956276
v 0.00312251 -0.00508090 0.18818051
v 0.00439427 0.00195546 0.18054079
v 0.00279332 -0.00350565 0.18829322
v 0.00237279 -0.00628276 0.19343994
v 0.00028067 -0.00100467 0.17737892
v 0.00157276 -0.00422303 0.18408720
v -0.00174318 -0.00239591 0.18568566
v -0.00313906 0.00155359 0.18037303
v -0.00247337 0.00256256 0.18072000
v -0.00174156 -0.00031831 0.18374368
v -0.00174690 0.00270966 0.18040169
v -0.00202676 -0.00687407 0.18998386
v 0.00284221 -0.00074148 0.17809515
v 0.00366175 0.00248252 0.18060438
v 0.00490911 -0.00127981 0.18215657
v 0.00117895 0.00355199 0.18055816
v 0.00244221 -0.00899641 0.19382611
v 0.00304000 -0.00797080 0.19387694
v 0.00138631 -0.00703930 0.19496313
v 0.00036317 -0.00968638 0.19318633
v -0.00355374 -0.00179190 0.18077872
v -0.00403159 0.00015192 0.18048880
v -0.00214223 -0.00751042 0.19056132
v 0.00349489 -0.00665433 0.19251752
v -0.00027464 -0.00586994 0.18734112
v -0.00101556 -0.00899286 0.19221247
v -0.00023628 -0.00627819 0.19377961
v -0.00196064 -0.00094190 0.17811891
v -0.00147904 -0.00774102 0.18985543
v 0.00404346 -0.00206865 0.17998324
v 0.00304846 -0.00384691 0.18506014
v 0.00017980 -0.00094832 0.17731881
v 0.00333355 0.00274483 0.18082415
v -0.00014585 0.00365579 0.18083047
v 0.00092375 -0.00973691 0.19275996
v 0.00366061 -0.00717580 0.19240037
v -0.00057283 -0.00777684 0.19449928
v 0.00007783 -0.00312409 0.17980254
v -0.00348337 0.00059201 0.18007646
v -0.00238957 0.00264665 0.18071784
v -0.00235806 -0.00197030 0.18360838
v -0.00249472 -0.00215989 0.18346557
v 0.00349975 -0.00102448 0.17881908
v 0.00276272 -0.00239414 0.17959237
v 0.00496463 -0.00114824 0.17987320
v 0.00237940 -0.00291446 0.17985718
v 0.00397657 -0.00222188 0.18034571
v 0.00391623 -0.00111946 0.17913488
v 0.00343122 -0.00804121 0.19203502
v 0.00034682 -0.00107344 0.17745112
v 0.00251459 -0.00237854 0.17937659
v 0.00174711 0.00339274 0.18131436
v 0.00207665 -0.00173811 0.18667315
v 0.00188791 -0.00687510 0.18944273
v 0.00253942 -0.00890509 0.19254049
v 0.00361848 -0.00606114 0.19086739
v 0.00309076 -0.00835934 0.19298509
v 0.00152164 -0.00721362 0.19493388
v 0.00145759 -0.00124672 0.18662066
v 0.00072179 -0.00293716 0.18080739
v -0.00010008 -0.00306160 0.18132449
v 0.00101866 -0.00618311 0.18795977
v -0.00153281 -0.00332371 0.18304726
v 0.00093150 -0.00943563 0.19212738
v -0.00111296 -0.00646458 0.18874161
v -0.00174705 -0.00296173 0.18610065
v -0.00025304 -0.00171767 0.18719034
v -0.00181806 -0.00824999 0.19132283
v -0.00126041 -0.00115439 0.18528688
v 0.00019064 -0.00758092 0.19469876
v 0.00164987 -0.00841259 0.19431531
v -0.00041825 -0.00924412 0.19349010
v -0.00095668 -0.00901135 0.19262122
v -0.00104932 -0.00891201 0.19346160
v -0.00129259 -0.00883158 0.19261764
v -0.00060405 -0.00372218 0.18980329
v -0.00009888 -0.00620491 0.19378634
v -0.00138907 -0.00729044 0.19349084
v -0.00130137 -0.00336735 0.18246844
v -0.00354057 -0.00102924 0.17931456
v -0.00361534 -0.00132227 0.17966311
v -0.00236369 -0.00235839 0.17935169
v -0.00203791 -0.00288376 0.18186843
v -0.00383910 -0.00096099 0.17949566
v -0.00349374 -0.00156529 0.17997473
v -0.00313799 -0.00216626 0.18055813
v -0.00371981 0.00064222 0.18075479
v -0.00296625 0.00164064 0.18150840
v -0.00177929 0.00245391 0.18018639
v 0.00035180 0.00327683 0.18043954
v -0.00198515 0.00259933 0.18037746
v -0.00206093 -0.00268283 0.18316030
v -0.00223716 -0.00261592 0.18243676
v -0.00298295 -0.00208977 0.18210953
v 0.00074637 0.00248594 0.18255435
v -0.00310512 0.00057356 0.18200674
v -0.00176593 -0.00626600 0.18921257
v -0.00157342 -0.00570452 0.18815520
v -0.00183725 -0.00776447 0.19266024
v -0.00147067 -0.00830626 0.19336799
v -0.00168928 -0.00727032 0.19287225
v -0.00139876 -0.00723290 0.19341457
v 0.00538647 0.00017797 0.18013996
v 0.00272674 -0.00335011 0.18268425
v 0.00312269 -0.00517031 0.18751928
v 0.00332425 -0.00303288 0.18598375
v 0.00286043 -0.00274559 0.17997135
v 0.00238807 -0.00297487 0.17994986
v -0.00014386 -0.00297845 0.18063830
v 0.00302982 -0.00062910 0.17826196
v 0.00339774 -0.00087724 0.17867354
v 0.00195843 -0.00029372 0.17813472
v 0.00383298 -0.00216528 0.18119736
v 0.00191785 -0.00284148 0.18095276
v 0.00271923 -0.00265499 0.18084523
v 0.00223434 -0.00287494 0.18044722
v 0.00201338 -0.00024324 0.17818711
v 0.00487803 -0.00007769 0.17937262
v 0.00479474 0.00031460 0.17959427
v 0.00385246 -0.00033057 0.17875721
v 0.00491358 -0.00187342 0.18232089
v 0.00320528 -0.00339229 0.18558010
v 0.00412551 0.00170997 0.18184403
v 0.00226304 0.00338178 0.18110146
v 0.00432484 0.00214649 0.18067811
v 0.00311719 -0.00479618 0.18743928
v 0.00386716 -0.00670474 0.19126771
v 0.00292320 -0.00446978 0.18860735
v -0.00129616 -0.00280056 0.17979842
v -0.00132881 -0.00118273 0.17795657
v 0.00033386 -0.00071523 0.17747422
v 0.00398384 0.00234285 0.18069117
v 0.00271355 0.00312362 0.18093944
v 0.00323584 0.00274560 0.18069096
v 0.00198535 0.00335481 0.18052600
v 0.00259202 0.00313885 0.18081045
v 0.00245145 0.00314092 0.18062134
v 0.00199556 0.00346029 0.18090013
v 0.00300287 -0.00807185 0.19393128
v 0.00347787 -0.00780788 0.19249999
v 0.00329953 -0.00729635 0.19309371
v 0.00052707 -0.00953675 0.19349591
v 0.00140617 -0.00697891 0.19491319
v 0.00228630 -0.00705794 0.19407213
v 0.00134595 -0.00701992 0.19497495
v -0.00169275 0.00223441 0.18001401
v -0.00164177 -0.00089847 0.17811120
v -0.00162683 -0.00375187 0.18519300
v -0.00168489 -0.00372180 0.18609317
v -0.00172956 -0.00506261 0.18797943
v -0.00208651 0.00261299 0.18048152
v 0.00075271 0.00358768 0.18058768
v -0.00176398 -0.00501102 0.18820104
v -0.00099456 -0.00354995 0.18914266
v -0.00135457 -0.00427542 0.18926836
v -0.00135330 -0.00845848 0.19359617
v 0.00090477 -0.00720484 0.19496477
v -0.00073541 -0.00906173 0.19370341
v -0.00030927 -0.00881398 0.19390127
v -0.00076689 -0.00869910 0.19391982
v -0.00177835 -0.00270076 0.18013968
v -0.00236666 -0.00259853 0.17986181
v -0.00123780 -0.00335558 0.18237043
v -0.00401992 -0.00020396 0.18024109
v -0.00402641 0.00014160 0.18050802
v -0.00365679 -0.00140779 0.18071626
v -0.00330384 0.00128729 0.18067920
v -0.00274042 0.00206151 0.18120110
v -0.00367571 0.00027882 0.18006701
v -0.00229289 -0.00065085 0.18327031
v -0.00156610 -0.00448010 0.18594262
v -0.00226307 -0.00270066 0.18394373
v -0.00181932 0.00300215 0.18104883
v -0.00263471 0.00208181 0.18136583
v -0.00232079 0.00268027 0.18081862
v -0.00235989 0.00238132 0.18127356
v -0.00190752 -0.00669589 0.19158130
v -0.00205930 -0.00717864 0.19086002
vn 0.783595 -0.620261 -0.035431
vn 0.313230 -0.672032 -0.671014
vn 0.541771 -0.290239 -0.788825
vn 0.381933 -0.847306 -0.369052
vn 0.716688 -0.306120 -0.626618
vn 0.991312 0.052037 -0.120800
vn 0.257243 0.557948 -0.789000
vn 0.683175 0.624453 0.378589
vn 0.277821 0.788682 0.548449
vn 0.158674 -0.653828 -0.739818
vn 0.176830 -0.895699 -0.407989
vn -0.882421 0.363610 0.298531
vn -0.438128 0.468397 -0.767234
vn -0.822623 0.560948 0.092896
vn -0.408758 0.635728 0.654803
vn -0.171239 0.630830 -0.756790
vn -0.677641 -0.461695 -0.572399
vn 0.233079 0.515918 -0.824319
vn 0.448532 0.832863 -0.324280
vn 0.766410 0.423228 0.483212
vn 0.085345 0.985962 0.143510
vn 0.121185 -0.632340 0.765154
vn 0.689908 0.419570 0.589905
vn 0.662139 0.408900 0.627992
vn 0.001742 -0.900715 0.434406
vn -0.926653 -0.014472 0.375638
vn -0.848661 0.528550 -0.020216
vn -0.891936 -0.411100 -0.188272
vn 0.700441 0.593895 0.395818
vn -0.125918 -0.858639 -0.496874
vn -0.335311 -0.886088 -0.320024
vn -0.566146 0.592792 0.572780
vn -0.409615 -0.486036 -0.772001
vn -0.253769 -0.770322 -0.584983
vn 0.449321 -0.637430 -0.625934
vn 0.908147 -0.410014 0.084600
vn -0.022732 0.564951 -0.824811
vn 0.448540 0.832868 -0.324258
vn -0.101230 0.829890 0.548667
vn 0.144746 -0.989442 0.007307
vn 0.997505 -0.066895 0.022562
vn -0.586747 0.293713 0.754626
vn -0.083919 -0.986060 0.143678
vn -0.456589 0.436363 -0.775315
vn -0.462874 0.574143 -0.675357
vn -0.911562 0.046634 0.408510
vn -0.854003 0.290441 0.431651
vn 0.499161 -0.605453 -0.619890
vn 0.492849 -0.623540 -0.606876
vn 0.713732 -0.537745 -0.448796
vn 0.083786 -0.763693 -0.640120
vn 0.589848 -0.787885 -0.176964
vn 0.460479 -0.483758 -0.744269
vn 0.498331 -0.719962 -0.483033
vn -0.021385 -0.777174 -0.628923
vn 0.241214 -0.677750 -0.694601
vn 0.255105 0.736242 0.626792
vn 0.555172 0.609750 0.565675
vn 0.299607 -0.794977 -0.527492
vn 0.503103 -0.836608 -0.216735
vn 0.972569 0.232272 -0.012620
vn 0.618537 -0.743699 0.253624
vn 0.060314 -0.452556 0.889694
vn 0.141837 0.781135 0.608038
vn 0.047644 -0.957947 -0.282963
vn -0.059014 -0.951291 -0.302595
vn 0.015620 -0.895665 -0.444456
vn -0.629173 -0.740924 -0.234890
vn 0.118376 -0.801601 -0.586023
vn -0.182094 -0.745050 -0.641672
vn -0.993131 -0.116936 -0.004048
vn -0.131639 0.798663 0.587204
vn -0.844389 -0.535602 0.011747
vn -0.659767 0.576112 0.482495
vn -0.059226 -0.497677 0.865338
vn -0.008969 -0.526609 0.850061
vn -0.380602 -0.924736 -0.002326
vn -0.462516 -0.885478 0.044812
vn -0.605234 -0.771310 0.196906
vn -0.762488 -0.642632 0.075069
vn -0.461103 0.729087 0.505783
vn 0.018889 0.832392 0.553865
vn -0.750536 0.224167 0.621647
vn -0.409784 -0.894963 -0.176403
vn -0.499913 -0.502486 -0.705404
vn -0.633842 -0.621837 -0.459960
vn -0.424753 -0.705035 -0.567901
vn -0.498961 -0.862767 -0.081671
vn -0.874780 -0.478763 -0.074475
vn -0.818026 -0.569144 -0.083120
vn -0.542670 -0.835003 -0.090989
vn -0.847096 0.514182 0.134334
vn -0.486633 0.556541 0.673387
vn -0.084896 0.529043 -0.844338
vn 0.084570 0.553772 -0.828362
vn -0.437109 0.456356 -0.775032
vn -0.470606 -0.813224 -0.342339
vn -0.681685 -0.724702 0.100564
vn -0.559853 -0.820251 -0.117270
vn -0.201908 0.718530 0.665543
vn -0.787453 0.233996 0.570231
vn -0.610264 -0.550404 -0.569766
vn -0.574161 -0.703291 -0.419191
vn -0.973099 -0.087496 0.213126
vn -0.912769 -0.327731 0.243812
vn -0.811991 0.459543 0.359850
vn -0.709724 0.565957 0.419505
vn 0.649678 0.489009 -0.582055
vn 0.393882 -0.856305 -0.334063
vn 0.421693 -0.798428 -0.429754
vn 0.910992 -0.402509 0.089884
vn 0.445558 -0.891566 -0.081165
vn 0.128516 -0.970697 0.203053
vn -0.030849 -0.995573 0.088785
vn 0.685485 -0.161287 -0.709997
vn 0.616986 -0.226403 -0.753704
vn 0.132801 0.656063 -0.742931
vn 0.315190 -0.910155 0.268836
vn 0.263090 -0.886399 -0.380895
vn 0.237576 -0.945230 0.223827
vn 0.093398 -0.970070 0.224145
vn 0.141722 0.565142 -0.812730
vn 0.340404 0.569838 -0.747937
vn 0.375452 0.527287 -0.762237
vn 0.257444 0.622783 -0.738826
vn 0.836165 -0.510584 0.200329
vn 0.909407 -0.406724 0.086921
vn 0.621757 0.524049 0.582057
vn 0.463564 0.752578 0.467692
vn 0.787033 0.521383 0.329755
vn 0.972525 -0.205610 -0.109181
vn 0.909014 -0.373048 -0.185819
vn 0.972187 0.210510 -0.102656
vn -0.157599 -0.851030 -0.500909
vn -0.261314 -0.649148 -0.714368
vn -0.069313 0.600906 -0.796309
vn 0.448537 0.832869 -0.324260
vn 0.448535 0.832865 -0.324272
vn 0.448535 0.832866 -0.324270
vn 0.448532 0.832865 -0.324277
vn 0.448535 0.832864 -0.324274
vn 0.448532 0.832862 -0.324284
vn 0.056695 0.979418 0.193714
vn 0.758255 -0.568809 0.318600
vn 0.950738 -0.227017 0.211095
vn 0.699236 0.378960 0.606183
vn -0.018814 -0.648008 0.761401
vn 0.227224 0.810522 0.539836
vn 0.670626 0.392658 0.629349
vn -0.241861 0.629170 0.738680
vn -0.112531 0.603605 -0.789302
vn -0.389794 0.472620 -0.790374
vn -0.988004 -0.121283 0.095597
vn -0.984831 -0.172403 0.019638
vn -0.932486 -0.266541 -0.243775
vn -0.477673 0.591328 -0.649738
vn 0.065232 0.359482 -0.930869
vn -0.957668 0.253001 0.137339
vn -0.688084 0.588789 0.424109
vn -0.878612 0.395166 0.268112
vn -0.775915 -0.242127 0.582520
vn -0.388453 0.501809 0.772846
vn -0.130934 -0.641320 0.756019
vn -0.071892 -0.531450 0.844033
vn -0.564240 -0.415389 0.713502
vn -0.088811 -0.985248 -0.146284
vn -0.111128 -0.982120 -0.151955
vn -0.090989 -0.917930 -0.386169
vn -0.955574 -0.202781 0.213911
vn -0.896561 0.013689 0.442709
vn -0.916216 -0.173405 0.361219
vn -0.836538 0.542384 0.077615
vn -0.767639 0.602221 0.219224
vn -0.549327 0.360104 -0.754033
vn -0.851171 0.076940 0.519219
vn -0.562853 -0.742978 -0.362188
vn -0.636976 0.395927 0.661440
vn -0.293746 0.692138 0.659286
vn -0.361188 0.537340 0.762108
vn -0.639883 0.668375 0.379243
vn -0.356558 0.570688 0.739717
vn -0.935486 0.309303 0.170875
vn -0.981237 0.170841 0.089368
f 35//35 53//53 50//50
f 50//50 5//5 1//1
f 124//124 7//7 108//108
f 124//124 108//108 123//123
f 53//53 48//48 116//116
f 50//50 53//53 5//5
f 20//20 130//130 128//128
f 10//10 2//2 56//56
f 55//55 56//56 51//51
f 10//10 56//56 55//55
f 52//52 112//112 35//35
f 1//1 112//112 52//52
f 53//53 3//3 5//5
f 116//116 3//3 53//53
f 48//48 115//115 116//116
f 116//116 115//115 3//3
f 2//2 48//48 49//49
f 56//56 49//49 51//51
f 2//2 49//49 56//56
f 52//52 50//50 1//1
f 52//52 35//35 50//50
f 48//48 53//53 49//49
f 53//53 35//35 51//51
f 53//53 51//51 49//49
f 120//120 113//113 118//118
f 120//120 121//121 113//113
f 118//118 119//119 120//120
f 4//4 109//109 119//119
f 7//7 124//124 122//122
f 124//124 123//123 122//122
f 110//110 11//11 4//4
f 11//11 109//109 4//4
f 127//127 36//36 126//126
f 127//127 126//126 111//111
f 58//58 20//20 128//128
f 129//129 128//128 130//130
f 6//6 8//8 133//133
f 36//36 127//127 131//131
f 127//127 111//111 131//131
f 20//20 58//58 8//8
f 58//58 9//9 8//8
f 8//8 61//61 133//133
f 61//61 6//6 133//133
f 54//54 110//110 132//132
f 145//145 54//54 132//132
f 61//61 8//8 29//29
f 54//54 59//59 110//110
f 61//61 41//41 6//6
f 29//29 41//41 61//61
f 43//43 113//113 114//114
f 114//114 113//113 121//121
f 134//134 55//55 51//51
f 122//122 123//123 125//125
f 117//117 125//125 18//18
f 122//122 125//125 117//117
f 18//18 136//136 117//117
f 37//37 136//136 18//18
f 117//117 136//136 151//151
f 117//117 151//151 94//94
f 119//119 65//65 120//120
f 65//65 114//114 121//121
f 65//65 121//121 120//120
f 119//119 11//11 65//65
f 114//114 65//65 66//66
f 66//66 65//65 11//11
f 119//119 109//109 11//11
f 140//140 142//142 19//19
f 141//141 138//138 38//38
f 140//140 138//138 141//141
f 139//139 38//38 137//137
f 139//139 137//137 19//19
f 140//140 141//141 142//142
f 141//141 38//38 139//139
f 142//142 139//139 19//19
f 141//141 139//139 142//142
f 128//128 129//129 57//57
f 128//128 57//57 58//58
f 21//21 39//39 57//57
f 21//21 57//57 143//143
f 143//143 57//57 129//129
f 11//11 110//110 59//59
f 67//67 11//11 59//59
f 67//67 59//59 30//30
f 11//11 67//67 30//30
f 100//100 58//58 57//57
f 54//54 69//69 59//59
f 69//69 60//60 40//40
f 54//54 60//60 69//69
f 31//31 34//34 69//69
f 40//40 31//31 69//69
f 147//147 25//25 22//22
f 9//9 29//29 8//8
f 9//9 58//58 64//64
f 54//54 62//62 60//60
f 60//60 62//62 40//40
f 144//144 40//40 62//62
f 132//132 144//144 145//145
f 145//145 62//62 54//54
f 144//144 62//62 145//145
f 76//76 22//22 63//63
f 147//147 22//22 76//76
f 75//75 76//76 63//63
f 146//146 23//23 41//41
f 146//146 41//41 29//29
f 146//146 29//29 9//9
f 24//24 148//148 150//150
f 23//23 146//146 24//24
f 9//9 148//148 149//149
f 149//149 148//148 24//24
f 9//9 149//149 146//146
f 146//146 149//149 24//24
f 167//167 43//43 166//166
f 43//43 114//114 166//166
f 134//134 84//84 88//88
f 91//91 88//88 99//99
f 134//134 88//88 91//91
f 10//10 55//55 135//135
f 55//55 134//134 135//135
f 134//134 87//87 135//135
f 135//135 87//87 85//85
f 136//136 37//37 152//152
f 136//136 152//152 151//151
f 89//89 33//33 85//85
f 33//33 10//10 135//135
f 33//33 135//135 85//85
f 152//152 96//96 151//151
f 151//151 96//96 94//94
f 11//11 30//30 168//168
f 166//166 168//168 167//167
f 166//166 114//114 66//66
f 167//167 168//168 84//84
f 166//166 66//66 168//168
f 168//168 66//66 11//11
f 68//68 176//176 97//97
f 97//97 176//176 99//99
f 16//16 95//95 94//94
f 95//95 7//7 122//122
f 94//94 122//122 117//117
f 95//95 122//122 94//94
f 176//176 68//68 30//30
f 84//84 168//168 68//68
f 168//168 30//30 68//68
f 176//176 153//153 177//177
f 177//177 46//46 47//47
f 153//153 46//46 177//177
f 46//46 12//12 74//74
f 15//15 100//100 93//93
f 100//100 57//57 39//39
f 16//16 157//157 95//95
f 95//95 157//157 7//7
f 178//178 100//100 39//39
f 34//34 102//102 70//70
f 17//17 34//34 28//28
f 30//30 70//70 102//102
f 59//59 69//69 30//30
f 69//69 70//70 30//30
f 69//69 34//34 70//70
f 17//17 102//102 34//34
f 103//103 176//176 30//30
f 103//103 30//30 102//102
f 155//155 176//176 103//103
f 155//155 103//103 102//102
f 155//155 102//102 17//17
f 176//176 155//155 153//153
f 155//155 17//17 71//71
f 155//155 71//71 154//154
f 153//153 154//154 46//46
f 46//46 71//71 12//12
f 154//154 71//71 46//46
f 155//155 154//154 153//153
f 158//158 160//160 12//12
f 159//159 74//74 12//12
f 160//160 159//159 12//12
f 74//74 100//100 15//15
f 58//58 100//100 64//64
f 72//72 100//100 74//74
f 64//64 100//100 72//72
f 40//40 77//77 31//31
f 77//77 78//78 31//31
f 147//147 163//163 25//25
f 28//28 34//34 31//31
f 28//28 31//31 73//73
f 31//31 80//80 73//73
f 80//80 31//31 78//78
f 79//79 78//78 77//77
f 80//80 78//78 79//79
f 161//161 80//80 79//79
f 159//159 160//160 107//107
f 159//159 107//107 32//32
f 72//72 9//9 64//64
f 9//9 72//72 82//82
f 32//32 81//81 159//159
f 159//159 72//72 74//74
f 32//32 82//82 81//81
f 81//81 72//72 159//159
f 82//82 72//72 81//81
f 164//164 76//76 75//75
f 147//147 164//164 163//163
f 163//163 164//164 75//75
f 147//147 76//76 164//164
f 32//32 42//42 162//162
f 150//150 162//162 24//24
f 32//32 162//162 150//150
f 42//42 161//161 165//165
f 165//165 161//161 79//79
f 42//42 32//32 83//83
f 161//161 42//42 83//83
f 9//9 82//82 148//148
f 82//82 32//32 150//150
f 82//82 150//150 148//148
f 160//160 106//106 107//107
f 107//107 83//83 32//32
f 86//86 89//89 85//85
f 86//86 85//85 87//87
f 99//99 89//89 90//90
f 90//90 86//86 87//87
f 89//89 86//86 90//90
f 91//91 87//87 134//134
f 99//99 90//90 91//91
f 90//90 87//87 91//91
f 26//26 171//171 169//169
f 169//169 170//170 27//27
f 171//171 170//170 169//169
f 152//152 174//174 44//44
f 44//44 174//174 13//13
f 16//16 94//94 96//96
f 96//96 152//152 44//44
f 96//96 44//44 13//13
f 88//88 84//84 68//68
f 98//98 68//68 97//97
f 88//88 68//68 98//98
f 98//98 97//97 99//99
f 88//88 98//98 99//99
f 26//26 47//47 46//46
f 15//15 101//101 74//74
f 74//74 175//175 46//46
f 101//101 175//175 74//74
f 101//101 46//46 175//175
f 172//172 14//14 27//27
f 173//173 14//14 172//172
f 173//173 172//172 93//93
f 172//172 27//27 92//92
f 172//172 92//92 93//93
f 93//93 101//101 15//15
f 26//26 46//46 171//171
f 46//46 170//170 171//171
f 46//46 101//101 170//170
f 27//27 170//170 92//92
f 170//170 93//93 92//92
f 170//170 101//101 93//93
f 45//45 16//16 156//156
f 96//96 156//156 16//16
f 45//45 156//156 13//13
f 156//156 96//96 13//13
f 93//93 100//100 179//179
f 181//181 100//100 178//178
f 100//100 181//181 179//179
f 178//178 173//173 181//181
f 178//178 180//180 173//173
f 180//180 14//14 173//173
f 179//179 173//173 93//93
f 181//181 173//173 179//179
f 104//104 28//28 73//73
f 80//80 161//161 105//105
f 80//80 105//105 73//73
f 105//105 104//104 73//73
f 104//104 105//105 83//83
f 105//105 161//161 83//83
f 106//106 83//83 107//107
f 104//104 83//83 106//106
f 106//106 160//160 182//182
f 104//104 183//183 28//28
f 182//182 183//183 104//104
f 106//106 182//182 104//104
f 158//158 182//182 160//160
f 158//158 28//28 183//183
f 158//158 183//183 182//182
