# decimated by Tools/decimate_anatomy.py from 11232 triangles (BodyParts3D, CC BY 4.0)
v 0.00585932 0.00972135 0.10358996
v 0.00689248 0.00980568 0.10223756
v 0.00522353 0.01398030 0.10770009
v 0.00518437 0.01996088 0.09936994
v 0.00715671 0.01101008 0.04664395
v 0.00791158 0.01243359 0.04549777
v 0.00432697 0.01222205 0.09473986
v 0.00345474 0.00108124 0.04663722
v 0.00536221 0.01029408 0.04381079
v 0.00455339 0.00873568 0.04494623
v 0.00372023 0.00119717 0.04824269
v 0.00374273 0.00163554 0.04677415
v 0.00417510 0.01622821 0.05373531
v -0.00212748 0.00980995 0.09617609
v 0.00030335 0.02097789 0.09487829
v 0.00231136 0.02033945 0.10360248
v -0.00048898 0.02061471 0.10440934
v 0.00036188 0.00109356 0.04723118
v 0.00016996 0.00773499 0.05869534
v -0.00099869 0.01082311 0.06752364
v -0.00122771 0.01879027 0.06735205
v -0.00150226 0.00929189 0.09751871
v -0.00429328 0.00862268 0.09962378
v -0.00432117 0.00828948 0.10023982
v -0.00537581 0.02033475 0.10231590
v -0.00575154 0.01570709 0.10723259
v -0.00420131 0.02073375 0.10535551
v -0.00383597 0.01860821 0.10805735
v -0.00207256 0.00541579 0.05210618
v -0.00216148 0.00712184 0.05198975
v -0.00193580 0.00873337 0.05026342
v -0.00196479 0.00824283 0.05105398
v -0.00277289 0.01055391 0.05195872
v -0.00138299 0.00655053 0.05595790
v -0.00119737 0.00907902 0.06008771
v -0.00488442 0.01880400 0.08798337
v -0.00643152 0.01785371 0.09915379
v -0.00319690 0.00235539 0.04611104
v -0.00364142 0.00908601 0.04496536
v -0.00381216 0.00923742 0.04509502
v -0.00474597 0.00781420 0.04549801
v -0.00385224 0.01025960 0.04532213
v -0.00397123 0.01426220 0.04555123
v -0.00462790 0.01239586 0.05353384
v -0.00523536 0.01440402 0.04657012
v -0.00541785 0.01409690 0.04671463
v -0.00462397 0.01619611 0.04995117
v 0.00642625 0.01718497 0.09883825
v 0.00610919 0.01157922 0.10562612
v 0.00806436 0.01323724 0.04413611
v 0.00782098 0.01165943 0.04766182
v 0.00789080 0.01254676 0.05034794
v 0.00384448 0.01019115 0.04373378
v 0.00368692 0.00192060 0.04678739
v 0.00421713 0.00242118 0.04984830
v -0.00229236 0.00988226 0.04946695
v -0.00437895 0.00396572 0.04518272
v -0.00396029 0.00951196 0.04531989
v -0.00362556 0.01013603 0.04502055
v 0.00652329 0.01454306 0.10070482
v 0.00388532 0.02047452 0.09992951
v 0.00501679 0.01687244 0.10283209
v 0.00428665 0.01622365 0.10791429
v 0.00791216 0.01193451 0.04715961
v 0.00690029 0.01274464 0.05672158
v 0.00538860 0.01732244 0.08550770
v 0.00556632 0.01081917 0.04264611
v 0.00424739 0.00489350 0.05129779
v 0.00456183 0.00590584 0.05244393
v 0.00474605 0.00610505 0.05306900
v 0.00413708 0.00979894 0.05841613
v 0.00333607 0.01410121 0.04259131
v 0.00508687 0.01266651 0.04163862
v 0.00098801 0.00150819 0.04914974
v 0.00264519 0.01435428 0.04371453
v 0.00009472 0.00684335 0.05714831
v -0.00092699 0.01106871 0.06976685
v -0.00230290 0.01277522 0.08315375
v -0.00118643 0.01125516 0.08987181
v 0.00294001 0.02058607 0.10078301
v -0.00344488 0.00830560 0.10107904
v -0.00392929 0.02129920 0.10244140
v -0.00493945 0.02014582 0.10318637
v -0.00495099 0.01298359 0.10801182
v 0.00056641 0.00407441 0.05315083
v 0.00245034 0.01845902 0.06320065
v -0.00055783 0.02024380 0.07800073
v -0.00507969 0.01956667 0.09339108
v -0.00567692 0.00978564 0.10162926
v -0.00537389 0.01558178 0.09441949
v -0.00624479 0.01781425 0.09866615
v -0.00575061 0.01862026 0.09570480
v -0.00457528 0.02094171 0.09911076
v -0.00279519 0.00250347 0.04534017
v -0.00231930 0.00166838 0.04610498
v 0.00226027 0.01517634 0.04725182
v -0.00320876 0.00473936 0.04926319
v -0.00328612 0.01048774 0.04886478
v -0.00249471 0.00971678 0.04881483
v -0.00433584 0.01546887 0.04745520
v -0.00284329 0.01609651 0.04889908
v -0.00514662 0.01315142 0.04606815
v -0.00434328 0.01160119 0.04799823
v -0.00461938 0.01244526 0.04505195
v -0.00542921 0.01393602 0.04724447
v 0.00771000 0.01316383 0.05175200
v 0.00696363 0.01383205 0.05744308
v 0.00361160 0.00069109 0.04734175
v 0.00389103 0.00103899 0.04698599
v 0.00106356 0.00092996 0.04722280
v -0.00471430 0.00846065 0.10076510
v -0.00441939 0.02071284 0.10285131
v -0.00290240 0.01089313 0.05310752
v -0.00372900 0.00315994 0.04524149
v -0.00392895 0.00969341 0.04602873
v -0.00468425 0.00818398 0.04485748
v -0.00396663 0.01009780 0.04542468
v -0.00371524 0.01020314 0.04513212
v 0.00635793 0.01870270 0.09908192
v 0.00628307 0.01882709 0.09894819
v 0.00688141 0.01341482 0.10223376
v 0.00634997 0.01503137 0.10070421
v 0.00626709 0.01688086 0.09812377
v 0.00607723 0.01636439 0.10008387
v 0.00662923 0.01783520 0.10004508
v 0.00625605 0.01656994 0.09970146
v 0.00615647 0.01934016 0.10042961
v 0.00503196 0.01838897 0.10324886
v 0.00683531 0.01152575 0.10406747
v 0.00583628 0.01965273 0.08805077
v 0.00677976 0.01052454 0.10040530
v 0.00630471 0.01797356 0.09446089
v 0.00637509 0.01880576 0.09478082
v 0.00619912 0.01897515 0.09872324
v 0.00599326 0.01958147 0.09283577
v 0.00531770 0.01600584 0.10194655
v 0.00391833 0.02065229 0.10117734
v 0.00623776 0.01823138 0.10115410
v 0.00399875 0.01959026 0.10387557
v 0.00357504 0.02010916 0.10379957
v 0.00528969 0.01066263 0.10568414
v 0.00419750 0.01285509 0.10827855
v 0.00038890 0.01048504 0.10743127
v 0.00398066 0.01209130 0.10767539
v 0.00438355 0.01607413 0.10570087
v 0.00488275 0.01535495 0.10620476
v 0.00423797 0.01657754 0.10758324
v 0.00369085 0.01959951 0.10557846
v 0.00352003 0.01991076 0.10466153
v 0.00343488 0.01989280 0.10510815
v 0.00381762 0.01335974 0.10870144
v 0.00370815 0.01844733 0.10687759
v 0.00120434 0.01697512 0.10914482
v 0.00330237 0.01779567 0.10804476
v 0.00750095 0.01388704 0.04347000
v 0.00688160 0.01305798 0.04164875
v 0.00641473 0.01389906 0.04158879
v 0.00735570 0.01236227 0.04253800
v 0.00769403 0.01290462 0.04312527
v 0.00759398 0.01142335 0.04722504
v 0.00733415 0.01119412 0.04674925
v 0.00775191 0.01245444 0.05247786
v 0.00774348 0.01379105 0.04716075
v 0.00728216 0.01515574 0.05005344
v 0.00763958 0.01225401 0.05246597
v 0.00738431 0.01174679 0.05214113
v 0.00646785 0.01559905 0.05534492
v 0.00558127 0.01882445 0.08393241
v 0.00455653 0.01806594 0.07109450
v 0.00440386 0.02020692 0.08088514
v 0.00431603 0.02053573 0.08291444
v 0.00388126 0.01222705 0.09223272
v 0.00188905 0.01035068 0.09525699
v 0.00157921 0.02063298 0.10192482
v 0.00199911 0.02027255 0.10493307
v 0.00237613 0.02023743 0.10462726
v 0.00139364 0.01976234 0.10709628
v 0.00042037 0.02049677 0.10571512
v 0.00198996 0.02014115 0.10574115
v 0.00157292 0.01958432 0.10726129
v 0.00674167 0.01246099 0.04153753
v 0.00645041 0.01191436 0.04159618
v 0.00682427 0.01312500 0.04158773
v 0.00626773 0.01343926 0.04130327
v 0.00627376 0.01125028 0.04234269
v 0.00642787 0.01182274 0.04167315
v 0.00601059 0.01147621 0.04185471
v 0.00582908 0.01198770 0.04153543
v 0.00610688 0.01258904 0.04124108
v 0.00581762 0.01261160 0.04126750
v 0.00585104 0.01255342 0.04127852
v 0.00623066 0.01347285 0.04129596
v 0.00507347 0.01351282 0.04135157
v 0.00614445 0.01162331 0.04170413
v 0.00576045 0.01085295 0.04264053
v 0.00564245 0.01101656 0.04240067
v 0.00548476 0.01112469 0.04237050
v 0.00796553 0.01248818 0.04540467
v 0.00427302 0.01016596 0.04374007
v 0.00695012 0.01377292 0.04245297
v 0.00769768 0.01356337 0.04336563
v 0.00556184 0.01381406 0.04129062
v 0.00511898 0.01497661 0.04314697
v 0.00514157 0.01472637 0.04202876
v 0.00405868 0.01463946 0.04238949
v 0.00458957 0.01475423 0.04227196
v 0.00351963 0.00105362 0.04667153
v 0.00353371 0.00047706 0.04700377
v 0.00643298 0.00972870 0.04674626
v 0.00359109 0.00485060 0.04631500
v 0.00454856 0.00483446 0.04934894
v 0.00395857 0.00177300 0.04791107
v 0.00419340 0.00230381 0.04931500
v 0.00433232 0.00321327 0.05032488
v 0.00459808 0.00431420 0.05037022
v 0.00398216 0.00426430 0.05159678
v 0.00348865 0.00341061 0.05152422
v 0.00390036 0.00250580 0.05024822
v 0.00713731 0.01025738 0.04803756
v 0.00501758 0.00597407 0.04937717
v 0.00452257 0.00583263 0.04753582
v 0.00483768 0.00574413 0.04914578
v 0.00465413 0.00614721 0.05074939
v 0.00498391 0.00593571 0.04954333
v 0.00431843 0.00563773 0.05129521
v 0.00420061 0.00491918 0.05140959
v 0.00447200 0.00576677 0.05093222
v 0.00429819 0.00501420 0.05216518
v 0.00563172 0.00784263 0.05090877
v 0.00572509 0.00883625 0.05350871
v 0.00388370 0.00686736 0.05590157
v 0.00428949 0.00819875 0.05696423
v 0.00288084 0.00843852 0.05941501
v 0.00285504 0.00965856 0.06181625
v 0.00378870 0.00872865 0.05855306
v 0.00144471 0.01054765 0.06755580
v 0.00333745 0.01186395 0.06706975
v 0.00637810 0.01568204 0.05598191
v 0.00389575 0.01727757 0.05920087
v 0.00371522 0.01796971 0.06627516
v 0.00337167 0.02036713 0.07736154
v 0.00194857 0.01197622 0.07708158
v 0.00374662 0.01352902 0.08346905
v 0.00251627 0.01206417 0.07287343
v 0.00105710 0.01149240 0.07729912
v 0.00109353 0.01125684 0.07450138
v 0.00087826 0.01089916 0.09121590
v -0.00025617 0.01120742 0.08712171
v -0.00027457 0.01107674 0.08856130
v 0.00140879 0.01013941 0.09558379
v 0.00312998 0.02073059 0.09028280
v 0.00449371 0.02061991 0.09241268
v 0.00013739 0.02099351 0.09464388
v -0.00043871 0.02068468 0.10254589
v -0.00243236 0.02002240 0.10702424
v -0.00085694 0.01896036 0.10812802
v -0.00287649 0.01558564 0.10931399
v 0.00082656 0.01499169 0.10925951
v -0.00272606 0.01421859 0.10916931
v 0.00304138 0.00095986 0.04668044
v 0.00202350 0.00105233 0.04658238
v 0.00286296 0.00261839 0.04594641
v 0.00322264 0.00199279 0.04629597
v 0.00349760 0.00226083 0.04655181
v 0.00108461 0.00155657 0.04622697
v 0.00491979 0.01229077 0.04197854
v 0.00305114 0.01333252 0.04290951
v 0.00045499 0.00109875 0.04720299
v 0.00273114 0.01546344 0.04861398
v 0.00344370 0.00368489 0.05189386
v 0.00259088 0.00520773 0.05419726
v 0.00157041 0.00239564 0.05112568
v 0.00178064 0.00384457 0.05294133
v 0.00137533 0.00673220 0.05671188
v 0.00106805 0.00876921 0.06070059
v 0.00142982 0.01046864 0.06706617
v 0.00069086 0.01140023 0.07579698
v -0.00084561 0.01157203 0.07782037
v 0.00065774 0.01137133 0.08466236
v -0.00153701 0.01189706 0.07988550
v -0.00046273 0.01146140 0.08441899
v -0.00205838 0.01210742 0.08728561
v -0.00257669 0.01062043 0.09471114
v -0.00340781 0.01088669 0.09599223
v -0.00286102 0.02071912 0.09577466
v 0.00055323 0.02063655 0.09991532
v 0.00574049 0.00927461 0.10128732
v 0.00633618 0.00959101 0.10282215
v -0.00375892 0.00897081 0.09860349
v -0.00364632 0.01049708 0.09668890
v -0.00430554 0.00827546 0.10026030
v -0.00349421 0.00832471 0.10124843
v -0.00410358 0.00842374 0.10154904
v -0.00459170 0.00840094 0.10109380
v -0.00567947 0.01019351 0.10499629
v -0.00524528 0.00896181 0.10111290
v -0.00492153 0.00964271 0.10440434
v -0.00508126 0.00966484 0.10429437
v -0.00526386 0.01582105 0.10211074
v -0.00460449 0.01019560 0.10604586
v -0.00458008 0.01049647 0.10641817
v -0.00517251 0.01035017 0.10582264
v -0.00353153 0.01241655 0.10829475
v -0.00546125 0.01089069 0.10642503
v -0.00596676 0.01099419 0.10582791
v -0.00592994 0.01230827 0.10687731
v -0.00464870 0.01181286 0.10743781
v -0.00603111 0.01439200 0.10652615
v -0.00497131 0.01595590 0.10480894
v -0.00524830 0.01750582 0.10684473
v -0.00352671 0.02074195 0.10536289
v -0.00483314 0.02003431 0.10481891
v -0.00485905 0.01966150 0.10494396
v -0.00518361 0.01816989 0.10678330
v -0.00500779 0.01453598 0.10832599
v -0.00541941 0.01694784 0.10694299
v -0.00543407 0.01517595 0.10800224
v -0.00463887 0.01357614 0.10831980
v -0.00458983 0.01696657 0.10848335
v -0.00535649 0.01653598 0.10772395
v -0.00302852 0.02008204 0.10690860
v -0.00518758 0.01791518 0.10719909
v -0.00521709 0.01781994 0.10695685
v -0.00537473 0.01710875 0.10737335
v -0.00508992 0.01852850 0.10705291
v -0.00508916 0.01868281 0.10689340
v -0.00440071 0.02061639 0.10539727
v -0.00504331 0.01850596 0.10714811
v -0.00422655 0.01857984 0.10779813
v -0.00490198 0.01722987 0.10802617
v -0.00206928 0.00183605 0.04578969
v 0.00058642 0.00146933 0.04627098
v -0.00089623 0.00129840 0.04637315
v -0.00191090 0.00153172 0.04666028
v -0.00130103 0.00137272 0.04658101
v -0.00209353 0.00157674 0.04637703
v 0.00253162 0.01375649 0.04315396
v -0.00244755 0.00867202 0.04955556
v -0.00253433 0.00815467 0.05034303
v -0.00213562 0.00688291 0.05227645
v -0.00213708 0.00911404 0.04964113
v -0.00194130 0.00870641 0.05028901
v -0.00192053 0.00860649 0.05047665
v -0.00206793 0.00830291 0.05066130
v -0.00259167 0.00689244 0.05133770
v -0.00222983 0.00809324 0.05061071
v -0.00200077 0.00890265 0.05115680
v -0.00261205 0.00732890 0.05093651
v -0.00247805 0.00742527 0.05095528
v -0.00082315 0.00556412 0.05437123
v 0.00115479 0.00483967 0.05420248
v -0.00143144 0.00605061 0.05422423
v -0.00196442 0.00608942 0.05290011
v -0.00087992 0.00584418 0.05474267
v -0.00037659 0.00691750 0.05711803
v -0.00152000 0.00639300 0.05529231
v -0.00284763 0.01050808 0.05424397
v -0.00298576 0.01144505 0.05657042
v -0.00322442 0.01157098 0.05517839
v -0.00310385 0.01126008 0.05487580
v -0.00348026 0.01316633 0.05689346
v -0.00170362 0.01652062 0.05599350
v -0.00066378 0.01074294 0.06756887
v -0.00074334 0.00887247 0.06009060
v 0.00132695 0.01940808 0.06737971
v -0.00097911 0.01813970 0.06389796
v -0.00152740 0.01796146 0.06525373
v -0.00185034 0.01635218 0.05691101
v -0.00258709 0.01587017 0.05757527
v -0.00226862 0.01596061 0.05978945
v -0.00024560 0.01810727 0.06228759
v -0.00226766 0.01726900 0.06930238
v -0.00253714 0.01410276 0.06373355
v -0.00221866 0.01681480 0.06820649
v -0.00296179 0.02016014 0.08244049
v -0.00309356 0.02053979 0.08981698
v -0.00416502 0.01752504 0.08523506
v -0.00278333 0.01350540 0.08315588
v -0.00396007 0.01427913 0.08942978
v -0.00338031 0.02033580 0.08552135
v -0.00472790 0.01999997 0.09426633
v -0.00481014 0.01908304 0.08871077
v -0.00541014 0.01643031 0.09394045
v -0.00532446 0.01540641 0.09448310
v -0.00601934 0.01028182 0.10322552
v -0.00543865 0.01437900 0.10258671
v -0.00554828 0.01455424 0.10164381
v -0.00594103 0.01079546 0.10173413
v -0.00564653 0.01553233 0.09996473
v -0.00576670 0.01626925 0.09897423
v -0.00560250 0.01590946 0.10123450
v -0.00576800 0.01608814 0.09934145
v -0.00584816 0.01611641 0.09979549
v -0.00651501 0.01707172 0.09995842
v -0.00605488 0.01649461 0.10057129
v -0.00652628 0.01732530 0.09979034
v -0.00651767 0.02006543 0.10028318
v -0.00587290 0.01957540 0.09678599
v -0.00672377 0.01946854 0.09995462
v -0.00656666 0.01887659 0.09951430
v -0.00608729 0.01324844 0.10452789
v -0.00503270 0.01733353 0.10374621
v -0.00565234 0.01868662 0.10240137
v -0.00413646 0.02125611 0.10226136
v -0.00590500 0.02027634 0.10169347
v -0.00545008 0.02080533 0.10156726
v -0.00536960 0.02090091 0.10006063
v -0.00544618 0.02090342 0.10052045
v -0.00598639 0.02056356 0.10107685
v -0.00600231 0.01947608 0.10196983
v -0.00555286 0.01965868 0.10240562
v -0.00536541 0.02013622 0.10244413
v -0.00628684 0.01974523 0.10149053
v -0.00661583 0.01871277 0.10115968
v -0.00660316 0.01999315 0.10051682
v -0.00663835 0.01863830 0.10020562
v -0.00561945 0.01756596 0.10218016
v -0.00655140 0.01894504 0.10130893
v -0.00643090 0.01945818 0.10133616
v -0.00628828 0.01197247 0.10550785
v -0.00600431 0.01188621 0.10631345
v -0.00611494 0.01138189 0.10356589
v -0.00612866 0.01121808 0.10404303
v -0.00611949 0.01371748 0.10546592
v -0.00627773 0.01199210 0.10543822
v -0.00261869 0.00245520 0.04536377
v -0.00295237 0.00246135 0.04534965
v -0.00287839 0.00364391 0.04497936
v -0.00302018 0.00342871 0.04503790
v -0.00311528 0.00251701 0.04535141
v 0.00030930 0.00774319 0.04454264
v -0.00309475 0.00257634 0.04669083
v -0.00246714 0.00180418 0.04625010
v -0.00272026 0.00924363 0.04491912
v -0.00392457 0.00891030 0.04494949
v -0.00400175 0.00956808 0.04585323
v -0.00400584 0.00897211 0.04502836
v -0.00446355 0.00856365 0.04497233
v -0.00399733 0.01016956 0.04593093
v -0.00409872 0.01167058 0.04476976
v -0.00391403 0.01021208 0.04636745
v -0.00433205 0.01086424 0.04529550
v -0.00412467 0.01047707 0.04580895
v -0.00488513 0.01207417 0.04546177
v -0.00175893 0.01423957 0.04498736
v 0.00058441 0.01342966 0.04381360
v 0.00027999 0.01364744 0.04398363
v -0.00346460 0.01309451 0.04471681
v -0.00395886 0.01346370 0.04502546
v -0.00489753 0.01218438 0.04545469
v 0.00008069 0.00197702 0.04908715
v 0.00011537 0.00351552 0.05187425
v -0.00047814 0.00395434 0.05200546
v -0.00268198 0.00355645 0.04908305
v -0.00111101 0.00485181 0.05293268
v -0.00376517 0.00795187 0.04757854
v -0.00252374 0.00906256 0.04900103
v -0.00390964 0.00969701 0.04606618
v -0.00349632 0.01044941 0.04817416
v -0.00312377 0.00942742 0.04781888
v -0.00389644 0.01013000 0.04634251
v -0.00368086 0.00921531 0.04677156
v -0.00336437 0.01029520 0.04824024
v -0.00264424 0.00859036 0.04925192
v -0.00271465 0.00799529 0.05038976
v -0.00263921 0.00831890 0.04991189
v -0.00266923 0.00688713 0.05122686
v -0.00289964 0.00778554 0.05047797
v -0.00363520 0.01117358 0.05187773
v -0.00424219 0.01147716 0.04816433
v -0.00445732 0.01552163 0.04770001
v 0.00384756 0.01629569 0.05382105
v -0.00202936 0.01612298 0.04942911
v -0.00144674 0.01655359 0.05613004
v -0.00387778 0.01208012 0.05470139
v -0.00448302 0.01232941 0.05364632
v -0.00494891 0.01413113 0.05378506
v -0.00442305 0.01624060 0.04997528
v -0.00306683 0.01646002 0.05405374
v -0.00437314 0.01628765 0.05330419
v -0.00307263 0.01625955 0.05490902
v -0.00381323 0.01635994 0.05409404
v -0.00303904 0.01601448 0.05567668
v -0.00423907 0.01590833 0.05437805
v -0.00317369 0.01475557 0.05745785
v -0.00297288 0.01495647 0.05777812
v -0.00419020 0.01489552 0.05538339
v -0.00278698 0.01578274 0.05681411
v -0.00480828 0.01574791 0.05329242
v -0.00373764 0.01568070 0.05532349
v -0.00377476 0.01647213 0.05383552
v -0.00446469 0.01592253 0.05399638
v -0.00431649 0.01572174 0.05443845
v -0.00471673 0.01151654 0.04547748
v -0.00526157 0.01434282 0.04653759
v -0.00460461 0.01520823 0.04723966
v -0.00536028 0.01393413 0.04658186
v -0.00530335 0.01358624 0.04681170
v -0.00403899 0.01132051 0.04982018
v -0.00521331 0.01441698 0.04654591
v -0.00557820 0.01452904 0.04927586
v -0.00506477 0.01359325 0.05226340
v 0.00658808 0.01761780 0.09956008
v 0.00563627 0.01380147 0.10645604
v 0.00496975 0.01429718 0.10801480
v 0.00802555 0.01294692 0.04414116
v 0.00769050 0.01319805 0.04294994
v 0.00786634 0.01219773 0.04700150
v 0.00579321 0.00798513 0.04951124
v 0.00796930 0.01242915 0.04839005
v 0.00791441 0.01337643 0.04372150
v 0.00533312 0.01495291 0.04401990
v 0.00738699 0.01472831 0.05033972
v 0.00723212 0.01386681 0.05387747
v 0.00774978 0.01358670 0.04630370
v 0.00509679 0.01507641 0.04397782
v 0.00521137 0.01617551 0.06805463
v 0.00416908 0.01349467 0.07005709
v 0.00510660 0.01614986 0.07130136
v 0.00465293 0.00928095 0.04459938
v 0.00414221 0.01005620 0.04385156
v 0.00338263 0.00888625 0.04435363
v 0.00312864 0.00828358 0.04463588
v 0.00466959 0.01039690 0.04326132
v 0.00445680 0.01037743 0.04335757
v 0.00318041 0.00915472 0.04414187
v 0.00329027 0.01310965 0.04281258
v 0.00383961 0.01117241 0.04327092
v 0.00123993 0.01313471 0.04355362
v -0.00111208 0.01137960 0.04459840
v 0.00399661 0.00198547 0.04785658
v 0.00290637 0.00167662 0.04985959
v 0.00380342 0.00111382 0.04762911
v 0.00362129 0.00104658 0.04810711
v 0.00345618 0.00059173 0.04744340
v 0.00272400 0.00057441 0.04706182
v 0.00312462 0.00545719 0.04532833
v 0.00334070 0.00383469 0.04599258
v 0.00388223 0.00234425 0.04759018
v 0.00219882 0.00086317 0.04671968
v 0.00246465 0.00066965 0.04699794
v 0.00269903 0.00233904 0.04604078
v 0.00023986 0.00308333 0.04550298
v 0.00251700 0.00793482 0.04456645
v 0.00269443 0.00255595 0.04593503
v 0.00344975 0.00286245 0.04634722
v 0.00304852 0.00491191 0.04541117
v 0.00245883 0.01407493 0.04349439
v 0.00240158 0.01413181 0.04362319
v 0.00034961 0.01365196 0.04396619
v 0.00061555 0.01380023 0.04405762
v 0.00345570 0.00044076 0.04712562
v -0.00039634 0.00171115 0.04775881
v 0.00079609 0.00123938 0.04813570
v -0.00212794 0.01270904 0.07638851
v -0.00264198 0.01268671 0.06103704
v -0.00505934 0.00914073 0.09997206
v -0.00400731 0.02125530 0.10246335
v -0.00414840 0.02099737 0.10310076
v -0.00494178 0.01934157 0.10360235
v -0.00495384 0.01999320 0.10329445
v -0.00223887 0.00173315 0.04597954
v -0.00309070 0.00247532 0.04537913
v -0.00216321 0.00960201 0.04973596
v -0.00191635 0.00876000 0.05030664
v -0.00190807 0.00877143 0.05097269
v -0.00194333 0.00839904 0.05083079
v -0.00238907 0.00795588 0.05255888
v -0.00271600 0.01046206 0.05189238
v -0.00280397 0.01038020 0.05319730
v -0.00126951 0.00919323 0.06027765
v -0.00191461 0.00708261 0.05569495
v -0.00200088 0.00868933 0.05736496
v -0.00169518 0.00975850 0.05974492
v -0.00102205 0.01128245 0.07255479
v -0.00425248 0.00379533 0.04509429
v -0.00454038 0.00731311 0.04456515
v -0.00345629 0.00376552 0.04500910
v -0.00323412 0.00477142 0.04917177
v -0.00289992 0.00413389 0.04935210
v -0.00474738 0.00767015 0.04545175
v -0.00320629 0.00242432 0.04574485
v -0.00316689 0.00230028 0.04599109
v -0.00411393 0.00932160 0.04539860
v -0.00393094 0.00960573 0.04534467
v -0.00444890 0.00854811 0.04557991
v -0.00428189 0.00903562 0.04530381
v -0.00472899 0.00793742 0.04532552
v -0.00365041 0.00930720 0.04499599
v -0.00379790 0.00982996 0.04520301
v -0.00290118 0.00766702 0.05054788
v -0.00274882 0.00687044 0.05105462
v -0.00317384 0.00792455 0.04892754
v -0.00293542 0.00747465 0.05048190
v -0.00284107 0.00603637 0.05070293
v -0.00464669 0.01619487 0.05036235
v -0.00460231 0.01604122 0.05336816
v -0.00537319 0.01450221 0.04694025
v -0.00545267 0.01427017 0.04693177
v -0.00538437 0.01442286 0.04690958
v -0.00552401 0.01431713 0.04768937
v -0.00554883 0.01451440 0.04805767
v -0.00553658 0.01458731 0.04924710
v -0.00553667 0.01467502 0.04859279
v -0.00528064 0.01509288 0.04929468
vn 0.097288 -0.954666 0.281333
vn 0.781314 -0.577735 -0.236158
vn 0.945788 0.138188 0.293920
vn 0.400735 0.915379 0.038644
vn 0.730264 -0.591924 -0.341087
vn 0.813121 -0.561220 -0.154485
vn 0.748319 -0.553987 -0.364852
vn 0.144764 -0.378383 -0.914259
vn 0.664501 -0.700517 -0.260221
vn 0.742219 -0.486070 -0.461352
vn 0.922051 -0.382549 0.058980
vn 0.665344 -0.137559 -0.733754
vn 0.216262 0.968244 -0.125436
vn -0.224942 -0.922663 -0.313200
vn 0.101260 0.992778 0.064336
vn 0.129642 0.987127 0.093664
vn 0.108287 0.989219 0.098594
vn -0.201067 -0.977696 0.060681
vn -0.005676 -0.925000 0.379924
vn -0.334603 -0.917462 0.215183
vn -0.535474 0.832000 -0.145060
vn 0.089544 -0.964928 -0.246770
vn -0.627405 -0.631557 -0.455521
vn -0.340219 -0.828885 -0.444073
vn -0.600238 0.666000 0.442898
vn -0.967824 0.130448 0.215174
vn -0.122342 0.954821 0.270832
vn -0.117824 0.427182 0.896456
vn -0.834101 -0.355194 0.422035
vn -0.990306 0.136127 -0.027623
vn -0.746369 0.438925 0.500279
vn -0.818687 0.461427 0.341812
vn -0.579548 -0.804144 0.132196
vn -0.500966 -0.742829 0.444115
vn -0.349370 -0.846190 0.402372
vn -0.985010 0.074692 -0.155488
vn -0.926715 -0.197921 -0.319417
vn -0.772465 -0.547691 0.321453
vn -0.103464 0.282254 -0.953744
vn -0.281688 0.453540 -0.845549
vn -0.905622 0.132870 0.402734
vn -0.555468 -0.138546 -0.819915
vn -0.244146 0.671368 -0.699756
vn -0.916843 -0.376945 0.131574
vn -0.648832 0.713888 -0.263403
vn -0.971249 -0.067983 -0.228154
vn -0.450146 0.879587 -0.153932
vn 0.984812 -0.144134 -0.096807
vn 0.790882 -0.310264 0.527487
vn 0.998802 0.046522 0.015173
vn 0.917287 -0.342280 0.203540
vn 0.977154 0.204530 0.057775
vn -0.245935 -0.324374 -0.913399
vn 0.960445 0.068628 -0.269881
vn 0.661841 -0.660740 0.354103
vn -0.804100 -0.592692 0.046254
vn -0.932507 -0.237555 0.272027
vn -0.791980 0.562847 -0.236583
vn -0.761441 0.043177 -0.646795
vn 0.995221 0.096068 -0.017496
vn 0.095250 0.995448 -0.003208
vn 0.929119 -0.016147 0.369428
vn 0.742189 0.325233 0.585985
vn 0.815611 -0.544693 -0.195161
vn 0.935193 -0.286835 0.207700
vn 0.939082 -0.340455 -0.047077
vn 0.548349 -0.830862 0.094770
vn 0.880807 -0.148357 0.449632
vn 0.882251 -0.465731 -0.068757
vn 0.867697 -0.396682 0.299574
vn 0.773632 -0.582805 0.248659
vn -0.609469 0.048874 -0.791302
vn -0.568071 -0.350793 -0.744472
vn -0.191582 -0.901035 0.389142
vn -0.304524 0.919082 -0.250107
vn -0.099134 -0.852261 0.513638
vn -0.441814 -0.893574 0.079531
vn -0.569188 -0.821456 -0.035141
vn -0.617989 -0.759855 -0.201766
vn -0.013614 0.999623 0.023831
vn 0.101079 -0.987581 0.120276
vn 0.112366 0.993664 -0.002513
vn -0.646893 0.727819 0.227614
vn -0.518022 -0.330388 0.788984
vn -0.278098 -0.827169 0.488317
vn 0.089082 0.975546 -0.200936
vn -0.092395 0.992913 -0.074749
vn -0.846746 0.526092 -0.079050
vn -0.936899 -0.263422 -0.229844
vn -0.984561 -0.132209 -0.114723
vn -0.976816 -0.157352 -0.145158
vn -0.985950 0.067513 -0.152792
vn -0.167498 0.976516 -0.135501
vn 0.034690 -0.304338 -0.951932
vn -0.397585 -0.882243 -0.252139
vn -0.007216 0.938760 -0.344497
vn -0.953868 -0.009053 0.300090
vn -0.649561 -0.749009 0.130601
vn -0.858130 -0.285093 0.427006
vn -0.095363 0.888636 -0.448589
vn 0.024650 0.962657 -0.269600
vn -0.948947 -0.045709 -0.312108
vn -0.904549 -0.405781 0.130893
vn -0.634849 0.038901 -0.771656
vn -0.922428 -0.370379 0.109300
vn 0.969673 0.224303 0.097072
vn 0.855941 0.514012 0.056179
vn 0.844762 -0.504558 0.178323
vn 0.925284 -0.341146 0.165738
vn -0.226343 -0.874183 -0.429619
vn -0.701654 -0.681394 -0.208288
vn -0.683573 0.688558 0.242107
vn -0.982642 -0.156357 -0.099840
vn -0.679018 -0.676909 -0.284130
vn -0.972279 0.141027 -0.186508
vn -0.988767 0.046069 -0.142187
vn -0.765780 0.048332 -0.641283
vn -0.765561 0.047700 -0.641593
vn 0.967954 0.187211 -0.167380
vn 0.899139 0.432038 -0.069943
vn 0.941041 0.315087 0.123134
vn 0.931255 0.310731 0.190291
vn 0.998951 0.043102 -0.015443
vn 0.919178 -0.121594 0.374603
vn 0.987247 -0.032877 0.155761
vn 0.991697 0.062332 0.112483
vn 0.740837 0.621343 0.255133
vn 0.844128 0.293283 0.448813
vn 0.961847 -0.017650 0.273017
vn 0.879957 0.471545 -0.057633
vn 0.881420 -0.343631 -0.324063
vn 0.967387 -0.206913 -0.146112
vn 0.985556 0.167800 -0.022853
vn 0.924483 0.381190 0.005021
vn 0.731767 0.681307 0.018377
vn 0.876237 0.405501 0.260340
vn 0.185160 0.981538 0.047945
vn 0.897319 -0.087026 0.432719
vn 0.778341 0.599165 0.187581
vn 0.481267 0.836697 0.261381
vn 0.356422 -0.730021 0.583124
vn 0.491499 -0.474532 0.730238
vn 0.046325 -0.849537 0.525491
vn 0.268807 -0.676923 0.685214
vn 0.908497 0.377101 0.180075
vn 0.894526 0.446927 0.008972
vn 0.912175 0.382239 0.147748
vn 0.796548 0.490383 0.353604
vn 0.755471 0.639080 0.144362
vn 0.105276 0.957776 0.267548
vn 0.151200 -0.223536 0.962897
vn 0.676407 0.526559 0.514984
vn 0.131203 0.338242 0.931868
vn 0.430632 0.317442 0.844859
vn 0.516316 0.851131 -0.094839
vn 0.915948 0.220192 -0.335491
vn 0.575518 0.695040 -0.430928
vn 0.787384 -0.571047 -0.232231
vn 0.926059 -0.219752 -0.306796
vn 0.840754 -0.490861 -0.228448
vn 0.842506 -0.490254 -0.223238
vn 0.942910 -0.285144 0.172089
vn 0.974816 0.215025 0.059144
vn 0.968025 0.242507 0.064168
vn 0.826574 -0.525406 0.201804
vn 0.825327 -0.530325 0.193885
vn 0.385615 0.920298 -0.065968
vn 0.952496 0.286740 -0.102621
vn 0.977295 0.196842 -0.078408
vn 0.793846 0.594659 -0.127232
vn 0.053909 0.997749 -0.039883
vn 0.784860 -0.599325 -0.157495
vn 0.458379 -0.819214 -0.344641
vn 0.043202 0.997874 0.048793
vn 0.233956 0.952804 0.193465
vn 0.325771 0.937338 0.123575
vn 0.104568 0.902350 0.418127
vn 0.110348 0.978783 0.172648
vn 0.263973 0.916289 0.301220
vn 0.258330 0.625317 0.736372
vn 0.677013 -0.225875 -0.700453
vn 0.662023 -0.532884 -0.527029
vn 0.505421 0.088672 -0.858305
vn 0.491159 0.113802 -0.863604
vn 0.640910 -0.709078 -0.294011
vn 0.290683 -0.586096 -0.756303
vn -0.299521 -0.601951 -0.740231
vn -0.403397 -0.445731 -0.799122
vn 0.145604 -0.121598 -0.981842
vn -0.393162 -0.251300 -0.884462
vn -0.114034 -0.393781 -0.912103
vn 0.136289 0.224105 -0.964988
vn -0.451939 0.099200 -0.886516
vn 0.196004 -0.666252 -0.719508
vn 0.469550 -0.845590 -0.253968
vn -0.196958 -0.689890 -0.696606
vn -0.427021 -0.491428 -0.759047
vn 0.757933 -0.629429 -0.171339
vn 0.643986 -0.694260 0.321380
vn 0.739466 0.523195 -0.423624
vn 0.805281 0.482070 -0.345153
vn -0.009620 0.386504 -0.922237
vn 0.187396 0.965980 -0.178230
vn 0.101806 0.810469 -0.576866
vn -0.467250 0.563879 -0.680968
vn -0.280601 0.927170 -0.248230
vn 0.556091 -0.284382 -0.780955
vn 0.283540 -0.491027 -0.823710
vn 0.767945 -0.419667 -0.483881
vn 0.834241 -0.312497 -0.454299
vn 0.973945 -0.172477 -0.147250
vn 0.973440 -0.222280 -0.054835
vn 0.983853 -0.160618 -0.078965
vn 0.841393 -0.330443 0.427626
vn 0.975631 -0.181508 0.123285
vn 0.881096 -0.350423 0.317604
vn 0.468350 -0.654076 0.593997
vn 0.494100 -0.637506 0.591145
vn 0.844489 -0.488731 -0.219043
vn 0.904054 -0.399932 0.150802
vn 0.893618 -0.362913 -0.264085
vn 0.864657 -0.459262 -0.203584
vn 0.908312 -0.368287 0.198328
vn 0.926040 -0.338671 0.166589
vn 0.941675 -0.333344 -0.046156
vn 0.893547 -0.155083 0.421335
vn 0.886784 -0.083069 0.454659
vn 0.912026 -0.405254 0.063070
vn 0.898414 -0.421175 0.124351
vn 0.878639 -0.393568 0.270366
vn 0.555870 -0.697347 0.452455
vn 0.854008 -0.410935 0.319065
vn 0.361626 -0.813817 0.454893
vn 0.499277 -0.816342 0.290359
vn 0.831122 -0.364711 0.419789
vn 0.602324 -0.782615 0.157225
vn 0.625684 -0.740609 0.244984
vn 0.746933 0.664599 0.020011
vn 0.433399 0.894664 -0.108354
vn 0.718593 0.692478 -0.064018
vn 0.131734 0.987633 -0.085018
vn 0.547623 -0.835897 0.037207
vn 0.763561 -0.639282 0.091066
vn 0.631585 -0.773456 0.053544
vn 0.224916 -0.974159 0.020671
vn 0.482221 -0.869910 0.103533
vn 0.219348 -0.952503 -0.211244
vn 0.141656 -0.989433 -0.030932
vn 0.249543 -0.958003 -0.141274
vn 0.217169 -0.938050 -0.270000
vn 0.080186 0.996726 -0.010334
vn 0.287531 0.957407 0.026413
vn -0.025456 0.998970 -0.037567
vn 0.118198 0.992977 -0.005176
vn 0.031419 0.754779 0.655227
vn 0.009822 0.585621 0.810526
vn -0.136327 0.158615 0.977884
vn 0.063733 -0.082037 0.994589
vn -0.081044 -0.301497 0.950017
vn 0.042492 -0.443985 -0.895026
vn 0.073902 -0.438217 -0.895826
vn 0.607441 -0.194306 -0.770234
vn 0.629618 -0.076784 -0.773102
vn 0.612381 -0.178771 -0.770084
vn 0.071018 -0.457704 -0.886264
vn -0.528729 -0.340950 -0.777302
vn -0.392490 -0.171362 -0.903652
vn -0.111487 -0.913446 -0.391392
vn -0.030807 0.984209 -0.174309
vn 0.508820 -0.695332 0.507559
vn 0.232074 -0.758189 0.609337
vn -0.293975 -0.815522 0.498500
vn 0.075044 -0.785739 0.613989
vn 0.189668 -0.805866 0.560898
vn 0.367055 -0.899134 0.238385
vn 0.079309 -0.972970 0.216888
vn -0.078903 -0.993034 0.087507
vn -0.285488 -0.958141 0.021481
vn 0.481876 -0.875280 -0.040991
vn -0.589413 -0.807075 0.034952
vn -0.408301 -0.900349 -0.150540
vn -0.707421 -0.704637 -0.055154
vn -0.598621 -0.756688 -0.262823
vn -0.767991 -0.525137 -0.366636
vn -0.030400 0.999321 -0.020840
vn 0.028774 0.999563 -0.006773
vn 0.157198 -0.976834 -0.145204
vn 0.654234 -0.643181 0.397863
vn -0.289610 -0.828444 -0.479382
vn -0.699659 -0.500151 -0.510221
vn 0.095254 -0.972475 -0.212648
vn 0.061726 -0.956712 0.284414
vn -0.059381 -0.934558 0.350820
vn -0.431351 -0.874934 0.220061
vn -0.639899 -0.732688 0.231726
vn -0.772766 -0.634668 0.005497
vn -0.231999 -0.914705 0.330895
vn -0.385749 -0.867718 0.313470
vn -0.968908 -0.055439 0.241128
vn -0.109299 -0.859395 0.499494
vn -0.227694 -0.667418 0.709020
vn -0.412469 -0.772114 0.483435
vn -0.083836 -0.499475 0.862262
vn -0.464672 -0.566555 0.680512
vn -0.835308 -0.404179 0.372692
vn -0.863629 -0.121579 0.489247
vn -0.358718 -0.506843 0.783857
vn -0.980923 0.054847 0.186499
vn -0.969422 0.220005 -0.108716
vn -0.993452 0.065475 -0.093629
vn 0.044184 0.962457 0.267815
vn -0.871189 0.482277 0.091862
vn -0.995027 0.093227 -0.035066
vn -0.989633 0.138990 -0.036159
vn -0.444109 -0.065517 0.893574
vn -0.920330 0.303542 -0.246688
vn -0.784842 -0.015618 0.619499
vn -0.363905 -0.197532 0.910250
vn -0.466776 0.207038 0.859800
vn -0.811827 0.193026 0.551071
vn -0.127673 0.809691 0.572800
vn -0.908776 0.247148 0.336221
vn -0.993417 0.101665 0.052796
vn -0.920033 0.269222 0.284708
vn -0.962083 0.198044 0.187552
vn -0.805671 0.493078 0.328280
vn -0.635255 0.662778 0.396455
vn -0.644691 0.410681 0.644760
vn -0.484270 0.613644 0.623638
vn -0.770473 0.289894 0.567744
vn 0.022828 -0.634866 -0.772285
vn 0.067359 -0.830184 -0.553406
vn -0.024220 -0.900113 -0.434982
vn -0.294966 -0.832266 0.469392
vn -0.202043 -0.979364 0.004927
vn -0.579786 -0.748855 0.321035
vn -0.417095 0.311191 -0.853928
vn -0.647636 0.606098 0.461750
vn -0.575875 0.628424 0.522926
vn -0.961889 -0.253106 0.103478
vn -0.870026 0.217532 0.442419
vn -0.608912 0.645883 0.460500
vn -0.762855 0.562561 0.318712
vn -0.808402 0.488060 0.329065
vn -0.873560 0.229604 0.429156
vn -0.615250 0.543008 0.571498
vn -0.919020 -0.322616 -0.226543
vn -0.403677 0.558066 0.724988
vn -0.523288 0.541978 0.657594
vn -0.374498 -0.750462 0.544571
vn 0.024243 -0.808927 0.587409
vn -0.791114 -0.512547 0.333818
vn -0.947689 -0.076695 0.309844
vn -0.307520 -0.837640 0.451433
vn -0.265293 -0.835601 0.481030
vn -0.666550 -0.710073 0.226952
vn -0.972617 -0.230085 0.032802
vn -0.942061 -0.299860 0.150349
vn -0.671814 -0.727404 0.139819
vn -0.947847 -0.318491 0.012213
vn -0.954003 -0.071312 0.291193
vn -0.362745 0.912546 0.188881
vn -0.191181 -0.962392 0.193009
vn -0.478227 -0.833357 0.277155
vn -0.007472 0.990703 -0.135834
vn -0.596375 0.772035 -0.219769
vn -0.808898 0.574714 -0.124050
vn -0.627360 0.778678 0.008983
vn -0.522093 0.851949 0.040025
vn -0.921405 0.388496 0.009175
vn -0.328081 0.925783 -0.187851
vn -0.991984 0.034095 -0.121677
vn -0.997634 0.065378 0.021262
vn -0.991640 0.128965 0.004250
vn -0.621044 0.770111 -0.145718
vn -0.104541 0.993550 -0.043937
vn -0.954334 -0.277401 -0.110885
vn -0.948474 -0.295702 -0.113829
vn -0.796339 -0.599801 -0.077987
vn -0.183816 0.981841 -0.046903
vn -0.538464 0.833864 -0.121356
vn -0.763165 0.638033 -0.102440
vn -0.972092 -0.171684 -0.159881
vn -0.816227 -0.512456 -0.266763
vn -0.934356 -0.356167 0.011100
vn -0.978231 0.203677 -0.039743
vn -0.986122 0.108310 0.125826
vn -0.996862 0.027021 -0.074403
vn -0.999743 0.008511 -0.021026
vn -0.946516 -0.304647 -0.106293
vn -0.969746 -0.056141 0.237574
vn -0.918218 -0.362928 -0.158612
vn -0.943640 -0.330572 0.016290
vn -0.921327 -0.307509 0.237899
vn -0.851148 -0.502842 0.150657
vn -0.993787 -0.085364 -0.071419
vn -0.682328 0.705316 -0.192245
vn -0.878298 0.393620 -0.271396
vn -0.976137 0.104632 -0.190287
vn -0.969829 -0.112241 -0.216413
vn -0.975168 0.149716 -0.163197
vn -0.985464 -0.014438 0.169267
vn -0.837815 -0.000878 0.545954
vn -0.145560 0.988759 0.034179
vn -0.718700 0.527756 0.452706
vn -0.544813 0.725758 0.420063
vn -0.492558 0.851550 -0.179581
vn -0.339263 0.940638 -0.009986
vn -0.546431 0.829747 0.113723
vn -0.774835 0.135150 0.617548
vn -0.664303 0.109678 0.739373
vn -0.843967 0.159428 0.512155
vn -0.763540 0.192701 0.616338
vn -0.942096 -0.200092 0.269105
vn -0.944969 0.242727 0.219356
vn -0.997115 -0.045314 0.060891
vn -0.875786 -0.189933 0.443762
vn -0.824760 0.016906 0.565230
vn -0.874488 0.319076 0.365324
vn -0.987170 -0.094084 0.129007
vn -0.932096 -0.209724 0.295319
vn -0.994839 0.024965 -0.098343
vn -0.995484 -0.065152 -0.069042
vn -0.936744 0.309119 -0.164184
vn -0.991812 0.079422 -0.100004
vn 0.121094 -0.360718 -0.924780
vn -0.111549 -0.583788 -0.804207
vn 0.049400 -0.152564 -0.987058
vn -0.066438 -0.293890 -0.953527
vn -0.246914 -0.396689 -0.884122
vn -0.082185 -0.060818 -0.994760
vn -0.792710 -0.506950 0.338543
vn -0.588283 -0.714336 0.379007
vn -0.098701 -0.049201 -0.993900
vn -0.150493 0.295821 -0.943314
vn -0.911297 0.401318 0.092095
vn -0.341412 0.477498 -0.809588
vn -0.254170 0.339414 -0.905646
vn -0.918210 -0.384604 -0.094714
vn -0.141641 -0.065554 -0.987745
vn -0.855554 -0.484039 0.183668
vn -0.637541 -0.343472 -0.689615
vn -0.891836 -0.445841 0.076510
vn -0.842384 -0.252212 -0.476212
vn 0.000603 0.896320 -0.443408
vn -0.255687 0.387702 -0.885614
vn -0.218263 0.549438 -0.806523
vn -0.211168 -0.034463 -0.976842
vn -0.364442 0.453210 -0.813500
vn -0.864732 0.070043 -0.497326
vn -0.447702 -0.788439 0.421815
vn -0.360321 -0.780450 0.510947
vn -0.455591 -0.770814 0.445290
vn -0.499662 -0.742564 0.446022
vn -0.517994 -0.721319 0.459762
vn -0.895716 0.164029 0.413265
vn -0.835625 0.305282 0.456655
vn -0.925814 0.129011 0.355280
vn -0.790396 -0.554331 0.260752
vn -0.869774 0.170388 0.463099
vn -0.868418 -0.319607 0.379080
vn -0.868997 0.248996 0.427603
vn -0.673097 -0.691962 0.261015
vn -0.821223 0.434745 0.369581
vn -0.529521 0.660710 0.532043
vn -0.566092 0.744344 0.354249
vn -0.768543 0.286380 0.572125
vn -0.723360 0.602021 0.338115
vn -0.651946 -0.746076 0.135412
vn -0.778250 -0.605884 0.165018
vn -0.557015 0.781439 -0.281226
vn 0.014231 0.985965 -0.166343
vn 0.058587 0.990257 -0.126331
vn -0.040828 0.986778 -0.156852
vn -0.773769 -0.579981 0.254761
vn -0.671162 -0.728806 0.135583
vn -0.956200 -0.023587 0.291761
vn -0.020244 0.990590 -0.135355
vn -0.015021 0.999691 -0.019785
vn -0.467639 0.882708 0.046269
vn -0.114085 0.957526 0.264819
vn -0.341356 0.874136 0.345487
vn -0.499617 0.806671 0.315697
vn -0.615261 0.650413 0.445440
vn -0.887117 0.153924 0.435122
vn -0.938470 0.255710 0.232133
vn -0.840835 0.350007 0.412907
vn -0.765339 0.590479 0.256107
vn -0.950354 0.255108 0.178179
vn -0.647812 0.520704 0.556064
vn -0.215605 0.975356 0.046847
vn -0.777578 0.515533 0.359997
vn -0.769874 0.430504 0.471127
vn -0.918495 -0.382748 0.099353
vn -0.632268 0.359717 -0.686178
vn -0.493843 0.766655 -0.410317
vn -0.959268 -0.070103 -0.273659
vn -0.971912 -0.212799 -0.100512
vn -0.864096 -0.501867 0.038312
vn -0.378432 0.750921 -0.541208
vn -0.974102 -0.220801 0.048710
vn -0.973190 -0.197175 0.118418
vn 0.969208 0.108088 -0.221255
vn 0.910474 0.338682 0.237344
vn 0.743292 0.010295 0.668888
vn 0.907089 -0.373925 -0.193315
vn 0.830821 0.203413 -0.518034
vn 0.986755 -0.162158 -0.004452
vn 0.907773 -0.391659 0.150170
vn 0.974231 -0.215163 0.067673
vn 0.819828 0.567602 -0.075568
vn 0.446930 0.894315 0.021298
vn 0.955996 0.281766 0.081730
vn 0.948723 0.299304 0.101693
vn 0.520805 0.852521 0.044375
vn 0.144277 0.984327 -0.101410
vn 0.955058 -0.235337 0.180227
vn 0.851165 -0.512230 0.114627
vn 0.981984 0.188166 -0.017328
vn 0.163402 -0.339798 -0.926195
vn 0.222725 -0.683777 -0.694869
vn 0.205760 -0.491955 -0.845957
vn 0.195474 -0.293234 -0.935844
vn -0.206084 -0.656224 -0.725878
vn -0.415924 -0.435246 -0.798479
vn -0.085931 -0.140067 -0.986406
vn -0.562372 -0.331979 -0.757316
vn -0.341091 -0.319803 -0.883959
vn -0.260051 -0.196578 -0.945373
vn -0.198525 -0.187520 -0.961990
vn 0.978030 -0.065064 -0.198048
vn 0.181006 -0.832066 0.524311
vn 0.923482 -0.350814 0.155277
vn 0.434679 -0.777820 0.453927
vn 0.003645 -0.910943 0.412515
vn -0.228447 -0.888710 -0.397501
vn 0.748565 -0.357156 -0.558650
vn 0.927902 -0.035749 -0.371106
vn 0.941753 -0.117847 -0.314981
vn -0.250485 -0.829015 -0.499991
vn -0.229872 -0.886781 -0.400971
vn 0.080731 -0.400604 -0.912688
vn 0.116153 -0.249517 -0.961379
vn 0.108804 -0.229234 -0.967271
vn 0.132344 -0.246333 -0.960107
vn 0.482224 -0.247425 -0.840382
vn 0.611386 -0.223096 -0.759233
vn -0.397748 0.697407 -0.596172
vn -0.301082 0.706018 -0.641005
vn -0.311931 0.597092 -0.739040
vn -0.138811 0.903875 -0.404650
vn -0.216131 -0.929460 0.298986
vn -0.344163 -0.859250 0.378471
vn -0.287680 -0.946183 0.148252
vn -0.966168 -0.257911 0.000932
vn -0.957231 -0.275952 0.086950
vn -0.821104 -0.416016 -0.390794
vn -0.522141 0.830320 0.194776
vn -0.785803 0.617789 0.029167
vn -0.975593 0.064577 0.209879
vn -0.975149 0.099117 0.198143
vn -0.178261 -0.799758 -0.573245
vn -0.438071 -0.790543 -0.427943
vn -0.958187 -0.261991 0.115053
vn -0.986385 -0.033821 0.160939
vn -0.975531 -0.093585 -0.198948
vn -0.968619 0.241436 0.059048
vn -0.969895 -0.170028 -0.174341
vn -0.955961 -0.242514 -0.165304
vn -0.982953 -0.176476 -0.051568
vn -0.835105 -0.507353 0.212584
vn -0.922129 -0.342928 0.179106
vn -0.932655 -0.275698 0.232693
vn -0.919839 -0.366555 0.139767
vn -0.762121 -0.643094 0.074838
vn -0.111518 -0.192951 -0.974851
vn 0.075074 -0.011606 -0.997110
vn -0.106644 -0.187824 -0.976396
vn -0.936574 -0.095181 0.337297
vn -0.849968 -0.385674 0.358902
vn -0.965341 -0.111315 0.236064
vn -0.607615 -0.739284 -0.290280
vn -0.614600 -0.739633 -0.274244
vn -0.811524 0.571186 -0.123187
vn -0.762650 0.044838 -0.645255
vn -0.900993 0.277119 0.333791
vn -0.906220 0.422175 0.023079
vn -0.915651 0.328737 0.231332
vn -0.760569 0.041988 -0.647898
vn -0.762840 0.044782 -0.645035
vn -0.964350 0.085782 0.250340
vn -0.907415 -0.059005 0.416073
vn -0.949294 0.139236 0.281875
vn -0.977555 0.014518 0.210181
vn -0.912437 -0.160977 0.376225
vn -0.856766 0.514182 0.039620
vn -0.824957 0.560580 0.072085
vn -0.832628 0.384447 -0.398662
vn -0.874644 0.309713 -0.372927
vn -0.875881 0.313443 -0.366860
vn -0.919892 -0.389678 0.044147
vn -0.998690 0.006027 -0.050808
vn -0.881381 0.471503 0.029214
vn -0.888866 0.455054 0.053318
vn -0.873939 0.485131 0.029630
f 173//173 131//131 2//2
f 131//131 7//7 132//132
f 131//131 173//173 7//7
f 60//60 131//131 132//132
f 121//121 131//131 60//60
f 124//124 48//48 125//125
f 126//126 48//48 124//124
f 134//134 123//123 132//132
f 122//122 60//60 132//132
f 123//123 122//122 132//132
f 48//48 126//126 123//123
f 126//126 122//122 123//123
f 126//126 124//124 122//122
f 48//48 123//123 119//119
f 123//123 134//134 119//119
f 119//119 125//125 503//503
f 119//119 503//503 48//48
f 119//119 127//127 125//125
f 134//134 120//120 119//119
f 119//119 120//120 127//127
f 120//120 134//134 127//127
f 127//127 134//134 4//4
f 2//2 288//288 287//287
f 131//131 121//121 2//2
f 2//2 121//121 129//129
f 2//2 129//129 288//288
f 288//288 129//129 49//49
f 124//124 136//136 122//122
f 60//60 122//122 121//121
f 124//124 125//125 138//138
f 138//138 62//62 124//124
f 62//62 136//136 124//124
f 136//136 121//121 122//122
f 125//125 127//127 138//138
f 127//127 128//128 138//138
f 49//49 141//141 288//288
f 1//1 288//288 141//141
f 49//49 129//129 504//504
f 121//121 504//504 129//129
f 504//504 3//3 49//49
f 505//505 142//142 49//49
f 142//142 141//141 49//49
f 504//504 146//146 63//63
f 504//504 505//505 3//3
f 63//63 505//505 504//504
f 519//519 169//169 66//66
f 169//169 168//168 66//66
f 130//130 66//66 168//168
f 171//171 252//252 130//130
f 132//132 7//7 172//172
f 66//66 132//132 172//172
f 132//132 66//66 130//130
f 132//132 130//130 133//133
f 133//133 130//130 135//135
f 134//134 132//132 133//133
f 4//4 135//135 130//130
f 134//134 133//133 135//135
f 134//134 135//135 4//4
f 173//173 2//2 250//250
f 2//2 287//287 250//250
f 250//250 287//287 22//22
f 252//252 4//4 130//130
f 4//4 140//140 127//127
f 137//137 140//140 4//4
f 128//128 127//127 140//140
f 4//4 61//61 137//137
f 174//174 137//137 80//80
f 140//140 137//137 174//174
f 140//140 174//174 16//16
f 285//285 80//80 137//137
f 285//285 137//137 61//61
f 136//136 145//145 121//121
f 121//121 145//145 504//504
f 136//136 62//62 145//145
f 62//62 128//128 148//148
f 138//138 128//128 62//62
f 140//140 139//139 128//128
f 143//143 144//144 142//142
f 141//141 143//143 1//1
f 144//144 141//141 142//142
f 143//143 141//141 144//144
f 146//146 504//504 145//145
f 63//63 146//146 147//147
f 154//154 63//63 147//147
f 63//63 151//151 505//505
f 147//147 146//146 145//145
f 62//62 148//148 145//145
f 145//145 152//152 147//147
f 145//145 148//148 152//152
f 147//147 152//152 154//154
f 177//177 180//180 148//148
f 148//148 180//180 152//152
f 128//128 149//149 148//148
f 139//139 149//149 128//128
f 139//139 140//140 149//149
f 149//149 150//150 148//148
f 140//140 150//150 149//149
f 151//151 142//142 505//505
f 63//63 154//154 151//151
f 154//154 153//153 151//151
f 151//151 143//143 142//142
f 182//182 181//181 158//158
f 156//156 158//158 181//181
f 156//156 181//181 183//183
f 201//201 155//155 511//511
f 50//50 198//198 506//506
f 511//511 155//155 515//515
f 507//507 511//511 50//50
f 50//50 506//506 507//507
f 198//198 158//158 506//506
f 159//159 158//158 507//507
f 158//158 159//159 506//506
f 506//506 159//159 507//507
f 156//156 157//157 158//158
f 157//157 507//507 158//158
f 157//157 200//200 507//507
f 155//155 200//200 157//157
f 507//507 201//201 511//511
f 155//155 201//201 507//507
f 200//200 155//155 507//507
f 6//6 64//64 161//161
f 64//64 160//160 161//161
f 6//6 198//198 51//51
f 198//198 508//508 51//51
f 198//198 50//50 508//508
f 220//220 222//222 219//219
f 222//222 161//161 160//160
f 219//219 160//160 64//64
f 222//222 160//160 219//219
f 9//9 158//158 198//198
f 198//198 6//6 161//161
f 198//198 161//161 5//5
f 5//5 9//9 198//198
f 515//515 155//155 512//512
f 51//51 508//508 510//510
f 508//508 50//50 510//510
f 162//162 510//510 52//52
f 166//166 510//510 162//162
f 51//51 510//510 509//509
f 510//510 166//166 229//229
f 510//510 229//229 509//509
f 513//513 106//106 52//52
f 510//510 513//513 52//52
f 510//510 50//50 163//163
f 510//510 163//163 164//164
f 510//510 164//164 513//513
f 516//516 515//515 512//512
f 229//229 231//231 70//70
f 231//231 229//229 230//230
f 230//230 229//229 166//166
f 165//165 166//166 162//162
f 65//65 166//166 165//165
f 518//518 166//166 65//65
f 65//65 165//165 162//162
f 164//164 167//167 513//513
f 106//106 514//514 52//52
f 167//167 238//238 513//513
f 513//513 514//514 106//106
f 238//238 514//514 513//513
f 13//13 167//167 516//516
f 166//166 71//71 230//230
f 166//166 518//518 71//71
f 240//240 519//519 107//107
f 514//514 107//107 52//52
f 238//238 107//107 514//514
f 240//240 107//107 238//238
f 162//162 517//517 65//65
f 517//517 518//518 65//65
f 517//517 519//519 518//518
f 519//519 66//66 518//518
f 243//243 244//244 518//518
f 66//66 243//243 518//518
f 240//240 169//169 519//519
f 240//240 365//365 241//241
f 241//241 170//170 240//240
f 171//171 130//130 170//170
f 170//170 130//130 168//168
f 240//240 168//168 169//169
f 170//170 168//168 240//240
f 380//380 241//241 87//87
f 241//241 171//171 170//170
f 279//279 66//66 172//172
f 247//247 7//7 173//173
f 15//15 4//4 252//252
f 171//171 251//251 252//252
f 252//252 253//253 15//15
f 251//251 253//253 252//252
f 171//171 253//253 251//251
f 1//1 81//81 287//287
f 1//1 287//287 288//288
f 285//285 174//174 286//286
f 286//286 174//174 80//80
f 285//285 286//286 80//80
f 61//61 4//4 15//15
f 61//61 15//15 285//285
f 1//1 292//292 81//81
f 143//143 292//292 1//1
f 254//254 16//16 174//174
f 254//254 174//174 285//285
f 285//285 82//82 254//254
f 151//151 303//303 143//143
f 175//175 176//176 16//16
f 16//16 150//150 140//140
f 148//148 150//150 16//16
f 175//175 148//148 176//176
f 176//176 148//148 16//16
f 16//16 178//178 175//175
f 175//175 178//178 148//148
f 178//178 179//179 148//148
f 254//254 178//178 16//16
f 17//17 178//178 254//254
f 178//178 177//177 179//179
f 179//179 177//177 148//148
f 17//17 311//311 178//178
f 303//303 151//151 259//259
f 258//258 151//151 153//153
f 259//259 151//151 258//258
f 153//153 154//154 152//152
f 153//153 152//152 180//180
f 182//182 158//158 185//185
f 182//182 185//185 186//186
f 185//185 194//194 186//186
f 186//186 194//194 189//189
f 186//186 189//189 182//182
f 182//182 189//189 181//181
f 189//189 184//184 183//183
f 189//189 183//183 181//181
f 157//157 156//156 183//183
f 157//157 183//183 184//184
f 184//184 192//192 157//157
f 187//187 188//188 194//194
f 190//190 191//191 188//188
f 188//188 189//189 194//194
f 191//191 189//189 188//188
f 202//202 192//192 189//189
f 189//189 192//192 184//184
f 202//202 157//157 192//192
f 188//188 73//73 193//193
f 191//191 190//190 189//189
f 193//193 190//190 188//188
f 190//190 193//193 189//189
f 189//189 193//193 202//202
f 197//197 73//73 188//188
f 157//157 202//202 204//204
f 73//73 197//197 266//266
f 193//193 204//204 202//202
f 193//193 73//73 72//72
f 193//193 205//205 206//206
f 193//193 206//206 204//204
f 208//208 207//207 12//12
f 8//8 263//263 207//207
f 8//8 262//262 263//263
f 207//207 263//263 12//12
f 262//262 264//264 263//263
f 264//264 12//12 263//263
f 209//209 537//537 10//10
f 210//210 537//537 209//209
f 5//5 10//10 9//9
f 209//209 10//10 5//5
f 544//544 526//526 523//523
f 545//545 523//523 520//520
f 544//544 523//523 545//545
f 195//195 158//158 9//9
f 185//185 158//158 195//195
f 188//188 187//187 196//196
f 187//187 194//194 196//196
f 194//194 185//185 195//195
f 194//194 195//195 196//196
f 197//197 195//195 67//67
f 196//196 195//195 197//197
f 196//196 197//197 188//188
f 528//528 266//266 197//197
f 195//195 199//199 67//67
f 195//195 9//9 521//521
f 67//67 199//199 526//526
f 195//195 521//521 199//199
f 67//67 524//524 197//197
f 197//197 525//525 528//528
f 524//524 525//525 197//197
f 524//524 53//53 525//525
f 526//526 199//199 521//521
f 521//521 9//9 520//520
f 520//520 523//523 521//521
f 523//523 526//526 522//522
f 522//522 526//526 521//521
f 522//522 521//521 523//523
f 72//72 73//73 266//266
f 72//72 205//205 193//193
f 53//53 528//528 525//525
f 527//527 266//266 528//528
f 157//157 203//203 155//155
f 203//203 516//516 512//512
f 203//203 512//512 155//155
f 204//204 203//203 157//157
f 206//206 203//203 204//204
f 108//108 109//109 533//533
f 108//108 533//533 11//11
f 55//55 11//11 212//212
f 55//55 212//212 213//213
f 212//212 11//11 533//533
f 531//531 533//533 109//109
f 212//212 533//533 531//531
f 552//552 534//534 535//535
f 534//534 55//55 532//532
f 534//534 532//532 535//535
f 54//54 539//539 531//531
f 537//537 210//210 538//538
f 538//538 539//539 54//54
f 210//210 539//539 538//538
f 262//262 547//547 264//264
f 547//547 546//546 264//264
f 264//264 546//546 12//12
f 531//531 539//539 211//211
f 210//210 209//209 221//221
f 209//209 5//5 161//161
f 221//221 161//161 222//222
f 209//209 161//161 221//221
f 472//472 13//13 269//269
f 13//13 516//516 269//269
f 68//68 214//214 215//215
f 216//216 214//214 226//226
f 214//214 68//68 226//226
f 215//215 213//213 211//211
f 215//215 214//214 213//213
f 214//214 55//55 213//213
f 211//211 212//212 531//531
f 213//213 212//212 211//211
f 214//214 218//218 55//55
f 217//217 218//218 214//214
f 226//226 225//225 216//216
f 225//225 69//69 228//228
f 228//228 216//216 225//225
f 214//214 216//216 217//217
f 55//55 218//218 532//532
f 218//218 217//217 532//532
f 217//217 273//273 532//532
f 273//273 272//272 532//532
f 270//270 273//273 217//217
f 273//273 270//270 271//271
f 74//74 532//532 272//272
f 220//220 51//51 509//509
f 220//220 509//509 224//224
f 229//229 224//224 509//509
f 223//223 224//224 229//229
f 68//68 215//215 223//223
f 224//224 223//223 215//215
f 227//227 223//223 225//225
f 68//68 223//223 227//227
f 226//226 227//227 225//225
f 68//68 227//227 226//226
f 215//215 211//211 222//222
f 215//215 222//222 224//224
f 539//539 210//210 221//221
f 539//539 221//221 211//211
f 224//224 222//222 220//220
f 211//211 221//221 222//222
f 217//217 216//216 228//228
f 217//217 228//228 270//270
f 270//270 228//228 70//70
f 70//70 69//69 229//229
f 69//69 225//225 223//223
f 69//69 223//223 229//229
f 270//270 70//70 231//231
f 69//69 70//70 228//228
f 231//231 351//351 271//271
f 231//231 230//230 232//232
f 234//234 233//233 71//71
f 233//233 235//235 71//71
f 233//233 231//231 235//235
f 71//71 235//235 230//230
f 235//235 231//231 232//232
f 235//235 232//232 230//230
f 233//233 19//19 231//231
f 234//234 19//19 233//233
f 167//167 13//13 238//238
f 13//13 239//239 238//238
f 238//238 239//239 240//240
f 239//239 86//86 240//240
f 13//13 86//86 239//239
f 276//276 234//234 236//236
f 518//518 237//237 71//71
f 518//518 236//236 237//237
f 237//237 236//236 234//234
f 237//237 234//234 71//71
f 276//276 236//236 277//277
f 518//518 244//244 236//236
f 277//277 236//236 246//246
f 236//236 244//244 246//246
f 244//244 245//245 246//246
f 244//244 242//242 245//245
f 575//575 363//363 277//277
f 363//363 276//276 277//277
f 277//277 246//246 245//245
f 244//244 243//243 242//242
f 242//242 279//279 245//245
f 66//66 279//279 243//243
f 279//279 242//242 243//243
f 575//575 277//277 278//278
f 277//277 245//245 278//278
f 278//278 245//245 279//279
f 279//279 248//248 281//281
f 279//279 172//172 248//248
f 248//248 172//172 249//249
f 7//7 247//247 172//172
f 247//247 249//249 172//172
f 79//79 247//247 14//14
f 247//247 22//22 14//14
f 250//250 247//247 173//173
f 22//22 247//247 250//250
f 285//285 253//253 376//376
f 285//285 15//15 253//253
f 241//241 380//380 171//171
f 380//380 376//376 171//171
f 171//171 376//376 253//253
f 14//14 22//22 289//289
f 293//293 292//292 143//143
f 254//254 82//82 17//17
f 311//311 404//404 27//27
f 82//82 404//404 311//311
f 17//17 82//82 311//311
f 178//178 311//311 177//177
f 311//311 321//321 177//177
f 311//311 27//27 321//321
f 177//177 321//321 255//255
f 153//153 257//257 258//258
f 257//257 259//259 258//258
f 257//257 153//153 28//28
f 257//257 28//28 319//319
f 259//259 257//257 315//315
f 303//303 259//259 84//84
f 256//256 153//153 180//180
f 255//255 180//180 177//177
f 180//180 255//255 256//256
f 28//28 153//153 256//256
f 321//321 256//256 255//255
f 28//28 256//256 321//321
f 8//8 207//207 260//260
f 207//207 208//208 260//260
f 260//260 208//208 261//261
f 261//261 542//542 260//260
f 260//260 545//545 8//8
f 542//542 545//545 260//260
f 261//261 265//265 542//542
f 265//265 428//428 542//542
f 542//542 543//543 545//545
f 428//428 543//543 542//542
f 428//428 544//544 543//543
f 543//543 544//544 545//545
f 526//526 530//530 53//53
f 337//337 72//72 267//267
f 267//267 266//266 527//527
f 267//267 72//72 266//266
f 75//75 205//205 72//72
f 75//75 72//72 548//548
f 548//548 72//72 337//337
f 75//75 548//548 549//549
f 528//528 267//267 527//527
f 529//529 267//267 528//528
f 337//337 550//550 548//548
f 550//550 551//551 548//548
f 548//548 551//551 549//549
f 550//550 447//447 551//551
f 551//551 75//75 549//549
f 447//447 550//550 446//446
f 529//529 446//446 267//267
f 446//446 550//550 337//337
f 446//446 337//337 267//267
f 205//205 75//75 206//206
f 75//75 269//269 206//206
f 75//75 96//96 269//269
f 206//206 269//269 203//203
f 203//203 269//269 516//516
f 532//532 74//74 535//535
f 535//535 74//74 552//552
f 541//541 536//536 110//110
f 540//540 536//536 541//541
f 268//268 110//110 18//18
f 540//540 541//541 268//268
f 541//541 110//110 268//268
f 265//265 540//540 268//268
f 268//268 332//332 265//265
f 333//333 332//332 268//268
f 552//552 74//74 554//554
f 18//18 335//335 268//268
f 18//18 334//334 335//335
f 268//268 335//335 333//333
f 333//333 335//335 95//95
f 272//272 451//451 74//74
f 74//74 553//553 554//554
f 554//554 553//553 552//552
f 451//451 553//553 74//74
f 454//454 553//553 451//451
f 96//96 75//75 551//551
f 445//445 96//96 551//551
f 270//270 231//231 271//271
f 271//271 351//351 273//273
f 351//351 85//85 273//273
f 272//272 273//273 452//452
f 272//272 454//454 451//451
f 452//452 454//454 272//272
f 455//455 273//273 85//85
f 350//350 85//85 351//351
f 85//85 350//350 455//455
f 19//19 274//274 231//231
f 231//231 274//274 351//351
f 274//274 76//76 351//351
f 19//19 76//76 274//274
f 472//472 269//269 473//473
f 269//269 96//96 473//473
f 35//35 34//34 355//355
f 35//35 355//355 364//364
f 275//275 19//19 234//234
f 35//35 364//364 20//20
f 364//364 19//19 363//363
f 364//364 363//363 20//20
f 364//364 355//355 19//19
f 19//19 275//275 276//276
f 275//275 234//234 276//276
f 363//363 19//19 276//276
f 20//20 363//363 77//77
f 77//77 363//363 575//575
f 21//21 375//375 365//365
f 371//371 21//21 365//365
f 366//366 21//21 371//371
f 380//380 87//87 375//375
f 87//87 241//241 365//365
f 87//87 365//365 375//375
f 279//279 280//280 278//278
f 278//278 555//555 575//575
f 280//280 555//555 278//278
f 280//280 279//279 78//78
f 280//280 378//378 555//555
f 78//78 378//378 280//280
f 79//79 248//248 249//249
f 79//79 249//249 247//247
f 281//281 248//248 79//79
f 279//279 281//281 78//78
f 282//282 378//378 78//78
f 79//79 282//282 281//281
f 281//281 282//282 78//78
f 376//376 381//381 285//285
f 380//380 381//381 376//376
f 14//14 283//283 79//79
f 79//79 283//283 284//284
f 14//14 284//284 283//283
f 14//14 289//289 284//284
f 289//289 290//290 284//284
f 284//284 290//290 384//384
f 289//289 23//23 290//290
f 79//79 284//284 384//384
f 22//22 291//291 289//289
f 289//289 24//24 23//23
f 291//291 24//24 289//289
f 22//22 287//287 291//291
f 287//287 81//81 291//291
f 291//291 81//81 292//292
f 294//294 292//292 293//293
f 292//292 294//294 291//291
f 23//23 557//557 290//290
f 557//557 384//384 290//290
f 111//111 24//24 291//291
f 111//111 291//291 294//294
f 111//111 296//296 23//23
f 296//296 557//557 23//23
f 89//89 90//90 384//384
f 388//388 389//389 90//90
f 384//384 557//557 89//89
f 557//557 296//296 385//385
f 89//89 388//388 90//90
f 385//385 89//89 557//557
f 294//294 296//296 111//111
f 295//295 296//296 294//294
f 386//386 299//299 391//391
f 93//93 404//404 82//82
f 93//93 82//82 285//285
f 381//381 93//93 285//285
f 300//300 143//143 303//303
f 300//300 293//293 143//143
f 300//300 297//297 293//293
f 300//300 295//295 298//298
f 298//298 295//295 294//294
f 300//300 298//298 297//297
f 297//297 294//294 293//293
f 298//298 294//294 297//297
f 300//300 302//302 295//295
f 296//296 295//295 385//385
f 302//302 304//304 295//295
f 304//304 305//305 295//295
f 295//295 305//305 385//385
f 305//305 420//420 385//385
f 386//386 388//388 401//401
f 299//299 386//386 309//309
f 309//309 402//402 299//299
f 402//402 403//403 417//417
f 25//25 83//83 112//112
f 559//559 558//558 112//112
f 312//312 112//112 83//83
f 25//25 112//112 405//405
f 112//112 558//558 406//406
f 112//112 406//406 405//405
f 403//403 402//402 412//412
f 402//402 560//560 412//412
f 561//561 412//412 560//560
f 561//561 25//25 412//412
f 93//93 381//381 407//407
f 404//404 408//408 558//558
f 93//93 408//408 404//404
f 407//407 408//408 93//93
f 301//301 300//300 303//303
f 301//301 303//303 304//304
f 304//304 303//303 307//307
f 304//304 307//307 84//84
f 301//301 304//304 302//302
f 301//301 302//302 300//300
f 305//305 304//304 84//84
f 305//305 84//84 306//306
f 303//303 84//84 307//307
f 306//306 421//421 305//305
f 421//421 306//306 420//420
f 421//421 420//420 305//305
f 424//424 420//420 308//308
f 424//424 425//425 420//420
f 308//308 306//306 26//26
f 420//420 306//306 308//308
f 386//386 401//401 424//424
f 386//386 424//424 309//309
f 308//308 26//26 424//424
f 402//402 309//309 310//310
f 309//309 424//424 316//316
f 309//309 316//316 310//310
f 402//402 310//310 313//313
f 310//310 314//314 313//313
f 313//313 326//326 312//312
f 314//314 326//326 313//313
f 314//314 310//310 323//323
f 314//314 323//323 322//322
f 323//323 310//310 322//322
f 325//325 314//314 322//322
f 326//326 314//314 325//325
f 327//327 312//312 326//326
f 326//326 325//325 328//328
f 28//28 321//321 329//329
f 321//321 27//27 327//327
f 321//321 327//327 329//329
f 327//327 326//326 329//329
f 322//322 310//310 324//324
f 324//324 316//316 26//26
f 324//324 310//310 316//316
f 26//26 316//316 424//424
f 559//559 112//112 327//327
f 559//559 327//327 558//558
f 112//112 312//312 327//327
f 558//558 327//327 27//27
f 560//560 313//313 561//561
f 560//560 402//402 313//313
f 561//561 313//313 312//312
f 318//318 315//315 84//84
f 257//257 319//319 315//315
f 259//259 318//318 84//84
f 315//315 318//318 259//259
f 317//317 26//26 306//306
f 315//315 317//317 84//84
f 317//317 306//306 84//84
f 317//317 320//320 26//26
f 315//315 319//319 317//317
f 319//319 320//320 317//317
f 328//328 319//319 329//329
f 329//329 319//319 28//28
f 328//328 329//329 326//326
f 325//325 322//322 328//328
f 328//328 330//330 319//319
f 322//322 330//330 328//328
f 26//26 320//320 324//324
f 320//320 319//319 330//330
f 324//324 330//330 322//322
f 320//320 330//330 324//324
f 335//335 336//336 95//95
f 335//335 334//334 336//336
f 426//426 428//428 265//265
f 265//265 331//331 426//426
f 331//331 427//427 426//426
f 331//331 265//265 332//332
f 332//332 333//333 331//331
f 333//333 95//95 562//562
f 333//333 562//562 331//331
f 427//427 94//94 426//426
f 95//95 563//563 562//562
f 563//563 430//430 427//427
f 563//563 427//427 562//562
f 562//562 427//427 331//331
f 428//428 431//431 544//544
f 428//428 577//577 434//434
f 544//544 431//431 526//526
f 428//428 434//434 431//431
f 53//53 530//530 528//528
f 530//530 529//529 528//528
f 530//530 448//448 529//529
f 448//448 446//446 529//529
f 553//553 334//334 552//552
f 454//454 334//334 553//553
f 473//473 96//96 101//101
f 96//96 445//445 101//101
f 341//341 338//338 31//31
f 341//341 564//564 99//99
f 99//99 564//564 56//56
f 341//341 565//565 564//564
f 339//339 346//346 342//342
f 98//98 56//56 33//33
f 457//457 338//338 341//341
f 99//99 56//56 98//98
f 99//99 98//98 463//463
f 339//339 338//338 457//457
f 338//338 342//342 31//31
f 339//339 342//342 338//338
f 29//29 454//454 455//455
f 453//453 454//454 452//452
f 455//455 452//452 273//273
f 453//453 452//452 455//455
f 455//455 454//454 453//453
f 455//455 352//352 29//29
f 454//454 29//29 580//580
f 345//345 30//30 32//32
f 568//568 30//30 340//340
f 30//30 568//568 566//566
f 340//340 30//30 345//345
f 340//340 345//345 29//29
f 345//345 346//346 349//349
f 348//348 467//467 345//345
f 348//348 345//345 349//349
f 339//339 349//349 346//346
f 348//348 349//349 339//339
f 594//594 467//467 591//591
f 592//592 467//467 594//594
f 592//592 594//594 595//595
f 339//339 465//465 348//348
f 465//465 468//468 348//348
f 348//348 468//468 467//467
f 467//467 592//592 345//345
f 345//345 592//592 29//29
f 595//595 29//29 592//592
f 567//567 565//565 341//341
f 566//566 565//565 567//567
f 346//346 345//345 344//344
f 346//346 344//344 342//342
f 345//345 32//32 344//344
f 344//344 32//32 343//343
f 342//342 343//343 31//31
f 344//344 343//343 342//342
f 564//564 565//565 566//566
f 347//347 566//566 568//568
f 566//566 567//567 30//30
f 56//56 564//564 347//347
f 564//564 566//566 347//347
f 347//347 569//569 56//56
f 347//347 568//568 569//569
f 455//455 350//350 352//352
f 350//350 351//351 354//354
f 350//350 354//354 352//352
f 351//351 76//76 354//354
f 76//76 19//19 355//355
f 356//356 355//355 34//34
f 76//76 355//355 354//354
f 354//354 355//355 356//356
f 29//29 353//353 340//340
f 352//352 353//353 29//29
f 352//352 356//356 340//340
f 353//353 352//352 340//340
f 34//34 572//572 356//356
f 354//354 356//356 352//352
f 356//356 572//572 340//340
f 358//358 340//340 572//572
f 357//357 568//568 340//340
f 357//357 340//340 358//358
f 357//357 570//570 568//568
f 570//570 569//569 568//568
f 56//56 569//569 113//113
f 569//569 570//570 360//360
f 570//570 357//357 360//360
f 113//113 360//360 359//359
f 360//360 358//358 359//359
f 569//569 360//360 113//113
f 357//357 358//358 360//360
f 472//472 86//86 13//13
f 474//474 86//86 472//472
f 101//101 474//474 473//473
f 473//473 474//474 472//472
f 474//474 371//371 86//86
f 368//368 371//371 474//474
f 86//86 365//365 240//240
f 371//371 365//365 86//86
f 371//371 368//368 370//370
f 474//474 101//101 479//479
f 474//474 479//479 362//362
f 369//369 370//370 368//368
f 483//483 362//362 479//479
f 483//483 368//368 362//362
f 362//362 368//368 474//474
f 488//488 368//368 483//483
f 571//571 572//572 34//34
f 574//574 572//572 571//571
f 574//574 573//573 572//572
f 573//573 358//358 572//572
f 574//574 358//358 573//573
f 571//571 575//575 574//574
f 358//358 574//574 556//556
f 574//574 575//575 556//556
f 556//556 361//361 358//358
f 486//486 488//488 485//485
f 488//488 370//370 369//369
f 488//488 369//369 368//368
f 370//370 488//488 486//486
f 485//485 361//361 486//486
f 361//361 556//556 370//370
f 370//370 486//486 361//361
f 21//21 366//366 367//367
f 367//367 371//371 370//370
f 366//366 371//371 367//367
f 370//370 374//374 367//367
f 374//374 372//372 367//367
f 367//367 372//372 21//21
f 370//370 373//373 374//374
f 370//370 556//556 373//373
f 575//575 555//555 556//556
f 556//556 555//555 373//373
f 373//373 555//555 374//374
f 36//36 372//372 377//377
f 372//372 378//378 377//377
f 372//372 374//374 555//555
f 372//372 555//555 378//378
f 372//372 375//375 21//21
f 372//372 36//36 375//375
f 375//375 36//36 380//380
f 380//380 382//382 381//381
f 382//382 88//88 381//381
f 36//36 382//382 380//380
f 282//282 79//79 384//384
f 282//282 384//384 379//379
f 379//379 384//384 90//90
f 282//282 379//379 378//378
f 377//377 378//378 36//36
f 379//379 90//90 378//378
f 382//382 36//36 88//88
f 88//88 92//92 381//381
f 92//92 88//88 36//36
f 378//378 90//90 383//383
f 378//378 383//383 36//36
f 389//389 390//390 90//90
f 90//90 91//91 92//92
f 390//390 91//91 90//90
f 36//36 383//383 92//92
f 383//383 90//90 92//92
f 388//388 89//89 385//385
f 386//386 389//389 387//387
f 386//386 387//387 388//388
f 389//389 388//388 387//387
f 389//389 392//392 390//390
f 389//389 393//393 392//392
f 392//392 393//393 390//390
f 390//390 393//393 394//394
f 393//393 389//389 386//386
f 393//393 386//386 391//391
f 391//391 395//395 393//393
f 393//393 395//395 394//394
f 91//91 390//390 37//37
f 395//395 391//391 299//299
f 394//394 299//299 402//402
f 395//395 299//299 394//394
f 37//37 390//390 394//394
f 37//37 394//394 396//396
f 394//394 402//402 417//417
f 394//394 417//417 414//414
f 414//414 396//396 394//394
f 400//400 92//92 91//91
f 399//399 92//92 400//400
f 381//381 397//397 407//407
f 381//381 92//92 398//398
f 92//92 399//399 398//398
f 400//400 91//91 37//37
f 399//399 400//400 37//37
f 381//381 398//398 397//397
f 398//398 399//399 397//397
f 399//399 415//415 397//397
f 414//414 418//418 415//415
f 37//37 396//396 399//399
f 396//396 416//416 399//399
f 396//396 414//414 416//416
f 416//416 414//414 415//415
f 416//416 415//415 399//399
f 425//425 422//422 420//420
f 422//422 423//423 420//420
f 422//422 388//388 385//385
f 420//420 423//423 385//385
f 422//422 385//385 423//423
f 401//401 388//388 422//422
f 401//401 422//422 425//425
f 401//401 425//425 424//424
f 414//414 417//417 418//418
f 415//415 409//409 397//397
f 409//409 558//558 408//408
f 397//397 408//408 407//407
f 409//409 408//408 397//397
f 415//415 405//405 409//409
f 409//409 406//406 558//558
f 405//405 406//406 409//409
f 418//418 417//417 403//403
f 410//410 418//418 403//403
f 412//412 418//418 410//410
f 411//411 403//403 412//412
f 412//412 410//410 411//411
f 410//410 403//403 411//411
f 25//25 405//405 412//412
f 405//405 413//413 412//412
f 412//412 413//413 418//418
f 415//415 418//418 419//419
f 405//405 419//419 413//413
f 415//415 419//419 405//405
f 419//419 418//418 413//413
f 427//427 429//429 94//94
f 429//429 428//428 426//426
f 429//429 426//426 94//94
f 582//582 95//95 583//583
f 563//563 95//95 582//582
f 114//114 430//430 582//582
f 430//430 563//563 582//582
f 114//114 582//582 583//583
f 430//430 429//429 427//427
f 430//430 576//576 578//578
f 429//429 578//578 428//428
f 430//430 578//578 429//429
f 576//576 577//577 578//578
f 577//577 428//428 578//578
f 334//334 454//454 336//336
f 454//454 432//432 433//433
f 454//454 433//433 336//336
f 433//433 38//38 95//95
f 432//432 38//38 433//433
f 433//433 95//95 336//336
f 454//454 580//580 432//432
f 432//432 57//57 38//38
f 580//580 57//57 432//432
f 431//431 434//434 526//526
f 435//435 434//434 577//577
f 40//40 437//437 438//438
f 40//40 39//39 435//435
f 40//40 435//435 437//437
f 438//438 435//435 577//577
f 437//437 435//435 438//438
f 115//115 58//58 584//584
f 584//584 587//587 436//436
f 115//115 584//584 436//436
f 115//115 439//439 42//42
f 57//57 579//579 581//581
f 579//579 41//41 581//581
f 115//115 458//458 439//439
f 458//458 461//461 439//439
f 458//458 462//462 461//461
f 462//462 99//99 461//461
f 58//58 116//116 587//587
f 58//58 587//587 584//584
f 116//116 588//588 587//587
f 588//588 586//586 587//587
f 41//41 462//462 588//588
f 462//462 586//586 588//588
f 462//462 458//458 586//586
f 458//458 115//115 436//436
f 458//458 436//436 586//586
f 586//586 436//436 587//587
f 116//116 57//57 581//581
f 581//581 41//41 588//588
f 116//116 581//581 588//588
f 526//526 440//440 530//530
f 440//440 448//448 530//530
f 590//590 59//59 589//589
f 590//590 589//589 585//585
f 39//39 434//434 435//435
f 39//39 42//42 434//434
f 434//434 440//440 526//526
f 117//117 118//118 590//590
f 118//118 59//59 590//590
f 117//117 590//590 585//585
f 440//440 434//434 104//104
f 434//434 42//42 442//442
f 434//434 442//442 104//104
f 442//442 494//494 444//444
f 442//442 444//444 104//104
f 444//444 450//450 104//104
f 104//104 448//448 440//440
f 461//461 443//443 439//439
f 443//443 494//494 442//442
f 439//439 442//442 42//42
f 443//443 442//442 439//439
f 441//441 494//494 443//443
f 441//441 443//443 461//461
f 494//494 441//441 103//103
f 445//445 551//551 43//43
f 551//551 447//447 43//43
f 447//447 446//446 43//43
f 449//449 43//43 446//446
f 449//449 446//446 448//448
f 448//448 104//104 449//449
f 43//43 449//449 495//495
f 449//449 104//104 495//495
f 500//500 495//495 45//45
f 43//43 495//495 500//500
f 29//29 595//595 580//580
f 595//595 97//97 580//580
f 57//57 580//580 579//579
f 580//580 97//97 579//579
f 593//593 464//464 456//456
f 456//456 462//462 41//41
f 464//464 462//462 456//456
f 468//468 464//464 593//593
f 468//468 465//465 464//464
f 465//465 466//466 464//464
f 465//465 339//339 466//466
f 464//464 339//339 457//457
f 466//466 339//339 464//464
f 341//341 99//99 457//457
f 99//99 460//460 457//457
f 99//99 462//462 460//460
f 457//457 462//462 464//464
f 460//460 462//462 457//457
f 98//98 459//459 463//463
f 463//463 461//461 99//99
f 459//459 461//461 463//463
f 441//441 461//461 459//459
f 593//593 456//456 97//97
f 456//456 579//579 97//97
f 456//456 41//41 579//579
f 98//98 499//499 470//470
f 459//459 98//98 470//470
f 459//459 470//470 441//441
f 441//441 470//470 103//103
f 494//494 103//103 105//105
f 470//470 499//499 103//103
f 103//103 499//499 105//105
f 100//100 101//101 445//445
f 43//43 100//100 445//445
f 100//100 43//43 500//500
f 100//100 500//500 496//496
f 97//97 594//594 593//593
f 97//97 595//595 594//594
f 593//593 594//594 591//591
f 469//469 98//98 33//33
f 499//499 98//98 469//469
f 359//359 469//469 33//33
f 499//499 469//469 476//476
f 469//469 359//359 475//475
f 469//469 475//475 476//476
f 501//501 499//499 44//44
f 471//471 47//47 478//478
f 100//100 478//478 101//101
f 471//471 478//478 100//100
f 499//499 476//476 44//44
f 358//358 475//475 359//359
f 44//44 475//475 361//361
f 361//361 475//475 358//358
f 476//476 475//475 44//44
f 44//44 361//361 477//477
f 477//477 502//502 44//44
f 44//44 502//502 501//501
f 477//477 501//501 502//502
f 478//478 479//479 101//101
f 479//479 491//491 482//482
f 47//47 480//480 491//491
f 478//478 491//491 479//479
f 47//47 491//491 478//478
f 596//596 597//597 480//480
f 361//361 485//485 477//477
f 485//485 487//487 477//477
f 492//492 597//597 489//489
f 501//501 477//477 489//489
f 597//597 596//596 605//605
f 489//489 605//605 501//501
f 597//597 605//605 489//489
f 489//489 477//477 487//487
f 489//489 487//487 492//492
f 483//483 487//487 488//488
f 487//487 485//485 488//488
f 482//482 481//481 479//479
f 483//483 481//481 482//482
f 481//481 483//483 479//479
f 484//484 483//483 482//482
f 480//480 597//597 491//491
f 597//597 492//492 491//491
f 492//492 484//484 491//491
f 490//490 483//483 484//484
f 491//491 484//484 482//482
f 483//483 490//490 487//487
f 490//490 484//484 487//487
f 484//484 492//492 493//493
f 487//487 493//493 492//492
f 484//484 493//493 487//487
f 102//102 444//444 494//494
f 104//104 450//450 102//102
f 450//450 444//444 102//102
f 104//104 102//102 497//497
f 102//102 494//494 497//497
f 494//494 498//498 497//497
f 495//495 497//497 46//46
f 497//497 495//495 104//104
f 497//497 498//498 105//105
f 494//494 105//105 498//498
f 46//46 599//599 495//495
f 599//599 598//598 600//600
f 495//495 598//598 45//45
f 600//600 598//598 495//495
f 599//599 600//600 495//495
f 45//45 47//47 471//471
f 500//500 471//471 496//496
f 496//496 471//471 100//100
f 45//45 471//471 500//500
f 46//46 497//497 602//602
f 497//497 105//105 601//601
f 497//497 601//601 602//602
f 105//105 499//499 601//601
f 499//499 501//501 601//601
f 501//501 603//603 602//602
f 501//501 602//602 601//601
f 603//603 605//605 604//604
f 501//501 605//605 603//603
f 605//605 596//596 604//604
