# decimated by Tools/decimate_anatomy.py from 8352 triangles (BodyParts3D, CC BY 4.0)
v -0.00549215 0.00017798 0.03309981
v -0.00565784 0.00793844 0.03516776
v -0.00501203 0.00711652 0.03976000
v -0.00520323 0.00615461 0.04189567
v -0.00646450 0.01121863 0.04125932
v -0.00586956 0.00673078 0.02899672
v -0.00950258 -0.00805853 0.03986312
v -0.00980252 -0.00748780 0.04388365
v -0.00936114 0.00165283 0.04307780
v -0.00880628 0.00840367 0.04186969
v -0.00867791 0.01033027 0.04201664
v -0.00879451 0.00964491 0.04133911
v -0.00741685 0.01246672 0.04029082
v -0.01000602 -0.00880201 0.03961511
v -0.01125588 -0.00726992 0.03792465
v -0.01186051 -0.00830527 0.03958060
v -0.01134268 -0.00355472 0.03704170
v -0.00942669 -0.00134266 0.03611764
v -0.01014902 -0.00914003 0.04033758
v -0.01165074 -0.00456980 0.04416038
v -0.00988146 0.00850757 0.04192159
v -0.00985008 0.01226076 0.03894779
v -0.01149749 0.00001307 0.04405472
v -0.01519996 -0.00229590 0.03891885
v -0.01509841 0.00243093 0.03463323
v -0.01544705 0.00119189 0.03640052
v -0.01656320 0.00387182 0.04113558
v -0.01506757 0.01080825 0.03808444
v -0.01964410 0.00691127 0.04047436
v -0.00633057 0.01057702 0.03029115
v -0.00575896 0.01122366 0.03178916
v -0.00590102 0.00835724 0.04056244
v -0.00728775 0.00872016 0.02854533
v -0.01024475 -0.00598685 0.04450570
v -0.00544317 0.00307799 0.04220008
v -0.00840070 0.00968986 0.04150536
v -0.00980962 0.00908868 0.04151848
v -0.00836422 0.00965946 0.04155960
v -0.00745498 0.01229199 0.04067864
v -0.00812035 0.00981486 0.04203144
v -0.01079304 -0.00360608 0.04389778
v -0.01142709 -0.00494127 0.04430003
v -0.01119971 -0.00178400 0.04369910
v -0.00998380 0.01226160 0.03907337
v -0.01045404 0.00975236 0.02997467
v -0.01344797 -0.00163394 0.04356178
v -0.01535966 0.00020250 0.03699635
v -0.01577295 0.00099875 0.03685072
v -0.01545169 0.00069941 0.03688463
v -0.01585488 0.00121765 0.03667224
v -0.01349648 0.01161809 0.04142351
v -0.01768422 0.00694003 0.03305044
v -0.01838531 0.00822124 0.04218535
v -0.00538843 0.00868782 0.03023603
v -0.00591132 0.00750330 0.03474915
v -0.00598854 0.00750004 0.03454226
v -0.00503160 0.00740455 0.03976812
v -0.00608630 0.00805691 0.04207290
v -0.00588989 0.01154056 0.03939571
v -0.00721398 -0.00042619 0.02855799
v -0.00707719 0.00130076 0.02718899
v -0.00768453 0.00144092 0.02694347
v -0.00558790 0.00811175 0.02937536
v -0.00907557 -0.00740428 0.04315510
v -0.00572875 0.00057856 0.03716611
v -0.00820555 0.00876580 0.04205875
v -0.01000267 -0.00478718 0.04083128
v -0.01086149 -0.00755323 0.03834249
v -0.00983526 -0.00182604 0.03739460
v -0.01090242 -0.00251374 0.03666952
v -0.00992170 -0.00192599 0.03738805
v -0.01010833 -0.00810759 0.04324545
v -0.01211188 -0.00691586 0.04228203
v -0.00987881 -0.00301169 0.04236237
v -0.00767035 0.01243786 0.04039868
v -0.00968668 0.01211835 0.04040629
v -0.01082181 0.01209110 0.04002053
v -0.01187248 0.01113446 0.03388852
v -0.01429673 0.00095008 0.03477318
v -0.01091434 0.00142498 0.04375548
v -0.01633145 0.01025432 0.04122461
v -0.01967672 0.00527291 0.03903927
v -0.01475814 -0.00156304 0.04270342
v -0.01806798 0.00813486 0.03580636
v -0.01838214 0.00650194 0.04191063
v -0.00583646 0.01134998 0.03501089
v -0.00696787 0.01250967 0.03776392
v -0.00578790 0.00997407 0.04025485
v -0.00512005 0.00469897 0.04200136
v -0.00525492 0.00431956 0.04191994
v -0.00673119 0.01014031 0.04219601
v -0.00588560 0.00862353 0.04194814
v -0.00633012 0.01163578 0.04054862
v -0.00565342 0.01132190 0.03580030
v -0.00762293 0.00364823 0.02703624
v -0.00873062 0.00976249 0.04142687
v -0.00875586 0.00937891 0.04122712
v -0.01137419 -0.00642883 0.03767836
v -0.01010610 -0.00178774 0.03636419
v -0.01051466 -0.00508758 0.04429745
v -0.01577890 0.00141195 0.03631498
v -0.01785874 0.00090042 0.03764394
v -0.01962930 0.00693439 0.04061135
v -0.00552057 0.00944492 0.03041773
v -0.00585803 0.00779497 0.03306274
v -0.00512248 0.00462044 0.03414279
v -0.00561656 0.00658831 0.03030210
v -0.00580609 0.00687394 0.03433245
v -0.00583844 0.00744836 0.03326271
v -0.00516987 0.00989033 0.03146984
v -0.00601972 0.00927083 0.03316973
v -0.00532427 0.00919628 0.03083626
v -0.00524367 0.01072293 0.03201000
v -0.00523495 0.01059348 0.03199274
v -0.00554273 0.01043348 0.03337424
v -0.00532360 0.01079899 0.03246897
v -0.00554485 0.01081949 0.03316746
v -0.00504467 0.00624487 0.03732926
v -0.00557949 0.01049739 0.03371233
v -0.00544587 0.01004657 0.03451371
v -0.00577563 0.01097906 0.03415010
v -0.00481444 0.00239444 0.03420888
v -0.00523079 0.00721251 0.03824645
v -0.00536127 0.00980642 0.03686830
v -0.00554635 0.01128144 0.03601586
v -0.00546834 0.00297180 0.04216781
v -0.00527606 0.00574074 0.04188700
v -0.00456027 0.00575051 0.04027660
v -0.00593569 0.00839347 0.04063587
v -0.00513556 0.00766704 0.04004761
v -0.00620519 0.01006780 0.04094907
v -0.00594460 0.00853046 0.04134421
v -0.00587836 0.01177060 0.03873921
v -0.00729548 -0.00001512 0.02776216
v -0.00693303 0.00030138 0.02800602
v -0.00725860 0.00037266 0.02743003
v -0.00795459 0.00018209 0.02750270
v -0.00725977 0.00100972 0.02707133
v -0.00772564 0.00069360 0.02716147
v -0.00710737 0.00495116 0.02747713
v -0.00576688 0.00686263 0.02925967
v -0.00730220 0.00892387 0.02865579
v -0.00590383 0.00889538 0.02894303
v -0.00638167 0.01048978 0.03015298
v -0.00626695 0.00857019 0.03356979
v -0.00627992 0.00828919 0.03384601
v -0.00591682 0.00842155 0.03464476
v -0.00621880 0.00879397 0.03398961
v -0.00592835 0.00863736 0.03449456
v -0.00627372 0.00797319 0.03423827
v -0.00598046 0.01131447 0.03432168
v -0.00597818 0.01136494 0.03242788
v -0.00606544 0.01138951 0.03411576
v -0.00671318 0.01165013 0.03414534
v -0.00898469 -0.00811455 0.04140887
v -0.00914394 -0.00825198 0.04257704
v -0.00909056 -0.00814185 0.04264002
v -0.00892766 -0.00801583 0.04201753
v -0.00894397 -0.00776539 0.04256332
v -0.00903235 -0.00817684 0.04115055
v -0.00905781 -0.00842299 0.04163174
v -0.00894751 -0.00751771 0.04268891
v -0.00901731 -0.00813830 0.04118908
v -0.00901103 -0.00754149 0.04137646
v -0.00900171 -0.00738811 0.04150062
v -0.00699402 0.01183967 0.03492411
v -0.00942957 -0.00764885 0.04353313
v -0.00912476 -0.00794536 0.04295059
v -0.00945477 -0.00872553 0.04209897
v -0.00984077 -0.00839110 0.04302543
v -0.00934901 -0.00564973 0.04217005
v -0.00942016 -0.00677993 0.04379545
v -0.00938327 -0.00693936 0.04375639
v -0.00984942 -0.00717641 0.04402673
v -0.00982895 -0.00597725 0.04425778
v -0.01016614 -0.00385902 0.04326312
v -0.00954429 -0.00548751 0.04295755
v -0.00979770 -0.00566536 0.04409341
v -0.00972864 0.00025873 0.04312135
v -0.00618012 0.00255745 0.04224271
v -0.00871130 0.00134507 0.04288170
v -0.00939689 -0.00084024 0.04093422
v -0.00867717 0.00935776 0.04126115
v -0.00885542 0.00806752 0.04209586
v -0.00817527 0.00894381 0.04206341
v -0.00795943 0.00947474 0.04209005
v -0.00872109 0.01012160 0.04180815
v -0.00903774 -0.00032854 0.02931208
v -0.00870636 0.00112765 0.02738689
v -0.00785780 0.00264747 0.02687419
v -0.00900206 0.00828681 0.02891554
v -0.00855082 -0.00105916 0.03330248
v -0.01068641 -0.00857405 0.03887358
v -0.01078411 -0.00893695 0.03947037
v -0.00985001 -0.00721032 0.03943359
v -0.01056525 -0.00472462 0.03864043
v -0.01104895 -0.00797057 0.03831778
v -0.01132300 -0.00794775 0.03831674
v -0.01154797 -0.00824369 0.03902475
v -0.01197086 -0.00793055 0.03904359
v -0.01072771 -0.00355921 0.03795330
v -0.00888933 -0.00116974 0.03395607
v -0.01079987 -0.00131654 0.03548267
v -0.00959458 -0.00143798 0.03687089
v -0.01013952 -0.00246858 0.03761712
v -0.01048099 -0.00914483 0.04016783
v -0.00989939 -0.00898638 0.04148226
v -0.01026999 -0.00874111 0.04214417
v -0.01049906 -0.00916251 0.04057626
v -0.01057537 -0.00903866 0.04126095
v -0.01091314 -0.00890860 0.04120577
v -0.01034626 -0.00828162 0.04281113
v -0.01093161 -0.00844398 0.04209034
v -0.01097065 -0.00900069 0.04037434
v -0.01147378 -0.00862706 0.03992811
v -0.01136822 -0.00861062 0.04083029
v -0.01126642 -0.00874644 0.04052024
v -0.01115800 -0.00813485 0.04224585
v -0.01092089 -0.00776200 0.04291771
v -0.01038742 -0.00455983 0.04409540
v -0.01052687 -0.00384850 0.04382743
v -0.01155051 -0.00555031 0.04418520
v -0.01214103 -0.00496538 0.04378123
v -0.01114532 -0.00708613 0.04335915
v -0.01214224 -0.00598760 0.04301024
v -0.01042498 -0.00360754 0.04355441
v -0.00980580 -0.00345044 0.04205484
v -0.01068418 -0.00333576 0.04373919
v -0.01174001 -0.00401204 0.04399541
v -0.01056193 -0.00189766 0.04338464
v -0.01105334 -0.00253761 0.04369416
v -0.01195974 -0.00378938 0.04380769
v -0.01220708 -0.00317861 0.04345707
v -0.01232913 -0.00248802 0.04338828
v -0.00967687 0.00081011 0.04350344
v -0.00940707 0.00082670 0.04318957
v -0.01040179 -0.00115665 0.04352067
v -0.01088602 -0.00097843 0.04389807
v -0.01036165 0.00890281 0.04189352
v -0.00998385 0.01202743 0.04101444
v -0.00992331 0.01206431 0.04059122
v -0.01026951 0.01190606 0.04015461
v -0.00926802 0.01013904 0.04188862
v -0.01052466 0.00992338 0.04189373
v -0.01051170 0.00987194 0.04187842
v -0.01028420 0.01190614 0.04003048
v -0.01035686 0.01191269 0.04008999
v -0.01063515 0.01213795 0.03972551
v -0.01068302 0.01201786 0.04034570
v -0.01037525 0.01200125 0.04080932
v -0.01028169 0.01196431 0.04060107
v -0.01067702 0.01201355 0.04048333
v -0.01113613 0.01212009 0.04017787
v -0.01066422 0.01201146 0.04071656
v -0.00985239 0.01201389 0.04017532
v -0.00695535 0.01252385 0.03997845
v -0.00944707 0.01223004 0.04014303
v -0.00974175 0.01229107 0.03897282
v -0.01059910 0.01214490 0.03966859
v -0.00984470 0.01225307 0.03897694
v -0.01144196 -0.00058336 0.04416823
v -0.01154029 -0.00016814 0.04409005
v -0.00995655 0.01173649 0.04166971
v -0.01054558 0.01193575 0.04140331
v -0.01061972 0.01198168 0.04102615
v -0.01125602 0.01207570 0.04065158
v -0.01146725 0.00619640 0.02979305
v -0.01212396 0.00491395 0.03025673
v -0.01252766 0.00519946 0.03066187
v -0.01358136 0.00609973 0.03120991
v -0.00699592 0.01077576 0.03069793
v -0.00970026 0.00979777 0.03016017
v -0.01209283 0.01081741 0.03198597
v -0.00862029 0.01202469 0.03598392
v -0.01023067 0.01205668 0.03788762
v -0.01294230 0.01028636 0.03104987
v -0.01283602 0.01039854 0.03124800
v -0.01230768 -0.00698516 0.03801327
v -0.01326878 -0.00628461 0.03900942
v -0.01304805 -0.00395872 0.03712127
v -0.01337477 -0.00573794 0.03834417
v -0.01435639 -0.00144577 0.03726315
v -0.00841609 -0.00092344 0.03169672
v -0.01434402 0.00007354 0.03566836
v -0.01454922 -0.00378980 0.03947104
v -0.01446370 -0.00404075 0.03917178
v -0.01468254 -0.00360736 0.03926343
v -0.01431001 -0.00331850 0.03832560
v -0.01281466 -0.00433425 0.04285971
v -0.01372478 -0.00374794 0.04162253
v -0.01377306 -0.00294723 0.04205637
v -0.01254952 0.00665982 0.04225721
v -0.01054501 0.00277751 0.04307418
v -0.00911857 0.00825761 0.04203007
v -0.01058783 0.00907679 0.04194984
v -0.01247844 0.00911787 0.04213988
v -0.01155600 0.00018065 0.04399627
v -0.01311160 0.00613740 0.04217685
v -0.01260510 0.01187395 0.04083263
v -0.01302144 0.01181621 0.04118985
v -0.01183389 0.00762373 0.03008315
v -0.01085327 0.00857357 0.02968710
v -0.01225121 0.00784200 0.03023833
v -0.01478572 0.00924625 0.03134865
v -0.01498702 0.00022212 0.03632350
v -0.01512487 0.00034378 0.03639658
v -0.01450344 0.00156617 0.03452231
v -0.01511848 0.00053727 0.03623805
v -0.01507506 0.00039664 0.03628546
v -0.01527598 0.00080736 0.03652770
v -0.01595782 0.00041758 0.03700071
v -0.01523084 0.00236370 0.03480668
v -0.01710533 0.00191790 0.03616670
v -0.01672461 0.00173114 0.03624908
v -0.01505426 -0.00310634 0.03945919
v -0.01475342 -0.00289097 0.04031879
v -0.01584625 -0.00203291 0.03987445
v -0.01545639 -0.00196692 0.03895698
v -0.01669948 -0.00111336 0.03990324
v -0.01374176 -0.00078698 0.04339690
v -0.01741745 0.00342040 0.04107717
v -0.01802369 0.00417580 0.04101824
v -0.01607310 0.00416546 0.04147596
v -0.01589968 0.00408669 0.04152839
v -0.01655179 0.00483395 0.04145533
v -0.01656207 0.00512709 0.04157701
v -0.01678207 0.00423912 0.04099982
v -0.01727910 0.00478773 0.04118982
v -0.01759417 0.00410215 0.04100974
v -0.01698720 0.00435330 0.04098821
v -0.01259404 0.00682586 0.04224983
v -0.01566001 0.00933275 0.04299488
v -0.01735705 0.00905978 0.04279268
v -0.01620886 0.01039981 0.04066560
v -0.01774142 0.00883331 0.04253176
v -0.01560683 0.01043940 0.04290210
v -0.01513581 0.01051230 0.04283024
v -0.01671955 0.00974787 0.04268203
v -0.01684285 0.00927866 0.04291768
v -0.01539680 0.00833144 0.03154245
v -0.01630878 0.00718755 0.03218678
v -0.01474685 0.00933183 0.03135265
v -0.01863708 0.00354908 0.03576353
v -0.01506433 0.00252536 0.03458177
v -0.01838893 0.00441111 0.03500236
v -0.01379564 0.00610803 0.03135881
v -0.01624036 0.00057429 0.03700550
v -0.01665220 -0.00018253 0.03799853
v -0.01634269 -0.00047029 0.03811931
v -0.01895513 0.00316465 0.03636347
v -0.01757326 0.00145903 0.03691369
v -0.01934178 0.00346005 0.03724304
v -0.01955369 0.00410629 0.03742106
v -0.01858760 0.00643427 0.03513591
v -0.01737302 0.00811812 0.03365690
v -0.01795532 0.00836375 0.03581691
v -0.01680059 -0.00089580 0.04015561
v -0.01837587 0.00265591 0.04037463
v -0.01933676 0.00402605 0.03989889
v -0.01813277 0.00164201 0.03996307
v -0.01851626 0.00818823 0.04130804
v -0.01866978 0.00708468 0.04210820
v -0.01605400 0.00509940 0.04162571
v -0.01902970 0.00422040 0.04041673
v -0.01934472 0.00662321 0.04157667
v -0.01817462 0.00759880 0.04232226
v -0.01926520 0.00678722 0.04169606
v -0.01870190 0.00757395 0.04219405
v -0.01907583 0.00747702 0.04185860
v -0.01916560 0.00713633 0.04177468
v -0.01854923 0.00774186 0.04227946
v -0.00528120 0.01025989 0.03094946
v -0.00526655 0.01086308 0.03222988
v -0.00593068 0.01132325 0.03194871
v -0.00788937 -0.00084115 0.03319091
v -0.00915444 -0.00125116 0.03536737
v -0.00940544 -0.00120376 0.04048386
v -0.00678294 -0.00008845 0.03738781
v -0.00522676 0.00782520 0.04000612
v -0.00514102 0.00432554 0.04173835
v -0.00523010 0.00696455 0.04150515
v -0.00588840 0.00862070 0.04192633
v -0.00610698 0.00901882 0.04203760
v -0.00578641 0.00996379 0.04026345
v -0.00637899 0.01083039 0.04132099
v -0.00682521 0.01050990 0.04211060
v -0.00649897 0.01126091 0.04131213
v -0.00983959 -0.00748966 0.04388549
v -0.01135925 -0.00610560 0.04408102
v -0.01068359 -0.00590674 0.04438063
v -0.00902028 0.00161870 0.04304132
v -0.00798999 0.00202321 0.04283517
v -0.00824766 0.00882523 0.04202816
v -0.00844307 0.00866475 0.04197512
v -0.01018171 0.00989065 0.04178204
v -0.00824853 0.00881270 0.04203980
v -0.00854269 0.00845912 0.04207532
v -0.00884067 0.00867087 0.04167797
v -0.00820426 0.00907601 0.04203637
v -0.00874902 0.01005281 0.04173753
v -0.00812167 0.00986903 0.04203214
v -0.00741275 0.01153423 0.04192293
v -0.00758351 0.01134730 0.04194224
v -0.01122033 -0.00128496 0.03546992
v -0.01199629 -0.00069556 0.03522706
v -0.01142659 -0.00448556 0.03723072
v -0.01178020 -0.00179243 0.03598290
v -0.01256037 -0.00278011 0.03651891
v -0.01198628 -0.00465930 0.03728436
v -0.00995550 -0.00174880 0.03654018
v -0.01136278 -0.00208856 0.03619217
v -0.01136555 -0.00336961 0.03689772
v -0.01094672 -0.00221309 0.03637383
v -0.01161217 -0.00413794 0.04402800
v -0.01085082 -0.00457838 0.04417133
v -0.01034522 -0.00515059 0.04428876
v -0.01062859 -0.00374149 0.04384080
v -0.01079244 -0.00384073 0.04398916
v -0.01205145 -0.00229816 0.04342330
v -0.01244941 -0.00226425 0.04329544
v -0.01217607 -0.00166558 0.04360850
v -0.01264149 -0.00207166 0.04337513
v -0.01457734 -0.00219799 0.04220619
v -0.01098355 0.01206477 0.03908906
v -0.01037680 0.01217923 0.03910743
v -0.01272361 0.01119760 0.04210512
v -0.00997655 0.01121036 0.04180146
v -0.00983697 0.01161023 0.04177128
v -0.00768482 0.01127401 0.04195029
v -0.00872395 0.00863015 0.02894009
v -0.01006998 0.00915291 0.02959833
v -0.01157276 -0.00069888 0.04411854
v -0.01363775 -0.00135705 0.04345540
v -0.01293287 -0.00201803 0.04335169
v -0.01364288 -0.00168034 0.04344989
v -0.00973332 0.01168095 0.04173746
v -0.01051861 0.01191637 0.04146979
v -0.01376571 0.01032483 0.03193631
v -0.01579398 0.00912792 0.03284800
v -0.01551250 0.00129160 0.03631003
v -0.01575419 0.00123613 0.03667261
v -0.01581031 0.00128943 0.03654990
v -0.01581073 0.00093137 0.03687567
v -0.01625070 0.00066391 0.03694675
v -0.01619530 0.00068642 0.03695405
v -0.01560636 0.00127838 0.03640287
v -0.01554675 0.00130644 0.03665011
v -0.01548155 0.00121411 0.03651801
v -0.01471939 -0.00210243 0.04222832
v -0.01589284 -0.00166185 0.04118623
v -0.01595511 -0.00150153 0.04166382
v -0.01593664 -0.00141903 0.04185072
v -0.01588293 0.01050909 0.04135678
v -0.01586880 0.01030759 0.04278377
v -0.01688022 0.00971897 0.04207686
v -0.01261355 0.01133981 0.04204850
v -0.01164678 0.01193010 0.04128820
v -0.01714106 0.00806117 0.03285057
v -0.01586684 0.00863720 0.03187135
v -0.01735580 0.00756738 0.03256794
v -0.01837162 0.00578037 0.03405349
v -0.01938073 0.00456453 0.03669505
v -0.01918789 0.00421580 0.03638093
v -0.01917902 0.00502622 0.03610539
v -0.01748552 0.00758914 0.03305856
v -0.01806297 0.00117720 0.03754813
v -0.01925745 0.00327728 0.03740391
v -0.01893569 0.00777370 0.04143566
v -0.01822024 0.00834542 0.04012779
v -0.01790585 0.00872077 0.04073941
v -0.01915804 0.00740320 0.04171707
v -0.01910448 0.00752540 0.04140955
vn 0.833763 -0.550428 -0.043225
vn 0.969074 -0.044749 -0.242679
vn 0.936803 0.349703 0.010421
vn 0.012683 -0.066214 0.997725
vn 0.883970 0.206946 0.419249
vn 0.925673 -0.087576 -0.368050
vn 0.905663 0.126275 -0.404758
vn -0.162466 -0.436791 0.884770
vn 0.255469 0.278103 0.925956
vn -0.556995 0.510305 0.655245
vn -0.106493 -0.732714 0.672153
vn 0.200985 -0.406485 0.891277
vn 0.321093 0.719974 0.615253
vn 0.704928 -0.521582 -0.480654
vn 0.636212 -0.191126 -0.747466
vn -0.811478 -0.575013 0.104229
vn 0.788789 -0.279794 -0.547291
vn 0.105660 -0.992507 -0.061361
vn 0.525533 -0.844470 -0.103372
vn -0.497677 0.093931 0.862261
vn 0.034010 0.269224 0.962477
vn -0.153987 0.983626 -0.093633
vn -0.027120 0.215645 0.976095
vn -0.771428 -0.497974 -0.396132
vn -0.767771 -0.408632 -0.493505
vn -0.856613 -0.342065 -0.386273
vn -0.360576 0.176459 0.915886
vn -0.406546 0.903755 -0.133969
vn -0.976161 0.172330 -0.131954
vn 0.071184 0.890449 -0.449482
vn 0.566068 0.824271 0.011963
vn 0.785174 0.058720 0.616485
vn -0.302331 0.298805 -0.905158
vn -0.276840 -0.170345 0.945697
vn 0.168416 0.177190 0.969660
vn -0.388657 -0.675096 0.627050
vn 0.305003 0.251044 0.918668
vn -0.800958 0.204204 0.562821
vn -0.008249 0.884189 0.467056
vn -0.069132 0.084359 0.994034
vn 0.053733 0.240485 0.969164
vn 0.022664 0.302015 0.953034
vn 0.007823 -0.176129 0.984336
vn -0.194072 0.975560 -0.103046
vn -0.296250 0.369481 -0.880749
vn -0.418989 0.060888 0.905948
vn -0.564703 -0.403164 -0.720117
vn 0.162506 -0.507736 -0.846047
vn -0.102187 -0.224842 -0.969022
vn 0.098899 -0.497836 -0.861614
vn -0.389025 0.918032 0.076658
vn -0.596638 -0.191400 -0.779352
vn -0.730035 0.653453 0.200120
vn 0.975430 -0.219938 -0.012750
vn 0.955734 0.187403 -0.226831
vn 0.912782 0.396653 0.097446
vn 0.989142 0.139901 0.045008
vn 0.011183 -0.064396 0.997862
vn 0.961791 0.228607 0.150653
vn 0.522022 -0.846231 -0.106705
vn 0.917999 -0.074665 -0.389490
vn -0.224251 -0.196770 -0.954459
vn 0.994050 -0.047224 -0.098151
vn 0.945213 0.174995 0.275590
vn 0.795465 -0.563224 0.223636
vn 0.009374 -0.046556 0.998872
vn 0.943431 0.181412 -0.277539
vn 0.776345 -0.084977 -0.624554
vn 0.829800 -0.543402 -0.127069
vn 0.690589 -0.489229 -0.532674
vn 0.676271 -0.576088 -0.459109
vn -0.387901 -0.630992 0.671850
vn -0.830141 -0.474180 0.293291
vn 0.970354 -0.222356 0.094719
vn -0.085778 0.970885 0.223663
vn -0.390781 0.917339 -0.076022
vn 0.145013 0.969237 0.198872
vn -0.252746 0.958905 -0.128920
vn -0.542662 -0.731399 -0.413005
vn 0.070201 0.268266 0.960784
vn -0.421428 0.905155 0.055621
vn -0.987837 0.134094 -0.078717
vn -0.567701 -0.033963 0.822534
vn -0.930810 0.298814 -0.210483
vn -0.080768 -0.381447 0.920856
vn 0.476486 0.875369 -0.081795
vn 0.391457 0.916522 -0.082150
vn 0.938735 0.226426 0.259822
vn 0.176975 0.102244 0.978890
vn 0.787256 0.094217 0.609385
vn -0.048153 0.012016 0.998768
vn 0.977077 0.155292 -0.145621
vn 0.751493 0.655597 0.073825
vn 0.628369 0.777018 -0.037355
vn -0.068992 0.277082 -0.958366
vn -0.005536 -0.676084 0.736804
vn 0.229308 -0.243645 0.942367
vn -0.131993 -0.265576 -0.955012
vn 0.566355 -0.821280 -0.068854
vn 0.045428 0.268325 0.962257
vn -0.249312 -0.783272 -0.569498
vn -0.717204 -0.624416 -0.309391
vn -0.740864 0.669220 -0.057148
vn 0.944637 0.101548 -0.312007
vn 0.987904 0.008525 0.154830
vn 0.976081 0.215235 0.030650
vn 0.985536 -0.001640 -0.169457
vn 0.967524 0.243250 0.068746
vn 0.993204 0.109678 0.038936
vn 0.924433 -0.304802 0.229170
vn 0.939333 -0.203880 0.275838
vn 0.988360 -0.084941 0.126210
vn 0.983909 0.091533 -0.153444
vn 0.983139 -0.041443 0.178099
vn 0.953022 -0.286638 0.097912
vn 0.973833 -0.021868 0.226209
vn 0.965697 0.055122 0.253755
vn 0.965784 0.199655 -0.165528
vn 0.937370 0.346269 0.037894
vn 0.987918 -0.041148 -0.149415
vn 0.928601 0.370326 -0.023655
vn 0.987624 -0.066409 -0.142090
vn 0.991437 0.007745 -0.130358
vn 0.993733 0.109305 -0.023387
vn 0.969490 0.244031 0.023178
vn 0.916332 -0.357460 0.180436
vn 0.070287 0.116287 0.990726
vn 0.991422 -0.110218 0.070248
vn 0.907965 0.414541 0.061282
vn 0.961947 0.237916 0.134362
vn 0.983504 0.177319 -0.035738
vn 0.954811 0.284762 -0.085131
vn 0.741358 0.670104 0.036735
vn -0.020587 -0.937283 -0.347961
vn 0.933438 -0.213368 -0.288389
vn 0.396437 -0.522610 -0.754796
vn -0.595932 -0.583434 -0.551788
vn 0.132258 -0.256248 -0.957520
vn -0.226529 -0.293842 -0.928623
vn 0.425639 0.173386 -0.888127
vn 0.968795 -0.141864 -0.203252
vn 0.122576 0.592302 -0.796337
vn 0.482459 0.376541 -0.790854
vn 0.035186 0.659906 -0.750524
vn 0.951397 -0.010544 0.307785
vn 0.912724 0.300100 0.277263
vn 0.788825 -0.239780 -0.565916
vn 0.907920 -0.350397 -0.230008
vn 0.814363 -0.255962 -0.520861
vn 0.964770 0.136374 -0.224990
vn 0.802887 0.565991 -0.187154
vn 0.484788 0.874606 0.006663
vn 0.570676 0.820456 0.034359
vn 0.045303 0.974407 -0.220179
vn 0.992535 -0.073164 -0.097578
vn 0.675113 -0.681991 0.281266
vn 0.903252 -0.386743 0.185921
vn 0.992634 -0.117768 0.028435
vn 0.939060 -0.236655 0.249321
vn 0.822095 -0.484042 -0.299773
vn 0.728064 -0.682628 -0.062777
vn 0.981955 0.185205 0.038258
vn 0.950368 0.077207 -0.301397
vn 0.934644 0.119623 -0.334859
vn 0.949896 0.233523 -0.207760
vn -0.044887 0.968757 -0.243917
vn 0.498638 -0.457017 0.736543
vn 0.680461 -0.529640 0.506414
vn 0.461908 -0.872533 0.159146
vn 0.073377 -0.855783 0.512105
vn 0.963682 0.239791 -0.117546
vn 0.933282 0.255157 0.252743
vn 0.682114 -0.243265 0.689596
vn 0.307299 -0.195450 0.931325
vn 0.507985 0.021212 0.861105
vn 0.898615 0.294994 0.324761
vn 0.931216 0.290880 0.219604
vn 0.896140 0.293605 0.332760
vn 0.899250 -0.185333 0.396234
vn 0.475657 -0.786128 0.394655
vn 0.589983 -0.698708 0.404633
vn 0.787869 -0.483028 0.382029
vn -0.659040 0.389585 0.643342
vn 0.046814 0.010284 0.998851
vn -0.117334 0.014440 0.992988
vn -0.075118 0.007340 0.997148
vn -0.116294 -0.673728 0.729771
vn -0.395751 -0.876358 -0.274552
vn -0.718336 -0.247529 -0.650171
vn -0.564590 0.027146 -0.824925
vn -0.442185 0.183965 -0.877855
vn 0.074175 -0.993259 -0.089082
vn 0.169265 -0.735742 -0.655770
vn -0.287048 -0.887854 -0.359609
vn 0.886746 0.097095 -0.451944
vn 0.954942 0.001793 -0.296788
vn 0.334808 -0.407415 -0.849657
vn -0.400574 -0.728867 -0.555241
vn -0.526880 -0.747373 -0.404760
vn -0.551303 -0.736694 -0.391595
vn 0.794485 -0.187928 -0.577474
vn 0.098784 -0.992721 -0.068903
vn -0.004803 -0.994806 -0.101676
vn 0.647721 -0.761860 -0.005171
vn 0.911097 -0.347397 -0.221851
vn 0.107229 -0.947745 -0.300470
vn 0.150211 -0.972832 0.176165
vn -0.342223 -0.827027 0.445993
vn -0.130568 -0.990053 0.052416
vn -0.156475 -0.934515 0.319684
vn -0.594906 -0.755389 0.274724
vn -0.396273 -0.766368 0.505616
vn -0.458987 -0.744572 0.484711
vn -0.453649 -0.891147 -0.007764
vn -0.544034 -0.811605 -0.212893
vn -0.787110 -0.564145 0.249398
vn -0.647584 -0.754971 0.103217
vn -0.744619 -0.574732 0.339450
vn -0.522302 -0.608370 0.597567
vn 0.590594 0.341441 0.731175
vn 0.717509 0.365676 0.592842
vn -0.417306 -0.114709 0.901498
vn -0.790847 -0.221660 0.570463
vn -0.661270 -0.538177 0.522578
vn -0.821549 -0.346320 0.452901
vn 0.806383 0.415097 0.421238
vn 0.980094 0.194124 -0.041621
vn 0.784383 0.120273 0.608505
vn -0.215936 0.225470 0.950019
vn 0.663705 -0.060692 0.745528
vn 0.012031 0.186764 0.982331
vn -0.756547 0.070029 0.650179
vn -0.767621 -0.011365 0.640803
vn -0.644665 -0.149392 0.749726
vn 0.303392 0.160332 0.939280
vn 0.717854 -0.531973 0.449100
vn 0.693440 -0.182872 0.696921
vn 0.425158 -0.274262 0.862566
vn 0.209981 0.117629 0.970604
vn -0.087486 0.964602 0.248776
vn -0.267807 0.961757 -0.057473
vn 0.008512 0.996412 -0.084206
vn 0.112780 -0.739769 0.663342
vn 0.028348 0.001734 0.999597
vn 0.180434 -0.000744 0.983587
vn -0.018788 0.956687 0.290513
vn 0.384028 0.908671 0.163828
vn 0.146839 0.969225 0.197590
vn 0.229621 0.964600 0.129694
vn -0.029054 0.999281 0.024373
vn -0.130190 0.985386 -0.109838
vn 0.173481 0.984803 0.008203
vn -0.116072 0.992936 0.024616
vn 0.105879 0.994312 -0.011573
vn -0.355154 0.931468 0.078952
vn 0.068347 0.995926 0.058822
vn -0.188878 0.975835 0.109869
vn -0.095297 0.993496 -0.062325
vn -0.179765 0.983705 -0.002947
vn -0.056246 0.955999 0.287929
vn 0.247300 -0.030405 0.968462
vn -0.336972 0.186141 0.922931
vn -0.006113 0.850924 0.525253
vn -0.020141 0.985401 0.169056
vn 0.066385 0.992969 0.098006
vn 0.023453 0.990703 0.134005
vn -0.520673 0.114408 -0.846056
vn -0.685665 -0.229331 -0.690848
vn -0.667057 -0.258052 -0.698888
vn -0.600938 -0.229091 -0.765762
vn -0.092118 0.918723 -0.384007
vn -0.076557 0.743922 -0.663867
vn -0.138434 0.967615 -0.211085
vn -0.107504 0.981059 -0.161140
vn -0.176579 0.973438 -0.145736
vn -0.344731 0.809130 -0.475888
vn -0.120713 0.825581 -0.551221
vn -0.489335 -0.484729 -0.724975
vn -0.860569 -0.489085 0.142182
vn -0.439971 -0.351086 -0.826537
vn -0.764032 -0.371353 -0.527590
vn -0.570023 -0.474935 -0.670456
vn -0.293109 -0.922787 -0.250103
vn -0.470490 -0.625035 -0.622872
vn -0.824090 -0.478148 0.303729
vn -0.872458 -0.397207 -0.284681
vn -0.846916 -0.480635 -0.227429
vn -0.762391 -0.342199 -0.549236
vn -0.820467 -0.108466 0.561310
vn -0.848089 -0.352447 0.395635
vn -0.782623 -0.028412 0.621847
vn 0.042452 0.038720 0.998348
vn 0.230407 0.298510 0.926177
vn 0.004365 0.329037 0.944307
vn 0.125755 0.034918 0.991447
vn 0.191359 0.035036 0.980895
vn -0.140748 0.256141 0.956338
vn -0.305047 0.179334 0.935300
vn -0.250913 0.959254 -0.129902
vn -0.255492 0.966801 0.004486
vn -0.445081 0.024283 -0.895161
vn -0.367990 0.107210 -0.923628
vn -0.397073 -0.107723 -0.911443
vn -0.362566 0.144234 -0.920729
vn -0.669294 -0.528314 -0.522427
vn -0.778255 -0.460003 -0.427454
vn -0.716557 -0.426387 -0.552033
vn -0.755876 -0.427524 -0.495857
vn -0.881729 -0.344033 -0.322794
vn -0.896093 -0.176957 -0.407066
vn -0.106116 -0.223182 -0.968984
vn -0.368495 -0.608963 -0.702407
vn -0.364167 -0.614458 -0.699874
vn -0.237934 -0.789562 -0.565667
vn -0.803561 -0.595213 0.003302
vn -0.686957 -0.592432 0.420848
vn -0.690558 -0.710994 0.132731
vn -0.670861 -0.540093 -0.508179
vn -0.704707 -0.676712 -0.213189
vn -0.411729 0.133593 0.901461
vn -0.422813 0.070887 0.903440
vn -0.313697 -0.333554 0.889008
vn -0.419572 -0.281784 0.862877
vn -0.359519 0.130764 0.923930
vn -0.538100 -0.277880 0.795758
vn -0.214069 -0.419022 0.882380
vn -0.336722 -0.235866 0.911584
vn -0.076784 -0.431398 0.898888
vn -0.045669 0.131959 0.990203
vn 0.027858 -0.265902 0.963597
vn 0.170649 0.062961 0.983318
vn 0.033932 -0.195931 0.980030
vn -0.531381 0.315540 0.786174
vn -0.648744 0.757890 -0.068805
vn -0.705626 0.629084 0.326106
vn -0.167143 0.335142 0.927223
vn 0.237555 0.048153 0.970180
vn -0.588536 0.690540 0.420453
vn -0.114320 -0.032316 0.992918
vn -0.461566 -0.017152 -0.886940
vn -0.417453 -0.227970 -0.879638
vn -0.442497 0.319019 -0.838107
vn -0.441166 -0.566051 -0.696390
vn -0.631291 -0.321093 -0.705954
vn -0.399390 -0.531769 -0.746800
vn -0.417209 -0.447010 -0.791277
vn -0.433730 -0.591802 -0.679448
vn -0.513362 -0.671400 -0.534492
vn -0.606362 -0.651357 -0.456135
vn -0.824527 -0.386398 -0.413343
vn -0.390085 -0.604324 -0.694713
vn -0.900842 -0.216837 -0.376119
vn -0.990445 -0.126028 -0.056003
vn -0.923254 0.314288 -0.220965
vn -0.667885 0.699338 -0.254669
vn -0.667182 0.731529 -0.140475
vn -0.874439 -0.440292 0.203712
vn -0.669439 -0.170127 0.723124
vn -0.908330 -0.388519 0.154883
vn -0.881073 -0.455597 0.127053
vn -0.683979 0.729234 -0.019749
vn -0.394373 -0.385096 0.834369
vn -0.073851 -0.258454 0.963197
vn -0.710936 -0.318910 0.626790
vn -0.882982 -0.240921 0.402864
vn -0.051083 -0.303380 0.951500
vn -0.562675 -0.119265 0.818030
vn -0.562615 -0.110318 0.819326
vn -0.871682 0.204309 0.445453
vn -0.628562 -0.041423 0.776656
vn -0.493860 0.071879 0.866565
vn 0.833627 0.334989 -0.439145
vn 0.730288 0.677263 0.089413
vn -0.128268 0.955419 -0.265937
vn 0.432769 -0.901401 0.013691
vn 0.399501 -0.915949 0.037892
vn 0.642090 -0.760646 0.095593
vn 0.455744 -0.889604 0.030048
vn 0.680705 0.090667 0.726925
vn 0.943135 -0.090523 0.319846
vn 0.910443 0.277792 0.306472
vn 0.938392 0.204754 0.278381
vn 0.295536 0.041375 0.954435
vn 0.856413 0.138324 0.497416
vn 0.976129 0.217187 0.001717
vn 0.311026 0.674738 0.669321
vn 0.401324 0.677960 0.615881
vn -0.277535 -0.543764 0.792020
vn -0.572888 -0.492199 0.655392
vn -0.283512 -0.391542 0.875395
vn 0.040471 0.438354 0.897891
vn 0.108995 0.207863 0.972066
vn -0.747173 0.290544 0.597760
vn -0.566424 0.505767 0.650663
vn 0.127425 -0.666801 0.734261
vn -0.643428 0.549615 0.532844
vn -0.590630 0.566299 0.574859
vn 0.142444 0.584679 0.798662
vn -0.880145 0.137429 0.454376
vn -0.120088 -0.746630 0.654310
vn -0.470108 -0.665661 0.579564
vn -0.104099 0.118888 0.987436
vn 0.030685 0.072747 0.996878
vn -0.238001 -0.904878 -0.352918
vn -0.432116 -0.681311 -0.590839
vn -0.024440 -0.260377 -0.965198
vn 0.084314 -0.541280 -0.836605
vn -0.396567 -0.359229 -0.844801
vn -0.081492 -0.271503 -0.958981
vn 0.695816 -0.687308 -0.208442
vn 0.026818 -0.525622 -0.850295
vn 0.044459 -0.408155 -0.911829
vn 0.182694 -0.564197 -0.805173
vn -0.014900 0.275195 0.961273
vn 0.004881 0.284836 0.958564
vn 0.172641 0.118810 0.977793
vn 0.497160 0.335203 0.800294
vn 0.506207 0.335018 0.794681
vn -0.238513 0.181704 0.953989
vn -0.509261 -0.606029 0.611050
vn -0.037061 -0.378648 0.924798
vn -0.115229 -0.392360 0.912566
vn -0.392703 -0.829231 0.397694
vn -0.248394 0.960379 -0.126380
vn -0.193755 0.977052 -0.088478
vn 0.180573 0.051783 0.982197
vn 0.029862 0.059076 0.997807
vn 0.030113 0.064759 0.997446
vn -0.070681 0.090496 0.993385
vn -0.285082 0.302234 -0.909606
vn -0.320213 0.318751 -0.892111
vn -0.304444 0.028658 0.952099
vn -0.413391 0.033738 0.909928
vn -0.304941 -0.771118 0.558917
vn -0.431303 -0.660594 0.614487
vn 0.000337 0.847284 0.531140
vn -0.017939 0.820315 0.571630
vn -0.460756 0.858479 -0.225205
vn -0.561819 0.802778 -0.199766
vn -0.358765 -0.726889 -0.585594
vn -0.320501 -0.913590 -0.250266
vn -0.299077 -0.887108 -0.351557
vn -0.085906 -0.246887 -0.965229
vn -0.302463 -0.609791 -0.732578
vn 0.184103 -0.523872 -0.831664
vn -0.559039 -0.815299 0.150872
vn -0.858519 -0.508184 -0.068516
vn -0.866072 -0.477184 -0.149048
vn -0.521671 -0.750650 0.405443
vn -0.609219 -0.769541 0.191466
vn -0.672545 -0.705492 0.223526
vn -0.755188 -0.324183 0.569734
vn -0.448064 0.893390 0.033058
vn -0.475451 0.870631 0.126282
vn -0.663269 0.745547 0.065069
vn -0.066006 0.807696 0.585893
vn -0.090899 0.924700 0.369687
vn -0.602727 0.700357 -0.382387
vn -0.572702 0.764686 -0.295411
vn -0.829393 0.431604 -0.354717
vn -0.527547 -0.446205 -0.722908
vn -0.948854 0.149856 -0.277883
vn -0.871510 -0.242270 -0.426351
vn -0.949123 0.209525 -0.235083
vn -0.892987 0.338817 -0.296273
vn -0.876361 -0.479693 0.043435
vn -0.885767 -0.463062 0.031477
vn -0.722128 0.691759 0.000989
vn -0.710853 0.701662 -0.048558
vn -0.697237 0.716111 -0.032332
vn -0.787536 0.598000 0.148943
vn -0.815081 0.569587 0.105892
f 122//122 65//65 1//1
f 143//143 372//372 104//104
f 63//63 104//104 54//54
f 143//143 104//104 63//63
f 54//54 104//104 112//112
f 372//372 112//112 104//104
f 144//144 30//30 372//372
f 106//106 107//107 108//108
f 107//107 106//106 122//122
f 63//63 105//105 107//107
f 109//109 107//107 105//105
f 63//63 54//54 105//105
f 112//112 105//105 54//54
f 108//108 122//122 106//106
f 109//109 108//108 107//107
f 105//105 108//108 109//109
f 111//111 110//110 115//115
f 112//112 111//111 105//105
f 111//111 145//145 105//105
f 112//112 110//110 111//111
f 372//372 373//373 113//113
f 112//112 372//372 113//113
f 112//112 113//113 110//110
f 114//114 113//113 373//373
f 373//373 116//116 114//114
f 116//116 115//115 110//110
f 114//114 110//110 113//113
f 110//110 114//114 116//116
f 152//152 31//31 374//374
f 373//373 117//117 116//116
f 116//116 117//117 115//115
f 152//152 373//373 31//31
f 30//30 271//271 374//374
f 152//152 153//153 373//373
f 374//374 154//154 152//152
f 152//152 154//154 153//153
f 153//153 154//154 86//86
f 65//65 122//122 128//128
f 122//122 55//55 118//118
f 118//118 55//55 2//2
f 55//55 150//150 2//2
f 108//108 55//55 122//122
f 56//56 55//55 108//108
f 150//150 55//55 56//56
f 120//120 2//2 147//147
f 147//147 2//2 150//150
f 123//123 57//57 3//3
f 120//120 57//57 123//123
f 2//2 120//120 123//123
f 373//373 121//121 117//117
f 117//117 121//121 115//115
f 121//121 119//119 115//115
f 119//119 120//120 115//115
f 120//120 119//119 121//121
f 121//121 125//125 120//120
f 373//373 153//153 121//121
f 151//151 86//86 125//125
f 125//125 121//121 151//151
f 151//151 153//153 86//86
f 121//121 153//153 151//151
f 118//118 128//128 122//122
f 118//118 3//3 128//128
f 88//88 130//130 57//57
f 130//130 3//3 57//57
f 2//2 123//123 118//118
f 123//123 3//3 118//118
f 59//59 88//88 57//57
f 120//120 124//124 57//57
f 124//124 125//125 57//57
f 120//120 125//125 124//124
f 86//86 133//133 125//125
f 133//133 59//59 125//125
f 133//133 5//5 59//59
f 59//59 57//57 125//125
f 392//392 35//35 89//89
f 127//127 89//89 4//4
f 392//392 89//89 127//127
f 181//181 65//65 180//180
f 180//180 126//126 90//90
f 65//65 126//126 180//180
f 292//292 392//392 127//127
f 128//128 126//126 65//65
f 126//126 380//380 90//90
f 128//128 381//381 90//90
f 126//126 128//128 380//380
f 380//380 128//128 90//90
f 3//3 381//381 128//128
f 3//3 129//129 381//381
f 381//381 382//382 90//90
f 90//90 382//382 92//92
f 88//88 384//384 379//379
f 384//384 32//32 379//379
f 381//381 129//129 132//132
f 381//381 132//132 382//382
f 66//66 4//4 58//58
f 58//58 4//4 383//383
f 58//58 383//383 91//91
f 93//93 387//387 386//386
f 58//58 91//91 186//186
f 186//186 66//66 58//58
f 129//129 131//131 132//132
f 88//88 59//59 384//384
f 59//59 5//5 384//384
f 132//132 131//131 382//382
f 92//92 382//382 385//385
f 382//382 131//131 385//385
f 5//5 32//32 384//384
f 387//387 93//93 256//256
f 256//256 13//13 386//386
f 256//256 386//386 387//387
f 1//1 60//60 135//135
f 1//1 135//135 122//122
f 60//60 375//375 283//283
f 283//283 375//375 192//192
f 136//136 138//138 61//61
f 135//135 60//60 134//134
f 134//134 137//137 136//136
f 60//60 283//283 134//134
f 283//283 188//188 134//134
f 136//136 137//137 138//138
f 137//137 189//189 139//139
f 122//122 135//135 61//61
f 135//135 134//134 61//61
f 134//134 136//136 61//61
f 139//139 138//138 137//137
f 189//189 138//138 139//139
f 138//138 189//189 62//62
f 138//138 190//190 61//61
f 138//138 62//62 190//190
f 190//190 140//140 61//61
f 190//190 95//95 140//140
f 61//61 140//140 143//143
f 189//189 190//190 62//62
f 122//122 61//61 107//107
f 61//61 6//6 107//107
f 61//61 143//143 6//6
f 95//95 142//142 140//140
f 142//142 143//143 140//140
f 190//190 33//33 95//95
f 6//6 143//143 63//63
f 107//107 6//6 141//141
f 107//107 141//141 63//63
f 6//6 63//63 141//141
f 143//143 144//144 372//372
f 191//191 430//430 190//190
f 190//190 430//430 33//33
f 378//378 375//375 60//60
f 105//105 56//56 108//108
f 150//150 56//56 105//105
f 111//111 115//115 148//148
f 145//145 146//146 105//105
f 105//105 146//146 150//150
f 111//111 148//148 145//145
f 145//145 150//150 146//146
f 271//271 154//154 374//374
f 273//273 154//154 271//271
f 7//7 14//14 195//195
f 148//148 150//150 145//145
f 120//120 147//147 149//149
f 147//147 150//150 149//149
f 150//150 148//148 149//149
f 148//148 115//115 120//120
f 148//148 120//120 149//149
f 154//154 94//94 86//86
f 87//87 94//94 154//154
f 87//87 154//154 166//166
f 158//158 162//162 159//159
f 165//165 162//162 158//158
f 171//171 162//162 165//165
f 64//64 159//159 162//162
f 162//162 171//171 64//64
f 14//14 7//7 160//160
f 7//7 163//163 160//160
f 7//7 165//165 164//164
f 7//7 164//164 163//163
f 14//14 160//160 161//161
f 169//169 14//14 161//161
f 163//163 155//155 160//160
f 160//160 155//155 161//161
f 155//155 158//158 161//161
f 163//163 165//165 155//155
f 155//155 165//165 158//158
f 163//163 164//164 165//165
f 169//169 161//161 156//156
f 156//156 161//161 157//157
f 161//161 158//158 157//157
f 158//158 159//159 168//168
f 158//158 168//168 157//157
f 157//157 168//168 156//156
f 159//159 64//64 168//168
f 156//156 168//168 169//169
f 168//168 167//167 170//170
f 14//14 169//169 19//19
f 171//171 196//196 67//67
f 171//171 176//176 177//177
f 7//7 171//171 165//165
f 195//195 196//196 171//171
f 195//195 171//171 7//7
f 74//74 227//227 196//196
f 378//378 377//377 204//204
f 376//376 204//204 18//18
f 378//378 204//204 376//376
f 94//94 87//87 93//93
f 87//87 256//256 93//93
f 274//274 87//87 166//166
f 273//273 166//166 154//154
f 274//274 166//166 273//273
f 173//173 168//168 64//64
f 167//167 168//168 173//173
f 168//168 170//170 169//169
f 8//8 167//167 174//174
f 167//167 175//175 174//174
f 167//167 173//173 175//175
f 174//174 175//175 416//416
f 72//72 170//170 167//167
f 388//388 167//167 8//8
f 72//72 167//167 388//388
f 389//389 72//72 388//388
f 390//390 8//8 34//34
f 388//388 8//8 390//390
f 213//213 212//212 72//72
f 212//212 170//170 72//72
f 213//213 170//170 212//212
f 64//64 171//171 172//172
f 64//64 172//172 173//173
f 171//171 178//178 172//172
f 175//175 172//172 178//178
f 175//175 173//173 172//172
f 175//175 220//220 416//416
f 177//177 178//178 171//171
f 176//176 178//178 177//177
f 388//388 390//390 389//389
f 176//176 171//171 227//227
f 227//227 226//226 176//176
f 176//176 221//221 178//178
f 221//221 220//220 175//175
f 221//221 175//175 178//178
f 1//1 65//65 377//377
f 181//181 182//182 65//65
f 65//65 182//182 377//377
f 182//182 74//74 377//377
f 179//179 74//74 182//182
f 181//181 236//236 182//182
f 236//236 179//179 182//182
f 179//179 236//236 238//238
f 236//236 181//181 235//235
f 236//236 235//235 238//238
f 235//235 9//9 80//80
f 238//238 237//237 179//179
f 179//179 237//237 74//74
f 35//35 392//392 235//235
f 391//391 9//9 235//235
f 9//9 391//391 392//392
f 392//392 391//391 235//235
f 4//4 66//66 127//127
f 66//66 185//185 184//184
f 66//66 184//184 127//127
f 185//185 186//186 40//40
f 66//66 186//186 185//185
f 292//292 127//127 184//184
f 396//396 394//394 397//397
f 394//394 10//10 397//397
f 38//38 393//393 399//399
f 399//399 393//393 396//396
f 393//393 38//38 183//183
f 96//96 97//97 36//36
f 12//12 97//97 96//96
f 183//183 10//10 394//394
f 393//393 394//394 396//396
f 183//183 394//394 393//393
f 37//37 294//294 398//398
f 37//37 21//21 294//294
f 398//398 294//294 184//184
f 244//244 245//245 395//395
f 245//245 37//37 97//97
f 245//245 97//97 12//12
f 395//395 245//245 12//12
f 292//292 184//184 294//294
f 91//91 402//402 186//186
f 400//400 36//36 401//401
f 400//400 401//401 187//187
f 187//187 401//401 11//11
f 186//186 429//429 40//40
f 186//186 402//402 403//403
f 186//186 403//403 429//429
f 96//96 36//36 400//400
f 12//12 96//96 395//395
f 96//96 400//400 395//395
f 244//244 243//243 11//11
f 395//395 243//243 244//244
f 395//395 400//400 187//187
f 395//395 187//187 243//243
f 243//243 187//187 11//11
f 257//257 240//240 75//75
f 240//240 263//263 75//75
f 273//273 275//275 274//274
f 275//275 258//258 274//274
f 275//275 22//22 258//258
f 274//274 256//256 87//87
f 258//258 256//256 274//274
f 75//75 13//13 256//256
f 75//75 256//256 258//258
f 260//260 258//258 22//22
f 75//75 258//258 257//257
f 428//428 427//427 402//402
f 427//427 40//40 429//429
f 429//429 403//403 402//402
f 427//427 429//429 402//402
f 244//244 40//40 427//427
f 436//436 39//39 75//75
f 75//75 39//39 13//13
f 188//188 137//137 134//134
f 137//137 188//188 79//79
f 267//267 191//191 190//190
f 188//188 283//283 79//79
f 142//142 272//272 143//143
f 143//143 272//272 144//144
f 144//144 271//271 30//30
f 272//272 271//271 144//144
f 202//202 192//192 375//375
f 202//202 375//375 376//376
f 376//376 375//375 378//378
f 18//18 202//202 376//376
f 18//18 203//203 202//202
f 203//203 192//192 202//202
f 192//192 404//404 283//283
f 404//404 405//405 283//283
f 283//283 405//405 79//79
f 404//404 411//411 405//405
f 14//14 197//197 68//68
f 197//197 14//14 193//193
f 14//14 19//19 206//206
f 194//194 193//193 14//14
f 194//194 14//14 206//206
f 194//194 198//198 193//193
f 193//193 198//198 197//197
f 215//215 194//194 214//214
f 194//194 199//199 198//198
f 199//199 278//278 198//198
f 194//194 215//215 199//199
f 199//199 215//215 200//200
f 215//215 16//16 200//200
f 16//16 73//73 279//279
f 196//196 195//195 68//68
f 195//195 14//14 68//68
f 68//68 197//197 15//15
f 197//197 278//278 15//15
f 198//198 278//278 197//197
f 16//16 278//278 200//200
f 200//200 278//278 199//199
f 279//279 278//278 16//16
f 67//67 227//227 171//171
f 196//196 227//227 67//67
f 196//196 201//201 205//205
f 70//70 71//71 205//205
f 70//70 205//205 17//17
f 205//205 201//201 17//17
f 196//196 68//68 201//201
f 15//15 17//17 201//201
f 15//15 201//201 68//68
f 99//99 18//18 204//204
f 410//410 204//204 69//69
f 99//99 204//204 410//410
f 99//99 410//410 71//71
f 410//410 69//69 71//71
f 404//404 413//413 411//411
f 412//412 411//411 413//413
f 405//405 411//411 407//407
f 412//412 280//280 411//411
f 411//411 408//408 407//407
f 407//407 408//408 405//405
f 280//280 408//408 411//411
f 206//206 19//19 209//209
f 209//209 19//19 207//207
f 19//19 169//169 207//207
f 210//210 207//207 169//169
f 210//210 169//169 170//170
f 210//210 170//170 208//208
f 214//214 194//194 209//209
f 194//194 206//206 209//209
f 214//214 209//209 210//210
f 209//209 207//207 210//210
f 214//214 210//210 211//211
f 211//211 210//210 213//213
f 210//210 208//208 213//213
f 16//16 215//215 217//217
f 217//217 215//215 214//214
f 16//16 217//217 216//216
f 216//216 217//217 211//211
f 217//217 214//214 211//211
f 16//16 216//216 218//218
f 216//216 211//211 218//218
f 213//213 218//218 211//211
f 170//170 213//213 208//208
f 16//16 218//218 73//73
f 377//377 74//74 204//204
f 204//204 74//74 69//69
f 74//74 196//196 205//205
f 69//69 205//205 71//71
f 74//74 205//205 69//69
f 273//273 28//28 78//78
f 389//389 219//219 72//72
f 219//219 213//213 72//72
f 213//213 219//219 218//218
f 219//219 389//389 224//224
f 224//224 218//218 219//219
f 224//224 73//73 218//218
f 389//389 73//73 224//224
f 389//389 390//390 222//222
f 390//390 34//34 222//222
f 222//222 34//34 20//20
f 100//100 41//41 415//415
f 100//100 415//415 42//42
f 42//42 415//415 20//20
f 415//415 414//414 20//20
f 415//415 41//41 414//414
f 414//414 229//229 20//20
f 222//222 223//223 389//389
f 223//223 222//222 20//20
f 223//223 20//20 289//289
f 73//73 389//389 225//225
f 225//225 389//389 223//223
f 290//290 73//73 225//225
f 225//225 223//223 289//289
f 290//290 225//225 289//289
f 176//176 226//226 221//221
f 220//220 221//221 416//416
f 74//74 228//228 227//227
f 227//227 228//228 226//226
f 416//416 417//417 418//418
f 221//221 417//417 416//416
f 221//221 226//226 228//228
f 221//221 228//228 417//417
f 418//418 228//228 41//41
f 417//417 228//228 418//418
f 41//41 229//229 414//414
f 229//229 41//41 231//231
f 41//41 228//228 231//231
f 228//228 74//74 230//230
f 231//231 230//230 43//43
f 230//230 231//231 228//228
f 43//43 230//230 238//238
f 74//74 237//237 230//230
f 261//261 238//238 235//235
f 230//230 237//237 238//238
f 419//419 43//43 420//420
f 43//43 419//419 231//231
f 231//231 419//419 229//229
f 419//419 420//420 234//234
f 419//419 234//234 229//229
f 20//20 229//229 232//232
f 229//229 233//233 232//232
f 233//233 229//229 234//234
f 43//43 238//238 421//421
f 233//233 290//290 232//232
f 234//234 290//290 233//233
f 232//232 289//289 20//20
f 290//290 289//289 232//232
f 432//432 422//422 421//421
f 421//421 422//422 43//43
f 432//432 421//421 261//261
f 261//261 421//421 238//238
f 262//262 320//320 432//432
f 432//432 433//433 46//46
f 320//320 433//433 432//432
f 293//293 392//392 292//292
f 9//9 392//392 293//293
f 9//9 293//293 80//80
f 293//293 292//292 80//80
f 21//21 37//37 239//239
f 239//239 331//331 21//21
f 21//21 331//331 294//294
f 294//294 331//331 292//292
f 331//331 239//239 295//295
f 37//37 245//245 239//239
f 239//239 245//245 295//295
f 244//244 296//296 245//245
f 296//296 331//331 245//245
f 245//245 331//331 295//295
f 260//260 255//255 258//258
f 255//255 257//257 258//258
f 255//255 76//76 257//257
f 242//242 251//251 255//255
f 255//255 241//241 76//76
f 251//251 241//241 255//255
f 76//76 240//240 257//257
f 241//241 240//240 76//76
f 251//251 240//240 241//241
f 240//240 264//264 437//437
f 75//75 263//263 436//436
f 240//240 437//437 263//263
f 255//255 260//260 246//246
f 242//242 255//255 246//246
f 250//250 264//264 240//240
f 250//250 240//240 251//251
f 246//246 260//260 248//248
f 259//259 260//260 22//22
f 248//248 260//260 259//259
f 248//248 247//247 246//246
f 248//248 249//249 247//247
f 242//242 247//247 249//249
f 247//247 242//242 246//246
f 249//249 252//252 242//242
f 252//252 254//254 242//242
f 254//254 251//251 242//242
f 250//250 251//251 254//254
f 254//254 265//265 250//250
f 265//265 264//264 250//250
f 425//425 259//259 44//44
f 424//424 259//259 425//425
f 248//248 253//253 77//77
f 253//253 248//248 424//424
f 248//248 259//259 424//424
f 77//77 249//249 248//248
f 253//253 249//249 77//77
f 253//253 266//266 249//249
f 266//266 252//252 249//249
f 254//254 252//252 266//266
f 253//253 457//457 266//266
f 266//266 265//265 254//254
f 457//457 264//264 266//266
f 264//264 265//265 266//266
f 299//299 253//253 424//424
f 299//299 300//300 253//253
f 253//253 300//300 457//457
f 300//300 51//51 457//457
f 457//457 437//437 264//264
f 273//273 78//78 275//275
f 78//78 424//424 275//275
f 275//275 44//44 22//22
f 425//425 44//44 275//275
f 424//424 425//425 275//275
f 432//432 261//261 262//262
f 261//261 23//23 262//262
f 261//261 235//235 80//80
f 261//261 80//80 23//23
f 23//23 80//80 297//297
f 23//23 297//297 262//262
f 297//297 80//80 298//298
f 80//80 292//292 298//298
f 298//298 262//262 297//297
f 244//244 427//427 296//296
f 427//427 428//428 426//426
f 296//296 426//426 337//337
f 427//427 426//426 296//296
f 456//456 436//436 263//263
f 456//456 263//263 437//437
f 190//190 189//189 344//344
f 190//190 268//268 267//267
f 269//269 267//267 268//268
f 268//268 190//190 344//344
f 270//270 267//267 269//269
f 301//301 267//267 270//270
f 301//301 270//270 303//303
f 25//25 344//344 307//307
f 189//189 137//137 79//79
f 344//344 189//189 307//307
f 189//189 79//79 307//307
f 269//269 268//268 344//344
f 269//269 344//344 270//270
f 270//270 344//344 346//346
f 461//461 346//346 344//344
f 273//273 271//271 277//277
f 271//271 272//272 277//277
f 272//272 142//142 276//276
f 272//272 276//276 277//277
f 430//430 45//45 33//33
f 431//431 45//45 430//430
f 438//438 28//28 273//273
f 438//438 273//273 277//277
f 342//342 45//45 431//431
f 304//304 431//431 430//430
f 342//342 431//431 304//304
f 302//302 430//430 191//191
f 304//304 430//430 302//302
f 276//276 438//438 277//277
f 278//278 279//279 281//281
f 280//280 278//278 281//281
f 281//281 279//279 286//286
f 15//15 278//278 98//98
f 278//278 409//409 98//98
f 98//98 409//409 406//406
f 406//406 280//280 412//412
f 409//409 280//280 406//406
f 278//278 280//280 409//409
f 280//280 281//281 288//288
f 282//282 280//280 288//288
f 282//282 288//288 318//318
f 24//24 288//288 287//287
f 288//288 281//281 286//286
f 288//288 286//286 287//287
f 24//24 318//318 288//288
f 280//280 282//282 408//408
f 408//408 282//282 405//405
f 282//282 284//284 405//405
f 405//405 284//284 79//79
f 47//47 306//306 282//282
f 306//306 305//305 282//282
f 282//282 305//305 284//284
f 287//287 286//286 285//285
f 290//290 279//279 73//73
f 286//286 279//279 285//285
f 279//279 290//290 285//285
f 316//316 287//287 285//285
f 316//316 285//285 290//290
f 316//316 290//290 291//291
f 287//287 315//315 24//24
f 420//420 316//316 291//291
f 316//316 317//317 315//315
f 316//316 315//315 287//287
f 317//317 24//24 315//315
f 290//290 234//234 291//291
f 234//234 420//420 291//291
f 420//420 434//434 423//423
f 434//434 435//435 423//423
f 320//320 83//83 433//433
f 433//433 83//83 46//46
f 423//423 316//316 420//420
f 449//449 317//317 423//423
f 317//317 316//316 423//423
f 452//452 449//449 435//435
f 449//449 423//423 435//435
f 449//449 452//452 451//451
f 449//449 450//450 317//317
f 449//449 451//451 450//450
f 28//28 300//300 299//299
f 78//78 28//28 424//424
f 28//28 299//299 424//424
f 28//28 51//51 300//300
f 296//296 337//337 331//331
f 292//292 331//331 332//332
f 331//331 337//337 332//332
f 337//337 426//426 336//336
f 457//457 456//456 437//437
f 453//453 51//51 28//28
f 457//457 51//51 456//456
f 52//52 346//346 461//461
f 52//52 341//341 346//346
f 346//346 303//303 270//270
f 301//301 191//191 267//267
f 302//302 301//301 303//303
f 276//276 458//458 438//438
f 438//438 439//439 28//28
f 458//458 439//439 438//438
f 303//303 304//304 302//302
f 301//301 302//302 191//191
f 340//340 341//341 52//52
f 303//303 346//346 341//341
f 303//303 341//341 340//340
f 460//460 458//458 459//459
f 459//459 458//458 276//276
f 52//52 342//342 340//340
f 340//340 304//304 303//303
f 342//342 304//304 340//340
f 306//306 309//309 305//305
f 47//47 310//310 306//306
f 306//306 310//310 309//309
f 47//47 282//282 311//311
f 282//282 347//347 311//311
f 26//26 25//25 308//308
f 309//309 448//448 308//308
f 308//308 448//448 26//26
f 309//309 308//308 305//305
f 305//305 308//308 284//284
f 308//308 25//25 307//307
f 284//284 307//307 79//79
f 308//308 307//307 284//284
f 312//312 440//440 101//101
f 25//25 440//440 312//312
f 309//309 447//447 448//448
f 447//447 446//446 448//448
f 448//448 446//446 26//26
f 442//442 101//101 441//441
f 443//443 311//311 347//347
f 48//48 444//444 50//50
f 49//49 443//443 48//48
f 49//49 47//47 311//311
f 49//49 311//311 443//443
f 101//101 314//314 312//312
f 314//314 313//313 312//312
f 50//50 444//444 313//313
f 314//314 101//101 442//442
f 313//313 442//442 441//441
f 314//314 442//442 313//313
f 347//347 445//445 443//443
f 443//443 444//444 48//48
f 445//445 444//444 443//443
f 102//102 351//351 347//347
f 444//444 445//445 347//347
f 351//351 444//444 347//347
f 458//458 355//355 439//439
f 439//439 356//356 28//28
f 355//355 356//356 439//439
f 282//282 318//318 349//349
f 282//282 348//348 347//347
f 347//347 348//348 102//102
f 282//282 349//349 348//348
f 317//317 319//319 24//24
f 319//319 318//318 24//24
f 318//318 319//319 349//349
f 319//319 102//102 348//348
f 319//319 348//348 349//349
f 317//317 450//450 319//319
f 450//450 451//451 319//319
f 319//319 357//357 102//102
f 451//451 357//357 319//319
f 358//358 452//452 83//83
f 358//358 83//83 320//320
f 451//451 452//452 357//357
f 262//262 298//298 320//320
f 298//298 324//324 320//320
f 324//324 27//27 320//320
f 320//320 321//321 358//358
f 321//321 320//320 27//27
f 322//322 358//358 321//321
f 321//321 27//27 329//329
f 27//27 327//327 329//329
f 321//321 329//329 322//322
f 324//324 298//298 363//363
f 298//298 292//292 363//363
f 323//323 27//27 324//324
f 27//27 323//323 325//325
f 324//324 363//363 326//326
f 323//323 324//324 325//325
f 27//27 325//325 327//327
f 324//324 326//326 325//325
f 325//325 326//326 327//327
f 326//326 363//363 85//85
f 363//363 292//292 366//366
f 85//85 366//366 362//362
f 363//363 366//366 85//85
f 326//326 328//328 327//327
f 328//328 330//330 327//327
f 328//328 326//326 85//85
f 322//322 85//85 362//362
f 322//322 328//328 85//85
f 322//322 329//329 330//330
f 329//329 327//327 330//330
f 322//322 330//330 328//328
f 28//28 356//356 334//334
f 292//292 332//332 366//366
f 339//339 366//366 332//332
f 336//336 339//339 337//337
f 337//337 339//339 332//332
f 338//338 339//339 336//336
f 333//333 339//339 338//338
f 455//455 333//333 338//338
f 335//335 333//333 455//455
f 371//371 362//362 366//366
f 333//333 366//366 339//339
f 371//371 366//366 333//333
f 53//53 371//371 335//335
f 335//335 371//371 333//333
f 53//53 335//335 455//455
f 334//334 81//81 28//28
f 28//28 81//81 453//453
f 455//455 338//338 454//454
f 453//453 454//454 51//51
f 455//455 454//454 453//453
f 455//455 453//453 81//81
f 460//460 465//465 458//458
f 313//313 343//343 312//312
f 102//102 350//350 343//343
f 444//444 343//343 313//313
f 351//351 343//343 444//444
f 102//102 343//343 351//351
f 25//25 312//312 344//344
f 344//344 345//345 461//461
f 312//312 345//345 344//344
f 312//312 343//343 345//345
f 460//460 464//464 465//465
f 464//464 354//354 465//465
f 345//345 343//343 461//461
f 343//343 350//350 461//461
f 458//458 465//465 355//355
f 356//356 354//354 84//84
f 465//465 356//356 355//355
f 354//354 356//356 465//465
f 350//350 466//466 467//467
f 350//350 467//467 352//352
f 466//466 359//359 467//467
f 102//102 360//360 466//466
f 360//360 359//359 466//466
f 467//467 353//353 352//352
f 359//359 353//353 467//467
f 350//350 352//352 461//461
f 352//352 463//463 461//461
f 352//352 353//353 463//463
f 353//353 464//464 462//462
f 353//353 462//462 463//463
f 461//461 462//462 52//52
f 463//463 462//462 461//461
f 354//354 82//82 84//84
f 464//464 82//82 354//354
f 464//464 353//353 82//82
f 353//353 359//359 82//82
f 84//84 82//82 29//29
f 364//364 358//358 322//322
f 359//359 358//358 364//364
f 452//452 358//358 357//357
f 357//357 360//360 102//102
f 359//359 360//360 358//358
f 360//360 357//357 358//358
f 322//322 362//362 364//364
f 364//364 362//362 365//365
f 365//365 29//29 82//82
f 472//472 468//468 103//103
f 29//29 365//365 369//369
f 365//365 370//370 369//369
f 367//367 370//370 365//365
f 82//82 359//359 364//364
f 364//364 365//365 82//82
f 468//468 53//53 455//455
f 455//455 81//81 334//334
f 468//468 455//455 361//361
f 53//53 468//468 471//471
f 468//468 472//472 471//471
f 471//471 472//472 103//103
f 84//84 103//103 356//356
f 103//103 469//469 356//356
f 469//469 334//334 356//356
f 334//334 470//470 455//455
f 334//334 469//469 470//470
f 469//469 103//103 468//468
f 469//469 468//468 470//470
f 455//455 470//470 361//361
f 470//470 468//468 361//361
f 365//365 362//362 367//367
f 368//368 371//371 370//370
f 371//371 369//369 370//370
f 362//362 370//370 367//367
f 368//368 370//370 362//362
f 53//53 369//369 371//371
f 371//371 368//368 362//362
