# decimated by Tools/decimate_anatomy.py from 2720 triangles (BodyParts3D, CC BY 4.0)
v -0.01237149 -0.00286123 0.02875163
v -0.01433693 -0.00497540 0.02749591
v -0.01235845 0.00202874 0.02813870
v -0.01750304 0.00072985 0.03471885
v -0.01753532 0.00685755 0.03245647
v -0.01743274 0.00083068 0.03674059
v -0.01898064 -0.00582339 0.03830779
v -0.02215042 0.00185481 0.03286599
v -0.01667654 0.00471395 0.02549256
v -0.01773057 0.00119152 0.03459225
v -0.01675958 0.00302664 0.03421606
v -0.01788379 0.00206404 0.03429293
v -0.01795193 0.00207771 0.03439139
v -0.01264503 0.00539120 0.02981023
v -0.01708594 0.00681878 0.03244089
v -0.01846671 0.00595094 0.03313312
v -0.01554901 0.00141572 0.03517921
v -0.01737832 0.00314473 0.03482570
v -0.01897703 -0.00311687 0.02494512
v -0.01983218 0.00041032 0.02442594
v -0.02276397 -0.00348117 0.03176641
v -0.01284099 0.00163307 0.02758354
v -0.01248788 0.00508372 0.02855974
v -0.01301269 -0.00034420 0.03006237
v -0.01628700 0.00705283 0.03074055
v -0.01513476 0.00288006 0.03326056
v -0.01769882 0.00227882 0.03429523
v -0.01734037 0.00257276 0.03429768
v -0.02092721 0.00361460 0.03451980
v -0.01760392 0.00079494 0.03507823
v -0.01810475 0.00163772 0.03500728
v -0.01765847 0.00103303 0.03670591
v -0.01694622 0.00630717 0.03291068
v -0.01914235 0.00167419 0.03746421
v -0.01810860 0.00235582 0.03596985
v -0.02273354 -0.00337463 0.03242089
v -0.01899129 -0.00572708 0.03846177
v -0.02242540 -0.00220709 0.03744315
v -0.02189837 -0.00601030 0.03747018
v -0.01233444 0.00119290 0.02894453
v -0.01236618 0.00056798 0.02875945
v -0.01219439 0.00487540 0.02872686
v -0.01351779 0.00362393 0.02726717
v -0.01363163 0.00491144 0.02737336
v -0.01241920 0.00507099 0.02967147
v -0.01337045 0.00574272 0.02851518
v -0.01464278 0.00304191 0.03253578
v -0.01787826 0.00249187 0.02457915
v -0.01399924 0.00488009 0.02710353
v -0.01683977 0.00472811 0.02543785
v -0.01635618 -0.00745211 0.03249431
v -0.01657330 -0.00757026 0.03153251
v -0.01622022 0.00727294 0.03116717
v -0.01335629 0.00505573 0.03074149
v -0.01228175 -0.00226322 0.02891243
v -0.01541906 0.00157993 0.03497682
v -0.01534219 0.00192185 0.03441445
v -0.01638343 -0.00319919 0.03773303
v -0.01805244 0.00147163 0.03486615
v -0.01745086 0.00517693 0.03367855
v -0.01678235 0.00380792 0.03409544
v -0.01652910 0.00347229 0.03407655
v -0.01798518 0.00545032 0.03396199
v -0.01749568 -0.00314477 0.03885212
v -0.01693983 -0.00065570 0.03778228
v -0.01732306 -0.00075645 0.03825562
v -0.01829164 -0.00378269 0.02517866
v -0.01799846 -0.00123852 0.02463839
v -0.01898342 0.00180689 0.02465741
v -0.01802585 0.00342030 0.02499480
v -0.01697365 0.00489047 0.02548891
v -0.01826842 0.00183253 0.02462706
v -0.01773267 0.00491454 0.02630000
v -0.01834251 0.00637083 0.02997420
v -0.01704289 -0.00619156 0.03585656
v -0.01849425 -0.00478839 0.03867480
v -0.01778126 -0.00418035 0.03839986
v -0.01935444 0.00051686 0.03838604
v -0.01801561 0.00416153 0.02571399
v -0.01784453 -0.00652684 0.03022270
v -0.02076745 -0.00473743 0.02888378
v -0.02142795 -0.00226679 0.02693963
v -0.02118862 -0.00093122 0.02548266
v -0.02047921 0.00156060 0.02554859
v -0.02134498 0.00169204 0.02777680
v -0.02271261 -0.00336365 0.03140937
v -0.01866172 -0.00698875 0.03198935
v -0.02108248 -0.00489715 0.02961161
v -0.02153561 -0.00561894 0.03150876
v -0.02329499 -0.00221165 0.03454246
v -0.02175627 0.00207034 0.02940446
v -0.02183382 -0.00616379 0.03721403
v -0.01828706 -0.00634730 0.03708020
v -0.02235352 -0.00641186 0.03401196
v -0.02256691 -0.00372476 0.03544300
v -0.02249997 -0.00386912 0.03698440
v -0.02273979 -0.00345198 0.03615351
v -0.02275513 -0.00340867 0.03541322
v -0.02304181 -0.00306952 0.03583514
v -0.02233292 0.00133424 0.03346563
v -0.02243618 -0.00199563 0.03738094
v -0.02142021 0.00316390 0.03457899
v -0.01312329 -0.00269044 0.02737399
v -0.01403666 -0.00496788 0.02759664
v -0.01319576 -0.00413072 0.02939051
v -0.01521437 -0.00641886 0.03175946
v -0.01414826 -0.00578694 0.02951203
v -0.01310590 -0.00353513 0.02872062
v -0.01553116 0.00674536 0.03176723
v -0.01435227 0.00541171 0.02731152
v -0.01512560 0.00484546 0.02639247
v -0.01581141 -0.00715266 0.03131304
v -0.01603100 -0.00694702 0.03326183
v -0.01567416 -0.00700826 0.03130112
v -0.01789838 0.00179392 0.03441805
v -0.01793233 0.00138248 0.03475326
v -0.01783374 0.00094340 0.03491476
v -0.01779526 0.00110333 0.03474765
v -0.01674629 0.00253478 0.03421756
v -0.01679343 0.00261038 0.03419872
v -0.01742141 0.00289950 0.03465194
v -0.01762899 0.00098242 0.03459363
v -0.01752482 0.00226807 0.03427653
v -0.01784388 0.00224812 0.03442264
v -0.01740732 0.00286446 0.03460954
v -0.01698575 0.00285961 0.03426099
v -0.01766604 0.00231971 0.03434053
v -0.01722814 0.00280178 0.03440795
v -0.01756607 0.00253942 0.03445261
v -0.01665376 0.00068146 0.03623743
v -0.01634907 0.00217308 0.03470685
v -0.01646803 0.00148165 0.03505480
v -0.01745407 0.00082236 0.03659231
v -0.01733835 0.00079995 0.03679549
v -0.01569801 0.00156124 0.03507689
v -0.01629691 0.00226575 0.03466552
v -0.01620432 0.00188581 0.03492422
v -0.01673653 0.00305527 0.03421969
v -0.01727261 0.00330648 0.03469189
v -0.01838455 0.00176344 0.03642699
v -0.01757495 0.00293393 0.03486819
v -0.01817731 0.00190749 0.03544568
v -0.01913823 0.00123008 0.03770378
v -0.01740567 0.00046782 0.03736244
v -0.01790745 0.00105579 0.03575771
v -0.01817646 0.00129984 0.03559522
v -0.01629985 0.00669881 0.03234119
v -0.01754606 0.00595765 0.03342532
v -0.01682469 0.00656636 0.03261910
v -0.01779784 0.00610862 0.03334534
v -0.01727599 0.00657159 0.03273962
v -0.01744726 0.00620389 0.03315295
v -0.02128192 0.00305091 0.03498388
v -0.01953782 0.00479179 0.03394718
v -0.01655609 -0.00312593 0.03791193
v -0.01670677 -0.00239443 0.03798733
v -0.02020257 -0.00479405 0.03878151
v -0.02111920 -0.00131299 0.02543322
v -0.02038021 0.00154385 0.02546402
v -0.01771811 -0.00298760 0.03905568
v -0.01819954 0.00410156 0.03501572
v -0.01873820 0.00204307 0.03683784
v -0.01785297 0.00274222 0.03552930
v -0.01810691 0.00562211 0.03386039
v -0.02043407 0.00235837 0.03612811
v -0.02257848 -0.00379784 0.03514788
v -0.02260924 -0.00359586 0.03534368
v -0.02282147 -0.00333325 0.03440920
v -0.02284725 -0.00329546 0.03237973
v -0.02270171 -0.00357280 0.03166008
v -0.02255641 -0.00435737 0.03500872
v -0.02259351 -0.00633198 0.03430357
v -0.02014549 -0.00565456 0.03825205
v -0.02212177 -0.00557764 0.03717333
v -0.02254638 -0.00507978 0.03593646
v -0.02267516 -0.00382619 0.03654826
v -0.02327939 -0.00195709 0.03563716
v -0.02326711 -0.00276924 0.03548280
v -0.02328455 -0.00142225 0.03580069
vn 0.997856 -0.058957 0.028409
vn 0.086234 -0.765378 -0.637778
vn 0.922587 -0.059931 -0.381106
vn -0.564984 0.559140 0.606758
vn -0.397561 0.886194 0.237917
vn 0.450337 0.885495 -0.114434
vn 0.157615 -0.872966 0.461614
vn -0.964981 0.221693 -0.140230
vn 0.494536 0.154453 -0.855324
vn 0.766995 0.366056 0.526993
vn 0.027024 -0.146941 0.988776
vn 0.522338 -0.563956 0.639623
vn 0.921847 -0.361909 0.138635
vn 0.594514 0.664657 0.452531
vn 0.193799 0.691727 0.695669
vn -0.408463 0.746413 0.525381
vn 0.490936 0.574084 0.655293
vn 0.748273 0.063476 0.660347
vn -0.457864 -0.476711 -0.750405
vn -0.607889 0.330230 -0.722094
vn -0.998060 -0.007952 0.061743
vn 0.646589 0.012029 -0.762744
vn 0.551756 0.609132 -0.569670
vn 0.864098 0.023085 0.502793
vn 0.002845 0.921983 -0.387220
vn 0.713586 0.331884 0.616967
vn 0.116007 0.177524 0.977255
vn 0.522358 -0.563951 0.639610
vn -0.676293 0.722464 0.143780
vn 0.582048 0.812001 -0.043298
vn 0.978242 -0.059742 0.198679
vn 0.690779 0.704451 -0.163011
vn 0.193795 0.691731 0.695667
vn 0.647979 0.397292 0.649832
vn 0.745366 0.229597 0.625871
vn -0.996199 -0.074045 0.045884
vn -0.004401 -0.354108 0.935194
vn -0.513451 0.045827 0.856895
vn -0.685256 -0.222750 0.693402
vn 0.936946 -0.058742 0.344501
vn 0.986766 -0.008776 0.161914
vn 0.863357 0.407659 -0.297370
vn 0.520607 0.065065 -0.851313
vn 0.633855 0.297580 -0.713914
vn 0.845941 -0.022838 0.532787
vn 0.226258 0.914510 -0.335379
vn 0.804102 -0.023541 0.594025
vn 0.480103 0.020428 -0.876974
vn 0.518762 0.096904 -0.849409
vn 0.182515 0.287754 -0.940152
vn 0.285593 -0.926076 0.246616
vn -0.124488 -0.990995 -0.049304
vn 0.303061 0.944483 0.126909
vn 0.601980 0.313946 0.734206
vn 0.907818 -0.015271 0.419086
vn 0.852435 0.135537 0.504959
vn 0.888300 0.139575 0.437541
vn 0.887325 -0.190238 0.420075
vn 0.767014 0.366047 0.526971
vn 0.547800 0.417878 0.724771
vn 0.566951 0.428631 0.703450
vn 0.485996 0.493138 0.721542
vn 0.581853 0.312290 0.750947
vn 0.633536 -0.449679 0.629619
vn 0.753025 0.186091 0.631129
vn 0.437319 0.406613 0.802133
vn 0.068689 -0.691331 -0.719266
vn 0.374527 -0.111464 -0.920492
vn -0.042906 0.013834 -0.998983
vn -0.421841 0.466173 -0.777646
vn -0.063128 0.893216 -0.445173
vn -0.152617 0.054535 -0.986780
vn -0.681487 0.639159 -0.356444
vn -0.645360 0.742660 -0.178791
vn 0.695450 -0.522771 0.493011
vn 0.642098 -0.493298 0.586828
vn 0.647475 -0.485166 0.587699
vn -0.197178 0.262657 0.944527
vn -0.575992 0.593982 -0.561622
vn -0.125518 -0.894965 -0.428116
vn -0.452336 -0.765696 -0.457277
vn -0.809440 -0.450120 -0.377093
vn -0.947002 0.124058 -0.296305
vn -0.765437 0.524132 -0.373352
vn -0.791611 0.514152 -0.330151
vn -0.975849 0.091793 -0.198223
vn -0.282162 -0.858324 -0.428561
vn -0.798449 -0.480060 -0.363347
vn -0.348813 -0.853748 -0.386579
vn -0.976006 0.122825 -0.179793
vn -0.888795 0.411701 -0.201361
vn -0.092453 -0.980129 0.175498
vn 0.242867 -0.886504 0.393861
vn -0.228836 -0.970589 -0.074777
vn -0.991040 -0.118388 -0.061843
vn -0.893425 -0.103751 0.437068
vn -0.838909 -0.527299 -0.134865
vn -0.792720 -0.609429 -0.013832
vn -0.747731 -0.661555 -0.056949
vn -0.944225 0.329290 0.002804
vn -0.672142 0.389926 0.629431
vn -0.811088 0.584919 -0.002494
vn 0.551688 -0.112425 -0.826439
vn 0.742602 -0.649976 -0.161474
vn 0.846148 -0.383711 0.369864
vn 0.869064 -0.377683 0.319504
vn 0.846742 -0.408839 0.340409
vn 0.923119 -0.358574 -0.138837
vn 0.587563 0.300099 0.751472
vn 0.327635 0.734570 -0.594191
vn 0.390616 0.604131 -0.694582
vn 0.730093 -0.682568 -0.032633
vn 0.754039 -0.536739 0.378598
vn 0.716911 -0.680606 0.151046
vn 0.767007 0.366051 0.526979
vn 0.767010 0.366048 0.526977
vn 0.767010 0.366059 0.526969
vn 0.767002 0.366053 0.526985
vn -0.367006 0.376735 0.850516
vn -0.152971 0.011268 0.988166
vn 0.522339 -0.563945 0.639631
vn -0.048030 0.268909 0.961967
vn 0.018476 0.226739 0.973780
vn 0.522330 -0.563949 0.639636
vn 0.522356 -0.563940 0.639621
vn 0.522353 -0.563947 0.639618
vn 0.522347 -0.563955 0.639615
vn 0.522354 -0.563945 0.639619
vn 0.522349 -0.563945 0.639623
vn -0.746692 0.599433 0.288324
vn -0.893478 0.293564 0.339879
vn -0.664202 0.535415 0.521695
vn 0.585003 0.805070 -0.098156
vn 0.315325 0.802023 0.507276
vn 0.350121 0.667858 0.656797
vn -0.000855 0.510865 0.859660
vn 0.153641 0.606573 0.780041
vn 0.399502 0.445136 0.801406
vn 0.600319 0.402607 0.691031
vn 0.921570 -0.361482 0.141560
vn 0.883991 -0.452358 0.118034
vn 0.921715 -0.361703 0.140047
vn -0.352958 0.608171 0.711020
vn 0.423726 0.608731 0.670748
vn 0.633602 0.768271 -0.091145
vn 0.696101 0.713358 -0.081018
vn 0.193799 0.691728 0.695668
vn 0.193793 0.691733 0.695665
vn 0.193797 0.691729 0.695668
vn 0.193799 0.691728 0.695669
vn 0.193798 0.691727 0.695670
vn 0.193795 0.691730 0.695667
vn -0.593554 0.546698 0.590606
vn -0.393932 0.734798 0.552168
vn 0.662155 -0.393634 0.637654
vn 0.774641 0.159232 0.612026
vn -0.324735 -0.003289 0.945799
vn -0.725958 -0.479436 -0.493079
vn -0.597619 0.415762 -0.685560
vn 0.119782 0.092792 0.988454
vn 0.614290 0.425258 0.664683
vn 0.636764 0.395973 0.661617
vn 0.802128 0.088500 0.590558
vn -0.304937 0.687158 0.659414
vn -0.419344 0.566253 0.709583
vn -0.995064 -0.088648 0.044594
vn -0.893875 -0.448248 0.007785
vn -0.772673 -0.634804 -0.000225
vn -0.773472 -0.633827 -0.001975
vn -0.868148 -0.402662 -0.290142
vn -0.998785 -0.010813 0.048083
vn -0.991635 -0.076267 0.104130
vn -0.218643 -0.558142 0.800420
vn -0.906300 -0.176390 0.384066
vn -0.980644 -0.152981 0.122207
vn -0.951205 -0.126867 0.281273
vn -0.932098 -0.079375 0.353403
vn -0.986797 -0.157076 0.039490
vn -0.895363 0.365833 0.253952
f 41//41 42//42 40//40
f 3//3 42//42 41//41
f 45//45 40//40 42//42
f 104//104 52//52 2//2
f 107//107 106//106 114//114
f 58//58 107//107 105//105
f 55//55 105//105 1//1
f 58//58 105//105 55//55
f 104//104 108//108 112//112
f 104//104 112//112 52//52
f 103//103 108//108 104//104
f 103//103 104//104 2//2
f 103//103 22//22 108//108
f 108//108 22//22 3//3
f 1//1 3//3 41//41
f 1//1 41//41 55//55
f 41//41 24//24 55//55
f 22//22 42//42 3//3
f 44//44 42//42 22//22
f 44//44 23//23 42//42
f 22//22 43//43 44//44
f 43//43 49//49 44//44
f 44//44 46//46 23//23
f 106//106 58//58 113//113
f 106//106 107//107 58//58
f 40//40 24//24 41//41
f 42//42 23//23 46//46
f 45//45 42//42 14//14
f 40//40 45//45 24//24
f 45//45 14//14 54//54
f 109//109 54//54 14//14
f 24//24 45//45 47//47
f 46//46 53//53 42//42
f 42//42 53//53 14//14
f 58//58 55//55 57//57
f 58//58 57//57 56//56
f 26//26 24//24 47//47
f 26//26 57//57 24//24
f 57//57 55//55 24//24
f 17//17 65//65 56//56
f 65//65 156//156 56//56
f 56//56 156//156 58//58
f 58//58 156//156 155//155
f 155//155 93//93 58//58
f 93//93 75//75 58//58
f 58//58 75//75 113//113
f 66//66 160//160 65//65
f 66//66 65//65 17//17
f 48//48 22//22 103//103
f 48//48 103//103 68//68
f 9//9 48//48 50//50
f 50//50 48//48 71//71
f 110//110 9//9 71//71
f 71//71 9//9 50//50
f 9//9 43//43 48//48
f 9//9 49//49 43//43
f 48//48 43//43 22//22
f 49//49 111//111 44//44
f 111//111 110//110 44//44
f 111//111 9//9 110//110
f 44//44 110//110 46//46
f 71//71 46//46 110//110
f 25//25 46//46 71//71
f 74//74 25//25 71//71
f 71//71 70//70 79//79
f 71//71 79//79 73//73
f 71//71 73//73 74//74
f 114//114 113//113 51//51
f 106//106 113//113 114//114
f 112//112 51//51 52//52
f 132//132 4//4 130//130
f 132//132 130//130 131//131
f 10//10 118//118 117//117
f 10//10 115//115 116//116
f 115//115 59//59 116//116
f 116//116 59//59 117//117
f 10//10 116//116 118//118
f 118//118 116//116 117//117
f 57//57 26//26 62//62
f 131//131 120//120 119//119
f 26//26 60//60 61//61
f 60//60 63//63 139//139
f 60//60 139//139 61//61
f 61//61 62//62 26//26
f 62//62 138//138 57//57
f 119//119 4//4 132//132
f 119//119 132//132 131//131
f 120//120 27//27 123//123
f 27//27 122//122 123//123
f 122//122 4//4 119//119
f 123//123 119//119 120//120
f 122//122 119//119 123//123
f 121//121 124//124 129//129
f 124//124 12//12 127//127
f 129//129 127//127 28//28
f 124//124 127//127 129//129
f 128//128 28//28 126//126
f 128//128 126//126 121//121
f 121//121 129//129 125//125
f 129//129 28//28 128//128
f 125//125 128//128 121//121
f 129//129 128//128 125//125
f 26//26 47//47 54//54
f 54//54 47//47 45//45
f 63//63 54//54 109//109
f 60//60 54//54 63//63
f 26//26 54//54 60//60
f 53//53 5//5 14//14
f 147//147 149//149 33//33
f 15//15 149//149 147//147
f 15//15 150//150 151//151
f 33//33 152//152 148//148
f 152//152 150//150 148//148
f 15//15 151//151 149//149
f 151//151 150//150 152//152
f 149//149 152//152 33//33
f 151//151 152//152 149//149
f 93//93 51//51 113//113
f 93//93 113//113 75//75
f 7//7 92//92 93//93
f 155//155 77//77 93//93
f 155//155 64//64 77//77
f 64//64 76//76 77//77
f 93//93 76//76 7//7
f 77//77 76//76 93//93
f 17//17 144//144 66//66
f 133//133 6//6 30//30
f 17//17 134//134 144//144
f 145//145 133//133 30//30
f 66//66 78//78 160//160
f 17//17 56//56 135//135
f 56//56 57//57 135//135
f 138//138 11//11 136//136
f 135//135 136//136 137//137
f 135//135 137//137 17//17
f 57//57 138//138 135//135
f 138//138 136//136 135//135
f 61//61 138//138 62//62
f 138//138 18//18 11//11
f 139//139 18//18 138//138
f 61//61 139//139 138//138
f 142//142 13//13 141//141
f 142//142 141//141 140//140
f 31//31 13//13 142//142
f 31//31 142//142 140//140
f 144//144 134//134 143//143
f 32//32 6//6 133//133
f 32//32 133//133 145//145
f 32//32 145//145 146//146
f 146//146 145//145 30//30
f 34//34 35//35 162//162
f 163//163 35//35 18//18
f 35//35 163//163 162//162
f 160//160 156//156 65//65
f 160//160 155//155 156//156
f 157//157 37//37 160//160
f 157//157 160//160 78//78
f 144//144 143//143 78//78
f 66//66 144//144 78//78
f 2//2 67//67 103//103
f 67//67 19//19 68//68
f 67//67 68//68 103//103
f 68//68 72//72 48//48
f 19//19 72//72 68//68
f 48//48 72//72 71//71
f 72//72 19//19 69//69
f 72//72 69//69 70//70
f 72//72 70//70 71//71
f 159//159 70//70 20//20
f 94//94 87//87 52//52
f 87//87 2//2 52//52
f 81//81 19//19 67//67
f 80//80 67//67 2//2
f 81//81 67//67 80//80
f 2//2 87//87 80//80
f 80//80 87//87 81//81
f 87//87 94//94 89//89
f 87//87 89//89 81//81
f 81//81 89//89 88//88
f 84//84 73//73 79//79
f 159//159 79//79 70//70
f 84//84 79//79 159//159
f 91//91 73//73 85//85
f 73//73 84//84 85//85
f 5//5 53//53 74//74
f 53//53 46//46 25//25
f 53//53 25//25 74//74
f 91//91 74//74 73//73
f 92//92 94//94 52//52
f 93//93 52//52 51//51
f 92//92 52//52 93//93
f 74//74 29//29 5//5
f 102//102 29//29 74//74
f 157//157 173//173 37//37
f 37//37 173//173 39//39
f 157//157 39//39 173//173
f 176//176 174//174 96//96
f 174//174 39//39 38//38
f 174//174 38//38 96//96
f 18//18 139//139 163//163
f 139//139 162//162 163//163
f 161//161 63//63 34//34
f 139//139 63//63 161//161
f 139//139 161//161 162//162
f 161//161 34//34 162//162
f 164//164 165//165 143//143
f 153//153 165//165 164//164
f 16//16 29//29 154//154
f 16//16 154//154 164//164
f 29//29 153//153 154//154
f 154//154 153//153 164//164
f 143//143 101//101 78//78
f 157//157 38//38 39//39
f 101//101 38//38 78//78
f 78//78 38//38 157//157
f 165//165 101//101 143//143
f 101//101 165//165 153//153
f 83//83 20//20 158//158
f 20//20 83//83 159//159
f 159//159 83//83 84//84
f 83//83 91//91 85//85
f 83//83 85//85 84//84
f 19//19 81//81 158//158
f 81//81 88//88 82//82
f 81//81 82//82 158//158
f 158//158 86//86 83//83
f 86//86 91//91 83//83
f 158//158 82//82 86//86
f 82//82 88//88 170//170
f 82//82 170//170 86//86
f 91//91 86//86 8//8
f 176//176 175//175 174//174
f 175//175 172//172 39//39
f 175//175 39//39 174//174
f 171//171 21//21 172//172
f 176//176 95//95 175//175
f 95//95 171//171 175//175
f 175//175 171//171 172//172
f 21//21 171//171 36//36
f 171//171 166//166 36//36
f 36//36 166//166 167//167
f 171//171 95//95 166//166
f 166//166 95//95 167//167
f 98//98 168//168 167//167
f 98//98 99//99 168//168
f 168//168 99//99 169//169
f 168//168 169//169 167//167
f 8//8 86//86 90//90
f 170//170 90//90 86//86
f 170//170 178//178 90//90
f 8//8 102//102 91//91
f 102//102 74//74 91//91
f 97//97 95//95 176//176
f 98//98 167//167 95//95
f 98//98 95//95 97//97
f 99//99 97//97 176//176
f 98//98 97//97 99//99
f 179//179 177//177 101//101
f 177//177 178//178 176//176
f 38//38 101//101 96//96
f 101//101 176//176 96//96
f 177//177 176//176 101//101
f 29//29 179//179 153//153
f 153//153 179//179 101//101
f 178//178 177//177 90//90
f 179//179 90//90 177//177
f 8//8 90//90 100//100
f 100//100 90//90 179//179
f 179//179 29//29 102//102
f 100//100 102//102 8//8
f 179//179 102//102 100//100
