# decimated by Tools/decimate_anatomy.py from 6016 triangles (BodyParts3D, CC BY 4.0)
v -0.01786709 0.00867940 0.10211675
v -0.01483371 0.01220576 0.11442287
v -0.01599401 0.01167475 0.12073812
v -0.01736354 0.01004559 0.13265476
v -0.01719947 0.01019090 0.13380931
v -0.01751378 0.00699484 0.13821615
v -0.01688460 0.00773172 0.13809011
v -0.01717057 0.00602205 0.13969863
v -0.01879981 0.00594220 0.14265938
v -0.01750332 0.00615657 0.14210346
v -0.01481097 0.01610127 0.10448719
v -0.01978303 0.00691893 0.14342723
v -0.02180982 0.00724198 0.14315139
v -0.01810802 0.00927570 0.14163427
v -0.02298680 0.00620555 0.10172928
v -0.02583407 0.00413973 0.13808398
v -0.02639052 0.00473821 0.13773483
v -0.02098225 0.01153440 0.14065219
v -0.02477528 0.00944950 0.10918113
v -0.02460475 0.00965128 0.11138470
v -0.02490139 0.01237216 0.11975468
v -0.02286650 0.01471047 0.12794732
v -0.02260129 0.01467941 0.12806220
v -0.02350201 0.01051572 0.14150937
v -0.02493652 0.01029307 0.14135013
v -0.01744957 0.00687975 0.14257052
v -0.02590158 0.00410769 0.13810498
v -0.02638703 0.00460953 0.13796430
v -0.02627874 0.00421513 0.13824818
v -0.02617770 0.00371982 0.13890293
v -0.02624065 0.00432281 0.14177692
v -0.02427289 0.01185683 0.10204836
v -0.01224445 0.00819004 0.10433493
v -0.01386569 0.00703123 0.10464166
v -0.01217615 0.00825537 0.10522841
v -0.01256100 0.01102872 0.10776400
v -0.01815814 0.00864726 0.10209394
v -0.01354463 0.00718995 0.10356203
v -0.01361180 0.01485368 0.10670280
v -0.01661631 0.01115417 0.12668093
v -0.01733240 0.00961195 0.13502696
v -0.01726847 0.00590204 0.14065892
v -0.01741314 0.00646728 0.14232774
v -0.02252297 0.00551109 0.10193628
v -0.01802043 0.00635764 0.10510625
v -0.01360469 0.01505778 0.10608979
v -0.01920339 0.00565129 0.13935165
v -0.02184882 0.00576789 0.13846565
v -0.02097408 0.00724154 0.13602473
v -0.02398405 0.00416384 0.14020826
v -0.01988165 0.00530834 0.14062785
v -0.02091603 0.00594879 0.14249425
v -0.01797360 0.01043085 0.13888831
v -0.02087556 0.01480648 0.10279277
v -0.02194621 0.00510973 0.10477080
v -0.02345806 0.00607769 0.10576482
v -0.01827447 0.01372042 0.12687413
v -0.02337939 0.00754189 0.13302320
v -0.02458198 0.00650437 0.13595581
v -0.02473737 0.00694713 0.13502463
v -0.02578060 0.00453821 0.14187093
v -0.02651470 0.00481417 0.14066863
v -0.02041563 0.01576751 0.10323848
v -0.02360955 0.01457811 0.11825546
v -0.02132611 0.01630230 0.10925677
v -0.02604546 0.01040542 0.12968395
v -0.02476826 0.01295958 0.12977429
v -0.02621669 0.00891902 0.13266798
v -0.02299422 0.00718341 0.14297945
v -0.01228974 0.00963325 0.10747246
v -0.01332080 0.01060231 0.10985998
v -0.02595912 0.00474922 0.13743670
v -0.02464816 0.00974296 0.11126882
v -0.02597395 0.00913854 0.13025443
v -0.01327848 0.00975142 0.10221870
v -0.01485648 0.00737232 0.10246732
v -0.01267908 0.00815228 0.10298131
v -0.01208553 0.00941307 0.10385712
v -0.01231183 0.00982920 0.10309835
v -0.01221535 0.01252936 0.10387003
v -0.01293501 0.00760753 0.10586726
v -0.01330799 0.00726113 0.10556296
v -0.01227159 0.00947315 0.10735750
v -0.01330186 0.01135591 0.11032673
v -0.01619153 0.00741525 0.10192222
v -0.01931835 0.00595095 0.10236046
v -0.01319979 0.01294194 0.10243601
v -0.01296074 0.01273511 0.10270080
v -0.01324100 0.01318400 0.10241692
v -0.01335105 0.01459432 0.10360949
v -0.01322566 0.01499763 0.10478053
v -0.01557710 0.00778267 0.10742414
v -0.01511380 0.01108935 0.11476816
v -0.01359603 0.01041107 0.10984309
v -0.01486942 0.01246066 0.11428128
v -0.01490514 0.01163273 0.11452440
v -0.01514191 0.01105367 0.11480555
v -0.01642358 0.01099789 0.12037634
v -0.01596171 0.01167677 0.12031275
v -0.01648769 0.01097341 0.12072771
v -0.01631028 0.01141843 0.12380096
v -0.01694380 0.01089191 0.12973218
v -0.01737102 0.00910441 0.13563995
v -0.01738433 0.00853956 0.13674745
v -0.01692522 0.00671760 0.13887940
v -0.01681672 0.00666087 0.13923156
v -0.01708564 0.00621511 0.14121869
v -0.01717937 0.00951792 0.13597806
v -0.01688422 0.00792858 0.13895111
v -0.01693783 0.00670094 0.14107605
v -0.01745251 0.00586473 0.14122589
v -0.01758033 0.00584774 0.14156549
v -0.01717261 0.00633155 0.14176205
v -0.01727198 0.00676754 0.14227713
v -0.01817773 0.00554388 0.14140246
v -0.01831236 0.00643731 0.14291373
v -0.01736956 0.00725171 0.14228172
v -0.01754915 0.00690066 0.14271786
v -0.01945830 0.00620709 0.14290164
v -0.01829226 0.00769397 0.14327669
v -0.01824359 0.00681431 0.14303319
v -0.01847555 0.00741897 0.14329645
v -0.01807042 0.00691518 0.10188288
v -0.02182551 0.00520193 0.10238429
v -0.01911328 0.00665286 0.10185032
v -0.02249385 0.00496529 0.10285764
v -0.02316460 0.00533422 0.10280092
v -0.01400886 0.01498815 0.10319457
v -0.01673509 0.00658945 0.10330710
v -0.02098568 0.00499505 0.10335645
v -0.01686379 0.00788967 0.10800637
v -0.01460738 0.01574258 0.10399294
v -0.01404770 0.01578975 0.10493810
v -0.01502132 0.01596266 0.10426917
v -0.01640013 0.01572199 0.10380509
v -0.02125583 0.00923371 0.11727829
v -0.01725796 0.01020115 0.12973526
v -0.01950948 0.00816888 0.13468959
v -0.02004092 0.00904003 0.12609883
v -0.01735618 0.01021327 0.13489237
v -0.01867123 0.00623394 0.13865521
v -0.02103153 0.00610267 0.13816464
v -0.02037257 0.01386070 0.13164028
v -0.01885033 0.00534058 0.14086047
v -0.02009196 0.00529368 0.14080405
v -0.02222205 0.00558474 0.13847486
v -0.02313765 0.00454902 0.13990909
v -0.02157540 0.00523317 0.14012604
v -0.02268918 0.00516465 0.14121033
v -0.02223473 0.00517278 0.14063720
v -0.01707147 0.00886125 0.13777093
v -0.01793635 0.01115162 0.13610414
v -0.02224235 0.00578360 0.14214965
v -0.02169148 0.00537176 0.14120227
v -0.01987684 0.00613055 0.14282864
v -0.01961442 0.00735646 0.14355555
v -0.02140967 0.00728336 0.14323331
v -0.01836164 0.00775789 0.14336401
v -0.02074251 0.00920300 0.14346028
v -0.02050107 0.00925501 0.14345502
v -0.01976870 0.01092788 0.14214270
v -0.01974591 0.01051127 0.14277504
v -0.02338493 0.00601172 0.10214858
v -0.02201357 0.00736097 0.10137936
v -0.01859599 0.01036126 0.10253004
v -0.01829386 0.01400738 0.10275039
v -0.02352145 0.00601597 0.10230438
v -0.02430891 0.00829999 0.10199442
v -0.02257101 0.00502946 0.10414656
v -0.01799472 0.01640549 0.10387290
v -0.01926587 0.01673766 0.10603802
v -0.02202459 0.00666150 0.10739995
v -0.02388247 0.00596262 0.10476782
v -0.02432059 0.00706676 0.10580812
v -0.02331667 0.00629215 0.10617201
v -0.01618415 0.00978449 0.11253072
v -0.01835618 0.00879149 0.11058904
v -0.02257176 0.00880607 0.11260472
v -0.02030681 0.01517276 0.12436366
v -0.01950525 0.01453056 0.12639081
v -0.02200247 0.00844680 0.12855712
v -0.02120996 0.00788032 0.13252684
v -0.02054115 0.01338815 0.13346922
v -0.01797304 0.01216005 0.13243604
v -0.02563798 0.00379500 0.13864741
v -0.02531558 0.00575665 0.13670544
v -0.02481941 0.00561025 0.13713074
v -0.02545191 0.00526321 0.13715425
v -0.02560808 0.00579874 0.13658704
v -0.02591299 0.00588754 0.13638808
v -0.01953093 0.01171329 0.13865591
v -0.02154694 0.01302683 0.13506179
v -0.02473246 0.00392456 0.14019953
v -0.02575441 0.00369720 0.13881068
v -0.02557531 0.00368948 0.13920097
v -0.02129346 0.01193195 0.13884611
v -0.02035152 0.01113272 0.14189534
v -0.02122526 0.01129838 0.14169501
v -0.02248716 0.01121206 0.14067283
v -0.02103210 0.01171382 0.13983534
v -0.02141971 0.01143460 0.14093270
v -0.02541942 0.00416548 0.14113507
v -0.02540606 0.00369424 0.13980885
v -0.02296309 0.00582284 0.14226622
v -0.02602528 0.00445168 0.14185296
v -0.02613567 0.00369196 0.13876973
v -0.02263572 0.00945367 0.14280159
v -0.02101146 0.01084843 0.14235716
v -0.02016916 0.01088216 0.14227930
v -0.02230855 0.01073857 0.14184966
v -0.02136121 0.01014420 0.14272162
v -0.02214875 0.01065546 0.14204497
v -0.02414110 0.00979878 0.10136039
v -0.02439911 0.00965869 0.10160300
v -0.02449565 0.01013891 0.10163186
v -0.02408097 0.01021360 0.10135089
v -0.02440597 0.01085601 0.10152834
v -0.02086609 0.00737738 0.10153514
v -0.02296949 0.01306560 0.10222532
v -0.02335050 0.01214996 0.10187467
v -0.01820313 0.01533822 0.10290455
v -0.01901455 0.01574944 0.10326877
v -0.02496365 0.00822292 0.10410533
v -0.02390009 0.00610454 0.10321614
v -0.02506453 0.00764825 0.10448735
v -0.02532199 0.01148946 0.10444911
v -0.02529973 0.01078013 0.10453421
v -0.02281380 0.01470660 0.10381570
v -0.02245360 0.01364837 0.10245265
v -0.02120965 0.01544766 0.10344517
v -0.02224868 0.01557555 0.10599495
v -0.02214946 0.01524728 0.10390800
v -0.02153211 0.01617152 0.10672468
v -0.02441471 0.00826578 0.10677736
v -0.02529925 0.01046216 0.10518118
v -0.02334109 0.00883407 0.11175762
v -0.02484656 0.00923728 0.10838254
v -0.02452853 0.00961955 0.11158548
v -0.02472373 0.01184437 0.11291328
v -0.02351688 0.01449320 0.11292830
v -0.02375835 0.01397030 0.11395379
v -0.02337213 0.00907532 0.11566712
v -0.02448030 0.00962992 0.11351535
v -0.02450379 0.00951588 0.11825467
v -0.02327755 0.01484136 0.11404804
v -0.02396823 0.01421879 0.12202404
v -0.02381087 0.01441406 0.12151844
v -0.01632727 0.01304022 0.11981408
v -0.01697107 0.01408037 0.11795062
v -0.01954750 0.01650014 0.11002094
v -0.02087755 0.01649938 0.11132245
v -0.02041073 0.01609431 0.11568710
v -0.02116501 0.01636019 0.11287218
v -0.02415245 0.00933617 0.12176152
v -0.02502329 0.00921006 0.12536397
v -0.02548442 0.00944138 0.12559112
v -0.02523274 0.01086880 0.12047651
v -0.02516323 0.01193096 0.12167926
v -0.02585846 0.00986463 0.12617067
v -0.02601654 0.01046147 0.12928283
v -0.02437944 0.00781488 0.13232216
v -0.02540103 0.00805384 0.13190410
v -0.02507525 0.00919723 0.12553044
v -0.02534084 0.00817766 0.13155350
v -0.02598618 0.00997669 0.12742640
v -0.02129149 0.01420839 0.13091852
v -0.02461385 0.01116058 0.13920392
v -0.02625429 0.00742536 0.13536339
v -0.02636854 0.00911282 0.13349066
v -0.02559684 0.01124403 0.13454495
v -0.02647403 0.00934503 0.13806278
v -0.02398750 0.01031881 0.14154689
v -0.02361623 0.01345232 0.13232967
v -0.02431945 0.01062253 0.14112395
v -0.02541065 0.00711046 0.14266252
v -0.02555144 0.00910217 0.14209193
v -0.02582569 0.00623104 0.14236296
v -0.02558199 0.00924812 0.14203891
v -0.02658352 0.00798541 0.14143112
v -0.02657234 0.00825050 0.14146211
v -0.02650037 0.00860416 0.14107016
v -0.02561515 0.00986353 0.14138470
v -0.02491842 0.01074462 0.14002731
v -0.02637499 0.00864853 0.14137066
v -0.02575597 0.00970457 0.14146213
v -0.02436120 0.00998025 0.14186521
v -0.02517920 0.00992536 0.14175612
v -0.01289728 0.00993280 0.10859397
v -0.01278492 0.00817981 0.10672359
v -0.01719650 0.01065917 0.13228091
v -0.01593651 0.01178345 0.12026944
v -0.01749754 0.01081082 0.13380727
v -0.01741197 0.00718329 0.14239906
v -0.01867281 0.00950550 0.14257001
v -0.01554922 0.01638541 0.10461574
v -0.01488800 0.01618651 0.10540078
v -0.01713215 0.01593360 0.11203746
v -0.01726834 0.01643590 0.10425830
v -0.02056332 0.01557756 0.12168887
v -0.01586629 0.01644616 0.10466383
v -0.02569795 0.00664664 0.13553898
v -0.02558872 0.00664305 0.13546339
v -0.02634941 0.00446613 0.13800137
v -0.02612834 0.00378737 0.13863578
v -0.02627043 0.00468313 0.13770622
v -0.02633567 0.00460974 0.14175187
v -0.02657040 0.00485867 0.14006868
v -0.02635266 0.00435154 0.14110243
v -0.02282253 0.00672247 0.14290243
v -0.02424782 0.01249280 0.10283160
v -0.02449434 0.00949498 0.12090521
v -0.02516126 0.01068488 0.11991729
v -0.02546463 0.00821987 0.13152778
v -0.02580451 0.00762687 0.13437683
v -0.02541194 0.00677910 0.13520771
v -0.02545280 0.00782123 0.13255209
v -0.02630690 0.00619573 0.13658649
v -0.02665399 0.00812594 0.13743030
v -0.02667211 0.00810439 0.13757665
vn 0.082427 0.265461 -0.960592
vn 0.983819 -0.047934 0.172633
vn 0.796704 -0.603083 0.039425
vn 0.684515 -0.720311 -0.112212
vn 0.968149 -0.249695 -0.018423
vn 0.298797 -0.740165 -0.602392
vn 0.952954 -0.196343 -0.230929
vn 0.326143 -0.869606 -0.370695
vn 0.078053 -0.894306 0.440595
vn 0.420484 -0.734675 0.532396
vn 0.248792 0.777405 -0.577706
vn -0.120206 -0.352609 0.928018
vn 0.098815 -0.574070 0.812822
vn 0.846755 0.467463 0.253936
vn -0.344871 -0.243944 -0.906397
vn 0.301047 -0.704054 -0.643179
vn -0.533106 -0.549190 -0.643575
vn 0.023571 0.975110 0.220467
vn -0.986695 -0.134491 0.091347
vn -0.538217 -0.839761 0.071587
vn -0.909295 0.414533 -0.036678
vn -0.395097 0.914918 0.082610
vn 0.015879 0.981876 0.188859
vn -0.225876 0.884396 0.408440
vn -0.302799 0.824564 0.477920
vn 0.784972 0.255586 0.564353
vn -0.410175 -0.682283 -0.605183
vn -0.987271 -0.122532 -0.101405
vn -0.393064 -0.692951 -0.604417
vn -0.936306 -0.351184 0.000763
vn -0.253610 -0.310475 0.916126
vn -0.672333 0.521968 -0.524898
vn 0.936977 -0.345387 -0.052749
vn 0.347160 -0.922112 -0.170847
vn 0.992631 -0.087795 0.083521
vn 0.981709 0.113493 0.152863
vn 0.076707 0.184371 -0.979859
vn 0.323918 -0.900888 -0.288927
vn 0.774069 0.585121 0.241764
vn 0.905997 -0.419072 0.059569
vn 0.943272 -0.294478 -0.153362
vn 0.565243 -0.824726 -0.018119
vn 0.724578 -0.427927 0.540245
vn -0.009449 -0.497443 -0.867445
vn 0.142157 -0.894455 0.423960
vn 0.624229 0.743417 0.240147
vn 0.183233 -0.923443 -0.337163
vn 0.254581 -0.855381 -0.451123
vn 0.254732 -0.906051 -0.337909
vn 0.393749 -0.875945 0.278715
vn -0.042236 -0.963828 -0.263155
vn -0.110376 -0.737063 0.666750
vn 0.777058 0.591267 0.215834
vn 0.104581 0.165736 -0.980609
vn 0.120707 -0.907063 0.403318
vn -0.368301 -0.819773 0.438549
vn 0.689809 0.712870 0.126411
vn 0.056431 -0.982503 -0.177494
vn 0.189271 -0.830833 -0.523349
vn 0.187796 -0.939624 -0.286076
vn 0.226976 -0.744790 0.627511
vn -0.989790 -0.060406 0.129100
vn -0.254105 0.879179 -0.403081
vn -0.733727 0.679284 -0.014754
vn -0.560620 0.828034 0.008065
vn -0.935044 0.354454 0.007443
vn -0.793781 0.606297 0.048121
vn -0.904511 -0.411054 -0.113555
vn -0.134889 -0.107736 0.984986
vn 0.887114 -0.136051 0.441042
vn 0.931103 -0.109631 0.347892
vn -0.447749 -0.613188 -0.650785
vn -0.979747 -0.199069 -0.021603
vn -0.996113 -0.052064 -0.071052
vn 0.194795 0.042290 -0.979932
vn 0.285152 -0.807563 -0.516267
vn 0.607539 -0.509678 -0.609200
vn 0.985722 -0.073693 -0.151399
vn 0.811175 0.032612 -0.583893
vn 0.976766 0.214208 0.006600
vn 0.679739 -0.692462 0.241769
vn 0.265398 -0.915160 0.303390
vn 0.984418 -0.123198 0.125475
vn 0.935378 0.236835 0.262633
vn 0.093657 0.000460 -0.995604
vn 0.289073 -0.845026 -0.449853
vn 0.770399 0.081082 -0.632385
vn 0.826695 0.017914 -0.562365
vn 0.062191 0.223062 -0.972818
vn 0.747334 0.555779 -0.364145
vn 0.882345 0.469901 0.025684
vn 0.252216 -0.862152 0.439411
vn 0.773446 -0.520214 0.362158
vn 0.420645 -0.810062 0.408482
vn 0.928264 0.280410 0.244326
vn 0.956960 -0.124092 0.262352
vn 0.664096 -0.721261 0.196874
vn 0.306806 -0.944513 0.117323
vn 0.912973 -0.368791 0.174565
vn 0.468696 -0.882091 -0.047322
vn 0.852944 -0.520863 0.034471
vn 0.889380 -0.456939 0.014491
vn 0.451258 -0.791675 -0.411846
vn 0.629374 -0.617975 -0.471163
vn 0.567071 -0.583607 -0.581234
vn 0.943682 -0.319982 -0.084119
vn 0.979078 -0.190700 0.070996
vn 0.996625 0.072725 -0.038082
vn 0.958398 0.257224 0.123727
vn 0.941350 0.279585 0.188923
vn 0.535186 -0.834013 0.134160
vn 0.552873 -0.781511 0.289088
vn 0.856740 -0.411795 0.310517
vn 0.937259 -0.015193 0.348303
vn 0.141431 -0.946225 0.290955
vn 0.268373 -0.488586 0.830217
vn 0.881890 0.381731 0.276680
vn 0.509662 -0.344387 0.788443
vn 0.068020 -0.573378 0.816462
vn 0.719840 0.248545 0.648118
vn 0.392976 -0.276576 0.876969
vn 0.296678 -0.259011 0.919182
vn 0.143599 -0.212998 -0.966442
vn 0.186258 -0.782432 -0.594229
vn 0.127450 -0.441823 -0.888003
vn -0.096612 -0.988121 -0.119513
vn -0.677430 -0.727024 -0.111910
vn 0.162916 0.579066 -0.798837
vn 0.254292 -0.930985 -0.261921
vn 0.234345 -0.960047 0.152947
vn 0.181231 -0.893806 0.410202
vn 0.353202 0.795094 -0.493025
vn 0.583627 0.805388 0.103583
vn 0.050631 0.818091 -0.572855
vn 0.080881 0.624700 -0.776665
vn 0.177545 -0.983360 -0.038470
vn 0.501523 -0.862801 -0.063641
vn 0.442279 -0.879051 -0.177929
vn 0.363383 -0.930584 -0.044350
vn 0.905360 0.409190 0.113520
vn 0.203837 -0.768710 -0.606247
vn 0.234052 -0.802112 -0.549395
vn 0.379685 0.903848 0.197226
vn 0.178403 -0.982468 -0.054119
vn 0.003688 -0.992620 0.121209
vn 0.310212 -0.813688 -0.491609
vn 0.330521 -0.915052 -0.231163
vn 0.261633 -0.925111 0.275171
vn 0.292974 -0.862640 0.412332
vn 0.347261 -0.888292 0.300578
vn 0.906367 0.405301 0.119290
vn 0.690838 0.701448 0.175251
vn 0.094215 -0.754017 0.650063
vn 0.043995 -0.967679 0.248319
vn -0.087817 -0.668774 0.738261
vn 0.095529 -0.093340 0.991041
vn -0.163474 -0.286665 0.943981
vn 0.312084 0.281634 0.907351
vn -0.204567 0.174353 0.963200
vn 0.186149 0.243268 0.951929
vn 0.619199 0.735308 0.275527
vn 0.245613 0.528699 0.812497
vn -0.597591 -0.458282 -0.657923
vn 0.016039 -0.166698 -0.985878
vn 0.020430 0.120112 -0.992550
vn -0.041089 0.037941 -0.998435
vn -0.831158 -0.419834 -0.364576
vn -0.883538 -0.226545 -0.409924
vn -0.413250 -0.890667 0.189572
vn 0.072651 0.821231 -0.565952
vn -0.089759 0.993912 -0.063887
vn -0.103939 -0.894060 0.435722
vn -0.718220 -0.687506 0.107211
vn -0.800208 -0.403629 0.443565
vn -0.549478 -0.508214 0.663169
vn 0.281852 -0.928815 0.240547
vn 0.135809 -0.920933 0.365291
vn 0.164137 -0.959371 0.229490
vn 0.350860 0.929186 0.116238
vn 0.475086 0.860527 0.183809
vn 0.173567 -0.978131 -0.114601
vn 0.234794 -0.954023 -0.186312
vn 0.128265 0.952512 0.276167
vn 0.619216 0.763342 0.184069
vn 0.373700 -0.776489 -0.507359
vn 0.212771 -0.828172 -0.518518
vn 0.331529 -0.690703 -0.642664
vn 0.338958 -0.677002 -0.653281
vn 0.216505 -0.688959 -0.691709
vn 0.201363 -0.877961 -0.434324
vn 0.394621 0.890449 0.226659
vn -0.079499 0.956285 0.281424
vn 0.281266 -0.899652 0.333939
vn 0.073075 -0.992233 -0.100665
vn 0.363137 -0.919212 -0.152250
vn -0.095570 0.959205 0.266066
vn 0.177568 0.947786 0.264900
vn -0.161330 0.886985 0.432701
vn -0.244325 0.922394 0.299156
vn 0.141006 0.971687 0.189585
vn -0.204136 0.963962 0.170602
vn 0.102072 -0.902967 0.417411
vn 0.102566 -0.989125 0.105411
vn 0.144694 -0.589024 0.795056
vn -0.085053 -0.927518 0.363972
vn -0.209860 -0.964715 0.159009
vn -0.243879 0.560855 0.791179
vn -0.170450 0.625107 0.761701
vn 0.027079 0.825148 0.564267
vn -0.325211 0.845641 0.423236
vn -0.246778 0.543117 0.802574
vn -0.299119 0.635086 0.712175
vn -0.329079 -0.175946 -0.927766
vn -0.934015 -0.149093 -0.324635
vn -0.957546 -0.038560 -0.285688
vn 0.153494 0.149259 -0.976812
vn -0.725148 0.276505 -0.630639
vn 0.178579 0.167108 -0.969631
vn -0.235199 0.462010 -0.855119
vn 0.166737 0.187684 -0.967974
vn 0.071262 0.458338 -0.885916
vn 0.017964 0.669918 -0.742217
vn -0.926145 -0.184508 -0.328957
vn -0.878768 -0.370109 -0.301308
vn -0.929592 -0.363640 0.060201
vn -0.878647 0.475264 -0.045867
vn -0.966029 -0.095666 -0.240077
vn -0.720346 0.646979 -0.250039
vn -0.425476 0.625128 -0.654358
vn -0.435525 0.649836 -0.622922
vn -0.758583 0.649834 -0.047621
vn -0.453830 0.827982 -0.329369
vn -0.473418 0.878713 -0.061141
vn -0.732060 -0.636604 0.242536
vn -0.983089 -0.140766 0.117138
vn -0.454521 -0.873024 0.176750
vn -0.911955 -0.393526 0.116084
vn -0.562512 -0.822727 0.081860
vn -0.982330 0.186850 0.010724
vn -0.841595 0.539977 -0.011970
vn -0.885047 0.463752 -0.040333
vn -0.194916 -0.980282 0.032478
vn -0.427887 -0.903753 -0.011951
vn -0.397239 -0.917575 -0.016038
vn -0.710693 0.703335 -0.015367
vn -0.874340 0.484663 -0.025151
vn -0.575916 0.816937 0.030562
vn 0.758927 0.629622 0.166150
vn 0.572514 0.787694 0.227521
vn 0.124947 0.988671 0.083174
vn -0.106261 0.994031 0.024728
vn 0.066269 0.994055 0.086386
vn -0.352090 0.934245 0.056737
vn -0.195671 -0.975776 -0.097844
vn -0.369338 -0.916627 -0.152916
vn -0.725134 -0.665466 -0.177022
vn -0.982163 -0.145924 -0.118580
vn -0.939241 0.340690 -0.041921
vn -0.985109 -0.125969 -0.117013
vn -0.974356 0.214986 -0.066416
vn -0.161707 -0.963088 -0.215205
vn 0.031739 -0.908103 -0.417542
vn -0.379877 -0.907967 -0.176888
vn -0.161949 -0.970085 -0.180854
vn -0.994670 0.078150 -0.067261
vn -0.071051 0.968337 0.239324
vn -0.416655 0.878115 0.235186
vn -0.884089 -0.242734 -0.399334
vn -0.992010 -0.066156 -0.107425
vn -0.862094 0.502749 0.063538
vn -0.941546 0.336245 -0.020723
vn -0.262096 0.651948 0.711526
vn -0.355298 0.906671 0.227403
vn -0.181239 0.920937 0.345004
vn -0.308049 0.080650 0.947946
vn -0.342001 0.249648 0.905931
vn -0.412690 -0.156286 0.897364
vn -0.436704 0.469187 0.767563
vn -0.987906 -0.019468 0.153828
vn -0.900980 0.180667 0.394455
vn -0.830771 0.544233 0.116747
vn -0.538154 0.756553 0.371507
vn -0.547270 0.805378 0.227734
vn -0.839324 0.471228 0.271071
vn -0.755350 0.636672 0.155226
vn -0.115421 0.769589 0.628021
vn -0.276572 0.615091 0.738357
vn 0.273004 -0.852113 0.446511
vn 0.428385 -0.715638 0.551679
vn 0.893842 0.428508 0.132014
vn 0.924178 0.349802 0.153406
vn 0.867067 0.479172 0.136341
vn 0.764899 0.345853 0.543429
vn 0.730402 0.478427 0.487463
vn 0.328278 0.941662 -0.074211
vn 0.320037 0.939066 0.125425
vn 0.451470 0.871216 0.192765
vn 0.094826 0.932388 -0.348799
vn 0.313681 0.936964 0.153956
vn 0.144733 0.986406 0.077813
vn -0.565082 -0.570851 -0.595661
vn -0.436734 -0.628663 -0.643465
vn -0.399924 -0.684093 -0.609982
vn -0.420975 -0.684463 -0.595223
vn -0.434303 -0.632869 -0.640981
vn -0.919000 -0.060364 0.389608
vn -0.995910 -0.090246 -0.004371
vn -0.927587 -0.368160 0.063569
vn -0.127547 -0.255629 0.958324
vn -0.785985 0.562091 -0.257451
vn -0.859887 -0.510029 0.021548
vn -0.974489 -0.223209 -0.023418
vn -0.702483 -0.691864 -0.166859
vn -0.854503 -0.471615 -0.217724
vn -0.700127 -0.620064 -0.354037
vn -0.790372 -0.574220 -0.213502
vn -0.981288 -0.104283 -0.161863
vn -0.986376 -0.091436 -0.136753
vn -0.999346 -0.016661 -0.032092
f 76//76 85//85 77//77
f 77//77 38//38 76//76
f 75//75 77//77 85//85
f 89//89 87//87 75//75
f 75//75 79//79 77//77
f 79//79 75//75 80//80
f 88//88 75//75 87//87
f 88//88 80//80 75//75
f 38//38 77//77 34//34
f 33//33 82//82 77//77
f 35//35 82//82 33//33
f 82//82 34//34 77//77
f 289//289 81//81 35//35
f 77//77 78//78 33//33
f 79//79 78//78 77//77
f 78//78 80//80 33//33
f 80//80 78//78 79//79
f 33//33 80//80 35//35
f 83//83 36//36 70//70
f 35//35 36//36 83//83
f 80//80 36//36 35//35
f 81//81 82//82 35//35
f 289//289 82//82 81//81
f 35//35 83//83 289//289
f 83//83 70//70 289//289
f 82//82 289//289 92//92
f 289//289 70//70 288//288
f 289//289 288//288 94//94
f 289//289 94//94 92//92
f 70//70 36//36 71//71
f 80//80 84//84 36//36
f 80//80 39//39 84//84
f 95//95 39//39 248//248
f 84//84 39//39 95//95
f 85//85 76//76 123//123
f 123//123 76//76 86//86
f 38//38 129//129 76//76
f 38//38 34//34 129//129
f 129//129 86//86 76//76
f 37//37 85//85 123//123
f 37//37 123//123 218//218
f 1//1 85//85 37//37
f 165//165 75//75 85//85
f 89//89 80//80 87//87
f 87//87 80//80 88//88
f 165//165 89//89 75//75
f 80//80 90//90 91//91
f 89//89 90//90 80//80
f 89//89 128//128 90//90
f 34//34 82//82 130//130
f 82//82 92//92 45//45
f 82//82 45//45 130//130
f 86//86 34//34 130//130
f 129//129 34//34 86//86
f 130//130 45//45 92//92
f 80//80 91//91 39//39
f 39//39 91//91 46//46
f 11//11 133//133 132//132
f 132//132 90//90 128//128
f 133//133 90//90 132//132
f 91//91 90//90 133//133
f 46//46 91//91 133//133
f 92//92 94//94 176//176
f 84//84 93//93 71//71
f 96//96 93//93 84//84
f 84//84 71//71 36//36
f 93//93 94//94 288//288
f 97//97 94//94 93//93
f 176//176 94//94 97//97
f 96//96 84//84 95//95
f 96//96 95//95 2//2
f 176//176 97//97 98//98
f 2//2 99//99 96//96
f 2//2 3//3 99//99
f 96//96 97//97 93//93
f 99//99 97//97 96//96
f 98//98 97//97 99//99
f 2//2 95//95 291//291
f 95//95 248//248 291//291
f 98//98 99//99 100//100
f 99//99 3//3 100//100
f 138//138 137//137 4//4
f 4//4 5//5 41//41
f 6//6 141//141 142//142
f 47//47 142//142 141//141
f 47//47 141//141 6//6
f 6//6 104//104 7//7
f 103//103 104//104 6//6
f 104//104 103//103 7//7
f 138//138 4//4 103//103
f 138//138 103//103 49//49
f 142//142 103//103 6//6
f 49//49 103//103 142//142
f 7//7 103//103 109//109
f 103//103 4//4 41//41
f 103//103 41//41 109//109
f 41//41 108//108 109//109
f 5//5 108//108 41//41
f 151//151 109//109 108//108
f 47//47 144//144 51//51
f 8//8 47//47 6//6
f 105//105 6//6 7//7
f 8//8 6//6 106//106
f 6//6 105//105 106//106
f 105//105 7//7 106//106
f 109//109 107//107 7//7
f 110//110 107//107 109//109
f 42//42 106//106 107//107
f 106//106 42//42 8//8
f 7//7 107//107 106//106
f 107//107 110//110 113//113
f 112//112 107//107 113//113
f 47//47 8//8 144//144
f 8//8 42//42 144//144
f 115//115 144//144 42//42
f 109//109 14//14 110//110
f 14//14 117//117 110//110
f 112//112 115//115 111//111
f 111//111 42//42 107//107
f 111//111 107//107 112//112
f 115//115 42//42 111//111
f 115//115 112//112 10//10
f 10//10 9//9 115//115
f 14//14 109//109 53//53
f 115//115 9//9 154//154
f 154//154 9//9 52//52
f 110//110 114//114 113//113
f 110//110 117//117 114//114
f 114//114 293//293 26//26
f 113//113 43//43 10//10
f 113//113 114//114 43//43
f 113//113 10//10 112//112
f 10//10 43//43 118//118
f 43//43 114//114 118//118
f 114//114 26//26 118//118
f 117//117 293//293 114//114
f 116//116 9//9 10//10
f 10//10 118//118 116//116
f 9//9 116//116 119//119
f 116//116 118//118 121//121
f 118//118 26//26 120//120
f 118//118 120//120 122//122
f 118//118 122//122 121//121
f 26//26 293//293 120//120
f 293//293 117//117 294//294
f 293//293 294//294 120//120
f 294//294 117//117 14//14
f 156//156 116//116 122//122
f 122//122 116//116 121//121
f 155//155 9//9 119//119
f 12//12 119//119 116//116
f 155//155 119//119 12//12
f 116//116 156//156 12//12
f 122//122 120//120 156//156
f 169//169 127//127 126//126
f 130//130 55//55 126//126
f 126//126 55//55 169//169
f 126//126 127//127 44//44
f 44//44 124//124 126//126
f 124//124 130//130 126//126
f 44//44 127//127 163//163
f 15//15 44//44 163//163
f 163//163 127//127 167//167
f 130//130 124//124 86//86
f 86//86 125//125 123//123
f 124//124 125//125 86//86
f 124//124 44//44 125//125
f 218//218 123//123 164//164
f 123//123 125//125 164//164
f 125//125 44//44 164//164
f 15//15 164//164 44//44
f 218//218 165//165 37//37
f 37//37 165//165 1//1
f 1//1 165//165 85//85
f 128//128 89//89 135//135
f 128//128 135//135 132//132
f 132//132 134//134 11//11
f 134//134 135//135 11//11
f 132//132 135//135 134//134
f 295//295 133//133 11//11
f 296//296 133//133 295//295
f 295//295 300//300 296//296
f 296//296 297//297 133//133
f 300//300 297//297 296//296
f 299//299 297//297 300//300
f 299//299 39//39 297//297
f 297//297 46//46 133//133
f 39//39 46//46 297//297
f 89//89 170//170 135//135
f 135//135 298//298 11//11
f 170//170 298//298 135//135
f 131//131 130//130 92//92
f 55//55 130//130 131//131
f 172//172 55//55 131//131
f 92//92 177//177 131//131
f 177//177 178//178 131//131
f 178//178 172//172 131//131
f 299//299 248//248 249//249
f 299//299 249//249 39//39
f 249//249 248//248 39//39
f 178//178 176//176 98//98
f 98//98 136//136 178//178
f 136//136 236//236 178//178
f 291//291 292//292 290//290
f 248//248 292//292 291//291
f 98//98 100//100 136//136
f 100//100 137//137 139//139
f 100//100 139//139 136//136
f 5//5 4//4 102//102
f 102//102 137//137 40//40
f 4//4 137//137 102//102
f 40//40 137//137 101//101
f 101//101 100//100 3//3
f 137//137 100//100 101//101
f 248//248 57//57 292//292
f 57//57 184//184 292//292
f 136//136 139//139 181//181
f 139//139 137//137 181//181
f 137//137 138//138 181//181
f 138//138 49//49 182//182
f 49//49 58//58 182//182
f 181//181 58//58 254//254
f 138//138 182//182 181//181
f 182//182 58//58 181//181
f 5//5 290//290 140//140
f 290//290 292//292 140//140
f 108//108 5//5 140//140
f 108//108 140//140 151//151
f 140//140 292//292 151//151
f 53//53 109//109 151//151
f 152//152 292//292 184//184
f 53//53 151//151 152//152
f 151//151 292//292 152//152
f 191//191 161//161 53//53
f 53//53 161//161 14//14
f 147//147 185//185 146//146
f 147//147 203//203 195//195
f 147//147 195//195 185//185
f 147//147 149//149 50//50
f 115//115 154//154 144//144
f 144//144 145//145 51//51
f 154//154 145//145 144//144
f 154//154 47//47 51//51
f 145//145 154//154 51//51
f 147//147 142//142 47//47
f 147//147 47//47 148//148
f 47//47 154//154 148//148
f 154//154 149//149 148//148
f 149//149 154//154 153//153
f 147//147 48//48 142//142
f 146//146 48//48 147//147
f 149//149 147//147 150//150
f 147//147 148//148 150//150
f 150//150 148//148 149//149
f 149//149 153//153 61//61
f 12//12 52//52 155//155
f 155//155 52//52 9//9
f 153//153 154//154 52//52
f 205//205 61//61 13//13
f 204//204 153//153 13//13
f 153//153 204//204 61//61
f 61//61 204//204 13//13
f 13//13 153//153 157//157
f 153//153 52//52 157//157
f 12//12 156//156 159//159
f 52//52 12//12 157//157
f 12//12 159//159 157//157
f 156//156 120//120 158//158
f 156//156 160//160 159//159
f 158//158 160//160 156//156
f 69//69 13//13 157//157
f 69//69 157//157 159//159
f 69//69 159//159 275//275
f 120//120 294//294 158//158
f 158//158 294//294 162//162
f 161//161 162//162 294//294
f 161//161 294//294 14//14
f 162//162 160//160 158//158
f 15//15 213//213 164//164
f 213//213 216//216 164//164
f 168//168 15//15 163//163
f 168//168 163//163 167//167
f 54//54 165//165 218//218
f 166//166 54//54 89//89
f 165//165 166//166 89//89
f 54//54 166//166 165//165
f 54//54 229//229 63//63
f 63//63 221//221 54//54
f 54//54 221//221 89//89
f 127//127 169//169 173//173
f 175//175 56//56 172//172
f 172//172 56//56 55//55
f 127//127 173//173 225//225
f 127//127 224//224 167//167
f 225//225 224//224 127//127
f 169//169 55//55 56//56
f 169//169 56//56 173//173
f 225//225 223//223 224//224
f 224//224 168//168 167//167
f 223//223 168//168 224//224
f 173//173 56//56 174//174
f 173//173 174//174 225//225
f 63//63 170//170 222//222
f 63//63 222//222 221//221
f 221//221 170//170 89//89
f 170//170 221//221 222//222
f 298//298 300//300 295//295
f 171//171 300//300 298//298
f 298//298 170//170 171//171
f 170//170 63//63 171//171
f 172//172 174//174 175//175
f 172//172 234//234 174//174
f 175//175 174//174 56//56
f 171//171 250//250 300//300
f 250//250 299//299 300//300
f 172//172 236//236 234//234
f 172//172 178//178 236//236
f 178//178 177//177 176//176
f 176//176 177//177 92//92
f 254//254 242//242 136//136
f 136//136 242//242 236//236
f 248//248 299//299 179//179
f 181//181 254//254 136//136
f 255//255 254//254 261//261
f 263//263 264//264 262//262
f 255//255 264//264 263//263
f 261//261 264//264 255//255
f 179//179 57//57 248//248
f 184//184 57//57 180//180
f 57//57 179//179 180//180
f 179//179 143//143 180//180
f 261//261 254//254 58//58
f 261//261 58//58 60//60
f 184//184 180//180 143//143
f 186//186 189//189 190//190
f 58//58 49//49 60//60
f 261//261 60//60 190//190
f 264//264 261//261 262//262
f 262//262 261//261 190//190
f 191//191 53//53 152//152
f 143//143 152//152 184//184
f 191//191 152//152 143//143
f 191//191 143//143 183//183
f 143//143 192//192 183//183
f 192//192 191//191 183//183
f 146//146 187//187 186//186
f 187//187 146//146 185//185
f 187//187 185//185 188//188
f 188//188 185//185 16//16
f 16//16 185//185 206//206
f 185//185 194//194 206//206
f 187//187 188//188 186//186
f 72//72 27//27 305//305
f 27//27 304//304 305//305
f 304//304 29//29 305//305
f 305//305 29//29 303//303
f 305//305 303//303 17//17
f 315//315 72//72 302//302
f 301//301 305//305 17//17
f 72//72 305//305 302//302
f 305//305 301//301 302//302
f 189//189 186//186 188//188
f 190//190 188//188 16//16
f 189//189 188//188 190//190
f 49//49 48//48 146//146
f 142//142 48//48 49//49
f 190//190 60//60 59//59
f 49//49 59//59 60//60
f 146//146 186//186 49//49
f 49//49 186//186 59//59
f 59//59 186//186 190//190
f 192//192 196//196 191//191
f 200//200 18//18 191//191
f 200//200 191//191 196//196
f 50//50 193//193 147//147
f 50//50 149//149 193//193
f 147//147 193//193 203//203
f 203//203 206//206 194//194
f 195//195 194//194 185//185
f 203//203 194//194 195//195
f 193//193 149//149 202//202
f 203//203 202//202 206//206
f 193//193 202//202 203//203
f 307//307 28//28 30//30
f 30//30 31//31 308//308
f 30//30 308//308 307//307
f 307//307 308//308 306//306
f 308//308 31//31 306//306
f 307//307 306//306 62//62
f 319//319 28//28 307//307
f 201//201 198//198 18//18
f 18//18 198//198 197//197
f 18//18 197//197 191//191
f 191//191 197//197 161//161
f 198//198 210//210 212//212
f 18//18 199//199 201//201
f 201//201 199//199 198//198
f 196//196 192//192 267//267
f 18//18 196//196 199//199
f 196//196 267//267 199//199
f 200//200 196//196 18//18
f 198//198 199//199 210//210
f 199//199 24//24 210//210
f 199//199 267//267 24//24
f 210//210 24//24 212//212
f 205//205 202//202 61//61
f 205//205 206//206 202//202
f 61//61 202//202 149//149
f 306//306 31//31 277//277
f 306//306 277//277 279//279
f 277//277 275//275 280//280
f 277//277 280//280 279//279
f 306//306 279//279 62//62
f 62//62 279//279 307//307
f 307//307 279//279 319//319
f 280//280 319//319 279//279
f 277//277 31//31 309//309
f 277//277 309//309 275//275
f 69//69 309//309 13//13
f 275//275 309//309 69//69
f 212//212 272//272 207//207
f 24//24 272//272 212//212
f 162//162 159//159 160//160
f 208//208 159//159 162//162
f 161//161 197//197 162//162
f 197//197 209//209 162//162
f 198//198 208//208 162//162
f 197//197 198//198 209//209
f 209//209 198//198 162//162
f 159//159 208//208 211//211
f 208//208 198//198 212//212
f 208//208 212//212 211//211
f 159//159 211//211 207//207
f 211//211 212//212 207//207
f 15//15 168//168 213//213
f 168//168 214//214 213//213
f 164//164 216//216 218//218
f 54//54 218//218 220//220
f 218//218 216//216 220//220
f 214//214 217//217 213//213
f 215//215 217//217 214//214
f 213//213 217//217 216//216
f 215//215 226//226 217//217
f 217//217 226//226 32//32
f 32//32 219//219 217//217
f 219//219 220//220 217//217
f 219//219 54//54 220//220
f 220//220 216//216 217//217
f 214//214 168//168 227//227
f 214//214 227//227 215//215
f 215//215 227//227 226//226
f 219//219 32//32 229//229
f 32//32 226//226 310//310
f 32//32 228//228 229//229
f 219//219 229//229 54//54
f 228//228 32//32 310//310
f 228//228 310//310 226//226
f 229//229 228//228 232//232
f 229//229 230//230 63//63
f 232//232 230//230 229//229
f 225//225 227//227 223//223
f 223//223 227//227 168//168
f 234//234 235//235 174//174
f 235//235 225//225 174//174
f 235//235 226//226 227//227
f 235//235 227//227 225//225
f 228//228 226//226 231//231
f 226//226 240//240 231//231
f 63//63 230//230 232//232
f 171//171 63//63 233//233
f 228//228 231//231 232//232
f 232//232 233//233 63//63
f 231//231 233//233 232//232
f 236//236 237//237 234//234
f 238//238 19//19 237//237
f 237//237 235//235 234//234
f 171//171 233//233 251//251
f 233//233 65//65 251//251
f 236//236 238//238 237//237
f 238//238 20//20 19//19
f 239//239 226//226 235//235
f 239//239 235//235 237//237
f 73//73 239//239 19//19
f 239//239 237//237 19//19
f 226//226 239//239 240//240
f 241//241 240//240 239//239
f 252//252 299//299 250//250
f 253//253 299//299 252//252
f 251//251 250//250 171//171
f 253//253 252//252 251//251
f 252//252 250//250 251//251
f 22//22 299//299 253//253
f 253//253 251//251 65//65
f 239//239 73//73 312//312
f 239//239 312//312 257//257
f 21//21 239//239 257//257
f 239//239 21//21 241//241
f 20//20 238//238 243//243
f 243//243 242//242 244//244
f 238//238 242//242 243//243
f 244//244 254//254 311//311
f 242//242 254//254 244//244
f 238//238 236//236 242//242
f 73//73 311//311 312//312
f 231//231 240//240 245//245
f 22//22 247//247 67//67
f 231//231 245//245 233//233
f 65//65 247//247 253//253
f 253//253 247//247 22//22
f 245//245 64//64 233//233
f 233//233 247//247 65//65
f 64//64 247//247 233//233
f 247//247 64//64 246//246
f 64//64 245//245 241//241
f 245//245 240//240 241//241
f 246//246 241//241 21//21
f 64//64 241//241 246//246
f 254//254 255//255 256//256
f 255//255 263//263 256//256
f 259//259 257//257 256//256
f 256//256 257//257 254//254
f 254//254 312//312 311//311
f 257//257 312//312 254//254
f 258//258 259//259 265//265
f 258//258 21//21 257//257
f 258//258 257//257 259//259
f 259//259 256//256 74//74
f 256//256 263//263 313//313
f 74//74 313//313 314//314
f 256//256 313//313 74//74
f 22//22 179//179 299//299
f 23//23 179//179 22//22
f 74//74 265//265 259//259
f 258//258 265//265 260//260
f 260//260 66//66 258//258
f 66//66 67//67 258//258
f 273//273 23//23 22//22
f 67//67 247//247 246//246
f 273//273 22//22 67//67
f 258//258 67//67 21//21
f 67//67 246//246 21//21
f 23//23 143//143 179//179
f 266//266 143//143 23//23
f 74//74 314//314 68//68
f 265//265 74//74 66//66
f 265//265 66//66 260//260
f 266//266 23//23 273//273
f 266//266 273//273 192//192
f 143//143 266//266 192//192
f 17//17 268//268 301//301
f 302//302 314//314 315//315
f 268//268 314//314 301//301
f 301//301 314//314 302//302
f 314//314 313//313 316//316
f 314//314 316//316 315//315
f 268//268 318//318 314//314
f 314//314 269//269 68//68
f 318//318 269//269 314//314
f 68//68 269//269 74//74
f 74//74 269//269 271//271
f 269//269 318//318 271//271
f 66//66 74//74 270//270
f 66//66 270//270 67//67
f 317//317 28//28 319//319
f 317//317 319//319 318//318
f 318//318 268//268 317//317
f 271//271 270//270 74//74
f 318//318 319//319 271//271
f 319//319 280//280 271//271
f 271//271 281//281 270//270
f 280//280 281//281 271//271
f 270//270 281//281 285//285
f 280//280 284//284 281//281
f 24//24 267//267 274//274
f 192//192 273//273 267//267
f 273//273 67//67 267//267
f 274//274 25//25 24//24
f 25//25 267//267 283//283
f 25//25 274//274 267//267
f 282//282 25//25 283//283
f 285//285 283//283 267//267
f 270//270 267//267 67//67
f 285//285 267//267 270//270
f 283//283 285//285 282//282
f 25//25 282//282 287//287
f 159//159 207//207 276//276
f 159//159 276//276 275//275
f 285//285 278//278 282//282
f 278//278 287//287 282//282
f 275//275 276//276 280//280
f 278//278 285//285 280//280
f 276//276 278//278 280//280
f 285//285 281//281 284//284
f 285//285 284//284 280//280
f 276//276 207//207 278//278
f 207//207 287//287 278//278
f 287//287 286//286 25//25
f 25//25 272//272 24//24
f 287//287 207//207 286//286
f 207//207 272//272 25//25
f 207//207 25//25 286//286
