# decimated by Tools/decimate_anatomy.py from 4224 triangles (BodyParts3D, CC BY 4.0)
v 0.03445398 0.00628117 0.16846812
v 0.03443174 0.00608250 0.16862814
v 0.03478470 0.00622776 0.16895324
v 0.03455326 0.00597356 0.17035080
v 0.03417117 0.00697180 0.17173983
v 0.03255884 0.01703747 0.15094659
v 0.03099424 0.00976392 0.16370443
v 0.02953722 0.01214164 0.15291996
v 0.02825982 0.01206121 0.15647867
v 0.02648332 0.01191400 0.16531450
v 0.02686804 0.00998078 0.16775575
v 0.02756190 0.00676399 0.17188650
v 0.02869962 0.00860364 0.17286892
v 0.02897080 0.01275299 0.14863229
v 0.02630751 0.01649100 0.15136340
v 0.02776169 0.02010055 0.15147336
v 0.02426215 0.01280059 0.15060903
v 0.02373549 0.01394644 0.15691626
v 0.03459595 0.00749073 0.16780318
v 0.03468451 0.00661874 0.17104106
v 0.03208341 0.01303328 0.15581454
v 0.03221989 0.01343677 0.14972895
v 0.03199972 0.01722744 0.15094792
v 0.02977618 0.01944922 0.15136883
v 0.02907868 0.00755773 0.16847461
v 0.02667979 0.01016311 0.16828699
v 0.02711836 0.00712838 0.17169713
v 0.02981426 0.00662467 0.16944051
v 0.02656302 0.00748657 0.17103671
v 0.02827174 0.00746379 0.17301059
v 0.02618906 0.01880222 0.15077586
v 0.02609676 0.01233546 0.16346902
v 0.03483412 0.00622792 0.16938098
v 0.03436971 0.00588422 0.16901162
v 0.03354200 0.00604817 0.16867605
v 0.03459023 0.00611388 0.17053679
v 0.03242489 0.01606570 0.15066981
v 0.03307308 0.00848986 0.16656634
v 0.03160943 0.00654804 0.17106526
v 0.02926268 0.01079076 0.17143374
v 0.02939428 0.01063304 0.17157851
v 0.03009299 0.00683452 0.17211597
v 0.03427272 0.00909941 0.17165576
v 0.02860473 0.01214743 0.15624819
v 0.02738113 0.00709166 0.16952002
v 0.02765171 0.00915631 0.16759854
v 0.02694795 0.01118336 0.16803282
v 0.02658398 0.01997420 0.15273856
v 0.02952245 0.01859669 0.15451274
v 0.02728349 0.01353390 0.14941750
v 0.02263066 0.01297870 0.15220359
v 0.02213856 0.01376821 0.15347466
v 0.03421182 0.00596601 0.17071307
v 0.03314160 0.01527446 0.15106519
v 0.03295793 0.01346358 0.15792722
v 0.03298882 0.01129906 0.16206422
v 0.03219952 0.01372629 0.14984944
v 0.02567676 0.01426439 0.15055592
v 0.02628452 0.01893167 0.15072685
v 0.02756532 0.00716188 0.17246761
v 0.03238605 0.01344728 0.14986321
v 0.02831492 0.02012548 0.15176204
v 0.02701171 0.01180857 0.16072401
v 0.02596119 0.01903183 0.15078910
v 0.02388404 0.01300259 0.15080889
v 0.02357492 0.01227886 0.15229963
v 0.02373458 0.01405004 0.15704522
v 0.02213350 0.01392102 0.15363631
v 0.02286513 0.01748244 0.15322758
v 0.03359271 0.01005773 0.16498204
v 0.03412230 0.00948812 0.16659990
v 0.03414794 0.00946321 0.16671626
v 0.03378610 0.00912175 0.16618899
v 0.03484936 0.00676671 0.16898895
v 0.03456212 0.00598631 0.17034190
v 0.03439490 0.00588284 0.16900981
v 0.03399416 0.00585556 0.16997837
v 0.03465180 0.00940259 0.16968496
v 0.03464741 0.00845807 0.16883767
v 0.03336559 0.01191568 0.16640529
v 0.03435688 0.00679139 0.17166645
v 0.03324531 0.00660469 0.17145156
v 0.03438217 0.00830714 0.17185826
v 0.03465474 0.00895049 0.17113787
v 0.03308655 0.01447463 0.15104103
v 0.03244511 0.01373736 0.15473268
v 0.03284692 0.01661926 0.15260545
v 0.03290237 0.01428701 0.15495596
v 0.03286663 0.01468612 0.15549551
v 0.03288106 0.01488102 0.15471438
v 0.03297601 0.01426754 0.15351763
v 0.03351716 0.01152285 0.16606834
v 0.03229168 0.01327629 0.15466268
v 0.03221105 0.00727377 0.16795486
v 0.03272010 0.00809481 0.16699591
v 0.03236066 0.00692963 0.16818221
v 0.03113878 0.00640807 0.17047860
v 0.03176738 0.00726889 0.17172186
v 0.03217287 0.00645402 0.17108879
v 0.03116187 0.00640370 0.17066069
v 0.03422820 0.00850059 0.17186622
v 0.03403681 0.00954388 0.17136637
v 0.03093294 0.00966693 0.17206235
v 0.03130744 0.01029540 0.17147432
v 0.03279810 0.01337668 0.15245601
v 0.03213189 0.01289402 0.15221924
v 0.03301854 0.01657725 0.15158689
v 0.03216568 0.01628668 0.15494793
v 0.03149908 0.01842439 0.15209275
v 0.03169063 0.00712136 0.16821356
v 0.03330033 0.00923147 0.16567168
v 0.03172072 0.01536589 0.16070506
v 0.03032605 0.01505556 0.16359141
v 0.03063176 0.00713425 0.17212317
v 0.03140085 0.00775143 0.17226082
v 0.03352935 0.01029770 0.17076841
v 0.03054536 0.01049341 0.17144627
v 0.03208822 0.00827484 0.17221239
v 0.02907298 0.00859776 0.17290181
v 0.03159448 0.01415700 0.14980353
v 0.02963533 0.01201002 0.15171032
v 0.03078772 0.01262542 0.15324566
v 0.02981021 0.01951127 0.15144028
v 0.02988117 0.01924148 0.15310179
v 0.02870067 0.02014186 0.15200481
v 0.02948129 0.01971386 0.15246443
v 0.02858886 0.02014972 0.15221093
v 0.02943570 0.00743446 0.16852718
v 0.02834103 0.01156162 0.15817569
v 0.02838259 0.01048789 0.16213079
v 0.02881631 0.00989171 0.16401006
v 0.02901493 0.01192689 0.16938836
v 0.02754927 0.00672667 0.17010332
v 0.02691181 0.01094309 0.16509465
v 0.02843266 0.00781009 0.16848940
v 0.02726194 0.00811541 0.16889220
v 0.02732133 0.00921138 0.16798519
v 0.02692474 0.00948431 0.16826216
v 0.02716937 0.00705524 0.16975540
v 0.02692161 0.00829170 0.16901850
v 0.02657916 0.00982210 0.16873542
v 0.02641774 0.00856860 0.16927233
v 0.02900120 0.01567231 0.16285190
v 0.02775227 0.01182098 0.16872027
v 0.02653086 0.01158960 0.16594091
v 0.02676544 0.01019509 0.16791523
v 0.02706262 0.01130089 0.16814846
v 0.02706237 0.00675099 0.17036049
v 0.02652646 0.00763407 0.17084919
v 0.02650410 0.00792180 0.17059019
v 0.02875949 0.01004079 0.17187961
v 0.02769846 0.01095353 0.17005713
v 0.02863426 0.01316106 0.14882676
v 0.02819140 0.01208796 0.15376827
v 0.02769972 0.01671001 0.15968529
v 0.02823460 0.01670166 0.15981290
v 0.02670617 0.01141410 0.16543612
v 0.02430182 0.01265939 0.15075754
v 0.02444161 0.01196787 0.15171298
v 0.03162127 0.01418321 0.14981344
v 0.02493844 0.01185286 0.15143128
v 0.02648542 0.01228181 0.15455016
v 0.02571919 0.01942738 0.15087999
v 0.02462896 0.01301193 0.15577068
v 0.02378104 0.01241615 0.15361037
v 0.02644139 0.01184277 0.16274967
v 0.02489285 0.01317103 0.16010205
v 0.02610339 0.01226699 0.16333814
v 0.02416880 0.01653113 0.15651099
v 0.02556929 0.01957880 0.15308845
v 0.02496427 0.01422441 0.15085840
v 0.02363817 0.01287040 0.15119405
v 0.02359450 0.01371091 0.15607092
v 0.02392203 0.01595425 0.15219031
v 0.02384831 0.01365619 0.15102100
v 0.02268608 0.01599676 0.15536881
v 0.03393446 0.00892575 0.16649273
v 0.03414267 0.00819639 0.16702286
v 0.03477634 0.00686250 0.17120704
v 0.03412090 0.00592470 0.17067167
v 0.03187420 0.00745926 0.17185550
v 0.03268440 0.01317280 0.15183378
v 0.03170740 0.01237250 0.15104631
v 0.03207391 0.01456455 0.15019061
v 0.03283704 0.01628525 0.15313593
v 0.03330455 0.01099688 0.16315544
v 0.03294563 0.01346707 0.15086894
v 0.03274683 0.01505501 0.15075882
v 0.02920327 0.01279932 0.14858040
v 0.02619964 0.01633091 0.15132486
v 0.03161984 0.01829026 0.15202294
v 0.03136480 0.01527020 0.15032512
v 0.02716371 0.01666005 0.15132627
v 0.02995947 0.01826926 0.15094087
v 0.03117032 0.00659197 0.17127861
v 0.02995400 0.00680789 0.17212279
v 0.03034148 0.00671812 0.17182375
v 0.02969922 0.00679726 0.17208404
v 0.02778528 0.00704791 0.17237806
v 0.02796447 0.00674381 0.17190478
v 0.02815774 0.00742863 0.17300880
v 0.02718867 0.01231184 0.14978681
v 0.02730207 0.01907276 0.15090949
v 0.02865126 0.01981520 0.15138945
v 0.02938023 0.01973362 0.15157710
v 0.02895893 0.01981533 0.15152685
v 0.02842947 0.01999241 0.15158899
v 0.02661136 0.01113709 0.16676118
v 0.02681312 0.01138160 0.16726317
v 0.02713914 0.00677081 0.17078881
v 0.03099954 0.00640481 0.17058777
v 0.02643566 0.00844658 0.16934162
v 0.02682634 0.00725871 0.17128805
v 0.02733235 0.00752120 0.17257166
v 0.02795535 0.00769908 0.17298521
v 0.02756220 0.00795992 0.17290434
v 0.02701317 0.01063402 0.16960388
v 0.02725767 0.00789151 0.17238298
v 0.02751719 0.00793274 0.17290109
v 0.02726600 0.00764485 0.17242432
v 0.02784172 0.01288789 0.14879880
v 0.02813787 0.01315336 0.14886074
v 0.02557181 0.01409386 0.15048427
v 0.02774831 0.01296554 0.14884452
v 0.02613296 0.01859037 0.15081547
v 0.02737594 0.02008917 0.15131246
v 0.02696948 0.01976991 0.15113834
v 0.02726588 0.02011379 0.15135355
v 0.02650923 0.01302982 0.16483334
v 0.02313923 0.01359459 0.15134926
v 0.02546163 0.01288068 0.14996354
v 0.02430436 0.01194618 0.15228865
v 0.02351746 0.01226427 0.15278798
v 0.02310954 0.01263070 0.15279939
v 0.02512729 0.01952190 0.15278755
v 0.02540883 0.01872569 0.15115207
v 0.02468764 0.01912127 0.15205041
v 0.02569456 0.01956792 0.15100418
v 0.02583474 0.01987158 0.15243888
v 0.02314575 0.01806127 0.15253054
v 0.02362796 0.01618143 0.15653820
v 0.02266649 0.01589111 0.15545671
v 0.02357565 0.01465115 0.15666973
v 0.02324269 0.01343420 0.15129840
v 0.02274808 0.01312092 0.15200019
v 0.02275558 0.01283540 0.15239070
v 0.02263736 0.01309328 0.15217862
v 0.02216425 0.01375932 0.15335758
v 0.02263913 0.01368980 0.15224563
v 0.02329617 0.01816032 0.15235740
v 0.02295574 0.01361318 0.15150204
v 0.02232638 0.01569343 0.15310808
v 0.02228040 0.01439263 0.15312798
v 0.02233742 0.01606475 0.15313102
v 0.02260246 0.01605666 0.15501978
v 0.02259263 0.01686158 0.15403190
v 0.02242377 0.01635625 0.15325201
v 0.02227921 0.01544420 0.15332164
vn 0.591314 -0.501888 -0.631234
vn -0.012538 -0.709042 -0.705055
vn 0.958621 -0.034967 -0.282530
vn 0.811150 -0.584102 -0.029327
vn 0.074950 -0.308543 0.948253
vn 0.736647 0.533162 -0.416041
vn 0.143351 -0.898646 -0.414591
vn 0.352318 -0.929609 0.108163
vn -0.469057 -0.860418 -0.199166
vn -0.740463 -0.672045 -0.008383
vn -0.841278 -0.485444 -0.237897
vn -0.120550 -0.992679 -0.007476
vn -0.309373 0.515194 0.799290
vn 0.114521 -0.885505 -0.450294
vn -0.345669 -0.228195 -0.910187
vn 0.221973 0.838398 -0.497812
vn -0.328633 -0.649069 -0.686083
vn -0.640394 -0.755670 0.137325
vn 0.699083 -0.328160 -0.635291
vn 0.890119 -0.403577 0.211692
vn 0.229438 -0.953680 -0.194559
vn 0.296520 0.339092 -0.892800
vn -0.079280 0.011032 -0.996791
vn 0.117827 0.356508 -0.926833
vn -0.624140 -0.740471 -0.249304
vn -0.995830 0.084016 0.035559
vn -0.695446 -0.658994 0.286499
vn -0.188018 -0.919873 -0.344214
vn -0.870216 -0.481632 -0.103708
vn 0.226840 -0.244988 0.942616
vn -0.052354 -0.264491 -0.962966
vn -0.958094 0.033168 0.284527
vn 0.989602 -0.141564 0.025439
vn -0.059585 -0.996073 -0.065478
vn -0.181372 -0.928057 -0.325292
vn 0.921105 -0.355116 0.159553
vn 0.579132 0.117976 -0.806652
vn 0.115182 -0.655520 -0.746342
vn 0.189229 -0.727423 0.659582
vn 0.099344 0.857247 0.505231
vn 0.051934 0.567795 0.821530
vn 0.271816 -0.523942 0.807218
vn 0.242749 0.415635 0.876539
vn 0.212080 -0.953039 -0.216191
vn -0.330300 -0.659788 -0.674968
vn -0.628573 -0.685043 -0.368255
vn -0.866971 0.446814 0.220723
vn -0.143427 0.877172 0.458255
vn 0.196721 0.902214 0.383811
vn -0.093255 0.764670 -0.637638
vn -0.542525 -0.698605 -0.466495
vn -0.617878 -0.720437 0.314955
vn 0.454436 -0.816642 0.355785
vn 0.492078 0.275477 -0.825816
vn 0.994500 0.095033 -0.044018
vn 0.278354 -0.894584 -0.349626
vn 0.386147 0.402481 -0.830000
vn -0.122191 0.533405 -0.836988
vn 0.107814 0.363337 -0.925399
vn -0.182360 -0.800515 0.570894
vn 0.407387 -0.780043 -0.474942
vn 0.221978 0.838408 -0.497793
vn -0.484264 -0.860026 -0.160761
vn -0.409488 -0.287665 -0.865776
vn -0.675004 -0.449443 -0.585125
vn -0.527492 -0.785285 -0.324159
vn -0.922094 -0.088798 0.376641
vn -0.938396 -0.061683 0.340013
vn -0.929921 0.363188 -0.057804
vn 0.719669 -0.526258 -0.452912
vn 0.957305 0.227740 -0.178049
vn 0.965831 0.047718 -0.254740
vn 0.344706 -0.669223 -0.658269
vn 0.996588 0.075079 -0.034286
vn 0.683329 -0.729842 0.019810
vn 0.638376 -0.764271 -0.091466
vn -0.147201 -0.988583 -0.032176
vn 0.950923 0.300049 -0.075608
vn 0.987815 0.081820 -0.132393
vn 0.696379 0.688525 0.202457
vn 0.234447 -0.650400 0.722505
vn -0.101796 -0.602485 0.791612
vn 0.514534 -0.026234 0.857068
vn 0.922656 0.356352 0.147371
vn 0.988852 0.011097 -0.148490
vn 0.850880 -0.522765 -0.052156
vn 0.762338 0.598924 0.245218
vn 0.986851 0.115809 0.112753
vn 0.997363 0.063917 0.034370
vn 0.996768 0.069417 0.040430
vn 0.993131 -0.087697 0.077461
vn 0.938671 0.343899 0.025111
vn 0.838816 -0.489563 -0.238152
vn -0.130793 -0.657966 -0.741602
vn -0.131561 -0.706754 -0.695119
vn -0.183999 -0.639204 -0.746701
vn -0.149314 -0.988689 -0.014137
vn 0.213639 -0.649188 0.730009
vn -0.103854 -0.764455 0.636257
vn -0.116992 -0.981757 0.149888
vn 0.198101 0.130928 0.971398
vn 0.297351 0.680437 0.669767
vn 0.151321 0.549128 0.821925
vn 0.197073 0.643666 0.739498
vn 0.767637 -0.618117 0.169304
vn 0.363771 -0.902562 0.230333
vn 0.972051 0.234572 -0.009689
vn 0.828906 0.535332 0.162282
vn 0.591249 0.765309 0.254415
vn -0.063609 -0.844127 -0.532357
vn 0.276257 -0.781562 -0.559324
vn 0.584499 0.770528 0.254258
vn 0.305140 0.856240 0.416825
vn 0.329269 -0.636160 0.697770
vn 0.205451 -0.320430 0.924724
vn 0.343263 0.828979 0.441547
vn 0.179261 0.788181 0.588758
vn 0.168778 -0.145553 0.974848
vn 0.184593 0.160306 0.969653
vn 0.046665 0.684306 -0.727701
vn 0.088945 -0.993944 0.064529
vn 0.339221 -0.938506 0.064300
vn 0.583490 0.788605 -0.194015
vn 0.603812 0.748936 0.272958
vn 0.207983 0.972601 0.103878
vn 0.416345 0.865521 0.278444
vn 0.157415 0.914617 0.372419
vn -0.201084 -0.836513 -0.509716
vn -0.075255 -0.958813 -0.273887
vn 0.007708 -0.956244 -0.292467
vn -0.086686 -0.890003 -0.447638
vn -0.124177 0.859342 0.496097
vn -0.188882 -0.793034 -0.579154
vn -0.679509 -0.717906 -0.151255
vn -0.371775 -0.644396 -0.668234
vn -0.422449 -0.482439 -0.767326
vn -0.662972 -0.619790 -0.419914
vn -0.628561 -0.460560 -0.626734
vn -0.654133 -0.526706 -0.542855
vn -0.505705 -0.471368 -0.722548
vn -0.980735 0.184129 0.065227
vn -0.891366 -0.197721 -0.407889
vn -0.170499 0.885652 0.431915
vn -0.478920 0.764037 0.432300
vn -0.898835 -0.401301 -0.176218
vn -0.900066 -0.395351 -0.183246
vn -0.787722 0.494054 0.367974
vn -0.775751 -0.598294 -0.200638
vn -0.928659 0.117630 0.351790
vn -0.918340 0.263747 0.295110
vn -0.490493 0.562841 0.665302
vn -0.537260 0.656397 0.529617
vn -0.029140 0.706724 -0.706889
vn -0.073964 -0.997171 0.013396
vn -0.206183 0.876942 0.434121
vn -0.045788 0.943559 0.328025
vn -0.921094 -0.386401 -0.047744
vn -0.392972 -0.741113 -0.544357
vn -0.483090 -0.793996 -0.369046
vn 0.456596 0.194179 -0.868225
vn -0.001816 -0.994729 -0.102522
vn -0.125971 -0.989926 0.064638
vn 0.084285 0.385410 -0.918888
vn -0.494735 -0.867063 0.058651
vn -0.254096 -0.910833 0.325296
vn -0.917445 -0.371593 0.142173
vn -0.675759 -0.735020 0.055638
vn -0.746706 -0.663267 0.050068
vn -0.430593 0.777064 0.459087
vn -0.225079 0.787106 0.574285
vn -0.369495 0.422871 -0.827438
vn -0.584799 -0.631190 -0.509519
vn -0.558975 -0.755013 0.342788
vn -0.376593 0.420345 -0.825523
vn -0.385212 0.408247 -0.827615
vn -0.626634 0.671164 0.396067
vn 0.860259 -0.243982 -0.447691
vn 0.401829 -0.494551 -0.770683
vn 0.965524 -0.063752 0.252388
vn -0.108771 -0.886416 0.449929
vn -0.108840 -0.661762 0.741771
vn 0.663722 -0.747735 0.019113
vn 0.212422 -0.949937 -0.229120
vn 0.589682 0.106783 -0.800545
vn 0.961381 0.200539 0.188495
vn 0.979107 -0.147245 -0.140243
vn 0.883625 -0.437078 -0.167837
vn 0.490511 0.265031 -0.830155
vn 0.156186 0.458798 -0.874706
vn -0.196862 0.381425 -0.903195
vn 0.732294 0.679459 0.045618
vn -0.107763 0.351608 -0.929924
vn -0.075147 0.027281 -0.996799
vn 0.118057 0.354223 -0.927679
vn 0.056267 -0.950515 0.305541
vn -0.007722 -0.878786 0.477154
vn 0.020674 -0.959126 0.282224
vn -0.013930 -0.924471 0.380997
vn -0.100995 -0.831605 0.546108
vn -0.021941 -0.932428 0.360688
vn -0.040959 -0.845221 0.532845
vn -0.034238 -0.935991 -0.350354
vn 0.117513 0.356364 -0.926928
vn 0.221976 0.838391 -0.497823
vn 0.221980 0.838402 -0.497802
vn 0.221977 0.838391 -0.497822
vn 0.221977 0.838399 -0.497809
vn -0.928538 0.284453 0.238545
vn -0.949951 0.202153 0.238176
vn -0.560878 -0.806364 0.187600
vn -0.113071 -0.992981 -0.034698
vn -0.869784 -0.432981 -0.236652
vn -0.722842 -0.656505 0.215640
vn -0.901816 0.029777 0.431094
vn -0.059612 0.145123 0.987616
vn -0.096939 0.158510 0.982587
vn -0.846775 0.379229 0.373039
vn -0.876919 0.288104 0.384719
vn -0.863217 0.296321 0.408718
vn -0.902011 0.037223 0.430104
vn -0.190445 0.313572 -0.930271
vn -0.150768 0.612709 -0.775794
vn -0.356250 0.485576 -0.798312
vn -0.378019 0.411246 -0.829444
vn -0.339117 -0.254469 -0.905674
vn 0.113969 0.361866 -0.925237
vn 0.100544 0.372036 -0.922757
vn -0.181222 0.983248 -0.019540
vn -0.706728 0.557966 0.434982
vn -0.414692 0.388447 -0.822885
vn -0.430448 0.262112 -0.863720
vn -0.122891 -0.975745 0.181160
vn -0.584308 -0.755581 0.296111
vn -0.644225 -0.747832 0.160378
vn -0.535426 0.762409 0.363388
vn -0.430011 -0.219627 -0.875702
vn -0.555311 0.816965 -0.155557
vn -0.449264 0.874758 -0.181550
vn -0.270910 0.961632 -0.043268
vn -0.604571 0.732725 0.312422
vn -0.740809 0.504682 0.443281
vn -0.912746 -0.013143 0.408315
vn -0.919167 0.047042 0.391048
vn -0.690595 -0.369337 -0.621827
vn -0.680179 -0.357659 -0.639872
vn -0.636260 -0.751438 0.174685
vn -0.917449 0.047100 -0.395055
vn -0.918467 0.034294 -0.394008
vn -0.918192 0.035993 -0.394497
vn -0.431220 -0.255679 -0.865262
vn -0.918490 0.029300 -0.394357
vn -0.918739 0.026444 -0.393979
vn -0.918754 0.026169 -0.393963
vn -0.972292 0.233050 0.018342
vn -0.980755 0.134238 0.141776
vn -0.974160 0.209317 0.084839
vn -0.960405 0.277317 0.026786
vn -0.980915 0.131856 0.142894
f 19//19 3//3 1//1
f 1//1 3//3 33//33
f 1//1 33//33 2//2
f 2//2 178//178 1//1
f 2//2 76//76 34//34
f 35//35 94//94 2//2
f 178//178 72//72 19//19
f 177//177 72//72 178//178
f 72//72 79//79 3//3
f 78//78 79//79 72//72
f 178//178 19//19 1//1
f 177//177 71//71 72//72
f 70//70 71//71 177//177
f 2//2 38//38 178//178
f 178//178 73//73 177//177
f 38//38 73//73 178//178
f 94//94 95//95 2//2
f 2//2 95//95 38//38
f 73//73 38//38 111//111
f 111//111 70//70 73//73
f 70//70 177//177 73//73
f 186//186 92//92 70//70
f 70//70 92//92 71//71
f 72//72 71//71 78//78
f 71//71 92//92 80//80
f 71//71 80//80 78//78
f 4//4 34//34 75//75
f 34//34 76//76 75//75
f 76//76 2//2 33//33
f 76//76 33//33 75//75
f 3//3 74//74 33//33
f 20//20 36//36 33//33
f 36//36 4//4 75//75
f 36//36 75//75 33//33
f 34//34 53//53 77//77
f 53//53 180//180 77//77
f 53//53 20//20 179//179
f 53//53 179//179 81//81
f 34//34 77//77 2//2
f 2//2 77//77 35//35
f 81//81 180//180 53//53
f 100//100 35//35 77//77
f 100//100 77//77 180//180
f 100//100 180//180 99//99
f 3//3 79//79 74//74
f 79//79 78//78 84//84
f 84//84 74//74 79//79
f 84//84 179//179 33//33
f 84//84 33//33 74//74
f 80//80 84//84 78//78
f 84//84 80//80 116//116
f 179//179 20//20 33//33
f 179//179 83//83 81//81
f 83//83 5//5 81//81
f 82//82 81//81 5//5
f 181//181 82//82 5//5
f 5//5 83//83 118//118
f 83//83 101//101 118//118
f 39//39 100//100 99//99
f 99//99 180//180 81//81
f 99//99 81//81 82//82
f 83//83 179//179 84//84
f 84//84 116//116 102//102
f 84//84 102//102 43//43
f 83//83 84//84 43//43
f 83//83 43//43 101//101
f 85//85 187//187 6//6
f 85//85 91//91 187//187
f 37//37 54//54 188//188
f 37//37 184//184 160//160
f 188//188 184//184 37//37
f 6//6 191//191 107//107
f 107//107 91//91 85//85
f 107//107 85//85 6//6
f 91//91 105//105 187//187
f 86//86 105//105 91//91
f 185//185 91//91 107//107
f 185//185 89//89 90//90
f 89//89 88//88 90//90
f 185//185 90//90 91//91
f 90//90 88//88 91//91
f 88//88 86//86 91//91
f 107//107 87//87 185//185
f 88//88 185//185 108//108
f 88//88 108//108 55//55
f 108//108 92//92 55//55
f 21//21 186//186 56//56
f 88//88 55//55 86//86
f 92//92 186//186 55//55
f 86//86 186//186 93//93
f 55//55 186//186 86//86
f 21//21 56//56 44//44
f 56//56 186//186 70//70
f 44//44 56//56 7//7
f 56//56 70//70 7//7
f 70//70 111//111 7//7
f 92//92 112//112 80//80
f 110//110 96//96 35//35
f 35//35 96//96 94//94
f 96//96 110//110 94//94
f 110//110 95//95 94//94
f 38//38 95//95 111//111
f 95//95 110//110 111//111
f 111//111 110//110 7//7
f 100//100 97//97 35//35
f 35//35 28//28 110//110
f 28//28 128//128 110//110
f 113//113 80//80 112//112
f 116//116 80//80 113//113
f 98//98 39//39 99//99
f 181//181 99//99 82//82
f 98//98 99//99 181//181
f 181//181 5//5 115//115
f 181//181 115//115 98//98
f 98//98 114//114 39//39
f 98//98 115//115 114//114
f 39//39 114//114 42//42
f 115//115 30//30 42//42
f 115//115 42//42 114//114
f 39//39 195//195 100//100
f 195//195 196//196 197//197
f 195//195 197//197 100//100
f 102//102 116//116 103//103
f 103//103 116//116 104//104
f 104//104 116//116 117//117
f 43//43 102//102 103//103
f 113//113 40//40 116//116
f 183//183 61//61 187//187
f 189//189 120//120 22//22
f 120//120 57//57 22//22
f 61//61 183//183 14//14
f 160//160 184//184 120//120
f 120//120 188//188 57//57
f 184//184 188//188 120//120
f 57//57 54//54 22//22
f 188//188 54//54 57//57
f 187//187 182//182 183//183
f 183//183 182//182 105//105
f 182//182 187//187 105//105
f 122//122 86//86 93//93
f 106//106 86//86 122//122
f 183//183 105//105 106//106
f 105//105 86//86 106//106
f 193//193 23//23 192//192
f 193//193 192//192 190//190
f 123//123 191//191 6//6
f 183//183 106//106 121//121
f 106//106 122//122 121//121
f 122//122 93//93 21//21
f 121//121 122//122 8//8
f 122//122 21//21 44//44
f 107//107 191//191 87//87
f 191//191 108//108 87//87
f 87//87 108//108 185//185
f 109//109 108//108 191//191
f 191//191 123//123 109//109
f 112//112 92//92 108//108
f 109//109 124//124 108//108
f 108//108 124//124 112//112
f 113//113 112//112 143//143
f 143//143 112//112 49//49
f 113//113 132//132 40//40
f 143//143 132//132 113//113
f 131//131 7//7 110//110
f 131//131 128//128 25//25
f 110//110 128//128 131//131
f 46//46 134//134 25//25
f 135//135 46//46 25//25
f 25//25 128//128 135//135
f 128//128 28//28 133//133
f 128//128 133//133 135//135
f 28//28 35//35 97//97
f 100//100 200//200 211//211
f 100//100 197//197 198//198
f 197//197 196//196 198//198
f 100//100 198//198 200//200
f 199//199 12//12 200//200
f 201//201 198//198 196//196
f 200//200 198//198 201//201
f 199//199 200//200 201//201
f 103//103 41//41 13//13
f 40//40 152//152 151//151
f 152//152 217//217 13//13
f 41//41 117//117 40//40
f 103//103 104//104 41//41
f 40//40 117//117 116//116
f 41//41 104//104 117//117
f 119//119 30//30 115//115
f 118//118 115//115 5//5
f 119//119 115//115 118//118
f 215//215 30//30 119//119
f 215//215 119//119 13//13
f 60//60 12//12 199//199
f 60//60 199//199 201//201
f 30//30 215//215 216//216
f 216//216 215//215 13//13
f 118//118 101//101 119//119
f 101//101 43//43 119//119
f 119//119 43//43 103//103
f 119//119 103//103 13//13
f 40//40 151//151 41//41
f 152//152 13//13 151//151
f 151//151 13//13 41//41
f 189//189 153//153 120//120
f 222//222 50//50 153//153
f 221//221 153//153 189//189
f 222//222 153//153 221//221
f 224//224 222//222 221//221
f 50//50 120//120 153//153
f 50//50 58//58 120//120
f 120//120 58//58 160//160
f 121//121 162//162 161//161
f 14//14 183//183 202//202
f 183//183 121//121 161//161
f 161//161 202//202 183//183
f 192//192 58//58 190//190
f 190//190 15//15 193//193
f 8//8 122//122 44//44
f 8//8 44//44 121//121
f 121//121 154//154 162//162
f 44//44 154//154 121//121
f 154//154 44//44 162//162
f 124//124 109//109 126//126
f 109//109 123//123 125//125
f 109//109 125//125 127//127
f 109//109 127//127 126//126
f 49//49 112//112 124//124
f 48//48 49//49 127//127
f 126//126 49//49 124//124
f 127//127 49//49 126//126
f 48//48 155//155 49//49
f 155//155 156//156 49//49
f 155//155 143//143 156//156
f 156//156 143//143 49//49
f 131//131 25//25 130//130
f 7//7 130//130 129//129
f 44//44 129//129 9//9
f 7//7 129//129 44//44
f 131//131 130//130 7//7
f 63//63 25//25 134//134
f 134//134 168//168 166//166
f 229//229 144//144 143//143
f 46//46 11//11 134//134
f 134//134 11//11 157//157
f 134//134 157//157 168//168
f 157//157 10//10 168//168
f 132//132 152//152 40//40
f 144//144 152//152 132//132
f 143//143 144//144 132//132
f 45//45 136//136 135//135
f 135//135 133//133 45//45
f 45//45 133//133 148//148
f 45//45 148//148 139//139
f 28//28 97//97 211//211
f 211//211 97//97 100//100
f 46//46 135//135 137//137
f 135//135 138//138 137//137
f 11//11 46//46 137//137
f 11//11 137//137 138//138
f 141//141 217//217 47//47
f 138//138 141//141 11//11
f 141//141 26//26 11//11
f 11//11 26//26 146//146
f 26//26 141//141 47//47
f 135//135 140//140 138//138
f 140//140 142//142 138//138
f 142//142 141//141 138//138
f 45//45 140//140 136//136
f 139//139 140//140 45//45
f 139//139 212//212 142//142
f 139//139 142//142 140//140
f 136//136 140//140 135//135
f 212//212 150//150 142//142
f 212//212 149//149 150//150
f 142//142 150//150 141//141
f 141//141 150//150 217//217
f 47//47 217//217 152//152
f 47//47 152//152 147//147
f 152//152 144//144 147//147
f 144//144 229//229 147//147
f 146//146 26//26 145//145
f 157//157 145//145 10//10
f 11//11 145//145 157//157
f 146//146 145//145 11//11
f 26//26 47//47 208//208
f 47//47 209//209 208//208
f 208//208 209//209 32//32
f 47//47 147//147 209//209
f 209//209 229//229 32//32
f 147//147 229//229 209//209
f 213//213 27//27 29//29
f 150//150 218//218 217//217
f 150//150 149//149 218//218
f 217//217 218//218 219//219
f 12//12 211//211 200//200
f 12//12 28//28 211//211
f 29//29 212//212 148//148
f 212//212 139//139 148//148
f 29//29 148//148 213//213
f 148//148 133//133 210//210
f 148//148 210//210 213//213
f 213//213 210//210 27//27
f 149//149 214//214 220//220
f 214//214 219//219 220//220
f 149//149 220//220 218//218
f 220//220 219//219 218//218
f 223//223 58//58 50//50
f 223//223 50//50 224//224
f 224//224 50//50 222//222
f 158//158 202//202 161//161
f 158//158 17//17 202//202
f 202//202 17//17 14//14
f 58//58 171//171 190//190
f 190//190 174//174 15//15
f 171//171 174//174 190//190
f 203//203 194//194 59//59
f 24//24 194//194 203//203
f 31//31 23//23 193//193
f 225//225 193//193 15//15
f 31//31 193//193 225//225
f 16//16 62//62 207//207
f 16//16 207//207 204//204
f 62//62 205//205 207//207
f 206//206 205//205 204//204
f 207//207 205//205 206//206
f 207//207 206//206 204//204
f 24//24 203//203 226//226
f 203//203 227//227 226//226
f 203//203 59//59 227//227
f 239//239 125//125 228//228
f 127//127 125//125 239//239
f 127//127 239//239 48//48
f 59//59 163//163 227//227
f 163//163 226//226 227//227
f 162//162 44//44 9//9
f 9//9 25//25 63//63
f 134//134 164//164 63//63
f 63//63 164//164 162//162
f 63//63 162//162 9//9
f 143//143 155//155 169//169
f 155//155 48//48 169//169
f 134//134 166//166 164//164
f 168//168 10//10 167//167
f 164//164 167//167 18//18
f 168//168 167//167 164//164
f 168//168 164//164 166//166
f 241//241 243//243 229//229
f 32//32 229//229 67//67
f 229//229 243//243 67//67
f 229//229 143//143 169//169
f 229//229 169//169 241//241
f 231//231 224//224 221//221
f 175//175 224//224 231//231
f 159//159 158//158 161//161
f 161//161 232//232 159//159
f 231//231 230//230 175//175
f 66//66 158//158 159//159
f 158//158 172//172 17//17
f 66//66 172//172 158//158
f 223//223 224//224 175//175
f 223//223 175//175 171//171
f 161//161 162//162 232//232
f 232//232 162//162 165//165
f 165//165 162//162 164//164
f 164//164 18//18 173//173
f 173//173 165//165 164//164
f 66//66 159//159 232//232
f 66//66 232//232 233//233
f 233//233 232//232 165//165
f 51//51 172//172 66//66
f 66//66 233//233 234//234
f 233//233 173//173 52//52
f 52//52 173//173 18//18
f 233//233 165//165 173//173
f 66//66 234//234 246//246
f 234//234 52//52 246//246
f 233//233 52//52 234//234
f 64//64 31//31 236//236
f 64//64 236//236 250//250
f 15//15 250//250 225//225
f 225//225 236//236 31//31
f 250//250 236//236 225//225
f 228//228 238//238 239//239
f 48//48 239//239 235//235
f 239//239 237//237 235//235
f 239//239 238//238 237//237
f 237//237 238//238 240//240
f 237//237 240//240 235//235
f 240//240 241//241 235//235
f 235//235 170//170 48//48
f 241//241 169//169 235//235
f 169//169 48//48 170//170
f 169//169 170//170 235//235
f 242//242 243//243 241//241
f 243//243 242//242 67//67
f 17//17 172//172 65//65
f 172//172 51//51 245//245
f 65//65 172//172 244//244
f 172//172 245//245 244//244
f 249//249 251//251 247//247
f 249//249 247//247 248//248
f 230//230 174//174 175//175
f 223//223 171//171 58//58
f 174//174 171//171 175//175
f 248//248 253//253 249//249
f 248//248 252//252 253//253
f 252//252 251//251 253//253
f 253//253 251//251 249//249
f 256//256 69//69 257//257
f 69//69 254//254 257//257
f 256//256 257//257 258//258
f 258//258 254//254 68//68
f 257//257 254//254 258//258
f 258//258 68//68 242//242
f 242//242 68//68 67//67
f 242//242 241//241 176//176
f 176//176 241//241 240//240
f 242//242 176//176 255//255
f 258//258 255//255 256//256
f 242//242 255//255 258//258
