# decimated by Tools/decimate_anatomy.py from 11968 triangles (BodyParts3D, CC BY 4.0)
v 0.02485883 0.01383207 0.11037136
v 0.02518260 0.01519622 0.11084699
v 0.02214729 0.02235200 0.10609664
v 0.02055418 0.01338604 0.11232483
v 0.02109640 0.02190959 0.11049840
v 0.02134824 0.01361181 0.09881893
v 0.02093788 0.02279159 0.09997491
v 0.01688565 0.01195327 0.09948002
v 0.01630567 0.01078110 0.10597969
v 0.01622088 0.01100810 0.10843767
v 0.01514656 0.02272733 0.10730188
v 0.01497769 0.02180909 0.11095932
v 0.01585023 0.01343984 0.11248940
v 0.02073824 0.00498664 0.04875263
v 0.01862059 0.00829009 0.05992918
v 0.01886865 0.01279800 0.06475963
v 0.01631467 0.01230381 0.08364646
v 0.01599640 0.01263406 0.09060362
v 0.01335369 0.01177888 0.10416362
v 0.01321329 0.01154381 0.10774458
v 0.01378665 0.01271283 0.11088858
v 0.01299116 0.01228373 0.10849607
v 0.01491011 0.02292014 0.10832032
v 0.01414483 0.01924329 0.11234475
v 0.01730526 0.00691975 0.04452087
v 0.01475989 0.00524409 0.06220089
v 0.01227259 0.01979480 0.09981098
v 0.01473424 0.00159168 0.04711759
v 0.01393672 0.00952100 0.04558101
v 0.01549177 0.00891869 0.04438289
v 0.01323085 0.00998534 0.04690742
v 0.00852602 0.00588548 0.05848532
v 0.01228902 0.01468989 0.07361992
v 0.01063992 -0.00147077 0.04904394
v 0.01220854 0.01231197 0.04859717
v 0.01006173 -0.00125525 0.05456734
v 0.00768109 -0.00258793 0.04794599
v 0.00753187 -0.00276175 0.04803669
v 0.00665596 -0.00300217 0.04990476
v 0.00696844 -0.00221795 0.05097309
v 0.00637403 -0.00101396 0.05160129
v 0.01755964 0.00155162 0.05164804
v 0.01302247 -0.00128349 0.04988163
v 0.01539093 0.00021981 0.04997550
v 0.01289663 -0.00133054 0.05002983
v 0.01396096 0.01129523 0.04682425
v 0.01219167 0.01077950 0.07267020
v 0.01253439 0.00918037 0.04598451
v 0.00956425 -0.00239258 0.04943622
v 0.01268593 0.00991930 0.04710964
v 0.00678015 -0.00161123 0.05165448
v 0.00725400 0.00328615 0.05507105
v 0.00636058 0.00800838 0.04471351
v 0.00671229 -0.00301679 0.04991984
v 0.00680435 -0.00171058 0.05149033
v 0.02600373 0.01536033 0.11000461
v 0.02546168 0.01148368 0.10329034
v 0.02396820 0.01761129 0.10134563
v 0.02477892 0.01900131 0.10412029
v 0.02259953 0.02006617 0.09255143
v 0.02025701 0.01120006 0.10479832
v 0.02442903 0.02122689 0.10335301
v 0.01939613 0.01720476 0.11386047
v 0.02107395 0.01592026 0.08137888
v 0.01928943 0.01211647 0.06911819
v 0.01875173 0.01160205 0.07112515
v 0.02113851 0.01104774 0.10380714
v 0.01663261 0.01135521 0.10319487
v 0.01597341 0.02272482 0.10801013
v 0.01758488 0.02272692 0.10909942
v 0.01779910 0.01360491 0.11286019
v 0.01635238 0.01528996 0.11325464
v 0.01634269 0.01777357 0.11341510
v 0.01807732 0.00528248 0.04486898
v 0.01750602 0.00767638 0.04487329
v 0.01864555 0.01061359 0.06781055
v 0.01841304 0.01044911 0.05553061
v 0.02077488 0.01643274 0.07878654
v 0.01876458 0.01235859 0.06333923
v 0.01774762 0.00710856 0.06310436
v 0.01740283 0.01814281 0.07261530
v 0.01733285 0.01425167 0.06248993
v 0.01462572 0.01280799 0.08512359
v 0.01546593 0.02223630 0.09499807
v 0.01534012 0.01247269 0.09919541
v 0.01405105 0.01219497 0.10281305
v 0.01432487 0.01190108 0.10291204
v 0.01501113 0.02258872 0.10066966
v 0.01366879 0.01100750 0.10760525
v 0.01365930 0.01719232 0.10754967
v 0.01228269 0.01926936 0.10653024
v 0.01332059 0.02029454 0.10972662
v 0.01407968 0.01696453 0.11265052
v 0.01349372 0.01727947 0.11134141
v 0.01388801 0.01772467 0.11045145
v 0.01738256 0.00183941 0.05097465
v 0.01699075 0.00167090 0.05102210
v 0.01613872 0.01164782 0.04965524
v 0.01660574 0.01532755 0.06339558
v 0.01371565 0.02144025 0.09160277
v 0.01345271 0.02240132 0.10511746
v 0.01302369 0.01760001 0.10412860
v 0.01248588 0.02056822 0.10743574
v 0.01542985 0.00857134 0.04423502
v 0.01588571 0.00881093 0.04448615
v 0.01431395 0.00729167 0.04521223
v 0.01460063 0.00864750 0.04481065
v 0.01363431 0.00858814 0.04561990
v 0.01257589 0.01487976 0.06845597
v 0.01087962 -0.00118996 0.04889978
v 0.01011978 0.00173648 0.04698503
v 0.01039329 0.00212712 0.04695935
v 0.01264876 0.00935958 0.04620988
v 0.01280031 0.00988831 0.04708697
v 0.01270281 -0.00157913 0.05256813
v 0.01396100 0.01253396 0.05269035
v 0.01167261 0.00091730 0.05595549
v 0.01211017 0.01302640 0.05852115
v 0.00952212 -0.00192950 0.04872445
v 0.01130663 0.00883947 0.04579810
v 0.00874501 -0.00081778 0.05502897
v 0.00910887 -0.00075638 0.05553900
v 0.00858851 0.00247869 0.05628993
v 0.00781606 0.00148302 0.05573376
v 0.00806827 0.00102604 0.05582220
v 0.00884217 0.00571876 0.05869471
v 0.00619372 0.00042560 0.05339943
v 0.00613131 0.00086202 0.05356725
v 0.00583539 0.00423353 0.05064495
v 0.00592589 0.00379785 0.05161831
v 0.00613092 0.00650692 0.04947609
v 0.02476870 0.01115458 0.10297254
v 0.02199437 0.01150056 0.10839557
v 0.01991717 0.01438332 0.09097311
v 0.01625032 0.01254214 0.09242150
v 0.01546264 0.00013179 0.04830841
v 0.01390445 -0.00106902 0.05093808
v 0.01059265 0.01029504 0.04580249
v 0.01132687 0.01145779 0.04726770
v 0.00648270 -0.00247042 0.05045594
v 0.00692802 0.00119193 0.05491633
v 0.00854518 0.00249013 0.05625349
v 0.00609588 0.00610937 0.04471337
v 0.02565934 0.01106045 0.10450691
v 0.02545925 0.01137329 0.10743019
v 0.02671555 0.01377433 0.10633784
v 0.02655178 0.01264885 0.10758476
v 0.02633119 0.01247676 0.10462014
v 0.02595505 0.01373065 0.10418818
v 0.02652460 0.01507715 0.10888577
v 0.02591371 0.01260304 0.10349187
v 0.02432930 0.01105028 0.10322120
v 0.02532883 0.01160999 0.10294776
v 0.02460443 0.01407388 0.10239900
v 0.02355820 0.01331249 0.10128757
v 0.02411135 0.01447117 0.10155637
v 0.02525117 0.01077839 0.10553719
v 0.02549107 0.01545166 0.10473406
v 0.02603666 0.01608108 0.10703760
v 0.02603994 0.01613917 0.10993113
v 0.02505998 0.01662383 0.10484489
v 0.02437189 0.01907117 0.10696025
v 0.02605871 0.01463603 0.10993646
v 0.02485365 0.01563622 0.11114051
v 0.02221801 0.01816429 0.08986156
v 0.02307067 0.01864623 0.09538550
v 0.02401147 0.02073430 0.10035791
v 0.02247298 0.02122763 0.09449159
v 0.02252296 0.01505002 0.09901336
v 0.02433236 0.01146407 0.10257187
v 0.02215926 0.01306186 0.09998373
v 0.02408682 0.01270787 0.10186314
v 0.02324062 0.01300732 0.10125075
v 0.02472364 0.01303838 0.10978738
v 0.02457847 0.01133166 0.10781254
v 0.02181530 0.01145766 0.10823006
v 0.02292424 0.02087488 0.10808735
v 0.02265833 0.02095407 0.10897869
v 0.02046745 0.01304535 0.11213158
v 0.02356519 0.01595929 0.11202459
v 0.02045697 0.02110870 0.11178386
v 0.02452637 0.01678576 0.11147090
v 0.01964886 0.02111858 0.11226565
v 0.02060525 0.01485572 0.09533337
v 0.01810669 0.01095349 0.10918216
v 0.02016090 0.01117519 0.10817426
v 0.02375509 0.01040418 0.10577315
v 0.01941067 0.01143760 0.10795384
v 0.01768563 0.01109952 0.10824978
v 0.01903242 0.02244957 0.10805676
v 0.01854901 0.02265887 0.10888927
v 0.01755102 0.02261793 0.10866719
v 0.01941388 0.02260322 0.10915722
v 0.01910664 0.01335910 0.11272314
v 0.01860450 0.01131500 0.11009825
v 0.01910179 0.02034837 0.11285877
v 0.01813248 0.02213238 0.11096926
v 0.02148036 0.01670885 0.08439876
v 0.02001216 0.01401564 0.07341685
v 0.02120102 0.01609903 0.08334041
v 0.02000884 0.01372300 0.07485762
v 0.02083969 0.01538615 0.08003413
v 0.02007560 0.01393880 0.07446483
v 0.02018591 0.01486249 0.08935458
v 0.01945212 0.02042036 0.08493750
v 0.01993979 0.01409797 0.09444272
v 0.01824813 0.01312089 0.09079095
v 0.01930832 0.01157659 0.10656689
v 0.01609627 0.01114281 0.10402067
v 0.01579261 0.01070761 0.10594347
v 0.01597704 0.01063646 0.10667764
v 0.01696923 0.01093729 0.10843346
v 0.01699032 0.01104658 0.10550795
v 0.01831634 0.01139369 0.10714520
v 0.01650493 0.01075034 0.10724751
v 0.01685106 0.01090073 0.10802058
v 0.01631866 0.01070550 0.10674373
v 0.01617192 0.01076524 0.10756103
v 0.01638008 0.01085742 0.10771355
v 0.01614527 0.01089473 0.10803779
v 0.02096644 0.02272563 0.10096473
v 0.01811751 0.02240492 0.10795823
v 0.01497401 0.02283386 0.10771817
v 0.01496791 0.02293975 0.10847142
v 0.01501895 0.02276619 0.10919269
v 0.01484436 0.02271973 0.10925605
v 0.01660702 0.01254717 0.11175531
v 0.01587266 0.01261326 0.11171267
v 0.01442471 0.01242722 0.11110845
v 0.01490053 0.01384627 0.11248001
v 0.01497590 0.01481175 0.11291391
v 0.01437930 0.01682666 0.11289549
v 0.01443100 0.01733662 0.11295697
v 0.01514083 0.01859041 0.11305808
v 0.01742678 0.01996373 0.11312004
v 0.01611743 0.01948140 0.11315479
v 0.02041498 0.00482358 0.04787432
v 0.01932336 0.00583104 0.04558785
v 0.01958349 0.00459881 0.04629362
v 0.01976106 0.00376696 0.04938164
v 0.01979289 0.00384106 0.04904254
v 0.01961580 0.00375841 0.04885193
v 0.02049945 0.00741618 0.04934314
v 0.02041120 0.00577818 0.04703369
v 0.01964627 0.00956702 0.05047841
v 0.02039970 0.00578561 0.04697105
v 0.01939180 0.00922147 0.04839852
v 0.01850936 0.01041801 0.04914575
v 0.02041591 0.00457227 0.05088461
v 0.02022917 0.00723573 0.05179938
v 0.02042968 0.00758150 0.05018227
v 0.01924325 0.00922539 0.05369258
v 0.02006201 0.00754314 0.05224890
v 0.01791140 0.00188140 0.05149848
v 0.01896652 0.00657339 0.05496517
v 0.01931896 0.01232188 0.06826062
v 0.01862063 0.01019256 0.05932905
v 0.01794288 0.00529756 0.05854792
v 0.01734776 0.00525371 0.06021460
v 0.01855325 0.00900338 0.06302870
v 0.02285475 0.01958017 0.09390404
v 0.01981819 0.01453041 0.07156890
v 0.02170889 0.01839759 0.08591844
v 0.02125696 0.01667477 0.08266713
v 0.01978587 0.01472956 0.07178273
v 0.02072198 0.01640123 0.07844050
v 0.02045138 0.02012771 0.08535824
v 0.01908361 0.01484624 0.06977374
v 0.01659761 0.01035519 0.07443117
v 0.01902418 0.02227994 0.09365544
v 0.01661539 0.01880077 0.07422157
v 0.01764398 0.01245553 0.08332104
v 0.01580674 0.01265698 0.09036724
v 0.01646588 0.01259538 0.08713990
v 0.01484789 0.01304875 0.09180968
v 0.01561221 0.02063825 0.08380144
v 0.01490277 0.01302084 0.09191353
v 0.01669072 0.01203663 0.09930268
v 0.01498948 0.01291253 0.09864729
v 0.01456520 0.01341193 0.09859825
v 0.01528859 0.01184516 0.10159911
v 0.01421559 0.01099248 0.10522374
v 0.01336274 0.01165151 0.10506644
v 0.01372929 0.01134146 0.10409361
v 0.01334658 0.01160440 0.10439285
v 0.01336141 0.01174013 0.10413747
v 0.01372380 0.01131352 0.10416813
v 0.01302143 0.01188970 0.10578935
v 0.01369755 0.01268795 0.10323447
v 0.01350454 0.01199177 0.10369633
v 0.01334070 0.01245547 0.10389467
v 0.01358197 0.01520474 0.10154232
v 0.01368466 0.01344622 0.10287954
v 0.01342886 0.01412014 0.10318517
v 0.01533096 0.02263399 0.10083528
v 0.01489813 0.01078107 0.10529441
v 0.01380722 0.01075406 0.10630585
v 0.01409758 0.01103490 0.10526748
v 0.01329563 0.01170441 0.10512853
v 0.01500253 0.01048727 0.10739597
v 0.01347758 0.01639564 0.10545419
v 0.01347484 0.01664164 0.10539611
v 0.01382935 0.01157828 0.10924636
v 0.01377888 0.01184769 0.10964164
v 0.01343198 0.01169582 0.10881540
v 0.01331003 0.01327183 0.11072055
v 0.01300046 0.01283155 0.10588400
v 0.01306328 0.01205174 0.10757610
v 0.01317024 0.01165827 0.10788111
v 0.01308828 0.01369761 0.11028744
v 0.01347006 0.01574152 0.10862344
v 0.01330940 0.01597167 0.11038886
v 0.01425684 0.02263902 0.10765504
v 0.01459171 0.02231267 0.10969827
v 0.01367450 0.02232473 0.10756678
v 0.01434751 0.02257596 0.10868697
v 0.01382056 0.01417634 0.11200924
v 0.01393781 0.01350319 0.11174716
v 0.01343734 0.01501953 0.11194510
v 0.01296236 0.01323295 0.10905998
v 0.01326016 0.01525400 0.11160694
v 0.01356986 0.01576037 0.11199007
v 0.01385278 0.01792618 0.10967423
v 0.01358337 0.01663157 0.10991079
v 0.01347192 0.01727145 0.11124765
v 0.01365849 0.01731845 0.11072313
v 0.01362703 0.01934236 0.11035006
v 0.01359456 0.01921829 0.11110955
v 0.01374577 0.02098841 0.11025736
v 0.01427343 0.02219752 0.10983042
v 0.01365942 0.01957120 0.11145371
v 0.01705328 0.00442469 0.04485651
v 0.01690774 0.00433799 0.04487850
v 0.01590457 0.00526835 0.04469661
v 0.01740205 0.00192554 0.04762541
v 0.01670662 0.00116247 0.04796827
v 0.01711269 0.00159909 0.04770112
v 0.01706493 0.00792876 0.04463430
v 0.01781960 0.01070182 0.04841901
v 0.01734572 0.00137337 0.05159714
v 0.01595935 0.00008865 0.05135133
v 0.01581860 0.00008032 0.05108021
v 0.01764952 0.00167796 0.05145129
v 0.01738209 0.00207502 0.05042432
v 0.01774730 0.00232665 0.04854085
v 0.01489429 -0.00024631 0.04943048
v 0.01724027 0.00152896 0.05133253
v 0.01688379 0.00159425 0.05099015
v 0.01687851 0.00165620 0.05087000
v 0.01739013 0.00201204 0.05070816
v 0.01700605 0.00193226 0.05016952
v 0.01628272 0.00044557 0.05307773
v 0.01752206 0.00339448 0.05680824
v 0.01635195 0.01265390 0.05477622
v 0.01575273 0.00718249 0.06626239
v 0.01632639 0.01335783 0.05687856
v 0.01639527 0.01494168 0.06192505
v 0.01481072 0.01030126 0.07566042
v 0.01529156 0.01179251 0.08103520
v 0.01444390 0.01070598 0.07624069
v 0.01576919 0.01835745 0.07241414
v 0.01481133 0.02131243 0.08765968
v 0.01372527 0.01439249 0.08884766
v 0.01355428 0.01347546 0.08274832
v 0.01388318 0.01360977 0.08555084
v 0.01344388 0.02097599 0.08943545
v 0.01290832 0.02076858 0.09081759
v 0.01354336 0.02031249 0.08380369
v 0.01355217 0.01627118 0.09762909
v 0.01246084 0.02082316 0.10001294
v 0.01339634 0.01562027 0.09078705
v 0.01281082 0.02073785 0.09140392
v 0.01228230 0.01971981 0.10230172
v 0.01273945 0.01944835 0.10751502
v 0.01238559 0.01978735 0.10703087
v 0.01376439 0.02218209 0.10899811
v 0.01270922 0.02173145 0.10688678
v 0.01269472 0.02184198 0.10551173
v 0.01351445 0.02184294 0.10879877
v 0.01173044 0.02012351 0.10524814
v 0.01197198 0.02046480 0.10651915
v 0.01706786 0.00461625 0.04479085
v 0.01582203 0.00682178 0.04441895
v 0.01553397 0.00715788 0.04436498
v 0.01473396 0.00654862 0.04506267
v 0.01557582 0.00425919 0.04553848
v 0.01510856 0.00642560 0.04485197
v 0.01560200 0.00858618 0.04427507
v 0.01859884 0.00423044 0.04557449
v 0.01323331 0.00897283 0.04585478
v 0.01358994 0.00904498 0.04570870
v 0.01508490 0.00915033 0.04459830
v 0.01448123 0.00925635 0.04503829
v 0.01384587 0.00948029 0.04564874
v 0.01323641 0.00934585 0.04624395
v 0.01384987 0.00976534 0.04586200
v 0.01333788 0.00980465 0.04666653
v 0.01341557 0.00943471 0.04613099
v 0.01381478 -0.00116285 0.05106586
v 0.01472100 -0.00022719 0.04990443
v 0.01449388 -0.00068511 0.04891610
v 0.01374180 -0.00100451 0.04944834
v 0.01427757 -0.00066749 0.04944877
v 0.01383227 0.01226657 0.04851264
v 0.01402643 0.01140300 0.04694284
v 0.01586184 0.00042309 0.05387433
v 0.01508227 0.00204564 0.05655004
v 0.01469091 0.01336195 0.05604523
v 0.01529011 0.01245592 0.05201658
v 0.01605098 0.01280714 0.05496804
v 0.01563461 0.01488931 0.06071727
v 0.01558974 0.01511505 0.06133955
v 0.01533313 0.01783995 0.07054621
v 0.01408925 0.01384321 0.05843822
v 0.01617794 0.00876722 0.06988327
v 0.01501569 0.00885208 0.07081854
v 0.01467677 0.00792559 0.06767383
v 0.01139620 0.01270420 0.06502138
v 0.01214019 0.01053844 0.07214649
v 0.01178592 0.00819176 0.06685174
v 0.01253595 0.00913854 0.07038230
v 0.01461234 0.01724261 0.07050376
v 0.01278804 0.01547907 0.06990161
v 0.01236490 0.01402034 0.07499627
v 0.01280290 0.01843986 0.08955285
v 0.01279042 0.01915383 0.08402424
v 0.01218587 0.01401376 0.07089695
v 0.01223664 -0.00062699 0.04874712
v 0.01222650 -0.00139977 0.04933593
v 0.01312036 0.00015449 0.04827671
v 0.01256434 0.00466720 0.04648863
v 0.01313026 0.00849736 0.04577797
v 0.01291741 0.00838007 0.04585012
v 0.01303213 0.00905284 0.04594153
v 0.01321121 0.00923879 0.04610329
v 0.01287942 0.00900178 0.04592347
v 0.01230748 0.00873038 0.04586140
v 0.01220227 0.00961861 0.04631754
v 0.01058428 0.01035727 0.04584283
v 0.01114668 -0.00163327 0.05038224
v 0.01286029 -0.00158634 0.05241270
v 0.01018151 -0.00166285 0.05143901
v 0.01056923 -0.00183505 0.04952549
v 0.01294747 0.00930064 0.04622614
v 0.01218603 0.00972598 0.04645379
v 0.01248786 0.01003606 0.04708047
v 0.01217084 0.01171400 0.04799584
v 0.01087667 0.01034629 0.04605666
v 0.01187978 0.01222715 0.04835055
v 0.01071040 0.01187426 0.04737086
v 0.00972430 -0.00142961 0.05368719
v 0.01224399 0.01232915 0.04863768
v 0.00945256 -0.00099764 0.05532067
v 0.01410541 0.00031300 0.05506418
v 0.01110123 -0.00090662 0.05452063
v 0.01121491 0.00078718 0.05589964
v 0.00952901 0.00228310 0.05649141
v 0.00865741 0.00186597 0.05611219
v 0.01285430 0.00240531 0.05705297
v 0.01061118 0.00387473 0.05861285
v 0.01020994 0.00328288 0.05775630
v 0.01260643 0.01339322 0.05950532
v 0.01089004 0.01203355 0.05594066
v 0.00984168 0.00141661 0.04699821
v 0.00783327 -0.00307059 0.04854281
v 0.00756811 -0.00327203 0.04875510
v 0.00740255 -0.00331370 0.04906247
v 0.00915047 -0.00244327 0.04995498
v 0.00997369 -0.00168666 0.05133428
v 0.00741102 -0.00185151 0.05127118
v 0.00695630 -0.00136527 0.05206416
v 0.00676660 -0.00108427 0.05230376
v 0.00666527 -0.00031666 0.05362178
v 0.00898470 -0.00134882 0.05338139
v 0.01085893 0.01257401 0.04885268
v 0.01083760 0.01250756 0.04869618
v 0.00960399 0.01205689 0.04860489
v 0.00908507 0.01203679 0.04930256
v 0.00813637 0.01071601 0.05167413
v 0.00722263 0.00777389 0.05204041
v 0.00952910 -0.00098336 0.05538183
v 0.00881832 -0.00068473 0.05551659
v 0.01104830 0.00134577 0.05610935
v 0.00860130 0.00150658 0.05603697
v 0.00887212 0.00223052 0.05624366
v 0.00793549 0.00001765 0.05529765
v 0.00794571 0.00006661 0.05538587
v 0.00762079 0.00042041 0.05531548
v 0.00767120 -0.00024609 0.05411342
v 0.00721585 0.00096720 0.05516348
v 0.00664448 0.00021918 0.05395011
v 0.00721099 0.00046144 0.05457801
v 0.00781756 0.00293714 0.05561457
v 0.00805884 0.00245115 0.05584823
v 0.00759167 0.00630622 0.05252150
v 0.00786560 0.00811418 0.05495681
v 0.00780288 0.00848830 0.05425061
v 0.01107040 0.01218882 0.06058363
v 0.00850491 0.00756860 0.05814598
v 0.00800297 0.00971102 0.05300784
v 0.00809744 0.00669798 0.05676083
v 0.00719647 0.00641629 0.04458275
v 0.00737578 -0.00322244 0.04871949
v 0.00660291 -0.00226693 0.04779005
v 0.00711493 -0.00246691 0.04786310
v 0.00652868 -0.00225522 0.04783033
v 0.00713753 -0.00080892 0.04681017
v 0.00694611 0.00494204 0.04469098
v 0.00650708 0.00425073 0.04482806
v 0.00707525 -0.00190774 0.04744243
v 0.00612574 -0.00135332 0.04747588
v 0.00514944 0.00067542 0.04684715
v 0.00653331 -0.00028622 0.04674869
v 0.00508973 0.00031674 0.04716943
v 0.00494079 0.00071698 0.04723137
v 0.00487605 -0.00012321 0.04788745
v 0.00470832 0.00374688 0.04687871
v 0.00467508 0.00183175 0.04759705
v 0.00484675 0.00207382 0.04682341
v 0.00627941 0.00528461 0.04468219
v 0.00812280 0.01109245 0.04802764
v 0.00554197 0.00661996 0.04542317
v 0.00570075 0.00699100 0.04529070
v 0.00644992 0.00894038 0.04514836
v 0.01039173 0.01181132 0.04725005
v 0.00777950 0.01001902 0.04534500
v 0.00674735 -0.00304030 0.04891668
v 0.00629866 -0.00270983 0.04954485
v 0.00601503 -0.00243097 0.04930872
v 0.00541509 -0.00129689 0.04908315
v 0.00492202 0.00170461 0.04850168
v 0.00495719 0.00572153 0.04739194
v 0.00634064 0.00895226 0.04562530
v 0.00562065 0.00448501 0.04991041
v 0.00624767 -0.00073547 0.05143729
v 0.00504588 0.00061317 0.04880913
v 0.00551064 0.00071046 0.05030811
v 0.00636547 0.00001053 0.05336206
v 0.00646433 0.00121806 0.05431319
v 0.00633644 0.00088227 0.05390690
v 0.00594192 0.00389664 0.05158493
v 0.00582618 0.00386350 0.05109849
v 0.00594333 0.00339627 0.05192775
v 0.00629368 0.00539471 0.05017392
v 0.00698058 0.00487314 0.05164279
v 0.00725977 0.00696327 0.05182787
v 0.00677372 0.00831579 0.05011151
v 0.00686480 0.00758027 0.05098514
v 0.00508076 0.00576310 0.04769393
v 0.01704091 0.01202452 0.09920166
v 0.01751161 0.01223956 0.09915471
v 0.01967708 0.01250888 0.09974095
v 0.01829820 0.00416738 0.04548950
v 0.01330762 0.01170557 0.10508088
v 0.01304922 0.01274860 0.10481716
v 0.01611888 0.00293621 0.04593304
v 0.01620231 0.00084874 0.04782114
v 0.01545936 0.00147159 0.04715696
v 0.01658870 0.00114298 0.04763655
v 0.01670789 0.00081963 0.05253606
v 0.01344525 0.01275920 0.08027121
v 0.01198014 0.02007552 0.10359396
v 0.01226247 0.02025820 0.10180244
v 0.01216799 0.02028857 0.10278997
v 0.01229228 0.02130192 0.10359998
v 0.01199459 0.02133823 0.10556177
v 0.01203134 0.02061826 0.10664222
v 0.01187394 0.02104696 0.10553039
v 0.01318330 -0.00107982 0.04912397
v 0.01502760 0.00021425 0.04814103
v 0.01573486 0.00938147 0.04492009
v 0.01527875 0.00958963 0.04494228
v 0.01574614 0.01075056 0.04635980
v 0.01517200 0.00947581 0.04478540
v 0.01396599 0.01139516 0.04692869
v 0.01055363 -0.00198242 0.04974620
v 0.01231782 -0.00149156 0.04992368
v 0.01200845 -0.00152017 0.05006671
v 0.01385392 0.01087981 0.04662855
v 0.01333007 0.01098204 0.04715921
v 0.01312409 0.01152093 0.04763491
v 0.01343285 0.01022693 0.04672687
v 0.01308667 0.01168546 0.04774825
v 0.01350062 0.01185137 0.04786411
v 0.01313703 0.01054458 0.04724282
v 0.01274097 0.00987239 0.04710693
v 0.01227412 0.01153353 0.04778718
v 0.01281695 0.01161203 0.04774384
v 0.01060251 0.01054220 0.06405744
v 0.01112553 0.01075624 0.06622999
v 0.00882265 0.00748716 0.05949256
v 0.01196063 0.00905283 0.04595508
v 0.00826920 0.00880470 0.04478462
v 0.01053139 -0.00199272 0.04978847
v 0.00898751 -0.00256638 0.04983289
v 0.00921913 -0.00245773 0.04979612
v 0.00833570 -0.00311829 0.04945145
v 0.00838042 -0.00306081 0.04901175
v 0.00935204 -0.00241325 0.04919692
v 0.00967123 -0.00202339 0.04897937
v 0.00790445 -0.00291320 0.04836612
v 0.00980651 -0.00027884 0.05582281
v 0.00765705 0.00150892 0.05560041
v 0.00715933 0.00285337 0.05507172
v 0.00663397 0.00138113 0.05467668
v 0.00748549 0.00277998 0.05536756
v 0.00698604 0.00327931 0.05410376
v 0.00765841 0.00332966 0.05560724
v 0.00821150 0.00527829 0.05771016
v 0.00688954 0.00453112 0.05243734
v 0.00852252 0.00649341 0.05854594
v 0.00869556 0.00603025 0.05932105
v 0.00718293 0.00483122 0.05350076
v 0.00749042 0.00880978 0.04453395
v 0.01058349 0.01039257 0.04584093
v 0.00606317 0.00688435 0.04485675
v 0.00623652 0.00666736 0.04467939
v 0.00757277 0.00870898 0.04454971
v 0.00736324 0.00796193 0.04454386
v 0.00753444 0.00987632 0.04525408
v 0.00710737 0.00940714 0.04499409
v 0.00728876 0.00883940 0.04458487
v 0.00730989 0.00936703 0.04493624
v 0.00762683 0.01003645 0.04541658
v 0.00660345 0.00890784 0.04475766
v 0.00663436 0.00933526 0.04515555
v 0.00806166 -0.00308475 0.04960285
v 0.00689629 -0.00248371 0.05063547
v 0.00604219 -0.00247470 0.04941397
v 0.00584844 -0.00182925 0.04984221
v 0.00626942 -0.00139473 0.05110479
vn 0.505692 -0.488904 0.710809
vn 0.637657 -0.132663 0.758811
vn 0.397225 0.908537 0.129511
vn 0.319199 -0.306406 0.896787
vn 0.537550 0.751862 0.381765
vn 0.292787 -0.869772 -0.397205
vn 0.129732 0.988901 -0.072414
vn -0.094181 -0.988660 -0.116969
vn 0.257067 -0.963048 -0.080348
vn -0.091617 -0.913966 0.395314
vn -0.007559 0.999946 0.007148
vn -0.237485 0.699493 0.674026
vn -0.169974 -0.624903 0.761975
vn 0.954993 -0.296619 0.002154
vn 0.991502 -0.130092 -0.000295
vn 0.949174 0.251377 -0.189416
vn 0.049961 -0.979845 0.193410
vn -0.336588 -0.941262 -0.027094
vn -0.962425 -0.195833 -0.188116
vn -0.833618 -0.550351 0.046849
vn -0.654140 -0.580531 0.484856
vn -0.998348 -0.025996 0.051242
vn -0.271459 0.962300 -0.016983
vn -0.638009 0.375596 0.672215
vn 0.372719 0.065992 -0.925595
vn 0.247664 -0.854019 0.457509
vn -0.951442 -0.307636 -0.010882
vn -0.280485 -0.414993 -0.865511
vn -0.601273 0.392552 -0.695970
vn 0.112660 0.660183 -0.742608
vn -0.664576 0.334795 -0.668021
vn -0.460171 -0.791563 0.402083
vn -0.987311 0.158744 -0.004096
vn 0.313398 -0.558930 -0.767710
vn 0.499035 0.540287 -0.677535
vn 0.188419 -0.887250 0.421054
vn 0.421885 -0.442606 -0.791273
vn -0.082779 -0.738464 -0.669193
vn -0.687695 -0.667949 0.284465
vn 0.227705 -0.712070 0.664159
vn -0.820627 -0.482136 0.306783
vn 0.673304 -0.738865 0.027225
vn 0.270226 -0.943219 -0.193175
vn 0.635989 -0.723449 -0.268588
vn 0.194878 -0.964408 0.178717
vn -0.324334 0.598291 -0.732705
vn -0.980377 0.070516 0.184087
vn 0.251801 0.426875 -0.868547
vn 0.364024 -0.897398 0.249328
vn 0.456339 0.520458 -0.721719
vn -0.261255 -0.747740 0.610435
vn -0.948385 0.179469 0.261453
vn -0.734774 0.109098 -0.669481
vn 0.012893 -0.866509 0.498995
vn -0.530945 -0.646975 0.547284
vn 0.825572 0.012309 0.564163
vn 0.682241 -0.632103 -0.367413
vn 0.977219 -0.024705 -0.210791
vn 0.991500 0.014649 -0.129279
vn 0.877049 0.427442 -0.219269
vn -0.103925 -0.992963 -0.056786
vn 0.671433 0.741040 0.006081
vn 0.179103 0.027534 0.983445
vn 0.986711 -0.127550 -0.100664
vn 0.897484 -0.435028 0.072614
vn 0.703009 -0.699905 0.126143
vn -0.072379 -0.992385 -0.099670
vn -0.026578 -0.993236 -0.113030
vn 0.138221 0.973675 -0.181251
vn 0.055404 0.983816 0.170403
vn -0.050656 -0.588790 0.806697
vn -0.043124 -0.249669 0.967371
vn -0.141971 0.100772 0.984728
vn 0.358557 -0.190263 -0.913913
vn 0.627158 0.503051 -0.594653
vn 0.905400 -0.410205 0.109465
vn 0.812517 0.571170 -0.116539
vn 0.991110 -0.008789 -0.132752
vn 0.907019 0.381126 -0.179052
vn 0.771556 -0.589861 0.238255
vn 0.570468 0.778642 -0.261311
vn 0.794291 0.580933 -0.177816
vn -0.460798 -0.883806 0.080951
vn -0.093728 0.990345 -0.102140
vn -0.427521 -0.899299 -0.092131
vn -0.855952 -0.448114 -0.257953
vn -0.649847 -0.553624 -0.520768
vn -0.259468 0.963877 -0.060137
vn -0.459477 -0.854652 0.241766
vn -0.956728 -0.263823 0.122753
vn -0.887287 -0.418078 0.194761
vn -0.954143 -0.027307 0.298105
vn -0.859631 0.102928 0.500440
vn -0.905390 0.095249 0.413760
vn -0.991005 0.087244 -0.101474
vn 0.347317 -0.780184 -0.520273
vn 0.365752 -0.776545 -0.513033
vn 0.351870 0.914815 -0.198243
vn 0.711422 0.656176 -0.251617
vn -0.373516 0.923285 -0.089617
vn -0.433173 0.899730 -0.053362
vn -0.920010 -0.391801 0.008549
vn -0.913543 0.054414 0.403085
vn -0.265179 -0.097318 -0.959275
vn 0.485532 0.587139 -0.647709
vn -0.519289 -0.093463 -0.849473
vn -0.610741 -0.018087 -0.791624
vn -0.565746 0.068398 -0.821738
vn -0.804177 0.581901 -0.121203
vn 0.094498 -0.539258 -0.836822
vn 0.243537 -0.447470 -0.860500
vn 0.253920 -0.222516 -0.941282
vn 0.211980 0.680696 -0.701226
vn -0.247233 0.460517 -0.852526
vn 0.247057 -0.856934 0.452358
vn -0.146867 0.987348 -0.059790
vn 0.082542 -0.632535 0.770121
vn -0.527248 0.846892 -0.069160
vn 0.460035 -0.463493 -0.757326
vn 0.282207 -0.173848 -0.943470
vn -0.463812 -0.859370 0.215317
vn -0.263853 -0.283117 0.922077
vn -0.548799 -0.492963 0.675135
vn -0.531949 -0.030454 0.846228
vn -0.441775 -0.257137 0.859486
vn -0.617675 -0.593279 0.516234
vn -0.918220 -0.322425 0.230031
vn -0.953033 0.106219 0.283629
vn -0.843435 0.398549 0.360244
vn -0.793507 0.437579 0.422932
vn -0.902990 0.143566 0.404966
vn 0.031046 -0.876371 -0.480635
vn 0.152604 -0.871688 0.465696
vn 0.710379 -0.701957 -0.051164
vn 0.206603 -0.976879 -0.054983
vn 0.139592 -0.692910 -0.707383
vn 0.378808 -0.909005 -0.173826
vn 0.258541 0.165655 -0.951691
vn 0.465819 0.562068 -0.683442
vn -0.288327 -0.738410 0.609605
vn -0.684134 -0.336000 0.647352
vn -0.718218 -0.266471 0.642772
vn -0.764431 -0.062308 -0.641688
vn 0.820248 -0.566055 -0.082307
vn 0.462175 -0.768909 0.441783
vn 0.979327 0.112841 -0.167887
vn 0.902711 -0.382904 0.196208
vn 0.966912 -0.133060 -0.217662
vn 0.893630 0.266201 -0.361334
vn 0.985807 0.129454 0.106893
vn 0.839330 0.141976 -0.524754
vn 0.082839 -0.925600 -0.369327
vn 0.618829 -0.183371 -0.763823
vn 0.789468 0.169246 -0.589997
vn 0.696914 -0.132318 -0.704842
vn 0.921084 -0.153469 -0.357842
vn 0.318248 -0.947923 -0.012691
vn 0.853369 0.351412 -0.385061
vn 0.875279 0.462891 -0.140070
vn 0.827795 0.512179 0.228973
vn 0.930581 0.269800 -0.247440
vn 0.883195 0.454065 0.117439
vn 0.565116 -0.419845 0.710193
vn 0.630079 0.164280 0.758955
vn 0.989041 -0.071702 -0.129064
vn 0.895692 -0.416008 -0.157076
vn 0.966070 0.173627 -0.191215
vn 0.528836 0.829300 -0.180537
vn 0.744981 -0.482330 -0.460827
vn 0.590893 -0.247687 -0.767787
vn 0.733898 -0.432889 -0.523452
vn 0.662118 -0.041064 -0.748274
vn 0.675094 -0.315016 -0.667093
vn 0.268544 -0.798590 0.538645
vn 0.138176 -0.788107 0.599828
vn 0.066940 -0.966300 0.248562
vn 0.800313 0.584342 0.134328
vn 0.725804 0.628013 0.280726
vn 0.340202 -0.641713 0.687362
vn 0.397823 -0.280026 0.873683
vn 0.549871 0.495687 0.672262
vn 0.543924 0.376920 0.749718
vn 0.312087 0.546585 0.777076
vn 0.783308 -0.501124 -0.367835
vn -0.047383 -0.945351 0.322594
vn 0.081325 -0.953702 -0.289549
vn -0.064325 -0.994178 0.086446
vn -0.085811 -0.996182 0.016091
vn 0.201219 -0.965490 -0.165347
vn 0.129268 0.991584 0.007116
vn 0.055980 0.981453 -0.183346
vn 0.095661 0.972336 -0.213102
vn 0.165397 0.943222 0.288056
vn 0.156588 -0.398747 0.903593
vn 0.159374 -0.854273 0.494791
vn 0.163923 0.363158 0.917194
vn -0.034895 0.827285 0.560697
vn 0.975269 -0.207645 -0.075720
vn 0.991842 -0.052405 -0.116200
vn 0.848362 -0.529352 0.008289
vn 0.847691 -0.529412 0.033795
vn 0.930118 -0.366122 -0.028900
vn 0.960340 -0.273932 -0.052039
vn 0.733261 -0.678967 0.036501
vn 0.275850 0.940878 -0.196608
vn 0.637780 -0.757064 -0.141741
vn 0.447151 -0.894232 -0.020128
vn -0.039752 -0.999209 -0.001021
vn 0.106585 -0.967819 -0.227959
vn 0.080306 -0.983036 -0.164899
vn 0.141096 -0.988919 -0.046166
vn 0.050225 -0.998331 0.028491
vn 0.287736 -0.935830 -0.203545
vn 0.235688 -0.970647 -0.047907
vn 0.186911 -0.977751 0.095225
vn 0.141648 -0.984874 0.099795
vn 0.323510 -0.943348 -0.073729
vn 0.191816 -0.944050 0.268283
vn 0.096885 -0.973585 0.206749
vn 0.103367 -0.969006 0.224370
vn 0.163202 0.985418 0.048127
vn 0.064568 0.996787 0.047393
vn -0.010142 0.982064 -0.188274
vn -0.076507 0.994490 0.071669
vn -0.032874 0.926305 0.375337
vn -0.369091 0.845302 0.386312
vn -0.048227 -0.793753 0.606325
vn -0.115939 -0.830306 0.545115
vn -0.176378 -0.836107 0.519439
vn -0.370457 -0.395578 0.840404
vn -0.216921 -0.149611 0.964656
vn -0.313172 -0.102262 0.944175
vn -0.333680 0.002432 0.942683
vn -0.393272 0.227056 0.890945
vn -0.081129 0.445752 0.891473
vn -0.209385 0.521249 0.827320
vn 0.781204 -0.558584 -0.278754
vn 0.687588 0.333752 -0.644851
vn 0.684843 -0.633889 -0.359409
vn 0.779915 -0.616985 0.105180
vn 0.643504 -0.748475 -0.160274
vn 0.583090 -0.773699 -0.247780
vn 0.943139 0.286459 -0.168615
vn 0.972812 -0.049201 -0.226311
vn 0.789338 0.613799 0.014001
vn 0.817808 0.258035 -0.514400
vn 0.743700 0.503939 -0.439267
vn 0.619438 0.775490 -0.122116
vn 0.901643 -0.335100 0.273401
vn 0.983767 0.036504 0.175696
vn 0.968885 0.230593 0.089935
vn 0.988077 0.024794 0.151951
vn 0.938627 0.063375 0.339062
vn 0.746540 -0.641733 0.175660
vn 0.935173 -0.116396 0.334520
vn 0.995197 -0.037247 -0.090530
vn 0.992970 0.117852 0.010994
vn 0.957313 -0.230900 0.173889
vn 0.501681 -0.752821 0.426117
vn 0.898038 -0.422725 0.121779
vn 0.984852 0.049499 -0.166183
vn 0.991325 -0.011527 -0.130930
vn 0.888194 0.401973 -0.222552
vn 0.990747 -0.067407 -0.117803
vn 0.822555 0.512525 -0.246418
vn 0.823291 0.511666 -0.245742
vn 0.737425 0.625284 -0.255392
vn 0.769796 0.581012 -0.264271
vn 0.424614 -0.890616 0.162807
vn 0.131040 0.977223 -0.166925
vn 0.124592 0.968053 -0.217600
vn 0.500816 -0.859653 0.100897
vn -0.213236 -0.976777 0.020905
vn 0.058871 -0.997389 0.041820
vn -0.711852 -0.701873 0.025316
vn -0.008323 0.985864 -0.167341
vn -0.408134 -0.912265 -0.034630
vn -0.329944 -0.941113 -0.073778
vn -0.680322 -0.721176 -0.130643
vn -0.911094 -0.410730 -0.034769
vn -0.292947 -0.922251 -0.252260
vn -0.164341 -0.937540 -0.306612
vn -0.615743 -0.767474 -0.178449
vn -0.603142 -0.577618 -0.550069
vn -0.633143 -0.771354 -0.064357
vn -0.697235 -0.555385 -0.453222
vn -0.207667 -0.942046 -0.263484
vn -0.945183 -0.322399 -0.051857
vn -0.858568 -0.167177 -0.484678
vn -0.745832 -0.392397 -0.538293
vn -0.923197 -0.114449 -0.366889
vn -0.978491 -0.178293 -0.103759
vn -0.924164 -0.241458 -0.296005
vn -0.987565 0.032508 -0.153815
vn -0.038966 0.998405 -0.040857
vn -0.064364 -0.974290 -0.215906
vn -0.529235 -0.843298 -0.093587
vn -0.579270 -0.793830 -0.185145
vn -0.889483 -0.423268 -0.172230
vn -0.072631 -0.966722 0.245304
vn -0.993747 0.109652 -0.021077
vn -0.976004 -0.216747 0.020907
vn -0.260741 -0.876839 0.403941
vn -0.558493 -0.689198 0.461619
vn -0.757568 -0.560382 0.334756
vn -0.839930 -0.368644 0.398271
vn -0.993203 0.116391 -0.000967
vn -0.947759 -0.317347 0.032313
vn -0.896497 -0.418077 0.146646
vn -0.992194 -0.006546 0.124529
vn -0.989300 0.143824 -0.024517
vn -0.984053 0.168421 -0.057218
vn -0.278080 0.960015 -0.032278
vn -0.291296 0.833960 0.468675
vn -0.532251 0.839887 0.106296
vn -0.521841 0.834032 0.179086
vn -0.534147 -0.313373 0.785165
vn -0.590474 -0.481993 0.647321
vn -0.786716 -0.157266 0.596946
vn -0.989471 0.123833 -0.074913
vn -0.962489 0.091132 0.255558
vn -0.852948 0.095571 0.513172
vn -0.930073 -0.262522 0.256997
vn -0.976355 0.213225 -0.035577
vn -0.984549 0.132590 -0.114385
vn -0.892165 0.373959 -0.253372
vn -0.977240 -0.211629 0.014700
vn -0.990706 -0.068348 -0.117598
vn -0.748608 0.460848 0.476661
vn -0.614267 0.640413 0.461029
vn -0.899191 0.218491 0.379101
vn 0.245519 -0.630758 -0.736115
vn -0.218886 -0.461021 -0.859970
vn -0.360106 -0.350523 -0.864556
vn 0.697004 -0.682775 -0.219099
vn 0.622813 -0.772733 -0.122422
vn 0.533612 -0.699734 -0.475005
vn 0.551808 0.562441 -0.615766
vn 0.468070 0.796960 -0.381792
vn 0.589355 -0.596460 -0.544882
vn 0.608475 -0.788988 -0.085185
vn 0.626256 -0.709268 -0.323640
vn 0.560392 -0.800378 -0.212968
vn 0.038991 -0.982096 -0.184299
vn 0.668702 -0.741906 -0.049132
vn 0.686257 -0.722400 0.084789
vn 0.530140 -0.584466 -0.614288
vn 0.708729 -0.589854 -0.387008
vn 0.708246 -0.683655 -0.176076
vn 0.328990 -0.881604 -0.338438
vn 0.679326 -0.729618 0.078571
vn 0.638973 -0.746224 0.186715
vn 0.725191 -0.587087 0.359759
vn 0.599976 0.794098 -0.097146
vn 0.434997 -0.846200 0.307772
vn 0.685207 0.692477 -0.225760
vn 0.664280 0.707093 -0.242386
vn 0.040243 -0.966505 0.253472
vn -0.447268 -0.856207 0.258575
vn -0.158393 -0.947714 0.277036
vn -0.151344 0.967813 -0.201080
vn -0.153480 0.973546 -0.169270
vn -0.927244 -0.367762 0.070497
vn -0.798157 -0.586400 0.138132
vn -0.681969 -0.723921 0.104195
vn -0.573847 0.812233 -0.104773
vn -0.763034 0.637220 -0.108304
vn -0.497959 0.848479 -0.179223
vn -0.953522 -0.301168 0.009659
vn -0.921223 0.384842 -0.056966
vn -0.973461 -0.226962 0.029367
vn -0.918979 0.390984 -0.051068
vn -0.914143 -0.399821 -0.066979
vn -0.916795 -0.178379 0.357307
vn -0.882134 -0.168599 0.439789
vn -0.711475 0.652251 0.261480
vn -0.678964 0.731205 0.065934
vn -0.711955 0.701431 -0.033385
vn -0.869254 0.352020 0.347102
vn -0.944542 -0.327992 -0.016187
vn -0.912960 -0.199662 0.355863
vn 0.237003 -0.210777 -0.948369
vn 0.079293 -0.118001 -0.989843
vn -0.124200 -0.129222 -0.983807
vn -0.345935 -0.320302 -0.881893
vn -0.459901 -0.381574 -0.801806
vn -0.533482 -0.280365 -0.797992
vn 0.311839 0.223319 -0.923518
vn 0.469617 -0.627593 -0.620957
vn -0.284746 0.404424 -0.869115
vn -0.553666 0.328674 -0.765132
vn -0.353183 0.548372 -0.757991
vn -0.542983 0.350310 -0.763186
vn -0.685570 0.371594 -0.626028
vn -0.484945 0.573102 -0.660592
vn -0.776557 0.354315 -0.520980
vn -0.631635 0.512070 -0.582084
vn -0.625002 0.597502 -0.502359
vn 0.346888 -0.937773 -0.015849
vn 0.530213 -0.811423 0.245899
vn 0.461021 -0.790217 -0.403754
vn 0.513911 -0.817307 0.260584
vn 0.534731 -0.806892 0.250974
vn 0.208155 0.951631 -0.225985
vn 0.276380 0.888205 -0.367024
vn 0.386287 -0.794111 0.469222
vn 0.053451 -0.823825 0.564318
vn 0.000004 0.965680 -0.259734
vn 0.186787 0.967062 -0.172924
vn 0.230191 0.939712 -0.252891
vn 0.234477 0.920145 -0.313613
vn 0.051254 0.954869 -0.292573
vn -0.517038 0.826991 -0.220811
vn -0.504963 0.843686 -0.182228
vn 0.431768 -0.818155 0.379736
vn 0.026733 -0.936950 0.348439
vn -0.024864 -0.904833 0.425040
vn -0.791818 0.609459 -0.039788
vn -0.586577 -0.728277 0.354316
vn -0.485321 -0.766874 0.419961
vn -0.419368 -0.850577 0.317253
vn -0.702988 0.682741 -0.199178
vn -0.808199 0.570215 -0.147207
vn -0.978615 -0.168883 0.117439
vn -0.991070 -0.130219 0.028684
vn -0.914408 0.392557 -0.098780
vn -0.947126 0.319927 0.024463
vn 0.157403 -0.607692 -0.778418
vn 0.168391 -0.776306 -0.607449
vn 0.024311 -0.454383 -0.890475
vn -0.167805 -0.294337 -0.940854
vn -0.428934 -0.046031 -0.902162
vn -0.025515 -0.163254 -0.986254
vn -0.075585 0.717972 -0.691956
vn -0.070168 0.720437 -0.689962
vn -0.004875 0.403705 -0.914876
vn 0.007369 0.223425 -0.974693
vn 0.395293 0.762699 -0.511892
vn 0.487270 0.667664 -0.562844
vn 0.227000 -0.959479 0.166947
vn 0.254694 -0.965440 0.055292
vn -0.005796 -0.994135 0.107993
vn 0.349798 -0.747481 -0.564725
vn 0.009943 0.798141 -0.602389
vn 0.480433 0.674029 -0.561132
vn 0.516642 0.529083 -0.673166
vn -0.715683 0.286716 -0.636861
vn 0.480779 0.585844 -0.652410
vn 0.190068 0.829214 -0.525622
vn 0.075042 0.776668 -0.625424
vn -0.067731 -0.986948 0.146106
vn 0.064176 0.977738 -0.199775
vn -0.249631 -0.938003 0.240490
vn 0.208401 -0.729129 0.651875
vn 0.244266 -0.748947 0.615964
vn 0.108023 -0.402260 0.909130
vn -0.140906 -0.686864 0.712996
vn -0.125428 -0.321561 0.938545
vn -0.062765 -0.806539 0.587840
vn -0.337495 -0.803624 0.490189
vn -0.126837 -0.761299 0.635874
vn -0.381361 0.924418 0.003933
vn -0.597134 0.799699 0.062548
vn 0.366562 -0.364643 -0.855960
vn 0.297349 -0.795181 -0.528460
vn 0.027539 -0.912107 -0.409026
vn -0.100020 -0.984615 0.143283
vn 0.128276 -0.893350 0.430663
vn 0.055612 -0.986394 0.154705
vn 0.162341 -0.773182 0.613054
vn -0.097073 -0.915079 0.391416
vn -0.677849 -0.634785 0.370903
vn -0.446271 -0.721758 0.529063
vn -0.285004 -0.910261 0.300329
vn -0.090462 0.995571 0.025610
vn -0.113903 0.902723 -0.414870
vn -0.363435 0.868927 -0.335978
vn -0.357958 0.931766 0.060652
vn -0.818030 0.537030 0.205976
vn -0.958016 0.131067 0.255002
vn 0.352015 -0.646305 0.677034
vn -0.508607 -0.735256 0.448014
vn -0.131907 -0.483245 0.865491
vn -0.266251 -0.263672 0.927139
vn -0.258525 -0.295819 0.919596
vn -0.631625 -0.731149 0.257819
vn -0.284931 -0.136087 0.948839
vn -0.440811 -0.348109 0.827349
vn -0.442128 -0.754163 0.485553
vn -0.689840 -0.281831 0.666852
vn -0.699618 -0.396589 0.594350
vn -0.600302 -0.590541 0.539350
vn -0.630430 -0.058552 0.774035
vn -0.494596 0.071507 0.866177
vn -0.976199 0.112350 0.185506
vn -0.974896 0.040819 0.218889
vn -0.940491 0.292344 0.173237
vn -0.879103 0.476431 0.013814
vn -0.884710 0.439368 0.155704
vn -0.907922 0.365735 0.204733
vn -0.960538 0.247072 0.127760
vn 0.364927 -0.163203 -0.916620
vn -0.329104 -0.817679 -0.472326
vn -0.252302 -0.654451 -0.712768
vn -0.115459 -0.608214 -0.785331
vn -0.689009 -0.596654 -0.411425
vn 0.261120 -0.360787 -0.895349
vn 0.338588 -0.236714 -0.910673
vn 0.056890 -0.345340 -0.936752
vn -0.178023 -0.495240 -0.850321
vn -0.394480 -0.458705 -0.796226
vn -0.497513 -0.313627 -0.808776
vn -0.306359 -0.395967 -0.865652
vn -0.693886 -0.478789 -0.537851
vn -0.928819 -0.171482 -0.328464
vn -0.940965 -0.334229 -0.053636
vn -0.996849 0.066430 0.043345
vn -0.999884 -0.014885 -0.003199
vn -0.846186 -0.087107 -0.525720
vn -0.495002 -0.138346 -0.857807
vn -0.771473 0.634787 0.043303
vn -0.888609 0.048629 -0.456080
vn -0.919620 0.319159 -0.228991
vn -0.922406 0.359165 -0.142014
vn -0.366241 0.872408 -0.323685
vn 0.035679 0.652156 -0.757244
vn -0.559900 -0.790659 -0.247729
vn -0.637907 -0.769555 -0.029307
vn -0.770849 -0.574627 -0.274947
vn -0.936559 -0.234928 0.260129
vn -0.966492 0.055369 0.250654
vn -0.931249 0.351936 0.094431
vn -0.862527 0.497317 0.093403
vn -0.956310 0.089432 0.278339
vn -0.926289 -0.268656 0.264219
vn -0.959038 -0.068270 0.274928
vn -0.961863 -0.082903 0.260666
vn -0.846231 -0.454114 0.278699
vn -0.767740 -0.334580 0.546471
vn -0.792308 -0.324906 0.516415
vn -0.704550 0.647706 0.289977
vn -0.965460 0.065101 0.252286
vn -0.953588 0.116571 0.277636
vn -0.877831 0.147720 0.455621
vn -0.857316 0.316174 0.406255
vn -0.924174 0.024871 0.381161
vn -0.883687 0.208338 0.419157
vn -0.919365 0.314889 0.235823
vn -0.837805 0.308269 0.450614
vn 0.130574 -0.975537 -0.176854
vn 0.436342 -0.871940 -0.222096
vn 0.222816 -0.769440 -0.598594
vn 0.218009 -0.648614 -0.729227
vn -0.592634 -0.802928 0.063968
vn -0.994460 0.081479 -0.066415
vn -0.008010 -0.602178 -0.798322
vn 0.130082 -0.655876 -0.743576
vn 0.043831 -0.639907 -0.767201
vn 0.203033 -0.645775 -0.736038
vn 0.674746 -0.737347 0.032211
vn -0.815201 -0.513403 0.268075
vn -0.991160 0.052251 -0.121948
vn -0.990054 0.125258 -0.064065
vn -0.976532 0.166226 -0.136943
vn -0.897948 0.426895 -0.107005
vn -0.913998 0.358013 0.190879
vn -0.893098 0.308874 0.327068
vn -0.947792 0.312629 0.062876
vn 0.038669 -0.659005 -0.751143
vn 0.012061 -0.614763 -0.788619
vn 0.354511 0.662716 -0.659643
vn 0.128610 0.742764 -0.657085
vn 0.427079 0.728908 -0.535068
vn 0.219530 0.724565 -0.653308
vn 0.043591 0.775757 -0.629525
vn 0.335667 -0.874962 -0.348955
vn 0.277066 -0.941851 -0.190133
vn 0.216260 -0.905519 0.365058
vn -0.574071 0.451278 -0.683221
vn -0.657443 0.321377 -0.681531
vn -0.676885 0.340700 -0.652495
vn -0.716617 0.261328 -0.646659
vn -0.209069 0.566653 -0.796991
vn -0.105706 0.809448 -0.577598
vn -0.364100 0.387895 -0.846740
vn 0.368447 0.724878 -0.582064
vn -0.205455 0.559383 -0.803044
vn -0.118634 0.401787 -0.908016
vn -0.946066 0.255249 0.199519
vn -0.974759 0.180270 0.131714
vn -0.957715 0.202627 0.204265
vn 0.246631 0.135857 -0.959539
vn 0.306859 0.026068 -0.951398
vn 0.284117 -0.921596 0.264457
vn 0.231523 -0.758988 0.608551
vn 0.372777 -0.896485 0.239484
vn 0.369010 -0.914957 0.163354
vn 0.492035 -0.761288 -0.422305
vn 0.494563 -0.633924 -0.594599
vn 0.500596 -0.690604 -0.521986
vn 0.494955 -0.635304 -0.592797
vn 0.163513 -0.415592 0.894733
vn -0.667329 0.026240 0.744301
vn -0.669904 0.047933 0.740899
vn -0.671618 0.024245 0.740500
vn -0.635511 0.064261 0.769413
vn -0.922360 0.240066 0.302688
vn -0.746724 -0.376009 0.548654
vn -0.714778 -0.392560 0.578782
vn -0.868047 0.427300 0.252804
vn -0.969077 0.056251 0.240263
vn -0.968020 0.098419 0.230762
vn -0.963171 0.192771 0.187457
vn 0.071310 0.532927 -0.843151
vn 0.086526 0.646071 -0.758357
vn -0.743226 0.100091 -0.661511
vn -0.139322 0.009961 -0.990197
vn 0.166118 0.079674 -0.982882
vn 0.034297 -0.021941 -0.999171
vn -0.264656 0.773253 -0.576227
vn -0.123639 0.558607 -0.820165
vn -0.093181 0.562718 -0.821380
vn -0.069306 0.552490 -0.830633
vn -0.550295 0.825521 -0.125264
vn -0.710190 0.477171 -0.517628
vn -0.534217 0.800004 -0.273143
vn 0.162020 -0.795632 0.583712
vn -0.036913 -0.794722 0.605850
vn -0.781450 -0.510700 0.358498
vn -0.876736 -0.294682 0.380128
vn -0.791891 -0.428413 0.435168
f 151//151 149//149 148//148
f 147//147 144//144 146//146
f 146//146 144//144 148//148
f 144//144 147//147 145//145
f 144//144 145//145 157//157
f 145//145 174//174 175//175
f 148//148 149//149 146//146
f 147//147 146//146 150//150
f 150//150 163//163 147//147
f 160//160 56//56 150//150
f 150//150 56//56 163//163
f 145//145 147//147 163//163
f 163//163 56//56 2//2
f 56//56 160//160 2//2
f 1//1 145//145 163//163
f 57//57 153//153 151//151
f 144//144 151//151 148//148
f 57//57 151//151 144//144
f 57//57 144//144 152//152
f 57//57 152//152 153//153
f 171//171 173//173 170//170
f 170//170 153//153 132//132
f 173//173 153//153 170//170
f 152//152 132//132 153//153
f 6//6 132//132 152//152
f 152//152 144//144 157//157
f 157//157 187//187 152//152
f 187//187 157//157 145//145
f 153//153 154//154 151//151
f 154//154 161//161 151//151
f 151//151 158//158 149//149
f 161//161 158//158 151//151
f 173//173 172//172 153//153
f 154//154 153//153 172//172
f 155//155 154//154 172//172
f 155//155 156//156 154//154
f 172//172 173//173 155//155
f 154//154 156//156 161//161
f 166//166 58//58 156//156
f 166//166 59//59 58//58
f 145//145 133//133 187//187
f 146//146 158//158 161//161
f 146//146 149//149 158//158
f 146//146 161//161 159//159
f 156//156 58//58 161//161
f 58//58 59//59 161//161
f 161//161 59//59 162//162
f 133//133 175//175 174//174
f 133//133 145//145 175//175
f 146//146 159//159 150//150
f 161//161 162//162 160//160
f 161//161 160//160 159//159
f 159//159 160//160 150//150
f 177//177 178//178 160//160
f 160//160 162//162 177//177
f 62//62 162//162 59//59
f 162//162 3//3 177//177
f 62//62 3//3 162//162
f 145//145 1//1 174//174
f 174//174 1//1 179//179
f 133//133 174//174 195//195
f 194//194 179//179 4//4
f 174//174 179//179 195//195
f 4//4 179//179 180//180
f 179//179 1//1 163//163
f 180//180 163//163 2//2
f 179//179 163//163 180//180
f 182//182 180//180 160//160
f 180//180 2//2 164//164
f 160//160 164//164 2//2
f 180//180 164//164 160//160
f 182//182 160//160 5//5
f 166//166 165//165 261//261
f 261//261 60//60 168//168
f 173//173 156//156 155//155
f 173//173 169//169 156//156
f 173//173 171//171 169//169
f 156//156 169//169 166//166
f 62//62 59//59 167//167
f 59//59 166//166 261//261
f 167//167 261//261 168//168
f 59//59 261//261 167//167
f 167//167 168//168 62//62
f 67//67 152//152 61//61
f 61//61 152//152 187//187
f 8//8 67//67 61//61
f 152//152 67//67 550//550
f 152//152 550//550 551//551
f 68//68 8//8 61//61
f 176//176 187//187 133//133
f 176//176 188//188 187//187
f 186//186 188//188 176//176
f 188//188 208//208 187//187
f 221//221 3//3 62//62
f 221//221 62//62 7//7
f 195//195 179//179 194//194
f 178//178 177//177 3//3
f 178//178 3//3 5//5
f 190//190 5//5 3//3
f 193//193 5//5 190//190
f 4//4 180//180 194//194
f 180//180 63//63 194//194
f 180//180 182//182 63//63
f 182//182 183//183 63//63
f 63//63 183//183 196//196
f 5//5 160//160 178//178
f 182//182 5//5 181//181
f 182//182 181//181 183//183
f 5//5 193//193 183//183
f 5//5 183//183 181//181
f 16//16 262//262 199//199
f 262//262 78//78 264//264
f 262//262 264//264 199//199
f 78//78 261//261 264//264
f 261//261 165//165 264//264
f 16//16 265//265 262//262
f 265//265 268//268 266//266
f 262//262 266//266 78//78
f 265//265 266//266 262//262
f 267//267 168//168 60//60
f 78//78 263//263 261//261
f 263//263 60//60 261//261
f 268//268 267//267 266//266
f 267//267 60//60 263//263
f 266//266 263//263 78//78
f 267//267 263//263 266//266
f 166//166 184//184 206//206
f 184//184 6//6 206//206
f 206//206 134//134 166//166
f 171//171 184//184 169//169
f 171//171 6//6 184//184
f 184//184 166//166 169//169
f 7//7 62//62 168//168
f 551//551 552//552 152//152
f 552//552 6//6 152//152
f 551//551 6//6 552//552
f 187//187 208//208 61//61
f 208//208 68//68 61//61
f 68//68 208//208 209//209
f 188//188 186//186 189//189
f 186//186 176//176 185//185
f 176//176 133//133 195//195
f 176//176 195//195 185//185
f 189//189 186//186 185//185
f 189//189 185//185 212//212
f 185//185 229//229 10//10
f 9//9 208//208 214//214
f 188//188 214//214 208//208
f 189//189 214//214 188//188
f 214//214 189//189 9//9
f 215//215 189//189 216//216
f 189//189 212//212 216//216
f 185//185 195//195 227//227
f 70//70 193//193 191//191
f 197//197 193//193 70//70
f 222//222 190//190 3//3
f 191//191 193//193 190//190
f 3//3 221//221 222//222
f 222//222 192//192 190//190
f 192//192 191//191 190//190
f 192//192 70//70 191//191
f 192//192 222//222 11//11
f 192//192 11//11 69//69
f 194//194 71//71 195//195
f 227//227 195//195 71//71
f 227//227 71//71 13//13
f 72//72 71//71 194//194
f 72//72 194//194 63//63
f 197//197 183//183 193//193
f 197//197 235//235 183//183
f 183//183 235//235 196//196
f 63//63 196//196 235//235
f 12//12 197//197 225//225
f 73//73 63//63 235//235
f 14//14 251//251 249//249
f 14//14 243//243 251//251
f 249//249 251//251 250//250
f 79//79 16//16 199//199
f 198//198 264//264 165//165
f 64//64 264//264 198//198
f 199//199 264//264 64//64
f 79//79 199//199 256//256
f 199//199 64//64 203//203
f 256//256 203//203 65//65
f 199//199 203//203 256//256
f 64//64 198//198 202//202
f 198//198 165//165 200//200
f 198//198 200//200 202//202
f 64//64 202//202 203//203
f 202//202 200//200 201//201
f 203//203 201//201 65//65
f 202//202 201//201 203//203
f 66//66 65//65 201//201
f 66//66 201//201 200//200
f 134//134 204//204 166//166
f 166//166 200//200 165//165
f 204//204 200//200 166//166
f 66//66 200//200 204//204
f 272//272 66//66 204//204
f 272//272 204//204 207//207
f 204//204 134//134 207//207
f 268//268 265//265 16//16
f 267//267 205//205 168//168
f 270//270 7//7 168//168
f 205//205 270//270 168//168
f 207//207 274//274 272//272
f 207//207 550//550 135//135
f 274//274 135//135 18//18
f 207//207 135//135 274//274
f 273//273 274//274 18//18
f 17//17 272//272 274//274
f 550//550 207//207 551//551
f 207//207 134//134 551//551
f 551//551 206//206 6//6
f 134//134 206//206 551//551
f 18//18 8//8 278//278
f 18//18 278//278 277//277
f 277//277 278//278 85//85
f 8//8 281//281 278//278
f 278//278 281//281 85//85
f 281//281 8//8 68//68
f 209//209 208//208 213//213
f 213//213 208//208 9//9
f 9//9 209//209 213//213
f 209//209 9//9 210//210
f 209//209 210//210 296//296
f 297//297 296//296 300//300
f 300//300 210//210 9//9
f 296//296 210//210 300//300
f 281//281 68//68 287//287
f 300//300 9//9 211//211
f 300//300 211//211 215//215
f 217//217 9//9 189//189
f 217//217 189//189 215//215
f 215//215 218//218 300//300
f 300//300 220//220 10//10
f 219//219 220//220 300//300
f 215//215 219//219 218//218
f 218//218 219//219 300//300
f 219//219 215//215 216//216
f 219//219 216//216 212//212
f 10//10 212//212 185//185
f 219//219 212//212 220//220
f 220//220 212//212 10//10
f 9//9 217//217 211//211
f 211//211 217//217 215//215
f 300//300 10//10 229//229
f 300//300 229//229 303//303
f 11//11 222//222 221//221
f 11//11 221//221 7//7
f 7//7 84//84 295//295
f 7//7 295//295 11//11
f 228//228 185//185 227//227
f 228//228 229//229 185//185
f 229//229 21//21 304//304
f 70//70 192//192 69//69
f 70//70 69//69 224//224
f 225//225 197//197 70//70
f 224//224 225//225 70//70
f 226//226 12//12 225//225
f 223//223 69//69 11//11
f 313//313 223//223 11//11
f 223//223 23//23 69//69
f 23//23 224//224 69//69
f 313//313 23//23 223//223
f 224//224 226//226 225//225
f 224//224 330//330 226//226
f 231//231 230//230 71//71
f 71//71 230//230 13//13
f 227//227 13//13 228//228
f 229//229 228//228 13//13
f 13//13 230//230 229//229
f 229//229 317//317 318//318
f 230//230 317//317 229//229
f 21//21 229//229 318//318
f 72//72 231//231 71//71
f 63//63 231//231 72//72
f 63//63 232//232 231//231
f 231//231 232//232 230//230
f 235//235 197//197 236//236
f 236//236 197//197 12//12
f 24//24 236//236 12//12
f 226//226 314//314 12//12
f 226//226 330//330 314//314
f 314//314 330//330 12//12
f 376//376 329//329 330//330
f 329//329 24//24 330//330
f 330//330 24//24 12//12
f 63//63 73//73 233//233
f 73//73 235//235 236//236
f 234//234 236//236 24//24
f 73//73 236//236 233//233
f 24//24 233//233 234//234
f 233//233 232//232 63//63
f 234//234 233//233 236//236
f 242//242 237//237 14//14
f 237//237 242//242 239//239
f 239//239 244//244 237//237
f 244//244 243//243 14//14
f 244//244 14//14 237//237
f 244//244 246//246 243//243
f 246//246 247//247 243//243
f 74//74 246//246 239//239
f 246//246 244//244 239//239
f 238//238 246//246 74//74
f 246//246 238//238 247//247
f 247//247 238//238 75//75
f 239//239 335//335 389//389
f 389//389 335//335 337//337
f 254//254 240//240 14//14
f 254//254 14//14 249//249
f 14//14 240//240 241//241
f 240//240 254//254 241//241
f 254//254 42//42 343//343
f 254//254 343//343 241//241
f 345//345 239//239 343//343
f 239//239 242//242 343//343
f 242//242 14//14 241//241
f 242//242 241//241 343//343
f 251//251 245//245 252//252
f 247//247 251//251 243//243
f 245//245 251//251 247//247
f 247//247 248//248 245//245
f 247//247 339//339 248//248
f 249//249 353//353 254//254
f 252//252 253//253 251//251
f 251//251 253//253 250//250
f 250//250 253//253 249//249
f 253//253 255//255 249//249
f 252//252 255//255 253//253
f 354//354 248//248 339//339
f 354//354 245//245 248//248
f 252//252 245//245 77//77
f 245//245 354//354 77//77
f 353//353 249//249 255//255
f 353//353 255//255 258//258
f 258//258 252//252 80//80
f 255//255 252//252 258//258
f 15//15 80//80 252//252
f 15//15 252//252 257//257
f 259//259 258//258 80//80
f 252//252 77//77 257//257
f 77//77 79//79 257//257
f 257//257 79//79 15//15
f 65//65 15//15 256//256
f 15//15 79//79 256//256
f 77//77 99//99 82//82
f 80//80 15//15 260//260
f 80//80 76//76 66//66
f 80//80 260//260 76//76
f 79//79 77//77 82//82
f 79//79 82//82 99//99
f 79//79 99//99 81//81
f 65//65 76//76 260//260
f 65//65 260//260 15//15
f 66//66 76//76 65//65
f 415//415 80//80 66//66
f 81//81 267//267 268//268
f 79//79 268//268 16//16
f 81//81 268//268 79//79
f 66//66 272//272 269//269
f 66//66 416//416 415//415
f 269//269 416//416 66//66
f 416//416 269//269 358//358
f 271//271 413//413 361//361
f 358//358 269//269 17//17
f 269//269 272//272 17//17
f 17//17 359//359 358//358
f 271//271 270//270 81//81
f 81//81 205//205 267//267
f 270//270 205//205 81//81
f 359//359 360//360 358//358
f 83//83 359//359 17//17
f 83//83 17//17 274//274
f 273//273 83//83 274//274
f 368//368 84//84 362//362
f 100//100 84//84 368//368
f 83//83 273//273 275//275
f 273//273 18//18 277//277
f 273//273 277//277 275//275
f 363//363 83//83 275//275
f 363//363 275//275 280//280
f 100//100 101//101 88//88
f 88//88 84//84 100//100
f 85//85 279//279 277//277
f 279//279 275//275 277//277
f 280//280 275//275 279//279
f 281//281 279//279 85//85
f 281//281 86//86 279//279
f 279//279 86//86 280//280
f 87//87 86//86 281//281
f 280//280 86//86 292//292
f 86//86 293//293 292//292
f 282//282 209//209 296//296
f 282//282 296//296 297//297
f 282//282 297//297 298//298
f 287//287 68//68 209//209
f 282//282 287//287 209//209
f 87//87 281//281 287//287
f 87//87 287//287 284//284
f 297//297 283//283 298//298
f 87//87 284//284 290//290
f 87//87 290//290 86//86
f 290//290 289//289 86//86
f 291//291 289//289 290//290
f 287//287 285//285 286//286
f 290//290 286//286 19//19
f 284//284 286//286 290//290
f 287//287 286//286 284//284
f 554//554 285//285 287//287
f 298//298 287//287 282//282
f 283//283 287//287 298//298
f 554//554 287//287 283//283
f 297//297 299//299 283//283
f 283//283 299//299 554//554
f 297//297 288//288 299//299
f 291//291 19//19 555//555
f 554//554 299//299 19//19
f 299//299 555//555 19//19
f 19//19 291//291 290//290
f 291//291 555//555 294//294
f 299//299 288//288 555//555
f 555//555 288//288 307//307
f 288//288 22//22 307//307
f 86//86 289//289 293//293
f 289//289 291//291 294//294
f 293//293 294//294 292//292
f 289//289 294//294 293//293
f 555//555 301//301 294//294
f 294//294 301//301 292//292
f 301//301 302//302 292//292
f 102//102 27//27 369//369
f 373//373 27//27 102//102
f 297//297 300//300 89//89
f 300//300 303//303 89//89
f 89//89 303//303 305//305
f 20//20 288//288 297//297
f 89//89 20//20 297//297
f 20//20 89//89 305//305
f 20//20 305//305 309//309
f 305//305 22//22 309//309
f 309//309 308//308 20//20
f 309//309 22//22 308//308
f 308//308 288//288 20//20
f 22//22 288//288 308//308
f 555//555 307//307 311//311
f 307//307 22//22 311//311
f 555//555 311//311 301//301
f 301//301 311//311 324//324
f 301//301 324//324 90//90
f 301//301 90//90 302//302
f 90//90 91//91 102//102
f 280//280 292//292 369//369
f 292//292 302//302 369//369
f 302//302 90//90 102//102
f 369//369 302//302 102//102
f 103//103 381//381 91//91
f 88//88 295//295 84//84
f 101//101 11//11 88//88
f 11//11 295//295 88//88
f 101//101 313//313 11//11
f 101//101 315//315 313//313
f 313//313 315//315 23//23
f 565//565 377//377 378//378
f 377//377 376//376 378//378
f 376//376 315//315 378//378
f 378//378 315//315 101//101
f 229//229 304//304 303//303
f 306//306 22//22 305//305
f 304//304 305//305 303//303
f 306//306 305//305 21//21
f 305//305 304//304 21//21
f 22//22 306//306 310//310
f 22//22 310//310 320//320
f 311//311 312//312 324//324
f 311//311 22//22 320//320
f 320//320 312//312 311//311
f 90//90 324//324 95//95
f 90//90 95//95 323//323
f 90//90 323//323 91//91
f 323//323 374//374 91//91
f 92//92 374//374 323//323
f 328//328 92//92 327//327
f 327//327 92//92 323//323
f 92//92 103//103 374//374
f 92//92 379//379 103//103
f 91//91 375//375 103//103
f 374//374 375//375 91//91
f 375//375 374//374 103//103
f 379//379 567//567 103//103
f 315//315 316//316 23//23
f 315//315 376//376 330//330
f 316//316 330//330 224//224
f 315//315 330//330 316//316
f 316//316 224//224 23//23
f 21//21 318//318 306//306
f 306//306 318//318 317//317
f 306//306 317//317 319//319
f 232//232 319//319 317//317
f 232//232 317//317 230//230
f 319//319 232//232 233//233
f 319//319 310//310 306//306
f 325//325 324//324 312//312
f 325//325 321//321 94//94
f 321//321 93//93 94//94
f 321//321 322//322 93//93
f 93//93 319//319 233//233
f 321//321 319//319 322//322
f 319//319 93//93 322//322
f 310//310 321//321 325//325
f 319//319 321//321 310//310
f 310//310 325//325 312//312
f 310//310 312//312 320//320
f 325//325 328//328 95//95
f 95//95 327//327 323//323
f 328//328 327//327 95//95
f 233//233 24//24 93//93
f 93//93 24//24 94//94
f 95//95 324//324 326//326
f 95//95 326//326 325//325
f 326//326 324//324 325//325
f 328//328 325//325 94//94
f 331//331 94//94 24//24
f 328//328 94//94 331//331
f 92//92 328//328 331//331
f 92//92 331//331 379//379
f 331//331 329//329 379//379
f 331//331 24//24 329//329
f 379//379 329//329 376//376
f 239//239 382//382 74//74
f 389//389 382//382 239//239
f 389//389 332//332 382//382
f 332//332 553//553 556//556
f 553//553 559//559 556//556
f 75//75 238//238 25//25
f 25//25 238//238 74//74
f 556//556 333//333 332//332
f 556//556 334//334 333//333
f 333//333 382//382 332//332
f 334//334 382//382 333//333
f 383//383 382//382 334//334
f 74//74 382//382 383//383
f 74//74 104//104 25//25
f 334//334 384//384 383//383
f 383//383 384//384 74//74
f 384//384 104//104 74//74
f 336//336 351//351 346//346
f 401//401 336//336 346//346
f 401//401 389//389 336//336
f 559//559 136//136 557//557
f 136//136 569//569 570//570
f 136//136 570//570 557//557
f 345//345 335//335 239//239
f 336//336 337//337 335//335
f 337//337 336//336 389//389
f 336//336 345//345 351//351
f 336//336 335//335 345//345
f 556//556 559//559 557//557
f 558//558 557//557 570//570
f 556//556 557//557 558//558
f 558//558 570//570 28//28
f 556//556 558//558 28//28
f 338//338 339//339 75//75
f 75//75 339//339 247//247
f 339//339 338//338 573//573
f 338//338 105//105 573//573
f 339//339 404//404 98//98
f 340//340 343//343 42//42
f 347//347 343//343 340//340
f 341//341 42//42 560//560
f 341//341 560//560 352//352
f 352//352 406//406 441//441
f 347//347 340//340 341//341
f 348//348 341//341 342//342
f 97//97 347//347 348//348
f 347//347 341//341 348//348
f 351//351 349//349 346//346
f 346//346 348//348 44//44
f 349//349 348//348 346//346
f 342//342 44//44 348//348
f 399//399 341//341 352//352
f 399//399 352//352 441//441
f 401//401 403//403 402//402
f 346//346 403//403 401//401
f 346//346 44//44 400//400
f 346//346 400//400 403//403
f 403//403 400//400 402//402
f 399//399 342//342 341//341
f 345//345 343//343 344//344
f 343//343 350//350 344//344
f 96//96 343//343 347//347
f 343//343 96//96 350//350
f 345//345 344//344 351//351
f 348//348 350//350 97//97
f 97//97 96//96 347//347
f 350//350 96//96 97//97
f 349//349 344//344 348//348
f 344//344 350//350 348//348
f 351//351 344//344 349//349
f 409//409 98//98 404//404
f 254//254 352//352 560//560
f 254//254 560//560 42//42
f 353//353 352//352 254//254
f 406//406 352//352 353//353
f 406//406 115//115 441//441
f 354//354 339//339 98//98
f 354//354 98//98 410//410
f 258//258 259//259 353//353
f 26//26 406//406 353//353
f 26//26 353//353 259//259
f 77//77 357//357 99//99
f 77//77 354//354 356//356
f 77//77 356//356 357//357
f 354//354 411//411 356//356
f 411//411 357//357 356//356
f 409//409 410//410 98//98
f 408//408 410//410 409//409
f 410//410 411//411 354//354
f 408//408 411//411 410//410
f 259//259 80//80 26//26
f 80//80 415//415 355//355
f 355//355 26//26 80//80
f 26//26 355//355 415//415
f 26//26 415//415 417//417
f 357//357 411//411 412//412
f 99//99 412//412 81//81
f 357//357 412//412 99//99
f 413//413 271//271 412//412
f 271//271 81//81 412//412
f 414//414 412//412 408//408
f 414//414 413//413 412//412
f 408//408 412//412 411//411
f 417//417 415//415 416//416
f 368//368 413//413 422//422
f 368//368 422//422 426//426
f 422//422 423//423 426//426
f 361//361 413//413 368//368
f 271//271 276//276 270//270
f 276//276 362//362 84//84
f 270//270 84//84 7//7
f 276//276 84//84 270//270
f 364//364 363//363 424//424
f 33//33 426//426 423//423
f 361//361 276//276 271//271
f 362//362 276//276 361//361
f 368//368 362//362 361//361
f 363//363 364//364 365//365
f 83//83 365//365 359//359
f 359//359 364//364 561//561
f 365//365 364//364 359//359
f 363//363 365//365 83//83
f 366//366 367//367 100//100
f 368//368 366//366 100//100
f 367//367 366//366 368//368
f 368//368 426//426 367//367
f 426//426 372//372 367//367
f 424//424 363//363 425//425
f 424//424 425//425 33//33
f 33//33 425//425 426//426
f 280//280 369//369 363//363
f 369//369 27//27 425//425
f 369//369 371//371 363//363
f 425//425 371//371 369//369
f 378//378 101//101 372//372
f 367//367 372//372 100//100
f 372//372 101//101 100//100
f 363//363 371//371 425//425
f 426//426 425//425 372//372
f 425//425 27//27 563//563
f 425//425 563//563 372//372
f 370//370 565//565 378//378
f 370//370 378//378 372//372
f 563//563 370//370 372//372
f 27//27 562//562 563//563
f 370//370 563//563 565//565
f 562//562 564//564 563//563
f 563//563 568//568 565//565
f 562//562 568//568 564//564
f 564//564 568//568 563//563
f 373//373 380//380 562//562
f 91//91 380//380 102//102
f 380//380 91//91 381//381
f 376//376 566//566 568//568
f 376//376 568//568 379//379
f 568//568 567//567 379//379
f 27//27 373//373 562//562
f 373//373 102//102 380//380
f 568//568 566//566 565//565
f 568//568 562//562 380//380
f 567//567 381//381 103//103
f 380//380 381//381 567//567
f 568//568 380//380 567//567
f 334//334 387//387 384//384
f 104//104 388//388 25//25
f 388//388 30//30 105//105
f 25//25 338//338 75//75
f 388//388 338//338 25//25
f 105//105 338//338 388//388
f 388//388 104//104 30//30
f 387//387 104//104 384//384
f 106//106 104//104 387//387
f 107//107 104//104 106//106
f 104//104 392//392 30//30
f 105//105 30//30 574//574
f 105//105 574//574 572//572
f 105//105 572//572 571//571
f 392//392 104//104 393//393
f 430//430 570//570 569//569
f 28//28 570//570 430//430
f 28//28 386//386 556//556
f 28//28 385//385 387//387
f 385//385 106//106 387//387
f 556//556 386//386 334//334
f 386//386 387//387 334//334
f 28//28 387//387 386//386
f 431//431 385//385 28//28
f 431//431 432//432 106//106
f 431//431 106//106 385//385
f 108//108 390//390 391//391
f 108//108 391//391 29//29
f 395//395 390//390 435//435
f 433//433 432//432 431//431
f 106//106 432//432 108//108
f 390//390 108//108 432//432
f 432//432 436//436 390//390
f 390//390 436//436 434//434
f 434//434 444//444 390//390
f 436//436 444//444 434//434
f 444//444 435//435 390//390
f 444//444 395//395 435//435
f 572//572 573//573 571//571
f 571//571 573//573 105//105
f 405//405 339//339 573//573
f 575//575 572//572 574//574
f 573//573 572//572 575//575
f 405//405 573//573 575//575
f 393//393 579//579 392//392
f 392//392 46//46 30//30
f 579//579 46//46 392//392
f 29//29 579//579 393//393
f 29//29 393//393 108//108
f 393//393 104//104 107//107
f 108//108 107//107 106//106
f 393//393 107//107 108//108
f 390//390 395//395 391//391
f 395//395 394//394 391//391
f 394//394 29//29 391//391
f 398//398 394//394 395//395
f 29//29 394//394 398//398
f 395//395 397//397 398//398
f 398//398 397//397 29//29
f 397//397 396//396 29//29
f 397//397 579//579 396//396
f 579//579 29//29 396//396
f 46//46 579//579 581//581
f 579//579 580//580 581//581
f 114//114 31//31 397//397
f 444//444 397//397 395//395
f 114//114 397//397 444//444
f 582//582 397//397 31//31
f 397//397 582//582 579//579
f 579//579 582//582 580//580
f 582//582 31//31 581//581
f 582//582 581//581 580//580
f 444//444 586//586 114//114
f 44//44 342//342 137//137
f 342//342 399//399 137//137
f 43//43 429//429 569//569
f 440//440 45//45 137//137
f 43//43 577//577 429//429
f 577//577 576//576 429//429
f 440//440 137//137 399//399
f 405//405 584//584 404//404
f 405//405 404//404 339//339
f 575//575 583//583 584//584
f 575//575 584//584 405//405
f 409//409 404//404 116//116
f 114//114 583//583 585//585
f 114//114 585//585 31//31
f 406//406 455//455 115//115
f 409//409 116//116 408//408
f 116//116 414//414 408//408
f 463//463 414//414 116//116
f 407//407 454//454 406//406
f 454//454 407//407 459//459
f 118//118 414//414 463//463
f 414//414 118//118 462//462
f 459//459 407//407 26//26
f 26//26 407//407 406//406
f 416//416 460//460 417//417
f 417//417 459//459 26//26
f 460//460 459//459 417//417
f 416//416 420//420 460//460
f 420//420 126//126 460//460
f 126//126 420//420 32//32
f 413//413 414//414 418//418
f 422//422 413//413 423//423
f 413//413 418//418 109//109
f 423//423 109//109 33//33
f 413//413 109//109 423//423
f 358//358 360//360 416//416
f 360//360 359//359 421//421
f 359//359 561//561 421//421
f 360//360 421//421 416//416
f 416//416 421//421 420//420
f 421//421 561//561 419//419
f 420//420 419//419 32//32
f 421//421 419//419 420//420
f 424//424 33//33 590//590
f 424//424 590//590 47//47
f 418//418 590//590 427//427
f 590//590 33//33 427//427
f 427//427 33//33 109//109
f 427//427 109//109 418//418
f 47//47 561//561 424//424
f 561//561 364//364 424//424
f 429//429 576//576 443//443
f 443//443 34//34 429//429
f 34//34 443//443 600//600
f 110//110 34//34 111//111
f 110//110 428//428 34//34
f 110//110 430//430 428//428
f 34//34 428//428 429//429
f 429//429 430//430 569//569
f 428//428 430//430 429//429
f 111//111 430//430 110//110
f 28//28 430//430 431//431
f 430//430 111//111 112//112
f 430//430 112//112 431//431
f 120//120 433//433 112//112
f 437//437 432//432 433//433
f 112//112 433//433 431//431
f 433//433 120//120 437//437
f 432//432 437//437 436//436
f 436//436 437//437 48//48
f 444//444 436//436 113//113
f 436//436 48//48 113//113
f 113//113 48//48 438//438
f 120//120 592//592 437//437
f 592//592 48//48 437//437
f 444//444 113//113 438//438
f 444//444 438//438 586//586
f 586//586 438//438 445//445
f 439//439 438//438 48//48
f 445//445 438//438 439//439
f 448//448 445//445 439//439
f 445//445 448//448 586//586
f 586//586 446//446 50//50
f 448//448 446//446 586//586
f 138//138 48//48 592//592
f 592//592 593//593 138//138
f 120//120 593//593 592//592
f 138//138 593//593 618//618
f 614//614 615//615 439//439
f 526//526 615//615 614//614
f 615//615 526//526 450//450
f 526//526 620//620 525//525
f 526//526 525//525 450//450
f 440//440 399//399 469//469
f 399//399 441//441 469//469
f 578//578 49//49 45//45
f 594//594 49//49 578//578
f 594//594 578//578 440//440
f 440//440 578//578 45//45
f 442//442 469//469 441//441
f 440//440 596//596 594//594
f 468//468 596//596 440//440
f 468//468 440//440 469//469
f 596//596 468//468 595//595
f 49//49 594//594 596//596
f 469//469 442//442 451//451
f 115//115 451//451 441//441
f 451//451 442//442 441//441
f 474//474 469//469 451//451
f 471//471 469//469 474//474
f 586//586 587//587 114//114
f 50//50 587//587 586//586
f 114//114 588//588 583//583
f 587//587 588//588 114//114
f 452//452 404//404 584//584
f 404//404 452//452 116//116
f 50//50 446//446 139//139
f 446//446 448//448 139//139
f 50//50 447//447 587//587
f 447//447 35//35 452//452
f 587//587 452//452 584//584
f 447//447 452//452 587//587
f 588//588 584//584 583//583
f 587//587 584//584 588//588
f 35//35 50//50 139//139
f 116//116 452//452 475//475
f 439//439 615//615 448//448
f 615//615 450//450 448//448
f 449//449 35//35 139//139
f 450//450 139//139 448//448
f 449//449 139//139 450//450
f 475//475 452//452 449//449
f 452//452 35//35 449//449
f 475//475 449//449 476//476
f 449//449 450//450 476//476
f 36//36 451//451 115//115
f 36//36 115//115 455//455
f 478//478 463//463 116//116
f 475//475 478//478 116//116
f 455//455 406//406 454//454
f 456//456 483//483 458//458
f 455//455 456//456 602//602
f 455//455 602//602 36//36
f 36//36 602//602 481//481
f 451//451 36//36 453//453
f 474//474 451//451 121//121
f 121//121 451//451 453//453
f 453//453 36//36 481//481
f 482//482 121//121 453//453
f 453//453 481//481 122//122
f 482//482 453//453 122//122
f 122//122 481//481 602//602
f 456//456 455//455 117//117
f 455//455 454//454 459//459
f 455//455 459//459 117//117
f 459//459 483//483 456//456
f 459//459 456//456 117//117
f 459//459 458//458 483//483
f 457//457 458//458 459//459
f 461//461 457//457 459//459
f 461//461 459//459 460//460
f 456//456 458//458 602//602
f 602//602 484//484 122//122
f 458//458 484//484 602//602
f 478//478 479//479 463//463
f 457//457 461//461 123//123
f 461//461 460//460 123//123
f 123//123 460//460 126//126
f 463//463 479//479 499//499
f 418//418 498//498 499//499
f 499//499 498//498 463//463
f 612//612 47//47 591//591
f 612//612 591//591 611//611
f 462//462 418//418 414//414
f 118//118 418//418 462//462
f 498//498 418//418 463//463
f 418//418 118//118 463//463
f 47//47 590//590 591//591
f 591//591 418//418 499//499
f 589//589 418//418 591//591
f 418//418 589//589 590//590
f 590//590 589//589 591//591
f 598//598 49//49 597//597
f 576//576 598//598 443//443
f 443//443 599//599 600//600
f 598//598 599//599 443//443
f 598//598 600//600 599//599
f 600//600 119//119 34//34
f 37//37 119//119 601//601
f 601//601 600//600 598//598
f 119//119 600//600 601//601
f 601//601 598//598 465//465
f 597//597 466//466 598//598
f 597//597 467//467 466//466
f 37//37 38//38 510//510
f 37//37 510//510 507//507
f 38//38 37//37 465//465
f 37//37 601//601 465//465
f 466//466 465//465 598//598
f 38//38 465//465 466//466
f 466//466 467//467 503//503
f 38//38 466//466 504//504
f 504//504 505//505 38//38
f 505//505 510//510 38//38
f 504//504 510//510 505//505
f 527//527 467//467 39//39
f 503//503 467//467 527//527
f 504//504 466//466 503//503
f 504//504 503//503 506//506
f 506//506 503//503 527//527
f 37//37 464//464 119//119
f 119//119 111//111 34//34
f 464//464 111//111 119//119
f 507//507 464//464 37//37
f 111//111 508//508 112//112
f 112//112 502//502 120//120
f 508//508 502//502 112//112
f 597//597 49//49 596//596
f 597//597 596//596 595//595
f 468//468 469//469 471//471
f 597//597 595//595 627//627
f 468//468 471//471 595//595
f 471//471 55//55 470//470
f 627//627 55//55 40//40
f 471//471 470//470 595//595
f 470//470 55//55 627//627
f 470//470 627//627 595//595
f 627//627 40//40 628//628
f 627//627 628//628 54//54
f 54//54 39//39 467//467
f 627//627 467//467 597//597
f 54//54 467//467 627//627
f 140//140 54//54 628//628
f 41//41 631//631 55//55
f 51//51 140//140 628//628
f 51//51 628//628 40//40
f 478//478 475//475 477//477
f 477//477 450//450 525//525
f 475//475 476//476 477//477
f 476//476 450//450 477//477
f 478//478 477//477 626//626
f 626//626 525//525 624//624
f 477//477 525//525 626//626
f 478//478 626//626 521//521
f 474//474 473//473 471//471
f 472//472 41//41 55//55
f 473//473 41//41 472//472
f 471//471 472//472 55//55
f 473//473 472//472 471//471
f 474//474 489//489 473//473
f 492//492 473//473 489//489
f 541//541 130//130 610//610
f 610//610 495//495 545//545
f 496//496 480//480 495//495
f 495//495 480//480 545//545
f 545//545 546//546 131//131
f 480//480 546//546 545//545
f 480//480 548//548 131//131
f 546//546 480//480 131//131
f 479//479 478//478 521//521
f 521//521 626//626 533//533
f 479//479 521//521 533//533
f 121//121 486//486 474//474
f 122//122 487//487 482//482
f 482//482 486//486 121//121
f 487//487 486//486 482//482
f 488//488 487//487 122//122
f 142//142 458//458 123//123
f 458//458 485//485 123//123
f 458//458 457//457 485//485
f 485//485 457//457 123//123
f 458//458 124//124 484//484
f 484//484 124//124 125//125
f 606//606 603//603 124//124
f 494//494 124//124 458//458
f 493//493 458//458 142//142
f 494//494 458//458 493//493
f 606//606 494//494 493//493
f 124//124 494//494 606//606
f 486//486 487//487 488//488
f 488//488 492//492 486//486
f 490//490 492//492 488//488
f 486//486 489//489 474//474
f 492//492 489//489 486//486
f 124//124 141//141 490//490
f 125//125 490//490 488//488
f 484//484 488//488 122//122
f 125//125 488//488 484//484
f 490//490 125//125 124//124
f 141//141 492//492 490//490
f 603//603 605//605 141//141
f 603//603 141//141 124//124
f 492//492 491//491 473//473
f 492//492 141//141 491//491
f 493//493 604//604 606//606
f 604//604 605//605 603//603
f 604//604 603//603 606//606
f 543//543 607//607 130//130
f 130//130 607//607 610//610
f 495//495 610//610 613//613
f 495//495 501//501 499//499
f 495//495 613//613 501//501
f 495//495 499//499 496//496
f 479//479 480//480 500//500
f 480//480 497//497 500//500
f 480//480 496//496 497//497
f 499//499 479//479 500//500
f 499//499 500//500 496//496
f 496//496 500//500 497//497
f 52//52 612//612 607//607
f 612//612 613//613 607//607
f 607//607 613//613 610//610
f 126//126 32//32 609//609
f 142//142 123//123 608//608
f 123//123 609//609 608//608
f 126//126 609//609 123//123
f 613//613 612//612 611//611
f 501//501 591//591 499//499
f 613//613 591//591 501//501
f 611//611 591//591 613//613
f 120//120 502//502 593//593
f 593//593 619//619 618//618
f 502//502 619//619 593//593
f 520//520 508//508 509//509
f 508//508 520//520 502//502
f 520//520 619//619 502//502
f 527//527 529//529 506//506
f 529//529 527//527 629//629
f 528//528 527//527 39//39
f 527//527 528//528 629//629
f 529//529 516//516 506//506
f 504//504 511//511 510//510
f 511//511 513//513 510//510
f 510//510 513//513 507//507
f 511//511 512//512 513//513
f 513//513 509//509 507//507
f 512//512 509//509 513//513
f 504//504 506//506 511//511
f 506//506 516//516 514//514
f 506//506 514//514 511//511
f 511//511 514//514 512//512
f 516//516 530//530 537//537
f 516//516 537//537 536//536
f 143//143 520//520 519//519
f 520//520 509//509 512//512
f 520//520 512//512 519//519
f 516//516 515//515 514//514
f 514//514 515//515 512//512
f 508//508 111//111 464//464
f 509//509 464//464 507//507
f 508//508 464//464 509//509
f 512//512 515//515 519//519
f 515//515 516//516 518//518
f 518//518 519//519 515//515
f 522//522 143//143 519//519
f 522//522 519//519 517//517
f 519//519 518//518 531//531
f 518//518 516//516 531//531
f 519//519 531//531 517//517
f 517//517 532//532 522//522
f 522//522 532//532 523//523
f 625//625 626//626 624//624
f 524//524 626//626 625//625
f 53//53 143//143 616//616
f 53//53 616//616 523//523
f 143//143 522//522 616//616
f 616//616 522//522 523//523
f 625//625 523//523 524//524
f 524//524 523//523 532//532
f 524//524 532//532 626//626
f 626//626 532//532 533//533
f 520//520 143//143 617//617
f 520//520 617//617 619//619
f 619//619 617//617 618//618
f 614//614 622//622 526//526
f 622//622 623//623 526//526
f 622//622 621//621 623//623
f 623//623 621//621 620//620
f 623//623 620//620 526//526
f 39//39 629//629 528//528
f 39//39 55//55 629//629
f 55//55 631//631 630//630
f 631//631 41//41 535//535
f 631//631 535//535 630//630
f 535//535 537//537 630//630
f 529//529 530//530 516//516
f 529//529 629//629 530//530
f 629//629 630//630 530//530
f 629//629 55//55 630//630
f 630//630 537//537 530//530
f 531//531 516//516 536//536
f 531//531 536//536 537//537
f 131//131 549//549 544//544
f 517//517 534//534 532//532
f 531//531 534//534 517//517
f 533//533 532//532 479//479
f 535//535 41//41 127//127
f 537//537 127//127 128//128
f 535//535 127//127 537//537
f 473//473 538//538 41//41
f 538//538 127//127 41//41
f 127//127 538//538 473//473
f 607//607 128//128 52//52
f 543//543 128//128 607//607
f 532//532 534//534 549//549
f 534//534 129//129 549//549
f 534//534 531//531 129//129
f 531//531 542//542 129//129
f 542//542 130//130 541//541
f 542//542 541//541 129//129
f 537//537 128//128 543//543
f 531//531 537//537 542//542
f 542//542 543//543 130//130
f 537//537 543//543 542//542
f 545//545 541//541 610//610
f 129//129 541//541 545//545
f 479//479 548//548 480//480
f 479//479 131//131 548//548
f 129//129 545//545 549//549
f 545//545 544//544 549//549
f 544//544 545//545 131//131
f 479//479 532//532 547//547
f 479//479 547//547 131//131
f 547//547 549//549 131//131
f 532//532 549//549 547//547
f 127//127 540//540 128//128
f 127//127 473//473 491//491
f 128//128 540//540 539//539
f 539//539 491//491 141//141
f 540//540 491//491 539//539
f 127//127 491//491 540//540
