# decimated by Tools/decimate_anatomy.py from 3040 triangles (BodyParts3D, CC BY 4.0)
v -0.01587419 -0.01122725 0.03999185
v -0.01784803 -0.01365568 0.03160536
v -0.01883412 -0.01252985 0.04091926
v -0.01711672 -0.01166593 0.04087849
v -0.01940496 -0.01088947 0.04148574
v -0.01961386 -0.01040822 0.02971480
v -0.01964118 -0.01342192 0.03984450
v -0.02195965 -0.00830932 0.04075482
v -0.02330092 -0.00741323 0.03937483
v -0.02294101 -0.00843895 0.03984497
v -0.02294283 -0.00761830 0.04012954
v -0.01829776 -0.00610846 0.03789144
v -0.01927365 -0.01255292 0.03029972
v -0.01911847 -0.00658465 0.03058825
v -0.02176299 -0.00847148 0.04083740
v -0.01500462 -0.01176910 0.03444637
v -0.01526943 -0.01314743 0.03561596
v -0.01576937 -0.00917760 0.03832760
v -0.01571477 -0.01391550 0.03487273
v -0.01678395 -0.01488375 0.03547138
v -0.01729112 -0.01372722 0.03930623
v -0.01886149 -0.01357173 0.04005675
v -0.01680368 -0.00864744 0.03912944
v -0.01857427 -0.00808136 0.03974223
v -0.01980673 -0.01291081 0.03098883
v -0.02127494 -0.01013438 0.03032471
v -0.02097662 -0.01174439 0.04004344
v -0.01959276 -0.00765003 0.03982140
v -0.02107238 -0.00803374 0.04067535
v -0.02101968 -0.00731569 0.03048056
v -0.02157834 -0.00632649 0.03136548
v -0.02112696 -0.00709603 0.03940784
v -0.02307163 -0.00753852 0.03985093
v -0.01700588 -0.00769279 0.03054940
v -0.01946935 -0.00738397 0.03010428
v -0.02338471 -0.00777686 0.03940174
v -0.02332569 -0.00740813 0.03928266
v -0.01598602 -0.01373514 0.03336832
v -0.01480349 -0.01179858 0.03553980
v -0.01505487 -0.01113838 0.03804067
v -0.01564160 -0.01377060 0.03637464
v -0.01565989 -0.01351043 0.03718470
v -0.01506404 -0.01259435 0.03636776
v -0.01552230 -0.00803288 0.03581230
v -0.01502455 -0.01031387 0.03553216
v -0.01526270 -0.01193806 0.03816335
v -0.01560430 -0.01326958 0.03739372
v -0.01654221 -0.01296245 0.03944535
v -0.01549564 -0.01184453 0.03882537
v -0.01576494 -0.01151555 0.03959265
v -0.01545721 -0.01095319 0.03920472
v -0.01628863 -0.00888452 0.03879314
v -0.01631063 -0.01064034 0.04043566
v -0.01791219 -0.01319074 0.03112785
v -0.01682043 -0.00837140 0.03081979
v -0.01631883 -0.01306303 0.03221499
v -0.01705734 -0.01408321 0.03267658
v -0.01680331 -0.01434921 0.03336722
v -0.01767949 -0.01410690 0.03249663
v -0.01794396 -0.01495240 0.03463438
v -0.01582402 -0.00814635 0.03295359
v -0.01611642 -0.00885587 0.03220763
v -0.01656739 -0.01474102 0.03564876
v -0.01738004 -0.01507042 0.03555426
v -0.01816182 -0.01497681 0.03527486
v -0.01686706 -0.00664594 0.03488177
v -0.01573426 -0.00782295 0.03448070
v -0.01697387 -0.01244072 0.04034064
v -0.01687322 -0.01401183 0.03846734
v -0.01683515 -0.01371220 0.03883679
v -0.01753518 -0.01470752 0.03770327
v -0.01745432 -0.01345112 0.03982775
v -0.01818169 -0.01350144 0.04011284
v -0.01815120 -0.01495370 0.03738345
v -0.01847544 -0.01393081 0.03962132
v -0.01910475 -0.01440685 0.03856507
v -0.01619724 -0.00723974 0.03675315
v -0.01614070 -0.00806184 0.03793092
v -0.01820680 -0.00615374 0.03828752
v -0.01709219 -0.00658014 0.03702549
v -0.01671074 -0.00696106 0.03780855
v -0.01851760 -0.00639610 0.03878696
v -0.01824514 -0.00612669 0.03843623
v -0.01798749 -0.01307158 0.04041653
v -0.01663119 -0.01066281 0.04080280
v -0.01702018 -0.01242372 0.04038755
v -0.01579297 -0.01036436 0.03968985
v -0.01725426 -0.01143933 0.04098166
v -0.01731829 -0.01255280 0.04056358
v -0.01813600 -0.01145673 0.04132451
v -0.01832881 -0.01158407 0.04133064
v -0.01933608 -0.01094570 0.04151096
v -0.01826285 -0.00675991 0.03889682
v -0.01864480 -0.01218366 0.03023419
v -0.01808358 -0.01457572 0.03368180
v -0.01898557 -0.01371850 0.03226609
v -0.01904247 -0.01312283 0.03103799
v -0.01960114 -0.01096734 0.02976903
v -0.01886601 -0.01232259 0.03020926
v -0.01699641 -0.00737474 0.03120351
v -0.01731266 -0.00677093 0.03321047
v -0.01889396 -0.01485780 0.03738038
v -0.02041402 -0.01423141 0.03529760
v -0.01876349 -0.01478907 0.03508363
v -0.02004650 -0.01443209 0.03700469
v -0.02067705 -0.01369686 0.03805074
v -0.02096363 -0.01339674 0.03837987
v -0.02121227 -0.01359313 0.03704732
v -0.02169976 -0.01132161 0.03925804
v -0.02158826 -0.01262919 0.03808580
v -0.01936576 -0.01195482 0.04118958
v -0.01953476 -0.01212562 0.04103033
v -0.01910805 -0.01371396 0.03983902
v -0.01930138 -0.01299146 0.04055669
v -0.01938245 -0.01121549 0.04145524
v -0.01979088 -0.01136717 0.04123646
v -0.01963572 -0.00705313 0.03938643
v -0.01758089 -0.01026498 0.04099924
v -0.02039175 -0.01052396 0.04111696
v -0.02176367 -0.01229691 0.03424813
v -0.02178312 -0.01234404 0.03531420
v -0.02068446 -0.00779678 0.03006749
v -0.02227008 -0.00888872 0.03165009
v -0.02280051 -0.00676801 0.03560276
v -0.02318444 -0.00893716 0.03838120
v -0.02261520 -0.00786507 0.03206603
v -0.02133217 -0.00618548 0.03735961
v -0.02280855 -0.00689358 0.03811092
v -0.02083625 -0.01239667 0.03972903
v -0.02216717 -0.00915594 0.04029220
v -0.02236997 -0.00817344 0.04054145
v -0.02259119 -0.00761379 0.04039524
v -0.02246171 -0.00719476 0.03990954
v -0.02257045 -0.00726401 0.04004149
v -0.02234012 -0.00725861 0.03999894
v -0.02201790 -0.00905739 0.04052097
v -0.02292354 -0.00829576 0.03998445
v -0.02289602 -0.00841174 0.03996532
v -0.02341979 -0.00808752 0.03891033
v -0.02260772 -0.00725113 0.03994101
v -0.01855333 -0.00679901 0.03045164
v -0.01685215 -0.00752738 0.03118674
v -0.01683256 -0.00663121 0.03529718
v -0.01987575 -0.01316585 0.03145057
v -0.02142806 -0.01021595 0.03053455
v -0.01698116 -0.00790767 0.03061762
v -0.01905986 -0.01031933 0.02984937
v -0.02136104 -0.00822785 0.04075371
v -0.01994481 -0.00643855 0.03109868
v -0.02206612 -0.00643554 0.03320978
v -0.02170339 -0.00621310 0.03681622
v -0.01735705 -0.00654673 0.03566880
v -0.02217485 -0.00767546 0.03119798
v -0.02257662 -0.00718164 0.03277229
v -0.02340449 -0.00769101 0.03738022
v -0.02170036 -0.00787289 0.04058175
v -0.02257233 -0.00730559 0.04007634
v -0.02263545 -0.00793389 0.04038703
v -0.02292055 -0.00763526 0.04014930
v -0.02345377 -0.00762445 0.03842638
v -0.02334354 -0.00745370 0.03928731
v -0.02323908 -0.00756301 0.03958275
vn 0.777074 -0.251125 0.577141
vn -0.098807 -0.872690 -0.478172
vn 0.079322 -0.496007 0.864688
vn 0.532607 -0.319628 0.783689
vn -0.424511 -0.154236 0.892189
vn -0.375026 -0.207995 -0.903379
vn -0.534864 -0.657381 0.530821
vn -0.503919 -0.190591 0.842461
vn -0.534529 0.831520 0.151173
vn -0.814755 -0.420225 0.399481
vn -0.539889 0.687973 0.484987
vn 0.003454 0.988515 -0.151085
vn -0.360939 -0.480319 -0.799385
vn -0.179973 0.584589 -0.791116
vn -0.059545 0.319299 0.945781
vn 0.931284 -0.004931 -0.364260
vn 0.920476 -0.373668 -0.114438
vn 0.872845 0.372577 0.315163
vn 0.757017 -0.645007 -0.104358
vn 0.426399 -0.899148 -0.098573
vn 0.337457 -0.788861 0.513636
vn 0.002855 -0.704340 0.709857
vn 0.502529 0.546270 0.670115
vn 0.347155 0.540106 0.766661
vn -0.401352 -0.718192 -0.568433
vn -0.546679 -0.010594 -0.837275
vn -0.597284 -0.406152 0.691587
vn 0.171639 0.670502 0.721781
vn 0.202936 0.526694 0.825476
vn -0.315886 0.508592 -0.800968
vn -0.607524 0.546224 -0.576674
vn -0.072856 0.888635 0.452792
vn -0.541786 0.719931 0.433782
vn 0.635566 0.677630 -0.369963
vn 0.093164 0.195531 -0.976262
vn -0.904779 -0.155349 0.396536
vn -0.736121 0.661206 0.144680
vn 0.874423 -0.290039 -0.388924
vn 0.988824 -0.137437 -0.057773
vn 0.968793 0.159898 0.189401
vn 0.797151 -0.596177 0.095513
vn 0.678449 -0.685816 0.263370
vn 0.940192 -0.305494 0.150709
vn 0.939357 0.318285 0.127687
vn 0.981103 0.186939 -0.049907
vn 0.917409 -0.279525 0.283245
vn 0.791495 -0.487867 0.368133
vn 0.693755 -0.529261 0.488454
vn 0.792626 -0.443027 0.418893
vn 0.757311 -0.442745 0.480059
vn 0.920080 0.049405 0.388602
vn 0.674920 0.509599 0.533660
vn 0.771451 0.144281 0.619714
vn 0.517890 -0.345227 -0.782693
vn 0.736957 -0.118919 -0.665397
vn 0.701173 -0.268246 -0.660606
vn 0.347375 -0.784772 -0.513287
vn 0.404833 -0.848705 -0.340310
vn 0.057424 -0.918442 -0.391364
vn -0.076489 -0.951948 -0.296556
vn 0.940475 0.222421 -0.256973
vn 0.903732 0.039970 -0.426229
vn 0.594874 -0.777462 0.204150
vn 0.066735 -0.997760 0.004558
vn -0.194330 -0.980820 -0.015114
vn 0.374846 0.918801 -0.123675
vn 0.862707 0.490519 -0.122991
vn 0.646117 -0.426071 0.633242
vn 0.592205 -0.732430 0.335916
vn 0.569490 -0.649359 0.503998
vn 0.376009 -0.873836 0.308265
vn 0.401770 -0.664868 0.629707
vn 0.197317 -0.774257 0.601326
vn 0.067512 -0.961924 0.264848
vn 0.063571 -0.858632 0.508635
vn -0.322195 -0.868440 0.376833
vn 0.751075 0.653542 0.093643
vn 0.792272 0.428185 0.434699
vn 0.307655 0.948774 0.071949
vn 0.595937 0.801586 0.048168
vn 0.654751 0.662567 0.363738
vn 0.262557 0.581212 0.770231
vn -0.015197 0.860218 0.509700
vn 0.182474 -0.552505 0.813290
vn 0.473903 0.309870 0.824255
vn 0.586503 -0.386120 0.711987
vn 0.784531 0.407622 0.467284
vn 0.378557 -0.113917 0.918541
vn 0.365914 -0.526377 0.767486
vn 0.283096 -0.077989 0.955915
vn 0.113650 -0.399297 0.909750
vn 0.133955 0.268438 0.953938
vn 0.515108 0.498241 0.697438
vn 0.540829 -0.152167 -0.827254
vn -0.202686 -0.899495 -0.387076
vn -0.180668 -0.884091 -0.430979
vn -0.055420 -0.719085 -0.692708
vn 0.194220 -0.194443 -0.961494
vn 0.211411 -0.319179 -0.923813
vn 0.571440 0.794901 -0.203933
vn 0.420113 0.887237 -0.190567
vn -0.330333 -0.939424 0.091444
vn -0.567411 -0.801186 -0.190119
vn -0.315385 -0.929221 -0.192566
vn -0.488717 -0.864002 0.121065
vn -0.487169 -0.830463 0.270181
vn -0.637406 -0.649692 0.414263
vn -0.846910 -0.531451 0.017395
vn -0.824648 -0.426705 0.371320
vn -0.866163 -0.431414 0.252279
vn -0.121030 -0.452530 0.883498
vn -0.484938 -0.412343 0.771238
vn -0.377777 -0.799793 0.466493
vn -0.405551 -0.564937 0.718592
vn -0.158219 -0.304374 0.939321
vn -0.574724 -0.378686 0.725458
vn 0.016837 0.627646 0.778317
vn 0.290880 0.495686 0.818342
vn -0.440616 -0.162087 0.882941
vn -0.893525 -0.401231 -0.201562
vn -0.920730 -0.390199 0.000682
vn -0.304181 0.072767 -0.949831
vn -0.918578 -0.286459 -0.272316
vn -0.713024 0.699645 -0.045752
vn -0.946624 -0.321987 -0.015102
vn -0.965315 -0.198345 -0.169785
vn -0.061872 0.997120 0.043865
vn -0.279269 0.919488 0.276677
vn -0.694308 -0.478584 0.537488
vn -0.700382 -0.397187 0.593049
vn -0.495919 -0.193769 0.846474
vn -0.508108 0.048184 0.859944
vn 0.007724 0.912825 0.408278
vn -0.453501 0.759147 0.466940
vn 0.118092 0.760132 0.638948
vn -0.621219 -0.339341 0.706354
vn -0.735724 -0.226043 0.638448
vn -0.701307 -0.407375 0.584991
vn -0.965490 -0.241961 0.096348
vn -0.484994 0.800440 0.352244
vn 0.302491 0.938379 -0.167163
vn 0.743505 0.631653 -0.219580
vn 0.556692 0.830578 0.015310
vn -0.607158 -0.720212 -0.335639
vn -0.760979 -0.445379 -0.471751
vn 0.451523 0.075040 -0.889098
vn 0.176783 0.016053 -0.984119
vn 0.027468 0.308646 0.950780
vn 0.085025 0.995928 -0.029961
vn -0.103340 0.993745 -0.042318
vn -0.097915 0.994445 -0.038622
vn 0.042681 0.997190 -0.061562
vn -0.747563 0.169184 -0.642282
vn -0.887459 0.418639 -0.192765
vn -0.991691 0.014641 -0.127807
vn -0.070549 0.545682 0.835017
vn -0.161306 0.513845 0.842581
vn -0.612730 -0.086536 0.785540
vn -0.797559 -0.034239 0.602268
vn -0.922214 0.386234 -0.018585
vn -0.904316 0.425832 0.029667
vn -0.835234 0.285468 0.469992
f 63//63 19//19 41//41
f 47//47 69//69 42//42
f 40//40 43//43 39//39
f 19//19 38//38 17//17
f 38//38 16//16 39//39
f 38//38 39//39 17//17
f 19//19 17//17 41//41
f 17//17 43//43 41//41
f 39//39 43//43 17//17
f 41//41 43//43 42//42
f 43//43 40//40 46//46
f 42//42 43//43 47//47
f 47//47 46//46 49//49
f 43//43 46//46 47//47
f 44//44 78//78 40//40
f 44//44 40//40 45//45
f 45//45 40//40 39//39
f 39//39 16//16 45//45
f 16//16 61//61 67//67
f 45//45 67//67 44//44
f 16//16 67//67 45//45
f 77//77 78//78 44//44
f 81//81 78//78 77//77
f 67//67 77//77 44//44
f 49//49 48//48 47//47
f 49//49 46//46 1//1
f 40//40 87//87 51//51
f 40//40 1//1 46//46
f 50//50 49//49 1//1
f 40//40 51//51 1//1
f 87//87 1//1 51//51
f 1//1 48//48 50//50
f 50//50 48//48 49//49
f 1//1 68//68 48//48
f 68//68 89//89 48//48
f 40//40 78//78 18//18
f 40//40 18//18 87//87
f 52//52 18//18 78//78
f 53//53 1//1 87//87
f 53//53 87//87 85//85
f 4//4 1//1 85//85
f 87//87 23//23 85//85
f 53//53 85//85 1//1
f 55//55 16//16 38//38
f 55//55 38//38 56//56
f 56//56 54//54 55//55
f 55//55 147//147 146//146
f 54//54 94//94 55//55
f 94//94 147//147 55//55
f 54//54 99//99 94//94
f 100//100 34//34 141//141
f 142//142 34//34 100//100
f 146//146 147//147 35//35
f 66//66 101//101 141//141
f 38//38 19//19 20//20
f 20//20 19//19 63//63
f 38//38 20//20 58//58
f 56//56 38//38 58//58
f 20//20 60//60 58//58
f 64//64 60//60 20//20
f 54//54 56//56 57//57
f 57//57 56//56 58//58
f 54//54 57//57 2//2
f 59//59 2//2 57//57
f 95//95 2//2 59//59
f 60//60 57//57 58//58
f 59//59 57//57 60//60
f 95//95 59//59 60//60
f 104//104 144//144 60//60
f 146//146 62//62 55//55
f 146//146 61//61 62//62
f 61//61 16//16 62//62
f 62//62 16//16 55//55
f 34//34 142//142 61//61
f 100//100 66//66 67//67
f 66//66 143//143 67//67
f 142//142 67//67 61//61
f 100//100 67//67 142//142
f 66//66 100//100 101//101
f 101//101 100//100 141//141
f 63//63 71//71 20//20
f 69//69 71//71 63//63
f 42//42 63//63 41//41
f 69//69 63//63 42//42
f 74//74 20//20 71//71
f 20//20 74//74 64//64
f 74//74 71//71 21//21
f 60//60 64//64 65//65
f 64//64 74//74 65//65
f 102//102 104//104 74//74
f 74//74 104//104 65//65
f 65//65 104//104 60//60
f 80//80 67//67 143//143
f 77//77 67//67 80//80
f 80//80 143//143 79//79
f 80//80 81//81 77//77
f 152//152 12//12 143//143
f 127//127 12//12 152//152
f 69//69 47//47 48//48
f 69//69 48//48 70//70
f 71//71 69//69 21//21
f 69//69 70//70 21//21
f 70//70 48//48 21//21
f 48//48 89//89 21//21
f 21//21 89//89 72//72
f 74//74 21//21 73//73
f 21//21 72//72 73//73
f 72//72 89//89 73//73
f 89//89 84//84 73//73
f 74//74 73//73 75//75
f 73//73 114//114 75//75
f 113//113 75//75 22//22
f 114//114 22//22 75//75
f 102//102 74//74 76//76
f 74//74 75//75 76//76
f 75//75 113//113 76//76
f 114//114 7//7 113//113
f 113//113 22//22 114//114
f 68//68 1//1 4//4
f 18//18 52//52 87//87
f 87//87 52//52 23//23
f 52//52 78//78 23//23
f 23//23 24//24 118//118
f 23//23 78//78 93//93
f 23//23 93//93 24//24
f 80//80 79//79 81//81
f 81//81 83//83 78//78
f 83//83 82//82 78//78
f 78//78 82//82 93//93
f 81//81 79//79 83//83
f 79//79 12//12 127//127
f 79//79 127//127 83//83
f 83//83 32//32 82//82
f 89//89 68//68 86//86
f 89//89 86//86 4//4
f 86//86 68//68 4//4
f 89//89 4//4 90//90
f 3//3 84//84 89//89
f 114//114 73//73 3//3
f 73//73 84//84 3//3
f 91//91 89//89 90//90
f 89//89 91//91 3//3
f 114//114 3//3 111//111
f 114//114 111//111 112//112
f 118//118 85//85 23//23
f 4//4 85//85 88//88
f 29//29 118//118 24//24
f 29//29 92//92 118//118
f 118//118 92//92 85//85
f 90//90 88//88 85//85
f 4//4 88//88 90//90
f 90//90 85//85 92//92
f 115//115 92//92 5//5
f 90//90 92//92 91//91
f 3//3 91//91 115//115
f 91//91 92//92 115//115
f 116//116 112//112 115//115
f 116//116 114//114 112//112
f 115//115 111//111 3//3
f 112//112 111//111 115//115
f 24//24 28//28 29//29
f 24//24 82//82 28//28
f 93//93 82//82 24//24
f 25//25 13//13 54//54
f 25//25 54//54 97//97
f 97//97 54//54 2//2
f 97//97 2//2 25//25
f 99//99 54//54 13//13
f 13//13 98//98 99//99
f 98//98 6//6 147//147
f 98//98 147//147 99//99
f 99//99 147//147 94//94
f 6//6 13//13 145//145
f 13//13 25//25 145//145
f 25//25 144//144 145//145
f 144//144 120//120 145//145
f 145//145 26//26 6//6
f 35//35 147//147 122//122
f 26//26 147//147 6//6
f 122//122 147//147 26//26
f 14//14 35//35 30//30
f 31//31 14//14 30//30
f 122//122 30//30 35//35
f 26//26 153//153 122//122
f 26//26 126//126 153//153
f 153//153 31//31 30//30
f 153//153 30//30 122//122
f 25//25 2//2 96//96
f 25//25 96//96 144//144
f 144//144 95//95 60//60
f 2//2 95//95 96//96
f 95//95 144//144 96//96
f 120//120 144//144 103//103
f 150//150 152//152 149//149
f 152//152 143//143 66//66
f 149//149 66//66 141//141
f 152//152 66//66 149//149
f 103//103 104//104 102//102
f 104//104 103//103 144//144
f 102//102 106//106 105//105
f 108//108 120//120 103//103
f 102//102 105//105 103//103
f 105//105 108//108 103//103
f 107//107 108//108 106//106
f 106//106 108//108 105//105
f 110//110 108//108 107//107
f 120//120 108//108 121//121
f 150//150 151//151 152//152
f 151//151 127//127 152//152
f 113//113 107//107 76//76
f 76//76 106//106 102//102
f 106//106 76//76 107//107
f 107//107 113//113 7//7
f 7//7 129//129 107//107
f 7//7 114//114 129//129
f 27//27 129//129 114//114
f 129//129 109//109 107//107
f 109//109 110//110 107//107
f 128//128 32//32 83//83
f 128//128 83//83 127//127
f 27//27 114//114 116//116
f 116//116 115//115 119//119
f 115//115 5//5 119//119
f 131//131 5//5 8//8
f 119//119 5//5 131//131
f 15//15 5//5 92//92
f 15//15 92//92 148//148
f 148//148 92//92 29//29
f 129//129 27//27 136//136
f 136//136 27//27 116//116
f 82//82 32//32 117//117
f 32//32 28//28 117//117
f 117//117 28//28 82//82
f 136//136 116//116 119//119
f 136//136 119//119 131//131
f 135//135 29//29 133//133
f 29//29 28//28 133//133
f 132//132 158//158 8//8
f 158//158 131//131 8//8
f 29//29 156//156 148//148
f 156//156 15//15 148//148
f 26//26 123//123 126//126
f 120//120 123//123 145//145
f 120//120 126//126 123//123
f 145//145 123//123 26//26
f 153//153 154//154 31//31
f 126//126 154//154 153//153
f 31//31 154//154 150//150
f 120//120 121//121 125//125
f 121//121 108//108 125//125
f 139//139 155//155 125//125
f 125//125 155//155 126//126
f 125//125 126//126 120//120
f 126//126 155//155 154//154
f 155//155 124//124 154//154
f 110//110 125//125 108//108
f 109//109 125//125 110//110
f 10//10 125//125 109//109
f 10//10 109//109 129//129
f 150//150 154//154 124//124
f 124//124 155//155 160//160
f 127//127 151//151 128//128
f 151//151 150//150 124//124
f 151//151 124//124 128//128
f 128//128 124//124 9//9
f 130//130 129//129 136//136
f 129//129 130//130 10//10
f 9//9 133//133 128//128
f 128//128 133//133 32//32
f 134//134 157//157 135//135
f 133//133 28//28 32//32
f 134//134 135//135 133//133
f 135//135 156//156 29//29
f 135//135 157//157 156//156
f 156//156 157//157 15//15
f 10//10 130//130 138//138
f 130//130 136//136 138//138
f 140//140 133//133 9//9
f 138//138 136//136 137//137
f 137//137 136//136 131//131
f 134//134 11//11 157//157
f 133//133 140//140 134//134
f 139//139 125//125 10//10
f 10//10 36//36 139//139
f 10//10 137//137 36//36
f 137//137 159//159 36//36
f 131//131 158//158 137//137
f 158//158 159//159 137//137
f 138//138 137//137 10//10
f 159//159 158//158 132//132
f 155//155 139//139 160//160
f 139//139 36//36 161//161
f 139//139 161//161 160//160
f 37//37 9//9 124//124
f 37//37 124//124 161//161
f 124//124 160//160 161//161
f 161//161 162//162 37//37
f 37//37 162//162 159//159
f 162//162 36//36 159//159
f 161//161 36//36 162//162
f 140//140 9//9 33//33
f 134//134 33//33 11//11
f 140//140 33//33 134//134
