# decimated by Tools/decimate_anatomy.py from 5056 triangles (BodyParts3D, CC BY 4.0)
v -0.01991220 -0.00297734 0.16703167
v -0.02178559 0.00239516 0.14274752
v -0.02099439 0.00399124 0.14188220
v -0.01759788 0.00732813 0.14699300
v -0.01870540 0.00539031 0.14802124
v -0.02185941 -0.00172659 0.16489800
v -0.02334603 -0.00271267 0.16559374
v -0.01973824 -0.00034484 0.16673031
v -0.01880261 0.00705357 0.15149362
v -0.02345188 0.00224077 0.15467352
v -0.02013628 0.00386866 0.15959051
v -0.02566024 -0.00425171 0.16544093
v -0.02160410 -0.00085157 0.16998085
v -0.02002697 0.00433724 0.14208781
v -0.02785650 -0.00456831 0.16570748
v -0.02723249 -0.00140412 0.16290020
v -0.02818726 -0.00379294 0.16803323
v -0.02814858 -0.00283589 0.16803700
v -0.02724827 0.00276142 0.14320222
v -0.02704034 0.00579904 0.14300539
v -0.02728815 0.00369716 0.14597835
v -0.02760283 0.00423151 0.14958774
v -0.02727427 0.00219749 0.15740689
v -0.02741384 0.00268848 0.15630776
v -0.02794760 -0.00142888 0.16768777
v -0.02830167 0.00484918 0.14449424
v -0.02564947 0.01031922 0.14369623
v -0.02611883 0.00985539 0.14429588
v -0.02723836 0.00835672 0.14511980
v -0.01715389 0.00668617 0.14401047
v -0.02151048 0.00246729 0.14284095
v -0.01772886 0.00758922 0.14358702
v -0.01810946 0.00806774 0.14354216
v -0.02003314 -0.00344948 0.16829930
v -0.02146858 -0.00236937 0.17023720
v -0.02038415 0.00092442 0.16292381
v -0.02795861 -0.00479193 0.16667656
v -0.02746394 0.00312282 0.15820917
v -0.02807867 -0.00266044 0.16844106
v -0.02343670 0.01060990 0.14292243
v -0.01839289 0.00620480 0.14957323
v -0.02103085 -0.00363729 0.16891851
v -0.02117129 -0.00266845 0.17004895
v -0.02280069 0.00227298 0.14392260
v -0.02175703 0.00305581 0.15398592
v -0.02122466 0.00271600 0.15795118
v -0.02377325 0.00139510 0.15751125
v -0.01951397 0.00490966 0.15609829
v -0.01991157 0.00569776 0.15635407
v -0.02403787 -0.00323361 0.16560293
v -0.02579225 0.00201721 0.14355914
v -0.02539939 0.00314811 0.14635847
v -0.02098486 0.00662039 0.15593959
v -0.02179150 0.00454126 0.16138710
v -0.02700774 -0.00486358 0.16708831
v -0.02710183 0.00366144 0.14610697
v -0.02777433 0.00494656 0.14708994
v -0.02706797 0.00338037 0.15165889
v -0.02756645 0.00394242 0.15109070
v -0.02686429 0.00043767 0.16051692
v -0.02823790 -0.00152291 0.16524893
v -0.02824263 -0.00168006 0.16532027
v -0.02793783 -0.00049810 0.16428253
v -0.02602144 0.00523703 0.15783952
v -0.02814822 -0.00105602 0.16594709
v -0.02715903 -0.00084927 0.16799215
v -0.02781310 0.00404687 0.14299084
v -0.01835110 0.00417991 0.14348187
v -0.01718132 0.00647843 0.14399694
v -0.02082738 -0.00344560 0.16925188
v -0.02299339 -0.00136055 0.16982433
v -0.01999887 0.00406640 0.15823017
v -0.02814790 -0.00464632 0.16660334
v -0.02777314 -0.00310371 0.16884150
v -0.02753047 0.00243427 0.15958790
v -0.01968489 -0.00296674 0.16786977
v -0.01982770 -0.00305152 0.16843782
v -0.01690361 0.00586786 0.14526001
v -0.01843113 0.00426684 0.14325180
v -0.02004632 0.00436224 0.14761472
v -0.01770562 0.00458969 0.14530140
v -0.01855758 0.00584699 0.15195779
v -0.02061773 0.00129678 0.16262259
v -0.02006086 0.00002732 0.16506911
v -0.02098591 -0.00331489 0.16646994
v -0.02139373 -0.00345333 0.16649192
v -0.02025867 -0.00008567 0.16466293
v -0.02117326 -0.00323456 0.16624733
v -0.02088277 -0.00170009 0.16515377
v -0.02000660 -0.00207319 0.16588790
v -0.02052901 0.00119879 0.16330135
v -0.02020747 -0.00163345 0.16868552
v -0.01953659 -0.00149792 0.16730785
v -0.01783566 0.00860655 0.14457893
v -0.02155597 0.00319468 0.15389598
v -0.01913118 0.00546455 0.15054768
v -0.02312210 0.00060373 0.15989853
v -0.01962000 0.00456076 0.15594060
v -0.02001219 0.00382850 0.15846600
v -0.02014384 0.00378489 0.15960073
v -0.02385290 -0.00201678 0.16452931
v -0.02444116 -0.00239155 0.16438586
v -0.02330553 -0.00350147 0.16617098
v -0.02321502 -0.00394916 0.16714801
v -0.02299905 -0.00376606 0.16664686
v -0.02501565 -0.00418412 0.16588645
v -0.02372182 -0.00381628 0.16629673
v -0.02136609 -0.00333227 0.16949346
v -0.02346174 -0.00399012 0.16771801
v -0.02325477 -0.00295922 0.16580337
v -0.02208097 -0.00288206 0.16580001
v -0.02314734 -0.00212541 0.16490470
v -0.02129618 -0.00044734 0.16933555
v -0.02120401 0.00142997 0.16642362
v -0.02087711 0.00166260 0.16570758
v -0.02154061 -0.00080540 0.16993206
v -0.02133597 -0.00219569 0.17018647
v -0.02135652 -0.00159250 0.17005008
v -0.02177629 -0.00003277 0.16923605
v -0.02232951 -0.00041456 0.16980345
v -0.02279840 -0.00043471 0.16956716
v -0.02229814 0.00227315 0.14258904
v -0.02465329 0.00278551 0.14167114
v -0.02586339 0.00249396 0.14199758
v -0.02618663 0.00316048 0.14185309
v -0.02548258 0.00233366 0.14213707
v -0.02512317 0.00238833 0.14196270
v -0.02383277 0.00223181 0.14374056
v -0.02536861 0.00219227 0.14245579
v -0.02293166 0.00222827 0.14314733
v -0.01958325 0.00695105 0.15298558
v -0.02100464 0.00444579 0.16063310
v -0.02550863 -0.00085249 0.16187752
v -0.02294842 0.00544561 0.15952462
v -0.02667424 -0.00469198 0.16566077
v -0.02612217 -0.00397467 0.16504917
v -0.02548989 -0.00281676 0.16439555
v -0.02498759 -0.00218442 0.16407934
v -0.02736606 -0.00327746 0.16430446
v -0.02760537 -0.00471316 0.16578023
v -0.02756907 -0.00329261 0.16441154
v -0.02635332 -0.00143677 0.16280571
v -0.02761269 -0.00232613 0.16383104
v -0.02226117 -0.00009133 0.16950470
v -0.02364960 0.00585069 0.15864418
v -0.02363069 0.00029539 0.16840992
v -0.02124863 0.00185190 0.16582866
v -0.02561804 -0.00438422 0.16758588
v -0.02788777 -0.00466637 0.16597971
v -0.02782446 -0.00486148 0.16663146
v -0.02795773 -0.00472014 0.16629002
v -0.02819759 -0.00378810 0.16800194
v -0.02805545 -0.00365761 0.16829710
v -0.02450965 -0.00399779 0.16793472
v -0.02773051 -0.00436724 0.16797271
v -0.02765552 -0.00343274 0.16862305
v -0.02706579 -0.00424126 0.16803157
v -0.02726631 -0.00207018 0.16886157
v -0.02652138 0.00220771 0.14340181
v -0.02697051 0.00254148 0.14407407
v -0.02666681 0.00350305 0.14216352
v -0.02777685 0.00397374 0.14294690
v -0.02783888 0.00402939 0.14300617
v -0.02649110 0.00451379 0.14232171
v -0.02753336 0.00515028 0.14298125
v -0.02693611 0.00263681 0.14445808
v -0.02753897 0.00337655 0.14496593
v -0.01990886 0.00885786 0.14674787
v -0.01888195 0.00792282 0.14925612
v -0.02707517 0.00382751 0.14919236
v -0.02715211 0.00239927 0.15674174
v -0.02712570 0.00172632 0.15822474
v -0.02550026 0.00424149 0.16032222
v -0.02589929 -0.00131938 0.16261573
v -0.02694125 -0.00054466 0.16188475
v -0.02690490 0.00195704 0.15746768
v -0.02704405 0.00112505 0.15932779
v -0.02688885 0.00060171 0.16024756
v -0.02743649 0.00321293 0.15817595
v -0.02823864 -0.00132557 0.16536332
v -0.02819880 -0.00096662 0.16542635
v -0.02731550 0.00330947 0.15846782
v -0.02755107 0.00220272 0.15998691
v -0.02779435 -0.00016500 0.16390045
v -0.02773501 -0.00040173 0.16361186
v -0.02721907 0.00064231 0.16485236
v -0.02831397 -0.00207892 0.16599388
v -0.02818834 -0.00374069 0.16804895
v -0.02799363 -0.00174223 0.16781482
v -0.02761450 -0.00022019 0.16593980
v -0.02779390 -0.00017385 0.16396594
v -0.02733739 0.00025589 0.16547426
v -0.02812115 -0.00251386 0.16828272
v -0.02415051 -0.00061260 0.16917168
v -0.02786882 -0.00130782 0.16772944
v -0.02741193 -0.00057590 0.16717705
v -0.02650785 -0.00130330 0.16874039
v -0.02746080 -0.00118236 0.16822654
v -0.02411425 0.01053172 0.14486289
v -0.02540669 0.01024835 0.14420433
v -0.02745001 0.00619153 0.14813607
v -0.02769928 0.00453145 0.15148228
v -0.02757288 0.00456606 0.15258119
v -0.02746785 0.00393693 0.15564142
v -0.02743340 0.00675673 0.14737837
v -0.02370977 0.00924775 0.14939552
v -0.02576990 0.00948978 0.14562327
v -0.02614798 0.00824888 0.14801289
v -0.02664806 0.00851488 0.14617743
v -0.02629719 0.00828058 0.14739031
v -0.02712815 0.00665937 0.14837420
v -0.02056297 -0.00372396 0.16799114
v -0.02029130 -0.00360300 0.16741956
v -0.02007671 -0.00347510 0.16834961
v -0.02149932 0.00253120 0.14329170
v -0.01812496 0.00638708 0.14328884
v -0.01786997 0.00851644 0.14440099
v -0.02075741 0.00970667 0.14366726
v -0.01782862 0.00852720 0.14485748
v -0.01766394 0.00790820 0.14366864
v -0.02001458 0.00933915 0.14368625
v -0.01904359 0.00875109 0.14347424
v -0.01810490 0.00857027 0.14412232
v -0.01909664 0.00886422 0.14366406
v -0.01785617 0.00720510 0.14812484
v -0.01763422 0.00694475 0.14693070
v -0.01824534 0.00670474 0.14936808
v -0.01861341 0.00649309 0.15204752
v -0.02122743 -0.00261385 0.17020576
v -0.02062645 -0.00343148 0.16918284
v -0.02005203 -0.00270063 0.16900965
v -0.02108364 -0.00136028 0.16994645
v -0.02773774 -0.00314792 0.16882126
v -0.02390910 0.00262611 0.14185778
v -0.02299247 0.00222897 0.14369340
v -0.02406105 0.00254783 0.15329954
v -0.02278998 0.00091777 0.15982901
v -0.01997876 0.00404148 0.15716822
v -0.01994790 0.00415005 0.15778530
v -0.02080249 0.00242276 0.16298183
v -0.02090907 0.00332375 0.16281620
v -0.02047367 0.00378504 0.16085560
v -0.02094797 0.00316159 0.16321324
v -0.02256332 0.00342122 0.14170171
v -0.02300823 0.00362528 0.14171267
v -0.02345569 0.00397831 0.14168785
v -0.02590297 0.00284247 0.14183672
v -0.02747315 0.00128519 0.16035887
v -0.02743192 -0.00061050 0.16265615
v -0.02782546 -0.00233105 0.16420641
v -0.02788413 -0.00323140 0.16463949
v -0.02788766 -0.00407888 0.16533267
v -0.02759075 -0.00085843 0.16313153
v -0.02783367 -0.00299428 0.16442323
v -0.02776542 -0.00442317 0.16791316
v -0.02796130 -0.00460040 0.16599275
v -0.02823653 -0.00419674 0.16635654
v -0.02232847 -0.00187681 0.17002460
v -0.02774615 -0.00307175 0.16887170
v -0.02775307 -0.00231192 0.16876716
v -0.02774029 0.00314909 0.14401505
v -0.02810390 0.00436871 0.14395651
v -0.02780339 0.00341243 0.14378655
v -0.02683393 0.00792891 0.14319415
v -0.02401426 0.00895935 0.14293145
v -0.02731414 0.00594391 0.14303163
v -0.02731109 0.00582527 0.14307059
v -0.02745664 0.00703853 0.14348849
v -0.02777534 0.00438583 0.14304546
v -0.02145496 0.00975742 0.14488600
v -0.02405883 0.01064523 0.14316921
v -0.02380885 0.00968229 0.14291345
v -0.02611505 0.00868081 0.14311594
v -0.02818012 0.00445504 0.14442906
v -0.02741913 0.00261734 0.15669151
v -0.02747068 0.00404415 0.14598299
v -0.02715100 0.00172987 0.15832765
v -0.02699053 -0.00020446 0.16145977
v -0.02745048 0.00122150 0.16041159
v -0.02769312 0.00451989 0.15156005
v -0.02742588 0.00256170 0.15876873
v -0.02779829 -0.00018898 0.16388737
v -0.02760000 0.00405213 0.15176190
v -0.02745445 0.00308936 0.15818899
v -0.02726335 0.00222143 0.15825077
v -0.02784807 -0.00227931 0.16866932
v -0.02778417 -0.00214925 0.16867346
v -0.02756462 0.00807542 0.14384007
v -0.02825672 0.00487722 0.14432582
v -0.02736250 0.00570834 0.14311884
v -0.02777662 0.00496676 0.14699173
v -0.02791267 0.00641054 0.14566214
v -0.02832081 0.00490469 0.14461318
v -0.02750616 0.00810148 0.14468380
v -0.02716321 0.00811432 0.14348824
v -0.02680245 0.00820605 0.14321246
v -0.02761226 0.00803823 0.14392543
v -0.02696251 0.00888335 0.14417427
vn 0.875138 -0.336061 -0.348132
vn 0.280081 -0.899620 -0.335019
vn 0.061884 0.566895 -0.821463
vn 0.915881 -0.147489 0.373376
vn 0.637124 -0.753429 0.162534
vn 0.375263 -0.740938 -0.556945
vn 0.232809 -0.669802 -0.705099
vn 0.869962 0.435038 0.232182
vn 0.658222 0.702513 0.270591
vn 0.225336 -0.973283 -0.044090
vn 0.926408 0.280434 0.251246
vn 0.371368 -0.731025 -0.572441
vn -0.039220 0.194707 0.980077
vn 0.421612 -0.382200 -0.822293
vn -0.556806 -0.552338 -0.620395
vn -0.180775 -0.645470 -0.742084
vn -0.752416 -0.558927 0.348526
vn -0.989699 0.095875 0.106323
vn -0.738070 -0.615457 -0.276524
vn -0.047912 0.549859 -0.833882
vn -0.457294 -0.834994 0.306050
vn -0.553555 -0.832713 0.012884
vn -0.442406 -0.822916 -0.356491
vn -0.562704 -0.803125 -0.195844
vn -0.908345 0.314941 0.275175
vn -0.883980 -0.433335 0.175500
vn -0.284053 0.941694 0.180352
vn -0.643097 0.715537 0.272823
vn -0.696590 0.665075 0.269142
vn 0.947745 0.306302 0.089212
vn 0.401043 -0.908317 0.118851
vn 0.541128 0.030157 -0.840400
vn 0.087996 -0.096327 -0.991452
vn 0.725709 -0.351572 0.591391
vn -0.193331 0.088288 0.977153
vn 0.549732 -0.733920 -0.398944
vn -0.705193 -0.651695 0.279281
vn -0.978219 -0.205859 -0.026623
vn -0.875558 0.121278 0.467644
vn -0.033951 0.100367 -0.994371
vn 0.865265 -0.457558 0.204835
vn 0.040242 -0.961406 0.272176
vn 0.819763 -0.010057 0.572614
vn 0.514480 -0.856342 0.044593
vn 0.537069 -0.839735 -0.080011
vn 0.664875 -0.732834 -0.144549
vn -0.040064 -0.938755 -0.342250
vn 0.979401 -0.126697 0.157231
vn 0.626468 0.701690 0.339365
vn 0.448480 -0.609458 -0.653779
vn -0.036560 -0.985614 0.165008
vn -0.257470 -0.960130 0.108906
vn 0.271889 0.906779 0.322222
vn 0.091799 0.878795 0.468287
vn 0.140126 -0.983784 0.111954
vn -0.806829 -0.585717 0.077220
vn -0.994093 -0.108488 -0.003220
vn -0.309242 -0.929063 -0.203008
vn -0.647101 -0.747736 -0.148836
vn -0.188309 -0.801743 -0.567228
vn -0.955852 -0.046466 -0.290151
vn -0.971631 -0.130941 -0.196944
vn -0.966331 0.057400 -0.250819
vn -0.560995 0.773042 0.296125
vn -0.957363 0.246622 0.150445
vn -0.389683 0.790498 0.472503
vn -0.922307 -0.004180 -0.386436
vn 0.496985 -0.864739 -0.072337
vn 0.763515 -0.212814 -0.609718
vn 0.213484 -0.828386 0.517881
vn -0.240071 0.207752 0.948264
vn 0.993863 0.018836 0.108999
vn -0.980369 -0.195876 -0.022579
vn -0.694930 -0.209050 0.688019
vn -0.980713 -0.138135 -0.138277
vn 0.983027 -0.172717 0.061863
vn 0.878895 -0.316429 0.356955
vn 0.888401 -0.459009 0.007312
vn 0.683498 -0.410941 -0.603289
vn 0.520940 -0.845613 0.116449
vn 0.605894 -0.753677 0.254681
vn 0.882818 -0.467229 0.048263
vn 0.984697 0.106875 0.137657
vn 0.979362 0.113754 -0.167066
vn 0.314369 -0.729309 -0.607685
vn 0.148316 -0.946117 -0.287864
vn 0.687628 -0.537392 -0.488239
vn 0.254546 -0.567727 -0.782874
vn 0.350415 -0.458804 -0.816522
vn 0.462984 -0.544876 -0.699111
vn 0.973038 0.197609 -0.118944
vn 0.827382 0.309015 0.468988
vn 0.980790 0.148899 0.126020
vn 0.326022 0.929720 0.171260
vn 0.654940 -0.755681 0.000890
vn 0.689899 -0.723904 -0.001235
vn 0.429764 -0.797374 -0.423672
vn 0.717891 -0.693778 -0.057487
vn 0.992655 -0.041697 0.113567
vn 0.979311 0.057402 0.194051
vn 0.239918 -0.839782 -0.487037
vn 0.371159 -0.591966 -0.715414
vn 0.148508 -0.707499 -0.690935
vn 0.131240 -0.971574 -0.197027
vn 0.173609 -0.865347 -0.470143
vn 0.285975 -0.943444 -0.167724
vn 0.342125 -0.804633 -0.485300
vn -0.068838 -0.846638 0.527698
vn 0.169339 -0.983471 0.064102
vn 0.052884 -0.587965 -0.807156
vn 0.163425 -0.621816 -0.765923
vn 0.223197 -0.763801 -0.605633
vn 0.683045 0.564657 0.463262
vn 0.517539 0.723923 0.456168
vn 0.669309 0.622781 0.405179
vn 0.404529 0.591727 0.697292
vn 0.490699 0.117891 0.863317
vn 0.268867 0.211530 0.939662
vn 0.387749 0.743330 0.545080
vn -0.121910 0.312744 0.941982
vn -0.298930 0.471226 0.829811
vn 0.291377 -0.729132 -0.619246
vn 0.096759 -0.408125 -0.907784
vn -0.475422 -0.701666 -0.530696
vn -0.221714 0.166306 -0.960825
vn 0.003462 -0.929823 -0.367990
vn 0.046803 -0.810028 -0.584521
vn 0.056559 -0.947450 0.314866
vn -0.004105 -0.984040 -0.177901
vn 0.066533 -0.997314 -0.030641
vn 0.575079 0.754175 0.317025
vn 0.483929 0.787269 0.382125
vn -0.072942 -0.866164 -0.494408
vn 0.017379 0.915106 0.402838
vn 0.187944 -0.928519 -0.320203
vn 0.158754 -0.619150 -0.769059
vn 0.209126 -0.564938 -0.798193
vn 0.277013 -0.667452 -0.691210
vn 0.056843 -0.664287 -0.745313
vn -0.079696 -0.876635 -0.474509
vn -0.479292 -0.555991 -0.679083
vn -0.132789 -0.588406 -0.797588
vn -0.615869 -0.440729 -0.653041
vn -0.076814 0.865813 0.494436
vn -0.258128 0.875890 0.407660
vn -0.217462 0.840119 0.496900
vn 0.120603 0.862949 0.490688
vn 0.108550 -0.837204 0.536009
vn -0.371656 -0.888532 -0.269040
vn -0.141763 -0.985395 0.094339
vn -0.480461 -0.850314 -0.214765
vn -0.995746 -0.044815 0.080509
vn -0.803456 -0.244781 0.542716
vn -0.025837 -0.787075 0.616316
vn 0.005021 -0.584666 0.811259
vn 0.075298 -0.553425 0.829488
vn 0.076782 -0.586453 0.806336
vn -0.276954 0.302076 0.912166
vn -0.424143 -0.903120 -0.066914
vn -0.682194 -0.724619 0.097670
vn -0.491312 0.184240 -0.851274
vn -0.658223 -0.320301 -0.681286
vn -0.942605 -0.266591 -0.201058
vn -0.251272 0.310030 -0.916921
vn -0.438052 0.201281 -0.876126
vn -0.309859 -0.912275 0.267846
vn -0.692054 -0.685750 0.225408
vn 0.285007 0.932105 0.223498
vn 0.310423 0.915170 0.257104
vn -0.306878 -0.949844 -0.060179
vn -0.647688 -0.740943 -0.177495
vn -0.445907 -0.808942 -0.383119
vn -0.339785 0.820176 0.460281
vn 0.139886 -0.771144 -0.621103
vn -0.148732 -0.779803 -0.608100
vn -0.216457 -0.929835 -0.297578
vn -0.172837 -0.867774 -0.465936
vn -0.215554 -0.852316 -0.476544
vn -0.916091 0.378574 0.132136
vn -0.987215 0.107056 -0.118090
vn -0.902979 0.425482 0.059958
vn -0.808046 0.554670 0.198503
vn -0.829510 0.502812 0.243090
vn -0.988877 0.146208 0.027310
vn -0.975575 -0.128562 -0.178118
vn -0.783467 0.568864 0.250146
vn -0.999058 -0.008362 -0.042572
vn -0.995755 0.022770 0.089180
vn -0.973907 0.180920 0.137015
vn -0.817403 0.555892 0.151119
vn -0.870310 0.463650 0.166102
vn -0.596702 0.728207 0.337136
vn -0.987626 0.067520 0.141552
vn -0.304023 0.631398 0.713377
vn -0.756514 0.577062 0.307711
vn -0.596306 0.722136 0.350626
vn -0.314846 0.568761 0.759857
vn -0.500214 0.594171 0.629878
vn 0.053477 0.980468 0.189267
vn -0.381125 0.857613 0.345316
vn -0.943817 0.307166 0.121894
vn -0.985850 0.162115 0.042653
vn -0.934037 0.342613 0.100949
vn -0.877133 0.459797 0.138652
vn -0.897347 0.379822 0.224729
vn -0.052808 0.951802 0.302132
vn -0.501803 0.806301 0.313166
vn -0.672436 0.703311 0.230617
vn -0.690222 0.654742 0.308068
vn -0.748886 0.595105 0.291580
vn -0.815986 0.543909 0.195780
vn 0.148607 -0.988058 -0.040709
vn 0.446810 -0.839025 -0.310479
vn 0.580334 -0.813043 0.046616
vn 0.369907 -0.904744 0.211205
vn 0.577110 -0.039684 -0.815702
vn 0.324581 0.945829 -0.007463
vn 0.418665 0.826769 -0.375729
vn 0.825095 0.533525 0.185930
vn 0.924131 0.376018 -0.067769
vn 0.418667 0.826767 -0.375733
vn 0.418666 0.826767 -0.375733
vn 0.418667 0.826768 -0.375730
vn 0.418668 0.826766 -0.375733
vn 0.923913 0.331971 0.190208
vn 0.916894 -0.239486 0.319299
vn 0.971008 -0.194565 0.138882
vn 0.863545 0.406970 0.297766
vn -0.072619 -0.787036 0.612618
vn 0.268562 -0.897446 0.349949
vn 0.836125 0.022528 0.548076
vn 0.750860 0.229740 0.619216
vn -0.045777 -0.799142 0.599396
vn 0.200690 -0.508573 -0.837303
vn -0.343065 -0.939221 0.013071
vn -0.304105 -0.950079 -0.069793
vn 0.573978 -0.763288 -0.296550
vn 0.540433 -0.769938 -0.339304
vn 0.914195 -0.398502 0.073778
vn 0.990609 0.134692 0.023485
vn 0.975836 0.211590 0.054528
vn 0.905220 0.316540 0.283512
vn 0.589421 0.713927 0.378009
vn 0.027452 0.041788 -0.998749
vn -0.028187 -0.069959 -0.997152
vn -0.040689 0.395164 -0.917709
vn -0.220963 -0.199902 -0.954576
vn -0.971146 -0.170765 -0.166476
vn -0.683359 -0.562519 -0.465396
vn -0.945455 -0.082973 -0.315007
vn -0.958448 -0.123991 -0.256912
vn -0.884353 -0.299657 -0.357945
vn -0.941967 -0.122571 -0.312530
vn -0.925484 -0.117161 -0.360213
vn -0.163273 -0.828288 0.535986
vn -0.891727 -0.316169 -0.323820
vn -0.986734 -0.105409 -0.123472
vn -0.227601 0.058602 0.971990
vn -0.477642 -0.414757 0.774490
vn -0.250815 0.051669 0.966655
vn -0.996876 0.065788 0.043703
vn -0.957950 -0.234550 -0.165283
vn -0.939593 -0.304604 -0.156145
vn -0.252230 0.127577 -0.959220
vn 0.046390 -0.060890 -0.997066
vn 0.040974 -0.077931 -0.996116
vn -0.666457 0.187359 -0.721617
vn -0.769727 0.125802 -0.625854
vn -0.856803 0.291079 -0.425630
vn 0.278224 0.941790 0.188738
vn 0.218933 0.973052 0.072376
vn -0.087852 0.002821 -0.996130
vn -0.390698 0.450159 -0.802939
vn -0.910530 -0.358286 0.206317
vn -0.999033 -0.043237 0.007962
vn -0.992988 -0.105662 0.053008
vn -0.910717 -0.370582 -0.182383
vn -0.867138 -0.354119 -0.350246
vn -0.888172 -0.370336 -0.272034
vn -0.998890 0.024855 0.040025
vn -0.970997 -0.176323 -0.161478
vn -0.983736 -0.105098 -0.145661
vn -0.992180 -0.124574 0.007737
vn -0.990406 -0.138177 0.001497
vn -0.972213 -0.218317 -0.084498
vn -0.835731 0.262755 0.482196
vn -0.599715 0.479149 0.640904
vn -0.690911 0.447450 -0.567829
vn -0.843080 0.157603 -0.514176
vn -0.846998 0.184993 -0.498369
vn -0.976174 -0.065321 0.206922
vn -0.965443 0.203661 0.162609
vn -0.973162 0.194555 0.122900
vn -0.879744 0.430657 0.201457
vn -0.632005 0.175680 -0.754789
vn -0.190606 0.106906 -0.975828
vn -0.932411 0.353615 0.074613
vn -0.774017 0.628750 0.074645
f 1//1 93//93 76//76
f 85//85 1//1 213//213
f 85//85 213//213 86//86
f 76//76 34//34 1//1
f 77//77 34//34 76//76
f 214//214 213//213 1//1
f 212//212 213//213 214//214
f 77//77 76//76 231//231
f 76//76 93//93 231//231
f 230//230 212//212 214//214
f 215//215 31//31 68//68
f 215//215 68//68 81//81
f 31//31 215//215 44//44
f 79//79 68//68 122//122
f 122//122 68//68 2//2
f 32//32 69//69 216//216
f 32//32 216//216 14//14
f 69//69 79//79 216//216
f 216//216 79//79 14//14
f 81//81 80//80 215//215
f 215//215 80//80 44//44
f 68//68 79//79 81//81
f 79//79 69//69 78//78
f 79//79 78//78 81//81
f 81//81 78//78 226//226
f 226//226 78//78 4//4
f 225//225 30//30 219//219
f 169//169 219//219 94//94
f 30//30 220//220 219//219
f 220//220 217//217 219//219
f 219//219 217//217 94//94
f 44//44 80//80 45//45
f 81//81 5//5 80//80
f 41//41 5//5 81//81
f 226//226 41//41 81//81
f 5//5 95//95 80//80
f 95//95 5//5 96//96
f 5//5 41//41 96//96
f 96//96 41//41 82//82
f 82//82 41//41 227//227
f 226//226 4//4 225//225
f 226//226 225//225 227//227
f 226//226 227//227 41//41
f 225//225 228//228 227//227
f 228//228 82//82 227//227
f 228//228 48//48 98//98
f 98//98 82//82 228//228
f 96//96 98//98 95//95
f 82//82 98//98 96//96
f 228//228 225//225 9//9
f 83//83 84//84 36//36
f 85//85 90//90 1//1
f 105//105 86//86 104//104
f 86//86 213//213 212//212
f 86//86 212//212 104//104
f 90//90 6//6 89//89
f 90//90 85//85 88//88
f 90//90 111//111 6//6
f 88//88 111//111 90//90
f 7//7 6//6 111//111
f 88//88 85//85 111//111
f 85//85 103//103 111//111
f 85//85 86//86 105//105
f 7//7 111//111 110//110
f 1//1 90//90 87//87
f 84//84 87//87 36//36
f 1//1 87//87 93//93
f 87//87 84//84 93//93
f 93//93 84//84 8//8
f 87//87 90//90 89//89
f 89//89 6//6 87//87
f 84//84 240//240 8//8
f 83//83 91//91 84//84
f 91//91 240//240 84//84
f 212//212 230//230 70//70
f 70//70 42//42 212//212
f 230//230 229//229 70//70
f 77//77 231//231 34//34
f 109//109 104//104 212//212
f 212//212 42//42 109//109
f 42//42 70//70 108//108
f 231//231 93//93 92//92
f 42//42 108//108 109//109
f 43//43 34//34 232//232
f 43//43 232//232 117//117
f 34//34 231//231 232//232
f 108//108 70//70 229//229
f 109//109 108//108 154//154
f 154//154 108//108 229//229
f 93//93 232//232 92//92
f 92//92 232//232 231//231
f 8//8 113//113 93//93
f 113//113 232//232 93//93
f 117//117 118//118 13//13
f 232//232 118//118 117//117
f 232//232 116//116 118//118
f 118//118 116//116 13//13
f 35//35 71//71 258//258
f 3//3 244//244 246//246
f 244//244 245//245 246//246
f 122//122 2//2 130//130
f 130//130 2//2 235//235
f 79//79 122//122 14//14
f 122//122 234//234 14//14
f 246//246 20//20 3//3
f 164//164 20//20 246//246
f 236//236 235//235 10//10
f 52//52 235//235 236//236
f 52//52 236//236 170//170
f 225//225 219//219 9//9
f 10//10 44//44 45//45
f 45//45 80//80 95//95
f 45//45 95//95 98//98
f 45//45 98//98 46//46
f 53//53 49//49 228//228
f 131//131 228//228 9//9
f 53//53 228//228 131//131
f 219//219 131//131 9//9
f 169//169 53//53 131//131
f 169//169 131//131 219//219
f 45//45 47//47 10//10
f 97//97 47//47 45//45
f 48//48 239//239 98//98
f 98//98 239//239 238//238
f 72//72 11//11 100//100
f 72//72 100//100 99//99
f 228//228 242//242 48//48
f 228//228 49//49 242//242
f 48//48 242//242 11//11
f 53//53 132//132 49//49
f 49//49 132//132 243//243
f 36//36 87//87 97//97
f 87//87 6//6 97//97
f 97//97 6//6 101//101
f 97//97 101//101 47//47
f 97//97 237//237 36//36
f 99//99 100//100 83//83
f 97//97 45//45 237//237
f 45//45 46//46 237//237
f 98//98 238//238 46//46
f 237//237 238//238 36//36
f 46//46 238//238 237//237
f 83//83 100//100 240//240
f 100//100 242//242 240//240
f 100//100 11//11 242//242
f 49//49 241//241 242//242
f 241//241 240//240 242//242
f 147//147 243//243 132//132
f 54//54 132//132 53//53
f 147//147 132//132 54//54
f 50//50 101//101 7//7
f 12//12 101//101 50//50
f 101//101 12//12 102//102
f 112//112 7//7 101//101
f 7//7 112//112 6//6
f 112//112 101//101 6//6
f 241//241 8//8 240//240
f 240//240 91//91 83//83
f 8//8 243//243 115//115
f 109//109 135//135 12//12
f 55//55 135//135 109//109
f 85//85 105//105 103//103
f 103//103 105//105 107//107
f 7//7 107//107 50//50
f 50//50 107//107 12//12
f 103//103 107//107 7//7
f 107//107 104//104 109//109
f 105//105 104//104 107//107
f 109//109 12//12 106//106
f 107//107 106//106 12//12
f 109//109 106//106 107//107
f 148//148 55//55 109//109
f 110//110 103//103 7//7
f 111//111 103//103 110//110
f 54//54 146//146 147//147
f 147//147 113//113 114//114
f 113//113 8//8 115//115
f 113//113 115//115 114//114
f 147//147 114//114 243//243
f 114//114 115//115 243//243
f 233//233 154//154 229//229
f 258//258 260//260 35//35
f 158//158 258//258 71//71
f 147//147 119//119 113//113
f 113//113 119//119 232//232
f 232//232 119//119 116//116
f 71//71 35//35 120//120
f 120//120 35//35 13//13
f 119//119 120//120 116//116
f 120//120 13//13 116//116
f 144//144 119//119 147//147
f 144//144 147//147 146//146
f 120//120 121//121 71//71
f 119//119 144//144 120//120
f 144//144 121//121 120//120
f 121//121 146//146 194//194
f 144//144 146//146 121//121
f 124//124 247//247 123//123
f 234//234 123//123 14//14
f 124//124 123//123 234//234
f 247//247 245//245 244//244
f 246//246 245//245 247//247
f 124//124 234//234 127//127
f 127//127 126//126 124//124
f 125//125 246//246 247//247
f 164//164 246//246 125//125
f 130//130 235//235 128//128
f 130//130 128//128 51//51
f 129//129 130//130 51//51
f 124//124 51//51 159//159
f 129//129 51//51 124//124
f 235//235 52//52 128//128
f 128//128 52//52 51//51
f 159//159 51//51 52//52
f 52//52 166//166 159//159
f 166//166 160//160 159//159
f 160//160 19//19 159//159
f 124//124 126//126 129//129
f 126//126 127//127 122//122
f 127//127 234//234 122//122
f 129//129 122//122 130//130
f 126//126 122//122 129//129
f 266//266 265//265 33//33
f 169//169 206//206 53//53
f 178//178 176//176 47//47
f 53//53 134//134 54//54
f 53//53 206//206 134//134
f 174//174 101//101 138//138
f 174//174 138//138 139//139
f 139//139 142//142 174//174
f 142//142 139//139 16//16
f 174//174 142//142 16//16
f 47//47 101//101 133//133
f 133//133 101//101 174//174
f 60//60 178//178 133//133
f 47//47 133//133 178//178
f 60//60 133//133 175//175
f 175//175 174//174 16//16
f 133//133 174//174 175//175
f 253//253 249//249 278//278
f 146//146 54//54 134//134
f 145//145 134//134 206//206
f 146//146 134//134 145//145
f 135//135 136//136 12//12
f 139//139 136//136 135//135
f 139//139 135//135 140//140
f 15//15 141//141 140//140
f 140//140 141//141 139//139
f 252//252 251//251 254//254
f 257//257 251//251 252//252
f 187//187 251//251 257//257
f 101//101 102//102 138//138
f 102//102 12//12 138//138
f 137//137 136//136 139//139
f 12//12 136//136 137//137
f 138//138 137//137 139//139
f 12//12 137//137 138//138
f 15//15 143//143 141//141
f 143//143 16//16 139//139
f 143//143 139//139 141//141
f 254//254 253//253 278//278
f 250//250 253//253 254//254
f 253//253 250//250 61//61
f 250//250 254//254 61//61
f 187//187 61//61 62//62
f 251//251 62//62 61//61
f 251//251 61//61 254//254
f 62//62 251//251 187//187
f 55//55 140//140 135//135
f 150//150 140//140 55//55
f 150//150 149//149 140//140
f 149//149 15//15 140//140
f 37//37 150//150 255//255
f 150//150 55//55 255//255
f 109//109 154//154 148//148
f 154//154 157//157 255//255
f 157//157 155//155 255//255
f 148//148 255//255 55//55
f 154//154 255//255 148//148
f 233//233 156//156 154//154
f 156//156 155//155 157//157
f 156//156 157//157 154//154
f 151//151 15//15 149//149
f 151//151 150//150 37//37
f 149//149 150//150 151//151
f 252//252 256//256 257//257
f 256//256 73//73 257//257
f 17//17 37//37 255//255
f 17//17 255//255 153//153
f 153//153 255//255 74//74
f 255//255 155//155 259//259
f 255//255 259//259 74//74
f 257//257 73//73 188//188
f 152//152 73//73 17//17
f 188//188 73//73 152//152
f 187//187 257//257 188//188
f 17//17 153//153 152//152
f 153//153 188//188 152//152
f 188//188 153//153 18//18
f 153//153 39//39 193//193
f 153//153 193//193 18//18
f 194//194 146//146 66//66
f 153//153 74//74 39//39
f 258//258 158//158 260//260
f 194//194 158//158 121//121
f 39//39 74//74 286//286
f 74//74 259//259 260//260
f 74//74 260//260 286//286
f 121//121 158//158 71//71
f 19//19 162//162 159//159
f 159//159 162//162 124//124
f 124//124 162//162 247//247
f 19//19 160//160 167//167
f 167//167 166//166 21//21
f 160//160 166//166 167//167
f 162//162 19//19 261//261
f 162//162 261//261 263//263
f 162//162 263//263 163//163
f 247//247 162//162 125//125
f 163//163 67//67 162//162
f 162//162 161//161 125//125
f 125//125 161//161 164//164
f 162//162 67//67 165//165
f 162//162 165//165 164//164
f 164//164 165//165 20//20
f 162//162 164//164 161//161
f 261//261 274//274 263//263
f 262//262 26//26 67//67
f 274//274 26//26 262//262
f 263//263 262//262 163//163
f 262//262 67//67 163//163
f 274//274 262//262 263//263
f 274//274 276//276 26//26
f 261//261 276//276 274//274
f 290//290 267//267 269//269
f 290//290 269//269 289//289
f 288//288 268//268 289//289
f 268//268 290//290 289//289
f 266//266 264//264 265//265
f 264//264 296//296 265//265
f 296//296 272//272 265//265
f 222//222 224//224 223//223
f 222//222 218//218 221//221
f 221//221 218//218 223//223
f 222//222 221//221 224//224
f 224//224 221//221 223//223
f 199//199 270//270 217//217
f 265//265 40//40 33//33
f 272//272 40//40 265//265
f 199//199 217//217 271//271
f 199//199 271//271 27//27
f 296//296 273//273 272//272
f 273//273 40//40 272//272
f 52//52 170//170 166//166
f 170//170 56//56 166//166
f 21//21 166//166 56//56
f 291//291 26//26 276//276
f 217//217 270//270 94//94
f 270//270 199//199 206//206
f 168//168 206//206 169//169
f 168//168 169//169 94//94
f 270//270 168//168 94//94
f 206//206 168//168 270//270
f 207//207 206//206 199//199
f 208//208 206//206 207//207
f 64//64 206//206 208//208
f 22//22 21//21 56//56
f 22//22 56//56 170//170
f 261//261 275//275 276//276
f 275//275 57//57 276//276
f 57//57 291//291 276//276
f 202//202 201//201 57//57
f 176//176 58//58 47//47
f 47//47 170//170 236//236
f 47//47 236//236 10//10
f 58//58 170//170 47//47
f 201//201 202//202 203//203
f 202//202 280//280 203//203
f 204//204 280//280 179//179
f 203//203 280//280 204//204
f 203//203 204//204 201//201
f 64//64 145//145 206//206
f 58//58 176//176 171//171
f 24//24 59//59 171//171
f 59//59 22//22 170//170
f 59//59 170//170 58//58
f 59//59 58//58 171//171
f 38//38 280//280 283//283
f 283//283 202//202 57//57
f 280//280 202//202 283//283
f 283//283 57//57 275//275
f 38//38 283//283 284//284
f 284//284 283//283 275//275
f 64//64 208//208 182//182
f 23//23 24//24 171//171
f 23//23 171//171 172//172
f 171//171 176//176 172//172
f 284//284 275//275 285//285
f 285//285 275//275 277//277
f 178//178 172//172 176//176
f 178//178 60//60 177//177
f 172//172 177//177 23//23
f 178//178 177//177 172//172
f 279//279 277//277 278//278
f 248//248 281//281 279//279
f 281//281 285//285 279//279
f 281//281 38//38 284//284
f 281//281 284//284 285//285
f 279//279 285//285 277//277
f 38//38 281//281 75//75
f 281//281 282//282 75//75
f 75//75 282//282 184//184
f 281//281 248//248 282//282
f 278//278 249//249 279//279
f 249//249 253//253 279//279
f 279//279 253//253 185//185
f 279//279 185//185 248//248
f 185//185 282//282 248//248
f 64//64 182//182 186//186
f 146//146 145//145 173//173
f 173//173 145//145 64//64
f 253//253 63//63 185//185
f 253//253 61//61 63//63
f 63//63 282//282 185//185
f 191//191 184//184 282//282
f 191//191 282//282 181//181
f 282//282 63//63 181//181
f 63//63 61//61 180//180
f 180//180 181//181 63//63
f 61//61 187//187 180//180
f 180//180 187//187 181//181
f 191//191 181//181 190//190
f 179//179 183//183 182//182
f 183//183 191//191 182//182
f 183//183 184//184 191//191
f 191//191 186//186 182//182
f 191//191 190//190 186//186
f 190//190 192//192 186//186
f 146//146 173//173 66//66
f 66//66 64//64 186//186
f 173//173 64//64 66//66
f 193//193 189//189 18//18
f 189//189 39//39 25//25
f 193//193 39//39 189//189
f 181//181 187//187 65//65
f 18//18 189//189 65//65
f 18//18 65//65 188//188
f 189//189 25//25 65//65
f 65//65 187//187 188//188
f 196//196 66//66 192//192
f 66//66 186//186 192//192
f 181//181 65//65 190//190
f 65//65 25//25 195//195
f 190//190 195//195 192//192
f 65//65 195//195 190//190
f 66//66 196//196 198//198
f 196//196 192//192 195//195
f 196//196 195//195 198//198
f 39//39 286//286 25//25
f 286//286 260//260 287//287
f 194//194 66//66 197//197
f 194//194 197//197 158//158
f 158//158 287//287 260//260
f 198//198 287//287 158//158
f 66//66 198//198 197//197
f 197//197 198//198 158//158
f 25//25 286//286 195//195
f 287//287 198//198 195//195
f 287//287 195//195 286//286
f 293//293 294//294 297//297
f 292//292 294//294 293//293
f 267//267 268//268 264//264
f 290//290 268//268 267//267
f 268//268 288//288 295//295
f 268//268 295//295 264//264
f 288//288 40//40 273//273
f 288//288 273//273 296//296
f 295//295 296//296 264//264
f 288//288 296//296 295//295
f 27//27 200//200 199//199
f 27//27 28//28 207//207
f 27//27 207//207 200//200
f 200//200 207//207 199//199
f 298//298 28//28 297//297
f 29//29 28//28 298//298
f 29//29 298//298 294//294
f 294//294 298//298 297//297
f 291//291 292//292 293//293
f 201//201 292//292 291//291
f 291//291 57//57 201//201
f 201//201 205//205 292//292
f 205//205 294//294 292//292
f 207//207 28//28 29//29
f 207//207 29//29 209//209
f 207//207 209//209 210//210
f 29//29 294//294 209//209
f 294//294 210//210 209//209
f 294//294 205//205 211//211
f 205//205 201//201 211//211
f 294//294 211//211 210//210
f 201//201 204//204 211//211
f 204//204 179//179 182//182
f 204//204 182//182 211//211
f 210//210 208//208 207//207
f 211//211 182//182 208//208
f 211//211 208//208 210//210
