# decimated by Tools/decimate_anatomy.py from 6176 triangles (BodyParts3D, CC BY 4.0)
v 0.03111873 0.01408710 0.14576104
v 0.03038253 0.01348928 0.14685906
v 0.03100542 0.01502183 0.14973798
v 0.02754338 0.01599154 0.15083015
v 0.02827771 0.01557678 0.11404481
v 0.02824016 0.01572741 0.11642303
v 0.02803029 0.01640790 0.11768904
v 0.02701442 0.01356179 0.11558728
v 0.02247882 0.01562279 0.14499792
v 0.02126201 0.01549948 0.14951580
v 0.02240252 0.01772992 0.15146558
v 0.02612872 0.01973235 0.11110984
v 0.01983902 0.01752166 0.13763401
v 0.02075882 0.01515849 0.14688458
v 0.01613117 0.02069517 0.11350316
v 0.01389262 0.01843132 0.11416910
v 0.01554385 0.01289914 0.11676584
v 0.01473206 0.01404955 0.11834005
v 0.01430352 0.01976287 0.11638362
v 0.01573236 0.01545473 0.12013014
v 0.01461644 0.01815663 0.11918612
v 0.01565556 0.01944785 0.12057526
v 0.03114858 0.01373827 0.14763948
v 0.03070445 0.01393431 0.14527971
v 0.03059192 0.01396722 0.14497278
v 0.02393160 0.01349801 0.14966668
v 0.02022102 0.01733311 0.14087112
v 0.02203660 0.01571113 0.14520033
v 0.02203873 0.02184876 0.11282475
v 0.01739100 0.01820214 0.12686177
v 0.01602831 0.01275089 0.11481375
v 0.01561992 0.01546502 0.12004751
v 0.03087728 0.01356687 0.14772463
v 0.02994907 0.01505709 0.15033121
v 0.02907340 0.01855175 0.13770359
v 0.02868634 0.01799788 0.15073674
v 0.02814950 0.01994199 0.11270874
v 0.02809006 0.01766851 0.12842212
v 0.02651991 0.02147811 0.12218352
v 0.02661908 0.02003301 0.14895104
v 0.02586145 0.01565592 0.15107779
v 0.02649327 0.01875385 0.15029040
v 0.02544584 0.01255113 0.11309981
v 0.02850155 0.01775291 0.11254775
v 0.02823654 0.02035437 0.11343089
v 0.02582444 0.01367815 0.11745916
v 0.02673168 0.01690120 0.12954538
v 0.02409869 0.01448577 0.15117647
v 0.02324435 0.01849590 0.15128711
v 0.02477945 0.01972697 0.14920555
v 0.02278283 0.01877778 0.15046528
v 0.02488849 0.01972190 0.11115000
v 0.02003623 0.01913269 0.13953506
v 0.02317281 0.02145741 0.13954022
v 0.02260626 0.01476007 0.14651737
v 0.02152780 0.01517064 0.14617947
v 0.02038184 0.01816764 0.14248852
v 0.02109477 0.01301849 0.11249479
v 0.01838878 0.01331535 0.11316133
v 0.01800074 0.01676362 0.12570259
v 0.01610480 0.02145931 0.11599528
v 0.01449841 0.01976732 0.11746019
v 0.01629785 0.02094088 0.11938965
v 0.01377886 0.01607221 0.11450691
v 0.01384060 0.01636579 0.11419712
v 0.03051885 0.01372758 0.14587583
v 0.03099285 0.01401908 0.14563750
v 0.02306319 0.01474830 0.15158190
v 0.02266735 0.01364650 0.15011507
v 0.02074549 0.01502739 0.14741503
v 0.02107329 0.02190122 0.11301967
v 0.01669972 0.01797789 0.12469246
v 0.01934152 0.01774471 0.13569486
v 0.01452241 0.01911983 0.11384216
v 0.03092403 0.01424690 0.14521269
v 0.03063791 0.01419622 0.14477974
v 0.03067916 0.01421055 0.14482699
v 0.03087050 0.01502283 0.14493414
v 0.03024626 0.01495092 0.14451034
v 0.03064318 0.01526737 0.14465244
v 0.03084921 0.01621631 0.14499750
v 0.03115039 0.01446642 0.14571246
v 0.03064809 0.01342256 0.14815989
v 0.03102603 0.01426531 0.14917834
v 0.03036925 0.01343043 0.14849419
v 0.03032694 0.01431264 0.14979209
v 0.03068472 0.01497391 0.15005990
v 0.03058145 0.01806364 0.15000894
v 0.03029489 0.01629162 0.15050522
v 0.03017492 0.01813856 0.15029452
v 0.02960740 0.01700209 0.15082860
v 0.03120641 0.01486239 0.14660006
v 0.03021822 0.01879544 0.14989637
v 0.02985152 0.01369559 0.14625283
v 0.03041221 0.01648145 0.14384115
v 0.02972491 0.01662305 0.14284527
v 0.02930398 0.01466090 0.14480401
v 0.02934866 0.01454805 0.14486415
v 0.02921264 0.01546597 0.14405414
v 0.02765727 0.01489211 0.14502611
v 0.02850653 0.01488556 0.14476238
v 0.02832297 0.01523608 0.14405104
v 0.02764694 0.01522390 0.15036081
v 0.02913181 0.02005255 0.14854948
v 0.02879893 0.01981447 0.14949314
v 0.02843386 0.01999805 0.11295764
v 0.02895675 0.01691325 0.11535308
v 0.02865748 0.01730823 0.11366164
v 0.02888266 0.01930076 0.11347462
v 0.02896460 0.01805235 0.11444106
v 0.02882478 0.01883904 0.11653644
v 0.02853725 0.01998835 0.11348921
v 0.02863344 0.01996360 0.11394004
v 0.02860869 0.01947176 0.11729675
v 0.02897490 0.01741783 0.11547626
v 0.02849834 0.01734122 0.11718163
v 0.02849699 0.01739696 0.11729935
v 0.02866201 0.01811479 0.11750702
v 0.02789111 0.01950310 0.12235059
v 0.02807200 0.01819276 0.12475301
v 0.02805961 0.01766058 0.12862865
v 0.02800712 0.01724811 0.12411393
v 0.02831984 0.01873333 0.12616926
v 0.02805235 0.01742862 0.12480436
v 0.03037515 0.01888334 0.14736769
v 0.03046473 0.01880566 0.14537617
v 0.02979915 0.01774957 0.14156424
v 0.02834288 0.02002529 0.13507773
v 0.02761806 0.01669004 0.13869954
v 0.02693941 0.01416255 0.14896003
v 0.02648550 0.01411030 0.14799925
v 0.02589559 0.01482174 0.14622149
v 0.02658733 0.01504135 0.15031290
v 0.02702797 0.01445625 0.14943997
v 0.02418280 0.01451676 0.15118863
v 0.02409777 0.01698383 0.15188114
v 0.02655597 0.01886259 0.15018496
v 0.02513310 0.01879237 0.15062881
v 0.02404230 0.01934244 0.15035152
v 0.02739700 0.01525555 0.11270176
v 0.02686382 0.01364744 0.11345109
v 0.02690325 0.01461712 0.11263744
v 0.02549540 0.01483712 0.11203213
v 0.02632882 0.01541212 0.11207094
v 0.02779352 0.01824646 0.11154759
v 0.02696581 0.02101369 0.11291623
v 0.02654174 0.02117348 0.11265410
v 0.02665669 0.01308494 0.11551986
v 0.02526508 0.01194562 0.11433476
v 0.02558061 0.01262402 0.11639578
v 0.02599180 0.02207906 0.11450137
v 0.02589700 0.02204154 0.11603806
v 0.02534912 0.01454222 0.11984508
v 0.02770898 0.01610074 0.11824710
v 0.02684821 0.01523990 0.11908050
v 0.02715053 0.01540803 0.11799941
v 0.02688356 0.01581397 0.12115617
v 0.02767475 0.02002500 0.12249587
v 0.02582854 0.01629608 0.12720494
v 0.02707793 0.01602686 0.13915549
v 0.02462643 0.01569939 0.14015992
v 0.02290234 0.01394563 0.14751026
v 0.02271036 0.01558637 0.14492143
v 0.02213356 0.01371405 0.15015689
v 0.02187399 0.01393423 0.14736705
v 0.02301298 0.01364404 0.14875334
v 0.02275654 0.01504459 0.15181684
v 0.02520084 0.01781764 0.15131913
v 0.02400079 0.01978189 0.14901929
v 0.02401165 0.01941788 0.15012875
v 0.02254503 0.01852034 0.15067848
v 0.02467879 0.01165986 0.11453923
v 0.02627601 0.01960725 0.11108193
v 0.02531308 0.01965169 0.11111145
v 0.02449412 0.01959828 0.11133570
v 0.02593259 0.01821375 0.11115626
v 0.02517999 0.01229634 0.11604239
v 0.02477726 0.01196638 0.11541466
v 0.02454342 0.01363133 0.11836277
v 0.02231482 0.01424127 0.11988425
v 0.02506560 0.01562219 0.12463223
v 0.02288051 0.01259803 0.11678535
v 0.02424151 0.02255020 0.13100051
v 0.02534726 0.02229864 0.11470527
v 0.02243215 0.01938214 0.14712206
v 0.02081489 0.01687133 0.14197905
v 0.02044704 0.01712745 0.14097326
v 0.02199182 0.01401840 0.14722588
v 0.02209822 0.01434328 0.14692999
v 0.02139396 0.01431072 0.14734183
v 0.02141924 0.01792079 0.14757456
v 0.02069896 0.01680678 0.14426259
v 0.02223044 0.01606504 0.14249129
v 0.02088541 0.01620431 0.14534637
v 0.02360599 0.01586608 0.13999210
v 0.02102477 0.01646084 0.14413184
v 0.02264572 0.01616964 0.14101974
v 0.02074042 0.01638149 0.14554331
v 0.02070272 0.01672870 0.14472200
v 0.02073630 0.01802861 0.14420647
v 0.02156535 0.01866565 0.14579319
v 0.02072390 0.01725152 0.14501542
v 0.02190261 0.01207188 0.11344817
v 0.02522925 0.01512642 0.11194057
v 0.02253262 0.01353957 0.11231591
v 0.02114915 0.01294620 0.11249910
v 0.02233027 0.01413610 0.11967543
v 0.02019129 0.01293319 0.11653551
v 0.02053311 0.01478925 0.11302594
v 0.02133093 0.01696081 0.11323391
v 0.02490163 0.02211440 0.11411327
v 0.02464041 0.01618059 0.11203138
v 0.02192327 0.02078805 0.11245023
v 0.02130876 0.02255162 0.11402669
v 0.02125202 0.02296345 0.11984554
v 0.02297466 0.02278735 0.12501176
v 0.02031798 0.02294146 0.11800987
v 0.02042783 0.02273457 0.11554073
v 0.01874745 0.01680885 0.12699027
v 0.02328338 0.01599310 0.13876031
v 0.01900806 0.02202556 0.12515590
v 0.01977219 0.02242319 0.12485800
v 0.02013789 0.01279160 0.11300107
v 0.01958805 0.01479745 0.11327754
v 0.01859743 0.02138299 0.11321364
v 0.01798776 0.02181305 0.11355453
v 0.01928469 0.02263784 0.11629474
v 0.01944719 0.02253157 0.11439387
v 0.01763951 0.02221560 0.11537422
v 0.01838153 0.01299572 0.11638776
v 0.01746268 0.01323579 0.11697544
v 0.01553083 0.01375744 0.11856912
v 0.02001496 0.01457548 0.12005548
v 0.01720670 0.01588909 0.12216319
v 0.01859648 0.01612080 0.12438355
v 0.01733332 0.01808912 0.12653135
v 0.01815082 0.01736463 0.12727240
v 0.01678607 0.01681964 0.12349958
v 0.02148095 0.02126599 0.13851501
v 0.01839448 0.01547918 0.11341819
v 0.01859359 0.01335444 0.11316746
v 0.01702488 0.01275535 0.11435175
v 0.02167133 0.01251910 0.11273948
v 0.01646974 0.01365477 0.11349731
v 0.01602408 0.01407843 0.11347134
v 0.01572381 0.01375827 0.11367573
v 0.01467225 0.01616438 0.11349847
v 0.01538590 0.01848664 0.11345840
v 0.01442607 0.01704076 0.11353396
v 0.01765488 0.02117741 0.11332592
v 0.01752065 0.02163355 0.11358657
v 0.01545103 0.01864021 0.11346640
v 0.01769168 0.02021086 0.11341405
v 0.01743123 0.02136560 0.11341589
v 0.01618921 0.02115105 0.11387266
v 0.01676300 0.01327550 0.11729836
v 0.01501739 0.01412705 0.11864133
v 0.01517601 0.02093826 0.11617010
v 0.01701663 0.01542716 0.12095194
v 0.01644536 0.01462271 0.11961436
v 0.01527965 0.01385916 0.11857194
v 0.01459737 0.01687911 0.11935199
v 0.01541695 0.02102294 0.11693158
v 0.01647935 0.02105483 0.11967094
v 0.01602408 0.02098149 0.11840925
v 0.01562932 0.01749588 0.12151990
v 0.01676643 0.01706914 0.12391163
v 0.01585537 0.01948936 0.12111438
v 0.01511137 0.01999837 0.11850056
v 0.01387404 0.01773693 0.11413340
v 0.01384787 0.01680282 0.11413663
v 0.01364665 0.01707585 0.11563932
v 0.01357658 0.01642886 0.11664814
v 0.01369467 0.01724504 0.11619571
v 0.03047633 0.01400005 0.14488657
v 0.02852427 0.01431605 0.14543091
v 0.03119096 0.01434196 0.14712779
v 0.02919667 0.01983294 0.13995060
v 0.02441066 0.02241226 0.13529454
v 0.02868129 0.02030555 0.14844078
v 0.02510778 0.01378225 0.14882768
v 0.02479172 0.01385744 0.14968070
v 0.02406290 0.01432170 0.15100838
v 0.02781139 0.01897448 0.11174136
v 0.02774732 0.01844978 0.11154274
v 0.02715590 0.02014767 0.11223830
v 0.02640481 0.01953504 0.11109587
v 0.02095801 0.01470804 0.14790048
v 0.02389927 0.01684269 0.15186776
v 0.02352112 0.01728498 0.15172476
v 0.02224578 0.01474789 0.15159097
v 0.02248732 0.01429136 0.15102043
v 0.02226856 0.01609308 0.15176209
v 0.02241465 0.01796181 0.15130480
v 0.02167125 0.01477347 0.15087534
v 0.02315964 0.01845107 0.15126006
v 0.02631044 0.02123185 0.11263578
v 0.02227387 0.02149149 0.11258381
v 0.01978662 0.01888034 0.13877077
v 0.02108730 0.01765970 0.14672495
v 0.02082426 0.01580895 0.14715806
v 0.02182820 0.01380459 0.15045919
v 0.02175732 0.01409220 0.15048525
v 0.02135109 0.01451041 0.14700000
v 0.02107711 0.01570819 0.14584596
v 0.02081116 0.01578033 0.14596398
v 0.02077428 0.01547349 0.14636022
v 0.02072107 0.01510064 0.14712806
v 0.02081810 0.01591101 0.14589358
v 0.02419165 0.01446236 0.11206793
v 0.02111895 0.01300798 0.11246834
v 0.02193564 0.02097896 0.11257592
v 0.02078789 0.01340979 0.11264278
v 0.01978158 0.01345526 0.11299252
v 0.01950707 0.01312727 0.11303644
v 0.01878740 0.01349851 0.11315343
v 0.01945440 0.01316082 0.11304452
v 0.01975869 0.01901386 0.13864084
v 0.01758826 0.01994121 0.12568784
v 0.01559673 0.01755634 0.12145937
v 0.01714081 0.01293505 0.11597403
v 0.01662206 0.01301959 0.11673366
v 0.01434118 0.01917001 0.11404572
v 0.01534535 0.02035999 0.11388398
v 0.01555578 0.02077220 0.11453106
v 0.01471514 0.01330431 0.11575033
v 0.01520795 0.01305817 0.11648273
v 0.01537785 0.01360744 0.11829397
v 0.01466847 0.01398338 0.11815116
v 0.01521661 0.01324144 0.11721729
v 0.01664438 0.01670920 0.12312238
v 0.01514146 0.01626578 0.11978651
v 0.01573635 0.01718034 0.12150186
vn 0.974641 -0.161039 -0.155375
vn 0.041950 -0.985971 -0.161559
vn 0.981715 0.066634 0.178312
vn 0.197333 -0.381986 0.902855
vn 0.872500 -0.448116 -0.194774
vn 0.772678 -0.530871 0.348059
vn 0.859432 -0.461120 0.220783
vn 0.845080 -0.534607 0.005937
vn -0.349584 -0.923936 -0.155347
vn -0.954152 0.143205 0.262843
vn -0.094138 0.313704 0.944843
vn 0.058146 0.673603 -0.736802
vn -0.415098 -0.909077 0.035664
vn -0.691883 -0.653908 -0.306107
vn -0.309566 0.235021 -0.921376
vn -0.949834 0.257517 -0.177482
vn 0.091555 -0.970445 0.223281
vn -0.857999 -0.215929 0.466060
vn -0.910995 0.411996 0.018645
vn -0.398182 -0.699262 0.593704
vn -0.918149 0.193145 0.345973
vn -0.874488 0.298784 0.382098
vn 0.959141 -0.275240 0.065513
vn 0.455748 -0.874925 -0.163707
vn -0.033641 -0.948067 -0.316286
vn 0.224331 -0.864140 0.450486
vn -0.782960 -0.619717 0.054071
vn -0.405945 -0.688961 -0.600452
vn -0.160557 0.406100 -0.899613
vn -0.973095 0.114011 0.200219
vn -0.148342 -0.987887 0.045545
vn -0.815519 -0.281598 0.505601
vn 0.444925 -0.882912 -0.150026
vn 0.064507 -0.343793 0.936827
vn 0.893345 -0.440160 -0.090520
vn 0.138158 0.518041 0.844124
vn 0.456917 0.552999 -0.696720
vn 0.975130 -0.221330 0.011574
vn 0.515069 0.857120 -0.006981
vn -0.066459 0.960399 0.270586
vn 0.245735 -0.392143 0.886475
vn 0.154277 0.771934 0.616698
vn 0.244737 -0.602778 -0.759449
vn 0.868233 -0.234102 -0.437455
vn 0.585095 0.794849 -0.160871
vn 0.572827 -0.744067 0.343851
vn 0.660795 -0.749320 -0.043240
vn 0.098357 -0.693263 0.713941
vn 0.055099 0.646445 0.760969
vn -0.082680 0.946673 0.311406
vn -0.451725 0.850329 0.269971
vn -0.206267 0.336097 -0.918963
vn -0.794756 0.564702 0.222429
vn -0.207430 0.963951 0.166646
vn -0.050077 -0.682424 -0.729239
vn -0.136270 -0.887104 -0.440996
vn -0.950766 0.238735 0.197609
vn -0.122488 -0.096773 -0.987741
vn -0.054784 0.003804 -0.998491
vn -0.497687 -0.821901 0.277103
vn -0.480069 0.873139 -0.084631
vn -0.889674 0.371957 0.264816
vn -0.617682 0.753633 0.224737
vn -0.915828 -0.342418 -0.209784
vn -0.709884 -0.263897 -0.653010
vn 0.434219 -0.886262 -0.161223
vn 0.474582 -0.865323 -0.161208
vn 0.024771 -0.775807 0.630484
vn 0.040579 -0.836137 0.547017
vn -0.982044 -0.037198 0.184950
vn -0.162434 0.446717 -0.879806
vn -0.925263 0.229436 0.302073
vn -0.973490 -0.129365 0.188630
vn -0.588086 0.363072 -0.722726
vn 0.890209 -0.145367 -0.431737
vn 0.478470 -0.135029 -0.867660
vn 0.794356 -0.176594 -0.581217
vn 0.943120 0.014287 -0.332146
vn 0.071672 -0.368808 -0.926738
vn 0.568025 -0.262022 -0.780187
vn 0.970511 0.127973 -0.204280
vn 0.997508 0.002684 -0.070502
vn 0.294360 -0.945451 0.139555
vn 0.681940 -0.585248 0.438682
vn -0.103379 -0.969478 0.222317
vn 0.004741 -0.748855 0.662717
vn 0.426652 -0.307992 0.850358
vn 0.956414 0.191252 0.220668
vn 0.644341 0.034135 0.763977
vn 0.379352 0.321745 0.867509
vn 0.203716 -0.018825 0.978849
vn 0.985166 0.171606 -0.000436
vn 0.825251 0.483578 0.291741
vn -0.194857 -0.968253 -0.156577
vn 0.866916 -0.162016 -0.471388
vn 0.495912 -0.695009 -0.520609
vn -0.031239 -0.562019 -0.826534
vn -0.301885 -0.625433 -0.719513
vn 0.567285 -0.722590 -0.395034
vn -0.117665 -0.970829 -0.208917
vn -0.093507 -0.800615 -0.591838
vn 0.111812 -0.970127 -0.215294
vn 0.035959 -0.550564 0.834018
vn 0.490669 0.844140 0.216038
vn 0.077915 0.719991 0.689595
vn 0.766244 0.441082 -0.467243
vn 0.931072 -0.363016 0.036389
vn 0.939865 -0.253864 -0.228490
vn 0.973346 0.162179 -0.162159
vn 0.975383 -0.136407 -0.173265
vn 0.993111 0.052016 0.105003
vn 0.865083 0.277908 -0.417610
vn 0.705825 0.701684 0.097215
vn 0.789520 0.607576 0.086654
vn 0.993949 -0.067725 0.086478
vn 0.949602 -0.193356 0.246718
vn 0.959058 -0.254865 0.123498
vn 0.992869 -0.058135 0.104073
vn 0.990600 0.119228 0.067050
vn 0.989508 -0.071555 -0.125518
vn 0.638938 -0.767104 0.057525
vn 0.958358 -0.275823 0.073975
vn 0.959825 0.275042 -0.055564
vn 0.991894 -0.118457 -0.045988
vn 0.840376 0.541946 0.007905
vn 0.963049 0.234465 -0.132526
vn 0.923677 -0.257986 -0.283308
vn 0.937690 0.331645 -0.103682
vn 0.729551 -0.659373 -0.181613
vn 0.013904 -0.970752 0.239682
vn -0.126107 -0.965931 -0.225995
vn -0.026981 -0.906145 -0.422106
vn 0.304590 -0.666568 0.680376
vn 0.068676 -0.809981 0.582421
vn 0.305432 -0.344663 0.887648
vn 0.203787 -0.072503 0.976327
vn 0.030146 0.667887 0.743652
vn 0.157806 0.736950 0.657269
vn 0.115638 0.738427 0.664344
vn 0.739518 -0.442548 -0.507213
vn 0.744352 -0.616912 -0.255657
vn 0.486735 -0.369912 -0.791362
vn 0.163565 -0.345485 -0.924060
vn 0.409909 -0.393270 -0.822990
vn 0.423746 -0.262438 -0.866929
vn 0.511925 0.821718 -0.250425
vn 0.466328 0.687275 -0.556948
vn 0.680908 -0.710460 0.177793
vn 0.593175 -0.804323 -0.034747
vn 0.602527 -0.669349 0.434664
vn 0.576507 0.816973 -0.013971
vn 0.680774 0.731922 0.028935
vn 0.432530 -0.868753 0.241219
vn 0.761135 -0.642759 0.086801
vn 0.762721 -0.630140 0.145537
vn 0.721080 -0.685334 0.101790
vn 0.499056 -0.847462 0.180975
vn 0.755883 0.653763 0.035140
vn 0.125875 -0.991753 0.024100
vn 0.168716 -0.980178 -0.103860
vn -0.043578 -0.989711 -0.136282
vn 0.077942 -0.938719 -0.335755
vn -0.138722 -0.979551 -0.145724
vn -0.054105 -0.998409 0.015902
vn -0.215432 -0.968721 -0.123157
vn -0.005088 -0.995353 -0.096154
vn 0.290487 -0.245895 0.924745
vn 0.144344 0.356604 0.923038
vn -0.256536 0.945233 0.201802
vn -0.029831 0.852913 0.521200
vn -0.743966 0.611910 0.268477
vn -0.081150 -0.988600 0.126824
vn -0.018214 -0.009515 -0.999789
vn -0.052288 -0.040342 -0.997817
vn -0.408795 -0.185467 -0.893582
vn -0.004532 -0.200683 -0.979646
vn 0.223125 -0.884341 0.410069
vn 0.080627 -0.895741 0.437204
vn 0.124629 -0.909370 0.396880
vn -0.095839 -0.949063 0.300156
vn -0.017518 -0.955419 0.294734
vn -0.049792 -0.905227 0.422002
vn 0.337408 0.941272 -0.012784
vn 0.169817 0.985414 -0.011018
vn -0.609305 0.761932 0.219563
vn -0.452196 -0.888685 -0.075874
vn -0.464613 -0.877774 -0.116819
vn -0.032403 -0.808088 -0.588169
vn -0.028112 -0.678206 -0.734334
vn -0.699992 -0.697692 -0.152437
vn -0.875619 0.426050 0.227536
vn -0.951946 -0.298113 0.070198
vn -0.411460 -0.900536 -0.140483
vn -0.474118 -0.864834 -0.165150
vn -0.229854 -0.969214 -0.088274
vn -0.543289 -0.824204 -0.159763
vn -0.459402 -0.880556 -0.116491
vn -0.994943 -0.097425 0.024445
vn -0.945110 -0.318025 -0.075009
vn -0.914357 0.356100 0.192730
vn -0.822930 0.524056 0.219434
vn -0.981654 0.139679 0.129791
vn -0.078265 -0.944181 -0.319994
vn -0.258349 -0.005146 -0.966038
vn 0.075119 -0.396140 -0.915112
vn -0.136580 -0.513138 -0.847369
vn -0.067897 -0.895618 0.439611
vn -0.110637 -0.928057 0.355627
vn -0.235248 0.191456 -0.952892
vn -0.222589 -0.044670 -0.973889
vn 0.132331 0.904776 -0.404808
vn -0.408290 -0.157467 -0.899168
vn -0.313136 -0.123475 -0.941647
vn 0.053011 0.899964 -0.432729
vn 0.083272 0.996131 0.028100
vn 0.244720 0.969139 -0.029681
vn -0.247694 0.968301 0.032249
vn 0.045647 0.991311 -0.123363
vn -0.122866 -0.984959 0.121488
vn -0.216929 -0.976186 -0.001529
vn -0.656819 0.734504 0.170563
vn -0.288520 0.953733 0.084553
vn -0.254343 -0.711883 -0.654623
vn -0.104368 0.056696 -0.992921
vn -0.175335 0.215046 -0.960736
vn -0.114460 0.752975 -0.648019
vn -0.204169 0.976997 -0.061581
vn -0.127982 0.953259 -0.273711
vn -0.363234 0.931416 -0.022921
vn -0.074712 -0.902046 0.425124
vn 0.126114 -0.860214 0.494093
vn 0.149538 -0.835613 0.528572
vn -0.110344 -0.890521 0.441357
vn -0.489586 -0.783010 0.383667
vn -0.236400 -0.931032 0.278018
vn -0.556761 -0.819453 0.136070
vn -0.697031 -0.667739 0.261292
vn -0.591091 -0.730698 0.341602
vn -0.599264 0.778672 0.185884
vn -0.011914 0.035421 -0.999301
vn -0.087671 0.140822 -0.986146
vn -0.252651 -0.766846 -0.590012
vn -0.071691 -0.740622 -0.668086
vn -0.233956 -0.357724 -0.904045
vn -0.211493 -0.151033 -0.965639
vn -0.550555 -0.577585 -0.602731
vn -0.265457 -0.100471 -0.958873
vn -0.018676 0.028336 -0.999424
vn -0.466405 0.072847 -0.881566
vn -0.170227 -0.036822 -0.984717
vn -0.374866 0.883568 -0.280684
vn -0.171729 0.075165 -0.982273
vn -0.106153 -0.050259 -0.993079
vn -0.135391 0.168279 -0.976397
vn -0.453703 0.849191 -0.270237
vn 0.109346 -0.898075 0.426034
vn -0.480514 -0.560150 0.674788
vn -0.714632 0.681847 -0.156162
vn -0.156380 -0.902040 0.402331
vn 0.132252 -0.848625 0.512196
vn -0.333921 -0.665824 0.667214
vn -0.886382 -0.136353 0.442420
vn -0.492024 0.852443 0.176789
vn -0.601855 0.788031 0.129528
vn -0.391483 0.904255 0.170483
vn -0.864679 -0.368780 0.341076
vn -0.839360 -0.418294 0.347139
vn -0.874175 0.382456 0.299242
vn -0.749441 0.578331 0.322291
vn -0.954559 0.030682 -0.296438
vn -0.772825 -0.062231 -0.631561
vn -0.994972 0.050494 -0.086490
vn -0.973317 -0.064285 0.220277
vn -0.970477 0.222972 0.091963
vn -0.245647 -0.872115 -0.423170
vn -0.290902 -0.865260 -0.408291
vn 0.997344 0.067816 0.026559
vn 0.541543 0.840614 -0.009980
vn 0.194193 0.979317 0.056817
vn 0.260415 0.961779 0.084651
vn 0.123537 -0.989716 -0.072122
vn 0.281266 -0.881528 0.379208
vn 0.221224 -0.804050 0.551872
vn 0.537709 0.467107 -0.701912
vn 0.772256 0.185779 -0.607541
vn 0.488303 0.559806 -0.669460
vn 0.426277 0.323811 -0.844650
vn -0.722362 -0.687461 -0.074773
vn -0.139007 0.133823 0.981208
vn -0.093395 0.314032 0.944807
vn -0.055940 -0.791002 0.609251
vn 0.004628 -0.800152 0.599780
vn -0.832703 0.004841 0.553699
vn -0.896769 0.346884 0.274731
vn -0.911978 0.058631 0.406028
vn -0.056862 0.471789 0.879876
vn 0.090772 0.818645 -0.567081
vn 0.002331 0.777444 -0.628947
vn -0.982595 0.048005 0.179450
vn -0.934333 0.294690 0.200447
vn -0.967585 0.173703 0.183318
vn -0.897187 -0.227235 0.378707
vn -0.959330 -0.227302 0.167391
vn -0.467254 -0.691007 -0.551527
vn -0.399569 -0.684983 -0.609215
vn -0.545771 -0.650352 -0.528372
vn -0.996050 0.005223 -0.088637
vn -0.974709 0.214133 0.063956
vn -0.976167 -0.151647 -0.155248
vn -0.230168 0.210109 -0.950198
vn -0.251095 0.203920 -0.946239
vn -0.208796 0.345732 -0.914808
vn -0.251023 0.206613 -0.945674
vn -0.237809 0.155918 -0.958716
vn -0.256947 -0.325764 -0.909866
vn -0.136808 0.141915 -0.980379
vn -0.259055 0.118358 -0.958583
vn -0.792614 0.583532 0.176789
vn -0.865572 0.450947 0.217788
vn -0.917603 0.092068 0.386690
vn 0.018415 -0.987506 0.156503
vn 0.083890 -0.936787 0.339694
vn -0.789959 0.574798 -0.213475
vn -0.741001 0.583718 -0.331949
vn -0.667423 0.708690 -0.228704
vn -0.834224 -0.518499 -0.187695
vn -0.478105 -0.869191 0.126183
vn 0.010004 -0.917326 0.398011
vn -0.894502 -0.437264 0.093093
vn -0.124664 -0.946192 0.298631
vn -0.665033 -0.600188 0.444417
vn -0.813714 -0.331407 0.477534
vn -0.854787 -0.320774 0.407975
f 77//77 75//75 1//1
f 75//75 82//82 1//1
f 75//75 78//78 82//82
f 1//1 76//76 77//77
f 77//77 78//78 75//75
f 76//76 80//80 77//77
f 80//80 78//78 77//77
f 275//275 79//79 25//25
f 76//76 79//79 80//80
f 275//275 276//276 98//98
f 78//78 95//95 81//81
f 95//95 80//80 79//79
f 95//95 78//78 80//80
f 96//96 127//127 95//95
f 126//126 95//95 127//127
f 125//125 128//128 278//278
f 127//127 128//128 126//126
f 126//126 128//128 125//125
f 1//1 82//82 23//23
f 82//82 277//277 23//23
f 3//3 82//82 92//92
f 277//277 82//82 3//3
f 23//23 277//277 3//3
f 84//84 83//83 23//23
f 33//33 23//23 83//83
f 24//24 67//67 33//33
f 24//24 33//33 66//66
f 67//67 23//23 33//33
f 66//66 33//33 2//2
f 81//81 92//92 78//78
f 92//92 82//82 78//78
f 83//83 2//2 33//33
f 94//94 25//25 2//2
f 275//275 25//25 94//94
f 275//275 94//94 131//131
f 94//94 2//2 83//83
f 94//94 83//83 85//85
f 94//94 85//85 131//131
f 126//126 81//81 95//95
f 125//125 92//92 126//126
f 126//126 92//92 81//81
f 125//125 278//278 280//280
f 125//125 280//280 104//104
f 278//278 279//279 280//280
f 3//3 84//84 23//23
f 3//3 87//87 84//84
f 83//83 84//84 85//85
f 86//86 85//85 84//84
f 87//87 86//86 84//84
f 87//87 3//3 89//89
f 85//85 86//86 134//134
f 86//86 103//103 134//134
f 103//103 86//86 34//34
f 34//34 86//86 87//87
f 87//87 91//91 34//34
f 89//89 91//91 87//87
f 131//131 85//85 130//130
f 4//4 103//103 91//91
f 103//103 34//34 91//91
f 88//88 3//3 92//92
f 3//3 88//88 89//89
f 89//89 88//88 91//91
f 88//88 93//93 90//90
f 93//93 36//36 91//91
f 88//88 90//90 91//91
f 90//90 93//93 91//91
f 88//88 92//92 93//93
f 93//93 92//92 125//125
f 125//125 104//104 93//93
f 105//105 36//36 93//93
f 35//35 123//123 128//128
f 123//123 39//39 128//128
f 127//127 129//129 35//35
f 278//278 128//128 39//39
f 128//128 127//127 35//35
f 98//98 97//97 275//275
f 275//275 97//97 79//79
f 131//131 276//276 275//275
f 127//127 96//96 99//99
f 96//96 95//95 99//99
f 97//97 95//95 79//79
f 99//99 95//95 97//97
f 99//99 97//97 101//101
f 97//97 98//98 276//276
f 276//276 101//101 97//97
f 100//100 101//101 276//276
f 129//129 127//127 99//99
f 160//160 99//99 102//102
f 129//129 99//99 160//160
f 101//101 102//102 99//99
f 100//100 102//102 101//101
f 276//276 131//131 100//100
f 131//131 132//132 100//100
f 130//130 281//281 131//131
f 130//130 85//85 134//134
f 134//134 103//103 133//133
f 93//93 104//104 105//105
f 40//40 104//104 280//280
f 40//40 105//105 104//104
f 105//105 137//137 36//36
f 170//170 137//137 40//40
f 137//137 105//105 40//40
f 91//91 36//36 168//168
f 36//36 137//137 42//42
f 145//145 109//109 44//44
f 285//285 109//109 145//145
f 285//285 284//284 106//106
f 284//284 37//37 106//106
f 147//147 45//45 106//106
f 147//147 106//106 37//37
f 6//6 8//8 107//107
f 8//8 5//5 107//107
f 107//107 115//115 7//7
f 7//7 6//6 107//107
f 44//44 108//108 5//5
f 5//5 108//108 107//107
f 108//108 44//44 107//107
f 109//109 110//110 44//44
f 44//44 115//115 107//107
f 110//110 115//115 44//44
f 109//109 114//114 111//111
f 111//111 115//115 109//109
f 109//109 115//115 110//110
f 158//158 119//119 114//114
f 285//285 112//112 109//109
f 112//112 113//113 109//109
f 113//113 114//114 109//109
f 285//285 106//106 112//112
f 112//112 45//45 113//113
f 106//106 45//45 112//112
f 45//45 151//151 113//113
f 113//113 151//151 114//114
f 151//151 152//152 114//114
f 114//114 152//152 158//158
f 115//115 116//116 7//7
f 117//117 7//7 116//116
f 7//7 117//117 118//118
f 7//7 118//118 122//122
f 154//154 156//156 7//7
f 114//114 118//118 111//111
f 111//111 116//116 115//115
f 117//117 116//116 111//111
f 118//118 117//117 111//111
f 122//122 154//154 7//7
f 156//156 154//154 122//122
f 114//114 119//119 118//118
f 158//158 123//123 119//119
f 118//118 119//119 122//122
f 122//122 119//119 124//124
f 122//122 121//121 156//156
f 122//122 38//38 121//121
f 122//122 124//124 38//38
f 119//119 120//120 124//124
f 124//124 120//120 123//123
f 119//119 123//123 120//120
f 157//157 156//156 121//121
f 39//39 123//123 158//158
f 121//121 123//123 35//35
f 123//123 38//38 124//124
f 121//121 38//38 123//123
f 157//157 121//121 159//159
f 47//47 121//121 35//35
f 159//159 121//121 47//47
f 220//220 159//159 160//160
f 219//219 159//159 220//220
f 47//47 35//35 129//129
f 159//159 129//129 160//160
f 47//47 129//129 159//159
f 220//220 160//160 161//161
f 160//160 102//102 161//161
f 100//100 161//161 102//102
f 162//162 132//132 131//131
f 188//188 132//132 162//162
f 132//132 56//56 100//100
f 166//166 165//165 188//188
f 166//166 188//188 162//162
f 162//162 131//131 281//281
f 166//166 162//162 281//281
f 281//281 282//282 26//26
f 130//130 282//282 281//281
f 130//130 134//134 282//282
f 26//26 282//282 283//283
f 282//282 134//134 283//283
f 137//137 170//170 42//42
f 50//50 170//170 40//40
f 50//50 40//40 169//169
f 169//169 170//170 50//50
f 103//103 41//41 133//133
f 4//4 41//41 103//103
f 41//41 4//4 136//136
f 135//135 41//41 136//136
f 134//134 133//133 283//283
f 133//133 41//41 135//135
f 283//283 135//135 48//48
f 133//133 135//135 283//283
f 136//136 289//289 167//167
f 48//48 135//135 167//167
f 136//136 167//167 135//135
f 36//36 42//42 138//138
f 138//138 42//42 170//170
f 138//138 170//170 139//139
f 136//136 4//4 91//91
f 36//36 138//138 49//49
f 11//11 289//289 290//290
f 36//36 49//49 168//168
f 49//49 296//296 168//168
f 168//168 136//136 91//91
f 138//138 139//139 49//49
f 139//139 170//170 49//49
f 49//49 170//170 51//51
f 141//141 5//5 8//8
f 148//148 141//141 8//8
f 141//141 148//148 149//149
f 149//149 43//43 141//141
f 5//5 141//141 140//140
f 140//140 43//43 142//142
f 141//141 43//43 140//140
f 172//172 43//43 149//149
f 243//243 205//205 43//43
f 205//205 143//143 43//43
f 43//43 145//145 142//142
f 142//142 145//145 44//44
f 140//140 44//44 5//5
f 142//142 44//44 140//140
f 143//143 145//145 144//144
f 144//144 145//145 43//43
f 144//144 43//43 143//143
f 145//145 143//143 176//176
f 143//143 204//204 176//176
f 204//204 175//175 176//176
f 175//175 52//52 176//176
f 284//284 286//286 37//37
f 286//286 147//147 37//37
f 45//45 147//147 146//146
f 287//287 285//285 145//145
f 145//145 176//176 287//287
f 12//12 287//287 173//173
f 287//287 284//284 285//285
f 12//12 147//147 287//287
f 287//287 286//286 284//284
f 147//147 286//286 287//287
f 176//176 173//173 287//287
f 176//176 52//52 174//174
f 176//176 174//174 173//173
f 52//52 12//12 173//173
f 174//174 52//52 173//173
f 12//12 297//297 147//147
f 12//12 298//298 297//297
f 7//7 150//150 6//6
f 6//6 148//148 8//8
f 150//150 148//148 6//6
f 7//7 46//46 150//150
f 150//150 149//149 148//148
f 177//177 149//149 150//150
f 178//178 149//149 177//177
f 150//150 46//46 179//179
f 45//45 146//146 151//151
f 146//146 147//147 151//151
f 151//151 184//184 152//152
f 152//152 39//39 158//158
f 184//184 39//39 152//152
f 46//46 7//7 156//156
f 46//46 156//156 155//155
f 179//179 46//46 153//153
f 46//46 157//157 153//153
f 155//155 157//157 46//46
f 179//179 180//180 207//207
f 153//153 157//157 159//159
f 155//155 156//156 157//157
f 279//279 278//278 39//39
f 279//279 39//39 183//183
f 54//54 40//40 280//280
f 54//54 280//280 279//279
f 100//100 163//163 161//161
f 161//161 195//195 220//220
f 163//163 195//195 161//161
f 100//100 56//56 163//163
f 163//163 56//56 9//9
f 56//56 132//132 55//55
f 188//188 56//56 189//189
f 188//188 55//55 132//132
f 56//56 55//55 189//189
f 189//189 55//55 188//188
f 281//281 164//164 166//166
f 164//164 165//165 166//166
f 194//194 193//193 9//9
f 193//193 220//220 195//195
f 195//195 163//163 9//9
f 193//193 195//195 9//9
f 28//28 9//9 56//56
f 28//28 56//56 305//305
f 69//69 26//26 283//283
f 283//283 292//292 69//69
f 283//283 48//48 68//68
f 69//69 292//292 291//291
f 292//292 68//68 291//291
f 283//283 68//68 292//292
f 169//169 40//40 54//54
f 302//302 295//295 303//303
f 302//302 293//293 295//295
f 293//293 294//294 295//295
f 11//11 290//290 296//296
f 290//290 289//289 136//136
f 136//136 168//168 296//296
f 290//290 136//136 296//296
f 295//295 294//294 10//10
f 300//300 10//10 191//191
f 10//10 294//294 191//191
f 171//171 294//294 296//296
f 51//51 171//171 296//296
f 185//185 294//294 171//171
f 185//185 51//51 169//169
f 171//171 51//51 185//185
f 169//169 51//51 170//170
f 49//49 51//51 296//296
f 185//185 191//191 294//294
f 203//203 43//43 172//172
f 172//172 31//31 203//203
f 243//243 206//206 205//205
f 206//206 58//58 205//205
f 205//205 58//58 204//204
f 205//205 204//204 143//143
f 31//31 243//243 203//203
f 243//243 43//43 203//203
f 175//175 213//213 52//52
f 213//213 312//312 52//52
f 52//52 29//29 12//12
f 312//312 29//29 52//52
f 147//147 297//297 151//151
f 297//297 211//211 151//151
f 175//175 204//204 212//212
f 175//175 212//212 213//213
f 212//212 210//210 213//213
f 172//172 149//149 178//178
f 172//172 178//178 182//182
f 178//178 177//177 179//179
f 177//177 150//150 179//179
f 178//178 179//179 182//182
f 179//179 181//181 180//180
f 153//153 181//181 179//179
f 153//153 159//159 181//181
f 180//180 181//181 219//219
f 181//181 159//159 219//219
f 180//180 219//219 235//235
f 180//180 235//235 259//259
f 216//216 279//279 183//183
f 215//215 279//279 216//216
f 216//216 183//183 39//39
f 215//215 39//39 184//184
f 216//216 39//39 215//215
f 13//13 220//220 27//27
f 220//220 186//186 187//187
f 220//220 187//187 27//27
f 187//187 186//186 27//27
f 239//239 185//185 54//54
f 185//185 169//169 54//54
f 185//185 239//239 53//53
f 220//220 197//197 186//186
f 197//197 196//196 186//186
f 186//186 192//192 27//27
f 196//196 192//192 186//186
f 185//185 53//53 201//201
f 53//53 57//57 201//201
f 299//299 27//27 192//192
f 299//299 192//192 57//57
f 318//318 299//299 53//53
f 299//299 57//57 53//53
f 165//165 304//304 188//188
f 188//188 304//304 56//56
f 165//165 288//288 190//190
f 190//190 288//288 14//14
f 304//304 165//165 190//190
f 304//304 190//190 14//14
f 194//194 196//196 193//193
f 193//193 197//197 220//220
f 196//196 197//197 193//193
f 196//196 198//198 192//192
f 196//196 194//194 198//198
f 304//304 305//305 56//56
f 304//304 14//14 306//306
f 304//304 306//306 305//305
f 305//305 306//306 28//28
f 194//194 307//307 309//309
f 307//307 308//308 309//309
f 194//194 309//309 198//198
f 309//309 308//308 70//70
f 309//309 70//70 198//198
f 301//301 202//202 70//70
f 300//300 202//202 301//301
f 200//200 202//202 300//300
f 192//192 198//198 199//199
f 200//200 57//57 198//198
f 57//57 192//192 199//199
f 57//57 199//199 198//198
f 202//202 198//198 70//70
f 200//200 198//198 202//202
f 191//191 201//201 300//300
f 191//191 185//185 201//201
f 300//300 201//201 200//200
f 201//201 57//57 200//200
f 10//10 70//70 302//302
f 10//10 302//302 303//303
f 10//10 303//303 295//295
f 301//301 70//70 10//10
f 301//301 10//10 300//300
f 209//209 204//204 310//310
f 313//313 310//310 311//311
f 209//209 310//310 313//313
f 210//210 204//204 209//209
f 243//243 223//223 206//206
f 206//206 315//315 58//58
f 317//317 313//313 311//311
f 314//314 313//313 317//317
f 206//206 223//223 315//315
f 224//224 313//313 314//314
f 224//224 210//210 209//209
f 224//224 209//209 313//313
f 317//317 316//316 314//314
f 316//316 224//224 314//314
f 242//242 223//223 243//243
f 242//242 243//243 31//31
f 210//210 212//212 204//204
f 31//31 172//172 208//208
f 208//208 172//172 182//182
f 208//208 182//182 207//207
f 182//182 179//179 207//207
f 210//210 253//253 213//213
f 253//253 225//225 213//213
f 298//298 214//214 297//297
f 297//297 214//214 211//211
f 211//211 184//184 151//151
f 214//214 184//184 211//211
f 215//215 184//184 217//217
f 213//213 225//225 312//312
f 312//312 225//225 29//29
f 29//29 225//225 71//71
f 71//71 225//225 226//226
f 225//225 254//254 226//226
f 226//226 228//228 298//298
f 228//228 214//214 298//298
f 217//217 218//218 228//228
f 218//218 217//217 184//184
f 228//228 184//184 214//214
f 218//218 184//184 228//228
f 259//259 233//233 180//180
f 221//221 239//239 54//54
f 222//222 54//54 279//279
f 221//221 54//54 222//222
f 217//217 222//222 215//215
f 215//215 222//222 279//279
f 219//219 220//220 237//237
f 220//220 13//13 236//236
f 220//220 236//236 237//237
f 239//239 318//318 53//53
f 221//221 318//318 239//239
f 27//27 299//299 73//73
f 73//73 299//299 30//30
f 59//59 315//315 223//223
f 317//317 315//315 241//241
f 317//317 241//241 316//316
f 315//315 59//59 241//241
f 316//316 59//59 224//224
f 241//241 59//59 316//316
f 31//31 246//246 242//242
f 242//242 246//246 223//223
f 223//223 246//246 59//59
f 246//246 244//244 59//59
f 246//246 245//245 244//244
f 245//245 59//59 244//244
f 240//240 224//224 59//59
f 230//230 321//321 208//208
f 321//321 31//31 208//208
f 255//255 229//229 228//228
f 251//251 228//228 226//226
f 255//255 228//228 251//251
f 259//259 230//230 233//233
f 230//230 208//208 207//207
f 233//233 207//207 180//180
f 230//230 207//207 233//233
f 259//259 231//231 230//230
f 259//259 260//260 231//231
f 232//232 231//231 260//260
f 229//229 217//217 227//227
f 227//227 217//217 228//228
f 229//229 227//227 228//228
f 259//259 331//331 20//20
f 238//238 331//331 259//259
f 222//222 264//264 221//221
f 217//217 264//264 222//222
f 63//63 264//264 217//217
f 63//63 217//217 265//265
f 217//217 263//263 265//265
f 60//60 235//235 219//219
f 235//235 60//60 238//238
f 238//238 259//259 234//234
f 238//238 234//234 235//235
f 234//234 259//259 235//235
f 331//331 333//333 32//32
f 236//236 238//238 237//237
f 267//267 331//331 238//238
f 237//237 60//60 219//219
f 238//238 60//60 237//237
f 331//331 267//267 333//333
f 238//238 236//236 267//267
f 267//267 236//236 266//266
f 267//267 266//266 333//333
f 30//30 299//299 319//319
f 299//299 318//318 319//319
f 318//318 221//221 319//319
f 246//246 247//247 245//245
f 245//245 247//247 59//59
f 31//31 321//321 17//17
f 321//321 322//322 17//17
f 321//321 230//230 322//322
f 326//326 31//31 327//327
f 326//326 246//246 31//31
f 246//246 326//326 64//64
f 59//59 248//248 240//240
f 224//224 253//253 210//210
f 240//240 253//253 224//224
f 253//253 240//240 248//248
f 59//59 247//247 248//248
f 247//247 249//249 248//248
f 246//246 64//64 247//247
f 65//65 247//247 64//64
f 271//271 247//247 65//65
f 247//247 271//271 249//249
f 252//252 249//249 74//74
f 15//15 252//252 74//74
f 252//252 248//248 249//249
f 16//16 74//74 249//249
f 270//270 249//249 271//271
f 16//16 249//249 270//270
f 74//74 16//16 323//323
f 248//248 252//252 253//253
f 252//252 15//15 254//254
f 253//253 250//250 225//225
f 252//252 254//254 253//253
f 254//254 250//250 253//253
f 250//250 254//254 225//225
f 15//15 255//255 254//254
f 254//254 251//251 226//226
f 255//255 251//251 254//254
f 255//255 61//61 229//229
f 258//258 61//61 255//255
f 74//74 324//324 15//15
f 324//324 255//255 15//15
f 255//255 324//324 325//325
f 255//255 325//325 258//258
f 324//324 74//74 258//258
f 325//325 324//324 258//258
f 232//232 256//256 231//231
f 257//257 20//20 18//18
f 261//261 20//20 257//257
f 328//328 256//256 232//232
f 328//328 17//17 322//322
f 328//328 322//322 256//256
f 231//231 322//322 230//230
f 256//256 322//322 231//231
f 328//328 330//330 31//31
f 329//329 330//330 328//328
f 328//328 261//261 329//329
f 257//257 18//18 329//329
f 261//261 257//257 329//329
f 332//332 262//262 32//32
f 31//31 330//330 327//327
f 327//327 329//329 326//326
f 330//330 329//329 327//327
f 18//18 32//32 262//262
f 18//18 273//273 329//329
f 329//329 64//64 326//326
f 273//273 64//64 329//329
f 18//18 262//262 273//273
f 19//19 274//274 62//62
f 274//274 273//273 62//62
f 74//74 323//323 258//258
f 258//258 323//323 19//19
f 16//16 19//19 323//323
f 272//272 273//273 274//274
f 16//16 274//274 19//19
f 274//274 16//16 272//272
f 61//61 263//263 229//229
f 61//61 258//258 263//263
f 229//229 263//263 217//217
f 258//258 19//19 263//263
f 263//263 62//62 63//63
f 263//263 63//63 265//265
f 19//19 62//62 263//263
f 259//259 20//20 261//261
f 259//259 261//261 260//260
f 232//232 261//261 328//328
f 260//260 261//261 232//232
f 273//273 262//262 21//21
f 262//262 320//320 21//21
f 262//262 332//332 320//320
f 332//332 32//32 333//333
f 320//320 333//333 266//266
f 332//332 333//333 320//320
f 221//221 264//264 319//319
f 264//264 268//268 319//319
f 264//264 63//63 268//268
f 22//22 21//21 320//320
f 63//63 62//62 269//269
f 63//63 269//269 268//268
f 269//269 22//22 268//268
f 62//62 273//273 21//21
f 62//62 21//21 22//22
f 269//269 62//62 22//22
f 320//320 268//268 22//22
f 320//320 266//266 72//72
f 319//319 72//72 30//30
f 268//268 72//72 319//319
f 320//320 72//72 268//268
f 16//16 270//270 272//272
f 270//270 271//271 64//64
f 271//271 65//65 64//64
f 272//272 64//64 273//273
f 270//270 64//64 272//272
