# decimated by Tools/decimate_anatomy.py from 9696 triangles (BodyParts3D, CC BY 4.0)
v 0.01183657 0.00915472 0.00609021
v -0.00365451 0.00442700 0.01233737
v 0.01407051 0.00859037 0.00457833
v 0.02201794 0.00129297 0.02602590
v -0.00276245 0.00119911 0.01402175
v 0.00469127 -0.00837020 -0.04604598
v 0.01867635 -0.00598705 -0.05806331
v 0.01511825 -0.00567250 -0.06553147
v 0.01291721 -0.01173633 -0.09203933
v 0.01939645 -0.00628404 0.01986658
v -0.00205163 -0.01023098 0.01128805
v 0.01656208 -0.00724628 0.00088516
v 0.00555070 -0.01117045 -0.04709782
v 0.00484111 -0.01170728 -0.05747669
v 0.00513707 -0.01329452 -0.06964808
v 0.00493208 -0.01409397 -0.06919374
v 0.00492647 -0.01442046 -0.07208636
v 0.00524820 -0.01524365 -0.07122740
v 0.01619667 -0.01883082 -0.11714546
v 0.00633606 -0.01077469 0.01098819
v 0.00411634 -0.02276139 -0.10095488
v 0.00391707 -0.02387966 -0.10644351
v 0.00372088 -0.02577617 -0.12061217
v 0.00281206 -0.02851330 -0.12540632
v 0.00993737 -0.03344089 -0.12711088
v 0.00388437 -0.03363296 -0.15279138
v 0.00937553 -0.03693571 -0.20269935
v 0.00814941 -0.03855626 -0.19819513
v 0.00188217 -0.04360476 -0.20598032
v 0.01674278 -0.04183724 -0.16722013
v 0.01511294 -0.03738995 -0.17133222
v 0.00016528 -0.04541422 -0.20346330
v 0.00027990 -0.04579101 -0.20192961
v 0.00574734 -0.04326657 -0.20714645
v 0.02081252 -0.04338275 -0.20288590
v 0.01785607 -0.04715206 -0.19213848
v 0.01366583 0.01058194 0.01480487
v -0.00296173 0.00606357 0.01451578
v 0.01505015 0.00509175 0.02018833
v 0.02285162 0.00072443 0.02626232
v 0.02438261 0.00159803 0.02513096
v 0.02534638 -0.00702584 0.01207399
v 0.00485733 -0.01183314 -0.05788691
v 0.00421064 -0.02180547 -0.09962018
v 0.00450706 -0.02310308 -0.10121055
v 0.00455051 -0.02658375 -0.11280384
v 0.00356609 -0.02602688 -0.11403984
v 0.00859966 -0.04911429 -0.16036183
v 0.01639079 -0.04404649 -0.16945311
v 0.00385902 -0.04870439 -0.18594474
v 0.00150894 -0.04990347 -0.20422573
v 0.02122317 -0.04815607 -0.19819403
v 0.00353620 -0.04821959 -0.20608751
v 0.00580562 -0.04491150 -0.20678417
v 0.02000878 -0.04955992 -0.20356466
v 0.00457114 -0.04937996 -0.18222205
v 0.00393755 -0.04992770 -0.19284403
v 0.02105935 -0.04990103 -0.20168664
v 0.01989551 -0.04995711 -0.20343930
v 0.00421070 0.00267753 -0.00256297
v 0.00221661 -0.00055855 0.01658890
v 0.02171053 0.00227324 0.02504872
v 0.02442756 0.00163327 0.02512402
v 0.01972757 -0.00481032 -0.03418725
v 0.00911686 -0.00815419 0.01914717
v 0.02189919 -0.00209120 0.02453287
v -0.00233073 -0.00097901 0.00895107
v -0.00252180 -0.00763329 0.00780180
v 0.00057429 -0.00295963 -0.00653954
v 0.02561684 0.00046660 0.01272080
v 0.02517007 -0.00631458 0.00709378
v 0.02041548 -0.00592143 -0.02135564
v 0.01940873 -0.00844110 -0.04517334
v 0.00435327 -0.00990269 -0.04716791
v 0.00486539 -0.01229590 -0.06033170
v 0.00516134 -0.01438518 -0.07363294
v 0.00544423 -0.01318228 -0.05909784
v 0.00521385 -0.01456604 -0.06804294
v 0.01872305 -0.01315493 -0.06403694
v 0.00174763 -0.01078051 0.01841643
v 0.02013403 -0.00707578 0.01910108
v 0.01259076 -0.00999166 0.01684901
v 0.00491054 -0.01766774 -0.08620734
v 0.00459387 -0.01787121 -0.08506103
v 0.00498184 -0.01886728 -0.08509361
v 0.00389821 -0.02421156 -0.11041351
v 0.00347604 -0.02765061 -0.11794346
v 0.01920855 -0.02709152 -0.12083105
v 0.00709330 -0.03920448 -0.19366769
v 0.01120158 -0.03816420 -0.19803475
v 0.01795576 -0.03466874 -0.14451513
v 0.01630288 -0.03303988 -0.15644227
v 0.01390043 -0.03995257 -0.18389527
v 0.00205421 -0.04155651 -0.20440833
v 0.00023098 -0.04530240 -0.20439231
v 0.01723187 -0.04357568 -0.19366462
v 0.01392581 -0.04066251 -0.20613942
v 0.00127936 -0.04660667 -0.19781015
v -0.00310269 0.00555405 0.01494837
v -0.00287741 0.00608977 0.01460524
v 0.01731262 -0.00186633 -0.03989065
v 0.01505381 -0.00229716 -0.04802111
v 0.02492831 -0.00059411 0.02487571
v -0.00357002 -0.00335241 0.01502916
v -0.00473776 -0.00719968 0.01531014
v 0.02181104 -0.00369759 -0.00677653
v 0.00490202 -0.01308863 -0.06399260
v 0.00506564 -0.01500709 -0.07231644
v 0.00473505 -0.01855096 -0.08555339
v 0.00447328 -0.02203920 -0.09871177
v 0.00415440 -0.02234243 -0.10053105
v 0.00392493 -0.02385644 -0.11032977
v 0.00456171 -0.01819109 -0.08598838
v 0.00712900 -0.02755807 -0.11186166
v 0.00956202 -0.03125011 -0.12155938
v 0.00696187 -0.02797225 -0.11357952
v 0.00408674 -0.02436359 -0.10709164
v 0.00337258 -0.03882631 -0.15126294
v 0.01822252 -0.03237889 -0.14114472
v 0.00949189 -0.04768484 -0.15655904
v 0.00043489 -0.04788742 -0.20149902
v 0.00062282 -0.04985857 -0.20109060
v 0.00052165 -0.04797772 -0.20114923
v 0.00160455 -0.04900222 -0.19676526
v 0.00076938 -0.04993623 -0.20045041
v 0.01594692 -0.04761086 -0.18082076
v 0.01558871 -0.04988617 -0.18184943
v 0.01548974 -0.04999800 -0.17883635
v 0.01735077 -0.04791992 -0.19063524
v 0.00706199 -0.04978794 -0.20529986
v 0.01640968 -0.04606435 -0.20502611
v 0.01546654 -0.04987928 -0.18299188
v 0.00158392 -0.04907536 -0.19692630
v 0.00240823 -0.04793776 -0.19317581
v 0.00279012 -0.04855377 -0.19316041
v 0.00242510 -0.04855377 -0.19387358
v 0.00281986 -0.04992770 -0.19498345
v 0.00049321 -0.04860176 -0.20335805
v 0.00288215 -0.04782453 -0.20613053
v 0.00347937 -0.04825318 -0.20603818
v 0.02073389 -0.04905395 -0.19790810
v 0.01839346 -0.04865702 -0.19431093
v 0.01427747 -0.04641542 -0.20521267
v 0.01538989 -0.04233210 -0.20579384
v 0.02098451 -0.04994249 -0.20197597
v 0.01992943 -0.04942359 -0.20369924
v 0.00923944 -0.04821086 -0.15790868
v 0.01020029 -0.04647169 -0.15353390
v 0.01503126 -0.04738837 -0.16242880
v 0.01560387 -0.04978987 -0.18277285
v 0.01309100 0.01119650 0.01298554
v 0.01190384 0.00985815 0.01445914
v -0.00183104 0.00538670 0.01621623
v -0.00364998 0.00496591 0.01438208
v -0.00164818 0.00532267 0.01004185
v -0.00238817 0.00522152 0.01593588
v 0.00421734 0.00454368 0.01806242
v 0.00787016 0.00622287 0.01891544
v 0.01072241 0.00867146 0.01590016
v 0.00980068 0.00612745 0.01997308
v 0.01763325 0.00405839 0.02055006
v 0.01580192 0.00675710 0.01841731
v 0.00953804 0.00744407 0.00687130
v 0.01501689 0.00998601 0.01204535
v 0.01704354 0.00728940 0.01551028
v 0.01072854 0.00853298 0.01068189
v 0.01163694 0.01029421 0.01239441
v 0.00635780 0.00255449 -0.00764216
v 0.02273139 0.00150780 0.02606478
v 0.02331899 0.00084444 0.02626535
v -0.00229396 0.00214192 0.00854025
v -0.00115552 0.00391764 0.01683576
v -0.00019869 0.00030314 0.01599140
v 0.00796952 0.00134181 0.01806563
v 0.01515016 0.00411862 0.02044036
v -0.00045146 0.00047100 0.01592538
v 0.01459936 0.00117868 0.01997988
v 0.01872098 0.00515517 0.01885079
v 0.02017750 0.00403107 0.02039660
v 0.01866193 0.00384202 0.02080667
v 0.01600507 0.00343645 0.02084900
v 0.01734725 0.00302103 0.02144890
v 0.02333947 0.00302462 0.02321810
v 0.02008099 0.00254923 0.02348825
v 0.02056868 0.00202657 0.02449170
v 0.01902787 0.00207863 0.02322843
v 0.02299528 0.00184924 0.02561472
v 0.02618883 0.00157882 0.02050188
v 0.02555842 0.00084846 0.02386289
v 0.02567893 0.00106785 0.02317977
v 0.02617094 0.00101548 0.02179289
v 0.02171690 0.00410293 0.01839274
v 0.02406478 0.00191959 0.02489742
v 0.02425135 0.00283723 0.01439219
v 0.02567184 0.00214841 0.01870718
v 0.02631983 0.00162424 0.01867138
v -0.00019832 0.00138023 0.00086228
v 0.02014643 0.00164416 0.00001072
v 0.01665147 0.00649575 0.00498859
v 0.00243069 -0.00275471 -0.01540003
v 0.00360744 -0.00773210 -0.03875147
v 0.01604155 0.00391486 -0.00916928
v 0.01815193 -0.00101004 -0.02367410
v 0.01970681 -0.00399687 -0.03051678
v 0.01573090 0.00384302 -0.01288221
v 0.01905611 -0.00663516 -0.05937914
v 0.01170665 0.00322334 -0.01804271
v 0.01383053 -0.00264698 -0.04938247
v 0.01660972 -0.00608709 -0.06453285
v 0.00960192 -0.00189259 -0.03676636
v 0.00554533 -0.00815569 -0.04904609
v 0.01920073 -0.00924402 -0.07412546
v 0.00901048 -0.00864334 -0.06583147
v -0.00266482 -0.00834385 0.01704047
v -0.00497139 -0.00695927 0.01368351
v -0.00314399 -0.00986354 0.01655625
v -0.00290812 -0.00823525 0.01685907
v -0.00481035 -0.00817162 0.01294525
v -0.00403194 -0.01009464 0.01478942
v 0.01428840 -0.00228414 0.01958998
v 0.01057343 -0.00866935 0.01878795
v 0.01945139 -0.00478486 0.02177542
v 0.02294036 -0.00282453 0.02407286
v 0.01619368 -0.00597097 0.02012158
v 0.02547453 0.00063973 0.02407858
v 0.02602211 -0.00003567 0.02267777
v 0.02603022 -0.00146163 0.01937102
v 0.02301963 -0.00075304 0.02584861
v 0.01964676 0.00142761 0.02398429
v 0.02093795 -0.00245743 0.02407902
v 0.02499913 -0.00061795 0.02480663
v 0.02437580 -0.00196323 0.02405901
v 0.02108545 -0.00502973 0.02061746
v -0.00233835 -0.00859434 0.00887425
v -0.00334846 -0.00760872 0.00995497
v 0.02468085 -0.00345902 0.01935190
v 0.02525926 -0.00430185 0.01754779
v 0.02442266 -0.00687327 0.01674010
v 0.02443782 -0.00334528 0.01988510
v -0.00036162 -0.00563742 0.00256928
v 0.00195143 -0.00663697 -0.00010326
v 0.02494506 -0.00709703 0.01124295
v 0.02574570 -0.00226672 0.01577444
v 0.02534831 -0.00699708 0.01229002
v -0.00195227 -0.00526111 0.00623568
v 0.01123480 -0.00793167 -0.00396569
v 0.02536500 -0.00734018 0.01327184
v 0.02579198 -0.00613772 0.01188891
v 0.02537521 -0.00441231 0.00677016
v 0.02188914 -0.00325258 -0.00572960
v 0.02135732 -0.00604050 -0.00497776
v 0.00106376 -0.00353126 -0.00939737
v 0.02117760 -0.00421240 -0.01353667
v 0.02175919 -0.00410777 -0.00666931
v 0.02022412 -0.00632991 -0.00977192
v 0.00216336 -0.00542669 -0.01882771
v 0.00300640 -0.00676714 -0.03082017
v 0.02056980 -0.00371812 -0.01949479
v 0.02015985 -0.00654642 -0.02812193
v 0.01687065 -0.00920411 -0.03120525
v 0.01983731 -0.00645331 -0.03458838
v 0.01863428 -0.00856387 -0.03303288
v 0.00406690 -0.00913011 -0.04390108
v 0.00327589 -0.00811897 -0.03342238
v 0.00489515 -0.00758705 -0.00829408
v 0.00391054 -0.00719141 -0.01135286
v 0.00381351 -0.00853417 -0.02982777
v 0.00311629 -0.00785532 -0.03002126
v 0.01466693 -0.01138123 -0.04036045
v 0.01737339 -0.01150305 -0.04862390
v 0.00515845 -0.01064492 -0.05756849
v 0.00490122 -0.01146863 -0.05733689
v 0.00511385 -0.01198974 -0.06330933
v 0.01381677 -0.01052074 -0.03348354
v 0.01979308 -0.00947884 -0.05896942
v 0.00499018 -0.01344865 -0.06830341
v 0.00507154 -0.01358955 -0.07028691
v 0.00500504 -0.01460954 -0.07352627
v 0.00544625 -0.01389390 -0.07352605
v 0.00558681 -0.01217679 -0.05325394
v 0.00534554 -0.01422797 -0.06522349
v 0.00540922 -0.01260675 -0.05631782
v 0.00510448 -0.01304259 -0.06071653
v 0.01944095 -0.01060902 -0.07736843
v 0.01714452 -0.00924119 -0.08375926
v 0.01664183 -0.01620673 -0.10803821
v -0.00089523 -0.01193295 0.01646347
v 0.00056867 -0.01252076 0.01556951
v -0.00095069 -0.01188340 0.01413310
v -0.00006151 -0.01119812 0.01212802
v 0.00475887 -0.00922240 0.01873289
v 0.00598232 -0.01158791 0.01801041
v 0.00593801 -0.01194401 0.01724424
v 0.00853828 -0.00952884 0.01864063
v 0.01426579 -0.00715384 0.01950957
v 0.01161084 -0.00974871 0.01769819
v 0.02446618 -0.00755626 0.01253868
v 0.00098742 -0.00848076 0.00658223
v 0.00363154 -0.00789868 0.00288480
v 0.02365557 -0.00713145 0.00750855
v 0.00215316 -0.01232637 0.01389113
v 0.01488673 -0.01755314 -0.07092494
v 0.01897555 -0.01800501 -0.08236996
v 0.01915879 -0.01315944 -0.06591481
v 0.00451364 -0.01984168 -0.09318790
v 0.00497748 -0.01613455 -0.08013849
v 0.00480403 -0.01582909 -0.07747524
v 0.00435742 -0.01987544 -0.09240573
v 0.00484914 -0.01630898 -0.07992168
v 0.00461079 -0.01834993 -0.08740820
v 0.00511428 -0.01707170 -0.07835500
v 0.00484429 -0.02073205 -0.09217791
v 0.00458216 -0.02268537 -0.09980180
v 0.00434832 -0.02258109 -0.09974284
v 0.00445525 -0.02127730 -0.09850300
v 0.00400725 -0.02339345 -0.10502172
v 0.00376083 -0.02500887 -0.11559350
v 0.00392500 -0.02394626 -0.10776994
v 0.00377546 -0.02492954 -0.11360080
v 0.00341545 -0.02656445 -0.12185579
v 0.01760555 -0.01228690 -0.09265296
v 0.01636658 -0.01884885 -0.11705453
v 0.01893926 -0.01908758 -0.11086025
v 0.02006408 -0.02193381 -0.10917073
v 0.01905613 -0.02667645 -0.11713770
v 0.01937245 -0.02476861 -0.11046957
v 0.01981475 -0.02400881 -0.11422816
v 0.01035391 -0.01693572 -0.06882433
v 0.01697425 -0.02761466 -0.11424240
v 0.01223080 -0.01885128 -0.07689196
v 0.00415108 -0.02903190 -0.12013166
v 0.00990147 -0.03381086 -0.12805675
v 0.00393776 -0.03181639 -0.12812713
v 0.01375294 -0.02419350 -0.13457190
v 0.01053750 -0.02769394 -0.14569574
v 0.00494582 -0.02516194 -0.12460941
v 0.00835627 -0.02786802 -0.14211474
v 0.00603378 -0.03456687 -0.16258375
v 0.01180314 -0.03923178 -0.19501077
v 0.00250682 -0.04121731 -0.20253070
v 0.01002344 -0.03719682 -0.20056609
v 0.01303249 -0.03744694 -0.20018293
v 0.00607094 -0.03866763 -0.20453726
v 0.00360643 -0.04172546 -0.20669836
v 0.00827452 -0.03783754 -0.20505267
v 0.01117098 -0.03772480 -0.20470530
v 0.01780451 -0.03951398 -0.19927950
v 0.01282416 -0.03686220 -0.20189021
v 0.01817434 -0.03924447 -0.20315645
v 0.01745630 -0.04018942 -0.20498586
v 0.00378260 -0.03348952 -0.15212748
v 0.01767636 -0.03650972 -0.15165438
v 0.01907248 -0.02836291 -0.12703872
v 0.01882635 -0.02966700 -0.13021718
v 0.01820294 -0.03348092 -0.14214209
v 0.01620283 -0.02178744 -0.12571707
v 0.01585881 -0.03256206 -0.15607221
v 0.01009972 -0.03270992 -0.16214759
v 0.01236923 -0.03515871 -0.16712517
v 0.00960282 -0.03304228 -0.16351002
v 0.00697048 -0.03771669 -0.18148126
v 0.00435396 -0.04088187 -0.19634252
v 0.01455671 -0.04006313 -0.19472005
v 0.01397398 -0.04046610 -0.18747282
v 0.00081417 -0.04382648 -0.20453397
v 0.00183259 -0.04335475 -0.20571558
v 0.01825162 -0.04033652 -0.19868243
v 0.00572710 -0.04292157 -0.20714930
v 0.01571921 -0.04219699 -0.20575251
v 0.01995164 -0.04110495 -0.20016421
v 0.01945992 -0.04278141 -0.20474045
v 0.01651227 -0.04289179 -0.16749681
v 0.01583751 -0.03352937 -0.12782081
v 0.01028019 -0.04616675 -0.15279079
v 0.01473600 -0.04208998 -0.14702954
v 0.00227991 -0.04550336 -0.19522333
v 0.01687033 -0.04509362 -0.18812275
v 0.01940514 -0.04264891 -0.19737194
v 0.01801937 -0.04605589 -0.19288001
v 0.02004673 -0.04414148 -0.19775462
v 0.02105024 -0.04787532 -0.19772871
v 0.02170866 -0.04492410 -0.20020287
v 0.01458126 0.00861765 0.00583816
v -0.00213572 0.00486307 0.01003485
v -0.00224912 0.00642158 0.01345740
v -0.00307201 0.00447717 0.01550163
v -0.00287736 0.00140351 0.01411293
v -0.00338571 0.00536117 0.01335675
v -0.00350474 0.00568086 0.01297465
v -0.00336629 0.00541845 0.01443545
v 0.00353152 0.00546176 0.01754994
v -0.00180408 0.00616152 0.01525070
v 0.00775766 0.00752728 0.01768484
v 0.00370208 0.00667281 0.01450013
v 0.01050488 0.00684876 0.01997380
v 0.01579627 0.00319358 -0.01704387
v 0.01471479 0.00176024 -0.02680434
v 0.01587294 0.00074582 -0.02987561
v 0.01393258 0.00850797 0.00483211
v 0.01317021 0.00725138 0.00130301
v 0.02426650 0.00159058 0.02522419
v -0.00467552 -0.00700054 0.01536008
v -0.00160584 -0.00194249 0.01594751
v -0.00310971 -0.00191386 0.01489379
v 0.01676945 -0.00895916 -0.08274500
v 0.01336650 -0.01144923 -0.09130038
v -0.00472317 -0.00834139 0.01538663
v -0.00501233 -0.00866548 0.01441188
v -0.00484397 -0.00874832 0.01492916
v 0.00173897 -0.00600108 -0.00655015
v 0.02018260 -0.00630160 -0.01879958
v 0.02154483 -0.00626506 -0.00034917
v 0.02454540 -0.00618824 0.00478753
v 0.00370444 -0.00883932 -0.03826028
v 0.00441116 -0.01006226 -0.04768220
v 0.00481040 -0.01045255 -0.04747805
v 0.00463474 -0.01001396 -0.04271073
v 0.00589383 -0.01141701 -0.04837199
v 0.00494776 -0.01198407 -0.05599743
v 0.00475542 -0.01133492 -0.05517002
v 0.00511143 -0.01481432 -0.07096962
v 0.00488021 -0.01246411 -0.06095218
v 0.00493871 -0.01432140 -0.07093729
v 0.00505158 -0.01343675 -0.06408729
v 0.00516049 -0.01527023 -0.07232742
v 0.00496581 -0.01475465 -0.07243973
v 0.00818663 -0.01596616 -0.06849063
v 0.00538451 -0.01558042 -0.07237440
v 0.00502136 -0.01690596 -0.07837580
v 0.00445513 -0.02021615 -0.09283435
v 0.00487679 -0.01874031 -0.08529136
v 0.00491799 -0.01665945 -0.07843502
v 0.00461678 -0.02225765 -0.09855468
v 0.00433350 -0.02182353 -0.09878879
v 0.00474025 -0.02060539 -0.09238684
v 0.00459141 -0.02042227 -0.09266175
v 0.00413239 -0.02258435 -0.10076138
v 0.00417057 -0.02215809 -0.10054864
v 0.00402133 -0.02323908 -0.10530391
v 0.00430408 -0.02228266 -0.09973019
v 0.00374030 -0.02495474 -0.11592552
v 0.00406028 -0.02281344 -0.10484348
v 0.00390997 -0.02404146 -0.11058129
v 0.00404497 -0.02298187 -0.10499659
v 0.00475004 -0.01629215 -0.07886077
v 0.00438119 -0.02005537 -0.09293155
v 0.00482003 -0.01644099 -0.07867180
v 0.00463004 -0.01833984 -0.08580302
v 0.00854009 -0.03049304 -0.11944949
v 0.00556225 -0.02426252 -0.10331730
v 0.01356431 -0.03041075 -0.12042984
v 0.00802017 -0.02477743 -0.10444235
v 0.00507746 -0.02264804 -0.09877079
v 0.00795811 -0.03091115 -0.12179930
v 0.00857275 -0.03089407 -0.12080479
v 0.00529512 -0.02488479 -0.10592322
v 0.00739404 -0.02838166 -0.11422501
v 0.00559911 -0.02617331 -0.10975910
v 0.00591389 -0.02530038 -0.10625926
v 0.00568617 -0.02520930 -0.10635225
v 0.00425507 -0.02577820 -0.11132394
v 0.00295170 -0.03114461 -0.13151237
v 0.00286716 -0.02818538 -0.12365960
v 0.00168765 -0.04238713 -0.18103640
v 0.00280738 -0.03963582 -0.15943779
v 0.00332644 -0.04181900 -0.19601521
v 0.00256502 -0.03911611 -0.17861508
v 0.01292862 -0.03833903 -0.20514653
v 0.01260333 -0.03919409 -0.20630166
v 0.01944873 -0.02543469 -0.12043206
v 0.01896266 -0.01963319 -0.11230799
v 0.01558973 -0.03708748 -0.16894639
v 0.01615145 -0.04025439 -0.17301227
v 0.00268225 -0.04723743 -0.20618159
v 0.01965685 -0.04131220 -0.20350573
v 0.00762980 -0.04988078 -0.16314127
v 0.00338047 -0.03888246 -0.15104051
v 0.00033556 -0.04763819 -0.20317076
v 0.00030361 -0.04678535 -0.20178370
v 0.00043491 -0.04787734 -0.20150103
v 0.00054848 -0.04904878 -0.20123713
v 0.00054704 -0.04904207 -0.20125462
v 0.00102396 -0.04340291 -0.20145446
v 0.00098319 -0.04946782 -0.19946922
v 0.00203912 -0.04851740 -0.19480889
v 0.00159554 -0.04902150 -0.19680355
v 0.00075458 -0.04994815 -0.20051502
v 0.00113948 -0.04954398 -0.19882204
v 0.00110367 -0.04956391 -0.19897690
v 0.00111894 -0.04954579 -0.19890907
v 0.01504657 -0.04715499 -0.16194168
v 0.01425317 -0.04979735 -0.16371752
v 0.01454770 -0.04592960 -0.15651528
v 0.00420491 -0.04865991 -0.18248340
v 0.00642753 -0.04966407 -0.16638926
v 0.00378007 -0.04219881 -0.16055164
v 0.01653332 -0.04478713 -0.18599509
v 0.01598270 -0.04743935 -0.18087789
v 0.01658868 -0.04466195 -0.18546711
v 0.01554023 -0.04976682 -0.17929347
v 0.01558866 -0.04988004 -0.18205433
v 0.01556741 -0.04993745 -0.18136153
v 0.01555164 -0.04992621 -0.18073216
v 0.01544355 -0.05003555 -0.17734127
v 0.01553443 -0.04999086 -0.18046895
v 0.01548770 -0.04999215 -0.17871495
v 0.01553737 -0.04994618 -0.18028851
v 0.01583709 -0.04394626 -0.15873381
v 0.01532887 -0.04971232 -0.17116743
v 0.01600396 -0.04607003 -0.16985014
v 0.00244125 -0.04795893 -0.19279705
v 0.00472625 -0.04996245 -0.18882819
v 0.01566078 -0.04969570 -0.18292801
v 0.01672880 -0.04874266 -0.18874731
v 0.01755548 -0.04779125 -0.19209194
v 0.01715250 -0.04855750 -0.19208153
v 0.00029409 -0.04698036 -0.20395748
v 0.01817814 -0.04858423 -0.19387376
v 0.01766485 -0.04906994 -0.19346733
v 0.01670585 -0.04994381 -0.19267145
v 0.01946614 -0.04992794 -0.19645111
v 0.02002243 -0.04993811 -0.19729517
v 0.01861783 -0.04802980 -0.19414620
v 0.00575804 -0.04505182 -0.20673653
v 0.00445544 -0.04429862 -0.20696670
v 0.00538058 -0.04992590 -0.20544612
v 0.00456612 -0.04889199 -0.20579044
v 0.00884259 -0.04280537 -0.20677673
v 0.00650679 -0.04684565 -0.20614573
v 0.01952173 -0.04915165 -0.20388015
v 0.02121549 -0.04847613 -0.19853903
v 0.02137841 -0.04866863 -0.20100829
v 0.02140119 -0.04891559 -0.20189305
v 0.02057119 -0.04693397 -0.20383901
v 0.02034975 -0.04963407 -0.20308104
v 0.02037561 -0.04997929 -0.20286528
v 0.01100235 -0.04718443 -0.15539019
v 0.01443173 -0.04528340 -0.15428440
v 0.01420525 -0.04777570 -0.15899730
v 0.01252561 -0.04692067 -0.15604849
v 0.00440831 -0.04926430 -0.18450163
v 0.00455336 -0.04937124 -0.18323842
v 0.00522583 -0.04995934 -0.17983208
v 0.00440563 -0.04926430 -0.18635098
v 0.00453885 -0.04937996 -0.18476383
v 0.00453690 -0.04937134 -0.18563747
v 0.00518126 -0.04995934 -0.18463060
v 0.00414781 -0.04909831 -0.18658093
v 0.00442487 -0.04935603 -0.18693576
v 0.00492168 -0.04994278 -0.18796314
v 0.00452551 -0.04937996 -0.18685186
v 0.01563845 -0.04981712 -0.18341084
v 0.01572617 -0.04987081 -0.18448924
v 0.01565910 -0.04986726 -0.18402222
v 0.01558084 -0.04998521 -0.18440348
v 0.01557235 -0.04981712 -0.18301196
v 0.01556044 -0.04987081 -0.18337665
v 0.01552505 -0.04986727 -0.18319483
v 0.00211410 -0.04954780 -0.19593036
v 0.00196088 -0.04899042 -0.19570670
v 0.00395003 -0.04954780 -0.19232772
v 0.00323400 -0.04900810 -0.19294075
v 0.00317210 -0.04954780 -0.19376858
v 0.00264472 -0.04900686 -0.19406656
v 0.00064354 -0.04990038 -0.20178908
v 0.00045804 -0.04848705 -0.20295697
v 0.00242811 -0.04945429 -0.20518363
v 0.00335506 -0.04986304 -0.20524643
v 0.00291209 -0.04878309 -0.20566573
v 0.00049740 -0.04780511 -0.20388767
v 0.00063470 -0.04931677 -0.20325886
v 0.00060372 -0.04846276 -0.20369378
v 0.00094194 -0.04989071 -0.20346788
v 0.00364645 -0.04945429 -0.20552170
v 0.00367724 -0.04877890 -0.20582278
v 0.00440105 -0.04991275 -0.20539476
v 0.01702699 -0.04969916 -0.19298458
v 0.01862023 -0.04814955 -0.19423400
v 0.01789970 -0.04902432 -0.19386861
v 0.01733374 -0.04994497 -0.19388334
v 0.01734643 -0.04953332 -0.19340710
v 0.01751839 -0.04957314 -0.19379172
v 0.02091068 -0.04953728 -0.19874091
v 0.02092699 -0.04896925 -0.19825411
v 0.01792810 -0.04981615 -0.19452261
v 0.01874501 -0.04958197 -0.19521759
v 0.01843439 -0.04903230 -0.19455179
v 0.01015356 -0.04824905 -0.20519821
v 0.01302099 -0.04617096 -0.20534150
v 0.01570332 -0.04436567 -0.20541362
v 0.01538946 -0.04611070 -0.20514438
v 0.01595581 -0.04963988 -0.20445942
v 0.01438358 -0.04976952 -0.20462231
v 0.01980203 -0.04945719 -0.20377617
v 0.01926093 -0.04997500 -0.20377426
v 0.01965211 -0.04961485 -0.20375107
v 0.02156141 -0.04820187 -0.20224474
v 0.02129257 -0.04912136 -0.20207292
v 0.01976233 -0.04982829 -0.20361508
v 0.01988654 -0.04961409 -0.20362835
v 0.01015582 -0.04912368 -0.15913355
v 0.00979582 -0.04803723 -0.15711790
v 0.01034015 -0.04937140 -0.15960430
v 0.01203402 -0.04912368 -0.15994658
v 0.01092577 -0.04805411 -0.15711663
v 0.01572244 -0.04427459 -0.15885262
v 0.01510793 -0.04983189 -0.16925451
v 0.01526837 -0.04726352 -0.16367426
v 0.01539070 -0.04994067 -0.18294659
v 0.01539717 -0.04999055 -0.18271230
v 0.01549837 -0.04988206 -0.18280932
v 0.01556685 -0.04995764 -0.18158875
v 0.01552058 -0.04994067 -0.18243478
v 0.01557639 -0.04987321 -0.18237263
vn -0.408641 0.889454 -0.204656
vn -0.975770 0.023314 -0.217555
vn 0.608517 0.776840 -0.161946
vn -0.557346 -0.065442 0.827697
vn -0.994269 0.100049 -0.037669
vn -0.899967 0.414955 -0.133685
vn 0.740854 0.664334 -0.098975
vn -0.045723 0.980033 -0.193506
vn -0.602949 0.775541 -0.187051
vn 0.019039 -0.644612 0.764273
vn -0.467667 -0.785981 -0.404377
vn 0.113756 -0.993251 -0.022617
vn -0.625911 -0.776992 0.067227
vn -0.951955 0.292642 -0.090238
vn -0.714015 0.683921 -0.149784
vn -0.986016 0.162957 -0.034900
vn -0.935884 0.345595 -0.068443
vn -0.923477 -0.371636 0.095269
vn -0.041749 0.959126 -0.279883
vn 0.126869 -0.956906 -0.261219
vn -0.992118 0.123142 0.023190
vn -0.938072 0.344978 -0.031794
vn -0.747312 0.654378 -0.115388
vn -0.980819 0.184873 -0.061777
vn -0.032143 -0.934493 0.354527
vn -0.760573 0.642720 -0.091866
vn -0.405964 0.912039 0.058120
vn -0.194919 0.959753 0.202192
vn -0.529209 0.071757 -0.845452
vn 0.999587 -0.010031 -0.026924
vn 0.356730 0.895722 -0.265377
vn -0.997132 0.062327 0.042938
vn -0.929945 0.173533 0.324174
vn 0.103212 -0.178698 -0.978475
vn 0.918880 0.285990 -0.271788
vn 0.879619 -0.244494 0.408035
vn 0.413237 0.880713 0.231471
vn -0.840673 0.501857 0.203491
vn 0.146135 0.618512 0.772067
vn 0.196178 -0.199327 0.960095
vn 0.745718 0.132681 0.652916
vn 0.622648 -0.770638 -0.135741
vn -0.960377 -0.276479 0.035138
vn -0.956351 -0.274144 0.101181
vn -0.425607 -0.867720 0.256751
vn -0.389660 -0.875772 0.284937
vn -0.851525 -0.487222 0.193701
vn -0.615407 -0.678837 0.400568
vn 0.976715 -0.206637 0.057691
vn -0.881711 -0.456404 0.119501
vn -0.668023 -0.211375 -0.713489
vn 0.866584 -0.225391 0.445231
vn 0.056460 -0.228632 -0.971874
vn 0.169130 -0.232847 -0.957694
vn 0.766813 -0.234102 -0.597657
vn -0.664886 -0.746926 0.005226
vn -0.745094 -0.527058 0.408711
vn 0.941247 -0.325732 -0.089177
vn 0.568186 -0.385755 -0.726882
vn -0.579684 0.782184 -0.228374
vn -0.265310 0.135650 0.954573
vn -0.132224 0.867245 0.480003
vn 0.635147 0.725074 0.266188
vn 0.965816 0.255219 -0.045413
vn -0.022526 0.145759 0.989064
vn -0.115721 -0.643902 0.756306
vn -0.929927 0.069495 -0.361118
vn -0.489807 -0.778140 -0.393176
vn -0.980588 0.026201 -0.194322
vn 0.915458 0.347922 -0.202204
vn 0.929054 -0.280567 -0.241124
vn 0.980845 -0.188511 -0.049060
vn 0.830177 -0.548717 0.098566
vn -0.969464 0.223217 -0.101559
vn -0.983458 0.176270 -0.041698
vn -0.847332 0.516440 -0.123767
vn -0.777527 -0.617556 0.118647
vn -0.906695 -0.415067 0.074992
vn 0.602476 -0.779794 0.170130
vn -0.190058 -0.127389 0.973473
vn 0.227423 -0.844170 0.485443
vn 0.266113 -0.903818 0.335107
vn -0.674804 0.714649 -0.184165
vn -0.855003 0.506513 -0.111418
vn -0.863486 -0.483251 0.144430
vn -0.990294 0.138982 0.001506
vn -0.837784 -0.512541 0.188200
vn 0.857263 -0.493361 0.147292
vn -0.204995 0.976700 -0.063521
vn -0.087535 0.945784 0.312778
vn 0.960956 -0.274345 0.036020
vn 0.663404 0.703456 -0.255040
vn 0.406887 0.885352 -0.224933
vn -0.717975 0.657094 -0.229652
vn -0.814570 -0.038705 -0.578773
vn 0.766715 0.560405 0.313202
vn 0.113388 0.092233 -0.989260
vn -0.968957 0.090237 0.230175
vn -0.824916 0.481089 0.296761
vn -0.454540 0.871746 0.182900
vn 0.458472 0.873634 -0.162996
vn 0.238143 0.954222 -0.180964
vn 0.528383 -0.343974 0.776204
vn -0.963356 0.264270 0.045898
vn -0.959126 0.213473 0.185761
vn 0.980477 -0.158009 -0.117035
vn -0.909340 -0.409965 0.070928
vn -0.939960 -0.324407 0.106000
vn -0.906481 -0.402545 0.127473
vn -0.863949 -0.478718 0.156272
vn -0.996954 0.071341 0.031517
vn -0.997751 0.065407 0.014675
vn -0.946445 -0.304846 0.106355
vn -0.445500 -0.859727 0.249797
vn 0.065742 -0.930607 0.360067
vn -0.421736 -0.869101 0.258462
vn -0.668829 -0.712666 0.211602
vn -0.991445 -0.125741 0.035015
vn 0.971413 0.205789 -0.118350
vn -0.613840 -0.679984 0.401027
vn -0.989130 -0.117485 -0.088425
vn -0.995765 -0.072030 0.057129
vn -0.965841 0.068658 0.249874
vn -0.692052 -0.640172 0.333532
vn -0.972772 -0.034045 0.229250
vn 0.992930 -0.072879 0.093689
vn 0.999473 -0.000818 0.032465
vn 0.984146 -0.175441 0.026035
vn 0.960356 -0.222398 0.168093
vn 0.164366 -0.243764 -0.955805
vn 0.209969 -0.144149 -0.967023
vn 0.537802 -0.836435 0.105570
vn -0.888195 -0.349008 0.298837
vn -0.945358 -0.235413 0.225562
vn -0.743843 -0.529621 0.407676
vn -0.755548 -0.530136 0.384841
vn -0.756698 -0.527909 0.385643
vn -0.987644 -0.150541 -0.043560
vn -0.539517 -0.232446 -0.809253
vn -0.095011 -0.407827 -0.908103
vn 0.852415 -0.347533 0.390654
vn 0.663017 -0.351798 0.660793
vn 0.069668 -0.160762 -0.984531
vn 0.146352 -0.225779 -0.963123
vn 0.870466 -0.365495 -0.329701
vn 0.443187 -0.179617 -0.878250
vn -0.313084 -0.857367 0.408535
vn 0.007691 -0.902072 0.431518
vn 0.921604 -0.362337 0.139136
vn 0.888220 -0.452166 0.081302
vn -0.518373 0.854312 0.037959
vn -0.668511 0.718670 0.191329
vn -0.204796 0.766176 0.609124
vn -0.840181 0.502699 0.203445
vn -0.340679 0.905601 -0.252636
vn -0.328616 0.429763 0.841020
vn -0.215043 -0.038412 0.975849
vn -0.297275 0.345143 0.890227
vn -0.284659 0.958546 0.012565
vn -0.257816 -0.208224 0.943490
vn 0.077807 0.680132 0.728948
vn 0.472164 0.762455 0.442406
vn -0.330028 0.922266 -0.201264
vn 0.715819 0.697245 -0.038109
vn 0.600338 0.797590 -0.058694
vn -0.804844 0.590112 0.063196
vn -0.653785 0.751386 -0.089356
vn -0.502053 0.845221 -0.183150
vn 0.044731 0.580723 0.812872
vn -0.099285 0.228956 0.968360
vn -0.971922 0.116165 -0.204630
vn -0.329472 -0.213336 0.919748
vn -0.357694 0.161263 0.919809
vn -0.237197 -0.198469 0.950972
vn -0.177049 -0.077543 0.981142
vn -0.313906 -0.183023 0.931647
vn -0.389433 -0.038466 0.920251
vn 0.302354 0.824789 0.477813
vn 0.154060 0.942421 0.296830
vn -0.108003 0.869118 0.482669
vn -0.421370 0.033017 0.906287
vn -0.095141 0.731708 0.674946
vn 0.334054 0.925969 0.176038
vn -0.438094 0.693907 0.571461
vn -0.547631 0.443081 0.709774
vn -0.330387 0.715884 0.615106
vn 0.130615 0.835537 0.533684
vn 0.628035 0.756587 0.182069
vn 0.846376 0.323405 0.423151
vn 0.732544 0.626053 0.267275
vn 0.930367 0.299245 0.211823
vn 0.438247 0.888244 0.137700
vn 0.283131 0.844400 0.454781
vn 0.543737 0.827342 -0.140909
vn 0.466947 0.883634 0.033924
vn 0.898607 0.401513 -0.176896
vn -0.858643 0.424193 -0.287738
vn 0.751989 0.638451 -0.163989
vn 0.693264 0.703970 -0.154309
vn -0.777865 0.591008 -0.213624
vn -0.786397 0.594769 -0.166822
vn 0.693588 0.706173 -0.142318
vn 0.823056 0.563412 -0.071735
vn 0.759911 0.636423 -0.132290
vn 0.820356 0.567375 -0.071419
vn 0.880135 0.469576 -0.069713
vn -0.167142 0.963735 -0.208035
vn -0.303646 0.933310 -0.191657
vn 0.459437 0.874733 -0.154141
vn -0.468363 0.863084 -0.189004
vn -0.743183 0.647128 -0.170012
vn 0.807317 0.574900 -0.133146
vn -0.610336 0.771370 -0.180217
vn -0.253692 0.122997 0.959433
vn -0.963390 0.176026 -0.202224
vn -0.529663 -0.387316 0.754615
vn -0.561888 0.171305 0.809282
vn -0.841004 -0.376609 -0.388431
vn -0.623461 -0.777072 -0.086342
vn -0.339901 -0.057191 0.938721
vn -0.064226 -0.175585 0.982367
vn 0.031188 -0.757626 0.651943
vn 0.199388 -0.769413 0.606834
vn -0.268663 -0.103420 0.957666
vn 0.872173 0.051139 0.486516
vn 0.944405 -0.277870 0.175749
vn 0.958651 -0.276436 0.067617
vn -0.029815 -0.478555 0.877551
vn -0.623061 -0.071146 0.778931
vn -0.525794 -0.230517 0.818781
vn 0.779298 -0.436626 0.449503
vn 0.656491 -0.702264 0.275398
vn 0.418203 -0.747000 0.516814
vn -0.569077 -0.678601 -0.464383
vn -0.898101 -0.160002 -0.409650
vn 0.735599 -0.495914 0.461480
vn 0.928302 -0.298440 0.221787
vn 0.515296 -0.688819 0.509900
vn 0.600927 -0.669601 0.436487
vn -0.839233 -0.478994 -0.257398
vn -0.502090 -0.847324 -0.173056
vn 0.457144 -0.878756 -0.137143
vn 0.996284 -0.081140 0.028898
vn 0.605589 -0.774565 -0.182515
vn -0.964201 0.019366 -0.264466
vn 0.080875 -0.994645 0.064354
vn 0.466316 -0.850325 0.243921
vn 0.998376 -0.044827 -0.035150
vn 0.974416 0.100306 -0.201128
vn 0.881210 0.424345 -0.208326
vn 0.473191 -0.870905 -0.132724
vn -0.987797 -0.085056 -0.130472
vn 0.995082 0.019335 -0.097147
vn 0.914341 -0.356601 -0.191875
vn 0.333900 -0.940827 0.057922
vn -0.965628 -0.256457 -0.042332
vn -0.986112 0.132578 -0.100032
vn 0.955542 0.282254 -0.085271
vn 0.969160 -0.243901 -0.035230
vn 0.373449 -0.922167 0.100722
vn 0.911240 -0.411700 0.012059
vn 0.688213 -0.724286 0.042104
vn -0.993156 0.057044 -0.101913
vn -0.992227 -0.109771 -0.058620
vn -0.142280 -0.987342 0.070092
vn -0.491826 -0.870651 0.008553
vn -0.617755 -0.784210 0.058256
vn -0.779923 -0.625756 0.012228
vn 0.099939 -0.976575 0.190562
vn 0.630233 -0.767408 0.117863
vn -0.755532 0.636783 -0.153880
vn -0.958300 0.274234 -0.080356
vn -0.757849 0.637597 -0.138328
vn -0.016034 -0.992845 0.118326
vn 0.999934 0.009126 -0.006990
vn -0.970522 0.235278 -0.052256
vn -0.921384 0.376734 -0.095513
vn -0.857855 0.499800 -0.119521
vn -0.674318 0.715566 -0.182376
vn -0.712123 -0.691660 0.120366
vn -0.809082 -0.577297 0.110067
vn -0.763246 -0.634308 0.122922
vn -0.837522 -0.537577 0.097812
vn 0.999471 -0.028918 0.014896
vn 0.586840 0.794636 -0.155477
vn 0.624111 0.746146 -0.231844
vn -0.285217 -0.799510 0.528616
vn -0.159646 -0.984638 0.070713
vn -0.364261 -0.897696 -0.247902
vn -0.166977 -0.882148 -0.440379
vn -0.168755 0.205277 0.964045
vn 0.083096 -0.512875 0.854432
vn 0.186616 -0.978205 0.091050
vn 0.089899 -0.386013 0.918102
vn 0.022802 -0.480726 0.876575
vn 0.286442 -0.927256 0.241136
vn 0.196145 -0.971457 -0.133413
vn -0.154534 -0.893662 -0.421292
vn -0.019431 -0.986677 -0.161525
vn 0.140422 -0.970322 -0.196867
vn 0.044143 -0.943352 -0.328845
vn 0.417381 -0.885577 0.203829
vn 0.836818 -0.527420 0.146848
vn 0.912254 -0.399581 0.090153
vn -0.674659 0.714633 -0.184757
vn -0.830582 0.542799 -0.124514
vn -0.845714 0.520624 -0.117126
vn -0.828490 0.544978 -0.128853
vn -0.852019 0.511051 -0.113534
vn -0.822438 0.554434 -0.127276
vn -0.868038 -0.475713 0.142154
vn -0.912009 -0.390692 0.124899
vn -0.936678 -0.301894 0.177469
vn -0.930924 -0.146562 0.334515
vn -0.699785 0.702849 -0.127690
vn -0.989046 0.147608 0.000318
vn -0.970287 0.241427 -0.015986
vn -0.973749 0.227170 -0.014366
vn -0.943989 0.328908 -0.026552
vn -0.837816 0.531434 -0.125071
vn 0.731009 0.655460 -0.189733
vn 0.539352 0.797364 -0.270758
vn 0.821401 0.545766 -0.165651
vn 0.999128 0.040969 -0.008007
vn 0.666681 -0.719962 0.192850
vn 0.932349 -0.350284 0.089590
vn 0.979795 -0.199086 0.019143
vn -0.271719 -0.936573 0.221359
vn 0.194993 -0.941638 0.274399
vn -0.051842 -0.974968 0.216219
vn -0.355037 -0.879915 0.315750
vn -0.233963 -0.881917 0.409248
vn -0.564370 -0.767118 0.304987
vn -0.016975 0.956605 -0.290893
vn -0.245390 0.931827 -0.267360
vn -0.618828 0.765538 -0.176076
vn -0.490777 0.840541 -0.229410
vn -0.417875 0.891726 -0.173798
vn 0.200237 0.975031 0.096019
vn -0.595707 0.794130 0.120377
vn -0.269579 0.927160 0.260196
vn 0.250322 0.903341 0.348302
vn -0.522902 0.834190 -0.175218
vn -0.211260 0.420336 -0.882432
vn -0.155587 0.702951 -0.694012
vn 0.081718 0.890095 -0.448389
vn 0.444758 0.834362 0.325623
vn 0.218086 0.975922 0.003757
vn 0.587427 0.775884 -0.230071
vn 0.430668 0.494615 -0.754905
vn -0.785772 0.597529 -0.159752
vn 0.993286 -0.114121 -0.018948
vn 0.996723 -0.073892 -0.032898
vn 0.960667 -0.275194 0.037259
vn 0.996185 -0.082232 -0.029199
vn 0.445761 0.843374 -0.300027
vn 0.366316 0.877697 -0.308966
vn 0.200164 0.928269 -0.313451
vn 0.295548 0.910599 -0.288897
vn -0.322962 0.915962 -0.238134
vn -0.086614 0.981518 -0.170645
vn -0.551532 0.832473 0.052928
vn 0.567220 0.785537 0.247375
vn 0.660557 0.750772 -0.002458
vn -0.885638 0.427578 -0.181172
vn -0.753695 0.438812 -0.489273
vn 0.640013 0.590081 0.492126
vn -0.066281 0.178942 -0.981624
vn 0.226865 -0.102603 -0.968507
vn 0.783129 0.575679 0.235167
vn 0.461780 0.140467 -0.875801
vn 0.968171 -0.246831 0.041462
vn 0.564840 -0.770550 0.295312
vn -0.228888 -0.889927 0.394513
vn 0.554800 -0.771216 0.312125
vn -0.978258 0.207207 0.008699
vn 0.969576 0.189350 0.155139
vn 0.816447 0.343049 0.464469
vn 0.925359 0.142007 0.351490
vn 0.837063 0.229581 0.496606
vn 0.862487 0.159716 0.480216
vn 0.960433 0.259623 0.100821
vn 0.635615 0.740313 -0.218928
vn -0.762327 0.396320 -0.511652
vn -0.140413 0.974273 -0.176287
vn -0.858193 -0.127459 0.497252
vn -0.905715 -0.302896 0.296538
vn -0.939400 0.341767 -0.026887
vn -0.843963 0.508314 0.171298
vn -0.840470 0.502204 0.203472
vn -0.210941 0.892893 0.397802
vn -0.089245 0.928200 0.361220
vn -0.292191 0.844051 0.449668
vn -0.190539 0.977261 0.093042
vn -0.337000 0.710629 0.617606
vn 0.420377 0.890498 -0.174060
vn 0.016355 0.980750 -0.194584
vn 0.410547 0.896323 -0.167498
vn 0.066570 0.972549 -0.222972
vn -0.032851 0.974507 -0.221937
vn 0.430280 0.449379 0.782890
vn -0.561335 0.195402 0.804190
vn -0.231976 0.117741 0.965569
vn -0.549353 0.268327 0.791336
vn -0.083267 0.965223 -0.247811
vn -0.249799 0.940056 -0.232155
vn -0.958278 -0.004589 0.285802
vn -0.979067 -0.203125 -0.012982
vn -0.787181 -0.480701 0.386358
vn -0.772970 -0.632574 -0.048653
vn 0.839672 -0.543073 -0.004699
vn 0.116562 -0.987325 -0.107719
vn 0.452158 -0.878098 -0.156518
vn -0.728835 -0.683944 0.031938
vn -0.776610 -0.627884 0.051354
vn -0.716853 -0.691936 0.085709
vn -0.710418 -0.702860 0.035984
vn -0.117834 -0.985507 0.122032
vn -0.814966 -0.572662 0.088818
vn -0.955412 -0.295126 0.009442
vn -0.938070 -0.340326 0.064832
vn -0.908288 -0.411035 0.077871
vn -0.914267 -0.397728 0.076995
vn -0.938953 -0.339479 0.055871
vn -0.943764 -0.314427 0.102206
vn -0.917997 -0.379709 0.114467
vn -0.248759 -0.948417 0.196529
vn -0.307974 -0.928475 0.207571
vn -0.912781 -0.389298 0.123606
vn -0.909009 -0.397143 0.126411
vn -0.868707 -0.474322 0.142716
vn -0.935660 -0.334340 0.112944
vn -0.895538 -0.420250 0.146293
vn -0.894141 -0.423886 0.144337
vn -0.865587 -0.479564 0.144144
vn -0.868288 -0.474914 0.143292
vn -0.997749 0.039901 0.053895
vn -0.998709 0.007809 0.050202
vn -0.996216 0.086381 0.009627
vn -0.914770 -0.329472 0.233762
vn -0.997845 -0.056257 0.033782
vn -0.996798 0.079032 0.012171
vn -0.998368 0.054633 0.016644
vn -0.996842 0.078606 0.011255
vn -0.909118 -0.396942 0.126263
vn -0.934464 -0.337501 0.113443
vn -0.944782 -0.309780 0.106878
vn -0.940061 -0.322680 0.110289
vn -0.465089 -0.851401 0.242506
vn -0.444715 -0.860006 0.250237
vn 0.005803 -0.914186 0.405253
vn -0.116607 -0.957842 0.262568
vn -0.124288 -0.948431 0.291601
vn -0.349769 -0.888919 0.295778
vn -0.422530 -0.868786 0.258224
vn -0.420436 -0.869723 0.258488
vn -0.447659 -0.858927 0.248689
vn -0.417508 -0.870556 0.260421
vn -0.445491 -0.859703 0.249896
vn -0.441613 -0.861287 0.251324
vn -0.663340 -0.702495 0.257839
vn -0.877175 -0.454264 0.155590
vn -0.933426 -0.334120 0.130687
vn -0.994972 -0.089229 0.045488
vn -0.981630 -0.175891 0.073928
vn -0.642030 0.759774 -0.102670
vn -0.959028 0.277154 -0.058751
vn 0.284180 0.841685 -0.459139
vn 0.120730 0.435400 -0.892105
vn 0.962032 0.238974 -0.131853
vn 0.880429 0.436648 -0.184886
vn 0.947349 0.286375 -0.143243
vn 0.946883 0.299792 -0.116347
vn -0.502911 -0.088570 -0.859788
vn 0.814641 0.298087 -0.497497
vn -0.654865 -0.659358 0.369323
vn -0.667361 -0.687664 0.285916
vn -0.997541 -0.067861 0.017516
vn -0.997299 -0.068862 0.025554
vn -0.994281 -0.106776 0.002030
vn -0.995185 -0.084637 0.049440
vn -0.995690 -0.089138 0.025609
vn -0.897391 0.395651 0.195320
vn -0.971635 -0.036537 0.233647
vn -0.973382 -0.030461 0.227156
vn -0.973377 -0.033197 0.226795
vn -0.972116 -0.040290 0.231013
vn -0.972339 -0.039116 0.230277
vn -0.972876 -0.032772 0.228994
vn -0.969481 -0.065250 0.236325
vn 0.904000 -0.391609 0.171542
vn 0.911165 -0.377386 0.165403
vn 0.853528 -0.495043 0.162549
vn -0.913668 -0.394358 0.098449
vn -0.909518 -0.402797 0.102623
vn -0.911199 -0.399276 0.101469
vn 0.948939 0.311331 0.050865
vn 0.982650 -0.184588 0.018039
vn 0.981455 0.181513 -0.061634
vn 0.982067 -0.182781 0.046221
vn 0.938714 -0.344698 0.000088
vn 0.985956 -0.164927 0.026260
vn 0.981223 -0.191081 0.026252
vn 0.985563 -0.167333 0.025782
vn 0.984983 -0.170651 0.026204
vn 0.986472 -0.161816 0.026237
vn 0.987394 -0.156018 0.026680
vn 0.943776 -0.324138 0.064969
vn 0.977720 -0.201943 0.057299
vn 0.976859 -0.206337 0.056314
vn -0.950421 -0.298280 0.087917
vn -0.726452 -0.683296 0.073308
vn 0.980752 -0.117044 0.156287
vn 0.883143 -0.461114 0.086210
vn 0.885430 -0.456748 0.085998
vn 0.884535 -0.458298 0.086951
vn -0.891888 -0.159614 -0.423154
vn 0.765064 -0.337135 0.548650
vn 0.763112 -0.340772 0.549121
vn 0.777623 -0.408619 0.477843
vn 0.790296 -0.297352 0.535737
vn 0.803150 -0.278199 0.526836
vn 0.826806 -0.233188 0.511874
vn 0.047507 -0.247676 -0.967677
vn -0.146244 -0.112853 -0.982790
vn 0.082888 -0.255490 -0.963252
vn 0.072876 -0.248982 -0.965762
vn 0.155610 -0.173748 -0.972418
vn 0.164440 -0.244074 -0.955713
vn 0.251904 -0.123484 -0.959842
vn 0.991524 -0.106940 0.073783
vn 0.990150 -0.111906 0.084147
vn 0.979208 -0.187458 0.077534
vn 0.550081 -0.054952 -0.833301
vn 0.743770 -0.246439 -0.621348
vn 0.757352 -0.304342 -0.577749
vn 0.305909 -0.852426 0.424017
vn 0.397833 -0.835842 0.378282
vn 0.327479 -0.841126 0.430424
vn 0.329356 -0.842316 0.426648
vn -0.703942 -0.709955 0.020721
vn -0.687390 -0.726185 0.012253
vn -0.695319 -0.718580 0.013205
vn -0.671088 -0.741276 0.012254
vn -0.660014 -0.751230 -0.005934
vn -0.669981 -0.742375 0.002137
vn -0.676741 -0.736214 0.003154
vn -0.442343 -0.853742 0.274696
vn -0.439194 -0.854827 0.276369
vn -0.439777 -0.854799 0.275527
vn -0.435874 -0.855741 0.278786
vn 0.646485 -0.758286 0.084021
vn 0.622807 -0.776543 0.095352
vn 0.648383 -0.755931 0.090377
vn 0.668514 -0.738095 0.091127
vn 0.504945 -0.856818 0.104369
vn 0.519483 -0.846353 0.117574
vn 0.518690 -0.848125 0.107915
vn -0.880433 -0.363975 0.303909
vn -0.884477 -0.355476 0.302220
vn -0.745570 -0.529462 0.404716
vn -0.745048 -0.528524 0.406897
vn -0.757936 -0.527632 0.383584
vn -0.756979 -0.528224 0.384658
vn -0.993175 -0.115181 0.018362
vn -0.992131 -0.124925 -0.008342
vn -0.257742 -0.434154 -0.863180
vn -0.242537 -0.435972 -0.866663
vn -0.249813 -0.433472 -0.865849
vn -0.836356 -0.275020 -0.474207
vn -0.833950 -0.274154 -0.478923
vn -0.835634 -0.273944 -0.476099
vn -0.836970 -0.273253 -0.474146
vn -0.088073 -0.402223 -0.911296
vn -0.092464 -0.404160 -0.910003
vn -0.095655 -0.404414 -0.909560
vn 0.779918 -0.480518 0.401036
vn 0.773648 -0.468664 0.426406
vn 0.780988 -0.480536 0.398927
vn 0.780467 -0.484852 0.394703
vn 0.779395 -0.479357 0.403437
vn 0.781786 -0.486831 0.389622
vn 0.858454 -0.347745 0.377001
vn 0.857081 -0.345296 0.382339
vn 0.647265 -0.393767 0.652683
vn 0.672467 -0.385370 0.631885
vn 0.659810 -0.382961 0.646523
vn 0.065287 -0.158020 -0.985275
vn 0.067005 -0.158461 -0.985089
vn 0.115523 -0.171729 -0.978347
vn 0.115507 -0.171480 -0.978393
vn 0.115203 -0.171413 -0.978441
vn 0.115877 -0.171455 -0.978354
vn 0.579649 -0.632906 -0.513261
vn 0.534958 -0.539152 -0.650488
vn 0.531796 -0.558056 -0.636997
vn 0.945836 -0.004268 -0.324618
vn 0.922650 -0.335232 -0.190621
vn 0.586938 -0.384473 -0.712520
vn 0.575681 -0.387431 -0.720061
vn -0.305460 -0.859917 0.408946
vn -0.308513 -0.858732 0.409145
vn 0.196833 -0.884863 0.422225
vn 0.236652 -0.874574 0.423220
vn 0.214492 -0.879405 0.425017
vn 0.955731 -0.277845 0.096854
vn 0.918659 -0.368235 0.143070
vn 0.919477 -0.366751 0.141620
vn 0.652008 -0.731618 -0.199049
vn 0.650744 -0.743751 -0.152862
vn 0.659265 -0.731516 -0.173937
vn 0.821180 -0.568365 -0.051220
vn 0.795742 -0.602605 -0.060504
vn 0.815371 -0.576209 -0.056150
f 152//152 395//395 151//151
f 167//167 151//151 1//1
f 152//152 151//151 167//167
f 100//100 153//153 392//392
f 386//386 172//172 156//156
f 172//172 157//157 156//156
f 390//390 38//38 389//389
f 390//390 389//389 154//154
f 2//2 387//387 388//388
f 388//388 155//155 2//2
f 155//155 384//384 2//2
f 100//100 385//385 388//388
f 385//385 155//155 388//388
f 99//99 38//38 390//390
f 99//99 390//390 154//154
f 392//392 385//385 100//100
f 153//153 391//391 392//392
f 394//394 385//385 392//392
f 394//394 392//392 391//391
f 386//386 156//156 388//388
f 386//386 388//388 387//387
f 5//5 176//176 387//387
f 176//176 172//172 387//387
f 172//172 386//386 387//387
f 172//172 176//176 174//174
f 391//391 393//393 394//394
f 393//393 159//159 394//394
f 156//156 158//158 393//393
f 156//156 157//157 158//158
f 172//172 174//174 157//157
f 174//174 158//158 157//157
f 159//159 395//395 152//152
f 162//162 37//37 39//39
f 393//393 158//158 159//159
f 160//160 395//395 158//158
f 158//158 395//395 159//159
f 39//39 178//178 162//162
f 160//160 175//175 395//395
f 174//174 160//160 158//158
f 39//39 395//395 175//175
f 39//39 175//175 161//161
f 175//175 160//160 174//174
f 178//178 165//165 162//162
f 2//2 384//384 171//171
f 171//171 384//384 155//155
f 171//171 155//155 197//197
f 60//60 197//197 155//155
f 166//166 159//159 152//152
f 163//163 159//159 166//166
f 385//385 394//394 155//155
f 394//394 159//159 155//155
f 159//159 163//163 155//155
f 166//166 167//167 163//163
f 152//152 167//167 166//166
f 162//162 164//164 37//37
f 165//165 164//164 162//162
f 199//199 383//383 164//164
f 165//165 198//198 164//164
f 198//198 199//199 164//164
f 60//60 200//200 197//197
f 155//155 163//163 60//60
f 163//163 168//168 60//60
f 168//168 163//163 167//167
f 168//168 167//167 1//1
f 37//37 164//164 3//3
f 164//164 383//383 3//3
f 383//383 199//199 3//3
f 1//1 399//399 400//400
f 194//194 198//198 165//165
f 210//210 168//168 1//1
f 213//213 168//168 210//210
f 60//60 168//168 213//213
f 40//40 170//170 4//4
f 170//170 169//169 4//4
f 169//169 401//401 187//187
f 228//228 40//40 4//4
f 228//228 4//4 230//230
f 171//171 5//5 387//387
f 171//171 387//387 2//2
f 5//5 173//173 176//176
f 404//404 403//403 173//173
f 61//61 173//173 403//403
f 173//173 61//61 176//176
f 61//61 177//177 176//176
f 61//61 403//403 177//177
f 176//176 177//177 174//174
f 174//174 181//181 175//175
f 177//177 181//181 174//174
f 403//403 220//220 177//177
f 39//39 161//161 178//178
f 161//161 180//180 178//178
f 180//180 179//179 178//178
f 178//178 192//192 165//165
f 178//178 179//179 192//192
f 182//182 161//161 175//175
f 182//182 180//180 161//161
f 175//175 181//181 182//182
f 184//184 62//62 180//180
f 179//179 180//180 183//183
f 180//180 62//62 183//183
f 180//180 182//182 186//186
f 62//62 184//184 186//186
f 184//184 180//180 186//186
f 186//186 185//185 62//62
f 185//185 4//4 62//62
f 229//229 4//4 185//185
f 229//229 185//185 186//186
f 177//177 229//229 181//181
f 181//181 186//186 182//182
f 229//229 186//186 181//181
f 230//230 4//4 229//229
f 192//192 179//179 183//183
f 169//169 187//187 4//4
f 4//4 187//187 62//62
f 187//187 183//183 62//62
f 187//187 401//401 63//63
f 187//187 193//193 183//183
f 63//63 193//193 187//187
f 183//183 193//193 63//63
f 183//183 63//63 188//188
f 401//401 189//189 63//63
f 63//63 191//191 188//188
f 189//189 190//190 63//63
f 190//190 191//191 63//63
f 188//188 195//195 183//183
f 191//191 190//190 189//189
f 196//196 188//188 191//191
f 225//225 41//41 103//103
f 225//225 189//189 41//41
f 226//226 191//191 225//225
f 228//228 103//103 40//40
f 67//67 171//171 245//245
f 194//194 165//165 192//192
f 195//195 194//194 183//183
f 183//183 194//194 192//192
f 194//194 195//195 196//196
f 196//196 195//195 188//188
f 226//226 196//196 191//191
f 227//227 196//196 226//226
f 196//196 227//227 70//70
f 245//245 171//171 197//197
f 245//245 197//197 69//69
f 198//198 194//194 196//196
f 70//70 198//198 196//196
f 200//200 69//69 197//197
f 410//410 252//252 256//256
f 69//69 200//200 252//252
f 258//258 198//198 250//250
f 252//252 200//200 257//257
f 200//200 201//201 257//257
f 256//256 268//268 410//410
f 264//264 268//268 257//257
f 268//268 256//256 257//257
f 256//256 252//252 257//257
f 204//204 198//198 258//258
f 106//106 72//72 253//253
f 250//250 253//253 258//258
f 106//106 253//253 250//250
f 72//72 258//258 253//253
f 203//203 204//204 64//64
f 203//203 202//202 204//204
f 202//202 3//3 199//199
f 204//204 199//199 198//198
f 202//202 199//199 204//204
f 204//204 258//258 64//64
f 6//6 201//201 211//211
f 263//263 6//6 74//74
f 6//6 263//263 201//201
f 201//201 200//200 60//60
f 201//201 60//60 211//211
f 60//60 213//213 211//211
f 3//3 202//202 205//205
f 205//205 203//203 7//7
f 202//202 203//203 205//205
f 203//203 206//206 7//7
f 64//64 206//206 203//203
f 261//261 73//73 64//64
f 213//213 271//271 211//211
f 211//211 271//271 6//6
f 1//1 207//207 210//210
f 207//207 208//208 210//210
f 208//208 8//8 406//406
f 210//210 406//406 213//213
f 208//208 406//406 210//210
f 1//1 400//400 207//207
f 400//400 399//399 397//397
f 207//207 397//397 208//208
f 208//208 102//102 8//8
f 397//397 102//102 208//208
f 400//400 397//397 207//207
f 8//8 102//102 209//209
f 102//102 397//397 398//398
f 397//397 399//399 396//396
f 398//398 396//396 101//101
f 397//397 396//396 398//398
f 209//209 101//101 7//7
f 102//102 398//398 209//209
f 398//398 101//101 209//209
f 73//73 275//275 64//64
f 275//275 206//206 64//64
f 284//284 206//206 275//275
f 212//212 206//206 284//284
f 8//8 209//209 285//285
f 209//209 7//7 206//206
f 209//209 206//206 212//212
f 209//209 212//212 285//285
f 8//8 405//405 406//406
f 403//403 404//404 402//402
f 403//403 402//402 217//217
f 403//403 217//217 214//214
f 402//402 216//216 217//217
f 214//214 217//217 216//216
f 216//216 80//80 214//214
f 215//215 105//105 104//104
f 171//171 104//104 5//5
f 215//215 104//104 171//171
f 245//245 218//218 215//215
f 408//408 215//215 218//218
f 235//235 218//218 245//245
f 215//215 408//408 105//105
f 105//105 408//408 407//407
f 408//408 409//409 407//407
f 235//235 234//234 218//218
f 218//218 234//234 11//11
f 409//409 408//408 219//219
f 408//408 218//218 219//219
f 288//288 287//287 219//219
f 216//216 219//219 287//287
f 216//216 409//409 219//219
f 289//289 219//219 11//11
f 11//11 219//219 218//218
f 80//80 291//291 403//403
f 80//80 403//403 214//214
f 403//403 291//291 65//65
f 403//403 65//65 221//221
f 403//403 224//224 220//220
f 403//403 221//221 224//224
f 224//224 221//221 295//295
f 220//220 224//224 230//230
f 220//220 230//230 177//177
f 230//230 229//229 177//177
f 230//230 223//223 66//66
f 222//222 223//223 230//230
f 222//222 230//230 224//224
f 222//222 224//224 10//10
f 295//295 10//10 224//224
f 221//221 10//10 295//295
f 81//81 10//10 221//221
f 222//222 10//10 81//81
f 103//103 228//228 223//223
f 226//226 231//231 232//232
f 189//189 225//225 191//191
f 225//225 103//103 231//231
f 225//225 231//231 226//226
f 223//223 228//228 66//66
f 228//228 230//230 66//66
f 103//103 223//223 231//231
f 223//223 232//232 231//231
f 232//232 239//239 227//227
f 227//227 226//226 232//232
f 222//222 233//233 223//223
f 233//233 239//239 232//232
f 233//233 232//232 223//223
f 67//67 215//215 171//171
f 245//245 215//215 67//67
f 235//235 68//68 234//234
f 240//240 235//235 245//245
f 68//68 235//235 240//240
f 299//299 298//298 68//68
f 298//298 11//11 234//234
f 298//298 234//234 68//68
f 298//298 299//299 20//20
f 238//238 81//81 247//247
f 81//81 82//82 247//247
f 297//297 242//242 244//244
f 242//242 42//42 244//244
f 243//243 70//70 227//227
f 239//239 236//236 227//227
f 227//227 237//237 243//243
f 238//238 233//233 81//81
f 81//81 233//233 222//222
f 239//239 233//233 238//238
f 239//239 237//237 236//236
f 237//237 227//227 236//236
f 247//247 243//243 237//237
f 237//237 239//239 238//238
f 238//238 247//247 237//237
f 247//247 297//297 244//244
f 240//240 245//245 69//69
f 240//240 69//69 252//252
f 240//240 252//252 410//410
f 240//240 241//241 68//68
f 240//240 410//410 241//241
f 299//299 68//68 241//241
f 20//20 300//300 297//297
f 20//20 299//299 300//300
f 248//248 243//243 247//247
f 71//71 249//249 248//248
f 248//248 247//247 244//244
f 71//71 248//248 42//42
f 248//248 244//244 42//42
f 297//297 300//300 242//242
f 300//300 42//42 242//242
f 248//248 249//249 70//70
f 248//248 70//70 243//243
f 299//299 246//246 12//12
f 299//299 265//265 246//246
f 71//71 254//254 249//249
f 254//254 106//106 249//249
f 12//12 300//300 299//299
f 412//412 251//251 300//300
f 300//300 251//251 413//413
f 300//300 413//413 42//42
f 241//241 266//266 299//299
f 299//299 266//266 265//265
f 410//410 266//266 241//241
f 198//198 70//70 250//250
f 70//70 249//249 250//250
f 250//250 249//249 106//106
f 71//71 251//251 254//254
f 251//251 412//412 12//12
f 251//251 12//12 255//255
f 300//300 12//12 412//412
f 13//13 265//265 267//267
f 268//268 266//266 410//410
f 267//267 266//266 268//268
f 265//265 266//266 267//267
f 251//251 255//255 254//254
f 255//255 12//12 246//246
f 254//254 411//411 106//106
f 106//106 411//411 72//72
f 254//254 255//255 411//411
f 417//417 13//13 267//267
f 417//417 267//267 268//268
f 265//265 274//274 246//246
f 265//265 418//418 274//274
f 274//274 255//255 246//246
f 274//274 260//260 255//255
f 274//274 269//269 260//260
f 72//72 259//259 258//258
f 72//72 411//411 259//259
f 411//411 255//255 262//262
f 74//74 264//264 263//263
f 264//264 257//257 263//263
f 263//263 257//257 201//201
f 262//262 255//255 260//260
f 258//258 259//259 64//64
f 64//64 259//259 261//261
f 259//259 411//411 262//262
f 261//261 259//259 262//262
f 13//13 417//417 416//416
f 268//268 264//264 414//414
f 268//268 414//414 417//417
f 417//417 414//414 415//415
f 417//417 415//415 416//416
f 272//272 74//74 6//6
f 272//272 6//6 271//271
f 74//74 272//272 14//14
f 415//415 419//419 416//416
f 416//416 419//419 13//13
f 419//419 415//415 420//420
f 419//419 420//420 43//43
f 78//78 18//18 281//281
f 283//283 281//281 77//77
f 78//78 281//281 283//283
f 282//282 77//77 280//280
f 419//419 280//280 13//13
f 282//282 280//280 419//419
f 283//283 77//77 282//282
f 283//283 282//282 419//419
f 262//262 270//270 261//261
f 270//270 73//73 261//261
f 43//43 424//424 419//419
f 424//424 283//283 419//419
f 424//424 78//78 283//283
f 260//260 270//270 262//262
f 270//270 260//260 269//269
f 304//304 275//275 73//73
f 79//79 304//304 73//73
f 213//213 273//273 271//271
f 15//15 273//273 213//213
f 272//272 271//271 273//273
f 16//16 75//75 276//276
f 75//75 14//14 272//272
f 276//276 273//273 15//15
f 75//75 272//272 276//276
f 272//272 273//273 276//276
f 16//16 276//276 277//277
f 276//276 15//15 277//277
f 43//43 422//422 424//424
f 422//422 107//107 424//424
f 107//107 423//423 424//424
f 423//423 421//421 424//424
f 78//78 421//421 18//18
f 424//424 421//421 78//78
f 427//427 269//269 274//274
f 428//428 274//274 418//418
f 427//427 274//274 428//428
f 279//279 15//15 213//213
f 213//213 9//9 279//279
f 9//9 315//315 305//305
f 9//9 305//305 83//83
f 9//9 83//83 279//279
f 17//17 16//16 277//277
f 277//277 76//76 278//278
f 277//277 278//278 17//17
f 15//15 279//279 277//277
f 279//279 76//76 277//277
f 17//17 278//278 307//307
f 278//278 76//76 309//309
f 307//307 309//309 84//84
f 278//278 309//309 307//307
f 76//76 279//279 306//306
f 306//306 279//279 83//83
f 84//84 310//310 308//308
f 310//310 83//83 305//305
f 308//308 305//305 315//315
f 310//310 305//305 308//308
f 76//76 306//306 309//309
f 306//306 83//83 310//310
f 309//309 310//310 84//84
f 306//306 310//310 309//309
f 426//426 108//108 421//421
f 426//426 421//421 423//423
f 108//108 425//425 421//421
f 425//425 18//18 421//421
f 406//406 9//9 213//213
f 304//304 303//303 284//284
f 284//284 275//275 304//304
f 9//9 336//336 315//315
f 315//315 336//336 23//23
f 212//212 321//321 285//285
f 323//323 321//321 212//212
f 406//406 405//405 19//19
f 285//285 321//321 286//286
f 286//286 322//322 19//19
f 323//323 322//322 286//286
f 321//321 323//323 286//286
f 360//360 335//335 358//358
f 358//358 335//335 334//334
f 334//334 406//406 19//19
f 9//9 406//406 335//335
f 335//335 406//406 334//334
f 216//216 287//287 80//80
f 219//219 289//289 288//288
f 290//290 289//289 11//11
f 289//289 290//290 301//301
f 289//289 301//301 288//288
f 80//80 293//293 292//292
f 288//288 293//293 287//287
f 287//287 293//293 80//80
f 293//293 288//288 301//301
f 293//293 301//301 20//20
f 80//80 65//65 291//291
f 65//65 80//80 292//292
f 65//65 294//294 221//221
f 65//65 292//292 294//294
f 294//294 292//292 221//221
f 221//221 292//292 293//293
f 81//81 296//296 82//82
f 81//81 293//293 296//296
f 221//221 293//293 81//81
f 296//296 293//293 82//82
f 298//298 290//290 11//11
f 298//298 20//20 301//301
f 298//298 301//301 290//290
f 293//293 247//247 82//82
f 293//293 20//20 297//297
f 293//293 297//297 247//247
f 269//269 302//302 270//270
f 270//270 302//302 73//73
f 73//73 302//302 79//79
f 302//302 304//304 79//79
f 303//303 304//304 302//302
f 18//18 425//425 429//429
f 425//425 108//108 432//432
f 429//429 432//432 109//109
f 425//425 432//432 429//429
f 108//108 426//426 447//447
f 426//426 423//423 445//445
f 447//447 445//445 113//113
f 426//426 445//445 447//447
f 109//109 448//448 430//430
f 448//448 113//113 446//446
f 430//430 446//446 44//44
f 448//448 446//446 430//430
f 108//108 447//447 432//432
f 447//447 113//113 448//448
f 432//432 448//448 109//109
f 447//447 448//448 432//432
f 18//18 429//429 311//311
f 429//429 109//109 431//431
f 311//311 431//431 85//85
f 429//429 431//431 311//311
f 109//109 430//430 436//436
f 430//430 44//44 434//434
f 436//436 434//434 110//110
f 430//430 434//434 436//436
f 85//85 435//435 312//312
f 435//435 110//110 433//433
f 312//312 433//433 313//313
f 435//435 433//433 312//312
f 109//109 436//436 431//431
f 436//436 110//110 435//435
f 431//431 435//435 85//85
f 436//436 435//435 431//431
f 21//21 314//314 437//437
f 437//437 440//440 111//111
f 314//314 440//440 437//437
f 314//314 313//313 440//440
f 440//440 433//433 110//110
f 313//313 433//433 440//440
f 111//111 440//440 438//438
f 440//440 110//110 434//434
f 438//438 434//434 44//44
f 440//440 434//434 438//438
f 450//450 459//459 114//114
f 45//45 459//459 450//450
f 45//45 46//46 456//456
f 460//460 456//456 116//116
f 45//45 456//456 460//460
f 114//114 457//457 449//449
f 457//457 116//116 455//455
f 449//449 455//455 25//25
f 457//457 455//455 449//449
f 45//45 460//460 459//459
f 460//460 116//116 457//457
f 459//459 457//457 114//114
f 460//460 457//457 459//459
f 269//269 427//427 328//328
f 427//427 428//428 328//328
f 452//452 428//428 453//453
f 328//328 428//428 452//452
f 22//22 21//21 316//316
f 318//318 316//316 86//86
f 22//22 316//316 318//318
f 319//319 86//86 317//317
f 320//320 317//317 23//23
f 319//319 317//317 320//320
f 22//22 318//318 319//319
f 318//318 86//86 319//319
f 461//461 47//47 87//87
f 44//44 442//442 438//438
f 442//442 112//112 444//444
f 438//438 444//444 111//111
f 442//442 444//444 438//438
f 112//112 441//441 443//443
f 441//441 23//23 317//317
f 443//443 317//317 86//86
f 441//441 317//317 443//443
f 111//111 439//439 437//437
f 439//439 86//86 316//316
f 437//437 316//316 21//21
f 439//439 316//316 437//437
f 112//112 443//443 444//444
f 443//443 86//86 439//439
f 444//444 439//439 111//111
f 443//443 439//439 444//444
f 117//117 47//47 461//461
f 117//117 461//461 46//46
f 456//456 458//458 116//116
f 46//46 458//458 456//456
f 116//116 454//454 455//455
f 455//455 454//454 25//25
f 46//46 454//454 458//458
f 458//458 454//454 116//116
f 302//302 329//329 303//303
f 303//303 324//324 284//284
f 324//324 303//303 326//326
f 24//24 22//22 319//319
f 24//24 319//319 320//320
f 87//87 47//47 463//463
f 46//46 461//461 331//331
f 461//461 87//87 331//331
f 471//471 323//323 324//324
f 323//323 212//212 324//324
f 212//212 284//284 324//324
f 326//326 303//303 325//325
f 303//303 329//329 325//325
f 326//326 88//88 327//327
f 326//326 327//327 324//324
f 325//325 88//88 326//326
f 23//23 336//336 320//320
f 336//336 351//351 320//320
f 320//320 351//351 24//24
f 9//9 335//335 337//337
f 335//335 360//360 337//337
f 9//9 337//337 336//336
f 338//338 26//26 351//351
f 337//337 351//351 336//336
f 338//338 351//351 360//360
f 360//360 351//351 337//337
f 322//322 323//323 356//356
f 356//356 471//471 92//92
f 323//323 471//471 356//356
f 357//357 92//92 31//31
f 356//356 92//92 357//357
f 46//46 331//331 454//454
f 454//454 332//332 25//25
f 87//87 333//333 331//331
f 331//331 332//332 454//454
f 333//333 332//332 331//331
f 453//453 115//115 452//452
f 115//115 25//25 451//451
f 452//452 451//451 329//329
f 115//115 451//451 452//452
f 302//302 330//330 329//329
f 302//302 269//269 330//330
f 269//269 328//328 330//330
f 328//328 452//452 330//330
f 452//452 329//329 330//330
f 24//24 351//351 118//118
f 87//87 463//463 462//462
f 333//333 462//462 118//118
f 87//87 462//462 333//333
f 333//333 118//118 477//477
f 333//333 374//374 332//332
f 333//333 477//477 374//374
f 470//470 472//472 471//471
f 470//470 471//471 324//324
f 119//119 472//472 470//470
f 508//508 91//91 354//354
f 508//508 354//354 88//88
f 91//91 352//352 355//355
f 355//355 352//352 119//119
f 88//88 353//353 327//327
f 353//353 119//119 470//470
f 327//327 470//470 324//324
f 353//353 470//470 327//327
f 91//91 355//355 354//354
f 355//355 119//119 353//353
f 354//354 353//353 88//88
f 355//355 353//353 354//354
f 334//334 19//19 322//322
f 334//334 322//322 356//356
f 359//359 356//356 357//357
f 359//359 357//357 31//31
f 334//334 356//356 358//358
f 356//356 359//359 358//358
f 465//465 118//118 351//351
f 465//465 351//351 26//26
f 361//361 360//360 359//359
f 361//361 359//359 93//93
f 360//360 358//358 359//359
f 93//93 359//359 31//31
f 338//338 360//360 361//361
f 26//26 338//338 361//361
f 466//466 376//376 467//467
f 467//467 464//464 26//26
f 376//376 464//464 467//467
f 361//361 339//339 89//89
f 26//26 361//361 466//466
f 361//361 89//89 362//362
f 361//361 362//362 466//466
f 361//361 93//93 364//364
f 361//361 364//364 339//339
f 466//466 362//362 483//483
f 28//28 362//362 89//89
f 89//89 339//339 28//28
f 28//28 339//339 90//90
f 364//364 363//363 339//339
f 94//94 29//29 366//366
f 94//94 366//366 365//365
f 27//27 345//345 343//343
f 343//343 344//344 94//94
f 344//344 29//29 94//94
f 340//340 362//362 27//27
f 94//94 340//340 343//343
f 343//343 340//340 27//27
f 362//362 341//341 27//27
f 362//362 28//28 341//341
f 341//341 348//348 27//27
f 90//90 348//348 28//28
f 348//348 341//341 28//28
f 348//348 347//347 349//349
f 348//348 90//90 342//342
f 90//90 339//339 342//342
f 363//363 347//347 339//339
f 342//342 347//347 348//348
f 339//339 347//347 342//342
f 344//344 343//343 345//345
f 368//368 29//29 344//344
f 344//344 345//345 469//469
f 34//34 525//525 368//368
f 525//525 29//29 368//368
f 27//27 348//348 346//346
f 345//345 346//346 469//469
f 27//27 346//346 345//345
f 348//348 349//349 468//468
f 349//349 350//350 469//469
f 349//349 469//469 468//468
f 346//346 468//468 469//469
f 346//346 348//348 468//468
f 469//469 350//350 371//371
f 469//469 371//371 97//97
f 144//144 528//528 369//369
f 369//369 528//528 97//97
f 528//528 34//34 368//368
f 97//97 368//368 344//344
f 528//528 368//368 97//97
f 97//97 344//344 469//469
f 370//370 349//349 347//347
f 350//350 349//349 371//371
f 475//475 349//349 35//35
f 349//349 475//475 371//371
f 329//329 451//451 374//374
f 451//451 25//25 332//332
f 451//451 332//332 374//374
f 374//374 538//538 375//375
f 374//374 373//373 329//329
f 375//375 373//373 374//374
f 508//508 88//88 493//493
f 91//91 508//508 352//352
f 352//352 372//372 30//30
f 508//508 372//372 352//352
f 373//373 375//375 88//88
f 375//375 538//538 493//493
f 375//375 493//493 88//88
f 329//329 373//373 325//325
f 373//373 88//88 325//325
f 30//30 473//473 352//352
f 473//473 119//119 352//352
f 473//473 472//472 119//119
f 26//26 464//464 465//465
f 511//511 50//50 464//464
f 93//93 472//472 473//473
f 364//364 499//499 497//497
f 93//93 473//473 364//364
f 473//473 499//499 364//364
f 376//376 511//511 464//464
f 363//363 364//364 96//96
f 377//377 96//96 364//364
f 377//377 364//364 497//497
f 379//379 96//96 377//377
f 483//483 340//340 94//94
f 362//362 340//340 483//483
f 466//466 483//483 376//376
f 483//483 98//98 376//376
f 32//32 33//33 483//483
f 365//365 483//483 94//94
f 32//32 483//483 95//95
f 365//365 95//95 483//483
f 29//29 365//365 366//366
f 474//474 29//29 525//525
f 134//134 511//511 98//98
f 511//511 376//376 98//98
f 95//95 365//365 29//29
f 95//95 29//29 474//474
f 347//347 363//363 96//96
f 347//347 96//96 367//367
f 367//367 370//370 347//347
f 96//96 370//370 367//367
f 370//370 96//96 378//378
f 382//382 370//370 378//378
f 378//378 96//96 379//379
f 379//379 381//381 378//378
f 381//381 380//380 378//378
f 474//474 525//525 139//139
f 35//35 349//349 382//382
f 382//382 349//349 370//370
f 97//97 371//371 369//369
f 475//475 35//35 534//534
f 475//475 534//534 371//371
f 597//597 35//35 382//382
f 597//597 534//534 35//35
f 377//377 513//513 379//379
f 36//36 523//523 379//379
f 379//379 523//523 381//381
f 52//52 382//382 381//381
f 382//382 378//378 380//380
f 381//381 382//382 380//380
f 95//95 517//517 478//478
f 95//95 478//478 32//32
f 483//483 33//33 123//123
f 98//98 123//123 484//484
f 483//483 123//123 98//98
f 606//606 508//508 493//493
f 118//118 465//465 496//496
f 464//464 50//50 494//494
f 464//464 494//494 465//465
f 465//465 494//494 496//496
f 473//473 30//30 499//499
f 377//377 497//497 126//126
f 377//377 126//126 500//500
f 377//377 500//500 513//513
f 508//508 606//606 510//510
f 508//508 510//510 372//372
f 36//36 379//379 129//129
f 379//379 513//513 129//129
f 513//513 150//150 514//514
f 513//513 514//514 129//129
f 474//474 139//139 95//95
f 95//95 139//139 51//51
f 525//525 34//34 524//524
f 525//525 524//524 527//527
f 528//528 144//144 529//529
f 534//534 146//146 530//530
f 371//371 534//534 369//369
f 534//534 530//530 369//369
f 597//597 382//382 532//532
f 382//382 52//52 531//531
f 382//382 531//531 532//532
f 534//534 597//597 535//535
f 374//374 148//148 537//537
f 374//374 537//537 540//540
f 118//118 476//476 477//477
f 477//477 48//48 120//120
f 476//476 48//48 477//477
f 374//374 120//120 148//148
f 477//477 120//120 374//374
f 478//478 122//122 32//32
f 122//122 481//481 482//482
f 482//482 481//481 121//121
f 480//480 121//121 479//479
f 32//32 479//479 33//33
f 480//480 479//479 32//32
f 122//122 482//482 32//32
f 482//482 121//121 480//480
f 482//482 480//480 32//32
f 123//123 487//487 484//484
f 487//487 125//125 489//489
f 484//484 489//489 98//98
f 487//487 489//489 484//484
f 125//125 488//488 490//490
f 490//490 488//488 124//124
f 486//486 124//124 485//485
f 98//98 485//485 134//134
f 486//486 485//485 98//98
f 125//125 490//490 489//489
f 490//490 124//124 486//486
f 489//489 486//486 98//98
f 490//490 486//486 489//489
f 538//538 492//492 493//493
f 492//492 491//491 493//493
f 493//493 491//491 606//606
f 494//494 495//495 496//496
f 495//495 118//118 496//496
f 30//30 498//498 499//499
f 499//499 498//498 497//497
f 126//126 504//504 500//500
f 504//504 128//128 506//506
f 504//504 506//506 500//500
f 128//128 505//505 507//507
f 507//507 502//502 127//127
f 505//505 502//502 507//507
f 500//500 503//503 513//513
f 503//503 127//127 501//501
f 513//513 501//501 150//150
f 503//503 501//501 513//513
f 128//128 507//507 506//506
f 507//507 127//127 503//503
f 506//506 503//503 500//500
f 507//507 503//503 506//506
f 606//606 509//509 510//510
f 509//509 49//49 510//510
f 372//372 49//49 30//30
f 510//510 49//49 372//372
f 134//134 512//512 511//511
f 512//512 50//50 511//511
f 150//150 516//516 514//514
f 514//514 516//516 515//515
f 129//129 515//515 36//36
f 514//514 515//515 129//129
f 51//51 517//517 95//95
f 36//36 520//520 523//523
f 520//520 519//519 523//523
f 523//523 519//519 518//518
f 523//523 518//518 578//578
f 578//578 521//521 523//523
f 521//521 522//522 523//523
f 522//522 52//52 523//523
f 523//523 52//52 381//381
f 524//524 526//526 527//527
f 526//526 53//53 527//527
f 525//525 53//53 139//139
f 527//527 53//53 525//525
f 144//144 130//130 529//529
f 130//130 54//54 529//529
f 528//528 54//54 34//34
f 529//529 54//54 528//528
f 530//530 131//131 369//369
f 369//369 131//131 144//144
f 531//531 533//533 532//532
f 532//532 533//533 597//597
f 597//597 536//536 535//535
f 536//536 55//55 535//535
f 534//534 55//55 146//146
f 535//535 55//55 534//534
f 537//537 539//539 540//540
f 540//540 539//539 538//538
f 540//540 538//538 374//374
f 541//541 542//542 56//56
f 541//541 543//543 542//542
f 542//542 543//543 56//56
f 544//544 546//546 545//545
f 544//544 547//547 546//546
f 546//546 547//547 545//545
f 548//548 549//549 551//551
f 548//548 550//550 549//549
f 549//549 550//550 551//551
f 552//552 554//554 553//553
f 554//554 555//555 553//553
f 552//552 555//555 554//554
f 556//556 132//132 558//558
f 556//556 558//558 557//557
f 558//558 132//132 557//557
f 134//134 133//133 560//560
f 134//134 560//560 559//559
f 560//560 133//133 559//559
f 135//135 57//57 562//562
f 135//135 562//562 561//561
f 562//562 57//57 561//561
f 564//564 136//136 137//137
f 136//136 564//564 563//563
f 564//564 137//137 563//563
f 517//517 138//138 566//566
f 138//138 565//565 566//566
f 566//566 565//565 517//517
f 569//569 568//568 567//567
f 139//139 568//568 569//569
f 139//139 569//569 567//567
f 570//570 573//573 572//572
f 570//570 572//572 571//571
f 572//572 573//573 571//571
f 140//140 576//576 575//575
f 140//140 575//575 574//574
f 575//575 576//576 574//574
f 578//578 577//577 581//581
f 577//577 580//580 581//581
f 582//582 580//580 578//578
f 578//578 581//581 579//579
f 581//581 580//580 582//582
f 579//579 582//582 578//578
f 581//581 582//582 579//579
f 52//52 141//141 584//584
f 52//52 584//584 583//583
f 584//584 141//141 583//583
f 142//142 585//585 587//587
f 142//142 587//587 586//586
f 587//587 585//585 586//586
f 144//144 143//143 589//589
f 144//144 589//589 588//588
f 589//589 143//143 588//588
f 590//590 592//592 591//591
f 591//591 592//592 593//593
f 591//591 593//593 590//590
f 146//146 596//596 594//594
f 146//146 595//595 596//596
f 596//596 595//595 594//594
f 598//598 58//58 145//145
f 597//597 58//58 598//598
f 598//598 145//145 597//597
f 600//600 59//59 599//599
f 146//146 59//59 600//600
f 146//146 600//600 599//599
f 148//148 147//147 602//602
f 148//148 602//602 601//601
f 602//602 147//147 601//601
f 148//148 603//603 605//605
f 603//603 604//604 605//605
f 148//148 605//605 604//604
f 606//606 149//149 608//608
f 608//608 149//149 607//607
f 608//608 607//607 606//606
f 150//150 610//610 611//611
f 150//150 611//611 609//609
f 611//611 610//610 609//609
f 150//150 612//612 614//614
f 612//612 613//613 614//614
f 150//150 614//614 613//613
