# decimated by Tools/decimate_anatomy.py from 2032 triangles (BodyParts3D, CC BY 4.0)
v -0.02031675 -0.01030263 0.04614330
v -0.01984867 -0.01129653 0.04188993
v -0.02035890 -0.01111007 0.04268092
v -0.01807129 -0.01302544 0.04193821
v -0.02187699 -0.00982908 0.05076802
v -0.02224238 -0.01170931 0.03691637
v -0.02327929 -0.00723568 0.03962774
v -0.02309877 -0.00962260 0.03665333
v -0.02378002 -0.00753307 0.03760998
v -0.02228975 -0.01079314 0.04820419
v -0.02633841 -0.00675736 0.04219087
v -0.02969472 -0.00606598 0.04681910
v -0.02255237 -0.01197931 0.04075712
v -0.03242224 -0.00349295 0.05648431
v -0.03079839 -0.00460649 0.05080207
v -0.03142369 -0.00472547 0.05138589
v -0.03258384 -0.00473001 0.08621658
v -0.03714511 0.00132233 0.09753883
v -0.03953601 0.00282185 0.09842850
v -0.04057288 0.00279017 0.09686613
v -0.04126472 0.00499811 0.09791161
v -0.04094816 0.00399265 0.09513131
v -0.04054694 0.00355875 0.09843061
v -0.04125533 0.00490512 0.09787634
v -0.04132576 0.00504013 0.09783160
v -0.04134321 0.00503552 0.09769698
v -0.04109700 0.00422579 0.09780199
v -0.04125188 0.00367490 0.09692433
v -0.04123282 0.00315298 0.09693269
v -0.04108164 0.00400232 0.09787000
v -0.04090879 0.00125124 0.09337111
v -0.01758812 -0.01331180 0.04010399
v -0.01993036 -0.01041928 0.04460521
v -0.02045260 -0.01044651 0.04528710
v -0.02011699 -0.01078737 0.04320837
v -0.01986694 -0.01082266 0.04273788
v -0.01970398 -0.01108936 0.04205067
v -0.01905736 -0.01111180 0.04157217
v -0.02078339 -0.01109783 0.04100113
v -0.02220964 -0.01184036 0.03680565
v -0.02226301 -0.01183774 0.03679638
v -0.02523706 -0.00812188 0.03988613
v -0.02498487 -0.00693005 0.04182794
v -0.02294447 -0.00993778 0.03654249
v -0.02293805 -0.00994799 0.03653133
v -0.02337574 -0.00711196 0.03790223
v -0.02283707 -0.01049387 0.03682171
v -0.02358369 -0.00831064 0.03705315
v -0.02284673 -0.00986674 0.03748544
v -0.02354663 -0.00844594 0.03698594
v -0.02364711 -0.00875975 0.03733197
v -0.02362366 -0.00825140 0.03704014
v -0.02148422 -0.01330834 0.04716299
v -0.02929373 -0.00542512 0.04718897
v -0.03586758 -0.00224010 0.06279995
v -0.03730031 0.00105278 0.09747026
v -0.03741954 0.00133518 0.09785386
v -0.03935618 0.00280883 0.09880209
v -0.03851534 0.00225301 0.09869776
v -0.03933996 0.00271559 0.09903604
v -0.03710637 0.00033607 0.09641895
v -0.03740810 0.00043045 0.09680344
v -0.04018451 0.00237386 0.09677337
v -0.04015860 0.00220330 0.09659148
v -0.04132370 0.00489593 0.09732786
v -0.04085284 0.00219414 0.09598830
v -0.04000836 0.00110643 0.09599612
v -0.03979531 0.00064968 0.09604007
v -0.04128851 0.00502457 0.09782874
v -0.04126825 0.00490081 0.09771165
v -0.04147455 0.00491291 0.09751902
v -0.04135899 0.00505487 0.09758512
v -0.04149859 0.00487288 0.09695677
v -0.04130061 0.00466063 0.09783259
v -0.04151119 0.00466046 0.09734858
v -0.04154602 0.00461228 0.09740979
v -0.04147878 0.00487143 0.09727324
v -0.04081496 0.00285477 0.09677876
v -0.04079450 0.00294975 0.09680155
v -0.04087197 0.00295556 0.09678772
v -0.04092022 0.00305731 0.09682682
v -0.04123087 0.00368676 0.09707327
v -0.04105826 0.00358834 0.09686714
v -0.04125225 0.00373528 0.09684028
v -0.04076613 0.00255243 0.09665541
v -0.04056286 0.00244058 0.09629821
v -0.04129437 0.00374861 0.09722033
v -0.04265215 0.00283839 0.09072183
v -0.04266245 0.00255445 0.09010222
v -0.04192067 0.00407906 0.09447253
v -0.02020384 -0.01028463 0.04721075
v -0.02102858 -0.01086193 0.04163419
v -0.02328325 -0.00733342 0.03930982
v -0.02326371 -0.00707474 0.03890966
v -0.02326750 -0.00722372 0.03939195
v -0.02293852 -0.00987851 0.03653731
v -0.02287507 -0.01000984 0.03664172
v -0.02079688 -0.01101600 0.04442795
v -0.02207305 -0.01104418 0.04683184
v -0.03377594 -0.00534256 0.05546557
v -0.01991762 -0.01037082 0.04688498
v -0.02344195 -0.00907988 0.05552056
v -0.02656245 -0.00784417 0.04888706
v -0.03014756 -0.00544974 0.04832350
v -0.03206361 -0.00375687 0.05494028
v -0.03081002 -0.00552919 0.08127826
v -0.02783932 -0.01029135 0.06855213
v -0.02851976 -0.01078136 0.06809659
v -0.03116530 -0.00676215 0.08178556
v -0.03241909 -0.00332579 0.06045998
v -0.03502315 -0.00220527 0.06244995
v -0.03715551 0.00092058 0.09715235
v -0.03708105 -0.00036945 0.09531093
v -0.03647200 -0.00146207 0.09366917
v -0.03952613 0.00266558 0.09784234
v -0.03691624 -0.00103673 0.09476110
v -0.03717510 -0.00087709 0.09518397
v -0.04012842 0.00197384 0.09675783
v -0.03882778 0.00165385 0.09687231
v -0.04056648 0.00455969 0.09389540
v -0.03847819 0.00082327 0.09453433
v -0.03939802 0.00314482 0.09282849
v -0.04254909 0.00060821 0.08761814
v -0.04005229 0.00156379 0.09654452
v -0.04079383 0.00383243 0.09797203
v -0.04125641 0.00495476 0.09787200
v -0.04125247 0.00492391 0.09778422
v -0.04093876 0.00394511 0.09788681
v -0.02343231 -0.01007477 0.06068363
v -0.01891498 -0.01310696 0.04047950
v -0.01949362 -0.01059615 0.04564350
v -0.02006954 -0.01055786 0.04412753
v -0.02000221 -0.01103805 0.04257725
v -0.01830178 -0.01281511 0.04054670
v -0.02353928 -0.00734595 0.03773689
v -0.01925481 -0.01318706 0.04553222
v -0.02063319 -0.01095649 0.04438873
v -0.02173632 -0.01021351 0.04979400
v -0.02211004 -0.01127014 0.04583888
v -0.02109895 -0.01092114 0.04372368
v -0.02222684 -0.01182969 0.03679578
v -0.02222366 -0.01180257 0.03677715
v -0.02321079 -0.00758942 0.03995882
v -0.02295591 -0.00815969 0.04006542
v -0.02312497 -0.00967500 0.03682694
v -0.02291664 -0.00996370 0.03650771
v -0.02296685 -0.00986438 0.03655211
v -0.02313292 -0.00978215 0.03701956
v -0.02293691 -0.00991610 0.03655548
v -0.02295294 -0.00988134 0.03652704
v -0.02367053 -0.00770076 0.03751049
v -0.02623255 -0.00694311 0.04193109
v -0.02360445 -0.00827744 0.03705031
v -0.02361811 -0.00827922 0.03703280
v -0.02362642 -0.00818028 0.03718337
v -0.02364064 -0.00806230 0.03729202
v -0.02363284 -0.00814809 0.03717775
v -0.02364847 -0.00816523 0.03716826
v -0.02350500 -0.00862913 0.03689382
v -0.02355126 -0.00848056 0.03685973
v -0.02360828 -0.00824483 0.03703558
v -0.02446851 -0.01220505 0.05644117
v -0.02336915 -0.00990128 0.03747514
v -0.02509044 -0.00810521 0.03962289
v -0.03110059 -0.00442258 0.05180553
v -0.02631713 -0.00751993 0.06679160
v -0.02656688 -0.00980395 0.06791747
v -0.02506549 -0.01068515 0.06332155
v -0.02040744 -0.01317582 0.04690005
v -0.02964831 -0.00678256 0.04659919
v -0.03196009 -0.00415095 0.05313022
v -0.03055868 -0.00886461 0.07648987
v -0.02222961 -0.01286093 0.04481555
v -0.03341957 -0.00335131 0.05687585
v -0.03443837 -0.00302549 0.05909914
v -0.04162954 0.00258891 0.08408137
v -0.03987137 0.00130577 0.09498644
v -0.03641426 -0.00171035 0.09377109
v -0.03787620 0.00069973 0.09445193
v -0.03658985 -0.00135698 0.09405696
v -0.04134819 0.00259433 0.08441369
v -0.03945132 0.00281146 0.09861368
v -0.03941809 0.00262570 0.09794722
v -0.03942316 0.00276458 0.09876974
v -0.03935766 0.00277022 0.09888323
v -0.03787382 0.00179433 0.09846811
v -0.03764591 0.00133917 0.09790324
v -0.03689702 -0.00545745 0.08791547
v -0.03954296 0.00282229 0.09837896
v -0.04042941 0.00348949 0.09838733
v -0.04065352 0.00374178 0.09795025
v -0.04031218 0.00337653 0.09851310
v -0.03873546 0.00210304 0.09783954
v -0.04129741 0.00502255 0.09781898
v -0.04066395 0.00482224 0.09328203
v -0.04057152 0.00211469 0.09606731
v -0.04021873 0.00219015 0.09673747
v -0.03970128 0.00319074 0.09327270
v -0.04107278 0.00431877 0.09765624
v -0.04131430 0.00493042 0.09786302
v -0.04129864 0.00495069 0.09790648
v -0.04135569 0.00496188 0.09782503
v -0.04132482 0.00505570 0.09786475
v -0.04134033 0.00504232 0.09785431
v -0.04127361 0.00493101 0.09750693
v -0.04138882 0.00495051 0.09768600
v -0.04126582 0.00488279 0.09781399
v -0.04138948 0.00489616 0.09759216
v -0.04133310 0.00501199 0.09750437
v -0.04146650 0.00490935 0.09722214
v -0.04129592 0.00517897 0.09806755
v -0.04132426 0.00478388 0.09754391
v -0.04137995 0.00480029 0.09755006
v -0.04148456 0.00477773 0.09743702
v -0.04144119 0.00473381 0.09739486
v -0.04140488 0.00465117 0.09763147
v -0.04139464 0.00470221 0.09792399
v -0.04103684 0.00301818 0.09686190
v -0.04097978 0.00303083 0.09685565
v -0.04082565 0.00290849 0.09679545
v -0.04098016 0.00303151 0.09658395
v -0.04075182 0.00296675 0.09573453
v -0.04099361 0.00331195 0.09684440
v -0.04110365 0.00344337 0.09683586
v -0.04113347 0.00362561 0.09685398
v -0.04109320 0.00333321 0.09670985
v -0.04046162 0.00236936 0.09661500
v -0.04057360 0.00236216 0.09649713
v -0.04101781 0.00296426 0.09641470
v -0.04122726 0.00363728 0.09726045
v -0.04124939 0.00346143 0.09698380
v -0.04124814 0.00338949 0.09687700
v -0.04122155 0.00350078 0.09719762
v -0.04128618 0.00376705 0.09708901
v -0.04125199 0.00478998 0.09738476
v -0.04102845 0.00357658 0.08867605
v -0.04206502 0.00386263 0.09400656
v -0.04218121 0.00367861 0.09321824
v -0.04197295 0.00397175 0.09478041
v -0.04131866 0.00395315 0.09747084
v -0.04030434 0.00080073 0.07793345
vn 0.196865 0.979719 -0.037348
vn -0.410748 0.819373 -0.399893
vn -0.290883 0.871134 -0.395616
vn 0.922962 -0.239121 0.301598
vn -0.392929 0.892026 -0.223377
vn 0.937849 0.333806 -0.094939
vn 0.973152 0.222223 0.059929
vn -0.912241 -0.333456 -0.237957
vn 0.013713 0.549109 -0.835638
vn -0.156121 0.957850 -0.241142
vn -0.729421 0.392399 -0.560329
vn -0.797085 0.340615 -0.498635
vn -0.604209 -0.779340 -0.166014
vn 0.460472 0.886733 -0.040872
vn -0.443124 0.815818 -0.371596
vn -0.778365 0.500633 -0.378833
vn 0.390587 -0.727469 0.564120
vn 0.768351 -0.453932 0.451201
vn -0.625454 0.708973 0.325831
vn 0.753262 0.657674 -0.007826
vn 0.988947 0.136253 0.058467
vn 0.758102 0.537015 0.369995
vn 0.538840 0.817845 0.201944
vn 0.996450 0.028614 0.079171
vn 0.481041 0.867357 -0.127640
vn 0.382030 0.923040 -0.045285
vn 0.678161 0.690490 -0.251636
vn -0.996815 0.010398 0.079070
vn -0.162514 0.263118 -0.950978
vn -0.610029 -0.656871 0.443153
vn -0.389085 -0.862064 0.324745
vn -0.217095 0.456925 -0.862606
vn -0.258613 0.945284 -0.198893
vn -0.367040 0.906582 -0.208305
vn -0.410953 0.819162 -0.400113
vn -0.339597 0.913607 -0.223597
vn -0.572271 0.719118 -0.394176
vn -0.178723 0.448082 -0.875946
vn 0.855322 0.497092 0.146030
vn 0.112749 -0.570823 -0.813295
vn 0.113623 -0.571062 -0.813006
vn -0.789790 0.222865 -0.571457
vn 0.685212 0.682114 0.255353
vn 0.380558 -0.569335 0.728720
vn -0.925137 -0.246947 -0.288338
vn 0.070176 0.542491 -0.837125
vn -0.849029 -0.247801 -0.466630
vn -0.824970 -0.492136 0.277897
vn 0.936986 0.337898 -0.088781
vn -0.947276 -0.286953 0.142570
vn -0.851395 -0.043681 -0.522702
vn -0.447200 0.700735 -0.555862
vn -0.368520 -0.929610 0.004306
vn -0.589263 0.644654 -0.487022
vn -0.621741 0.682137 -0.384873
vn 0.630928 -0.571281 0.524945
vn 0.128534 -0.749183 0.649773
vn -0.625713 0.708733 0.325855
vn 0.524830 0.821364 -0.223414
vn -0.625613 0.708818 0.325861
vn 0.709241 -0.527369 0.467824
vn 0.113450 -0.753734 0.647314
vn 0.341773 0.707915 -0.618100
vn 0.368075 0.749537 -0.550195
vn -0.694363 0.639559 0.329884
vn -0.339098 -0.885879 0.316592
vn -0.912743 -0.346727 0.216056
vn -0.826402 -0.431773 0.361429
vn -0.215900 0.976400 -0.005452
vn -0.648083 -0.359311 0.671479
vn -0.648074 -0.359333 0.671476
vn 0.401272 0.856017 -0.325907
vn -0.939224 0.336642 0.067308
vn -0.694390 0.639509 0.329926
vn -0.648127 -0.359225 0.671483
vn -0.694394 0.639506 0.329923
vn -0.938519 0.337972 0.070402
vn -0.162584 0.263084 -0.950975
vn -0.162445 0.263281 -0.950944
vn 0.858266 0.415907 -0.300666
vn 0.234914 0.134152 -0.962714
vn -0.828262 -0.545474 -0.128219
vn 0.234903 0.134153 -0.962717
vn 0.234922 0.134162 -0.962711
vn 0.372652 0.742700 -0.556351
vn 0.774328 0.570765 0.273209
vn -0.828246 -0.545493 -0.128239
vn -0.937389 0.342971 0.060608
vn -0.999594 -0.024615 -0.014359
vn 0.663926 0.668826 -0.334474
vn 0.052818 0.992327 -0.111793
vn 0.697779 0.670669 0.251612
vn 0.769292 0.605618 0.203511
vn 0.999454 -0.032945 -0.002320
vn 0.962690 0.269313 0.026427
vn 0.929400 0.345182 -0.130630
vn 0.936860 0.336587 -0.094878
vn -0.242949 0.969303 -0.037772
vn -0.382212 0.901237 -0.204168
vn -0.724174 -0.679396 -0.118296
vn 0.089003 0.989763 -0.111569
vn 0.380584 0.920712 -0.086289
vn 0.588595 0.807484 0.039051
vn -0.584444 0.696987 -0.415493
vn 0.552156 0.833334 -0.026046
vn 0.658979 0.748209 0.077012
vn 0.429532 -0.857617 0.282836
vn 0.433936 -0.858020 0.274776
vn 0.587512 -0.635783 0.500609
vn 0.620597 0.784090 0.007846
vn 0.069706 0.982021 -0.175428
vn 0.697612 -0.525543 0.486972
vn 0.760182 -0.290922 0.580937
vn 0.671378 0.740120 0.038385
vn 0.525150 0.819521 -0.229351
vn 0.762890 -0.286312 0.579676
vn 0.768498 -0.279062 0.575792
vn -0.849391 -0.358968 0.386881
vn 0.518544 0.762450 -0.387018
vn 0.822125 0.439450 0.361932
vn 0.657507 0.742508 0.127928
vn 0.750185 0.557959 0.354831
vn -0.810877 -0.584932 -0.018263
vn -0.876471 -0.380433 0.295073
vn 0.543632 0.817348 0.190808
vn 0.995451 0.082480 0.047700
vn 0.995277 0.096484 0.010738
vn 0.526290 0.826863 0.198281
vn 0.952147 0.040773 0.302910
vn -0.136337 0.485310 -0.863647
vn 0.912148 0.341229 0.227043
vn -0.322729 0.922830 -0.210310
vn -0.410849 0.819269 -0.400001
vn -0.174348 0.463387 -0.868836
vn 0.052654 0.534754 -0.843366
vn 0.070707 -0.997496 -0.001409
vn -0.533181 0.818878 -0.212501
vn -0.434472 0.864650 -0.252220
vn 0.590150 0.807283 0.004132
vn -0.055599 0.986087 0.156657
vn 0.113229 -0.571185 -0.812974
vn 0.113165 -0.571564 -0.812717
vn 0.773943 0.425181 0.469291
vn 0.685691 0.634928 0.355942
vn -0.915072 -0.333948 -0.226100
vn 0.380558 -0.569335 0.728720
vn -0.900401 -0.349789 -0.258701
vn -0.939019 -0.320251 -0.125230
vn 0.380558 -0.569335 0.728720
vn -0.900130 -0.344726 -0.266327
vn 0.080878 0.514716 -0.853537
vn -0.670051 0.494926 -0.553245
vn -0.735739 -0.583910 0.343128
vn -0.547249 -0.674456 0.495609
vn -0.734722 -0.599878 0.316750
vn -0.449354 0.699450 -0.555743
vn -0.448175 0.700154 -0.555809
vn -0.434618 0.705944 -0.559241
vn -0.945933 -0.314010 -0.081287
vn -0.926004 -0.319940 -0.200388
vn -0.462535 0.693797 -0.552004
vn 0.332430 -0.914755 0.229595
vn -0.848066 -0.255888 -0.464011
vn -0.849471 -0.007347 -0.527584
vn 0.645688 0.744414 0.170106
vn 0.528337 0.847996 0.041980
vn 0.639471 -0.692323 0.334314
vn 0.301107 -0.924630 0.233226
vn 0.246964 -0.951445 0.183741
vn -0.758708 -0.592388 -0.270994
vn -0.558906 0.731580 -0.390403
vn -0.331219 -0.940820 0.071773
vn -0.552247 -0.831585 -0.059079
vn -0.475931 0.804154 -0.356127
vn -0.684564 0.610164 -0.398839
vn 0.414751 0.907408 -0.067769
vn -0.310567 -0.782048 0.540323
vn 0.761719 -0.286461 0.581141
vn 0.220432 0.960383 0.170515
vn 0.813779 0.555089 0.172161
vn 0.066263 0.973703 -0.217974
vn -0.625574 0.708864 0.325837
vn 0.524469 0.821575 -0.223487
vn -0.625539 0.708893 0.325839
vn -0.625629 0.708810 0.325848
vn 0.106493 -0.752813 0.649563
vn 0.117430 -0.751820 0.648827
vn -0.577977 -0.815773 0.021388
vn 0.524044 0.822044 -0.222759
vn 0.558566 0.808745 0.184216
vn 0.564432 0.807706 0.170374
vn 0.579568 0.795979 0.174692
vn 0.372598 0.841761 -0.390653
vn 0.378850 0.921935 -0.080679
vn 0.707690 0.683213 0.179987
vn -0.383789 -0.866113 0.320240
vn -0.417752 -0.851896 0.315844
vn 0.824999 0.453681 0.336972
vn 0.629393 0.572395 -0.525574
vn -0.666202 -0.693992 0.273037
vn -0.750366 -0.452931 0.481461
vn -0.969886 0.105183 0.219676
vn 0.234721 -0.752315 0.615571
vn -0.972943 0.128513 0.192004
vn 0.770047 0.555813 -0.313208
vn -0.718239 -0.657465 0.227754
vn -0.555391 -0.799780 0.227800
vn -0.648083 -0.359317 0.671475
vn 0.667053 0.668034 -0.329804
vn -0.937010 0.342751 0.067338
vn -0.974361 0.164872 0.153093
vn -0.694381 0.639526 0.329911
vn -0.648102 -0.359280 0.671478
vn -0.648099 -0.359288 0.671476
vn -0.694383 0.639525 0.329910
vn -0.694392 0.639508 0.329924
vn -0.942018 -0.238406 0.236146
vn -0.162542 0.263126 -0.950970
vn -0.162494 0.263195 -0.950960
vn -0.162518 0.263183 -0.950959
vn 0.844719 0.428815 -0.320261
vn 0.826314 0.423020 0.371831
vn 0.234914 0.134156 -0.962714
vn 0.234921 0.134159 -0.962711
vn 0.234917 0.134159 -0.962712
vn 0.837112 0.445899 -0.316888
vn 0.370462 0.745989 -0.553406
vn 0.412087 0.797707 -0.440281
vn 0.837385 0.417904 -0.352340
vn -0.828255 -0.545483 -0.128228
vn -0.995317 -0.028373 0.092403
vn -0.994347 -0.093097 0.051058
vn -0.990148 -0.035446 0.135465
vn -0.828255 -0.545483 -0.128228
vn 0.936827 0.349601 -0.011628
vn 0.634352 0.773034 0.003874
vn -0.934125 0.352187 0.058090
vn -0.930305 0.362779 0.054080
vn -0.940367 0.333934 0.064795
vn -0.787367 -0.543156 0.291607
vn -0.945763 0.138708 -0.293755
f 134//134 32//32 130//130
f 38//38 32//32 134//134
f 5//5 91//91 1//1
f 4//4 131//131 129//129
f 1//1 91//91 101//101
f 13//13 136//136 173//173
f 173//173 169//169 53//53
f 136//136 169//169 173//173
f 34//34 33//33 132//132
f 132//132 33//33 36//36
f 34//34 132//132 36//36
f 37//37 2//2 133//133
f 37//37 133//133 35//35
f 3//3 35//35 133//133
f 130//130 38//38 134//134
f 133//133 2//2 3//3
f 39//39 93//93 92//92
f 129//129 167//167 4//4
f 166//166 101//101 102//102
f 102//102 91//91 5//5
f 101//101 91//91 102//102
f 99//99 138//138 137//137
f 10//10 138//138 99//99
f 139//139 99//99 98//98
f 98//98 99//99 137//137
f 137//137 138//138 5//5
f 98//98 137//137 140//140
f 139//139 98//98 140//140
f 93//93 144//144 92//92
f 144//144 43//43 92//92
f 40//40 41//41 141//141
f 141//141 142//142 40//40
f 41//41 142//142 141//141
f 6//6 97//97 49//49
f 42//42 163//163 47//47
f 93//93 94//94 95//95
f 94//94 7//7 95//95
f 43//43 144//144 143//143
f 144//144 93//93 95//95
f 143//143 95//95 7//7
f 144//144 95//95 143//143
f 150//150 147//147 8//8
f 8//8 147//147 145//145
f 147//147 45//45 148//148
f 147//147 148//148 145//145
f 160//160 8//8 145//145
f 159//159 145//145 148//148
f 160//160 145//145 159//159
f 47//47 163//163 51//51
f 163//163 42//42 164//164
f 163//163 164//164 51//51
f 97//97 6//6 96//96
f 146//146 149//149 44//44
f 45//45 147//147 150//150
f 46//46 135//135 9//9
f 135//135 151//151 9//9
f 46//46 151//151 135//135
f 49//49 97//97 96//96
f 154//154 153//153 155//155
f 153//153 48//48 155//155
f 48//48 153//153 154//154
f 50//50 160//160 159//159
f 159//159 148//148 50//50
f 157//157 52//52 158//158
f 157//157 158//158 156//156
f 161//161 157//157 156//156
f 52//52 157//157 161//161
f 168//168 169//169 136//136
f 139//139 10//10 99//99
f 139//139 39//39 92//92
f 103//103 92//92 43//43
f 152//152 11//11 164//164
f 152//152 164//164 42//42
f 164//164 11//11 51//51
f 129//129 131//131 166//166
f 102//102 138//138 10//10
f 102//102 10//10 139//139
f 103//103 139//139 92//92
f 102//102 5//5 138//138
f 165//165 103//103 43//43
f 54//54 11//11 152//152
f 54//54 152//152 12//12
f 104//104 54//54 12//12
f 42//42 12//12 152//152
f 102//102 139//139 103//103
f 102//102 103//103 166//166
f 14//14 110//110 105//105
f 105//105 103//103 165//165
f 110//110 103//103 105//105
f 100//100 170//170 13//13
f 104//104 15//15 54//54
f 12//12 16//16 104//104
f 12//12 42//42 170//170
f 53//53 169//169 162//162
f 169//169 168//168 107//107
f 162//162 107//107 108//108
f 169//169 107//107 162//162
f 15//15 104//104 171//171
f 171//171 104//104 16//16
f 16//16 175//175 171//171
f 175//175 55//55 174//174
f 171//171 174//174 15//15
f 175//175 174//174 171//171
f 109//109 167//167 129//129
f 107//107 168//168 167//167
f 100//100 16//16 12//12
f 100//100 12//12 170//170
f 166//166 106//106 129//129
f 129//129 106//106 109//109
f 109//109 106//106 17//17
f 167//167 109//109 107//107
f 107//107 109//109 172//172
f 172//172 108//108 107//107
f 166//166 103//103 106//106
f 100//100 13//13 173//173
f 105//105 111//111 14//14
f 165//165 111//111 105//105
f 100//100 241//241 16//16
f 106//106 180//180 17//17
f 109//109 188//188 172//172
f 188//188 100//100 173//173
f 172//172 173//173 53//53
f 188//188 173//173 172//172
f 110//110 181//181 236//236
f 176//176 110//110 14//14
f 181//181 110//110 176//176
f 177//177 109//109 17//17
f 106//106 114//114 180//180
f 103//103 114//114 106//106
f 116//116 178//178 113//113
f 116//116 113//113 117//117
f 116//116 117//117 178//178
f 177//177 188//188 109//109
f 183//183 59//59 115//115
f 56//56 112//112 18//18
f 187//187 57//57 186//186
f 61//61 18//18 112//112
f 61//61 112//112 56//56
f 62//62 57//57 187//187
f 62//62 187//187 186//186
f 193//193 179//179 121//121
f 114//114 236//236 180//180
f 188//188 177//177 123//123
f 188//188 123//123 100//100
f 121//121 179//179 122//122
f 236//236 114//114 110//110
f 114//114 103//103 110//110
f 241//241 100//100 123//123
f 58//58 182//182 185//185
f 182//182 19//19 184//184
f 185//185 184//184 60//60
f 182//182 184//184 185//185
f 119//119 193//193 121//121
f 119//119 121//121 20//20
f 119//119 27//27 193//193
f 23//23 192//192 190//190
f 189//189 59//59 183//183
f 189//189 183//183 115//115
f 68//68 118//118 124//124
f 63//63 64//64 227//227
f 63//63 227//227 85//85
f 192//192 191//191 190//190
f 191//191 128//128 125//125
f 190//190 125//125 23//23
f 191//191 125//125 190//190
f 21//21 24//24 126//126
f 21//21 126//126 127//127
f 126//126 24//24 127//127
f 69//69 194//194 25//25
f 26//26 25//25 194//194
f 26//26 194//194 69//69
f 72//72 205//205 209//209
f 22//22 120//120 195//195
f 195//195 120//120 198//198
f 23//23 125//125 128//128
f 66//66 196//196 197//197
f 118//118 67//67 124//124
f 31//31 197//197 196//196
f 31//31 196//196 66//66
f 67//67 68//68 124//124
f 227//227 228//228 85//85
f 64//64 228//228 227//227
f 122//122 20//20 121//121
f 86//86 198//198 222//222
f 199//199 235//235 27//27
f 207//207 201//201 200//200
f 204//204 202//202 203//203
f 203//203 211//211 204//204
f 211//211 73//73 210//210
f 204//204 210//210 77//77
f 211//211 210//210 204//204
f 204//204 77//77 202//202
f 201//201 206//206 200//200
f 206//206 207//207 200//200
f 70//70 208//208 213//213
f 208//208 71//71 214//214
f 213//213 214//214 75//75
f 208//208 214//214 213//213
f 65//65 215//215 212//212
f 215//215 76//76 216//216
f 212//212 216//216 74//74
f 215//215 216//216 212//212
f 239//239 237//237 88//88
f 77//77 237//237 239//239
f 77//77 210//210 237//237
f 210//210 73//73 238//238
f 237//237 238//238 88//88
f 210//210 238//238 237//237
f 217//217 240//240 30//30
f 240//240 217//217 89//89
f 199//199 27//27 119//119
f 199//199 119//119 20//20
f 235//235 199//199 20//20
f 29//29 219//219 218//218
f 219//219 79//79 220//220
f 218//218 220//220 78//78
f 219//219 220//220 218//218
f 80//80 229//229 221//221
f 86//86 222//222 22//22
f 231//231 28//28 232//232
f 232//232 233//233 231//231
f 231//231 233//233 28//28
f 230//230 234//234 82//82
f 87//87 234//234 230//230
f 81//81 224//224 223//223
f 224//224 84//84 225//225
f 223//223 225//225 83//83
f 224//224 225//225 223//223
f 80//80 221//221 226//226
f 221//221 229//229 226//226
f 222//222 198//198 120//120
f 222//222 120//120 22//22
f 177//177 30//30 240//240
f 240//240 89//89 123//123
f 240//240 123//123 177//177
f 209//209 90//90 72//72
f 205//205 90//90 209//209
f 236//236 181//181 176//176
f 89//89 241//241 123//123
