# decimated by Tools/decimate_anatomy.py from 1936 triangles (BodyParts3D, CC BY 4.0)
v -0.01099848 -0.00851926 0.04347323
v -0.01370974 -0.00536372 0.04938942
v -0.01238558 -0.00834154 0.04352706
v -0.01679675 -0.00718632 0.05350544
v -0.01689251 -0.00726143 0.05349619
v -0.01807322 -0.00588482 0.04715494
v -0.02690206 -0.00247461 0.07693041
v -0.02368320 -0.00373982 0.05863491
v -0.02695682 0.00485660 0.06241119
v -0.02847357 0.00598627 0.06294734
v -0.02605158 -0.00294131 0.07635340
v -0.02396409 -0.00444994 0.07207340
v -0.03167445 0.00679008 0.07157885
v -0.02835148 -0.00087384 0.07930500
v -0.02845975 -0.00112393 0.08006196
v -0.02870371 -0.00033385 0.07994964
v -0.03180679 0.00378244 0.08138917
v -0.03187604 0.00189418 0.08437651
v -0.03102213 0.00221801 0.08313976
v -0.03507224 0.00755167 0.08208248
v -0.03499162 0.00686862 0.08214211
v -0.03502453 0.00714585 0.08186444
v -0.03497229 0.00612867 0.08178340
v -0.03502605 0.00642106 0.08202641
v -0.03499857 0.00629447 0.08182828
v -0.03497322 0.00637098 0.08113180
v -0.03373499 0.00671813 0.07770270
v -0.03367598 0.00315400 0.08348333
v -0.03371648 0.00323297 0.08340174
v -0.03376793 0.00321171 0.08334696
v -0.03502038 0.00602104 0.08238297
v -0.03412941 0.00403145 0.08305342
v -0.01061548 -0.00858000 0.04242842
v -0.01214489 -0.00725001 0.04202617
v -0.01289253 -0.00516958 0.04286542
v -0.01473969 -0.00713949 0.05279286
v -0.01499481 -0.00769945 0.05019681
v -0.01177479 -0.00771467 0.04205079
v -0.01704825 -0.00678702 0.05442482
v -0.01766164 -0.00695019 0.05502524
v -0.01777807 -0.00677771 0.05534432
v -0.02528242 0.00328442 0.05455461
v -0.01671426 -0.00571816 0.05808862
v -0.02374352 -0.00421224 0.07214743
v -0.02666393 0.00490253 0.05781526
v -0.03096321 0.00626318 0.07182610
v -0.03148866 0.00700815 0.07128690
v -0.03114019 0.00692975 0.06990207
v -0.02824578 -0.00103325 0.07951384
v -0.02846909 -0.00077862 0.07924419
v -0.02848736 -0.00049839 0.07924528
v -0.03161843 0.00697372 0.07097566
v -0.02893921 -0.00009805 0.08081826
v -0.03109536 0.00280930 0.08291807
v -0.02854618 -0.00091812 0.07948920
v -0.02875564 -0.00068224 0.07998578
v -0.02896960 -0.00054887 0.07953066
v -0.02861292 -0.00075438 0.07934985
v -0.03353066 0.00485359 0.08164671
v -0.03398999 0.00663536 0.07851024
v -0.03430511 0.00581205 0.07927289
v -0.03160308 0.00202723 0.08436226
v -0.03249046 0.00199054 0.08381187
v -0.03221175 0.00205341 0.08412769
v -0.03267125 0.00224160 0.08376650
v -0.03477001 0.00568230 0.08175195
v -0.03473886 0.00532178 0.08178572
v -0.03469502 0.00533306 0.08196214
v -0.03509786 0.00689962 0.08194219
v -0.03501205 0.00691367 0.08211290
v -0.03476850 0.00628325 0.08072893
v -0.03493440 0.00636580 0.08225954
v -0.03496404 0.00614598 0.08181818
v -0.03498206 0.00643677 0.08121528
v -0.03458995 0.00631999 0.07969508
v -0.03475149 0.00614955 0.08093205
v -0.03468513 0.00507779 0.08047023
v -0.03461325 0.00591534 0.07987433
v -0.03367073 0.00305218 0.08344606
v -0.03375520 0.00331128 0.08334406
v -0.03471255 0.00532501 0.08244873
v -0.03453686 0.00464091 0.08261869
v -0.03497755 0.00627646 0.08213661
v -0.03496034 0.00632810 0.08231288
v -0.03488830 0.00583851 0.08166266
v -0.03498350 0.00621072 0.08190270
v -0.03487677 0.00573968 0.08110696
v -0.01083559 -0.00861093 0.04310917
v -0.01275943 -0.00532814 0.04433929
v -0.01299307 -0.00599107 0.04214455
v -0.01175162 -0.00811120 0.04554753
v -0.01246135 -0.00792177 0.04727334
v -0.01680336 -0.00714780 0.05355447
v -0.01713187 -0.00710489 0.05406121
v -0.01684463 -0.00722387 0.05350081
v -0.01640715 -0.00744147 0.05144489
v -0.01705157 -0.00623800 0.04657708
v -0.01741500 -0.00597854 0.04711492
v -0.01598026 -0.00598643 0.04411476
v -0.01764764 -0.00692327 0.05504654
v -0.02008163 -0.00496417 0.05119032
v -0.01784394 -0.00588674 0.04737244
v -0.02057295 -0.00108190 0.05035153
v -0.02484694 0.00263320 0.05395082
v -0.02604770 0.00430968 0.05655623
v -0.02378668 -0.00396736 0.05990723
v -0.01981992 -0.00501077 0.05002124
v -0.02808250 0.00553050 0.06369874
v -0.02909837 0.00614694 0.06425770
v -0.02339462 -0.00435446 0.07143694
v -0.02481203 -0.00307015 0.07358010
v -0.03160753 0.00702892 0.07110856
v -0.02622927 -0.00232705 0.07621421
v -0.02765208 -0.00133407 0.07820322
v -0.02637360 -0.00228279 0.07652007
v -0.02805834 -0.00108476 0.07891621
v -0.02098517 -0.00590911 0.05876999
v -0.02864471 -0.00061708 0.08038538
v -0.02843853 -0.00099323 0.07990687
v -0.02871650 -0.00041185 0.07993795
v -0.03049407 0.00239913 0.08228702
v -0.03149778 0.00228727 0.08417247
v -0.03091967 0.00228442 0.08299390
v -0.02742142 0.00138946 0.06064025
v -0.03516185 0.00775944 0.08221231
v -0.03521629 0.00793965 0.08223861
v -0.03510325 0.00736830 0.08222507
v -0.03507595 0.00757104 0.08207085
v -0.03501643 0.00707074 0.08213097
v -0.03470401 0.00614981 0.08075463
v -0.03466517 0.00581711 0.08133255
v -0.03443083 0.00546530 0.08153991
v -0.03477620 0.00611329 0.08078604
v -0.03442847 0.00637869 0.07980020
v -0.03364032 0.00303499 0.08353280
v -0.03285614 0.00211077 0.08257470
v -0.03337790 0.00357218 0.08294068
v -0.03346878 0.00341068 0.08311509
v -0.03373093 0.00312027 0.08348576
v -0.03372468 0.00441808 0.08239948
v -0.03385005 0.00331275 0.08323952
v -0.03474868 0.00515115 0.08201110
v -0.03488336 0.00591836 0.08167407
v -0.03491312 0.00601826 0.08175877
v -0.01087983 -0.00853933 0.04309453
v -0.01071844 -0.00865352 0.04235956
v -0.01078827 -0.00873316 0.04223023
v -0.01273504 -0.00585988 0.04262035
v -0.01738187 -0.00673269 0.05529930
v -0.01589910 -0.00738351 0.05192673
v -0.01592295 -0.00745577 0.05186949
v -0.01573240 -0.00756322 0.05143269
v -0.01853864 -0.00366541 0.04796243
v -0.01900078 -0.00404503 0.04769135
v -0.01695384 -0.00703205 0.05391519
v -0.01605787 -0.00719482 0.05242698
v -0.01761427 -0.00673230 0.05534374
v -0.02497242 0.00271734 0.05413881
v -0.02408972 0.00074278 0.05297934
v -0.02900332 0.00602372 0.06373889
v -0.02550797 0.00253134 0.05947083
v -0.03035383 0.00415562 0.07651665
v -0.03143342 0.00696144 0.07079791
v -0.02438323 -0.00414030 0.07301765
v -0.02638316 0.00434507 0.05693726
v -0.02567176 -0.00349989 0.07540484
v -0.03027838 -0.00121502 0.07886500
v -0.03077999 0.00626826 0.07077843
v -0.03162249 0.00689219 0.07141898
v -0.02990843 0.00650752 0.06661338
v -0.03062704 0.00669856 0.06827024
v -0.02854971 -0.00052674 0.07928971
v -0.02858337 -0.00091831 0.07973333
v -0.02833743 -0.00090268 0.07930171
v -0.03218083 0.00681304 0.07308374
v -0.03173898 0.00626646 0.07105862
v -0.03137347 0.00175257 0.08405773
v -0.03070724 0.00217086 0.08277509
v -0.02959688 0.00072012 0.08157724
v -0.02978708 0.00063806 0.08200066
v -0.03138668 0.00170370 0.08406009
v -0.02851715 -0.00093314 0.07961892
v -0.02847559 -0.00085672 0.07935257
v -0.02873990 -0.00045413 0.08000686
v -0.02874737 -0.00082683 0.07984831
v -0.02894337 -0.00047160 0.07956277
v -0.02901635 -0.00059466 0.07975115
v -0.02874856 -0.00054212 0.07938582
v -0.02881385 -0.00086701 0.07982484
v -0.02870402 -0.00096938 0.07966971
v -0.02868684 -0.00096615 0.07965739
v -0.02903428 -0.00084373 0.07954432
v -0.02900547 -0.00067311 0.07956819
v -0.03140021 0.00339067 0.08184556
v -0.03093007 0.00277013 0.08268213
v -0.03077808 0.00233251 0.08271806
v -0.03362499 0.00498396 0.08201674
v -0.03056109 0.00319466 0.08151794
v -0.03212182 0.00435984 0.08061689
v -0.03396718 0.00645061 0.07885191
v -0.03375602 0.00666806 0.07755227
v -0.03414174 0.00449529 0.07867178
v -0.03255619 0.00689642 0.07431660
v -0.03381595 0.00659752 0.07751172
v -0.03341295 0.00682219 0.07656891
v -0.03040600 0.00116235 0.08285544
v -0.03144785 0.00214850 0.08418728
v -0.03184784 0.00202561 0.08429150
v -0.03118147 0.00106654 0.08330831
v -0.03271811 0.00218005 0.08376244
v -0.03295288 0.00232701 0.08370955
v -0.03328193 0.00354141 0.08293802
v -0.03112400 0.00210213 0.08353232
v -0.03141346 0.00241463 0.08378973
v -0.03480249 0.00584434 0.08171582
v -0.03469661 0.00534981 0.08197939
v -0.03528674 0.00781767 0.08215389
v -0.03512896 0.00768959 0.08205476
v -0.03526538 0.00776478 0.08213741
v -0.03518554 0.00764805 0.08196887
v -0.03501993 0.00695962 0.08217310
v -0.03506836 0.00686686 0.08201877
v -0.03488098 0.00624530 0.08105659
v -0.03494961 0.00636172 0.08114320
v -0.03495835 0.00632606 0.08215145
v -0.03498023 0.00640739 0.08210373
v -0.03499637 0.00672414 0.08212144
v -0.03495792 0.00635175 0.08205432
v -0.03500532 0.00636822 0.08192564
v -0.03472660 0.00620989 0.08075209
v -0.03472645 0.00556641 0.08040942
v -0.03480172 0.00550794 0.08110606
v -0.03476958 0.00502691 0.08204746
v -0.03453285 0.00593253 0.07971000
v -0.03198269 0.00274956 0.08308574
v -0.03375214 0.00311052 0.08353012
v -0.03378516 0.00325167 0.08328592
v -0.03374969 0.00323595 0.08336525
v -0.03375223 0.00331525 0.08333153
v -0.03373220 0.00321707 0.08335962
v -0.03379143 0.00323919 0.08333685
v -0.03375094 0.00312009 0.08350858
v -0.03383867 0.00332948 0.08336423
v -0.03380089 0.00344997 0.08323127
v -0.03378783 0.00340365 0.08327531
v -0.03378331 0.00330180 0.08336995
v -0.03456156 0.00429097 0.08304707
v -0.03452106 0.00422868 0.08328832
v -0.03459943 0.00564089 0.08198414
v -0.03477678 0.00545625 0.08201458
v -0.03342306 0.00264701 0.07951160
v -0.03424557 0.00407159 0.08179287
v -0.03466954 0.00499787 0.08266069
v -0.03480397 0.00508111 0.08246807
v -0.03474635 0.00515057 0.08249775
v -0.03480599 0.00519160 0.08225896
v -0.03431429 0.00399307 0.08146608
v -0.03388008 0.00581674 0.07813210
v -0.03500437 0.00633127 0.08227710
v -0.03494852 0.00641727 0.08223076
v -0.03503910 0.00636138 0.08228553
v -0.03499388 0.00628332 0.08218775
v -0.03504026 0.00625852 0.08187054
v -0.03501175 0.00622485 0.08186031
v -0.03490052 0.00598011 0.08175210
v -0.03510793 0.00608759 0.08230775
v -0.03490192 0.00581217 0.08212932
vn 0.697927 -0.610999 0.373601
vn 0.690825 0.699915 0.181327
vn -0.384629 -0.915261 -0.119827
vn 0.619762 -0.648269 0.442314
vn 0.564335 -0.708101 0.424405
vn -0.838047 -0.384471 -0.387116
vn -0.128281 -0.975868 0.176707
vn -0.784072 -0.558853 -0.270026
vn 0.893815 0.403633 0.195384
vn -0.263610 0.934234 -0.240244
vn 0.862852 0.325451 0.386741
vn 0.525125 -0.711771 0.466505
vn -0.430591 0.817608 0.382242
vn 0.710883 0.683654 0.165112
vn 0.870827 0.310668 0.380980
vn 0.906967 -0.086969 -0.412124
vn 0.448556 0.826093 0.341128
vn -0.275989 0.563051 0.778976
vn 0.714855 0.292312 0.635245
vn 0.922796 0.166275 0.347563
vn 0.982472 0.128077 0.135444
vn 0.985120 0.155590 -0.073016
vn 0.229714 -0.092997 0.968805
vn 0.620870 0.747624 -0.235753
vn 0.828983 0.024856 0.558721
vn 0.515663 0.691500 -0.505885
vn -0.703078 0.698352 -0.134113
vn -0.038146 0.249582 0.967602
vn 0.730159 -0.113011 -0.673867
vn 0.763845 -0.092773 -0.638697
vn 0.557775 0.457987 0.692196
vn 0.583885 0.490636 0.646803
vn 0.452372 -0.858785 0.240515
vn 0.544936 0.514371 -0.662168
vn 0.465708 0.388523 -0.795089
vn 0.168680 -0.962077 0.214369
vn 0.625981 -0.641846 0.442924
vn 0.242296 0.628591 -0.739031
vn 0.594188 -0.682979 0.424830
vn 0.612973 -0.658790 0.436187
vn -0.066929 -0.984178 0.164055
vn -0.911982 -0.158840 -0.378231
vn 0.827888 0.470646 0.305111
vn 0.588277 -0.646408 0.485888
vn -0.919208 0.126506 -0.372898
vn 0.615264 0.775517 0.141502
vn -0.361655 0.851024 0.380742
vn -0.211483 0.956283 -0.201986
vn 0.800328 0.539283 0.262010
vn 0.403405 0.737171 0.542074
vn 0.512841 0.185691 0.838160
vn -0.931356 0.105617 -0.348454
vn 0.840756 0.503009 0.200277
vn 0.826254 0.415512 0.380335
vn 0.185461 0.896921 0.401418
vn -0.135600 0.678591 -0.721891
vn 0.957840 -0.221198 0.183340
vn 0.457268 0.106289 0.882955
vn 0.509344 0.812714 -0.282957
vn 0.304327 0.766026 0.566206
vn -0.893444 -0.137910 -0.427480
vn -0.210357 0.669597 0.712313
vn -0.190026 0.027729 0.981387
vn -0.274337 0.639708 0.717992
vn -0.191396 0.081187 0.978149
vn 0.531315 0.810752 -0.245735
vn -0.994889 -0.068998 0.073717
vn -0.756517 -0.243720 -0.606864
vn -0.940030 -0.062664 0.335287
vn -0.862097 0.018696 0.506398
vn -0.997219 0.021219 -0.071449
vn 0.937917 -0.336501 -0.084132
vn -0.711149 -0.613553 0.343249
vn 0.557955 0.687556 -0.464708
vn -0.890289 -0.147787 -0.430749
vn -0.968786 -0.146093 0.200275
vn -0.978312 -0.202793 -0.042193
vn -0.885886 -0.125588 -0.446581
vn -0.812575 0.002643 0.582851
vn 0.747279 -0.128788 -0.651911
vn -0.709131 0.314721 0.630939
vn -0.962068 -0.181465 -0.203704
vn 0.937492 -0.337635 -0.084334
vn -0.416336 -0.794625 0.441854
vn 0.488365 0.730819 -0.476868
vn -0.730059 -0.624052 0.278520
vn -0.951178 -0.308099 0.018295
vn 0.892018 0.406680 0.197269
vn 0.541742 0.839340 0.044987
vn 0.717233 0.466551 -0.517598
vn 0.927060 0.171013 0.333637
vn 0.927174 0.169040 0.334327
vn 0.675537 -0.572980 0.464051
vn 0.613002 -0.651939 0.446323
vn 0.554938 -0.717401 0.421164
vn -0.388486 -0.918077 -0.078830
vn -0.501397 -0.854400 -0.136389
vn -0.437941 -0.898129 -0.039653
vn -0.784350 -0.282088 -0.552468
vn 0.598949 -0.679591 0.423575
vn -0.505268 -0.856917 -0.101967
vn -0.287683 -0.953273 0.092247
vn 0.548162 0.828543 -0.114173
vn 0.647178 0.753458 -0.116022
vn 0.744100 0.663348 0.079269
vn -0.691270 -0.702959 -0.167314
vn -0.405425 -0.913966 -0.017241
vn 0.640918 0.764750 0.066198
vn -0.346524 0.901066 -0.260769
vn 0.796978 0.507521 0.327488
vn 0.706869 0.659698 0.255215
vn -0.433577 0.832178 0.345673
vn 0.782410 0.588112 0.204838
vn 0.755715 0.613412 0.229390
vn 0.853214 0.379915 0.357338
vn 0.721062 0.671022 0.172622
vn -0.373324 -0.927482 0.020150
vn 0.928577 0.039545 0.369027
vn 0.864658 0.307632 0.397151
vn 0.830073 -0.422743 -0.363685
vn 0.854734 0.481161 0.194714
vn 0.840304 0.388242 0.378362
vn 0.768113 0.346341 0.538563
vn -0.864286 -0.413682 -0.286140
vn 0.902882 0.158154 0.399739
vn 0.872992 0.198726 0.445414
vn 0.886866 0.142793 0.439408
vn 0.981373 0.166686 -0.095516
vn 0.975358 0.132940 0.176079
vn 0.693579 0.635146 0.339907
vn 0.785255 0.504615 0.358801
vn 0.544266 0.760349 0.354462
vn -0.996654 -0.073962 0.034778
vn 0.548335 0.750447 0.368995
vn -0.099962 0.180270 0.978525
vn -0.631705 -0.743452 0.219609
vn 0.293188 0.768513 0.568708
vn 0.299215 0.638194 0.709351
vn -0.719177 -0.495621 0.486975
vn 0.496839 0.496847 0.711543
vn -0.788995 -0.614383 -0.004601
vn -0.957506 0.240738 0.158829
vn 0.783488 0.360403 0.506217
vn 0.229219 -0.093376 0.968886
vn 0.478417 -0.845700 0.236448
vn 0.474946 -0.846607 0.240175
vn 0.493757 -0.833825 0.246860
vn 0.617299 0.474871 -0.627247
vn -0.006160 -0.981729 0.190184
vn 0.644318 -0.618156 0.450264
vn 0.628670 -0.639560 0.442421
vn 0.563139 -0.712333 0.418874
vn 0.255946 0.905487 -0.338505
vn -0.191753 0.639785 -0.744249
vn 0.617653 -0.650675 0.441731
vn 0.608609 -0.661344 0.438428
vn 0.576724 -0.715197 0.394820
vn -0.853971 -0.219963 -0.471540
vn -0.829713 -0.210441 -0.517003
vn -0.407099 0.869086 -0.280997
vn 0.747907 0.637613 0.184621
vn 0.874629 0.437046 0.209796
vn 0.437410 0.899025 0.020665
vn 0.563244 -0.672267 0.480431
vn -0.933097 -0.080630 -0.350470
vn 0.561576 -0.671610 0.483294
vn -0.719549 -0.685172 -0.113092
vn 0.677164 0.714573 0.175600
vn -0.405090 0.837157 0.367520
vn -0.269815 0.934819 -0.230895
vn -0.354054 0.899578 -0.255744
vn 0.451089 0.138870 0.881609
vn -0.132967 0.674461 -0.726238
vn 0.438386 0.714775 0.544898
vn -0.955193 0.131713 -0.265063
vn -0.941331 -0.060294 -0.332055
vn 0.754407 -0.082463 0.651206
vn 0.840833 0.443785 0.309927
vn 0.854620 0.470203 0.220304
vn 0.842867 0.426830 0.327707
vn 0.716122 -0.160737 0.679215
vn -0.158697 0.977518 0.138828
vn 0.423540 0.723464 0.545174
vn 0.698480 -0.690846 -0.186701
vn -0.137664 0.674857 -0.724995
vn 0.798811 -0.437004 -0.413435
vn 0.967743 -0.205548 0.145685
vn 0.419587 0.159236 0.893639
vn -0.148084 0.669934 -0.727502
vn 0.108438 0.914059 0.390815
vn 0.196690 0.886513 0.418816
vn 0.968187 -0.186778 0.166516
vn 0.965371 -0.204259 0.162288
vn 0.359336 0.786203 0.502754
vn 0.763213 0.567061 0.309754
vn 0.844459 0.447420 0.294455
vn 0.416119 0.458000 0.785545
vn 0.294317 0.773719 0.561013
vn 0.468092 0.777270 0.420407
vn 0.548940 0.764188 0.338645
vn -0.707862 0.692844 -0.137470
vn -0.879519 -0.402294 -0.254177
vn -0.943622 0.182148 -0.276404
vn -0.713596 0.686491 -0.139682
vn -0.707235 0.693366 -0.138066
vn 0.756575 -0.081480 0.648811
vn 0.758041 -0.069777 0.648464
vn -0.260589 0.614370 0.744743
vn -0.337722 -0.864328 0.372666
vn -0.083808 0.182503 0.979627
vn -0.365743 -0.130835 0.921474
vn 0.365969 0.723845 0.584906
vn 0.837857 0.435291 0.329418
vn 0.790667 0.585818 0.177942
vn 0.229599 -0.093177 0.968815
vn -0.938593 0.278531 0.203625
vn -0.922699 -0.295440 -0.247673
vn 0.849803 0.323497 -0.416156
vn -0.926021 -0.293267 -0.237653
vn -0.926484 -0.293367 -0.235720
vn -0.926051 -0.292857 -0.238045
vn -0.890444 -0.053305 0.451960
vn 0.552571 0.682082 -0.478988
vn 0.541590 0.687201 -0.484185
vn 0.937788 -0.336789 -0.084426
vn 0.660727 0.712077 -0.237458
vn -0.883158 -0.119074 0.453711
vn 0.937912 -0.336352 -0.084787
vn 0.685151 0.685164 -0.247223
vn 0.898369 0.349019 0.266681
vn -0.994677 -0.101740 0.016328
vn -0.987799 -0.155520 -0.008141
vn -0.990791 -0.131674 -0.031535
vn -0.890766 -0.140198 -0.432296
vn 0.371143 0.718269 0.588509
vn -0.593877 -0.766378 0.244897
vn -0.811424 0.003072 0.584450
vn 0.745892 -0.114505 -0.656151
vn -0.813355 0.000504 0.581768
vn -0.812320 0.002255 0.583208
vn -0.797917 -0.589041 -0.127903
vn -0.823465 -0.537527 -0.181579
vn -0.817302 -0.574555 0.043634
vn 0.453928 0.568102 0.686447
vn 0.248850 0.699675 0.669723
vn 0.771235 0.539192 0.338332
vn -0.804815 -0.593514 0.003774
vn -0.889622 -0.455595 0.031714
vn 0.518064 0.809759 -0.275500
vn -0.872445 -0.225446 -0.433605
vn -0.819582 -0.562310 -0.109968
vn -0.975230 -0.046497 0.216253
vn -0.709196 0.315821 0.630316
vn -0.707233 0.316585 0.632136
vn -0.708646 0.315670 0.631010
vn -0.890248 -0.252058 -0.379375
vn -0.984570 -0.166023 -0.055292
vn -0.964352 0.144838 -0.221465
vn -0.471796 -0.782429 0.406465
vn 0.682369 0.695707 -0.224422
vn -0.539432 -0.736494 0.408155
vn -0.468254 -0.800291 0.374530
vn -0.656177 -0.664380 0.357813
vn -0.709636 -0.628653 0.318138
vn 0.228222 -0.094012 0.969060
vn 0.511190 0.803301 -0.305602
vn -0.890740 -0.178416 -0.418031
f 1//1 88//88 91//91
f 88//88 2//2 91//91
f 146//146 33//33 145//145
f 146//146 145//145 147//147
f 146//146 147//147 33//33
f 89//89 2//2 88//88
f 148//148 35//35 34//34
f 34//34 90//90 148//148
f 35//35 148//148 90//90
f 1//1 91//91 92//92
f 92//92 2//2 43//43
f 91//91 2//2 92//92
f 38//38 36//36 3//3
f 38//38 3//3 99//99
f 96//96 3//3 36//36
f 89//89 154//154 153//153
f 97//97 99//99 3//3
f 103//103 2//2 153//153
f 153//153 2//2 89//89
f 102//102 6//6 97//97
f 99//99 159//159 38//38
f 97//97 6//6 99//99
f 36//36 7//7 149//149
f 149//149 117//117 41//41
f 149//149 96//96 36//36
f 149//149 41//41 96//96
f 100//100 155//155 39//39
f 39//39 155//155 156//156
f 156//156 150//150 37//37
f 155//155 150//150 156//156
f 4//4 151//151 93//93
f 151//151 37//37 150//150
f 93//93 150//150 155//155
f 151//151 150//150 93//93
f 4//4 95//95 151//151
f 95//95 5//5 152//152
f 151//151 152//152 37//37
f 95//95 152//152 151//151
f 157//157 100//100 39//39
f 40//40 100//100 157//157
f 40//40 5//5 94//94
f 100//100 94//94 155//155
f 40//40 94//94 100//100
f 155//155 94//94 93//93
f 94//94 5//5 95//95
f 93//93 95//95 4//4
f 94//94 95//95 93//93
f 3//3 96//96 106//106
f 102//102 97//97 98//98
f 101//101 98//98 97//97
f 107//107 102//102 101//101
f 102//102 98//98 101//101
f 102//102 107//107 6//6
f 103//103 161//161 2//2
f 96//96 41//41 117//117
f 3//3 106//106 97//97
f 106//106 8//8 97//97
f 8//8 101//101 97//97
f 6//6 8//8 124//124
f 6//6 124//124 99//99
f 107//107 101//101 8//8
f 124//124 159//159 99//99
f 158//158 104//104 154//154
f 104//104 103//103 153//153
f 104//104 153//153 154//154
f 96//96 117//117 106//106
f 45//45 42//42 165//165
f 104//104 161//161 103//103
f 105//105 161//161 104//104
f 105//105 104//104 158//158
f 42//42 159//159 124//124
f 7//7 117//117 149//149
f 161//161 105//105 108//108
f 161//161 108//108 9//9
f 10//10 160//160 109//109
f 42//42 124//124 165//165
f 111//111 110//110 2//2
f 110//110 43//43 2//2
f 9//9 162//162 161//161
f 9//9 108//108 46//46
f 12//12 44//44 164//164
f 113//113 111//111 161//161
f 111//111 2//2 161//161
f 106//106 117//117 167//167
f 168//168 46//46 108//108
f 163//163 108//108 105//105
f 168//168 108//108 163//163
f 48//48 170//170 171//171
f 170//170 10//10 109//109
f 171//171 109//109 160//160
f 170//170 109//109 171//171
f 119//119 15//15 11//11
f 115//115 49//49 119//119
f 115//115 119//119 11//11
f 111//111 113//113 115//115
f 110//110 115//115 11//11
f 111//111 115//115 110//110
f 164//164 166//166 12//12
f 44//44 166//166 164//164
f 167//167 117//117 7//7
f 167//167 124//124 106//106
f 106//106 124//124 8//8
f 13//13 169//169 112//112
f 169//169 47//47 112//112
f 47//47 169//169 13//13
f 46//46 168//168 163//163
f 52//52 45//45 176//176
f 45//45 165//165 176//176
f 165//165 124//124 176//176
f 118//118 119//119 49//49
f 15//15 119//119 118//118
f 49//49 116//116 14//14
f 183//183 174//174 50//50
f 55//55 174//174 183//183
f 55//55 183//183 191//191
f 183//183 50//50 191//191
f 58//58 51//51 172//172
f 113//113 161//161 53//53
f 113//113 114//114 115//115
f 114//114 14//14 116//116
f 115//115 116//116 49//49
f 114//114 116//116 115//115
f 258//258 203//203 176//176
f 203//203 52//52 175//175
f 203//203 175//175 176//176
f 176//176 175//175 52//52
f 19//19 178//178 123//123
f 209//209 167//167 7//7
f 161//161 162//162 121//121
f 161//161 121//121 53//53
f 120//120 16//16 184//184
f 185//185 173//173 189//189
f 56//56 173//173 185//185
f 55//55 191//191 182//182
f 191//191 190//190 182//182
f 120//120 184//184 186//186
f 16//16 120//120 186//186
f 172//172 51//51 188//188
f 56//56 185//185 189//189
f 191//191 50//50 190//190
f 193//193 57//57 187//187
f 193//193 187//187 192//192
f 57//57 193//193 192//192
f 58//58 172//172 188//188
f 195//195 121//121 162//162
f 19//19 123//123 54//54
f 123//123 178//178 196//196
f 123//123 196//196 54//54
f 179//179 196//196 178//178
f 54//54 196//196 179//179
f 195//195 53//53 121//121
f 198//198 194//194 235//235
f 17//17 137//137 194//194
f 194//194 212//212 235//235
f 137//137 212//212 194//194
f 60//60 199//199 198//198
f 199//199 17//17 194//194
f 199//199 194//194 198//198
f 201//201 27//27 205//205
f 201//201 205//205 204//204
f 176//176 202//202 258//258
f 202//202 176//176 124//124
f 214//214 122//122 213//213
f 181//181 177//177 207//207
f 62//62 208//208 18//18
f 181//181 206//206 177//177
f 206//206 207//207 177//177
f 122//122 180//180 213//213
f 180//180 214//214 213//213
f 64//64 18//18 208//208
f 64//64 208//208 62//62
f 65//65 28//28 210//210
f 65//65 210//210 63//63
f 212//212 137//137 138//138
f 212//212 138//138 235//235
f 167//167 251//251 202//202
f 124//124 167//167 202//202
f 132//132 85//85 17//17
f 23//23 144//144 215//215
f 144//144 265//265 215//215
f 129//129 22//22 128//128
f 129//129 128//128 20//20
f 125//125 20//20 126//126
f 20//20 128//128 218//218
f 128//128 22//22 218//218
f 221//221 219//219 220//220
f 21//21 129//129 127//127
f 129//129 20//20 125//125
f 127//127 125//125 126//126
f 129//129 125//125 127//127
f 221//221 217//217 219//219
f 219//219 217//217 220//220
f 69//69 222//222 70//70
f 130//130 131//131 132//132
f 130//130 132//132 134//134
f 130//130 230//230 131//131
f 76//76 71//71 133//133
f 224//224 223//223 26//26
f 74//74 223//223 224//224
f 74//74 224//224 26//26
f 83//83 225//225 72//72
f 132//132 131//131 143//143
f 132//132 143//143 85//85
f 22//22 129//129 21//21
f 24//24 260//260 226//226
f 85//85 143//143 25//25
f 225//225 228//228 72//72
f 83//83 228//228 225//225
f 226//226 229//229 24//24
f 260//260 229//229 226//226
f 25//25 143//143 131//131
f 70//70 222//222 227//227
f 222//222 69//69 227//227
f 134//134 199//199 200//200
f 200//200 199//199 60//60
f 60//60 134//134 200//200
f 199//199 132//132 17//17
f 134//134 132//132 199//199
f 134//134 230//230 130//130
f 71//71 231//231 133//133
f 231//231 76//76 133//133
f 232//232 87//87 77//77
f 61//61 78//78 234//234
f 61//61 234//234 75//75
f 75//75 234//234 78//78
f 204//204 27//27 201//201
f 28//28 135//135 210//210
f 135//135 139//139 211//211
f 210//210 211//211 63//63
f 135//135 211//211 210//210
f 235//235 138//138 245//245
f 138//138 137//137 244//244
f 138//138 244//244 245//245
f 241//241 136//136 242//242
f 136//136 209//209 236//236
f 136//136 236//236 242//242
f 79//79 239//239 240//240
f 79//79 240//240 237//237
f 240//240 239//239 237//237
f 238//238 29//29 30//30
f 28//28 139//139 135//135
f 236//236 243//243 242//242
f 242//242 141//141 241//241
f 243//243 141//141 242//242
f 167//167 209//209 136//136
f 141//141 136//136 241//241
f 167//167 136//136 141//141
f 32//32 245//245 246//246
f 244//244 32//32 246//246
f 244//244 246//246 245//245
f 29//29 238//238 80//80
f 80//80 238//238 30//30
f 140//140 244//244 137//137
f 32//32 244//244 140//140
f 82//82 251//251 247//247
f 248//248 247//247 243//243
f 248//248 82//82 247//247
f 141//141 243//243 247//247
f 141//141 247//247 167//167
f 251//251 167//167 247//247
f 140//140 137//137 197//197
f 140//140 197//197 31//31
f 59//59 66//66 249//249
f 59//59 249//249 266//266
f 142//142 67//67 232//232
f 233//233 232//232 77//77
f 142//142 232//232 233//233
f 216//216 142//142 233//233
f 67//67 142//142 216//216
f 31//31 32//32 140//140
f 255//255 81//81 254//254
f 68//68 256//256 250//250
f 251//251 252//252 257//257
f 81//81 255//255 253//253
f 255//255 254//254 253//253
f 251//251 257//257 202//202
f 257//257 252//252 258//258
f 257//257 258//258 202//202
f 84//84 261//261 259//259
f 84//84 259//259 262//262
f 259//259 261//261 262//262
f 66//66 266//266 249//249
f 86//86 263//263 264//264
f 73//73 86//86 264//264
f 73//73 264//264 263//263
f 23//23 265//265 144//144
f 232//232 67//67 87//87
f 68//68 250//250 267//267
f 250//250 256//256 267//267
