# decimated by Tools/decimate_anatomy.py from 10472 triangles (BodyParts3D, CC BY 4.0)
v -0.02741221 0.01274621 0.08200941
v -0.02679749 0.01225457 0.08846779
v -0.02571374 0.01200470 0.10409097
v -0.02425608 0.01113695 0.10124785
v -0.02684226 0.01262614 0.08581904
v -0.02485618 0.01104000 0.09073393
v -0.02572952 0.01255126 0.07217132
v -0.02383658 0.01144155 0.08777868
v -0.01976760 0.00772967 0.06056673
v -0.02311406 0.01324962 0.09340629
v -0.01930369 0.01268837 0.07128757
v -0.02396577 0.01468579 0.09076952
v -0.01850829 0.01405842 0.07827007
v -0.01831839 0.01693091 0.07910699
v -0.01542629 0.01276960 0.06409287
v -0.01545899 0.01357359 0.06460496
v -0.01582336 0.01554854 0.06727487
v -0.01569490 0.01536684 0.06658391
v -0.01789937 0.01444042 0.06796130
v -0.00796631 0.01098773 0.11110571
v -0.00677134 0.00985056 0.11134370
v -0.00987329 0.01566901 0.09829584
v -0.01178372 0.01685674 0.09254012
v -0.01006423 0.01684619 0.08290159
v -0.01117693 0.01664859 0.06859963
v -0.00699521 0.01412851 0.10863227
v -0.01230332 0.01845943 0.07844906
v -0.00924792 0.01647711 0.08915582
v -0.01250233 0.01860098 0.08892395
v -0.01200494 0.01832425 0.07584570
v -0.00811993 0.01699363 0.10314715
v -0.00947861 0.01982477 0.08365727
v -0.00537430 0.01712816 0.07377390
v -0.00512923 0.01711108 0.07393263
v -0.00556975 0.01772656 0.07410178
v -0.00577409 0.01792032 0.07440027
v -0.00818886 0.01803430 0.09750561
v -0.00358352 0.02055074 0.08987601
v -0.00486901 0.02076887 0.08955555
v -0.00347801 0.02058752 0.08784268
v -0.00578249 0.01817690 0.09500761
v -0.00180198 0.01812621 0.06861931
v -0.00351179 0.02052871 0.08783982
v -0.00321394 0.02063339 0.08714649
v -0.00323549 0.02072445 0.08715736
v -0.00316111 0.02068021 0.08720654
v -0.00266752 0.02083565 0.08721823
v -0.00219278 0.02077048 0.08525999
v -0.00230864 0.02083759 0.08426691
v -0.00242516 0.02077303 0.08414102
v -0.00220253 0.02081574 0.08526440
v -0.00216570 0.02079362 0.08529025
v -0.00244951 0.02096578 0.08447645
v -0.00279196 0.02073329 0.08411462
v -0.00222978 0.02080901 0.08384829
v -0.00242727 0.02080253 0.08365259
v -0.00176120 0.02087588 0.07766563
v -0.00160529 0.02076345 0.08117750
v -0.00139068 0.02036584 0.07617938
v -0.00155859 0.01934084 0.07106992
v -0.00164151 0.01940388 0.07096921
v -0.00176498 0.01948390 0.07093905
v -0.00138250 0.01942869 0.07067335
v -0.00129780 0.02085435 0.08007796
v -0.00106437 0.02045955 0.07676117
v 0.00539831 0.01403802 0.06529045
v 0.00553470 0.01419668 0.06499779
v 0.00597307 0.01465153 0.06451561
v 0.00584212 0.01469050 0.06451078
v 0.00593422 0.01467077 0.06437456
v 0.00787121 0.01462030 0.10447785
v 0.00498714 0.01704958 0.06438290
v 0.00580601 0.01470133 0.06475065
v 0.02078087 0.00193440 0.04814685
v 0.00906728 0.01770281 0.10641949
v 0.00774879 0.01582696 0.09950279
v 0.00600630 0.01793752 0.09249268
v 0.00737124 0.01675068 0.09720659
v 0.00424146 0.02010565 0.07762929
v 0.01063854 0.01631763 0.07520955
v 0.01214851 0.01406371 0.06853346
v 0.01839377 0.00905601 0.06273000
v 0.02178716 0.00249589 0.04852528
v 0.02391415 0.00272054 0.04911878
v 0.02297456 0.00261892 0.04862065
v 0.01042464 0.01806645 0.09575204
v 0.01024898 0.01790071 0.07385820
v 0.01369099 0.01717002 0.07061330
v 0.01864883 0.01044510 0.05992297
v 0.01115025 0.02058314 0.09588191
v 0.01198727 0.01931820 0.09409326
v 0.01235740 0.01826185 0.08692192
v 0.01277552 0.01498327 0.06651795
v 0.01865104 0.01131334 0.07130057
v 0.01813856 0.01312393 0.06139271
v 0.01347179 0.01999612 0.08145907
v 0.01364237 0.02010365 0.08103430
v 0.01366936 0.02034912 0.08153645
v 0.01373740 0.02016494 0.08104827
v 0.01389942 0.02016940 0.08097421
v 0.02262313 0.01126788 0.06941414
v 0.01804430 0.01308999 0.06167555
v 0.01849251 0.01436163 0.06387597
v 0.02386938 0.01021888 0.07036331
v 0.02131558 0.01086127 0.06739805
v 0.02164717 0.00125599 0.04923064
v 0.02138924 0.01526063 0.09280291
v 0.02075466 0.01478619 0.08621322
v 0.01828598 0.01749845 0.07247236
v 0.02230506 0.01181178 0.06896105
v 0.01948903 0.01840783 0.07741944
v 0.01921746 0.01805841 0.07654172
v 0.01907927 0.01806031 0.07556484
v 0.02650503 0.01403016 0.11723697
v 0.02639822 0.01420129 0.11747039
v 0.02376647 0.01742327 0.09873928
v 0.02680353 0.01379666 0.07336306
v 0.02745156 0.01400586 0.11622907
v 0.02131921 0.01812026 0.08473205
v 0.02409099 0.01961411 0.08951813
v 0.02252500 0.01938609 0.08300681
v 0.02823474 0.01630802 0.11881581
v 0.02839400 0.01678744 0.11851582
v 0.02850441 0.01704097 0.11783237
v 0.02932138 0.01528229 0.11648031
v 0.02737750 0.01693603 0.10773062
v 0.02704688 0.01800544 0.10491654
v 0.02896977 0.01609445 0.10768143
v 0.02650003 0.01853100 0.09698576
v 0.02427754 0.01912273 0.08899407
v 0.02716381 0.01842368 0.09468332
v 0.02876687 0.01621197 0.08668811
v 0.02909168 0.01755653 0.11316832
v 0.02932785 0.01761182 0.11233659
v 0.02806764 0.01828285 0.10632490
v 0.02864686 0.01800755 0.10781166
v 0.02813856 0.01696439 0.08789210
v -0.02459572 0.01128747 0.08848299
v -0.02597821 0.01157066 0.09404379
v -0.02543893 0.00927461 0.10654368
v -0.02534209 0.00931381 0.10681619
v -0.02519669 0.00956197 0.10693269
v -0.02527322 0.01014070 0.10732763
v -0.02502215 0.00905896 0.10708497
v -0.02546677 0.00907655 0.10565772
v -0.02506883 0.00911169 0.10698533
v -0.02545527 0.00921036 0.10574207
v -0.02526194 0.01045087 0.09539175
v -0.02644517 0.01214995 0.08778189
v -0.02657773 0.01267761 0.07651966
v -0.02521999 0.00944384 0.10678152
v -0.02558971 0.01169308 0.10582897
v -0.02577917 0.01168524 0.10531796
v -0.02569459 0.01176894 0.10419519
v -0.02564879 0.01186968 0.10417279
v -0.02336986 0.01188861 0.08064960
v -0.02599422 0.01227221 0.08282204
v -0.02612061 0.01263798 0.07380116
v -0.02602638 0.01251083 0.07345656
v -0.02494955 0.01201597 0.06943983
v -0.02194179 0.00920165 0.06759540
v -0.02288112 0.01016927 0.06450260
v -0.01975648 0.00831639 0.06350340
v -0.01995265 0.00778713 0.06030270
v -0.02503123 0.01262536 0.10333484
v -0.02466609 0.00926235 0.10137147
v -0.02460992 0.01220048 0.07111209
v -0.02068097 0.01492615 0.08634638
v -0.01919596 0.01300674 0.07114408
v -0.01821744 0.01453081 0.06913580
v -0.01914005 0.01405618 0.07026672
v -0.01877989 0.01342740 0.07046127
v -0.01965092 0.00995121 0.06369615
v -0.01919190 0.01388642 0.08058513
v -0.01694316 0.01333455 0.07083310
v -0.01803724 0.01342633 0.07156709
v -0.01637923 0.01334110 0.06838195
v -0.01585232 0.01296555 0.06596612
v -0.01840990 0.01699204 0.08001862
v -0.01582220 0.01488787 0.06595043
v -0.01562272 0.01408843 0.06541333
v -0.01540467 0.01403906 0.06450782
v -0.01550032 0.01398209 0.06442457
v -0.01554230 0.01404817 0.06441706
v -0.01790540 0.01700045 0.07718806
v -0.01694427 0.01653237 0.07219639
v -0.01633393 0.01643061 0.07005819
v -0.01621312 0.01641350 0.07012001
v -0.01631567 0.01594349 0.06964881
v -0.01613245 0.01613565 0.06928050
v -0.01563094 0.01493012 0.06576823
v -0.01570220 0.01510202 0.06579413
v -0.01552922 0.01512020 0.06588208
v -0.01576148 0.01571123 0.06703137
v -0.00779278 0.01076728 0.10989275
v -0.00939522 0.01223421 0.06386817
v -0.00923570 0.01224441 0.06396728
v -0.00727896 0.01183527 0.10976597
v -0.00765621 0.01138037 0.10907620
v -0.00813170 0.01178791 0.10758625
v -0.00780602 0.01378262 0.10182166
v -0.01186762 0.01713422 0.09182098
v -0.01007918 0.01443100 0.06504462
v -0.00767702 0.01505917 0.10886112
v -0.00861709 0.01755749 0.10084444
v -0.00566321 0.01669757 0.07233108
v -0.00543677 0.01732055 0.07384131
v -0.00409877 0.02056533 0.09034637
v -0.00384898 0.02061571 0.08945287
v -0.00401395 0.02025033 0.08594345
v -0.00407729 0.02022990 0.08574665
v -0.00158647 0.01905282 0.06996441
v -0.00324811 0.02079129 0.09020578
v -0.00336799 0.02061986 0.08840853
v -0.00317614 0.02072112 0.08936350
v -0.00306427 0.02066956 0.08953597
v -0.00339612 0.02070208 0.08866034
v -0.00300730 0.02079810 0.08940712
v -0.00394141 0.02026635 0.08558508
v -0.00310838 0.02073054 0.08759058
v -0.00316751 0.02065807 0.08754240
v -0.00319835 0.02073453 0.08749495
v -0.00274956 0.02080172 0.08728177
v -0.00265083 0.02073711 0.08731933
v -0.00312385 0.02069611 0.08573603
v -0.00308745 0.02075936 0.08570508
v -0.00276842 0.02088513 0.08507359
v -0.00319157 0.02064129 0.08571276
v -0.00254350 0.02089718 0.08406221
v -0.00233588 0.02077764 0.08416197
v -0.00237601 0.02089948 0.08422849
v -0.00268494 0.02090352 0.08492470
v -0.00207341 0.02095927 0.08387475
v -0.00262915 0.02088716 0.08363578
v -0.00261190 0.02071299 0.08360451
v -0.00260632 0.02094502 0.08410492
v -0.00245720 0.02095896 0.08395620
v -0.00234446 0.02094617 0.08389999
v -0.00227131 0.02088599 0.08390370
v -0.00222851 0.02082304 0.08366243
v -0.00223935 0.02093118 0.08367825
v -0.00215496 0.02087114 0.08406891
v -0.00205282 0.02093516 0.08386475
v -0.00199976 0.02115480 0.08113320
v -0.00167079 0.02092899 0.07954219
v -0.00133947 0.02076446 0.07921073
v -0.00157019 0.02035717 0.07635871
v -0.00151039 0.02053779 0.07614573
v -0.00153679 0.02036979 0.07613321
v -0.00150117 0.01961938 0.07181973
v -0.00157594 0.01933499 0.07100633
v -0.00171304 0.01947847 0.07094831
v -0.00142068 0.01945475 0.07064425
v 0.00661624 0.01535396 0.10758464
v -0.00147519 0.02095755 0.08060472
v -0.00124737 0.02073940 0.08022745
v -0.00128175 0.02082470 0.08056970
v -0.00146334 0.02093882 0.07995211
v -0.00102755 0.02043156 0.07585588
v 0.00602700 0.01466435 0.06429103
v 0.00549984 0.01408179 0.06532515
v 0.00544202 0.01423982 0.06534972
v 0.00552036 0.01411539 0.06527683
v 0.00559936 0.01414020 0.06501239
v 0.00569164 0.01419741 0.06495255
v 0.00576054 0.01460565 0.06468662
v 0.00565320 0.01457299 0.06539943
v 0.00583512 0.01449706 0.06464252
v 0.00591428 0.01463473 0.06515511
v 0.00583061 0.01448884 0.06480939
v 0.00599468 0.01481848 0.06433866
v 0.00588488 0.01474848 0.06446761
v 0.00595477 0.01457182 0.06443302
v 0.00598254 0.01464672 0.06435037
v 0.00429779 0.01854352 0.06938598
v 0.00478969 0.01755141 0.06532321
v 0.00647229 0.01581573 0.06451421
v 0.02088507 0.00169078 0.04839555
v 0.00602798 0.01794598 0.09191619
v 0.00418947 0.02051038 0.08067700
v 0.00603548 0.01858397 0.09195278
v 0.00422916 0.01954374 0.07504486
v 0.00419862 0.02033631 0.07963679
v 0.00512928 0.01754353 0.07006589
v 0.01018616 0.01750053 0.07357569
v 0.00969389 0.01751685 0.09564623
v 0.01032026 0.01827177 0.09320235
v 0.01265644 0.01679323 0.07695289
v 0.01203022 0.01414837 0.07003844
v 0.01191254 0.01326525 0.06706165
v 0.01145587 0.01430311 0.06682503
v 0.01203634 0.01393731 0.06603560
v 0.01214210 0.01421863 0.06597759
v 0.01885073 0.00924315 0.06405596
v 0.01871739 0.00932034 0.06078179
v 0.01894695 0.00924008 0.06288808
v 0.02361169 0.00287532 0.04894178
v 0.02336418 0.00264544 0.04881164
v 0.02326798 0.00280904 0.04872924
v 0.01015682 0.01862836 0.09088062
v 0.00509753 0.01709819 0.06480928
v 0.01331090 0.01605343 0.06808743
v 0.01320938 0.01547832 0.06735948
v 0.02060843 0.01695442 0.07973720
v 0.01883989 0.01037013 0.05920547
v 0.01877146 0.00963019 0.05969308
v 0.01886905 0.01056559 0.05936889
v 0.01953850 0.01280812 0.07634348
v 0.01781831 0.01467470 0.06415205
v 0.01318878 0.02012551 0.08639916
v 0.01256023 0.01583998 0.07354565
v 0.01351798 0.02009255 0.08175880
v 0.01242808 0.02042270 0.08246295
v 0.01350699 0.02021605 0.08196719
v 0.01344276 0.02008627 0.08172159
v 0.01349999 0.02029104 0.08162223
v 0.01349723 0.02026635 0.08164129
v 0.01371057 0.02020011 0.08191152
v 0.01361708 0.02011952 0.08174796
v 0.01380041 0.02023158 0.08167682
v 0.01335633 0.01972212 0.08119145
v 0.01403114 0.01930506 0.07745025
v 0.01382396 0.01977706 0.07890245
v 0.02003449 0.01064460 0.07080802
v 0.01836138 0.01445894 0.06395715
v 0.02143856 0.01140564 0.07188673
v 0.02233969 0.01160653 0.06939395
v 0.02421579 0.00060990 0.05146274
v 0.01845230 0.01731093 0.07162995
v 0.02283731 0.01189995 0.06932962
v 0.02210878 0.01319219 0.06872577
v 0.02290826 0.01167375 0.06918569
v 0.02310473 0.01502266 0.09725970
v 0.02010621 0.01859184 0.08023181
v 0.01985423 0.01875986 0.07912611
v 0.02002838 0.01867359 0.07978143
v 0.01931899 0.01815634 0.07693735
v 0.02010462 0.01883437 0.07952588
v 0.02646414 0.01413408 0.11757634
v 0.02863287 0.01408557 0.11513720
v 0.02738171 0.01409324 0.11629326
v 0.02843887 0.01397938 0.11549247
v 0.02126152 0.01936790 0.08344295
v 0.02798399 0.01632802 0.11883281
v 0.02853132 0.01582630 0.11834206
v 0.02821461 0.01661533 0.11890987
v 0.02854912 0.01722146 0.11730885
v 0.02972731 0.01526233 0.11384847
v 0.02511720 0.01913464 0.09822965
v 0.02797296 0.01765332 0.09129190
v 0.02857231 0.01714939 0.11738446
v 0.02928980 0.01761656 0.11291908
v 0.02875029 0.01797224 0.11001775
v 0.02779214 0.01865894 0.09945888
v 0.02796839 0.01846176 0.09871056
v -0.02555039 0.01121789 0.10527336
v -0.02565105 0.01202440 0.10411394
v -0.02417162 0.01153744 0.08784954
v -0.02624878 0.01227726 0.08308832
v -0.02234707 0.00965263 0.06385296
v -0.02091979 0.00854679 0.06590851
v -0.02163486 0.00893157 0.06295769
v -0.02644109 0.01179778 0.10341926
v -0.02606378 0.01482453 0.08486424
v -0.01983493 0.01348266 0.08486896
v -0.02042258 0.01371477 0.07948981
v -0.01904287 0.01319495 0.07068316
v -0.02245966 0.01398157 0.06970928
v -0.01892463 0.01315430 0.07069174
v -0.02113399 0.01658803 0.08022327
v -0.01559748 0.01310010 0.06521986
v -0.01637806 0.01615143 0.07019464
v -0.01623094 0.01640805 0.07017572
v -0.01648501 0.01541726 0.06758929
v -0.01586144 0.01559477 0.06748677
v -0.01582149 0.01553261 0.06725023
v -0.01582040 0.01550050 0.06723444
v -0.01577230 0.01559251 0.06703468
v -0.01575552 0.01556969 0.06694926
v -0.00909555 0.01328194 0.10837416
v -0.01191779 0.01729030 0.09228037
v -0.01136049 0.01733419 0.08462612
v -0.01097217 0.01605988 0.06768220
v -0.00973493 0.01294604 0.06483699
v -0.00899418 0.01263911 0.06620175
v -0.00950059 0.01268969 0.06425902
v -0.00844184 0.01628304 0.10709358
v -0.00801919 0.01986748 0.09323499
v -0.00709114 0.01327408 0.10890108
v -0.00964255 0.01664193 0.09928522
v -0.00965134 0.01657654 0.09930574
v -0.01209474 0.01793967 0.09123381
v -0.00896429 0.01561593 0.09529455
v -0.00950391 0.01640830 0.08723227
v -0.01152396 0.01709579 0.07104096
v -0.01160176 0.01752624 0.07232476
v -0.01211330 0.01840793 0.07652037
v -0.00917616 0.01647023 0.07852453
v -0.00631892 0.01513367 0.07073657
v -0.00728512 0.01693232 0.07023153
v -0.00651547 0.01626513 0.07618947
v -0.00569063 0.01626112 0.07262626
v -0.00530489 0.01705625 0.07401292
v -0.00550131 0.01756758 0.07388852
v -0.00547272 0.01745437 0.07376391
v -0.00518985 0.01735483 0.07330593
v -0.00492987 0.01714045 0.07538979
v -0.00559079 0.01788145 0.09170497
v -0.00595921 0.01768913 0.08260642
v -0.00710839 0.01724172 0.09742849
v -0.00374890 0.02078907 0.08935503
v -0.00373788 0.01949866 0.08234721
v -0.00197684 0.01746713 0.06788791
v -0.00337445 0.02061498 0.08994586
v -0.00396851 0.02033673 0.09152218
v -0.00315685 0.02067567 0.08988254
v -0.00352370 0.02053964 0.08774435
v -0.00322056 0.02067385 0.08715384
v -0.00318676 0.02066256 0.08717902
v -0.00320322 0.02070164 0.08717754
v -0.00219563 0.02079058 0.08526324
v -0.00217879 0.02078491 0.08527633
v -0.00218659 0.02080435 0.08527507
v -0.00249869 0.02096288 0.08409318
v -0.00243170 0.02092365 0.07804713
v -0.00221902 0.02058306 0.07626001
v -0.00276727 0.01884383 0.07639743
v -0.00156922 0.01960824 0.07260715
v -0.00154129 0.01950525 0.07177271
v -0.00150221 0.01964345 0.07194664
v -0.00160487 0.01883446 0.06963531
v -0.00157704 0.01921906 0.07061612
v -0.00146026 0.01940114 0.07095837
v -0.00186597 0.02112795 0.08102376
v -0.00131317 0.02087648 0.08073656
v 0.00565829 0.01458560 0.06520893
v 0.00555608 0.01421095 0.06501870
v 0.00574953 0.01454559 0.06476722
v 0.00589687 0.01466518 0.06451890
v 0.00903051 0.01858237 0.08472800
v 0.00492214 0.01706364 0.06467314
v 0.00496150 0.01698898 0.06466245
v 0.00723674 0.01721284 0.10962543
v 0.00602657 0.01792136 0.09242330
v 0.00570094 0.02025562 0.08926841
v 0.00567796 0.02019286 0.08912985
v 0.00530582 0.02024333 0.08697209
v 0.02212536 0.00106615 0.04972699
v 0.00875459 0.02000635 0.09637321
v 0.00950058 0.01678145 0.09825770
v 0.02164620 0.00274899 0.04851907
v 0.02294297 0.00263551 0.04861064
v 0.02409032 0.00234095 0.04960789
v 0.01070798 0.01818246 0.09609427
v 0.00964122 0.01685203 0.09767497
v 0.00981970 0.01845342 0.09299172
v 0.01100959 0.01872650 0.09076422
v 0.00656610 0.02005979 0.07056315
v 0.01197829 0.01731969 0.08334585
v 0.01185604 0.01690758 0.08163905
v 0.00854365 0.01687430 0.06970803
v 0.01213714 0.01481972 0.06644387
v 0.01852767 0.00974133 0.06119285
v 0.01873384 0.00999710 0.05946999
v 0.01918066 0.01030113 0.06012353
v 0.01877576 0.01001133 0.05923251
v 0.01141350 0.01886052 0.09753190
v 0.01146785 0.01866656 0.09630408
v 0.01041833 0.01764518 0.07342640
v 0.01852628 0.01109158 0.07081758
v 0.01875557 0.01128137 0.07149255
v 0.01805001 0.01308217 0.06173069
v 0.01358302 0.02014789 0.08187619
v 0.01345657 0.01992677 0.08131675
v 0.01355325 0.02026171 0.08139875
v 0.01372122 0.02005348 0.08101402
v 0.01369502 0.02010642 0.08103504
v 0.01363063 0.02004357 0.08109520
v 0.01375002 0.01980806 0.07896013
v 0.01959755 0.01316639 0.07711266
v 0.01922479 0.01119491 0.07090387
v 0.01811540 0.01488843 0.06627877
v 0.02090074 0.00283272 0.04898646
v 0.02371404 0.00696342 0.05525919
v 0.03005208 0.00378412 0.06219610
v 0.02115458 0.01186900 0.07544990
v 0.02019688 0.01397000 0.08138178
v 0.01866136 0.01759054 0.07402016
v 0.01775988 0.01529417 0.06632877
v 0.02022633 0.01266544 0.06412268
v 0.01924636 0.01068607 0.06015723
v 0.02370147 0.00286288 0.05659371
v 0.01920775 0.01772039 0.07586496
v 0.02005002 0.01842284 0.07979113
v 0.01894621 0.01784139 0.07535122
v 0.01870394 0.01778577 0.07435175
v 0.01954760 0.01825003 0.07786490
v 0.01851228 0.01430496 0.06370858
v 0.02425034 0.01406354 0.07319800
v 0.02782465 0.00680531 0.05623893
v 0.02642736 0.01428959 0.11764089
v 0.02663322 0.01395097 0.11727920
v 0.02152833 0.01532636 0.09366839
v 0.02456113 0.01636216 0.10085410
v 0.02423951 0.01480913 0.09971430
v 0.02110257 0.01680640 0.08477949
v 0.02706672 0.01345131 0.07227355
v 0.02882232 0.01192952 0.06982842
v 0.02762154 0.01403538 0.11564455
v 0.02236142 0.01728759 0.09324952
v 0.02848339 0.01612763 0.10188562
v 0.02610142 0.01555221 0.07971933
v 0.02656387 0.01686939 0.08475393
v 0.02685642 0.01426366 0.07483377
v 0.02821782 0.01675981 0.11774077
v 0.02964569 0.01484101 0.11539876
v 0.02738572 0.01637477 0.11176513
v 0.02724430 0.01776390 0.10553958
v 0.02739316 0.01734087 0.10689125
v 0.02562472 0.01427935 0.10316113
v 0.02727317 0.01819767 0.10500091
v 0.02440527 0.01909360 0.09665374
v 0.02845937 0.01580846 0.10366203
v 0.02674183 0.01708316 0.08614017
v 0.02697167 0.01610992 0.08107015
v 0.02997613 0.01230926 0.08611142
v 0.02910176 0.01464009 0.07847067
v 0.02952650 0.01327538 0.07668360
v 0.02828830 0.01792127 0.10890099
v 0.02790792 0.01811439 0.10719932
v 0.02856344 0.01798349 0.10952098
v 0.02894391 0.01785580 0.10989348
v 0.02768420 0.01703120 0.08795910
v -0.02358358 0.01155329 0.09035783
v -0.02510907 0.00921002 0.10692739
v -0.02526137 0.00948433 0.10690193
v -0.02530641 0.00967302 0.10703666
v -0.02524421 0.00985913 0.10713792
v -0.02535338 0.00919332 0.10582596
v -0.02531507 0.00911784 0.10632991
v -0.02525895 0.00918914 0.10671593
v -0.02543479 0.00913966 0.10533806
v -0.02515029 0.00920268 0.10392746
v -0.02463885 0.00955205 0.10178384
v -0.02518664 0.01092928 0.09372756
v -0.02536716 0.01146744 0.09122905
v -0.02639939 0.01225213 0.09014003
v -0.02661739 0.01243294 0.08729046
v -0.02621774 0.01267176 0.07952283
v -0.02543646 0.00951844 0.10584659
v -0.02542094 0.01147793 0.10459457
v -0.02509059 0.01041821 0.10371112
v -0.02572504 0.01169586 0.10538252
v -0.02584943 0.01173308 0.10438408
v -0.02571393 0.01175053 0.10456541
v -0.02466815 0.00978147 0.10192285
v -0.02550436 0.01228941 0.10411377
v -0.01966826 0.01321899 0.08449047
v -0.02462074 0.01138491 0.08808660
v -0.02463541 0.01162594 0.08732746
v -0.02529523 0.01187903 0.08530717
v -0.02543878 0.01185127 0.08504787
v -0.02545855 0.01218255 0.08422019
v -0.02464145 0.01209753 0.07604547
v -0.02618702 0.01267447 0.07863779
v -0.02588899 0.01254161 0.07292716
v -0.02527536 0.01212861 0.07080558
v -0.02383775 0.01117148 0.06664839
v -0.02378350 0.01095537 0.06668130
v -0.01981962 0.00764608 0.06060857
v -0.02028899 0.00796476 0.06002451
v -0.02515851 0.01398514 0.09304024
v -0.01977840 0.00752262 0.06081592
v -0.02338398 0.01393377 0.09142494
v -0.02087028 0.01513286 0.08669768
v -0.01932573 0.01464432 0.08044964
v -0.01974636 0.01605164 0.08407382
v -0.01847649 0.01393639 0.07812552
v -0.01907303 0.01303982 0.07157205
v -0.01541933 0.01350114 0.06420397
v -0.01584456 0.01345329 0.06475629
v -0.01746719 0.01452717 0.06800400
v -0.01903073 0.01344565 0.07029778
v -0.01896242 0.01327052 0.07059067
v -0.01772627 0.01335630 0.07008797
v -0.01767393 0.01648249 0.07496571
v -0.01926855 0.01353821 0.07497013
v -0.01876582 0.01304162 0.07276059
v -0.01645611 0.01338470 0.06907798
v -0.01561525 0.01293542 0.06530205
v -0.01857990 0.01688967 0.08087092
v -0.02011320 0.01594181 0.08507839
v -0.01834555 0.01689975 0.08000473
v -0.01834929 0.01694250 0.07975782
v -0.01781246 0.01687524 0.07707989
v -0.01736539 0.01542642 0.07246546
v -0.01569171 0.01442834 0.06576175
v -0.01571275 0.01493764 0.06603145
v -0.01564361 0.01528886 0.06627805
v -0.01631937 0.01475961 0.06649126
v -0.01574444 0.01490293 0.06595813
v -0.01622513 0.01359110 0.06817295
v -0.01781186 0.01430116 0.06838598
v -0.01571824 0.01482674 0.06575027
v -0.01543925 0.01396108 0.06445944
v -0.01546500 0.01403610 0.06446583
v -0.01570032 0.01288096 0.06548185
v -0.01612224 0.01307964 0.06727910
v -0.01677704 0.01330107 0.06933060
v -0.01525852 0.01330156 0.06388775
v -0.01771185 0.01695959 0.07666511
v -0.01743289 0.01694436 0.07553478
v -0.01727970 0.01639802 0.07372633
v -0.01701173 0.01674969 0.07344797
v -0.01761028 0.01554177 0.07353799
v -0.01715150 0.01618055 0.07250722
v -0.01630834 0.01637908 0.07006709
v -0.01609004 0.01586652 0.06870950
v -0.01608745 0.01577475 0.06855841
v -0.01604849 0.01573050 0.06836706
v -0.01579312 0.01513894 0.06671460
v -0.01570267 0.01457974 0.06603691
v -0.01639898 0.01625639 0.07003168
v -0.01582639 0.01562628 0.06740994
v -0.01577301 0.01563911 0.06704959
v -0.01563977 0.01529835 0.06604110
v -0.01566424 0.01503057 0.06578730
v -0.01583991 0.01563995 0.06702974
v -0.01565522 0.01530291 0.06634860
v -0.01559145 0.01501800 0.06581730
v -0.01560666 0.01510378 0.06583984
v -0.01577147 0.01566557 0.06701597
v -0.01578580 0.01568282 0.06702782
v -0.00701176 0.00988137 0.11123002
v -0.00696909 0.00990172 0.11117663
v -0.00696891 0.01020010 0.11087847
v -0.00747669 0.01076184 0.11002534
v -0.00852458 0.01271868 0.06519209
v -0.00942849 0.01307232 0.06362258
v -0.00932342 0.01224944 0.06389794
v -0.00933733 0.01268930 0.06357404
v -0.00952007 0.01320840 0.06368339
v -0.00933341 0.01236102 0.06373522
v -0.00926722 0.01233928 0.06381256
v -0.00728052 0.01072868 0.11017186
v -0.00716024 0.01080183 0.11034239
v -0.00773826 0.01114697 0.10916853
v -0.00705405 0.01097665 0.11041075
v -0.00800082 0.01173181 0.10789729
v -0.00760582 0.01214690 0.10743347
v -0.01151205 0.01656650 0.09261862
v -0.01153358 0.01672184 0.09166165
v -0.01161634 0.01708457 0.09069494
v -0.01104129 0.01657645 0.07724837
v -0.01070599 0.01571041 0.07332130
v -0.00951943 0.01232525 0.06540340
v -0.00995283 0.01437048 0.06491145
v -0.00994280 0.01451676 0.06500123
v -0.00978580 0.01396029 0.06438201
v -0.00939729 0.01310369 0.06360642
v -0.00768063 0.01531402 0.10809445
v -0.00775580 0.01383229 0.10188775
v -0.00845737 0.01554492 0.09551126
v -0.01233476 0.01867343 0.07877523
v -0.01224235 0.01868186 0.07814946
v -0.01235898 0.01881244 0.07959937
v -0.00733308 0.01438487 0.06683262
v -0.00828449 0.01703580 0.10338662
v -0.00839953 0.01757228 0.10065330
v -0.00700008 0.01677405 0.09860209
v -0.00824675 0.01779191 0.09938139
v -0.00769077 0.01710440 0.09931916
v -0.00674285 0.01607816 0.09770461
v -0.00660672 0.01502212 0.06830635
v -0.00798595 0.01370653 0.06586993
v -0.00593798 0.01679034 0.09514165
v -0.00712461 0.01627646 0.09982903
v -0.00538630 0.01706667 0.07402497
v -0.00539377 0.01716245 0.07385021
v -0.00549405 0.01706707 0.07342798
v -0.00418304 0.02013173 0.09127109
v -0.00461778 0.01979951 0.09235379
v -0.00411525 0.01853821 0.08324344
v -0.00277925 0.01866572 0.07549264
v -0.00256285 0.01613872 0.07162726
v -0.00255706 0.01620360 0.07131070
v -0.00230478 0.01645607 0.06756091
v -0.00257597 0.01604883 0.07055698
v -0.00384487 0.01724668 0.07751660
v -0.00192115 0.01724471 0.06637838
v -0.00372344 0.02056810 0.08952600
v -0.00331932 0.02076765 0.08833044
v -0.00364383 0.02059818 0.08888233
v -0.00354443 0.02055005 0.08982752
v -0.00442674 0.01997650 0.08856336
v -0.00381286 0.02042857 0.08821869
v -0.00373160 0.02043441 0.08696106
v -0.00381179 0.02037208 0.08672374
v -0.00372136 0.02043546 0.08731813
v -0.00366914 0.02038935 0.08553965
v -0.00281973 0.01875374 0.07644449
v -0.00175673 0.01807810 0.06812140
v -0.00176756 0.01835452 0.06844339
v -0.00190439 0.01806103 0.06783631
v -0.00182528 0.01790343 0.06743264
v -0.00178740 0.01775087 0.06689315
v -0.00186114 0.01768888 0.06664116
v -0.00395310 0.02059299 0.09116523
v -0.00350711 0.02075978 0.09032751
v -0.00336557 0.02084338 0.08983173
v -0.00312129 0.02070299 0.08943804
v -0.00335003 0.02068324 0.08847995
v -0.00308093 0.02075979 0.08939472
v -0.00304548 0.02072600 0.08947381
v -0.00354426 0.02050995 0.08769248
v -0.00329850 0.02069312 0.08827293
v -0.00314407 0.02069208 0.08756047
v -0.00314895 0.02072887 0.08754814
v -0.00318123 0.02070219 0.08751932
v -0.00271050 0.02081301 0.08725678
v -0.00266429 0.02079264 0.08726368
v -0.00269312 0.02076884 0.08729886
v -0.00279904 0.02078976 0.08503687
v -0.00301309 0.02075221 0.08548495
v -0.00165266 0.02095115 0.07950976
v -0.00267131 0.02091286 0.08485002
v -0.00275757 0.02090001 0.08476188
v -0.00250776 0.02088959 0.08467247
v -0.00303207 0.02056795 0.08478548
v -0.00212119 0.02095949 0.08398267
v -0.00246475 0.02080815 0.08472730
v -0.00240177 0.02085373 0.08422851
v -0.00237631 0.02079576 0.08416609
v -0.00237746 0.02096641 0.08427578
v -0.00237197 0.02087516 0.08426112
v -0.00226665 0.02084656 0.08432919
v -0.00234159 0.02086539 0.08424645
v -0.00254345 0.02084352 0.08364140
v -0.00254582 0.02092130 0.08348467
v -0.00251424 0.02076878 0.08363160
v -0.00261063 0.02079038 0.08361988
v -0.00258198 0.02095067 0.08413589
v -0.00285130 0.02087631 0.08488891
v -0.00249455 0.02084597 0.08405818
v -0.00244915 0.02079864 0.08396694
v -0.00244239 0.02096976 0.08402942
v -0.00230444 0.02085078 0.08381810
v -0.00222618 0.02088588 0.08368021
v -0.00220790 0.02085344 0.08405540
v -0.00221658 0.02086833 0.08397748
v -0.00215513 0.02087519 0.08374824
v -0.00213938 0.02092831 0.08377697
v -0.00260611 0.02110623 0.08286309
v -0.00236000 0.02105418 0.08244720
v -0.00151560 0.02093506 0.08143244
v -0.00168244 0.02077568 0.08129581
v -0.00153842 0.02083081 0.08052197
v -0.00150008 0.02076969 0.07937269
v -0.00124028 0.02040480 0.07642336
v -0.00184421 0.02053224 0.07566872
v -0.00149919 0.02046223 0.07612708
v -0.00316984 0.01983912 0.07445879
v -0.00143658 0.01994642 0.07282223
v -0.00146129 0.01958157 0.07157621
v -0.00142262 0.01963662 0.07156596
v -0.00145892 0.01942304 0.07108392
v -0.00164815 0.01941072 0.07097091
v -0.00157324 0.01925271 0.07076737
v -0.00149971 0.01952955 0.07086778
v -0.00186613 0.01938544 0.07068124
v -0.00211743 0.01769117 0.06691387
v -0.00142281 0.01956988 0.07125036
v -0.00145577 0.01951549 0.07090985
v 0.01010480 0.01610697 0.10251796
v -0.00151978 0.02095150 0.08059707
v -0.00143241 0.02081064 0.08065340
v -0.00151465 0.02085112 0.08056457
v -0.00140911 0.02091824 0.08094738
v -0.00126317 0.02079156 0.08037077
v -0.00131323 0.02087194 0.08010489
v -0.00124308 0.02080143 0.08010416
v -0.00149110 0.02088257 0.07936169
v -0.00125413 0.02047338 0.07599058
v -0.00132141 0.02040353 0.07601716
v -0.00104578 0.02044831 0.07629124
v 0.00641819 0.01534506 0.06483850
v 0.00555162 0.01412949 0.06543306
v 0.00559857 0.01417069 0.06611004
v 0.00541810 0.01401805 0.06524351
v 0.00548472 0.01420288 0.06532136
v 0.00563896 0.01423459 0.06494506
v 0.00555825 0.01441174 0.06537286
v 0.00557261 0.01431359 0.06533175
v 0.00572656 0.01435437 0.06522045
v 0.00570995 0.01439401 0.06496809
v 0.00590901 0.01458837 0.06456876
v 0.00584444 0.01458555 0.06458125
v 0.00573775 0.01440199 0.06460436
v 0.00576778 0.01459929 0.06527211
v 0.00578153 0.01453629 0.06518959
v 0.00584770 0.01469085 0.06487682
v 0.00595171 0.01473859 0.06437234
v 0.00584282 0.01449635 0.06450601
v 0.00741143 0.01687614 0.10966975
v 0.00740174 0.01529374 0.10330795
v 0.00739142 0.01529753 0.10336366
v 0.00564459 0.01754510 0.07640356
v 0.00659116 0.01771009 0.09237149
v 0.00427760 0.01914996 0.07254841
v 0.00474296 0.01745590 0.06539897
v 0.00465894 0.01748464 0.06571339
v 0.00534421 0.01657530 0.06394954
v 0.00652280 0.01569191 0.06476036
v 0.00840163 0.01691698 0.06924893
v 0.02074269 0.00187638 0.04822601
v 0.02072587 0.00173861 0.04835084
v 0.02171564 0.00228662 0.04837045
v 0.02186274 0.00240018 0.04835666
v 0.00749075 0.01627681 0.09850838
v 0.00894091 0.01752934 0.09581215
v 0.00447784 0.02042001 0.08221798
v 0.00420745 0.02045134 0.07996901
v 0.00602081 0.01954732 0.09008765
v 0.00422172 0.02017149 0.07837621
v 0.00424729 0.01955926 0.07505859
v 0.00419163 0.02043428 0.08026669
v 0.00530570 0.02020117 0.08591711
v 0.02236492 0.00085270 0.05007523
v 0.00752699 0.01763274 0.09373535
v 0.01006589 0.01793824 0.09539299
v 0.00670105 0.01566670 0.06554237
v 0.00993114 0.01743832 0.07337062
v 0.01228474 0.01424050 0.06872210
v 0.01207411 0.01555094 0.07592487
v 0.01188704 0.01547991 0.07575684
v 0.01232209 0.01600459 0.07755403
v 0.01236818 0.01546343 0.07322940
v 0.01154866 0.01498061 0.06728481
v 0.01210967 0.01414620 0.06599634
v 0.01215612 0.01409849 0.06601510
v 0.01234217 0.01420896 0.06604767
v 0.01905800 0.00988789 0.05992454
v 0.02089331 0.01061145 0.06648010
v 0.02367005 0.00278763 0.04897340
v 0.02278380 0.00266379 0.04851443
v 0.01291215 0.01510028 0.06659623
v 0.01318397 0.01564329 0.06746207
v 0.01832451 0.01093067 0.06889821
v 0.01836440 0.01086620 0.06766565
v 0.01872659 0.01071162 0.05942105
v 0.01882413 0.00959317 0.05984296
v 0.01923216 0.01068859 0.06012382
v 0.01878995 0.01022492 0.05914334
v 0.01888574 0.00968337 0.05958633
v 0.02490535 0.00292445 0.04930226
v 0.01186777 0.01970963 0.09636083
v 0.01929137 0.01327878 0.07511020
v 0.01793522 0.01435537 0.06315051
v 0.01800313 0.01322969 0.06147894
v 0.01768153 0.01360763 0.06173112
v 0.01841389 0.01240793 0.06081036
v 0.01796469 0.01319714 0.06148011
v 0.01832098 0.01142517 0.05946695
v 0.01853997 0.01149007 0.05998945
v 0.01799184 0.01372633 0.06227130
v 0.02577329 0.00451636 0.05186600
v 0.02686447 0.00223310 0.05170649
v 0.02833464 0.00318334 0.05214952
v 0.01290596 0.01840727 0.08153341
v 0.01248362 0.01631328 0.07565090
v 0.01314356 0.01890301 0.08001704
v 0.01386520 0.02042377 0.08275296
v 0.01330166 0.02119858 0.08954146
v 0.01265754 0.02038479 0.08233012
v 0.01362841 0.01985712 0.07923984
v 0.01386805 0.02037015 0.08265206
v 0.01343501 0.02006442 0.08202080
v 0.01345678 0.02081963 0.08623052
v 0.01348133 0.02019701 0.08166982
v 0.01358362 0.02029955 0.08159884
v 0.01376723 0.02006783 0.08099270
v 0.01357943 0.02023177 0.08203062
v 0.01351871 0.02010971 0.08172809
v 0.01355979 0.02019012 0.08169387
v 0.01371653 0.02029586 0.08160033
v 0.01366685 0.02025163 0.08165539
v 0.01381711 0.02010651 0.08099238
v 0.01362889 0.02023970 0.08176010
v 0.01240139 0.02043098 0.08278027
v 0.01317376 0.02041730 0.08210705
v 0.01362218 0.02031366 0.08152737
v 0.01382341 0.02011578 0.08101464
v 0.01348599 0.02007102 0.08075884
v 0.01319975 0.01780625 0.07657775
v 0.01394854 0.01945216 0.07780783
v 0.01352466 0.01778607 0.07439459
v 0.01393249 0.01931891 0.07706635
v 0.01376963 0.01898866 0.07772590
v 0.01998352 0.01032559 0.06859131
v 0.01812853 0.01659755 0.06906324
v 0.01783209 0.01607759 0.06795780
v 0.01777831 0.01528754 0.06580937
v 0.01836289 0.01538325 0.06613696
v 0.01816853 0.01483516 0.06483233
v 0.02244700 0.01155247 0.06937775
v 0.02255676 0.01163541 0.06932421
v 0.02250972 0.01138490 0.06941748
v 0.02283090 0.01159610 0.06903181
v 0.02267907 0.01163111 0.06927979
v 0.02276553 0.01132518 0.06913744
v 0.03051895 0.00512217 0.06005525
v 0.02060118 0.01364358 0.08253395
v 0.02064279 0.01428257 0.08519333
v 0.01825808 0.01686463 0.06991776
v 0.01904131 0.01749837 0.07248996
v 0.02240384 0.01324389 0.06919876
v 0.02086199 0.01242542 0.06606904
v 0.02280335 0.01172041 0.06925787
v 0.02097927 0.01916325 0.08318030
v 0.02014805 0.01879697 0.08014982
v 0.02038461 0.01899419 0.08132898
v 0.02011674 0.01870397 0.08008404
v 0.02043071 0.01823636 0.07638568
v 0.01919385 0.01811332 0.07623481
v 0.01886323 0.01785232 0.07494083
v 0.02639972 0.01420900 0.11750631
v 0.02893472 0.01552952 0.11771055
v 0.02019291 0.01861725 0.08059242
v 0.02634574 0.01413428 0.07466851
v 0.02366934 0.01201404 0.06798854
v 0.02580127 0.01456506 0.07616549
v 0.02663496 0.01394602 0.11730422
v 0.02704157 0.01394287 0.11679476
v 0.02747041 0.01404083 0.11611885
v 0.02781144 0.01402001 0.11576203
v 0.02645804 0.01432591 0.11750323
v 0.02798134 0.01400577 0.11568045
v 0.02837840 0.01669674 0.11289183
v 0.02806870 0.01401740 0.11271800
v 0.02857215 0.01559876 0.10762501
v 0.02211163 0.01923669 0.08798662
v 0.02326575 0.01939499 0.09200429
v 0.02345966 0.01924901 0.08556158
v 0.02613516 0.01540361 0.07926566
v 0.02633563 0.01535537 0.07889630
v 0.02807933 0.01630542 0.11882132
v 0.02824385 0.01658629 0.11886578
v 0.02814872 0.01646551 0.11885688
v 0.02837650 0.01691740 0.11821712
v 0.02829545 0.01607959 0.11864798
v 0.02837939 0.01672169 0.11861940
v 0.02865875 0.01707901 0.11753123
v 0.02733515 0.01625958 0.11161687
v 0.02727034 0.01858317 0.10335262
v 0.02819184 0.01821633 0.10655833
v 0.02629154 0.01876605 0.09977937
v 0.03046841 0.00448254 0.06409051
v 0.02626076 0.01840119 0.09512649
v 0.02828985 0.01713111 0.08968359
v 0.02983380 0.01668210 0.11503390
v 0.02926437 0.01671806 0.11727627
v 0.02955277 0.01658764 0.11670976
v 0.02935425 0.01692109 0.11621211
v 0.02984313 0.01679288 0.11464870
v 0.02933824 0.01640912 0.11010811
v 0.02906244 0.01777472 0.11138376
v 0.02867685 0.01801820 0.10885443
v 0.02824777 0.01808122 0.10795302
v 0.02841499 0.01809480 0.10703945
v 0.02844417 0.01713854 0.10317596
v 0.02778303 0.01866941 0.09845869
v 0.02782462 0.01860886 0.09902826
v 0.02760024 0.01858344 0.09683383
v 0.02814443 0.01821198 0.09465281
v 0.02757725 0.01805013 0.09913809
vn -0.319432 -0.945279 -0.066410
vn -0.997442 0.049635 -0.051442
vn -0.403435 0.262094 0.876668
vn 0.915011 0.287720 0.282792
vn -0.793955 -0.606545 0.041696
vn -0.563169 -0.823398 -0.069682
vn -0.910737 -0.365976 -0.191361
vn -0.608395 -0.793462 0.016566
vn 0.584078 -0.623524 -0.519684
vn 0.165761 0.943065 0.288360
vn 0.796137 -0.578563 0.177286
vn 0.634824 0.724691 0.267993
vn 0.943967 0.212438 0.252580
vn 0.821966 0.568803 0.028896
vn -0.628495 -0.775352 -0.061832
vn 0.977708 -0.013886 0.209509
vn 0.925585 -0.297010 0.234684
vn 0.934942 -0.266902 0.233768
vn -0.134041 0.402218 -0.905679
vn -0.909515 -0.414751 0.027651
vn -0.378730 -0.848032 -0.370683
vn -0.823156 -0.567218 0.026051
vn -0.957754 -0.109859 0.265777
vn 0.133450 -0.990781 0.023317
vn -0.987597 0.048626 -0.149290
vn 0.991489 -0.123900 -0.039974
vn -0.770522 -0.637166 -0.017787
vn 0.464571 -0.877725 -0.117359
vn -0.622565 0.772208 -0.126914
vn -0.810139 0.551596 -0.198534
vn 0.800535 0.588176 0.114861
vn -0.468879 0.863307 -0.186689
vn 0.953757 0.045331 -0.297141
vn 0.004546 -0.998621 0.052304
vn -0.732649 0.411666 -0.541994
vn -0.162015 0.918525 -0.360642
vn 0.606438 0.670543 0.427323
vn -0.421361 -0.898390 0.123892
vn -0.000078 0.995005 0.099827
vn 0.859014 -0.485381 -0.162791
vn 0.953741 -0.268028 0.136159
vn 0.891367 -0.428738 0.147133
vn 0.858932 -0.485544 -0.162738
vn -0.630129 -0.237339 0.739329
vn -0.630075 -0.237409 0.739352
vn -0.630061 -0.237320 0.739393
vn 0.216967 0.716685 0.662788
vn -0.643156 -0.210198 0.736319
vn -0.694760 -0.369311 0.617185
vn -0.723324 -0.690506 -0.002098
vn -0.643159 -0.210404 0.736259
vn -0.643198 -0.210405 0.736224
vn -0.192022 0.981073 0.024968
vn 0.569101 -0.799032 0.194091
vn -0.568055 -0.660178 0.491406
vn -0.160237 -0.189701 0.968678
vn -0.026988 0.991615 -0.126377
vn 0.714278 -0.692599 0.100565
vn 0.177000 -0.983047 0.047856
vn 0.935224 -0.349135 0.058824
vn 0.719430 0.694355 0.017097
vn -0.171972 0.940878 -0.291845
vn 0.767112 -0.623976 0.148971
vn 0.689998 0.719928 -0.074877
vn 0.179068 -0.981631 0.065848
vn -0.876070 0.369887 -0.309328
vn -0.697363 0.669383 0.256146
vn 0.134721 0.554402 0.821273
vn 0.134598 0.554458 0.821255
vn -0.795656 0.186230 -0.576411
vn 0.505891 -0.862545 0.009512
vn -0.944228 0.156748 -0.289591
vn -0.937685 0.252806 -0.238403
vn -0.206766 0.679286 -0.704144
vn 0.617171 0.692521 0.373517
vn -0.632730 -0.753905 -0.176862
vn -0.333736 -0.926255 0.175135
vn -0.885287 0.410083 0.219312
vn -0.980689 0.190848 -0.042741
vn -0.334739 -0.926018 0.174472
vn 0.703372 -0.696014 0.144334
vn -0.995788 0.074408 -0.053566
vn 0.102107 0.804612 -0.584956
vn 0.519668 0.041561 -0.853357
vn 0.313662 -0.758838 -0.570772
vn 0.605224 -0.749911 -0.267090
vn 0.906435 -0.298702 -0.298585
vn 0.869068 -0.483806 0.103211
vn -0.891132 0.449917 -0.058803
vn -0.058660 0.993437 0.098189
vn 0.393429 -0.916156 0.076628
vn 0.184820 -0.964392 0.189183
vn -0.026653 0.927686 -0.372408
vn -0.177857 -0.955647 0.234745
vn -0.307616 0.332866 -0.891388
vn 0.680026 -0.718045 0.148243
vn 0.001914 -0.293984 0.955808
vn 0.014357 0.773177 0.634028
vn 0.074384 -0.270876 0.959736
vn 0.618914 -0.777196 0.113630
vn -0.485010 -0.848994 0.209701
vn -0.742475 -0.620654 0.252030
vn 0.214363 0.917601 -0.334749
vn -0.580493 -0.784978 0.216420
vn 0.826748 -0.507805 -0.242119
vn -0.503267 -0.804304 0.315941
vn -0.986230 -0.119766 0.114042
vn -0.954775 0.282157 0.093768
vn -0.869933 -0.432640 0.236724
vn 0.887903 0.043931 -0.457928
vn -0.914719 0.381553 0.133067
vn -0.963752 -0.093110 0.250024
vn -0.866581 0.486832 0.109685
vn -0.416350 -0.848346 -0.327050
vn -0.958709 -0.267177 0.097438
vn -0.803909 0.521381 0.286169
vn -0.148015 0.947267 -0.284211
vn -0.862196 -0.421379 -0.281172
vn -0.905162 0.423636 0.034859
vn 0.102447 0.994643 0.013763
vn 0.323136 0.930245 -0.173862
vn 0.066732 -0.389311 0.918686
vn 0.665829 0.583813 0.464580
vn 0.800612 0.385156 0.458993
vn 0.833791 0.551035 0.033967
vn -0.905521 0.415895 0.084047
vn -0.871931 0.239639 0.426977
vn 0.979118 -0.186706 -0.080424
vn 0.493325 0.864399 -0.097184
vn 0.607783 0.786630 -0.108686
vn 0.173170 0.974607 -0.141963
vn 0.941472 0.336932 -0.010373
vn -0.675059 0.700840 0.230474
vn 0.488255 0.872602 0.013180
vn -0.494217 0.834728 0.242856
vn 0.913746 0.391866 -0.107279
vn 0.712635 0.693990 -0.102609
vn 0.465698 -0.874895 -0.132984
vn -0.410248 -0.909140 -0.071838
vn -0.575324 -0.790845 0.208727
vn 0.242040 -0.524892 0.816030
vn 0.241935 -0.524900 0.816056
vn 0.242027 -0.524886 0.816038
vn 0.926122 0.312542 -0.211222
vn 0.935927 0.315778 0.155965
vn -0.608245 -0.765708 0.209115
vn 0.875305 -0.466848 0.126068
vn -0.820616 -0.538304 -0.191881
vn -0.890788 -0.451408 0.052226
vn -0.255321 -0.958142 0.129520
vn 0.998541 0.038056 0.038304
vn -0.142489 0.987921 0.060898
vn -0.234366 0.969797 0.067573
vn -0.094494 0.994530 0.044518
vn -0.498824 0.301787 0.812465
vn 0.557291 -0.821757 0.118920
vn 0.654720 -0.696224 -0.294304
vn -0.947204 -0.227504 -0.225935
vn -0.871154 -0.456594 -0.180593
vn -0.882661 -0.425623 -0.199387
vn 0.426192 -0.866489 0.259917
vn -0.857603 -0.482587 -0.177839
vn 0.747506 -0.609048 0.265134
vn 0.517373 -0.669063 -0.533554
vn 0.904873 0.376201 0.199191
vn 0.209800 -0.963543 -0.166038
vn -0.873822 0.404665 -0.269594
vn 0.880467 0.366618 0.300616
vn 0.693275 -0.706024 -0.144566
vn -0.766779 0.390418 -0.509533
vn -0.842187 0.144469 -0.519471
vn -0.059398 -0.997982 0.022425
vn -0.495546 0.596552 -0.631316
vn 0.231943 -0.966589 -0.109126
vn 0.903150 -0.355662 0.240465
vn -0.041177 -0.998406 0.038612
vn 0.701025 -0.702719 0.121449
vn -0.628494 -0.775353 -0.061832
vn 0.742579 0.668201 0.045658
vn -0.142792 0.921671 -0.360738
vn 0.978556 -0.015221 0.205417
vn 0.543972 0.254762 -0.799494
vn 0.544144 0.254825 -0.799357
vn 0.544133 0.254835 -0.799361
vn 0.688264 0.697269 0.200270
vn 0.913613 -0.268007 0.305750
vn 0.400573 0.040747 -0.915358
vn 0.500202 -0.055280 -0.864143
vn 0.960934 -0.173253 0.215846
vn 0.887278 -0.388299 0.248920
vn 0.407256 0.298880 -0.863026
vn 0.407365 0.298935 -0.862955
vn 0.407271 0.299031 -0.862966
vn -0.317061 0.379994 -0.868952
vn 0.223775 -0.793463 -0.565987
vn 0.382468 -0.750904 -0.538387
vn 0.382516 -0.750898 -0.538363
vn 0.975732 -0.191355 -0.106443
vn 0.446754 -0.813189 -0.373007
vn 0.500960 -0.790076 -0.353298
vn 0.667362 -0.704131 -0.242545
vn -0.648689 -0.760756 -0.021262
vn -0.401447 0.628285 -0.666407
vn 0.612667 0.772107 0.168789
vn 0.096517 0.977889 0.185517
vn 0.942819 0.243625 -0.227464
vn 0.970104 0.122450 -0.209534
vn 0.230784 0.928469 0.291004
vn -0.414089 -0.901781 0.123779
vn 0.199177 -0.975911 0.089034
vn 0.859053 -0.485305 -0.162809
vn 0.917373 -0.396225 0.037843
vn -0.041509 0.985135 0.166690
vn 0.842231 -0.490574 0.223570
vn 0.462101 -0.721588 -0.515532
vn 0.462192 -0.721578 -0.515464
vn 0.895452 -0.356900 0.266059
vn 0.462269 -0.721531 -0.515462
vn 0.427261 -0.892573 0.144090
vn 0.719071 -0.133222 -0.682047
vn 0.719049 -0.133228 -0.682070
vn 0.719073 -0.133308 -0.682029
vn 0.216831 0.716736 0.662777
vn 0.217028 0.716727 0.662722
vn 0.917833 -0.049143 0.393912
vn 0.764376 -0.582177 0.277126
vn -0.175124 0.983427 0.046941
vn 0.421370 -0.895812 0.141310
vn -0.722989 -0.690857 -0.002001
vn 0.359448 -0.908219 -0.214323
vn -0.691698 -0.372387 0.618775
vn 0.660281 0.615865 0.429812
vn 0.018842 0.999561 -0.022864
vn -0.160229 -0.189796 0.968661
vn -0.160298 -0.189758 0.968657
vn -0.216797 0.975753 -0.030082
vn -0.082211 0.988209 -0.129165
vn -0.568052 -0.660180 0.491406
vn -0.568053 -0.660179 0.491406
vn 0.694633 0.171931 -0.698516
vn 0.694696 0.171749 -0.698498
vn 0.358571 -0.908475 -0.214711
vn 0.694684 0.171886 -0.698477
vn 0.370591 0.921344 0.117420
vn 0.710190 0.012078 0.703906
vn 0.710205 0.012075 0.703892
vn 0.125222 -0.988136 0.088922
vn -0.486656 0.140661 -0.862195
vn -0.486597 0.140802 -0.862205
vn 0.750413 -0.623389 0.219697
vn 0.718643 0.695062 0.020993
vn 0.718516 0.695193 0.021009
vn 0.342186 0.924804 -0.166270
vn -0.776933 0.611243 -0.150854
vn 0.416828 0.908982 -0.002520
vn 0.993224 0.085971 0.078205
vn 0.993136 0.086904 0.078283
vn 0.325563 0.944168 -0.050547
vn -0.486632 0.140583 -0.862221
vn 0.909334 -0.325330 -0.259370
vn 0.720138 -0.692710 -0.039418
vn -0.308451 0.328690 -0.892648
vn -0.308523 0.328669 -0.892631
vn 0.244518 -0.628966 -0.737979
vn 0.716182 -0.121010 0.687343
vn 0.255936 -0.607564 -0.751906
vn -0.308529 0.328745 -0.892601
vn 0.134705 0.554418 0.821264
vn 0.584505 -0.594992 0.551669
vn 0.298076 -0.614473 -0.730461
vn -0.795833 0.185007 -0.576561
vn -0.795351 0.185248 -0.577148
vn 0.094084 -0.760683 -0.642269
vn 0.050352 -0.740477 -0.670193
vn -0.979985 0.194256 -0.043508
vn -0.929030 0.216590 -0.299988
vn 0.911508 -0.260637 -0.318154
vn 0.414258 -0.613182 -0.672605
vn -0.370317 -0.927762 -0.046068
vn -0.980277 0.193327 -0.041016
vn -0.934282 0.313724 0.169393
vn -0.634998 -0.759340 0.142058
vn -0.978676 0.200605 -0.044163
vn -0.902371 0.317362 -0.291561
vn -0.394280 0.879059 -0.267952
vn 0.721105 -0.687605 -0.084892
vn 0.313941 -0.940747 -0.128202
vn 0.192998 -0.928675 0.316724
vn -0.446201 -0.874113 0.191916
vn 0.192757 -0.928715 0.316753
vn -0.846674 0.373299 -0.379197
vn 0.287198 -0.327899 -0.900000
vn -0.542096 0.523027 -0.657704
vn 0.402931 -0.907845 0.116033
vn 0.205237 -0.945838 -0.251531
vn 0.915234 -0.337552 -0.220010
vn 0.519736 0.038113 -0.853476
vn 0.420158 -0.266967 -0.867292
vn 0.520208 0.041006 -0.853055
vn 0.023848 -0.999229 0.031176
vn -0.207948 0.890280 -0.405165
vn 0.552187 0.641342 -0.532700
vn 0.778165 0.413730 -0.472532
vn -0.866236 -0.445831 0.225543
vn 0.220608 0.571965 -0.790056
vn 0.109994 -0.955247 -0.274598
vn 0.707662 0.510730 -0.488231
vn -0.987159 -0.038587 0.155007
vn -0.167782 0.933402 -0.317192
vn 0.192876 -0.928695 0.316739
vn 0.911608 -0.396943 0.106805
vn 0.670786 -0.741319 -0.022217
vn -0.222149 0.942649 -0.249125
vn 0.019140 -0.975338 0.219883
vn 0.219536 -0.474854 -0.852243
vn 0.219524 -0.474919 -0.852210
vn 0.014381 0.773179 0.634024
vn -0.024389 -0.972488 0.231674
vn 0.219451 -0.474823 -0.852282
vn 0.014342 0.773168 0.634039
vn 0.820010 -0.538761 0.193184
vn 0.678844 0.720862 -0.139746
vn 0.661182 0.736408 -0.143326
vn 0.392136 -0.911755 0.122195
vn 0.063326 0.921852 -0.382332
vn 0.408678 -0.905246 0.116242
vn -0.282989 -0.287549 -0.915004
vn 0.455344 -0.654577 -0.603482
vn 0.066485 0.967357 -0.244542
vn -0.410738 0.404275 -0.817224
vn 0.649096 0.674555 -0.351640
vn -0.398678 0.388638 -0.830672
vn -0.906274 -0.156414 0.392685
vn -0.923474 0.334456 0.187977
vn -0.967782 -0.070029 0.241854
vn -0.927197 0.285876 0.242034
vn -0.901330 0.411441 0.135355
vn -0.128697 0.988807 -0.075481
vn -0.846703 -0.399382 0.351551
vn 0.106003 -0.994016 0.026373
vn -0.819604 -0.508467 -0.264028
vn -0.059277 -0.998233 -0.004154
vn -0.666248 0.731261 0.146192
vn -0.044790 -0.396159 0.917089
vn 0.286539 -0.783572 0.551280
vn 0.798015 0.254927 0.546062
vn -0.805618 0.592244 0.015059
vn 0.983846 0.178373 -0.015174
vn 0.289395 0.956889 -0.024793
vn 0.840371 0.541912 -0.010375
vn 0.439032 0.883203 0.164932
vn 0.460565 0.887323 0.023203
vn 0.416700 0.908948 0.013234
vn 0.757118 0.653007 -0.018828
vn 0.716008 0.698092 0.000790
vn 0.307717 0.905642 0.291758
vn -0.471597 0.279862 0.836226
vn -0.296166 -0.954179 -0.042762
vn -0.381519 -0.922424 -0.059806
vn -0.414699 -0.904811 0.096650
vn 0.635101 -0.722924 0.272080
vn -0.658327 -0.752577 0.015286
vn -0.529534 0.827666 0.185909
vn -0.690650 0.720530 -0.061965
vn 0.927863 0.263069 0.264320
vn 0.451881 -0.889074 0.073149
vn 0.542718 -0.830335 -0.126497
vn -0.461067 0.834718 -0.301103
vn 0.801487 -0.542913 0.250727
vn -0.064919 0.995619 0.067296
vn 0.978284 -0.013623 0.206820
vn 0.891243 -0.354505 0.282865
vn 0.862454 -0.398600 0.311916
vn -0.314367 0.914031 -0.256359
vn 0.883018 -0.396003 0.251913
vn 0.972384 -0.098034 0.211797
vn 0.935818 -0.259427 0.238626
vn 0.977483 -0.069824 0.199127
vn 0.976616 -0.060727 0.206234
vn -0.996654 -0.032240 0.075107
vn -0.947231 0.101871 0.303934
vn -0.592926 -0.805242 -0.004970
vn -0.955254 -0.279906 -0.095618
vn -0.899457 -0.436738 0.015390
vn 0.429948 -0.879272 0.205002
vn -0.744959 -0.667082 -0.006177
vn -0.081894 0.954408 0.287051
vn -0.209411 0.963681 0.165726
vn 0.961085 -0.257755 -0.099391
vn -0.531485 0.787095 0.313058
vn -0.980361 0.029025 0.195066
vn -0.593143 0.746553 0.301397
vn -0.125892 -0.982463 -0.137542
vn 0.110117 -0.989094 -0.097811
vn -0.889437 -0.456958 0.009573
vn -0.876759 0.437147 -0.200490
vn -0.982671 0.130718 -0.131416
vn 0.047714 -0.970354 0.236933
vn 0.538962 -0.823060 0.179143
vn -0.357673 0.871279 -0.336070
vn 0.338983 -0.911600 0.232545
vn 0.772727 -0.618140 0.144206
vn 0.629720 -0.770623 0.097938
vn -0.732673 0.411617 -0.541998
vn -0.732735 0.411524 -0.541985
vn -0.732656 0.411635 -0.542008
vn -0.111127 -0.992995 0.040157
vn 0.433642 -0.900743 -0.024835
vn 0.178744 -0.980161 0.085640
vn 0.368564 0.783261 0.500662
vn 0.113468 0.983262 0.142551
vn 0.936326 -0.323777 0.135874
vn 0.918738 -0.367739 0.143833
vn 0.284736 -0.945187 -0.159833
vn 0.298385 0.770981 0.562633
vn 0.210362 -0.957934 -0.195219
vn 0.858999 -0.485410 -0.162780
vn -0.630111 -0.237367 0.739336
vn -0.630106 -0.237336 0.739350
vn -0.630087 -0.237361 0.739358
vn -0.643161 -0.210329 0.736278
vn -0.643175 -0.210329 0.736266
vn -0.643176 -0.210401 0.736245
vn -0.159167 0.986571 0.036656
vn -0.177943 0.983118 -0.042601
vn -0.245864 0.943889 -0.220507
vn 0.669169 -0.729725 0.140411
vn 0.757268 -0.643985 0.108755
vn 0.966821 -0.251291 0.045942
vn 0.934775 -0.348837 0.067144
vn 0.850817 -0.507307 0.136928
vn 0.958196 -0.282048 0.048049
vn 0.751097 -0.642206 0.153052
vn 0.350506 0.933195 0.079328
vn 0.490087 0.871410 0.021441
vn -0.902500 0.321360 -0.286745
vn -0.863609 0.502174 -0.044740
vn -0.893485 0.436188 -0.106886
vn 0.134674 0.554421 0.821267
vn -0.057728 -0.994052 0.092349
vn -0.881772 -0.470208 0.037183
vn -0.638635 -0.756973 0.138339
vn -0.045101 0.973407 0.224599
vn -0.338514 -0.933508 0.118199
vn -0.782154 -0.581081 -0.224899
vn -0.956474 -0.240100 0.165863
vn -0.950217 -0.269671 0.156091
vn 0.427150 -0.604300 -0.672581
vn -0.325952 0.942411 0.074942
vn 0.439577 -0.873727 -0.208264
vn 0.025150 0.829696 -0.557649
vn 0.291721 -0.760835 -0.579681
vn 0.289882 -0.832605 -0.471951
vn 0.580976 -0.771565 -0.259142
vn 0.236650 -0.936601 -0.258409
vn 0.101479 -0.973879 -0.203129
vn 0.271744 -0.958489 0.086333
vn -0.069145 0.994099 -0.083580
vn -0.115317 -0.980119 0.161461
vn -0.266655 -0.935922 0.230098
vn 0.882994 -0.382321 -0.272309
vn -0.285783 0.843775 -0.454281
vn -0.995984 0.072481 -0.052558
vn -0.988057 -0.073885 -0.135221
vn 0.962511 -0.164202 -0.215894
vn -0.980485 -0.130431 -0.147096
vn 0.785824 -0.614580 -0.069076
vn 0.620142 -0.783810 -0.032642
vn -0.100206 0.927124 -0.361109
vn 0.030848 -0.983554 0.177959
vn -0.610685 -0.647940 0.455233
vn -0.841232 -0.491795 0.224649
vn 0.796447 -0.599605 -0.078399
vn 0.826739 -0.530710 0.186681
vn -0.163994 0.945634 -0.280859
vn 0.077570 -0.334489 0.939202
vn 0.053673 -0.300419 0.952296
vn 0.755048 -0.592476 0.280849
vn -0.009407 0.936462 -0.350643
vn -0.982903 0.133161 0.127158
vn 0.083275 -0.989420 0.118801
vn -0.825332 -0.509852 0.242646
vn -0.669880 0.695241 -0.260578
vn 0.005554 0.912352 -0.409370
vn -0.247175 -0.931255 0.267711
vn -0.224442 -0.964049 0.142255
vn -0.981579 0.165781 0.094971
vn -0.776559 -0.572483 0.263097
vn -0.762697 -0.590936 0.262845
vn 0.730598 0.549684 -0.405061
vn 0.955364 -0.045159 -0.291959
vn -0.437655 -0.810307 0.389693
vn -0.751072 -0.603438 0.267866
vn -0.883786 -0.403497 0.236880
vn -0.847752 -0.455397 0.271901
vn -0.953368 -0.180916 0.241577
vn -0.916672 -0.294873 0.269744
vn 0.629761 0.702323 -0.331879
vn 0.603783 0.675664 -0.422994
vn 0.492308 0.771949 -0.402153
vn -0.883707 -0.298688 0.360344
vn -0.397448 -0.863000 -0.311874
vn -0.937920 0.256629 0.233342
vn -0.911693 0.085919 0.401789
vn -0.848100 -0.448479 0.282121
vn -0.971730 0.207214 0.113151
vn 0.126073 0.923941 -0.361164
vn 0.624466 0.730159 -0.277327
vn -0.838480 -0.477990 -0.261681
vn -0.870359 0.460732 0.173785
vn 0.605503 -0.758804 0.239966
vn 0.544670 0.789508 -0.282863
vn 0.538452 0.826125 -0.166094
vn 0.240968 0.930099 -0.277219
vn -0.808592 0.586814 0.042765
vn 0.856535 -0.513604 -0.050596
vn -0.736766 0.650983 0.182751
vn -0.829570 0.473812 0.295491
vn -0.904553 0.296287 0.306589
vn -0.372654 -0.907841 0.192233
vn -0.695624 0.670867 0.256992
vn -0.820637 0.514886 0.247885
vn 0.582031 -0.803066 -0.127769
vn 0.043680 0.986765 -0.156161
vn 0.287451 0.928895 -0.233509
vn 0.970472 0.240116 -0.022993
vn 0.526119 0.825814 -0.203053
vn 0.962862 0.263949 -0.056803
vn -0.750739 0.636789 0.175756
vn -0.870914 0.403408 0.280661
vn -0.652374 0.734440 0.187098
vn 0.530544 0.847651 -0.003264
vn 0.315026 0.933330 -0.172205
vn 0.344580 -0.933158 -0.102374
vn 0.935216 0.287952 -0.206044
vn 0.242006 -0.524894 0.816039
vn 0.242038 -0.524889 0.816033
vn 0.242001 -0.524892 0.816041
vn 0.965843 0.248130 0.074690
vn -0.607789 -0.760419 0.228813
vn -0.599133 -0.770438 0.217863
vn 0.968763 -0.186360 0.163609
vn 0.962265 -0.199394 0.185169
vn 0.973838 0.134950 0.182833
vn -0.735468 -0.662266 -0.143142
vn -0.546662 -0.835779 -0.051318
vn -0.818105 -0.574475 0.026135
vn -0.841754 -0.538402 0.039671
vn -0.269377 -0.956935 -0.108224
vn 0.994890 0.000357 0.100968
vn 0.971690 0.205011 0.117429
vn 0.990928 0.066698 0.116671
vn -0.217337 0.973887 0.065646
vn -0.202940 0.977497 0.057579
vn -0.175402 0.982784 0.058056
vn 0.951197 -0.156822 0.265764
vn -0.486310 0.269694 0.831125
vn 0.969236 0.012080 0.245838
vn 0.416171 -0.866015 -0.277163
vn 0.104093 -0.979691 -0.171378
vn 0.611249 -0.737499 -0.287176
vn 0.577769 -0.767828 -0.276809
vn 0.638207 -0.711305 -0.294511
vn -0.556971 -0.830036 0.028687
vn -0.338772 -0.940531 -0.025215
vn -0.944215 -0.239889 -0.225634
vn -0.862947 -0.475523 -0.170882
vn -0.919288 -0.273835 -0.282708
vn -0.873384 -0.444180 -0.199762
vn 0.542088 -0.657699 -0.523041
vn -0.540366 -0.840922 0.029235
vn -0.201352 0.967384 0.153708
vn 0.516716 -0.686539 -0.511535
vn 0.732284 0.632938 0.251295
vn 0.298048 0.875418 0.380540
vn 0.972196 -0.065383 0.224857
vn 0.919303 -0.325402 0.221349
vn 0.955694 0.193269 0.222028
vn 0.578114 -0.804462 -0.136474
vn -0.687982 0.541895 -0.482733
vn -0.834254 0.162578 -0.526866
vn -0.775351 0.349067 -0.526292
vn 0.977078 0.106819 -0.184141
vn 0.398193 0.672236 0.624132
vn -0.046062 -0.998489 0.029968
vn 0.106229 0.993541 0.039884
vn 0.316170 -0.941398 0.117504
vn 0.564122 -0.812935 -0.144581
vn 0.900559 -0.382739 0.206167
vn 0.979453 -0.005069 0.201609
vn 0.873355 -0.443171 0.202113
vn 0.939471 -0.069956 0.335412
vn 0.899482 0.432638 0.061281
vn 0.822593 0.566882 0.044562
vn 0.948555 0.172895 0.265237
vn 0.969138 -0.039033 0.243409
vn 0.966122 -0.057830 0.251525
vn -0.161877 0.917146 -0.364196
vn 0.948463 -0.175388 0.263926
vn -0.768100 0.363865 -0.526902
vn -0.152005 0.920455 -0.360079
vn 0.968894 -0.108090 0.222622
vn -0.789514 0.288498 -0.541697
vn -0.154503 0.921180 -0.357149
vn 0.544058 0.254786 -0.799428
vn 0.544084 0.254803 -0.799405
vn -0.628494 -0.775353 -0.061832
vn -0.628493 -0.775354 -0.061831
vn -0.038348 -0.998957 0.024788
vn -0.737667 -0.541607 -0.403124
vn 0.866263 0.442146 0.232583
vn 0.862572 0.461804 0.206656
vn 0.888586 -0.428019 0.164968
vn 0.909416 -0.360944 0.206597
vn 0.966692 -0.083042 0.242097
vn 0.915003 -0.260194 0.308333
vn 0.451587 -0.032950 -0.891619
vn 0.887994 -0.386564 0.249068
vn 0.906888 -0.342435 0.245547
vn 0.937153 -0.254366 0.238833
vn 0.959441 -0.170506 0.224500
vn 0.971668 -0.101504 0.213443
vn 0.446226 -0.072196 -0.892003
vn 0.884615 -0.392525 0.251757
vn 0.978420 -0.049310 0.200655
vn 0.592305 -0.778434 0.207882
vn 0.407295 0.298945 -0.862985
vn -0.320105 0.364920 -0.874281
vn 0.934964 -0.273101 0.226402
vn 0.407263 0.298978 -0.862989
vn 0.407300 0.298998 -0.862964
vn -0.304061 0.354802 -0.884117
vn -0.312839 0.364302 -0.877163
vn 0.165049 -0.771454 -0.614505
vn 0.200151 -0.752610 -0.627311
vn 0.812236 -0.222239 -0.539335
vn -0.044872 -0.856558 -0.514096
vn 0.487803 -0.858307 0.159242
vn -0.538453 -0.012059 -0.842569
vn 0.382490 -0.750900 -0.538378
vn -0.545360 -0.023613 -0.837869
vn -0.572238 -0.018721 -0.819874
vn 0.382476 -0.750901 -0.538386
vn 0.382501 -0.750898 -0.538373
vn 0.839101 -0.210196 -0.501725
vn 0.814474 -0.231215 -0.532139
vn -0.400277 -0.875329 -0.271252
vn 0.792277 -0.266613 -0.548831
vn 0.449671 -0.814619 -0.366323
vn 0.436609 -0.822579 -0.364332
vn -0.444616 -0.894814 -0.040304
vn -0.092126 -0.962733 -0.254279
vn -0.385928 -0.918167 -0.089606
vn -0.216685 -0.946816 0.237879
vn -0.758112 -0.648819 0.065572
vn 0.013797 -0.953863 0.299926
vn -0.546512 0.549259 -0.632170
vn -0.686227 0.414095 -0.598011
vn -0.551119 0.566424 -0.612725
vn -0.474276 0.018457 -0.880183
vn 0.847586 0.519121 0.110048
vn 0.969915 -0.243438 0.001853
vn -0.232046 -0.936064 -0.264459
vn -0.985458 0.139538 -0.096964
vn -0.820937 0.551986 -0.146197
vn -0.980427 0.187382 -0.060419
vn 0.356033 0.723057 -0.591971
vn 0.119075 0.975231 0.186401
vn 0.114351 0.976001 0.185329
vn 0.341177 0.901296 0.266955
vn 0.126384 0.974858 0.183520
vn 0.719076 0.678587 0.149833
vn 0.969539 -0.048081 0.240173
vn 0.642784 0.629725 -0.436206
vn -0.752237 0.597217 -0.278336
vn 0.719783 -0.685284 -0.110893
vn 0.974226 -0.224680 0.020061
vn 0.772602 -0.618808 0.141998
vn 0.864448 0.405651 -0.296947
vn 0.939903 0.242083 -0.240787
vn 0.538865 -0.842124 -0.021241
vn 0.493812 -0.866825 -0.069013
vn 0.919207 -0.355877 0.168551
vn 0.947439 -0.287332 0.140709
vn 0.908073 -0.371514 0.193342
vn 0.997502 -0.036537 0.060455
vn 0.977512 -0.185167 0.100917
vn 0.953816 -0.298070 0.037271
vn 0.446492 -0.886815 0.119183
vn 0.938197 -0.335732 0.084082
vn -0.418192 -0.899827 0.124203
vn 0.195499 0.978774 0.061499
vn 0.197916 -0.975919 0.091713
vn 0.526781 -0.849942 -0.009985
vn 0.567007 -0.823704 -0.003812
vn -0.418818 -0.899475 0.124649
vn 0.859042 -0.485327 -0.162805
vn 0.859013 -0.485383 -0.162787
vn 0.205532 -0.974552 0.089465
vn 0.422948 -0.894717 0.143518
vn 0.931042 -0.326936 0.162094
vn 0.307828 0.914499 -0.262553
vn 0.991361 -0.082164 -0.102234
vn 0.416828 0.871442 -0.258542
vn 0.309607 0.914007 -0.262171
vn 0.134760 0.955925 -0.260860
vn 0.311648 0.913440 -0.261731
vn -0.069627 0.984819 0.159009
vn -0.063356 0.985542 0.157140
vn -0.083544 0.986269 0.142456
vn 0.462160 -0.721585 -0.515484
vn 0.882936 -0.408212 0.231921
vn 0.462186 -0.721568 -0.515483
vn 0.462218 -0.721565 -0.515460
vn 0.225378 -0.970426 0.086478
vn 0.917486 -0.336361 0.212320
vn 0.719056 -0.133228 -0.682062
vn 0.719065 -0.133255 -0.682048
vn 0.719057 -0.133257 -0.682055
vn 0.216931 0.716721 0.662761
vn 0.216999 0.716718 0.662742
vn 0.216952 0.716735 0.662739
vn 0.867911 -0.309284 0.388683
vn 0.873449 -0.325433 0.362188
vn 0.290720 0.934159 0.206950
vn -0.184628 0.982435 0.027111
vn -0.175877 0.983895 0.031898
vn 0.654110 0.623332 0.428482
vn 0.422619 -0.894611 0.145138
vn 0.654692 0.621746 0.429897
vn 0.649442 0.629830 0.426075
vn 0.626805 0.250799 -0.737709
vn -0.692666 -0.369503 0.619420
vn 0.595074 0.162280 -0.787116
vn 0.592227 0.199703 -0.780632
vn 0.570292 0.210095 -0.794121
vn -0.692922 -0.370228 0.618701
vn -0.160250 -0.189740 0.968668
vn 0.384264 0.904563 0.184678
vn -0.160274 -0.189727 0.968667
vn -0.160272 -0.189760 0.968661
vn -0.184886 0.982535 0.021028
vn -0.219525 0.975368 0.021606
vn -0.723241 -0.690593 -0.001927
vn -0.723310 -0.690521 -0.001711
vn -0.051657 0.997764 -0.042414
vn -0.568053 -0.660179 0.491406
vn 0.694655 0.171866 -0.698510
vn 0.359259 -0.908325 -0.214192
vn 0.359553 -0.908340 -0.213636
vn 0.694651 0.171913 -0.698503
vn 0.694673 0.171850 -0.698496
vn 0.518564 0.830616 0.202902
vn 0.373135 0.910747 0.176948
vn 0.352031 0.923067 0.154989
vn 0.525652 -0.825904 0.203895
vn 0.784381 0.261629 -0.562403
vn 0.710197 0.012077 0.703899
vn 0.178203 -0.982267 0.058261
vn -0.180127 0.963712 -0.197011
vn -0.486636 0.140696 -0.862201
vn -0.315165 0.923443 -0.218918
vn -0.273285 0.932800 -0.234943
vn 0.826533 -0.535051 0.174824
vn 0.814580 -0.554388 0.170625
vn 0.796497 -0.585556 0.150720
vn 0.718788 0.694940 0.020060
vn 0.676959 -0.723969 0.132651
vn 0.441120 0.881968 -0.165972
vn -0.460846 0.834562 -0.301872
vn -0.602330 0.713352 -0.358229
vn 0.356013 0.916804 -0.180902
vn 0.376290 0.910469 -0.171614
vn 0.860259 -0.495607 0.119699
vn 0.774392 0.230364 -0.589278
vn 0.764648 0.251197 -0.593476
vn 0.772652 0.245071 -0.585618
vn 0.436759 0.898865 0.035826
vn 0.993166 0.086669 0.078166
vn 0.421906 0.906510 -0.015359
vn 0.993138 0.087082 0.078060
vn 0.710197 0.012077 0.703899
vn -0.486648 0.140619 -0.862206
vn -0.486628 0.140668 -0.862210
vn 0.234414 -0.971814 0.025050
vn 0.914153 -0.340891 -0.219359
vn 0.764216 -0.644545 -0.023132
vn 0.766079 -0.642594 -0.014019
vn -0.885798 0.429895 -0.174790
vn -0.308522 0.328694 -0.892622
vn 0.274789 -0.613390 -0.740435
vn -0.308524 0.328720 -0.892612
vn -0.308549 0.328713 -0.892606
vn 0.776755 -0.629248 -0.026442
vn 0.716182 -0.121010 0.687343
vn 0.134712 0.554407 0.821270
vn 0.134669 0.554427 0.821264
vn 0.054483 -0.748961 -0.660370
vn 0.584505 -0.594992 0.551669
vn 0.584505 -0.594992 0.551669
vn 0.716182 -0.121010 0.687343
vn -0.795577 0.185430 -0.576779
vn 0.068606 -0.750637 -0.657143
vn -0.970539 0.230840 -0.069045
vn -0.669596 -0.724851 -0.161964
vn -0.952017 0.305414 -0.019664
vn 0.066223 -0.994836 0.076917
vn -0.125062 -0.991842 0.024698
vn -0.980227 0.193089 -0.043262
vn -0.943071 0.167427 -0.287375
vn -0.955800 0.123717 -0.266721
vn -0.580518 -0.799844 0.152474
vn 0.890031 -0.368154 -0.268900
vn 0.913197 -0.264446 -0.310063
vn -0.977369 0.198576 -0.072925
vn -0.989776 0.138847 0.032644
vn 0.416104 -0.610410 -0.673986
vn 0.389054 -0.677443 -0.624265
vn -0.712262 -0.683515 -0.159656
vn 0.099835 -0.963744 -0.247447
vn -0.954122 0.212773 0.210664
vn -0.980683 0.191010 -0.042136
vn -0.981224 0.086755 0.172257
vn -0.980023 0.194132 -0.043220
vn -0.979765 0.195336 -0.043637
vn -0.978990 0.199319 -0.043019
vn -0.546482 0.835730 0.053974
vn 0.409211 -0.625117 -0.664662
vn 0.265095 -0.963472 -0.038016
vn 0.564922 -0.819783 -0.093910
vn 0.864708 -0.440770 -0.240836
vn 0.886331 -0.369686 -0.278837
vn 0.854904 -0.504754 0.119840
vn 0.182478 -0.956155 0.229061
vn -0.448982 -0.877082 0.170711
vn 0.225953 -0.947299 0.227090
vn 0.192857 -0.928699 0.316741
vn -0.679821 0.596220 -0.427042
vn 0.200620 -0.183114 -0.962404
vn 0.276572 -0.270409 -0.922164
vn 0.326459 -0.284041 -0.901524
vn 0.904515 -0.413807 -0.103038
vn 0.892298 -0.085624 -0.443252
vn 0.519898 0.040138 -0.853285
vn 0.317842 -0.627982 -0.710363
vn 0.566222 0.606525 -0.558140
vn 0.648930 0.550387 -0.525323
vn -0.992989 0.113475 0.033109
vn -0.891434 0.450162 -0.051962
vn -0.359091 0.468777 -0.807033
vn 0.197822 -0.945341 -0.259222
vn 0.838550 0.314019 -0.445226
vn -0.651255 0.310355 -0.692493
vn 0.321436 -0.914847 -0.244404
vn 0.453803 -0.676484 -0.580028
vn 0.678865 0.649315 0.342830
vn -0.967261 0.244495 0.068033
vn 0.206669 0.885930 -0.415230
vn -0.308070 0.332533 -0.891356
vn -0.308012 0.332645 -0.891334
vn 0.659961 0.599264 -0.453138
vn -0.308490 0.332137 -0.891358
vn -0.871154 -0.440048 0.217826
vn -0.405039 0.473840 -0.781933
vn 0.569994 0.665672 -0.481650
vn 0.557021 0.412532 -0.720794
vn 0.439389 -0.664157 -0.604841
vn 0.570189 -0.644902 -0.508907
vn 0.192898 -0.928692 0.316736
vn 0.192815 -0.928706 0.316746
vn 0.926245 -0.366440 0.088267
vn 0.797029 -0.600138 -0.067674
vn 0.878579 0.393504 0.270654
vn 0.011987 0.980802 -0.194636
vn -0.249860 0.940869 -0.228768
vn -0.015053 -0.974477 0.223982
vn 0.931367 -0.359102 0.060013
vn 0.959624 -0.278943 0.036214
vn 0.219533 -0.474876 -0.852231
vn 0.014365 0.773173 0.634032
vn 0.609817 -0.785614 0.104567
vn -0.014275 -0.973871 0.226652
vn 0.219508 -0.474842 -0.852256
vn 0.219503 -0.474865 -0.852245
vn 0.014352 0.773169 0.634037
vn 0.014360 0.773170 0.634036
vn 0.615420 -0.778245 0.124872
vn 0.829007 -0.548977 -0.106638
vn 0.094155 0.990805 -0.097165
vn -0.201884 0.915805 -0.347195
vn -0.180462 0.941784 -0.283683
vn 0.615489 -0.774090 0.148181
vn 0.024558 0.982956 -0.182196
vn 0.805710 -0.557769 0.199314
vn 0.663459 0.734227 -0.143990
vn 0.848914 -0.511262 0.134003
vn 0.655253 0.740903 -0.147330
vn 0.780561 -0.586401 0.216470
vn 0.401527 -0.908199 0.118109
vn -0.053250 0.927778 -0.369314
vn -0.081193 0.929820 -0.358948
vn 0.200562 0.917103 -0.344523
vn 0.121396 0.919403 -0.374114
vn -0.008109 0.926390 -0.376479
vn -0.256550 -0.294577 -0.920547
vn -0.239624 -0.282475 -0.928864
vn -0.252769 -0.311798 -0.915909
vn -0.567126 0.813312 -0.129963
vn -0.423262 0.388145 -0.818653
vn -0.865424 0.484180 -0.128888
vn 0.955838 0.248650 -0.156674
vn -0.518449 -0.834382 0.187131
vn -0.993517 0.044214 0.104733
vn 0.145583 0.937801 -0.315174
vn 0.372712 0.868513 -0.326758
vn 0.894711 0.005843 -0.446606
vn 0.910321 -0.341261 -0.234214
vn -0.410855 0.394210 -0.822068
vn -0.663134 0.734267 0.145275
vn -0.962650 0.182972 0.199564
vn -0.660384 0.736829 0.144834
vn -0.937462 0.276005 0.212098
vn 0.520211 0.790520 -0.323202
vn -0.885869 0.447214 0.123434
vn -0.846973 0.519798 0.111562
vn -0.879409 -0.344406 0.328670
vn 0.476496 -0.763460 0.435982
vn -0.922190 -0.304559 0.238349
vn -0.034520 0.958022 -0.284609
vn -0.211503 0.916222 -0.340300
vn 0.345329 0.874618 -0.340280
vn -0.290297 -0.942394 -0.166196
vn -0.394043 -0.862425 -0.317733
vn -0.838912 -0.473774 -0.267891
vn -0.084663 -0.996407 -0.002359
vn -0.811581 0.582810 0.040857
vn -0.066664 -0.997764 -0.004779
vn -0.751271 0.342920 0.563912
vn -0.067143 -0.997726 -0.005898
vn 0.781078 -0.610898 -0.129306
vn -0.662376 0.735040 0.144824
vn 0.059440 0.998175 -0.010674
vn 0.564087 0.815538 -0.129243
vn -0.202022 0.945830 -0.254151
vn -0.201463 0.940210 -0.274623
vn 0.022424 -0.469309 0.882749
vn 0.057760 -0.118530 0.991269
vn 0.051730 -0.185622 0.981259
vn -0.806085 0.587119 0.074282
vn 0.005675 -0.605443 0.795868
vn 0.765738 0.383652 0.516194
vn 0.622159 0.734117 0.272013
vn -0.980982 0.053929 0.186459
vn 0.601945 0.796316 -0.059525
vn 0.602984 0.793044 -0.086552
vn 0.249628 0.968265 -0.012231
vn 0.998654 -0.051121 -0.008755
vn -0.090219 0.986899 -0.133759
vn 0.923236 0.383897 0.016092
vn 0.997759 -0.059389 -0.030818
vn 0.779174 0.360997 0.512415
vn 0.975725 -0.154819 0.154893
vn 0.668070 0.693700 0.269190
vn 0.964793 0.240619 -0.106198
vn 0.993043 -0.014018 -0.116914
vn 0.497631 0.867329 0.010187
vn 0.477894 0.878369 -0.009183
vn -0.530184 0.822110 0.207464
vn 0.699781 0.701044 -0.137274
vn 0.899972 0.431725 -0.060532
vn 0.767775 0.640606 0.012039
vn 0.745903 0.666054 0.000182
vn 0.321625 0.945835 -0.044204
vn 0.247750 0.961778 -0.116634
vn 0.879886 0.475164 -0.004421
f 138//138 534//534 166//166
f 151//151 144//144 535//535
f 151//151 535//535 550//550
f 535//535 539//539 550//550
f 142//142 538//538 536//536
f 538//538 143//143 537//537
f 536//536 537//537 141//141
f 538//538 537//537 536//536
f 145//145 542//542 147//147
f 146//146 140//140 541//541
f 146//146 541//541 540//540
f 541//541 140//140 540//540
f 535//535 144//144 539//539
f 147//147 542//542 543//543
f 542//542 145//145 543//543
f 151//151 550//550 552//552
f 550//550 539//539 544//544
f 550//550 544//544 552//552
f 552//552 551//551 151//151
f 544//544 551//551 552//552
f 363//363 2//2 356//356
f 139//139 545//545 148//148
f 6//6 148//148 545//545
f 545//545 139//139 546//546
f 545//545 546//546 6//6
f 6//6 546//546 359//359
f 359//359 139//139 1//1
f 546//546 139//139 359//359
f 548//548 547//547 5//5
f 149//149 547//547 548//548
f 5//5 149//149 548//548
f 2//2 364//364 167//167
f 1//1 549//549 359//359
f 150//150 564//564 565//565
f 153//153 152//152 553//553
f 153//153 553//553 555//555
f 555//555 152//152 154//154
f 553//553 152//152 555//555
f 153//153 555//555 554//554
f 555//555 154//154 554//554
f 155//155 357//357 3//3
f 155//155 557//557 357//357
f 357//357 557//557 3//3
f 4//4 10//10 574//574
f 4//4 574//574 165//165
f 364//364 363//363 572//572
f 4//4 165//165 556//556
f 556//556 558//558 4//4
f 363//363 364//364 2//2
f 138//138 358//358 534//534
f 8//8 534//534 358//358
f 358//358 559//559 560//560
f 138//138 559//559 358//358
f 560//560 559//559 561//561
f 559//559 138//138 562//562
f 561//561 562//562 157//157
f 559//559 562//562 561//561
f 561//561 157//157 563//563
f 561//561 563//563 560//560
f 6//6 359//359 549//549
f 8//8 358//358 564//564
f 358//358 560//560 565//565
f 358//358 565//565 564//564
f 158//158 7//7 566//566
f 158//158 566//566 159//159
f 159//159 566//566 567//567
f 567//567 7//7 160//160
f 566//566 7//7 567//567
f 360//360 564//564 150//150
f 366//366 156//156 161//161
f 160//160 569//569 567//567
f 567//567 162//162 159//159
f 569//569 162//162 567//567
f 361//361 366//366 161//161
f 564//564 360//360 362//362
f 564//564 362//362 8//8
f 568//568 569//569 160//160
f 162//162 569//569 568//568
f 163//163 361//361 161//161
f 9//9 573//573 570//570
f 164//164 9//9 570//570
f 164//164 570//570 573//573
f 362//362 360//360 571//571
f 362//362 571//571 8//8
f 165//165 574//574 12//12
f 363//363 356//356 370//370
f 363//363 370//370 572//572
f 572//572 370//370 364//364
f 534//534 366//366 166//166
f 534//534 8//8 156//156
f 534//534 156//156 366//366
f 368//368 167//167 364//364
f 11//11 361//361 369//369
f 368//368 173//173 167//167
f 369//369 361//361 163//163
f 574//574 10//10 575//575
f 12//12 574//574 575//575
f 586//586 370//370 356//356
f 168//168 10//10 4//4
f 365//365 4//4 558//558
f 168//168 4//4 365//365
f 174//174 166//166 366//366
f 558//558 578//578 576//576
f 576//576 168//168 365//365
f 576//576 365//365 558//558
f 368//368 370//370 586//586
f 11//11 366//366 361//361
f 579//579 588//588 169//169
f 367//367 588//588 579//579
f 169//169 367//367 579//579
f 583//583 584//584 369//369
f 369//369 584//584 11//11
f 19//19 173//173 368//368
f 583//583 369//369 163//163
f 168//168 577//577 592//592
f 591//591 592//592 577//577
f 168//168 576//576 577//577
f 576//576 614//614 577//577
f 370//370 368//368 364//364
f 576//576 578//578 13//13
f 13//13 615//615 576//576
f 11//11 587//587 366//366
f 174//174 366//366 587//587
f 175//175 589//589 602//602
f 596//596 615//615 13//13
f 596//596 13//13 578//578
f 596//596 578//578 597//597
f 589//589 175//175 177//177
f 176//176 172//172 585//585
f 176//176 585//585 609//609
f 171//171 581//581 610//610
f 172//172 609//609 585//585
f 591//591 577//577 614//614
f 179//179 593//593 594//594
f 14//14 179//179 594//594
f 14//14 594//594 593//593
f 185//185 595//595 611//611
f 613//613 614//614 576//576
f 613//613 576//576 615//615
f 616//616 186//186 615//615
f 615//615 372//372 616//616
f 616//616 373//373 186//186
f 372//372 373//373 616//616
f 615//615 596//596 372//372
f 596//596 597//597 372//372
f 586//586 374//374 368//368
f 368//368 374//374 19//19
f 589//589 177//177 602//602
f 189//189 622//622 621//621
f 170//170 600//600 582//582
f 601//601 180//180 598//598
f 181//181 590//590 371//371
f 181//181 371//371 16//16
f 171//171 580//580 581//581
f 610//610 581//581 580//580
f 621//621 622//622 599//599
f 582//582 603//603 170//170
f 600//600 603//603 582//582
f 180//180 601//601 604//604
f 601//601 598//598 604//604
f 182//182 605//605 606//606
f 606//606 183//183 184//184
f 605//605 183//183 606//606
f 15//15 607//607 178//178
f 607//607 608//608 178//178
f 371//371 590//590 16//16
f 185//185 611//611 612//612
f 611//611 595//595 612//612
f 613//613 615//615 614//614
f 373//373 372//372 597//597
f 188//188 617//617 187//187
f 187//187 617//617 623//623
f 617//617 188//188 623//623
f 624//624 618//618 375//375
f 618//618 189//189 619//619
f 375//375 619//619 17//17
f 618//618 619//619 375//375
f 190//190 189//189 618//618
f 190//190 618//618 624//624
f 375//375 17//17 624//624
f 17//17 376//376 378//378
f 376//376 377//377 379//379
f 378//378 379//379 625//625
f 376//376 379//379 378//378
f 17//17 378//378 625//625
f 377//377 376//376 620//620
f 376//376 17//17 619//619
f 620//620 619//619 189//189
f 376//376 619//619 620//620
f 586//586 19//19 626//626
f 374//374 626//626 19//19
f 586//586 626//626 374//374
f 193//193 630//630 631//631
f 630//630 191//191 627//627
f 631//631 627//627 192//192
f 630//630 627//627 631//631
f 628//628 194//194 633//633
f 632//632 628//628 633//633
f 189//189 621//621 620//620
f 621//621 18//18 377//377
f 621//621 377//377 620//620
f 629//629 599//599 18//18
f 621//621 599//599 629//629
f 621//621 629//629 18//18
f 194//194 632//632 633//633
f 20//20 380//380 663//663
f 21//21 634//634 635//635
f 634//634 195//195 637//637
f 635//635 637//637 21//21
f 634//634 637//637 635//635
f 637//637 647//647 21//21
f 195//195 647//647 637//637
f 385//385 656//656 638//638
f 639//639 660//660 641//641
f 639//639 641//641 642//642
f 196//196 643//643 640//640
f 640//640 644//644 197//197
f 643//643 644//644 640//640
f 20//20 387//387 380//380
f 380//380 388//388 390//390
f 387//387 388//388 380//380
f 389//389 26//26 198//198
f 380//380 22//22 393//393
f 380//380 393//393 663//663
f 646//646 645//645 648//648
f 646//646 648//648 636//636
f 645//645 646//646 636//636
f 199//199 200//200 649//649
f 199//199 649//649 650//650
f 200//200 650//650 649//649
f 389//389 198//198 201//201
f 391//391 381//381 23//23
f 390//390 381//381 391//391
f 391//391 23//23 22//22
f 390//390 392//392 381//381
f 381//381 392//392 23//23
f 23//23 392//392 29//29
f 652//652 393//393 651//651
f 651//651 22//22 202//202
f 393//393 22//22 651//651
f 651//651 202//202 653//653
f 651//651 653//653 652//652
f 382//382 202//202 27//27
f 653//653 393//393 652//652
f 202//202 382//382 653//653
f 24//24 382//382 655//655
f 27//27 395//395 382//382
f 382//382 395//395 655//655
f 30//30 396//396 397//397
f 396//396 25//25 395//395
f 397//397 395//395 27//27
f 396//396 395//395 397//397
f 395//395 25//25 383//383
f 395//395 383//383 384//384
f 395//395 384//384 655//655
f 384//384 386//386 655//655
f 656//656 398//398 654//654
f 657//657 203//203 658//658
f 203//203 657//657 659//659
f 657//657 658//658 659//659
f 384//384 383//383 386//386
f 639//639 642//642 660//660
f 400//400 674//674 667//667
f 400//400 667//667 675//675
f 677//677 26//26 389//389
f 662//662 389//389 201//201
f 677//677 389//389 662//662
f 380//380 391//391 22//22
f 390//390 391//391 380//380
f 392//392 388//388 29//29
f 390//390 388//388 392//392
f 676//676 662//662 201//201
f 653//653 382//382 393//393
f 28//28 408//408 393//393
f 24//24 408//408 394//394
f 408//408 28//28 394//394
f 393//393 394//394 28//28
f 382//382 394//394 393//393
f 664//664 27//27 666//666
f 394//394 382//382 24//24
f 30//30 397//397 665//665
f 397//397 27//27 664//664
f 665//665 664//664 666//666
f 397//397 664//664 665//665
f 24//24 654//654 398//398
f 656//656 401//401 398//398
f 385//385 638//638 399//399
f 670//670 672//672 204//204
f 204//204 672//672 661//661
f 661//661 31//31 204//204
f 672//672 31//31 661//661
f 669//669 668//668 671//671
f 205//205 668//668 669//669
f 205//205 669//669 671//671
f 37//37 31//31 672//672
f 672//672 410//410 37//37
f 670//670 410//410 672//672
f 662//662 673//673 677//677
f 32//32 29//29 388//388
f 676//676 201//201 663//663
f 676//676 663//663 408//408
f 393//393 408//408 663//663
f 425//425 32//32 388//388
f 24//24 409//409 408//408
f 408//408 407//407 689//689
f 409//409 407//407 408//408
f 29//29 32//32 675//675
f 24//24 398//398 409//409
f 675//675 32//32 400//400
f 409//409 398//398 401//401
f 656//656 385//385 401//401
f 401//401 385//385 399//399
f 399//399 33//33 402//402
f 400//400 32//32 36//36
f 36//36 674//674 400//400
f 667//667 674//674 675//675
f 673//673 662//662 676//676
f 677//677 676//676 41//41
f 673//673 676//676 677//677
f 41//41 676//676 408//408
f 678//678 403//403 401//401
f 403//403 34//34 409//409
f 403//403 409//409 401//401
f 34//34 403//403 678//678
f 33//33 678//678 402//402
f 207//207 679//679 680//680
f 404//404 35//35 406//406
f 404//404 406//406 405//405
f 404//404 405//405 35//35
f 678//678 401//401 402//402
f 401//401 399//399 402//402
f 207//207 680//680 206//206
f 680//680 679//679 206//206
f 701//701 412//412 683//683
f 412//412 41//41 408//408
f 683//683 408//408 689//689
f 412//412 408//408 683//683
f 701//701 683//683 684//684
f 683//683 689//689 685//685
f 683//683 685//685 684//684
f 407//407 409//409 34//34
f 762//762 32//32 425//425
f 762//762 770//770 32//32
f 36//36 32//32 771//771
f 685//685 686//686 684//684
f 686//686 685//685 688//688
f 686//686 688//688 687//687
f 686//686 687//687 684//684
f 34//34 689//689 407//407
f 39//39 208//208 411//411
f 37//37 410//410 415//415
f 410//410 670//670 415//415
f 681//681 682//682 695//695
f 681//681 695//695 694//694
f 38//38 691//691 696//696
f 691//691 209//209 696//696
f 416//416 682//682 414//414
f 414//414 681//681 694//694
f 682//682 681//681 414//414
f 38//38 209//209 691//691
f 208//208 692//692 411//411
f 211//211 697//697 698//698
f 697//697 40//40 417//417
f 698//698 417//417 43//43
f 697//697 417//417 698//698
f 210//210 715//715 699//699
f 219//219 700//700 228//228
f 684//684 42//42 431//431
f 684//684 431//431 428//428
f 684//684 687//687 413//413
f 684//684 413//413 42//42
f 770//770 771//771 32//32
f 705//705 707//707 704//704
f 705//705 704//704 702//702
f 703//703 431//431 42//42
f 212//212 431//431 703//703
f 705//705 702//702 706//706
f 705//705 706//706 707//707
f 690//690 413//413 687//687
f 42//42 413//413 690//690
f 709//709 708//708 213//213
f 710//710 708//708 709//709
f 213//213 710//710 709//709
f 414//414 694//694 416//416
f 217//217 214//214 712//712
f 712//712 716//716 217//217
f 214//214 716//716 712//712
f 218//218 714//714 713//713
f 714//714 216//216 711//711
f 713//713 711//711 215//215
f 714//714 711//711 713//713
f 693//693 699//699 715//715
f 210//210 699//699 693//693
f 39//39 411//411 692//692
f 44//44 419//419 418//418
f 419//419 46//46 420//420
f 418//418 420//420 45//45
f 419//419 420//420 418//418
f 221//221 719//719 717//717
f 719//719 222//222 718//718
f 717//717 718//718 220//220
f 719//719 718//718 717//717
f 223//223 722//722 720//720
f 722//722 224//224 721//721
f 720//720 721//721 47//47
f 722//722 721//721 720//720
f 225//225 724//724 226//226
f 226//226 724//724 723//723
f 724//724 225//225 723//723
f 725//725 388//388 387//387
f 729//729 700//700 219//219
f 228//228 700//700 729//729
f 227//227 727//727 743//743
f 727//727 424//424 742//742
f 743//743 742//742 236//236
f 727//727 742//742 743//743
f 229//229 744//744 50//50
f 52//52 423//423 422//422
f 423//423 51//51 421//421
f 422//422 421//421 48//48
f 423//423 421//421 422//422
f 53//53 726//726 227//227
f 727//727 227//227 726//726
f 424//424 726//726 53//53
f 727//727 726//726 424//424
f 728//728 232//232 731//731
f 728//728 731//731 730//730
f 735//735 734//734 736//736
f 735//735 736//736 732//732
f 732//732 734//734 735//735
f 49//49 231//231 737//737
f 49//49 737//737 733//733
f 737//737 231//231 733//733
f 242//242 230//230 749//749
f 242//242 749//749 750//750
f 749//749 230//230 750//750
f 232//232 728//728 730//730
f 233//233 746//746 424//424
f 50//50 744//744 745//745
f 744//744 229//229 745//745
f 56//56 738//738 740//740
f 738//738 234//234 741//741
f 740//740 741//741 235//235
f 738//738 741//741 740//740
f 58//58 54//54 756//756
f 746//746 237//237 236//236
f 746//746 236//236 742//742
f 746//746 742//742 424//424
f 239//239 238//238 747//747
f 239//239 747//747 55//55
f 754//754 244//244 753//753
f 754//754 753//753 739//739
f 434//434 244//244 754//754
f 755//755 754//754 739//739
f 434//434 754//754 755//755
f 233//233 237//237 746//746
f 240//240 748//748 751//751
f 748//748 241//241 752//752
f 751//751 752//752 243//243
f 748//748 752//752 751//751
f 701//701 427//427 54//54
f 258//258 244//244 434//434
f 780//780 434//434 255//255
f 258//258 434//434 780//780
f 777//777 775//775 776//776
f 777//777 776//776 757//757
f 757//757 775//775 777//777
f 425//425 388//388 725//725
f 58//58 756//756 427//427
f 756//756 54//54 427//427
f 758//758 782//782 245//245
f 246//246 782//782 758//758
f 426//426 762//762 425//425
f 57//57 426//426 425//425
f 247//247 759//759 65//65
f 426//426 57//57 760//760
f 759//759 247//247 59//59
f 427//427 428//428 58//58
f 248//248 783//783 761//761
f 783//783 259//259 784//784
f 761//761 784//784 249//249
f 783//783 784//784 761//761
f 759//759 785//785 65//65
f 59//59 785//785 759//759
f 428//428 427//427 684//684
f 427//427 701//701 684//684
f 760//760 763//763 426//426
f 763//763 762//762 426//426
f 60//60 430//430 429//429
f 430//430 428//428 429//429
f 762//762 62//62 770//770
f 212//212 432//432 431//431
f 432//432 60//60 429//429
f 431//431 429//429 428//428
f 432//432 429//429 431//431
f 251//251 61//61 767//767
f 251//251 767//767 252//252
f 252//252 767//767 61//61
f 766//766 768//768 433//433
f 768//768 60//60 432//432
f 433//433 432//432 212//212
f 768//768 432//432 433//433
f 433//433 212//212 63//63
f 250//250 766//766 764//764
f 253//253 773//773 772//772
f 773//773 769//769 772//772
f 253//253 769//769 773//773
f 63//63 765//765 433//433
f 765//765 250//250 764//764
f 433//433 764//764 766//766
f 765//765 764//764 433//433
f 62//62 771//771 770//770
f 778//778 434//434 755//755
f 255//255 434//434 778//778
f 255//255 778//778 780//780
f 778//778 755//755 435//435
f 780//780 435//435 64//64
f 778//778 435//435 780//780
f 257//257 256//256 779//779
f 779//779 781//781 257//257
f 256//256 781//781 779//779
f 780//780 64//64 258//258
f 425//425 725//725 57//57
f 67//67 789//789 437//437
f 264//264 266//266 791//791
f 66//66 436//436 73//73
f 787//787 788//788 261//261
f 794//794 788//788 787//787
f 262//262 792//792 790//790
f 792//792 267//267 793//793
f 790//790 793//793 263//263
f 792//792 793//793 790//790
f 67//67 437//437 438//438
f 437//437 789//789 438//438
f 787//787 261//261 794//794
f 269//269 799//799 800//800
f 69//69 797//797 439//439
f 797//797 268//268 796//796
f 439//439 796//796 68//68
f 797//797 796//796 439//439
f 273//273 798//798 803//803
f 801//801 795//795 265//265
f 264//264 791//791 270//270
f 791//791 266//266 270//270
f 70//70 272//272 802//802
f 274//274 273//273 803//803
f 274//274 803//803 798//798
f 271//271 70//70 802//802
f 271//271 802//802 272//272
f 254//254 806//806 805//805
f 75//75 71//71 774//774
f 804//804 806//806 254//254
f 806//806 804//804 449//449
f 806//806 449//449 78//78
f 78//78 819//819 806//806
f 819//819 76//76 805//805
f 819//819 805//805 806//806
f 282//282 442//442 812//812
f 442//442 282//282 441//441
f 79//79 809//809 824//824
f 809//809 275//275 825//825
f 824//824 825//825 283//283
f 809//809 825//825 824//824
f 276//276 810//810 811//811
f 440//440 807//807 80//80
f 284//284 73//73 436//436
f 284//284 436//436 66//66
f 72//72 811//811 810//810
f 441//441 812//812 442//442
f 810//810 276//276 72//72
f 260//260 277//277 813//813
f 786//786 813//813 831//831
f 260//260 813//813 786//786
f 815//815 74//74 816//816
f 816//816 483//483 815//815
f 483//483 74//74 815//815
f 483//483 83//83 74//74
f 451//451 83//83 483//483
f 817//817 278//278 818//818
f 450//450 467//467 774//774
f 450//450 774//774 71//71
f 443//443 449//449 804//804
f 819//819 78//78 76//76
f 450//450 71//71 820//820
f 829//829 820//820 77//77
f 449//449 827//827 78//78
f 444//444 77//77 279//279
f 808//808 829//829 444//444
f 829//829 77//77 444//444
f 444//444 279//279 808//808
f 446//446 447//447 823//823
f 445//445 823//823 281//281
f 446//446 823//823 445//445
f 808//808 807//807 829//829
f 807//807 440//440 829//829
f 447//447 446//446 445//445
f 447//447 821//821 823//823
f 823//823 821//821 281//281
f 280//280 822//822 826//826
f 822//822 79//79 824//824
f 826//826 824//824 283//283
f 822//822 824//824 826//826
f 827//827 458//458 301//301
f 831//831 260//260 786//786
f 87//87 461//461 814//814
f 461//461 831//831 813//813
f 814//814 813//813 277//277
f 461//461 813//813 814//814
f 818//818 453//453 867//867
f 828//828 278//278 448//448
f 828//828 448//448 328//328
f 818//818 867//867 448//448
f 867//867 328//328 448//448
f 818//818 448//448 817//817
f 817//817 448//448 278//278
f 75//75 443//443 804//804
f 449//449 443//443 75//75
f 75//75 856//856 449//449
f 820//820 456//456 450//450
f 456//456 455//455 450//450
f 286//286 287//287 830//830
f 286//286 830//830 86//86
f 454//454 455//455 86//86
f 468//468 455//455 454//454
f 300//300 829//829 440//440
f 300//300 456//456 829//829
f 829//829 456//456 820//820
f 455//455 456//456 287//287
f 449//449 458//458 827//827
f 87//87 832//832 461//461
f 832//832 831//831 461//461
f 838//838 285//285 469//469
f 291//291 285//285 838//838
f 292//292 839//839 840//840
f 838//838 293//293 291//291
f 462//462 293//293 838//838
f 840//840 841//841 292//292
f 839//839 841//841 840//840
f 93//93 293//293 462//462
f 81//81 88//88 833//833
f 930//930 484//484 483//483
f 484//484 451//451 483//483
f 484//484 83//83 451//451
f 855//855 453//453 85//85
f 453//453 818//818 452//452
f 453//453 452//452 85//85
f 84//84 844//844 297//297
f 299//299 297//297 844//844
f 299//299 844//844 84//84
f 452//452 818//818 845//845
f 452//452 298//298 85//85
f 845//845 298//298 452//452
f 856//856 75//75 774//774
f 467//467 856//856 774//774
f 455//455 468//468 450//450
f 467//467 468//468 91//91
f 450//450 468//468 467//467
f 287//287 468//468 830//830
f 830//830 454//454 86//86
f 468//468 454//454 830//830
f 457//457 287//287 456//456
f 457//457 456//456 300//300
f 459//459 300//300 440//440
f 91//91 457//457 92//92
f 457//457 300//300 459//459
f 457//457 459//459 92//92
f 92//92 459//459 836//836
f 836//836 834//834 289//289
f 459//459 834//834 836//836
f 459//459 440//440 460//460
f 289//289 835//835 80//80
f 835//835 440//440 80//80
f 459//459 460//460 834//834
f 460//460 440//440 835//835
f 834//834 835//835 289//289
f 460//460 835//835 834//834
f 313//313 875//875 285//285
f 875//875 479//479 469//469
f 875//875 469//469 285//285
f 301//301 458//458 889//889
f 469//469 479//479 93//93
f 93//93 462//462 469//469
f 462//462 838//838 469//469
f 302//302 303//303 847//847
f 847//847 846//846 302//302
f 303//303 846//846 847//847
f 849//849 89//89 463//463
f 848//848 463//463 82//82
f 849//849 463//463 848//848
f 466//466 82//82 463//463
f 464//464 463//463 89//89
f 466//466 463//463 464//464
f 466//466 464//464 89//89
f 305//305 853//853 850//850
f 307//307 852//852 842//842
f 852//852 491//491 465//465
f 852//852 465//465 842//842
f 307//307 490//490 852//852
f 490//490 331//331 491//491
f 490//490 491//491 852//852
f 295//295 306//306 851//851
f 295//295 851//851 854//854
f 851//851 306//306 854//854
f 101//101 106//106 492//492
f 816//816 910//910 483//483
f 910//910 930//930 483//483
f 104//104 101//101 492//492
f 500//500 866//866 484//484
f 484//484 866//866 83//83
f 492//492 106//106 485//485
f 453//453 855//855 867//867
f 90//90 449//449 856//856
f 91//91 468//468 457//457
f 457//457 468//468 287//287
f 310//310 870//870 869//869
f 870//870 290//290 837//837
f 869//869 837//837 288//288
f 870//870 837//837 869//869
f 88//88 896//896 833//833
f 833//833 896//896 81//81
f 486//486 94//94 471//471
f 486//486 471//471 470//470
f 471//471 94//94 470//470
f 857//857 848//848 308//308
f 89//89 849//849 119//119
f 849//849 848//848 857//857
f 849//849 857//857 119//119
f 101//101 486//486 481//481
f 486//486 470//470 481//481
f 481//481 470//470 101//101
f 102//102 472//472 482//482
f 858//858 865//865 309//309
f 859//859 95//95 862//862
f 860//860 95//95 859//859
f 860//860 859//859 862//862
f 296//296 842//842 917//917
f 304//304 472//472 863//863
f 472//472 102//102 863//863
f 305//305 850//850 864//864
f 850//850 853//853 864//864
f 490//490 307//307 861//861
f 490//490 861//861 865//865
f 865//865 861//861 307//307
f 842//842 465//465 917//917
f 917//917 491//491 331//331
f 465//465 491//491 917//917
f 868//868 328//328 867//867
f 855//855 868//868 867//867
f 449//449 889//889 458//458
f 90//90 856//856 873//873
f 873//873 856//856 467//467
f 311//311 871//871 878//878
f 871//871 321//321 877//877
f 878//878 877//877 96//96
f 871//871 877//877 878//878
f 888//888 473//473 312//312
f 318//318 882//882 314//314
f 90//90 889//889 449//449
f 312//312 473//473 872//872
f 872//872 473//473 888//888
f 314//314 882//882 876//876
f 882//882 318//318 876//876
f 321//321 474//474 877//877
f 474//474 96//96 877//877
f 474//474 478//478 96//96
f 321//321 478//478 474//474
f 315//315 879//879 883//883
f 879//879 316//316 884//884
f 883//883 884//884 319//319
f 879//879 884//884 883//883
f 890//890 475//475 874//874
f 874//874 475//475 893//893
f 477//477 97//97 476//476
f 874//874 313//313 890//890
f 317//317 886//886 880//880
f 886//886 320//320 885//885
f 880//880 885//885 98//98
f 886//886 885//885 880//880
f 891//891 475//475 890//890
f 891//891 893//893 475//475
f 99//99 97//97 477//477
f 99//99 477//477 476//476
f 887//887 892//892 881//881
f 100//100 892//892 887//887
f 100//100 887//887 881//881
f 893//893 479//479 874//874
f 874//874 875//875 313//313
f 479//479 875//875 874//874
f 311//311 894//894 871//871
f 894//894 321//321 871//871
f 323//323 322//322 895//895
f 321//321 894//894 898//898
f 894//894 311//311 898//898
f 323//323 895//895 897//897
f 895//895 322//322 897//897
f 488//488 109//109 489//489
f 94//94 486//486 912//912
f 857//857 308//308 480//480
f 857//857 480//480 119//119
f 488//488 489//489 482//482
f 900//900 901//901 914//914
f 102//102 482//482 489//489
f 904//904 325//325 902//902
f 901//901 904//904 902//902
f 858//858 309//309 103//103
f 104//104 520//520 101//101
f 326//326 324//324 899//899
f 326//326 899//899 294//294
f 843//843 105//105 296//296
f 905//905 327//327 906//906
f 843//843 110//110 105//105
f 294//294 899//899 324//324
f 916//916 917//917 331//331
f 331//331 490//490 498//498
f 490//490 865//865 498//498
f 858//858 103//103 498//498
f 858//858 498//498 865//865
f 327//327 905//905 907//907
f 905//905 906//906 907//907
f 910//910 908//908 930//930
f 508//508 484//484 930//930
f 508//508 500//500 484//484
f 957//957 866//866 911//911
f 520//520 912//912 486//486
f 520//520 486//486 101//101
f 108//108 913//913 107//107
f 487//487 308//308 913//913
f 487//487 913//913 108//108
f 308//308 487//487 480//480
f 119//119 480//480 506//506
f 506//506 487//487 108//108
f 480//480 487//487 506//506
f 495//495 112//112 496//496
f 488//488 496//496 109//109
f 495//495 496//496 488//488
f 472//472 304//304 482//482
f 901//901 900//900 904//904
f 900//900 914//914 903//903
f 904//904 903//903 325//325
f 900//900 903//903 904//904
f 931//931 110//110 499//499
f 110//110 843//843 916//916
f 843//843 296//296 917//917
f 843//843 917//917 916//916
f 331//331 499//499 916//916
f 499//499 110//110 916//916
f 330//330 332//332 918//918
f 330//330 918//918 909//909
f 918//918 332//332 909//909
f 931//931 930//930 908//908
f 104//104 492//492 485//485
f 500//500 911//911 866//866
f 504//504 116//116 503//503
f 503//503 333//333 504//504
f 912//912 520//520 505//505
f 333//333 503//503 107//107
f 503//503 108//108 107//107
f 108//108 503//503 510//510
f 119//119 506//506 510//510
f 506//506 108//108 510//510
f 494//494 304//304 928//928
f 111//111 113//113 924//924
f 111//111 924//924 337//337
f 928//928 335//335 494//494
f 335//335 112//112 497//497
f 335//335 497//497 494//494
f 334//334 920//920 922//922
f 336//336 334//334 922//922
f 336//336 922//922 920//920
f 112//112 495//495 497//497
f 495//495 488//488 493//493
f 497//497 493//493 494//494
f 495//495 493//493 497//497
f 494//494 482//482 304//304
f 488//488 482//482 493//493
f 493//493 482//482 494//494
f 337//337 924//924 925//925
f 924//924 113//113 925//925
f 338//338 923//923 329//329
f 923//923 915//915 329//329
f 329//329 915//915 103//103
f 915//915 923//923 498//498
f 915//915 498//498 103//103
f 520//520 104//104 485//485
f 498//498 923//923 331//331
f 499//499 331//331 923//923
f 911//911 526//526 957//957
f 508//508 911//911 500//500
f 926//926 501//501 115//115
f 339//339 501//501 926//926
f 115//115 339//339 926//926
f 114//114 502//502 932//932
f 933//933 502//502 114//114
f 932//932 502//502 933//933
f 520//520 519//519 504//504
f 505//505 504//504 333//333
f 520//520 504//504 505//505
f 510//510 503//503 116//116
f 919//919 921//921 941//941
f 919//919 941//941 343//343
f 343//343 921//921 919//919
f 121//121 923//923 338//338
f 923//923 121//121 512//512
f 511//511 520//520 485//485
f 499//499 923//923 931//931
f 923//923 512//512 931//931
f 931//931 512//512 929//929
f 929//929 944//944 117//117
f 512//512 944//944 929//929
f 508//508 930//930 507//507
f 930//930 931//931 929//929
f 507//507 929//929 117//117
f 930//930 929//929 507//507
f 911//911 508//508 526//526
f 118//118 341//341 934//934
f 342//342 935//935 937//937
f 934//934 509//509 118//118
f 341//341 509//509 934//934
f 515//515 347//347 936//936
f 342//342 937//937 939//939
f 937//937 935//935 939//939
f 520//520 340//340 953//953
f 522//522 119//119 510//510
f 349//349 956//956 942//942
f 513//513 121//121 943//943
f 120//120 130//130 121//121
f 121//121 338//338 942//942
f 943//943 121//121 130//130
f 129//129 524//524 513//513
f 121//121 513//513 512//512
f 525//525 944//944 513//513
f 525//525 513//513 524//524
f 944//944 512//512 513//513
f 945//945 944//944 525//525
f 944//944 514//514 117//117
f 945//945 514//514 944//944
f 945//945 525//525 514//514
f 117//117 514//514 507//507
f 514//514 525//525 508//508
f 514//514 508//508 507//507
f 526//526 508//508 528//528
f 345//345 340//340 927//927
f 122//122 946//946 950//950
f 946//946 344//344 950//950
f 344//344 948//948 947//947
f 936//936 949//949 515//515
f 947//947 948//948 122//122
f 948//948 344//344 946//946
f 948//948 946//946 122//122
f 927//927 125//125 345//345
f 951//951 123//123 346//346
f 347//347 515//515 949//949
f 133//133 517//517 938//938
f 938//938 517//517 953//953
f 927//927 340//340 516//516
f 927//927 516//516 125//125
f 126//126 953//953 517//517
f 517//517 519//519 126//126
f 520//520 953//953 126//126
f 126//126 519//519 520//520
f 128//128 125//125 516//516
f 940//940 516//516 340//340
f 128//128 516//516 940//940
f 965//965 964//964 960//960
f 965//965 960//960 348//348
f 127//127 116//116 504//504
f 518//518 504//504 519//519
f 127//127 504//504 518//518
f 135//135 522//522 521//521
f 521//521 510//510 116//116
f 522//522 510//510 521//521
f 349//349 955//955 954//954
f 349//349 954//954 956//956
f 954//954 975//975 956//956
f 340//340 523//523 940//940
f 940//940 523//523 128//128
f 511//511 128//128 523//523
f 970//970 348//348 526//526
f 129//129 131//131 958//958
f 956//956 131//131 129//129
f 511//511 523//523 520//520
f 520//520 523//523 340//340
f 526//526 348//348 957//957
f 942//942 956//956 121//121
f 956//956 120//120 121//121
f 129//129 130//130 956//956
f 130//130 120//120 956//956
f 958//958 131//131 524//524
f 943//943 130//130 513//513
f 130//130 129//129 513//513
f 526//526 959//959 975//975
f 350//350 975//975 959//959
f 137//137 350//350 959//959
f 526//526 132//132 959//959
f 525//525 524//524 131//131
f 525//525 131//131 533//533
f 533//533 137//137 527//527
f 137//137 959//959 528//528
f 959//959 132//132 528//528
f 527//527 137//137 528//528
f 132//132 526//526 528//528
f 527//527 525//525 533//533
f 508//508 525//525 527//527
f 508//508 527//527 528//528
f 351//351 124//124 952//952
f 952//952 124//124 963//963
f 952//952 963//963 351//351
f 962//962 348//348 960//960
f 123//123 951//951 961//961
f 951//951 346//346 961//961
f 960//960 964//964 962//962
f 352//352 134//134 966//966
f 352//352 966//966 353//353
f 519//519 517//517 529//529
f 517//517 133//133 531//531
f 517//517 531//531 529//529
f 353//353 966//966 967//967
f 966//966 134//134 532//532
f 967//967 532//532 136//136
f 966//966 532//532 967//967
f 964//964 970//970 136//136
f 519//519 529//529 518//518
f 529//529 531//531 530//530
f 518//518 530//530 127//127
f 529//529 530//530 518//518
f 968//968 135//135 521//521
f 968//968 521//521 116//116
f 955//955 353//353 967//967
f 969//969 967//967 136//136
f 955//955 967//967 969//969
f 348//348 970//970 965//965
f 965//965 970//970 964//964
f 136//136 970//970 969//969
f 969//969 970//970 955//955
f 975//975 954//954 970//970
f 970//970 954//954 955//955
f 354//354 355//355 972//972
f 354//354 972//972 971//971
f 972//972 355//355 971//971
f 131//131 956//956 973//973
f 956//956 975//975 973//973
f 975//975 970//970 526//526
f 973//973 533//533 131//131
f 137//137 533//533 974//974
f 974//974 973//973 975//975
f 533//533 973//973 974//974
