# decimated by Tools/decimate_anatomy.py from 1312 triangles (BodyParts3D, CC BY 4.0)
v -0.01324530 -0.00625255 0.04167313
v -0.01320216 -0.00658488 0.03927852
v -0.01515249 -0.00840597 0.04683699
v -0.01601917 -0.00785515 0.04473349
v -0.02476332 -0.00530138 0.05835101
v -0.02421376 -0.00630752 0.05727854
v -0.02450717 -0.00786723 0.06014665
v -0.02433240 -0.00504423 0.06638833
v -0.02675119 -0.00305923 0.06371894
v -0.02779709 -0.00270396 0.06801307
v -0.03123112 -0.00222847 0.08719317
v -0.02944541 -0.00202280 0.07165750
v -0.03040742 -0.00215332 0.08553536
v -0.03508528 -0.00056207 0.08551766
v -0.03557124 0.00031145 0.09621121
v -0.03650985 0.00072742 0.09710840
v -0.02863859 -0.00590415 0.07691674
v -0.03695570 0.00139424 0.09786075
v -0.03748841 0.00096501 0.09358077
v -0.03691418 0.00126385 0.09770195
v -0.03717654 0.00131505 0.09756359
v -0.03716088 0.00120507 0.09741139
v -0.03667505 0.00113023 0.09725490
v -0.03715618 0.00118854 0.09740178
v -0.03722856 0.00144246 0.09771049
v -0.03718520 0.00121010 0.09743239
v -0.03774514 0.00043961 0.09587887
v -0.01321790 -0.00776288 0.04368374
v -0.01295292 -0.00717057 0.03936174
v -0.01872179 -0.00702688 0.05662581
v -0.01609478 -0.00718111 0.04694230
v -0.02068789 -0.00729559 0.05200629
v -0.02436878 -0.00689098 0.05750121
v -0.02030452 -0.00671301 0.05202636
v -0.02139786 -0.00707160 0.05293516
v -0.01670997 -0.00849753 0.04597051
v -0.01948074 -0.00619418 0.05264238
v -0.02613032 -0.00440949 0.07349379
v -0.02548675 -0.00400263 0.06071398
v -0.03530849 -0.00199913 0.09224629
v -0.03188889 -0.00166777 0.08836756
v -0.03386215 -0.00123885 0.08070837
v -0.03513940 0.00051628 0.09515894
v -0.03637153 0.00089747 0.09724896
v -0.03678653 0.00064491 0.09688094
v -0.03421537 -0.00064433 0.09352568
v -0.03559447 -0.00012041 0.09570066
v -0.03521449 -0.00180980 0.09293285
v -0.03652510 0.00101095 0.09703890
v -0.03654635 0.00109636 0.09715479
v -0.03693855 0.00132159 0.09778150
v -0.03695319 0.00114396 0.09753316
v -0.03717282 0.00131838 0.09756353
v -0.03715150 0.00115807 0.09734316
v -0.03709602 0.00116788 0.09723612
v -0.03719049 0.00130146 0.09758005
v -0.03717752 0.00123045 0.09747687
v -0.03719783 0.00143878 0.09772861
v -0.03722332 0.00139916 0.09765063
v -0.03716056 0.00111045 0.09728856
v -0.03719707 0.00128636 0.09750830
v -0.03717906 0.00117526 0.09737437
v -0.03555773 0.00057654 0.09415438
v -0.03769951 0.00046948 0.09421011
v -0.03757897 0.00096236 0.09342650
v -0.01312987 -0.00657954 0.03972850
v -0.01350298 -0.00620733 0.04100599
v -0.01352215 -0.00771256 0.04418865
v -0.01523207 -0.00726237 0.04518292
v -0.01328979 -0.00611319 0.04142553
v -0.01514068 -0.00755638 0.04716106
v -0.01706146 -0.00761355 0.04738761
v -0.01624084 -0.00814403 0.04480465
v -0.01479931 -0.00779637 0.04681021
v -0.01700608 -0.00706499 0.04970689
v -0.01778987 -0.00825436 0.04742076
v -0.02007724 -0.00664606 0.05194273
v -0.01745132 -0.00827531 0.05205070
v -0.01750803 -0.00851732 0.05172125
v -0.02407872 -0.00688828 0.05699511
v -0.02324976 -0.00582961 0.06729335
v -0.02100116 -0.00823520 0.05373072
v -0.02184833 -0.00787410 0.05481432
v -0.02365759 -0.00433376 0.05879388
v -0.02362698 -0.00427638 0.05940603
v -0.02340995 -0.00608462 0.06766661
v -0.02503338 -0.00506678 0.07095210
v -0.02569753 -0.00572511 0.07312795
v -0.02362353 -0.00779724 0.06346802
v -0.02659682 -0.00618361 0.06078587
v -0.02582592 -0.00457989 0.07305219
v -0.02499807 -0.00646800 0.07039875
v -0.02941207 -0.00205900 0.07233341
v -0.02380294 -0.00792347 0.06216433
v -0.02679135 -0.00730505 0.06597245
v -0.03078548 -0.00162497 0.08566537
v -0.02597872 -0.00738493 0.06770155
v -0.02957972 -0.00455832 0.08153618
v -0.02900254 -0.00213996 0.07952778
v -0.02938152 -0.00417763 0.08159742
v -0.03350936 -0.00009367 0.08714273
v -0.03287511 -0.00052103 0.08702966
v -0.03246943 -0.00038222 0.08526837
v -0.03346133 -0.00367165 0.07917106
v -0.03545842 0.00031380 0.08808113
v -0.03469815 0.00029735 0.08837693
v -0.03692019 -0.00073763 0.09077164
v -0.03394170 -0.00253346 0.07953670
v -0.03612970 -0.00038626 0.08771335
v -0.03543960 -0.00142144 0.08472568
v -0.03143128 -0.00225271 0.08756025
v -0.03493565 -0.00138367 0.09356977
v -0.03632038 0.00052242 0.09030545
v -0.03690698 0.00133866 0.09775770
v -0.03716884 0.00125221 0.09747786
v -0.03714823 0.00119425 0.09739490
v -0.01468054 -0.00832601 0.04588987
v -0.01287615 -0.00840884 0.04238769
v -0.01663491 -0.00861505 0.04590814
v -0.01274369 -0.00719259 0.03941568
v -0.01317544 -0.00655546 0.03932111
v -0.01274591 -0.00723905 0.03941119
v -0.01265817 -0.00734027 0.03944911
v -0.01338572 -0.00646673 0.03939919
v -0.01301116 -0.00748434 0.04023502
v -0.01476432 -0.00715247 0.04222305
v -0.02067834 -0.00835218 0.05839652
v -0.01419463 -0.00738526 0.04487600
v -0.01885917 -0.00772777 0.05617315
v -0.01875751 -0.00768879 0.04920952
v -0.02147844 -0.00656672 0.05359914
v -0.02327212 -0.00632294 0.06729999
v -0.02283084 -0.00598139 0.06587735
v -0.02490900 -0.00492860 0.05861973
v -0.02517901 -0.00487454 0.07136317
v -0.02013590 -0.00617307 0.05285375
v -0.02577072 -0.00391100 0.06094994
v -0.02337039 -0.00569132 0.06729491
v -0.02939989 -0.00206529 0.07653271
v -0.02816377 -0.00338255 0.07934571
v -0.03167799 -0.00540171 0.07678238
v -0.02718810 -0.00412847 0.06284636
v -0.03027454 -0.00207077 0.07222836
v -0.02930193 -0.00170898 0.07973380
v -0.03292496 -0.00353281 0.07622564
v -0.03237638 -0.00217281 0.07588918
v -0.03462691 -0.00137878 0.08227581
v -0.03665168 0.00040334 0.09536527
v -0.03643679 0.00083119 0.09718015
v -0.03481333 -0.00011329 0.09467467
v -0.03583486 -0.00060784 0.09488467
v -0.03650988 0.00085451 0.09708567
v -0.03645981 0.00095013 0.09713045
v -0.03676926 0.00124710 0.09752217
v -0.03672640 0.00115004 0.09739514
v -0.03664627 0.00094731 0.09711393
v -0.03697806 0.00109472 0.09743809
v -0.03594158 0.00033636 0.08871992
v -0.03689203 0.00097246 0.09734589
v -0.03611181 -0.00058863 0.09486087
v -0.03693560 0.00105598 0.09694159
v -0.03695097 0.00128702 0.09764621
v -0.03695082 0.00117192 0.09747559
v -0.03720544 0.00143667 0.09771407
v -0.03716089 0.00122329 0.09743331
v -0.03694596 0.00117864 0.09740132
v -0.03706984 0.00118255 0.09731567
v -0.03717558 0.00124570 0.09748415
v -0.03718141 0.00123937 0.09749052
v -0.03718474 0.00124401 0.09749210
v -0.03720500 0.00133267 0.09760361
v -0.03720666 0.00131662 0.09755751
v -0.03716668 0.00122353 0.09743771
v -0.03715732 0.00114008 0.09732422
v -0.03723429 0.00095185 0.09672105
v -0.03592338 0.00078696 0.09318914
v -0.03756129 0.00079218 0.09659560
v -0.03719370 0.00042948 0.09619407
v -0.03774922 0.00068323 0.09381828
vn 0.757156 0.597160 0.264793
vn 0.287521 0.006297 -0.957754
vn 0.794280 -0.480143 0.372266
vn -0.873176 0.088054 -0.479385
vn -0.802976 0.154740 -0.575573
vn -0.782347 0.242332 -0.573767
vn -0.658517 -0.705551 -0.261827
vn 0.570038 0.814335 0.109159
vn 0.383412 0.923554 0.006598
vn 0.556809 0.823602 0.107907
vn 0.909283 -0.122475 0.397749
vn -0.070288 0.981191 -0.179786
vn 0.816278 0.524564 0.241915
vn -0.440090 0.849839 -0.289989
vn 0.902484 0.150697 0.403501
vn -0.772483 0.111634 0.625146
vn 0.342922 -0.885551 0.313374
vn 0.655816 -0.489986 0.574299
vn 0.067955 0.995726 -0.062539
vn 0.618900 -0.533907 0.576113
vn 0.820046 -0.426169 0.381974
vn 0.796314 0.551094 0.249355
vn 0.148913 0.927249 -0.343561
vn 0.778857 -0.330472 0.533076
vn 0.282133 0.789423 -0.545172
vn -0.868269 -0.448543 0.211939
vn -0.132186 0.897827 -0.420039
vn 0.757264 -0.542560 0.363565
vn 0.210143 -0.068907 -0.975239
vn 0.850430 -0.364499 0.379353
vn 0.048046 0.988312 0.144674
vn -0.705578 0.443154 -0.552969
vn -0.752626 -0.479048 -0.451738
vn -0.679735 0.482679 -0.552250
vn -0.834201 0.011228 -0.551346
vn -0.431634 -0.885812 -0.170382
vn 0.045876 0.968952 -0.242954
vn 0.632405 0.771665 0.067800
vn -0.443729 0.806752 -0.390200
vn -0.310225 -0.939785 0.143402
vn 0.758066 0.595272 0.266435
vn -0.847377 0.417654 -0.327899
vn 0.902900 0.161085 0.398526
vn -0.772510 0.111690 0.625103
vn -0.160304 -0.859847 0.484733
vn 0.903763 0.151398 0.400365
vn -0.030087 -0.854181 0.519104
vn -0.200599 -0.868723 0.452859
vn -0.772470 0.111725 0.625147
vn 0.613038 -0.537277 0.579239
vn -0.019380 -0.781171 0.624016
vn -0.999292 0.022294 -0.030298
vn -0.399003 0.722735 -0.564315
vn -0.397905 0.723109 -0.564610
vn 0.027017 0.939262 -0.342135
vn -0.560066 -0.674290 0.481310
vn -0.469983 -0.758058 0.452178
vn 0.615923 0.667086 -0.419087
vn -0.912146 -0.362358 0.191537
vn -0.398074 0.723076 -0.564533
vn 0.401699 0.747200 -0.529461
vn -0.968334 -0.245790 0.043783
vn 0.445361 0.894962 0.026388
vn -0.922001 -0.377699 -0.085192
vn -0.809836 0.497894 -0.310269
vn 0.859535 0.509502 -0.040087
vn -0.918767 0.168236 -0.357160
vn 0.704554 0.595979 0.385245
vn -0.470300 0.873878 -0.123111
vn 0.126679 0.965240 0.228615
vn 0.273746 0.952258 0.135159
vn -0.084160 0.975479 -0.203366
vn -0.763857 -0.351791 -0.541078
vn 0.446096 0.887792 0.113240
vn 0.472934 0.876749 0.087438
vn -0.861379 -0.180609 -0.474770
vn -0.141581 0.934796 -0.325747
vn 0.724824 -0.603860 0.331638
vn 0.655885 -0.683236 0.320942
vn -0.846010 0.021468 -0.532735
vn 0.743116 0.653599 0.143483
vn -0.667446 -0.664708 -0.335676
vn -0.720938 -0.578468 -0.381606
vn 0.257464 0.960790 -0.102933
vn 0.521937 0.846666 0.103632
vn 0.904901 0.071297 0.419609
vn 0.906645 -0.141111 0.397596
vn 0.892802 -0.228240 0.388344
vn 0.197353 -0.958547 0.205524
vn -0.865137 -0.375864 -0.332060
vn 0.933405 0.126845 0.335656
vn 0.522322 -0.789104 0.323256
vn 0.409105 0.912477 -0.004271
vn -0.238678 -0.970761 -0.025606
vn -0.486268 -0.867221 -0.107107
vn 0.627760 0.764772 0.145057
vn -0.041174 -0.985224 0.166250
vn 0.469116 -0.802662 0.368326
vn 0.744759 0.660754 0.093473
vn 0.769944 -0.478715 0.421923
vn 0.476439 0.873843 0.096976
vn 0.523014 0.848045 0.085299
vn 0.444003 0.896008 0.005469
vn -0.833916 -0.537366 -0.125784
vn -0.279038 0.902582 -0.327846
vn -0.007315 0.989354 -0.145347
vn -0.759408 -0.649441 -0.039055
vn -0.944971 -0.242537 -0.219558
vn -0.867165 0.376790 -0.325660
vn -0.937367 0.208415 -0.279117
vn 0.501540 -0.748580 0.433689
vn 0.545160 -0.724021 0.422604
vn -0.023904 0.990461 -0.135702
vn 0.660477 -0.480277 0.577152
vn 0.956719 -0.132138 0.259285
vn 0.834053 -0.178157 0.522126
vn 0.783683 -0.504633 0.362198
vn 0.826859 -0.357139 0.434460
vn 0.157915 -0.986176 0.050203
vn 0.834488 0.549109 -0.045932
vn 0.645794 0.754037 -0.119908
vn 0.273365 -0.020320 -0.961696
vn 0.465055 0.072532 -0.882306
vn 0.129764 0.975731 -0.176382
vn 0.278282 -0.960383 -0.014937
vn -0.557442 0.770475 -0.309237
vn 0.341637 -0.920886 0.187756
vn 0.402300 0.860140 0.313551
vn 0.722910 -0.594798 0.351592
vn -0.689742 0.472781 -0.548392
vn -0.652553 0.499646 -0.569674
vn 0.860216 -0.304551 0.408995
vn 0.557707 0.816705 0.148176
vn -0.733217 0.403601 -0.547265
vn 0.926110 0.122923 0.356664
vn -0.223126 0.894470 -0.387477
vn -0.211394 0.893273 -0.396707
vn 0.618249 0.778205 0.110296
vn 0.473071 0.881024 0.000687
vn 0.824908 0.530927 0.194019
vn -0.502046 -0.864795 -0.008892
vn -0.798141 0.438067 -0.413603
vn -0.397126 0.876268 -0.272845
vn 0.249079 0.968442 -0.008903
vn -0.923044 -0.214361 -0.319435
vn -0.774895 0.514127 -0.367711
vn -0.863415 0.366668 -0.346510
vn -0.083957 0.915243 -0.394059
vn -0.772487 0.111680 0.625133
vn 0.902988 0.154977 0.400744
vn -0.054285 -0.857535 0.511554
vn -0.772473 0.111692 0.625148
vn -0.772482 0.111711 0.625133
vn 0.658350 -0.475820 0.583241
vn 0.621060 -0.529584 0.577776
vn 0.598731 -0.559006 0.573614
vn -0.432396 -0.716782 0.547044
vn -0.475091 0.834331 -0.279607
vn -0.326276 -0.805373 0.494891
vn -0.271566 -0.864979 0.421975
vn -0.058563 0.913730 -0.402079
vn -0.997567 0.057391 -0.039588
vn -0.997938 0.048612 -0.041917
vn 0.397714 0.755180 -0.521082
vn -0.398627 0.722856 -0.564425
vn -0.996270 0.062488 -0.059511
vn 0.678098 -0.215404 0.702698
vn 0.806103 -0.406203 0.430347
vn 0.838494 -0.373058 0.397185
vn -0.667782 -0.643465 0.374193
vn -0.825454 -0.491259 0.278012
vn -0.939811 -0.321876 0.114677
vn -0.398686 0.722844 -0.564398
vn -0.398305 0.722975 -0.564501
vn 0.063700 0.866363 -0.495336
vn 0.478045 0.874192 0.085213
vn -0.380881 -0.837473 0.391878
vn -0.318998 -0.844434 0.430316
vn -0.969190 -0.111859 -0.219451
f 128//128 1//1 70//70
f 66//66 1//1 120//120
f 29//29 122//122 123//123
f 119//119 36//36 73//73
f 119//119 73//73 125//125
f 67//67 70//70 124//124
f 120//120 121//121 66//66
f 122//122 2//2 123//123
f 122//122 29//29 2//2
f 70//70 1//1 66//66
f 70//70 66//66 121//121
f 121//121 124//124 70//70
f 118//118 117//117 3//3
f 28//28 117//117 118//118
f 68//68 1//1 128//128
f 67//67 69//69 70//70
f 75//75 133//133 74//74
f 75//75 74//74 71//71
f 68//68 71//71 74//74
f 128//128 71//71 68//68
f 117//117 28//28 30//30
f 31//31 128//128 69//69
f 128//128 70//70 69//69
f 126//126 4//4 69//69
f 125//125 69//69 67//67
f 126//126 69//69 125//125
f 125//125 73//73 126//126
f 126//126 73//73 4//4
f 128//128 31//31 71//71
f 31//31 69//69 72//72
f 69//69 4//4 72//72
f 36//36 76//76 73//73
f 76//76 4//4 73//73
f 119//119 125//125 127//127
f 37//37 75//75 72//72
f 72//72 71//71 31//31
f 75//75 71//71 72//72
f 7//7 83//83 82//82
f 83//83 4//4 76//76
f 82//82 76//76 36//36
f 83//83 76//76 82//82
f 30//30 132//132 129//129
f 30//30 129//129 117//117
f 117//117 78//78 3//3
f 129//129 78//78 117//117
f 129//129 127//127 79//79
f 78//78 79//79 3//3
f 129//129 79//79 78//78
f 127//127 94//94 119//119
f 94//94 36//36 119//119
f 37//37 72//72 136//136
f 72//72 4//4 77//77
f 72//72 77//77 136//136
f 33//33 80//80 35//35
f 7//7 90//90 83//83
f 83//83 33//33 4//4
f 90//90 33//33 83//83
f 34//34 130//130 131//131
f 131//131 130//130 32//32
f 132//132 30//30 133//133
f 132//132 92//92 129//129
f 6//6 131//131 32//32
f 127//127 129//129 92//92
f 95//95 36//36 94//94
f 8//8 133//133 75//75
f 37//37 85//85 75//75
f 85//85 8//8 75//75
f 39//39 34//34 131//131
f 35//35 80//80 6//6
f 37//37 84//84 85//85
f 84//84 9//9 85//85
f 39//39 131//131 134//134
f 37//37 136//136 137//137
f 136//136 77//77 137//137
f 5//5 134//134 131//131
f 6//6 80//80 5//5
f 80//80 33//33 5//5
f 131//131 6//6 5//5
f 81//81 132//132 133//133
f 138//138 86//86 81//81
f 86//86 138//138 135//135
f 8//8 38//38 138//138
f 133//133 8//8 81//81
f 81//81 8//8 138//138
f 97//97 94//94 89//89
f 89//89 94//94 127//127
f 95//95 90//90 7//7
f 141//141 90//90 95//95
f 142//142 39//39 134//134
f 134//134 5//5 33//33
f 88//88 87//87 135//135
f 87//87 88//88 92//92
f 135//135 91//91 88//88
f 91//91 11//11 88//88
f 92//92 132//132 87//87
f 132//132 81//81 86//86
f 87//87 86//86 135//135
f 132//132 86//86 87//87
f 97//97 89//89 17//17
f 127//127 92//92 89//89
f 92//92 17//17 89//89
f 94//94 141//141 95//95
f 97//97 141//141 94//94
f 139//139 38//38 8//8
f 8//8 93//93 139//139
f 10//10 93//93 8//8
f 9//9 10//10 85//85
f 85//85 10//10 8//8
f 33//33 90//90 134//134
f 90//90 142//142 134//134
f 100//100 88//88 11//11
f 17//17 92//92 98//98
f 92//92 88//88 98//98
f 97//97 40//40 141//141
f 12//12 93//93 9//9
f 93//93 10//10 9//9
f 142//142 90//90 146//146
f 38//38 139//139 99//99
f 139//139 144//144 99//99
f 143//143 12//12 39//39
f 142//142 143//143 39//39
f 146//146 143//143 142//142
f 90//90 145//145 146//146
f 96//96 13//13 140//140
f 99//99 140//140 38//38
f 96//96 140//140 99//99
f 96//96 99//99 144//144
f 139//139 93//93 106//106
f 93//93 12//12 143//143
f 106//106 143//143 146//146
f 93//93 143//143 106//106
f 141//141 145//145 90//90
f 146//146 145//145 42//42
f 11//11 13//13 96//96
f 111//111 96//96 41//41
f 11//11 96//96 111//111
f 11//11 111//111 98//98
f 111//111 17//17 98//98
f 11//11 98//98 100//100
f 98//98 88//88 100//100
f 41//41 112//112 111//111
f 112//112 17//17 111//111
f 176//176 96//96 102//102
f 96//96 101//101 102//102
f 144//144 139//139 96//96
f 96//96 103//103 101//101
f 139//139 103//103 96//96
f 106//106 103//103 139//139
f 96//96 176//176 41//41
f 103//103 106//106 101//101
f 176//176 102//102 101//101
f 14//14 106//106 146//146
f 147//147 145//145 108//108
f 42//42 145//145 147//147
f 108//108 145//145 104//104
f 104//104 145//145 141//141
f 176//176 63//63 41//41
f 46//46 43//43 150//150
f 105//105 158//158 106//106
f 105//105 106//106 14//14
f 158//158 105//105 109//109
f 105//105 14//14 109//109
f 64//64 110//110 107//107
f 107//107 110//110 108//108
f 40//40 107//107 141//141
f 110//110 14//14 42//42
f 104//104 141//141 107//107
f 104//104 107//107 108//108
f 110//110 42//42 147//147
f 110//110 147//147 108//108
f 15//15 46//46 150//150
f 15//15 150//150 43//43
f 16//16 149//149 152//152
f 149//149 44//44 153//153
f 152//152 153//153 49//49
f 149//149 153//153 152//152
f 18//18 20//20 114//114
f 155//155 156//156 50//50
f 20//20 156//156 155//155
f 18//18 114//114 154//154
f 114//114 20//20 155//155
f 154//154 155//155 50//50
f 114//114 155//155 154//154
f 47//47 45//45 151//151
f 47//47 151//151 48//48
f 151//151 160//160 48//48
f 45//45 160//160 151//151
f 27//27 161//161 148//148
f 148//148 161//161 23//23
f 19//19 63//63 176//176
f 176//176 101//101 106//106
f 176//176 106//106 19//19
f 106//106 158//158 113//113
f 106//106 113//113 19//19
f 14//14 110//110 109//109
f 110//110 64//64 109//109
f 109//109 65//65 158//158
f 51//51 157//157 159//159
f 45//45 51//51 159//159
f 163//163 162//162 166//166
f 52//52 162//162 163//163
f 168//168 21//21 169//169
f 169//169 24//24 168//168
f 24//24 116//116 168//168
f 116//116 22//22 115//115
f 168//168 115//115 21//21
f 116//116 115//115 168//168
f 52//52 163//163 166//166
f 22//22 116//116 167//167
f 116//116 24//24 167//167
f 58//58 164//164 25//25
f 53//53 165//165 173//173
f 165//165 54//54 174//174
f 173//173 174//174 60//60
f 165//165 174//174 173//173
f 25//25 164//164 61//61
f 164//164 58//58 61//61
f 55//55 23//23 161//161
f 55//55 161//161 175//175
f 26//26 170//170 171//171
f 171//171 56//56 59//59
f 170//170 56//56 171//171
f 57//57 56//56 170//170
f 57//57 170//170 26//26
f 178//178 45//45 159//159
f 177//177 159//159 157//157
f 178//178 159//159 177//177
f 172//172 26//26 171//171
f 172//172 171//171 59//59
f 172//172 62//62 26//26
f 59//59 62//62 172//172
f 175//175 161//161 27//27
f 48//48 160//160 177//177
f 160//160 45//45 178//178
f 160//160 178//178 177//177
f 64//64 65//65 179//179
f 64//64 107//107 40//40
f 64//64 179//179 109//109
f 179//179 65//65 109//109
