# decimated by Tools/decimate_anatomy.py from 3464 triangles (BodyParts3D, CC BY 4.0)
v -0.00585210 -0.02443135 -0.02634995
v -0.00712118 -0.01917295 -0.00248831
v 0.00056943 -0.04171254 -0.16393033
v 0.00058409 -0.04184708 -0.16412932
v -0.00552435 -0.02396024 -0.01612339
v 0.00158658 -0.04400560 -0.16356894
v 0.00322167 -0.04544674 -0.16127512
v -0.00191065 -0.03875188 -0.08197507
v -0.00288495 -0.03319184 -0.04273703
v -0.00327538 -0.03115848 -0.03591238
v -0.00009835 -0.01829900 -0.00864583
v -0.00047444 -0.01831648 -0.00303857
v -0.00196367 -0.01705535 0.00126012
v -0.00218832 -0.01728252 0.00127137
v -0.00056661 -0.01947010 -0.00134911
v 0.00056116 -0.01884058 -0.02202772
v -0.00245729 -0.01642118 0.00922881
v -0.00439423 -0.01701625 0.02098914
v -0.00180994 -0.01367965 0.02028946
v -0.00097187 -0.04459518 -0.10233795
v -0.00137297 -0.04262354 -0.08704618
v -0.00084296 -0.04175667 -0.07894690
v -0.00193263 -0.04070353 -0.07940779
v -0.00199330 -0.03857342 -0.06461979
v -0.00235519 -0.03664599 -0.05626628
v -0.00220887 -0.03564795 -0.05041350
v 0.00305166 -0.01788248 -0.03068153
v 0.00226930 -0.01861328 -0.02054551
v 0.00081664 -0.01831030 -0.01371737
v 0.00116696 -0.04655461 -0.10922896
v 0.00827122 -0.04459978 -0.15082903
v 0.01095499 -0.02580326 -0.08562948
v 0.00945153 -0.02066173 -0.05089137
v 0.01225630 -0.02172783 -0.05804137
v 0.00806903 -0.02227672 -0.04012670
v 0.01184115 -0.03992555 -0.13948222
v 0.01137784 -0.03632541 -0.12983315
v 0.00499315 -0.04701985 -0.11089086
v 0.01302598 -0.03354604 -0.11893343
v 0.01184697 -0.03147342 -0.11428838
v 0.01548248 -0.03716448 -0.13433313
v 0.01558268 -0.03591671 -0.13320834
v 0.01787999 -0.02492045 -0.09572025
v 0.01635080 -0.02472011 -0.09064411
v 0.01704799 -0.02432520 -0.08966233
v 0.01399773 -0.02302548 -0.06791168
v 0.01881925 -0.02582535 -0.10811586
v 0.01823302 -0.02503358 -0.09657608
v -0.00651220 -0.02203883 -0.01540018
v -0.00680766 -0.02194153 -0.01055898
v -0.00693163 -0.01512788 0.02009626
v 0.00054059 -0.04204729 -0.16396737
v -0.00158249 -0.01906581 -0.01559557
v -0.00191117 -0.01899341 -0.01398359
v 0.00236016 -0.04509381 -0.16189075
v 0.00179178 -0.04451172 -0.16029830
v 0.00327899 -0.04530610 -0.16122544
v -0.00090154 -0.04580796 -0.13971274
v -0.00130744 -0.01653911 0.00463844
v -0.00249302 -0.01678314 0.00794858
v -0.00152982 -0.01555335 0.01114671
v -0.00107184 -0.01618750 0.01073080
v -0.00324801 -0.01362855 0.01993161
v -0.00134106 -0.01338979 0.02007343
v 0.00406543 -0.04496649 -0.15902746
v -0.00168582 -0.04042839 -0.07358385
v -0.00212524 -0.03695384 -0.05565796
v -0.00219289 -0.03694039 -0.05546956
v -0.00126057 -0.03144582 -0.03938130
v 0.00261952 -0.01808556 -0.02662166
v 0.00698764 -0.04539638 -0.15339750
v 0.00322798 -0.04515824 -0.16107950
v 0.01117582 -0.04249446 -0.14420711
v 0.01227460 -0.03212610 -0.11632742
v 0.01155018 -0.03095508 -0.11223395
v 0.01192972 -0.02118872 -0.05860934
v 0.01625768 -0.03596927 -0.13368497
v 0.01621395 -0.03593776 -0.13324980
v 0.01669064 -0.03505861 -0.13229149
v 0.01705949 -0.03416292 -0.13158345
v 0.01812675 -0.03193309 -0.12904786
v 0.01852404 -0.02837411 -0.11951389
v 0.01890735 -0.02516342 -0.10364442
v 0.00419298 -0.02145228 -0.02332896
v -0.00683312 -0.01491636 0.02040763
v -0.00700457 -0.01857487 0.00434666
v -0.00686421 -0.01596904 0.01881359
v 0.00048740 -0.04194333 -0.16370788
v 0.00108178 -0.04306125 -0.16319219
v 0.00033734 -0.04221285 -0.16275743
v -0.00678627 -0.02111564 -0.00327280
v -0.00564288 -0.01478025 0.01601842
v -0.00431155 -0.01361905 0.01990209
v 0.00298884 -0.04552086 -0.16139810
v 0.00472579 -0.04229755 -0.15182527
v 0.00342909 -0.04153025 -0.15423323
v -0.00035343 -0.04726292 -0.14366159
v 0.00116271 -0.04340517 -0.15018453
v -0.00070043 -0.04127256 -0.12643777
v -0.00155708 -0.04178847 -0.10141038
v -0.00185496 -0.04006734 -0.09134078
v -0.00196131 -0.03943858 -0.08581476
v -0.00185500 -0.03962201 -0.08857463
v -0.00214283 -0.03840966 -0.07755450
v -0.00199827 -0.03877516 -0.07222658
v -0.00380294 -0.02889416 -0.02956496
v -0.00304480 -0.03229148 -0.03960032
v -0.00244850 -0.03368786 -0.04823731
v -0.00344223 -0.03063444 -0.03459027
v 0.00026871 -0.01836156 -0.01217186
v -0.00033200 -0.01810166 -0.00790315
v -0.00209258 -0.01726993 0.00045052
v -0.00048366 -0.01816456 -0.00929458
v -0.00163753 -0.01695412 0.00128368
v -0.00090839 -0.01852826 0.00014807
v -0.00212434 -0.01669948 0.00534892
v -0.00226687 -0.01682794 0.00547575
v -0.00176938 -0.01635123 0.00622696
v -0.00135423 -0.01662007 0.00336764
v -0.00216301 -0.01593997 0.01053151
v -0.00075965 -0.01740520 0.00228566
v -0.00159388 -0.01583312 0.00972285
v -0.00492786 -0.01959909 0.01022233
v -0.00148777 -0.01426289 0.01984707
v -0.00103408 -0.01625790 0.00972123
v -0.00630179 -0.01620547 0.02076224
v -0.00501730 -0.01718913 0.02128705
v 0.00577195 -0.04118766 -0.14834365
v -0.00089686 -0.04513840 -0.10705851
v 0.00598886 -0.03233577 -0.10770051
v -0.00070936 -0.04365361 -0.09242107
v -0.00124634 -0.04171061 -0.08000689
v -0.00260762 -0.03502980 -0.04979653
v -0.00247785 -0.03520988 -0.04967479
v -0.00229303 -0.03659468 -0.05535384
v -0.00249220 -0.03466329 -0.04736562
v -0.00273313 -0.03345555 -0.04321954
v -0.00212965 -0.03637854 -0.05318804
v 0.00113586 -0.01951459 -0.02383998
v 0.00253611 -0.01806957 -0.03227589
v -0.00253320 -0.02368456 -0.03506693
v 0.00212861 -0.01856513 -0.02066809
v 0.00147587 -0.01850123 -0.01758710
v 0.00182991 -0.01853255 -0.01901100
v 0.00032773 -0.01920797 -0.00965018
v 0.00055656 -0.01936951 -0.01039853
v 0.00087695 -0.04701390 -0.11231610
v 0.00255254 -0.01861281 -0.02229233
v 0.00217213 -0.02016546 -0.01576113
v 0.01175081 -0.03143638 -0.11349302
v 0.01051352 -0.02525603 -0.08323903
v 0.00487335 -0.02591204 -0.06256986
v 0.00832036 -0.02152568 -0.04289340
v 0.01071180 -0.03032345 -0.10936390
v 0.01254173 -0.03399775 -0.12119932
v 0.01207937 -0.03186841 -0.11409791
v 0.01029563 -0.02113215 -0.05112241
v 0.00283670 -0.02616515 -0.02675113
v 0.01412692 -0.03413710 -0.12075319
v 0.01841160 -0.02623294 -0.10845570
v 0.01814112 -0.02996078 -0.12335777
v 0.01785299 -0.02505439 -0.09651746
v 0.01446136 -0.03411512 -0.12058734
v 0.01593101 -0.03465359 -0.13136836
v 0.01741041 -0.02449332 -0.09228248
v 0.01742263 -0.02459144 -0.09239373
v 0.01691543 -0.02407559 -0.08852525
v 0.01653144 -0.02381813 -0.08646787
v 0.01577685 -0.02423911 -0.08159638
v 0.01841761 -0.02521741 -0.09992206
v 0.01890990 -0.02516135 -0.10387116
v 0.01621555 -0.02419990 -0.08472872
v 0.01831321 -0.02504175 -0.09786551
v 0.01799318 -0.02494525 -0.09560919
v 0.01767853 -0.02474006 -0.09333308
v -0.00634943 -0.02339938 -0.02128567
v -0.00652136 -0.02211249 -0.01521531
v -0.00693570 -0.02103842 -0.00903163
v -0.00596998 -0.02554485 -0.02446946
v -0.00735166 -0.01932911 -0.00047356
v -0.00669491 -0.01636294 0.02057197
v 0.00082631 -0.04232404 -0.16348727
v 0.00165570 -0.04412481 -0.16317509
v 0.00101850 -0.04240356 -0.16326007
v 0.00080060 -0.04253960 -0.16325466
v 0.00104369 -0.04312000 -0.16320807
v 0.00122780 -0.04356479 -0.16350941
v 0.00110019 -0.04268569 -0.16300985
v 0.00146416 -0.04439177 -0.16307397
v 0.00013071 -0.04442979 -0.15625417
v 0.00214184 -0.04106715 -0.15727773
v -0.00187727 -0.01782739 -0.00513671
v -0.00158724 -0.01795111 -0.00654789
v -0.00190385 -0.01834047 -0.00919450
v -0.00202736 -0.01816615 -0.00676823
v 0.00166915 -0.04391918 -0.16354413
v 0.00166420 -0.04379684 -0.16356972
v 0.00178066 -0.04408268 -0.16345206
v 0.00218800 -0.04492568 -0.16169276
v 0.00243692 -0.04513413 -0.16181592
v 0.00209207 -0.04510958 -0.16123099
v 0.00198973 -0.04490478 -0.16062810
v 0.00324027 -0.04531091 -0.16104335
v 0.00320891 -0.04519897 -0.16075612
v 0.00201166 -0.04489047 -0.15961803
v 0.00366423 -0.04598870 -0.15400765
v 0.00017421 -0.04297308 -0.16121328
v 0.00281297 -0.03694213 -0.11911433
v -0.00026386 -0.04068942 -0.11523008
v -0.00258500 -0.03157384 -0.03775922
v -0.00310429 -0.03179847 -0.03782966
v -0.00016583 -0.01828470 -0.00785513
v -0.00064610 -0.01768617 -0.00425595
v -0.00081037 -0.01753354 -0.00057448
v -0.00136839 -0.01591840 0.00994016
v -0.00075619 -0.01754775 -0.00283745
v -0.00232401 -0.01717826 0.00337026
v -0.00237425 -0.01667281 0.00782621
v -0.00223880 -0.01780340 -0.00206724
v -0.00127101 -0.01599111 0.01261432
v -0.00122614 -0.01509850 0.01536238
v -0.00225397 -0.01364265 0.02017014
v -0.00147523 -0.01382026 0.02118959
v -0.00120273 -0.01403547 0.01844411
v 0.00608354 -0.04508664 -0.15519205
v 0.00075806 -0.04857590 -0.13761010
v 0.00337066 -0.04880728 -0.14084487
v 0.00002253 -0.04829806 -0.12886100
v -0.00156423 -0.04207356 -0.08419378
v -0.00192048 -0.04053228 -0.07751911
v 0.00071013 -0.03580279 -0.05410974
v -0.00141880 -0.04002920 -0.07063118
v -0.00231348 -0.03682079 -0.05715319
v -0.00327036 -0.03151886 -0.03741838
v -0.00161312 -0.03881882 -0.06437657
v -0.00184843 -0.03839746 -0.06276825
v -0.00125657 -0.03757183 -0.05872652
v 0.00183065 -0.02002619 -0.02999901
v 0.00188800 -0.01858620 -0.02097219
v 0.00191771 -0.01861111 -0.01842401
v 0.00196097 -0.01906175 -0.01687017
v 0.00373271 -0.02110741 -0.02235163
v 0.00762880 -0.04490769 -0.15207790
v 0.00518884 -0.04514997 -0.15685540
v 0.00979148 -0.03854402 -0.13831649
v 0.00740778 -0.02017500 -0.04401564
v 0.00597984 -0.02113917 -0.05433617
v 0.01097406 -0.03052337 -0.11028539
v 0.01005914 -0.04327962 -0.14675817
v 0.00916985 -0.04412166 -0.14872621
v 0.01237468 -0.04118027 -0.14141250
v 0.01359047 -0.03970556 -0.13854785
v 0.01367205 -0.03944233 -0.13827634
v 0.01255924 -0.03246531 -0.11653617
v 0.01368313 -0.03259545 -0.11571082
v 0.01272941 -0.03262128 -0.11655984
v 0.01398073 -0.02706010 -0.09845000
v 0.01209301 -0.02145827 -0.05832536
v 0.01317173 -0.02215508 -0.06414250
v 0.01394965 -0.03937350 -0.13783521
v 0.01589496 -0.03659820 -0.13235030
v 0.01555297 -0.03669407 -0.13405431
v 0.01554777 -0.03660276 -0.13401939
v 0.01606468 -0.03591429 -0.13333455
v 0.01611826 -0.03596887 -0.13331115
v 0.01688940 -0.03479608 -0.12764885
v 0.01689820 -0.03439059 -0.13191903
v 0.01788301 -0.03233302 -0.10998318
v 0.01859542 -0.02998118 -0.12335807
v 0.01911385 -0.02522789 -0.10366528
v 0.01476092 -0.02315484 -0.07484844
v 0.01368658 -0.02217336 -0.06928788
v 0.01594446 -0.02355313 -0.08420017
v 0.01225935 -0.03302361 -0.07346848
v 0.01950843 -0.02739232 -0.11297601
v 0.01893064 -0.02835809 -0.11810007
v 0.01919666 -0.02691426 -0.11253422
v 0.01947893 -0.02601632 -0.10498700
v 0.01943235 -0.02629279 -0.10329330
v 0.01805772 -0.02493500 -0.09567309
vn -0.679400 0.711361 -0.179948
vn -0.983795 0.173823 -0.043976
vn -0.965310 0.236546 -0.110554
vn -0.955199 -0.152101 -0.253890
vn -0.038933 -0.970198 0.239163
vn 0.448965 -0.177551 -0.875732
vn 0.816728 -0.524021 0.241575
vn -0.847272 0.525981 -0.073991
vn -0.770630 -0.622445 0.136716
vn -0.685566 -0.704992 0.181618
vn 0.295158 0.955380 -0.011444
vn 0.969360 -0.222217 0.104696
vn -0.476998 0.872220 -0.108193
vn -0.791049 0.606268 -0.081736
vn 0.783402 -0.583509 0.214005
vn -0.326021 0.932860 -0.153240
vn 0.337303 0.939787 -0.055017
vn -0.079274 -0.969901 0.230234
vn -0.117669 0.388113 0.914069
vn -0.712149 -0.698413 0.071161
vn -0.522640 -0.845734 0.107615
vn -0.343937 -0.929462 0.133444
vn -0.995581 0.091844 0.019589
vn -0.973735 -0.226666 0.021513
vn -0.871833 -0.482103 0.086503
vn -0.667125 -0.724785 0.172136
vn 0.537970 0.841623 0.047527
vn 0.014653 0.997099 0.074693
vn -0.302138 0.950053 -0.078181
vn 0.082728 -0.979065 0.185979
vn 0.596659 -0.794786 -0.110967
vn -0.390091 0.903370 -0.178187
vn -0.214169 0.969311 -0.120694
vn 0.870365 0.452919 0.193210
vn 0.814276 0.552652 0.177567
vn 0.336557 0.879336 -0.336895
vn 0.112393 0.952195 -0.284064
vn 0.642177 -0.760469 0.096419
vn 0.208798 0.931544 -0.297708
vn 0.872476 0.481547 0.083059
vn 0.510869 0.380388 -0.770920
vn -0.897539 0.423969 -0.121136
vn 0.092015 0.991952 -0.086971
vn -0.402277 0.889060 -0.218506
vn 0.978172 0.154344 0.139132
vn 0.924342 0.368582 0.098686
vn -0.626301 0.762340 -0.163051
vn 0.095841 0.993142 -0.066960
vn -0.968054 0.231184 -0.097086
vn -0.965936 -0.258146 0.018099
vn -0.183186 0.437130 0.880545
vn 0.402173 -0.669043 -0.625010
vn -0.193854 0.977859 -0.078813
vn -0.783442 0.615867 -0.083227
vn -0.635842 -0.726409 0.260834
vn -0.886633 -0.462101 0.018570
vn 0.920378 -0.343601 0.186662
vn -0.970900 0.219451 -0.095884
vn 0.806930 0.589173 -0.041704
vn -0.766735 0.636544 -0.083239
vn 0.794357 0.602670 -0.076064
vn 0.809276 -0.571075 0.137640
vn -0.163424 0.487613 0.857628
vn -0.136526 0.743356 0.654815
vn 0.873396 -0.147365 -0.464179
vn -0.502746 -0.853020 0.140012
vn -0.819810 -0.560977 0.114961
vn -0.527072 -0.837808 0.142381
vn 0.303688 -0.905795 0.295480
vn -0.366535 0.930007 0.027177
vn 0.897293 0.014146 -0.441209
vn 0.508767 0.795827 -0.328353
vn 0.922508 -0.108589 -0.370389
vn 0.525408 0.803407 -0.280149
vn 0.038690 0.955847 -0.291308
vn 0.696250 0.710353 0.103122
vn 0.770521 -0.630415 -0.094199
vn 0.475814 0.406911 -0.779759
vn 0.932065 -0.362100 -0.011798
vn 0.968985 -0.246586 -0.016208
vn -0.610353 0.738032 -0.287711
vn 0.275258 0.933610 -0.229357
vn 0.525471 0.849139 -0.053320
vn 0.918371 -0.327341 0.222356
vn -0.648497 0.745738 -0.152730
vn -0.763845 -0.628796 0.145453
vn -0.631678 -0.761860 0.143357
vn -0.982882 0.110709 -0.147265
vn -0.340521 0.426691 -0.837843
vn -0.987543 0.086652 -0.131344
vn -0.686188 -0.710332 0.156763
vn -0.460752 0.871674 -0.167006
vn -0.277795 0.934329 -0.223293
vn -0.574985 -0.818161 0.002240
vn 0.489422 0.799017 -0.349338
vn 0.889781 0.283426 -0.357714
vn -0.836478 -0.546202 -0.044360
vn -0.656805 0.746170 -0.108802
vn -0.950878 0.307044 -0.039426
vn -0.993254 0.095622 -0.065594
vn -0.981788 -0.189947 0.003532
vn -0.994645 -0.102130 -0.015828
vn -0.913481 0.402144 -0.061915
vn -0.963435 0.217214 0.156878
vn -0.890109 0.414039 -0.190467
vn -0.675890 -0.714152 0.182095
vn -0.711086 -0.684025 0.162686
vn -0.873521 -0.481937 0.068544
vn -0.670904 -0.715871 0.193435
vn -0.168984 0.982041 -0.083907
vn 0.380971 0.923932 -0.034803
vn -0.720049 0.688224 -0.088753
vn -0.066974 0.991285 -0.113440
vn -0.241716 0.962494 -0.123198
vn 0.995792 0.057305 0.071514
vn -0.624894 0.773336 -0.107049
vn -0.799753 0.594187 -0.085660
vn -0.378000 0.917871 -0.120948
vn -0.168038 0.977444 -0.127934
vn -0.241020 0.935696 -0.257649
vn 0.796627 0.601853 -0.056202
vn -0.467754 0.852877 -0.231964
vn 0.373282 -0.898111 0.232504
vn 0.741613 -0.645824 0.181444
vn 0.678704 0.728468 -0.093250
vn -0.161116 0.405603 0.899737
vn -0.128038 0.331506 0.934724
vn -0.307363 0.931316 -0.195394
vn -0.984414 -0.174444 -0.022344
vn -0.584080 0.798797 -0.144128
vn -0.407998 -0.905245 0.118616
vn -0.464694 -0.875822 0.130370
vn -0.848871 -0.519169 0.099409
vn -0.797564 -0.590266 0.124407
vn -0.862459 -0.497627 0.092370
vn -0.694018 -0.701092 0.163737
vn -0.655193 -0.734103 0.178369
vn -0.698769 -0.696798 0.161844
vn -0.670422 0.710898 -0.212505
vn -0.527275 0.837181 -0.145291
vn -0.721940 0.658709 -0.211911
vn 0.097877 0.994901 -0.024317
vn -0.159264 0.985350 -0.060991
vn -0.059162 0.997529 -0.037893
vn 0.950379 0.274245 0.146863
vn 0.837922 0.535164 0.107175
vn -0.302523 -0.947969 0.099166
vn 0.836320 0.528961 0.144114
vn 0.864964 0.479487 0.148087
vn 0.847514 0.527412 0.059641
vn -0.433221 0.886912 -0.160334
vn -0.768388 0.623259 -0.145356
vn 0.780521 0.590286 0.205790
vn -0.292485 0.932406 -0.212299
vn 0.334127 0.901165 -0.276153
vn 0.825373 0.562675 0.046444
vn 0.712165 0.679040 0.178117
vn 0.526945 -0.806997 0.266617
vn 0.128555 0.953568 -0.272363
vn -0.809930 0.575949 -0.110890
vn -0.739232 0.652181 -0.167917
vn -0.718588 0.680887 -0.141507
vn 0.221763 0.923187 -0.313920
vn -0.768228 0.623439 -0.145432
vn -0.363934 0.918553 -0.154314
vn 0.820627 0.568591 0.057237
vn -0.313851 0.932028 -0.181166
vn -0.302412 0.942020 -0.145416
vn 0.961052 -0.195125 0.195717
vn -0.586106 0.804534 -0.095941
vn -0.718936 0.689576 -0.087266
vn 0.970918 -0.159963 0.178132
vn -0.568997 0.815443 -0.106276
vn 0.265419 0.962817 -0.050357
vn 0.327726 0.943808 -0.042700
vn -0.992268 -0.119504 -0.033502
vn -0.997268 -0.063752 -0.037314
vn -0.991727 0.104267 -0.074875
vn -0.994346 -0.080821 -0.068872
vn -0.977705 -0.207352 0.033150
vn -0.460772 0.082569 0.883669
vn 0.406536 -0.675635 -0.615016
vn -0.334013 -0.114745 -0.935558
vn 0.456943 -0.645157 -0.612352
vn 0.376545 -0.699868 -0.606958
vn -0.316810 0.433439 -0.843660
vn -0.345442 0.426464 -0.835942
vn -0.347059 0.423324 -0.836867
vn -0.706438 -0.682964 -0.185756
vn -0.433231 -0.887249 -0.158432
vn 0.843463 0.449550 -0.294065
vn -0.213492 0.969350 -0.121578
vn -0.146243 0.981700 -0.121974
vn -0.720307 0.687747 -0.090338
vn -0.787141 0.611180 -0.082877
vn 0.456777 -0.173072 -0.872583
vn 0.460381 -0.163830 -0.872473
vn 0.461661 -0.174877 -0.869648
vn -0.463369 -0.874781 -0.141588
vn -0.425714 -0.903865 -0.042370
vn -0.876148 -0.481811 0.014937
vn -0.880213 -0.474136 0.020524
vn 0.870325 -0.435770 0.229433
vn 0.856154 -0.442942 0.266086
vn -0.876562 -0.480595 0.025840
vn 0.693056 -0.720559 0.021642
vn -0.777291 0.626837 0.053796
vn -0.761526 0.643048 -0.081041
vn -0.873896 0.480547 -0.073345
vn 0.307345 -0.909921 0.278535
vn 0.221612 -0.911871 0.345514
vn 0.966902 0.193466 0.166348
vn 0.426091 0.902263 -0.066091
vn 0.879022 0.476778 -0.001881
vn 0.748178 0.659916 -0.068849
vn 0.902932 0.428743 0.029882
vn -0.786284 0.612464 -0.081521
vn -0.859124 0.506074 -0.076128
vn -0.791630 0.605463 -0.082079
vn 0.708056 -0.683670 0.176780
vn 0.900534 -0.415282 0.128760
vn -0.186764 0.531209 0.826399
vn 0.749445 -0.630823 0.200984
vn 0.920343 -0.372278 0.119908
vn 0.858165 -0.287768 -0.425139
vn -0.431061 -0.899032 0.076996
vn 0.435715 -0.897776 -0.064428
vn -0.813008 -0.582252 0.000065
vn -0.925428 -0.377403 0.033907
vn -0.970950 -0.237367 0.030208
vn 0.445438 -0.867363 0.221962
vn -0.431110 -0.888807 0.155456
vn -0.995910 0.073906 -0.051980
vn -0.950445 -0.310881 0.002836
vn -0.442703 -0.882966 0.156155
vn -0.472673 -0.867734 0.153680
vn 0.334506 -0.917607 0.214716
vn -0.740316 0.672215 -0.007736
vn -0.225887 0.973978 -0.018506
vn 0.705194 0.699557 0.115420
vn 0.936467 0.295103 0.189587
vn 0.866446 0.471790 0.163356
vn 0.902465 -0.125744 -0.412003
vn 0.888495 -0.050499 -0.456100
vn 0.191425 0.933321 -0.303758
vn 0.416700 0.909016 -0.007170
vn -0.561649 0.799323 -0.213618
vn 0.848567 0.526145 0.055728
vn 0.910119 -0.246148 -0.333309
vn 0.914318 -0.049474 -0.401964
vn 0.736748 0.420770 -0.529296
vn 0.744763 0.403365 -0.531624
vn 0.832911 0.250738 -0.493346
vn 0.656766 0.715290 -0.238784
vn 0.046067 0.952153 -0.302130
vn 0.530282 0.806373 -0.261847
vn -0.165953 0.957462 -0.236063
vn 0.784389 0.607430 0.125546
vn 0.860788 0.501263 0.088198
vn 0.576222 0.590151 -0.565412
vn 0.528366 -0.843882 0.093234
vn 0.515146 0.378729 -0.768888
vn 0.590818 0.317351 -0.741770
vn 0.591137 0.290902 -0.752285
vn 0.500540 0.386542 -0.774626
vn 0.901433 -0.432895 0.004432
vn 0.929696 -0.367838 -0.019002
vn 0.674435 -0.733517 0.084203
vn 0.859351 0.470628 -0.200064
vn 0.783565 0.616866 -0.074177
vn 0.927809 0.359221 0.100648
vn 0.863116 0.497433 0.087129
vn 0.929335 0.351316 0.113639
vn 0.783269 -0.606094 0.138347
vn 0.825781 0.547707 -0.134545
vn 0.796701 0.568430 -0.205318
vn 0.398438 0.895729 -0.197275
vn 0.979432 -0.200912 -0.018638
vn 0.949413 -0.273740 0.153886
vn 0.950448 0.284134 0.126161
f 1//1 179//179 176//176
f 179//179 50//50 177//177
f 176//176 177//177 49//49
f 179//179 177//177 176//176
f 85//85 92//92 1//1
f 49//49 178//178 2//2
f 178//178 50//50 180//180
f 178//178 180//180 2//2
f 49//49 177//177 178//178
f 177//177 50//50 178//178
f 91//91 18//18 86//86
f 91//91 86//86 50//50
f 50//50 86//86 180//180
f 180//180 86//86 2//2
f 86//86 87//87 2//2
f 18//18 87//87 86//86
f 51//51 181//181 126//126
f 4//4 88//88 3//3
f 88//88 90//90 3//3
f 4//4 90//90 88//88
f 52//52 184//184 182//182
f 189//189 207//207 183//183
f 52//52 182//182 185//185
f 182//182 184//184 185//185
f 186//186 188//188 89//89
f 188//188 187//187 89//89
f 187//187 186//186 89//89
f 196//196 6//6 197//197
f 207//207 189//189 190//190
f 191//191 95//95 72//72
f 179//179 1//1 141//141
f 1//1 92//92 141//141
f 179//179 91//91 50//50
f 5//5 91//91 179//179
f 123//123 5//5 158//158
f 16//16 141//141 92//92
f 123//123 91//91 5//5
f 18//18 91//91 123//123
f 92//92 85//85 93//93
f 63//63 51//51 126//126
f 222//222 126//126 19//19
f 63//63 126//126 222//222
f 19//19 126//126 127//127
f 127//127 126//126 181//181
f 196//196 198//198 6//6
f 197//197 198//198 196//196
f 199//199 190//190 189//189
f 189//189 183//183 199//199
f 200//200 199//199 55//55
f 202//202 56//56 201//201
f 202//202 205//205 56//56
f 201//201 205//205 202//202
f 55//55 94//94 200//200
f 7//7 203//203 204//204
f 203//203 57//57 204//204
f 203//203 7//7 57//57
f 199//199 200//200 190//190
f 206//206 190//190 200//200
f 206//206 200//200 94//94
f 191//191 96//96 95//95
f 128//128 96//96 191//191
f 95//95 96//96 128//128
f 207//207 98//98 128//128
f 206//206 97//97 190//190
f 190//190 97//97 207//207
f 207//207 97//97 98//98
f 97//97 58//58 98//98
f 58//58 99//99 98//98
f 58//58 97//97 99//99
f 99//99 97//97 209//209
f 129//129 101//101 100//100
f 20//20 23//23 129//129
f 102//102 8//8 103//103
f 102//102 103//103 101//101
f 102//102 104//104 8//8
f 102//102 101//101 129//129
f 102//102 129//129 23//23
f 100//100 8//8 209//209
f 102//102 23//23 104//104
f 104//104 23//23 152//152
f 209//209 8//8 152//152
f 152//152 8//8 104//104
f 141//141 152//152 105//105
f 23//23 105//105 152//152
f 141//141 105//105 179//179
f 25//25 135//135 133//133
f 135//135 67//67 134//134
f 133//133 134//134 9//9
f 135//135 134//134 133//133
f 105//105 108//108 179//179
f 108//108 233//233 234//234
f 179//179 108//108 234//234
f 9//9 107//107 234//234
f 107//107 10//10 109//109
f 107//107 109//109 234//234
f 10//10 107//107 137//137
f 107//107 9//9 136//136
f 137//137 136//136 26//26
f 107//107 136//136 137//137
f 10//10 106//106 109//109
f 106//106 5//5 179//179
f 109//109 179//179 234//234
f 106//106 179//179 109//109
f 69//69 158//158 210//210
f 158//158 5//5 211//211
f 158//158 211//211 210//210
f 238//238 141//141 139//139
f 139//139 141//141 16//16
f 11//11 29//29 110//110
f 111//111 110//110 113//113
f 11//11 110//110 111//111
f 119//119 113//113 193//193
f 193//193 110//110 53//53
f 113//113 110//110 193//193
f 111//111 213//213 11//11
f 113//113 213//213 111//111
f 12//12 145//145 214//214
f 145//145 212//212 216//216
f 214//214 216//216 59//59
f 145//145 216//216 214//214
f 84//84 15//15 123//123
f 145//145 12//12 115//115
f 146//146 115//115 15//15
f 145//145 115//115 146//146
f 12//12 214//214 121//121
f 214//214 59//59 215//215
f 121//121 215//215 125//125
f 214//214 215//215 121//121
f 60//60 217//217 219//219
f 217//217 14//14 195//195
f 219//219 195//195 54//54
f 217//217 195//195 219//219
f 54//54 195//195 194//194
f 195//195 14//14 112//112
f 194//194 112//112 13//13
f 195//195 112//112 194//194
f 60//60 218//218 217//217
f 218//218 17//17 117//117
f 217//217 117//117 14//14
f 218//218 117//117 217//217
f 14//14 117//117 112//112
f 117//117 17//17 116//116
f 112//112 116//116 13//13
f 117//117 116//116 112//112
f 13//13 114//114 192//192
f 114//114 119//119 193//193
f 192//192 193//193 53//53
f 114//114 193//193 192//192
f 122//122 119//119 118//118
f 118//118 114//114 13//13
f 119//119 114//114 118//118
f 17//17 120//120 116//116
f 120//120 122//122 118//118
f 116//116 118//118 13//13
f 120//120 118//118 116//116
f 12//12 62//62 220//220
f 115//115 220//220 15//15
f 12//12 220//220 115//115
f 15//15 220//220 123//123
f 123//123 220//220 18//18
f 59//59 61//61 215//215
f 92//92 17//17 16//16
f 17//17 92//92 120//120
f 120//120 92//92 93//93
f 120//120 93//93 122//122
f 61//61 125//125 215//215
f 64//64 63//63 222//222
f 64//64 222//222 19//19
f 62//62 224//224 221//221
f 224//224 124//124 221//221
f 124//124 224//224 223//223
f 124//124 223//223 18//18
f 62//62 221//221 220//220
f 220//220 124//124 18//18
f 221//221 124//124 220//220
f 98//98 99//99 209//209
f 98//98 209//209 208//208
f 226//226 97//97 227//227
f 97//97 206//206 227//227
f 226//226 38//38 97//97
f 38//38 228//228 97//97
f 130//130 98//98 208//208
f 228//228 209//209 97//97
f 147//147 228//228 38//38
f 228//228 129//129 209//209
f 209//209 129//129 100//100
f 228//228 147//147 129//129
f 129//129 147//147 20//20
f 208//208 209//209 130//130
f 20//20 147//147 131//131
f 131//131 30//30 22//22
f 147//147 30//30 131//131
f 22//22 132//132 131//131
f 131//131 21//21 20//20
f 132//132 21//21 131//131
f 130//130 209//209 152//152
f 23//23 20//20 229//229
f 23//23 229//229 230//230
f 230//230 229//229 24//24
f 21//21 132//132 66//66
f 132//132 22//22 232//232
f 132//132 232//232 66//66
f 105//105 23//23 230//230
f 105//105 230//230 24//24
f 22//22 235//235 232//232
f 235//235 68//68 236//236
f 232//232 236//236 66//66
f 235//235 236//236 232//232
f 233//233 105//105 24//24
f 67//67 135//135 25//25
f 105//105 233//233 108//108
f 9//9 134//134 136//136
f 134//134 67//67 138//138
f 136//136 138//138 26//26
f 134//134 138//138 136//136
f 211//211 237//237 210//210
f 210//210 231//231 69//69
f 237//237 231//231 210//210
f 238//238 140//140 141//141
f 141//141 140//140 247//247
f 140//140 70//70 27//27
f 246//246 27//27 148//148
f 140//140 238//238 139//139
f 140//140 139//139 16//16
f 16//16 239//239 140//140
f 140//140 239//239 70//70
f 16//16 53//53 239//239
f 144//144 239//239 143//143
f 70//70 239//239 28//28
f 239//239 144//144 142//142
f 239//239 142//142 28//28
f 28//28 142//142 144//144
f 240//240 148//148 27//27
f 29//29 143//143 110//110
f 110//110 239//239 53//53
f 143//143 239//239 110//110
f 29//29 144//144 143//143
f 242//242 149//149 15//15
f 212//212 145//145 241//241
f 240//240 241//241 148//148
f 146//146 15//15 149//149
f 241//241 145//145 149//149
f 145//145 146//146 149//149
f 123//123 158//158 84//84
f 65//65 225//225 244//244
f 225//225 31//31 243//243
f 244//244 243//243 71//71
f 225//225 243//243 244//244
f 31//31 249//249 243//243
f 249//249 73//73 250//250
f 243//243 250//250 71//71
f 249//249 250//250 243//243
f 36//36 72//72 95//95
f 226//226 227//227 38//38
f 130//130 128//128 98//98
f 154//154 37//37 245//245
f 154//154 245//245 128//128
f 154//154 128//128 130//130
f 30//30 231//231 237//237
f 152//152 141//141 247//247
f 231//231 158//158 69//69
f 247//247 140//140 246//246
f 246//246 140//140 27//27
f 242//242 148//148 149//149
f 148//148 241//241 149//149
f 95//95 128//128 245//245
f 95//95 245//245 36//36
f 206//206 38//38 227//227
f 163//163 36//36 245//245
f 159//159 245//245 37//37
f 163//163 245//245 159//159
f 75//75 37//37 154//154
f 248//248 150//150 40//40
f 150//150 248//248 156//156
f 130//130 32//32 154//154
f 257//257 75//75 154//154
f 257//257 154//154 32//32
f 32//32 130//130 151//151
f 130//130 152//152 151//151
f 147//147 38//38 30//30
f 30//30 38//38 231//231
f 152//152 247//247 151//151
f 274//274 231//231 38//38
f 246//246 151//151 247//247
f 33//33 151//151 246//246
f 274//274 158//158 231//231
f 242//242 246//246 148//148
f 242//242 35//35 246//246
f 33//33 246//246 153//153
f 153//153 35//35 34//34
f 246//246 35//35 153//153
f 260//260 251//251 252//252
f 251//251 253//253 252//252
f 159//159 37//37 155//155
f 159//159 155//155 39//39
f 254//254 74//74 256//256
f 74//74 155//155 37//37
f 256//256 39//39 155//155
f 254//254 155//155 74//74
f 256//256 155//155 254//254
f 163//163 159//159 255//255
f 159//159 39//39 255//255
f 163//163 255//255 44//44
f 40//40 150//150 156//156
f 39//39 75//75 257//257
f 255//255 257//257 44//44
f 39//39 257//257 255//255
f 44//44 257//257 151//151
f 257//257 32//32 151//151
f 76//76 259//259 272//272
f 259//259 46//46 271//271
f 272//272 271//271 273//273
f 259//259 271//271 272//272
f 34//34 46//46 259//259
f 258//258 259//259 76//76
f 34//34 259//259 258//258
f 76//76 33//33 157//157
f 258//258 157//157 34//34
f 76//76 157//157 258//258
f 33//33 153//153 157//157
f 153//153 34//34 157//157
f 84//84 158//158 274//274
f 262//262 41//41 263//263
f 252//252 253//253 260//260
f 77//77 261//261 206//206
f 264//264 262//262 263//263
f 264//264 265//265 262//262
f 262//262 78//78 41//41
f 265//265 78//78 262//262
f 78//78 265//265 264//264
f 77//77 79//79 266//266
f 77//77 266//266 261//261
f 79//79 80//80 267//267
f 266//266 267//267 80//80
f 79//79 267//267 266//266
f 266//266 80//80 268//268
f 42//42 164//164 81//81
f 161//161 81//81 164//164
f 266//266 268//268 261//261
f 161//161 164//164 160//160
f 160//160 47//47 161//161
f 206//206 261//261 268//268
f 38//38 206//206 274//274
f 42//42 44//44 164//164
f 279//279 274//274 268//268
f 171//171 47//47 160//160
f 173//173 171//171 170//170
f 171//171 160//160 170//170
f 160//160 162//162 170//170
f 44//44 162//162 164//164
f 164//164 162//162 160//160
f 44//44 167//167 165//165
f 167//167 45//45 166//166
f 165//165 166//166 43//43
f 167//167 166//166 165//165
f 162//162 43//43 173//173
f 162//162 173//173 170//170
f 48//48 43//43 174//174
f 279//279 280//280 172//172
f 45//45 175//175 166//166
f 175//175 48//48 174//174
f 166//166 174//174 43//43
f 175//175 174//174 166//166
f 162//162 44//44 165//165
f 162//162 165//165 43//43
f 206//206 268//268 274//274
f 45//45 167//167 168//168
f 167//167 44//44 151//151
f 168//168 151//151 33//33
f 167//167 151//151 168//168
f 273//273 172//172 280//280
f 172//172 273//273 271//271
f 169//169 271//271 46//46
f 172//172 271//271 169//169
f 169//169 274//274 172//172
f 172//172 274//274 279//279
f 169//169 84//84 274//274
f 82//82 83//83 277//277
f 276//276 277//277 275//275
f 82//82 277//277 276//276
f 82//82 276//276 269//269
f 276//276 275//275 269//269
f 83//83 270//270 277//277
f 270//270 278//278 275//275
f 270//270 275//275 277//277
f 80//80 278//278 268//268
f 279//279 268//268 278//278
f 279//279 278//278 270//270
f 279//279 270//270 83//83
f 280//280 279//279 83//83
