# decimated by Tools/decimate_anatomy.py from 3864 triangles (BodyParts3D, CC BY 4.0)
v 0.01726338 0.01256575 0.08761733
v 0.01679707 0.01009734 0.07372867
v 0.01688555 0.01057954 0.07457840
v 0.01603144 0.00813757 0.06936712
v 0.01727170 0.01256476 0.09384626
v 0.01721536 0.01263935 0.09281624
v 0.01726191 0.01257405 0.09279689
v 0.01690655 0.01240436 0.09269434
v 0.01716962 0.01252708 0.09216364
v 0.01720337 0.01259238 0.09207921
v 0.01660762 0.01249449 0.09250622
v 0.01693435 0.01201019 0.08761410
v 0.01433637 0.00781138 0.07047611
v 0.01649875 0.01229773 0.09391503
v 0.01645008 0.01214770 0.09404546
v 0.01288059 0.01360695 0.09582049
v 0.01336685 0.00959239 0.07702105
v 0.01349127 0.00994468 0.07781214
v 0.01398719 0.00791973 0.06925344
v 0.01548252 0.01224077 0.09876565
v 0.01414539 0.01013685 0.08852090
v 0.01356743 0.01664097 0.11476922
v 0.01254456 0.01626030 0.10719337
v 0.01156718 0.01549541 0.10175877
v 0.01153493 0.01385473 0.09596424
v 0.01053053 0.01391684 0.10127448
v 0.01343529 0.01701603 0.11536041
v 0.01219575 0.01688304 0.11455293
v 0.01161630 0.01254727 0.10336055
v 0.01185336 0.01690149 0.10896953
v 0.01133934 0.01443816 0.09845447
v -0.00992396 0.01137091 0.06684107
v -0.01045817 0.01105175 0.09267453
v -0.01174730 0.01108653 0.09939732
v -0.01109603 0.01093463 0.09538092
v -0.01134401 0.01163651 0.10285677
v -0.01266640 0.00810929 0.10669110
v -0.01230981 0.00791707 0.10657578
v -0.02069059 0.00537058 0.06444071
v -0.02084406 0.00569968 0.06411858
v -0.01997618 0.00504575 0.06218928
v -0.02032387 0.00508424 0.06244684
v -0.02049832 0.00543664 0.06325134
v -0.02225317 0.00385534 0.06210278
v -0.02242057 0.00390375 0.06132673
v -0.02165932 0.00362515 0.06236207
v -0.02260804 0.00376136 0.06131100
v -0.02491530 0.00524244 0.08829551
v -0.02176699 0.00369327 0.06156520
v -0.02696973 0.00359021 0.09365078
v 0.01633853 0.01207377 0.08308706
v 0.01701711 0.01067153 0.07493626
v 0.01661314 0.01035132 0.07426611
v 0.01652233 0.00966000 0.07265018
v 0.01658343 0.01022692 0.07438834
v 0.01547289 0.00742205 0.06752684
v 0.01719257 0.01252033 0.09386530
v 0.01676301 0.01246411 0.09299745
v 0.01714683 0.01251721 0.09285354
v 0.01710240 0.01251042 0.09282504
v 0.01706830 0.01255874 0.09283980
v 0.01674944 0.01252119 0.09263648
v 0.01731645 0.01260708 0.09213342
v 0.01720104 0.01251800 0.09239758
v 0.01717031 0.01253898 0.09214275
v 0.01721689 0.01264942 0.09076726
v 0.01720071 0.01270138 0.09203281
v 0.01681259 0.01251638 0.09272560
v 0.01704291 0.01254521 0.09249812
v 0.01680632 0.01258635 0.09237250
v 0.01700583 0.01256433 0.09167576
v 0.01719231 0.01268316 0.08821427
v 0.01547474 0.00732414 0.06706916
v 0.01497485 0.00720643 0.06739730
v 0.01406725 0.00862804 0.07051058
v 0.01675383 0.01229036 0.09389795
v 0.01665089 0.01231889 0.09373096
v 0.01653255 0.01216510 0.09403271
v 0.01655488 0.01228150 0.09407810
v 0.01656337 0.01225393 0.09395369
v 0.01660695 0.01216492 0.09218277
v 0.01603788 0.01206919 0.09533370
v 0.01592059 0.01244661 0.09269765
v 0.01376466 0.00820676 0.06908088
v 0.01319009 0.01323153 0.09106202
v 0.01340833 0.00969965 0.07650642
v 0.01380321 0.01507572 0.11595224
v 0.01258774 0.01550072 0.10350819
v 0.01369044 0.01334703 0.09144591
v 0.01317036 0.01027104 0.08107701
v 0.01144760 0.01240949 0.10326317
v 0.01114486 0.01572130 0.10302914
v 0.01063978 0.01522018 0.10225748
v -0.00933524 0.01073109 0.06379390
v -0.01016896 0.01147054 0.06816948
v -0.00996586 0.01146703 0.06791648
v -0.00982183 0.00959599 0.06371575
v -0.00960340 0.00970824 0.06364138
v -0.00997458 0.00945651 0.06392689
v -0.01184816 0.01126611 0.08635736
v -0.00901467 0.00950800 0.08221695
v -0.01047562 0.01091631 0.08907633
v -0.01199749 0.01184686 0.07923629
v -0.01117528 0.01129095 0.09903491
v -0.01124161 0.01149671 0.10137740
v -0.01257543 0.01172301 0.08523029
v -0.01107170 0.00860003 0.10286914
v -0.01196700 0.01155870 0.10391931
v -0.01195584 0.01140537 0.10431670
v -0.01186019 0.01027580 0.09569236
v -0.01337795 0.00864227 0.09155901
v -0.01355063 0.00844116 0.09124210
v -0.01316912 0.01092785 0.08597652
v -0.01248909 0.00822888 0.10685697
v -0.01412504 0.00863466 0.09051881
v -0.01478409 0.00893019 0.08934677
v -0.01486911 0.00909309 0.08908428
v -0.01280208 0.00800683 0.10701463
v -0.02082457 0.00566222 0.06399267
v -0.02060842 0.00555010 0.06367575
v -0.02060686 0.00560247 0.06380095
v -0.02060251 0.00555557 0.06372524
v -0.02071126 0.00558044 0.06384550
v -0.02072471 0.00555888 0.06377085
v -0.02053687 0.00544995 0.06332124
v -0.02065355 0.00552326 0.06367890
v -0.02013511 0.00501480 0.06218263
v -0.02002476 0.00512615 0.06209773
v -0.02030925 0.00508577 0.06261439
v -0.02009102 0.00496936 0.06244983
v -0.02013520 0.00511938 0.06277781
v -0.02018772 0.00502351 0.06214767
v -0.02030135 0.00527469 0.06285307
v -0.01977476 0.00433209 0.06075004
v -0.02233012 0.00370969 0.06458050
v -0.02247662 0.00369577 0.06470273
v -0.02143052 0.00372648 0.06118901
v -0.02206206 0.00486515 0.07335188
v -0.02308320 0.00383637 0.06308982
v -0.02269058 0.00377380 0.06239429
v -0.02232565 0.00334643 0.06822788
v -0.02255560 0.00323385 0.07147289
v -0.02259277 0.00322691 0.07154490
v -0.02260571 0.00319906 0.07151893
v -0.02580411 0.00473694 0.07070285
v -0.02636543 0.00450701 0.07196123
v -0.02521744 0.00547883 0.08747657
v -0.02626639 0.00461762 0.07172946
v -0.02746526 0.00431477 0.07727703
v -0.02801832 0.00386403 0.08148383
v -0.02755369 0.00557205 0.09777195
v -0.02941998 0.00333482 0.10050204
v -0.02862757 0.00360648 0.09973286
v 0.01682286 0.01027872 0.07402613
v 0.01633186 0.00888962 0.07105379
v 0.01650466 0.00948484 0.07226029
v 0.01703221 0.01246529 0.09287368
v 0.01722403 0.01260408 0.09256243
v 0.01691123 0.01245569 0.09244175
v 0.01719314 0.01251721 0.09239898
v 0.01720849 0.01256448 0.08816038
v 0.01721712 0.01265985 0.08740197
v 0.01586090 0.01179604 0.09509406
v 0.01522981 0.00784238 0.06843737
v 0.01671832 0.01233925 0.09272458
v 0.01532906 0.01246418 0.09559425
v 0.01450569 0.01295203 0.08680412
v 0.01329542 0.01018127 0.08044617
v 0.01521225 0.00990871 0.07469837
v 0.01355744 0.00882907 0.07170383
v 0.01417460 0.00787730 0.07006299
v 0.01384673 0.00830952 0.07137398
v 0.01541805 0.01228531 0.09891864
v 0.01423500 0.00879833 0.07834019
v 0.01526475 0.00718878 0.06704208
v 0.01388708 0.00927917 0.08016580
v 0.01399708 0.00894513 0.07820987
v 0.01157374 0.01317582 0.09410074
v 0.01330112 0.00978561 0.08003554
v 0.01336454 0.01255791 0.08860580
v 0.01225453 0.01155266 0.08760199
v 0.01371661 0.01587729 0.11449038
v 0.01317732 0.01557740 0.11243824
v 0.01246304 0.01714839 0.11163873
v 0.01266202 0.01497414 0.11457063
v 0.01228845 0.01729008 0.11218419
v 0.01366319 0.01053174 0.09112897
v 0.01202676 0.01277686 0.10452688
v 0.01226152 0.01552282 0.10251418
v 0.01242868 0.01361634 0.09526439
v 0.01057716 0.01619693 0.11002094
v 0.01125721 0.01418094 0.09755618
v 0.01096130 0.01469655 0.09983402
v 0.01276377 0.01485729 0.11382356
v -0.00905842 0.01075702 0.06434548
v -0.00921255 0.01077306 0.06337421
v -0.00953416 0.01091160 0.07374739
v -0.00974650 0.01136592 0.06655258
v -0.01150543 0.01168396 0.10234075
v -0.00977107 0.00763592 0.08062952
v -0.01072618 0.01100740 0.09559487
v -0.01196220 0.00946662 0.10434161
v -0.01225182 0.01167780 0.10331742
v -0.01244292 0.01038240 0.09007506
v -0.01089807 0.00908842 0.10493414
v -0.01090210 0.00981967 0.08434357
v -0.01263496 0.00793467 0.10655884
v -0.02060222 0.00554548 0.06369211
v -0.02035529 0.00493913 0.06401679
v -0.01987474 0.00485182 0.06202644
v -0.02059774 0.00529068 0.06405175
v -0.02183868 0.00590962 0.06648396
v -0.02191609 0.00358010 0.06304803
v -0.02223250 0.00372377 0.06301088
v -0.02106367 0.00390256 0.06122537
v -0.02332328 0.00595664 0.07211788
v -0.02513713 0.00621975 0.07582403
v -0.02297220 0.00398546 0.07835155
v -0.02328595 0.00303986 0.07403335
v -0.02428119 0.00611493 0.07581015
v -0.02479836 0.00526855 0.08518537
v -0.02727353 0.00447171 0.07665322
v -0.02540057 0.00584902 0.09057347
v -0.02824317 0.00355522 0.08395911
v 0.01703091 0.01075229 0.07504513
v 0.01671237 0.01018297 0.07430917
v 0.01662139 0.01023632 0.07434399
v 0.01661550 0.01028972 0.07427493
v 0.01593620 0.00981716 0.07375680
v 0.01628877 0.00992239 0.07351225
v 0.01511812 0.00962950 0.08267486
v 0.01724463 0.01263751 0.09285954
v 0.01722149 0.01253717 0.09385601
v 0.01733470 0.01259891 0.09384062
v 0.01686474 0.01241172 0.09392263
v 0.01680643 0.01238824 0.09394823
v 0.01648617 0.01224850 0.09406280
v 0.01731763 0.01265249 0.09279923
v 0.01707704 0.01253414 0.09283443
v 0.01710636 0.01249963 0.09285413
v 0.01725156 0.01263808 0.09287672
v 0.01697201 0.01252190 0.09285020
v 0.01717540 0.01251537 0.09225891
v 0.01720895 0.01267283 0.09118158
v 0.01712740 0.01254855 0.09214083
v 0.01686641 0.01242956 0.09270575
v 0.01710057 0.01257153 0.09239984
v 0.01705005 0.01259374 0.09241638
v 0.01700038 0.01251501 0.09222307
v 0.01667598 0.01251221 0.09246649
v 0.01720304 0.01266981 0.08946430
v 0.01719793 0.01269131 0.09036847
v 0.01535169 0.00721480 0.06704964
v 0.01461546 0.00845144 0.07660710
v 0.01467220 0.00866135 0.07832845
v 0.01629454 0.01219927 0.09456555
v 0.01703681 0.01243937 0.09387293
v 0.01692455 0.01237977 0.09388571
v 0.01655589 0.01222886 0.09403861
v 0.01685512 0.01236204 0.09395886
v 0.01648225 0.01229489 0.09391384
v 0.01652277 0.01222310 0.09398333
v 0.01656649 0.01228228 0.09383429
v 0.01652502 0.01229900 0.09388302
v 0.01643506 0.01221054 0.09398877
v 0.01647491 0.01220449 0.09392284
v 0.01699897 0.01253975 0.09165234
v 0.01665512 0.01227509 0.09254174
v 0.01691697 0.01246192 0.08980602
v 0.01664075 0.01232014 0.09250376
v 0.01702163 0.01239056 0.08970139
v 0.01680789 0.01235030 0.09066686
v 0.01667280 0.01251190 0.09287909
v 0.01627799 0.01231767 0.09357986
v 0.01555499 0.01304785 0.08784449
v 0.01355003 0.00885818 0.07176885
v 0.01305094 0.01371794 0.10393544
v 0.01229447 0.01355986 0.09369672
v 0.01335057 0.01070936 0.08169564
v 0.01481625 0.01213601 0.08182800
v 0.01360068 0.00896691 0.07547539
v 0.01338922 0.00978819 0.08127692
v 0.01335940 0.00965386 0.07726916
v 0.01335377 0.00984098 0.08056282
v 0.01314820 0.01621945 0.11260989
v 0.01311482 0.01372857 0.10351436
v 0.01156313 0.01394562 0.09631126
v 0.01363853 0.01485689 0.11623683
v 0.01370528 0.01492128 0.11630225
v 0.01382719 0.01488279 0.11724868
v 0.01233014 0.01524386 0.11608436
v 0.01178329 0.01621143 0.11435032
v 0.01292957 0.01483840 0.11268822
v 0.01266956 0.01545271 0.11665723
v 0.01438777 0.01254978 0.10086511
v 0.01110533 0.01292509 0.10362714
v 0.01166587 0.01227315 0.09642528
v 0.01058456 0.01493710 0.10147961
v 0.01070938 0.01516723 0.10194253
v 0.01075798 0.01475339 0.10034768
v 0.01194226 0.01354927 0.09404472
v -0.00961771 0.01050609 0.06399131
v -0.00936430 0.01095444 0.06967894
v -0.01008885 0.01147661 0.07048334
v -0.00968394 0.01117249 0.06923384
v -0.00938131 0.01136974 0.06432207
v -0.00996283 0.01135393 0.06701654
v -0.01001629 0.01141227 0.06751178
v -0.01014229 0.00999924 0.06451739
v -0.01005560 0.00948874 0.06396936
v -0.00946407 0.01045133 0.06382647
v -0.00914501 0.00973632 0.08098900
v -0.00889145 0.01004057 0.06903522
v -0.01007971 0.01043280 0.08604534
v -0.01185601 0.01170205 0.07570116
v -0.01043974 0.00946596 0.06440322
v -0.01108330 0.01148924 0.10047327
v -0.01211176 0.00884357 0.10615372
v -0.01119485 0.01123347 0.09878977
v -0.01125101 0.01154390 0.10184414
v -0.01089779 0.00858197 0.10038844
v -0.01080170 0.00792386 0.09671873
v -0.01241829 0.01162472 0.08226310
v -0.01026207 0.01076519 0.06649332
v -0.01411678 0.00931031 0.08816647
v -0.01126671 0.00871070 0.10249572
v -0.01206145 0.00951514 0.10276194
v -0.01099749 0.00862013 0.10065011
v -0.01119107 0.00855117 0.10310189
v -0.01081605 0.00868631 0.10072259
v -0.01199909 0.01146965 0.10406792
v -0.01214518 0.01151843 0.10376190
v -0.01209155 0.00968916 0.10122520
v -0.01290980 0.00794112 0.09104926
v -0.01348274 0.00857464 0.09136310
v -0.01243858 0.00790613 0.10658296
v -0.01276478 0.00791781 0.10684596
v -0.01224931 0.00832911 0.10626571
v -0.01212258 0.01057682 0.10446664
v -0.01092984 0.00808864 0.09480927
v -0.01483901 0.00902315 0.08892058
v -0.01481896 0.00899538 0.08917601
v -0.01264035 0.00806060 0.10625837
v -0.02629602 0.00496101 0.07272098
v -0.02063486 0.00553558 0.06367828
v -0.02059854 0.00553896 0.06365908
v -0.02063324 0.00549302 0.06362366
v -0.02072912 0.00565479 0.06400207
v -0.02079897 0.00565072 0.06429616
v -0.02067038 0.00558534 0.06384733
v -0.02058503 0.00544966 0.06353936
v -0.02068412 0.00549657 0.06368925
v -0.02059396 0.00542751 0.06353705
v -0.02060918 0.00554045 0.06369848
v -0.02071807 0.00548805 0.06367958
v -0.02064055 0.00553023 0.06368525
v -0.02079965 0.00557844 0.06386422
v -0.02005919 0.00522936 0.06202098
v -0.02021542 0.00504170 0.06237661
v -0.02005485 0.00517671 0.06205831
v -0.02006346 0.00504598 0.06214867
v -0.02011498 0.00507112 0.06212409
v -0.02026508 0.00513852 0.06269969
v -0.02052818 0.00402405 0.06092533
v -0.02224769 0.00396549 0.06249142
v -0.02238029 0.00376901 0.06353378
v -0.02253785 0.00370041 0.06359114
v -0.02202800 0.00377497 0.06165169
v -0.02203998 0.00373248 0.06164842
v -0.02228154 0.00336737 0.06751409
v -0.02137222 0.00375337 0.06133648
v -0.02134538 0.00372384 0.06109085
v -0.02200209 0.00366955 0.06157059
v -0.02193408 0.00367023 0.06151794
v -0.02155463 0.00580745 0.06635755
v -0.02133648 0.00577773 0.06562825
v -0.02046410 0.00502559 0.06418405
v -0.02270056 0.00368740 0.06251510
v -0.02282401 0.00376138 0.06264193
v -0.02205218 0.00343392 0.06652267
v -0.02194059 0.00335523 0.06815191
v -0.02240339 0.00358046 0.06624771
v -0.02232563 0.00344339 0.06681383
v -0.02248881 0.00361014 0.06577427
v -0.02247436 0.00346120 0.06814409
v -0.02260099 0.00352185 0.06576060
v -0.02255153 0.00343392 0.06818091
v -0.02145870 0.00462940 0.06355602
v -0.02560131 0.00445289 0.06930139
v -0.02716251 0.00439264 0.07597695
v -0.02726446 0.00441450 0.07626303
v -0.02701785 0.00451298 0.07502791
v -0.02715785 0.00430267 0.07613003
v -0.02630888 0.00451325 0.07175853
v -0.02615193 0.00644721 0.09348132
v -0.02788884 0.00371887 0.08540249
v -0.02743913 0.00423615 0.07724736
v -0.02754990 0.00421464 0.07790819
v -0.02782995 0.00565430 0.09772671
v -0.02641967 0.00354174 0.09309471
v -0.02733144 0.00371676 0.09432437
v -0.02620823 0.00353058 0.09281500
v -0.02649051 0.00361071 0.09181239
v -0.02618631 0.00342769 0.09216618
v -0.02751744 0.00462762 0.09695923
v -0.02773528 0.00411275 0.07923957
v -0.02784443 0.00395207 0.08021812
v -0.02783187 0.00547041 0.09798483
v -0.02799120 0.00489554 0.09864554
v -0.02639835 0.00373895 0.09058480
v -0.02735663 0.00369611 0.09391734
v -0.02852376 0.00368170 0.09666537
v -0.02816916 0.00358358 0.09569717
v -0.02676855 0.00290159 0.09746526
v -0.02932162 0.00339322 0.10049691
v -0.02867167 0.00333983 0.09966213
v -0.02814147 0.00543678 0.09787751
v -0.02899160 0.00346321 0.10019468
v -0.02943561 0.00335901 0.10062792
v -0.02943137 0.00324082 0.10045602
v -0.02672411 0.00275850 0.09221604
v -0.02876306 0.00287490 0.09894768
vn 0.985409 0.137791 0.099914
vn 0.801455 0.477208 -0.360476
vn 0.700636 0.590175 -0.401002
vn 0.746124 0.548479 -0.377451
vn 0.455200 -0.878859 -0.142831
vn -0.092867 0.990132 0.104954
vn 0.391840 -0.912047 -0.120962
vn 0.204493 -0.114435 0.972156
vn 0.189271 -0.973137 -0.131076
vn -0.275749 -0.589481 -0.759259
vn 0.471093 0.136671 0.871431
vn 0.674667 -0.730225 0.107685
vn -0.402952 -0.909466 0.102471
vn -0.254275 0.956509 0.142951
vn 0.360241 -0.398505 0.843457
vn 0.369087 0.910273 -0.187557
vn -0.999536 0.001569 -0.030404
vn -0.343591 0.923311 -0.171584
vn -0.625286 -0.776538 0.077502
vn 0.893316 0.267512 0.361143
vn 0.167669 -0.974637 0.148224
vn 0.871356 0.466001 -0.153564
vn 0.525173 0.826759 -0.201650
vn 0.204785 0.953111 -0.222807
vn -0.246917 0.945806 -0.210910
vn -0.985313 -0.164133 -0.047100
vn 0.719635 0.683203 -0.123934
vn -0.194020 0.977832 -0.078745
vn -0.269447 -0.955743 0.118129
vn 0.283416 0.941773 -0.180939
vn 0.169628 0.976135 -0.135595
vn -0.371643 0.918999 -0.131615
vn -0.474677 0.877926 0.062672
vn -0.054073 0.979440 -0.194355
vn -0.106197 0.990438 -0.088065
vn 0.480665 0.874108 -0.069980
vn -0.600964 0.796033 -0.071926
vn -0.039371 -0.980974 -0.190106
vn 0.911151 0.388373 0.137733
vn 0.431984 0.898322 0.080047
vn 0.847730 0.503383 0.167208
vn 0.411758 0.907194 0.086341
vn 0.844142 0.499064 0.195857
vn -0.698011 -0.710771 -0.087092
vn 0.145962 -0.987286 -0.062937
vn 0.021214 -0.998810 -0.043904
vn 0.679668 -0.732401 -0.040500
vn 0.938134 0.298437 0.175611
vn -0.232035 -0.969502 -0.078905
vn 0.142347 -0.963944 0.224830
vn 0.011589 0.983966 -0.177981
vn 0.817697 0.444142 -0.366211
vn -0.350912 0.912835 -0.208789
vn -0.392964 0.844639 -0.363544
vn 0.508121 0.644437 0.571414
vn 0.103301 0.913280 -0.394017
vn 0.444814 -0.873360 -0.198449
vn -0.051936 0.911640 0.407696
vn 0.394577 -0.912078 -0.111456
vn -0.177700 0.191972 -0.965179
vn -0.174512 0.150457 -0.973092
vn 0.582178 0.811153 -0.055667
vn 0.471080 0.739786 0.480417
vn 0.477381 -0.875581 0.073923
vn -0.144536 -0.771913 -0.619080
vn 0.924314 0.381615 -0.003852
vn 0.924286 0.381682 -0.003854
vn 0.192593 -0.103659 0.975788
vn 0.465338 0.747927 0.473355
vn 0.547350 0.092245 0.831805
vn 0.942401 -0.327534 0.067834
vn 0.924210 0.381864 -0.003856
vn 0.645230 -0.753541 0.125916
vn -0.360453 -0.927043 0.103270
vn -0.172172 0.952067 -0.252833
vn 0.450225 -0.880215 -0.150063
vn 0.791971 -0.173350 0.585433
vn 0.010488 -0.647215 -0.762235
vn -0.260406 0.945892 0.193591
vn 0.001190 -0.693856 -0.720113
vn 0.661336 0.728954 0.176807
vn 0.706583 -0.666458 0.237854
vn 0.219588 0.969840 0.105793
vn -0.841876 -0.537075 0.052859
vn -0.198084 0.963535 -0.179896
vn -0.945624 0.322630 -0.041299
vn 0.703018 -0.702120 -0.113106
vn 0.945797 0.320579 0.051942
vn -0.109422 0.990233 -0.086404
vn -0.889620 -0.455025 -0.039109
vn -0.838573 -0.542836 0.046092
vn -0.603888 0.738865 -0.298995
vn -0.452727 0.857550 -0.244226
vn -0.730732 0.263164 -0.629901
vn -0.158770 0.979543 -0.123639
vn -0.111107 0.986580 -0.119649
vn -0.713529 -0.088289 -0.695041
vn -0.693670 0.293868 -0.657619
vn -0.546976 -0.582027 -0.601715
vn 0.280711 0.958219 0.054932
vn 0.702355 0.711765 0.009427
vn 0.430176 0.898529 -0.087145
vn -0.831582 0.550284 -0.075226
vn -0.801409 0.593377 -0.075153
vn -0.662946 0.743522 -0.087618
vn -0.812573 0.579527 -0.062231
vn 0.048015 -0.986537 -0.156331
vn -0.543875 0.766401 0.341802
vn -0.451732 0.841613 0.296017
vn -0.884311 0.466004 0.028900
vn -0.780214 -0.330132 0.531299
vn -0.806370 -0.115634 0.579997
vn -0.842720 0.533751 -0.070228
vn -0.524680 0.849722 -0.051795
vn -0.780936 -0.238890 0.577122
vn -0.901469 -0.432427 0.018998
vn -0.896659 -0.442312 0.019070
vn -0.664022 0.746528 -0.042075
vn -0.521894 0.811527 -0.262776
vn -0.436958 0.711114 -0.550803
vn 0.525411 0.845003 0.099559
vn 0.971487 0.229049 -0.061228
vn 0.189752 -0.909916 0.368846
vn -0.640759 0.616460 -0.457608
vn -0.665760 0.636545 -0.389324
vn 0.261719 -0.869787 0.418298
vn 0.441085 0.895561 0.058434
vn -0.110035 0.569890 0.814321
vn 0.367817 0.693612 -0.619364
vn 0.458059 0.883834 0.094971
vn 0.442668 0.695908 -0.565471
vn -0.108846 0.569758 0.814573
vn 0.384495 0.733590 -0.560366
vn 0.692755 -0.714839 0.095369
vn 0.145825 -0.987306 -0.062943
vn 0.679693 -0.732378 -0.040497
vn 0.321773 -0.945735 0.045257
vn 0.587079 0.801760 0.111891
vn -0.803007 -0.451404 -0.389121
vn -0.821588 -0.337325 -0.459570
vn 0.046499 -0.997960 -0.043745
vn -0.644868 -0.761432 -0.066076
vn 0.145838 -0.987304 -0.062940
vn 0.679691 -0.732380 -0.040497
vn -0.438570 0.865496 -0.242020
vn -0.962443 0.049301 -0.266969
vn -0.451623 0.880296 -0.145314
vn -0.915855 0.297922 -0.269168
vn -0.977018 -0.147019 -0.154344
vn -0.953896 -0.260447 -0.149167
vn 0.225236 0.731487 0.643580
vn -0.496724 0.808917 -0.314514
vn -0.934509 0.227216 -0.273982
vn 0.755867 0.532523 -0.380901
vn 0.762360 0.529154 -0.372564
vn 0.735523 0.559074 -0.382679
vn 0.390049 -0.912512 -0.123220
vn 0.251356 -0.873550 0.416810
vn 0.219945 -0.962781 0.157090
vn 0.238619 -0.941744 0.237022
vn 0.579388 0.802369 0.143225
vn 0.368166 0.921967 0.120126
vn 0.465966 -0.865554 0.183556
vn -0.030183 0.944044 -0.328435
vn 0.191776 -0.111215 0.975117
vn 0.353260 0.913314 -0.202644
vn -0.240456 0.958358 -0.154048
vn -0.781299 0.583769 -0.220877
vn -0.220489 0.943595 -0.247009
vn -0.867753 -0.495641 0.036667
vn -0.571729 -0.814994 0.094394
vn -0.749585 -0.658436 0.067711
vn 0.872928 -0.120041 0.472850
vn -0.446727 -0.887989 0.109136
vn 0.389420 -0.909528 0.145297
vn -0.541412 -0.835809 0.091085
vn -0.613746 -0.783910 0.093808
vn -0.800728 0.566099 -0.195873
vn -0.973536 0.226381 -0.031291
vn -0.385708 0.902743 -0.190488
vn -0.869439 0.450698 -0.202354
vn 0.977699 -0.000112 -0.210010
vn 0.902535 -0.429493 0.031091
vn 0.563274 0.812172 -0.151984
vn 0.301159 -0.935006 0.187262
vn 0.389484 0.914101 -0.112792
vn -0.067623 -0.986301 0.150458
vn 0.458028 -0.865886 0.201125
vn 0.393420 0.898379 -0.195283
vn -0.294577 0.928022 -0.228035
vn -0.997553 0.033006 0.061628
vn -0.319550 0.914892 -0.246700
vn -0.290472 0.925214 -0.244141
vn 0.321741 -0.928997 0.182888
vn 0.866462 0.498565 0.026022
vn 0.562031 0.823655 -0.075593
vn 0.713663 0.698731 0.049604
vn 0.254976 0.965411 0.054479
vn -0.032811 0.987652 -0.153191
vn 0.856552 -0.509503 -0.082002
vn -0.377769 0.924601 -0.049024
vn -0.999453 -0.005107 -0.032659
vn -0.182788 0.974040 -0.133543
vn -0.573320 0.817609 0.053107
vn 0.920402 0.385333 0.066174
vn 0.453405 0.856869 -0.245356
vn -0.107113 -0.969967 -0.218382
vn 0.993803 0.106156 0.032968
vn 0.979088 0.068926 0.191406
vn 0.973599 -0.118574 0.195051
vn 0.831641 0.520468 0.193615
vn 0.294390 0.953182 0.069122
vn 0.072913 -0.996573 -0.039071
vn -0.704506 -0.705033 -0.081237
vn -0.383895 0.860895 -0.333893
vn 0.481628 0.871111 0.095915
vn -0.437544 0.898955 -0.020864
vn 0.896239 -0.414938 0.156787
vn 0.099150 -0.995062 -0.004681
vn 0.310871 0.946649 0.084939
vn -0.213828 0.974695 0.065166
vn -0.479386 0.877547 -0.009976
vn -0.035385 0.995182 0.091434
vn -0.317821 -0.946904 -0.048608
vn 0.717190 0.564422 -0.408738
vn 0.571610 0.638607 0.515211
vn 0.543520 0.659739 0.518971
vn 0.534724 0.689966 0.487869
vn -0.163763 0.926915 -0.337655
vn -0.398018 0.844984 -0.357188
vn 0.577297 -0.807404 0.121768
vn -0.112506 0.989735 0.088134
vn 0.450444 -0.877179 -0.166305
vn 0.460173 -0.877479 -0.135170
vn -0.292076 0.936564 0.193750
vn -0.290663 0.937093 0.193317
vn 0.284424 -0.155259 0.946043
vn -0.124185 0.987693 0.095083
vn -0.171659 0.174965 -0.969495
vn 0.392402 -0.912180 -0.118107
vn -0.124611 0.992058 0.017144
vn -0.166444 0.178714 -0.969720
vn 0.200918 -0.977701 -0.061092
vn 0.924289 0.381675 -0.003853
vn -0.231732 -0.681937 -0.693731
vn 0.194301 -0.109027 0.974864
vn 0.472887 0.738879 0.480036
vn 0.480090 0.731490 0.484185
vn -0.278387 -0.658998 -0.698729
vn 0.527717 0.088330 0.844815
vn 0.924262 0.381738 -0.003853
vn 0.924253 0.381762 -0.003854
vn 0.524277 -0.840592 0.136157
vn -0.309949 -0.943456 0.117565
vn -0.224540 -0.966383 0.125247
vn 0.025939 0.973689 -0.226400
vn 0.452858 -0.880681 -0.138996
vn 0.447914 -0.877747 -0.170099
vn 0.338343 -0.275884 0.899673
vn 0.362458 -0.282535 0.888143
vn -0.253650 0.950046 0.181866
vn 0.023103 -0.668937 -0.742960
vn 0.771278 -0.148237 0.618995
vn 0.751489 -0.053023 0.657611
vn 0.050734 -0.673565 -0.737385
vn 0.766309 -0.211737 0.606579
vn 0.651632 -0.758461 0.010574
vn 0.630123 -0.776394 0.012578
vn 0.641848 -0.766822 0.003819
vn 0.536322 0.064911 0.841514
vn 0.758946 0.628804 0.169134
vn 0.466537 0.871435 0.151472
vn -0.079285 0.988268 0.130541
vn -0.115290 0.983756 0.137596
vn 0.271478 0.957837 -0.094063
vn -0.965762 -0.259361 0.006066
vn 0.808474 -0.543651 0.225416
vn -0.373123 0.894902 -0.244804
vn -0.689699 0.684227 -0.236957
vn -0.396572 0.885426 -0.242387
vn -0.689680 -0.720294 0.074284
vn -0.474607 -0.876501 0.080585
vn -0.976911 0.210790 -0.034812
vn -0.913084 -0.406347 -0.034058
vn 0.975854 0.200678 -0.086237
vn 0.964908 0.238726 0.109374
vn -0.331094 0.912345 -0.240840
vn 0.744474 -0.658237 -0.111726
vn 0.715474 -0.688982 -0.115765
vn 0.712102 -0.691769 -0.119860
vn -0.876141 -0.442587 0.191033
vn -0.915035 -0.346701 0.206179
vn 0.892474 -0.451012 -0.008918
vn -0.530597 -0.807417 0.257962
vn 0.907976 0.034798 0.417576
vn -0.853412 -0.503104 0.136290
vn -0.863159 -0.504569 -0.019173
vn -0.724330 0.672624 -0.151402
vn -0.228730 0.935763 -0.268384
vn -0.382344 0.890479 -0.246696
vn -0.617567 0.738742 -0.269945
vn -0.655413 0.276625 -0.702788
vn 0.571205 0.819900 0.038595
vn 0.462568 0.884552 0.059985
vn 0.483613 0.874398 0.039332
vn 0.413385 0.908639 0.059065
vn -0.146649 0.980432 -0.131328
vn -0.137440 0.982722 -0.123967
vn -0.978072 0.120717 -0.169715
vn -0.693772 -0.258046 -0.672378
vn -0.689820 0.280381 -0.667483
vn 0.670761 0.739798 0.052708
vn 0.913669 0.405962 0.020079
vn 0.471930 0.880173 -0.050776
vn -0.767760 0.636175 -0.076328
vn -0.729363 -0.194239 -0.655973
vn -0.653281 0.747282 -0.121632
vn -0.035135 0.986002 0.162992
vn -0.656074 0.754675 -0.005701
vn -0.809412 0.582549 -0.074089
vn -0.708124 -0.686470 0.165286
vn -0.222505 -0.970768 0.090002
vn -0.829159 0.554802 -0.068485
vn -0.852606 0.481131 -0.203904
vn -0.995128 0.093149 -0.032289
vn -0.679178 -0.698747 -0.224656
vn -0.866520 -0.444545 -0.226988
vn -0.664167 -0.743735 -0.075768
vn -0.273985 -0.941807 -0.194759
vn 0.410447 -0.894182 0.178806
vn -0.474700 0.816578 0.328420
vn -0.423870 0.840937 0.336391
vn -0.994545 0.046873 0.093185
vn -0.554828 -0.828409 -0.076837
vn -0.791782 -0.218787 0.570275
vn -0.049676 -0.995481 -0.080927
vn -0.634197 -0.692708 -0.343439
vn -0.991335 0.092567 -0.093200
vn -0.998660 -0.016711 -0.048973
vn 0.234977 -0.970716 0.049964
vn -0.901474 -0.432180 0.023777
vn -0.899711 -0.435988 0.020843
vn -0.615097 0.778541 -0.124619
vn -0.570001 0.808622 -0.145705
vn -0.376124 0.759978 -0.530061
vn 0.991758 -0.046116 0.119541
vn -0.410674 0.713254 -0.567993
vn 0.499542 0.859269 0.110061
vn 0.526913 0.838845 0.136753
vn -0.124242 0.869752 -0.477593
vn 0.990089 0.138252 0.024689
vn -0.117358 0.873182 -0.473055
vn -0.125738 0.873274 -0.470726
vn 0.145330 -0.919260 0.365842
vn -0.087214 0.879079 -0.468630
vn 0.185811 -0.907824 0.375940
vn -0.578772 0.607304 -0.544247
vn -0.108586 0.569177 0.815013
vn 0.440224 0.894365 0.079462
vn -0.109276 0.569430 0.814744
vn -0.109937 0.570551 0.813870
vn -0.109086 0.569794 0.814516
vn 0.403579 0.710865 -0.576017
vn -0.589182 0.716529 -0.373432
vn -0.380442 0.884601 -0.269713
vn 0.145903 -0.987295 -0.062940
vn 0.679685 -0.732385 -0.040498
vn -0.700503 -0.698164 -0.147862
vn -0.977039 -0.092396 -0.191984
vn -0.476283 -0.876871 -0.065205
vn 0.302651 -0.953074 -0.007229
vn -0.320129 0.884337 -0.339801
vn -0.604394 -0.792880 -0.077778
vn -0.624826 0.373828 -0.685452
vn 0.543154 0.827283 0.143479
vn 0.580228 0.802179 0.140867
vn 0.975373 0.125095 0.181653
vn -0.720397 -0.597041 -0.352944
vn -0.785906 -0.470426 -0.401313
vn 0.031733 -0.998534 -0.043842
vn -0.004293 -0.998841 -0.047949
vn -0.740782 -0.668316 -0.067793
vn -0.626054 -0.776736 -0.068833
vn 0.145907 -0.987294 -0.062939
vn 0.145860 -0.987301 -0.062941
vn 0.679684 -0.732386 -0.040498
vn 0.679693 -0.732378 -0.040497
vn -0.518027 0.791459 -0.324407
vn -0.926869 0.257408 -0.273230
vn -0.818976 -0.535493 -0.206218
vn -0.741033 -0.635952 -0.215487
vn -0.814742 -0.546584 -0.193497
vn -0.890598 -0.403412 -0.209987
vn -0.926456 0.260751 -0.271457
vn 0.000000 0.000000 0.000000
vn -0.951343 0.307380 -0.021546
vn -0.907322 -0.386844 -0.164679
vn -0.939988 -0.302184 -0.158450
vn -0.101838 0.810576 0.576711
vn 0.281617 -0.904205 0.321100
vn 0.356201 -0.851282 0.385280
vn 0.509422 -0.753745 0.415160
vn -0.396743 -0.909272 -0.125773
vn -0.399245 -0.908079 -0.126477
vn -0.890353 0.441134 0.112576
vn -0.961148 -0.231628 -0.150146
vn -0.928161 -0.337865 -0.156088
vn 0.119280 0.755191 0.644561
vn 0.109993 0.736549 0.667381
vn -0.395376 -0.910009 -0.124747
vn -0.395834 -0.909642 -0.125968
vn -0.975401 0.189898 -0.111947
vn -0.933318 0.080261 -0.349965
vn 0.925523 -0.293418 0.239400
vn -0.422292 0.879013 -0.221373
vn -0.956041 0.280857 -0.084289
vn -0.956852 0.272182 -0.101738
vn -0.391254 0.893524 -0.220307
vn -0.286513 0.958076 0.000886
vn -0.595350 0.636505 -0.490326
vn -0.150932 -0.988420 0.015658
vn -0.967364 0.130941 -0.216937
f 161//161 1//1 162//162
f 275//275 62//62 51//51
f 52//52 2//2 154//154
f 225//225 154//154 3//3
f 52//52 154//154 225//225
f 53//53 169//169 51//51
f 4//4 156//156 155//155
f 156//156 3//3 154//154
f 155//155 154//154 2//2
f 156//156 154//154 155//155
f 230//230 54//54 229//229
f 55//55 226//226 227//227
f 55//55 227//227 228//228
f 227//227 226//226 228//228
f 53//53 54//54 230//230
f 169//169 230//230 229//229
f 53//53 230//230 169//169
f 73//73 12//12 231//231
f 232//232 238//238 6//6
f 241//241 238//238 232//232
f 233//233 234//234 57//57
f 5//5 234//234 233//233
f 57//57 258//258 233//233
f 258//258 76//76 257//257
f 233//233 257//257 5//5
f 258//258 257//257 233//233
f 241//241 232//232 6//6
f 14//14 236//236 235//235
f 259//259 15//15 260//260
f 259//259 260//260 237//237
f 79//79 235//235 236//236
f 261//261 236//236 14//14
f 79//79 236//236 261//261
f 273//273 83//83 58//58
f 160//160 64//64 158//158
f 59//59 157//157 240//240
f 59//59 240//240 7//7
f 7//7 240//240 157//157
f 239//239 61//61 60//60
f 158//158 159//159 160//160
f 239//239 242//242 61//61
f 60//60 242//242 239//239
f 246//246 165//165 8//8
f 68//68 165//165 246//246
f 62//62 273//273 58//58
f 68//68 246//246 8//8
f 69//69 63//63 247//247
f 9//9 64//64 243//243
f 69//69 247//247 248//248
f 247//247 63//63 248//248
f 65//65 245//245 10//10
f 66//66 251//251 244//244
f 251//251 72//72 252//252
f 244//244 252//252 67//67
f 251//251 252//252 244//244
f 9//9 243//243 159//159
f 243//243 64//64 160//160
f 243//243 160//160 159//159
f 10//10 245//245 249//249
f 245//245 65//65 249//249
f 11//11 250//250 70//70
f 250//250 270//270 70//70
f 11//11 270//270 250//250
f 267//267 71//71 268//268
f 268//268 269//269 267//267
f 269//269 71//71 267//267
f 1//1 161//161 271//271
f 161//161 162//162 272//272
f 271//271 272//272 81//81
f 161//161 272//272 271//271
f 273//273 62//62 275//275
f 280//280 167//167 275//275
f 167//167 89//89 275//275
f 280//280 275//275 169//169
f 275//275 51//51 169//169
f 164//164 229//229 56//56
f 169//169 229//229 164//164
f 21//21 175//175 231//231
f 231//231 253//253 73//73
f 175//175 253//253 231//231
f 73//73 253//253 175//175
f 74//74 255//255 254//254
f 254//254 255//255 21//21
f 74//74 254//254 13//13
f 254//254 21//21 174//174
f 254//254 174//174 13//13
f 75//75 164//164 56//56
f 19//19 74//74 13//13
f 19//19 13//13 171//171
f 80//80 78//78 262//262
f 263//263 77//77 264//264
f 15//15 259//259 237//237
f 80//80 262//262 265//265
f 262//262 78//78 265//265
f 261//261 14//14 274//274
f 261//261 274//274 79//79
f 77//77 263//263 266//266
f 263//263 264//264 266//266
f 166//166 256//256 16//16
f 163//163 12//12 82//82
f 275//275 83//83 273//273
f 12//12 163//163 231//231
f 231//231 163//163 21//21
f 167//167 190//190 89//89
f 190//190 167//167 85//85
f 83//83 275//275 89//89
f 180//180 85//85 167//167
f 180//180 167//167 280//280
f 168//168 279//279 280//280
f 90//90 279//279 168//168
f 179//179 86//86 283//283
f 179//179 283//283 17//17
f 18//18 168//168 169//169
f 168//168 280//280 169//169
f 75//75 18//18 169//169
f 283//283 86//86 17//17
f 169//169 164//164 75//75
f 170//170 276//276 84//84
f 170//170 281//281 276//276
f 21//21 187//187 176//176
f 176//176 282//282 281//281
f 187//187 282//282 176//176
f 19//19 171//171 177//177
f 171//171 13//13 174//174
f 177//177 174//174 21//21
f 171//171 174//174 177//177
f 19//19 177//177 172//172
f 177//177 21//21 176//176
f 172//172 176//176 281//281
f 177//177 176//176 172//172
f 281//281 170//170 172//172
f 172//172 84//84 19//19
f 170//170 84//84 172//172
f 277//277 163//163 82//82
f 277//277 295//295 286//286
f 295//295 20//20 173//173
f 286//286 173//173 20//20
f 295//295 173//173 286//286
f 166//166 23//23 256//256
f 180//180 178//178 301//301
f 280//280 279//279 178//178
f 279//279 90//90 181//181
f 178//178 181//181 26//26
f 279//279 181//181 178//178
f 282//282 187//187 29//29
f 168//168 18//18 284//284
f 285//285 23//23 22//22
f 285//285 22//22 182//182
f 22//22 23//23 184//184
f 22//22 184//184 27//27
f 23//23 285//285 88//88
f 285//285 286//286 88//88
f 277//277 286//286 285//285
f 188//188 163//163 277//277
f 184//184 189//189 30//30
f 23//23 189//189 184//184
f 286//286 20//20 88//88
f 189//189 24//24 30//30
f 189//189 23//23 166//166
f 16//16 24//24 189//189
f 16//16 189//189 166//166
f 188//188 29//29 187//187
f 163//163 187//187 21//21
f 188//188 187//187 163//163
f 190//190 92//92 89//89
f 190//190 85//85 31//31
f 31//31 85//85 278//278
f 287//287 278//278 25//25
f 31//31 278//278 287//287
f 25//25 278//278 301//301
f 278//278 85//85 180//180
f 278//278 180//180 301//301
f 280//280 178//178 180//180
f 91//91 297//297 284//284
f 297//297 90//90 168//168
f 297//297 168//168 284//284
f 289//289 87//87 290//290
f 289//289 290//290 288//288
f 291//291 294//294 292//292
f 182//182 22//22 27//27
f 87//87 289//289 288//288
f 182//182 183//183 285//285
f 183//183 277//277 285//285
f 293//293 185//185 194//194
f 293//293 183//183 182//182
f 29//29 194//194 185//185
f 188//188 277//277 183//183
f 188//188 183//183 293//293
f 29//29 188//188 194//194
f 188//188 293//293 194//194
f 184//184 30//30 186//186
f 184//184 186//186 27//27
f 191//191 28//28 298//298
f 93//93 92//92 299//299
f 92//92 190//190 299//299
f 299//299 190//190 31//31
f 192//192 300//300 193//193
f 300//300 93//93 299//299
f 193//193 299//299 31//31
f 300//300 299//299 193//193
f 26//26 191//191 178//178
f 191//191 298//298 178//178
f 26//26 90//90 297//297
f 296//296 297//297 91//91
f 26//26 297//297 296//296
f 192//192 193//193 287//287
f 193//193 31//31 287//287
f 287//287 25//25 192//192
f 301//301 178//178 298//298
f 191//191 292//292 28//28
f 91//91 294//294 296//296
f 296//296 291//291 292//292
f 294//294 291//291 296//296
f 292//292 191//191 296//296
f 296//296 191//191 26//26
f 94//94 98//98 311//311
f 311//311 302//302 94//94
f 98//98 302//302 311//311
f 197//197 303//303 304//304
f 313//313 196//196 195//195
f 304//304 303//303 305//305
f 304//304 305//305 32//32
f 306//306 305//305 303//303
f 32//32 305//305 198//198
f 198//198 306//306 32//32
f 305//305 306//306 198//198
f 308//308 96//96 307//307
f 95//95 96//96 308//308
f 95//95 308//308 307//307
f 197//197 195//195 196//196
f 309//309 324//324 32//32
f 99//99 310//310 97//97
f 195//195 197//197 312//312
f 313//313 312//312 101//101
f 195//195 312//312 313//313
f 312//312 197//197 304//304
f 312//312 304//304 100//100
f 100//100 304//304 315//315
f 304//304 32//32 315//315
f 310//310 316//316 97//97
f 99//99 316//316 310//310
f 314//314 101//101 312//312
f 314//314 312//312 100//100
f 324//324 315//315 32//32
f 204//204 35//35 201//201
f 204//204 201//201 33//33
f 101//101 314//314 102//102
f 314//314 100//100 102//102
f 200//200 206//206 205//205
f 33//33 100//100 204//204
f 103//103 323//323 106//106
f 309//309 315//315 324//324
f 330//330 321//321 322//322
f 318//318 205//205 206//206
f 35//35 317//317 201//201
f 201//201 317//317 33//33
f 104//104 35//35 319//319
f 320//320 319//319 105//105
f 104//104 319//319 320//320
f 36//36 34//34 199//199
f 203//203 199//199 34//34
f 105//105 319//319 110//110
f 319//319 35//35 204//204
f 319//319 204//204 110//110
f 200//200 205//205 340//340
f 340//340 322//322 334//334
f 113//113 106//106 323//323
f 113//113 323//323 103//103
f 309//309 325//325 315//315
f 315//315 204//204 100//100
f 325//325 204//204 315//315
f 107//107 329//329 328//328
f 329//329 326//326 328//328
f 337//337 327//327 326//326
f 321//321 330//330 328//328
f 328//328 326//326 333//333
f 109//109 108//108 331//331
f 331//331 332//332 109//109
f 108//108 332//332 331//331
f 203//203 36//36 199//199
f 333//333 202//202 339//339
f 327//327 202//202 333//333
f 326//326 327//327 333//333
f 339//339 110//110 333//333
f 333//333 110//110 204//204
f 321//321 325//325 334//334
f 321//321 334//334 322//322
f 321//321 328//328 333//333
f 321//321 333//333 325//325
f 333//333 204//204 325//325
f 111//111 335//335 112//112
f 115//115 112//112 335//335
f 115//115 335//335 111//111
f 334//334 325//325 206//206
f 200//200 340//340 334//334
f 200//200 334//334 206//206
f 38//38 337//337 336//336
f 207//207 336//336 337//337
f 38//38 336//336 207//207
f 118//118 114//114 37//37
f 118//118 37//37 343//343
f 343//343 37//37 114//114
f 329//329 337//337 326//326
f 202//202 327//327 338//338
f 202//202 338//338 339//339
f 107//107 207//207 329//329
f 207//207 337//337 329//329
f 38//38 207//207 107//107
f 318//318 340//340 205//205
f 116//116 117//117 342//342
f 116//116 342//342 341//341
f 342//342 117//117 341//341
f 348//348 349//349 121//121
f 40//40 349//349 348//348
f 134//134 210//210 209//209
f 209//209 210//210 41//41
f 122//122 208//208 346//346
f 122//122 351//351 208//208
f 346//346 208//208 351//351
f 211//211 43//43 39//39
f 120//120 347//347 345//345
f 121//121 40//40 348//348
f 352//352 355//355 350//350
f 352//352 350//350 353//353
f 353//353 355//355 352//352
f 123//123 126//126 356//356
f 123//123 356//356 354//354
f 356//356 126//126 354//354
f 119//119 120//120 357//357
f 345//345 357//357 120//120
f 124//124 357//357 345//345
f 347//347 124//124 345//345
f 124//124 125//125 388//388
f 124//124 388//388 357//357
f 388//388 119//119 357//357
f 360//360 128//128 358//358
f 42//42 359//359 127//127
f 362//362 361//361 128//128
f 132//132 361//361 362//362
f 125//125 364//364 388//388
f 132//132 362//362 358//358
f 362//362 128//128 360//360
f 362//362 360//360 358//358
f 211//211 377//377 209//209
f 211//211 209//209 41//41
f 129//129 363//363 131//131
f 130//130 127//127 359//359
f 130//130 359//359 42//42
f 211//211 41//41 43//43
f 133//133 131//131 363//363
f 133//133 363//363 129//129
f 41//41 210//210 134//134
f 375//375 138//138 376//376
f 344//344 217//217 119//119
f 211//211 39//39 377//377
f 212//212 375//375 376//376
f 119//119 388//388 344//344
f 141//141 380//380 381//381
f 380//380 46//46 381//381
f 388//388 364//364 215//215
f 215//215 372//372 388//388
f 380//380 213//213 46//46
f 141//141 213//213 380//380
f 370//370 142//142 383//383
f 370//370 383//383 373//373
f 373//373 383//383 214//214
f 383//383 142//142 382//382
f 214//214 382//382 44//44
f 383//383 382//382 214//214
f 388//388 372//372 365//365
f 44//44 368//368 214//214
f 214//214 369//369 373//373
f 368//368 369//369 214//214
f 143//143 384//384 385//385
f 384//384 45//45 366//366
f 385//385 366//366 135//135
f 384//384 366//366 385//385
f 47//47 367//367 386//386
f 367//367 136//136 387//387
f 386//386 387//387 144//144
f 367//367 387//387 386//386
f 371//371 134//134 219//219
f 371//371 219//219 49//49
f 137//137 134//134 371//371
f 137//137 371//371 49//49
f 364//364 372//372 215//215
f 369//369 368//368 374//374
f 369//369 374//374 373//373
f 216//216 138//138 375//375
f 216//216 375//375 212//212
f 134//134 209//209 218//218
f 209//209 377//377 218//218
f 140//140 378//378 379//379
f 139//139 140//140 379//379
f 139//139 379//379 378//378
f 365//365 145//145 388//388
f 377//377 48//48 218//218
f 48//48 138//138 216//216
f 221//221 216//216 220//220
f 48//48 216//216 221//221
f 421//421 219//219 218//218
f 218//218 219//219 134//134
f 217//217 216//216 212//212
f 220//220 216//216 217//217
f 388//388 145//145 344//344
f 414//414 218//218 48//48
f 218//218 414//414 421//421
f 217//217 221//221 220//220
f 146//146 394//394 389//389
f 394//394 148//148 389//389
f 147//147 223//223 221//221
f 223//223 48//48 221//221
f 147//147 221//221 396//396
f 217//217 396//396 221//221
f 219//219 421//421 396//396
f 390//390 391//391 392//392
f 390//390 392//392 393//393
f 145//145 222//222 344//344
f 390//390 393//393 391//391
f 148//148 394//394 146//146
f 223//223 395//395 405//405
f 48//48 223//223 414//414
f 414//414 223//223 405//405
f 223//223 405//405 395//395
f 396//396 223//223 147//147
f 223//223 396//396 405//405
f 219//219 396//396 224//224
f 224//224 396//396 344//344
f 344//344 396//396 217//217
f 344//344 222//222 224//224
f 219//219 224//224 49//49
f 149//149 397//397 398//398
f 150//150 406//406 407//407
f 406//406 149//149 398//398
f 407//407 398//398 397//397
f 406//406 398//398 407//407
f 151//151 399//399 408//408
f 403//403 410//410 404//404
f 421//421 405//405 396//396
f 50//50 402//402 400//400
f 401//401 400//400 402//402
f 50//50 400//400 401//401
f 403//403 404//404 411//411
f 403//403 411//411 410//410
f 412//412 417//417 413//413
f 408//408 409//409 151//151
f 399//399 409//409 408//408
f 152//152 419//419 415//415
f 417//417 416//416 153//153
f 419//419 418//418 415//415
f 418//418 152//152 415//415
f 420//420 416//416 422//422
f 153//153 416//416 420//420
f 421//421 414//414 405//405
f 412//412 422//422 416//416
f 412//412 416//416 417//417
f 413//413 422//422 412//412
